solid Onshape
  facet normal -0.995356 0 -0.0962656
    outer loop
      vertex 19.3147 -26.5626 12.0946
      vertex 19.3185 -26.5626 12.0556
      vertex 19.3147 -26.7426 12.0946
    endloop
  endfacet
  facet normal -0.995356 0 -0.0962656
    outer loop
      vertex 19.3185 -26.5626 12.0556
      vertex 19.3185 -26.7426 12.0556
      vertex 19.3147 -26.7426 12.0946
    endloop
  endfacet
  facet normal 0 1 0
    outer loop
      vertex 19.3185 -26.5626 12.0556
      vertex 19.3147 -26.5626 12.0946
      vertex 19.3757 -26.5626 12.0868
    endloop
  endfacet
  facet normal 0 1 0
    outer loop
      vertex 19.3147 -26.5626 12.0946
      vertex 19.3794 -26.5626 12.1163
      vertex 19.3757 -26.5626 12.0868
    endloop
  endfacet
  facet normal 0 1 0
    outer loop
      vertex 19.3318 -26.5626 12.0189
      vertex 19.3185 -26.5626 12.0556
      vertex 19.3813 -26.5626 12.0576
    endloop
  endfacet
  facet normal 0 1 0
    outer loop
      vertex 19.3185 -26.5626 12.0556
      vertex 19.3757 -26.5626 12.0868
      vertex 19.3813 -26.5626 12.0576
    endloop
  endfacet
  facet normal -0.940164 0 -0.340722
    outer loop
      vertex 19.3185 -26.5626 12.0556
      vertex 19.3318 -26.5626 12.0189
      vertex 19.3185 -26.7426 12.0556
    endloop
  endfacet
  facet normal -0.940164 0 -0.340722
    outer loop
      vertex 19.3318 -26.5626 12.0189
      vertex 19.3318 -26.7426 12.0189
      vertex 19.3185 -26.7426 12.0556
    endloop
  endfacet
  facet normal -0.500654 -0.864292 -0.0484206
    outer loop
      vertex 19.3147 -26.7426 12.0946
      vertex 19.3185 -26.7426 12.0556
      vertex 19.332 -26.7526 12.0941
    endloop
  endfacet
  facet normal -0.50068 -0.864278 -0.0484077
    outer loop
      vertex 19.3185 -26.7426 12.0556
      vertex 19.3354 -26.7526 12.0595
      vertex 19.332 -26.7526 12.0941
    endloop
  endfacet
  facet normal -0.496965 -0.864289 0.0776504
    outer loop
      vertex 19.3207 -26.7426 12.1332
      vertex 19.3147 -26.7426 12.0946
      vertex 19.3374 -26.7526 12.1284
    endloop
  endfacet
  facet normal -0.496959 -0.864293 0.0776452
    outer loop
      vertex 19.3147 -26.7426 12.0946
      vertex 19.332 -26.7526 12.0941
      vertex 19.3374 -26.7526 12.1284
    endloop
  endfacet
  facet normal -0.988012 0 0.154376
    outer loop
      vertex 19.3147 -26.7426 12.0946
      vertex 19.3207 -26.7426 12.1332
      vertex 19.3147 -26.5626 12.0946
    endloop
  endfacet
  facet normal -0.988012 0 0.154376
    outer loop
      vertex 19.3207 -26.7426 12.1332
      vertex 19.3207 -26.5626 12.1332
      vertex 19.3147 -26.5626 12.0946
    endloop
  endfacet
  facet normal 0 1 0
    outer loop
      vertex 19.3147 -26.5626 12.0946
      vertex 19.3207 -26.5626 12.1332
      vertex 19.3794 -26.5626 12.1163
    endloop
  endfacet
  facet normal 0 1 0
    outer loop
      vertex 19.3207 -26.5626 12.1332
      vertex 19.392 -26.5626 12.1432
      vertex 19.3794 -26.5626 12.1163
    endloop
  endfacet
  facet normal -0.472913 -0.86428 -0.171387
    outer loop
      vertex 19.3185 -26.7426 12.0556
      vertex 19.3318 -26.7426 12.0189
      vertex 19.3354 -26.7526 12.0595
    endloop
  endfacet
  facet normal -0.472903 -0.864285 -0.171389
    outer loop
      vertex 19.3318 -26.7426 12.0189
      vertex 19.3472 -26.7526 12.0268
      vertex 19.3354 -26.7526 12.0595
    endloop
  endfacet
  facet normal -0.992381 0 0.123206
    outer loop
      vertex 19.3757 -26.5626 12.0868
      vertex 19.3794 -26.5626 12.1163
      vertex 19.3757 -25.823 12.0868
    endloop
  endfacet
  facet normal -0.992381 0 0.123206
    outer loop
      vertex 19.3794 -26.5626 12.1163
      vertex 19.3794 -25.823 12.1163
      vertex 19.3757 -25.823 12.0868
    endloop
  endfacet
  facet normal -0.981892 0 -0.189441
    outer loop
      vertex 19.3813 -26.5626 12.0576
      vertex 19.3757 -26.5626 12.0868
      vertex 19.3813 -25.823 12.0576
    endloop
  endfacet
  facet normal -0.981892 0 -0.189441
    outer loop
      vertex 19.3757 -26.5626 12.0868
      vertex 19.3757 -25.823 12.0868
      vertex 19.3813 -25.823 12.0576
    endloop
  endfacet
  facet normal 0 1 0
    outer loop
      vertex 19.3538 -26.5626 11.9866
      vertex 19.3318 -26.5626 12.0189
      vertex 19.3813 -26.5626 12.0576
    endloop
  endfacet
  facet normal -0.825866 0 -0.563867
    outer loop
      vertex 19.3318 -26.5626 12.0189
      vertex 19.3538 -26.5626 11.9866
      vertex 19.3318 -26.7426 12.0189
    endloop
  endfacet
  facet normal -0.825866 0 -0.563867
    outer loop
      vertex 19.3538 -26.5626 11.9866
      vertex 19.3538 -26.7426 11.9866
      vertex 19.3318 -26.7426 12.0189
    endloop
  endfacet
  facet normal -0.875284 0 -0.483609
    outer loop
      vertex 19.3957 -26.5626 12.0316
      vertex 19.3813 -26.5626 12.0576
      vertex 19.3957 -25.823 12.0316
    endloop
  endfacet
  facet normal -0.875284 0 -0.483609
    outer loop
      vertex 19.3813 -26.5626 12.0576
      vertex 19.3813 -25.823 12.0576
      vertex 19.3957 -25.823 12.0316
    endloop
  endfacet
  facet normal 0 1 0
    outer loop
      vertex 19.3813 -26.5626 12.0576
      vertex 19.3957 -26.5626 12.0316
      vertex 19.3538 -26.5626 11.9866
    endloop
  endfacet
  facet normal 0 1 0
    outer loop
      vertex 19.3957 -26.5626 12.0316
      vertex 19.3832 -26.5626 11.9608
      vertex 19.3538 -26.5626 11.9866
    endloop
  endfacet
  facet normal -0.462041 -0.864292 0.198789
    outer loop
      vertex 19.3362 -26.7426 12.1691
      vertex 19.3207 -26.7426 12.1332
      vertex 19.3511 -26.7526 12.1603
    endloop
  endfacet
  facet normal -0.462045 -0.864289 0.198795
    outer loop
      vertex 19.3207 -26.7426 12.1332
      vertex 19.3374 -26.7526 12.1284
      vertex 19.3511 -26.7526 12.1603
    endloop
  endfacet
  facet normal -0.918589 0 0.395215
    outer loop
      vertex 19.3207 -26.7426 12.1332
      vertex 19.3362 -26.7426 12.1691
      vertex 19.3207 -26.5626 12.1332
    endloop
  endfacet
  facet normal -0.918589 0 0.395215
    outer loop
      vertex 19.3362 -26.7426 12.1691
      vertex 19.3362 -26.5626 12.1691
      vertex 19.3207 -26.5626 12.1332
    endloop
  endfacet
  facet normal 0 -1 0
    outer loop
      vertex 19.332 -26.7526 12.0941
      vertex 19.3354 -26.7526 12.0595
      vertex 19.3976 -26.7526 12.0545
    endloop
  endfacet
  facet normal 0 -1 0
    outer loop
      vertex 19.3354 -26.7526 12.0595
      vertex 19.3472 -26.7526 12.0268
      vertex 19.3976 -26.7526 12.0545
    endloop
  endfacet
  facet normal 0 -1 0
    outer loop
      vertex 19.3976 -26.7526 12.0545
      vertex 19.3472 -26.7526 12.0268
      vertex 19.3668 -26.7526 11.9981
    endloop
  endfacet
  facet normal 0 -1 0
    outer loop
      vertex 19.3374 -26.7526 12.1284
      vertex 19.332 -26.7526 12.0941
      vertex 19.3976 -26.7526 12.0545
    endloop
  endfacet
  facet normal 0 -1 0
    outer loop
      vertex 19.3511 -26.7526 12.1603
      vertex 19.3374 -26.7526 12.1284
      vertex 19.4034 -26.7526 12.1355
    endloop
  endfacet
  facet normal 0 -1 0
    outer loop
      vertex 19.3374 -26.7526 12.1284
      vertex 19.3976 -26.7526 12.0545
      vertex 19.4034 -26.7526 12.1355
    endloop
  endfacet
  facet normal -0.905738 0 0.423837
    outer loop
      vertex 19.3794 -26.5626 12.1163
      vertex 19.392 -26.5626 12.1432
      vertex 19.3794 -25.823 12.1163
    endloop
  endfacet
  facet normal -0.905738 0 0.423837
    outer loop
      vertex 19.392 -26.5626 12.1432
      vertex 19.392 -25.823 12.1432
      vertex 19.3794 -25.823 12.1163
    endloop
  endfacet
  facet normal 0 1 0
    outer loop
      vertex 19.3207 -26.5626 12.1332
      vertex 19.3362 -26.5626 12.1691
      vertex 19.392 -26.5626 12.1432
    endloop
  endfacet
  facet normal 0 1 0
    outer loop
      vertex 19.3362 -26.5626 12.1691
      vertex 19.4123 -26.5626 12.1649
      vertex 19.392 -26.5626 12.1432
    endloop
  endfacet
  facet normal -0.41541 -0.864287 -0.283624
    outer loop
      vertex 19.3318 -26.7426 12.0189
      vertex 19.3538 -26.7426 11.9866
      vertex 19.3472 -26.7526 12.0268
    endloop
  endfacet
  facet normal -0.415439 -0.864273 -0.283626
    outer loop
      vertex 19.3538 -26.7426 11.9866
      vertex 19.3668 -26.7526 11.9981
      vertex 19.3472 -26.7526 12.0268
    endloop
  endfacet
  facet normal -0.49547 0.863349 -0.0955934
    outer loop
      vertex 19.3813 -25.823 12.0576
      vertex 19.3757 -25.823 12.0868
      vertex 19.3983 -25.8126 12.0638
    endloop
  endfacet
  facet normal -0.495499 0.863328 -0.0956311
    outer loop
      vertex 19.3757 -25.823 12.0868
      vertex 19.3937 -25.8126 12.0874
      vertex 19.3983 -25.8126 12.0638
    endloop
  endfacet
  facet normal -0.441696 0.863335 -0.244044
    outer loop
      vertex 19.3957 -25.823 12.0316
      vertex 19.3813 -25.823 12.0576
      vertex 19.4099 -25.8126 12.0427
    endloop
  endfacet
  facet normal -0.441682 0.863352 -0.244007
    outer loop
      vertex 19.3813 -25.823 12.0576
      vertex 19.3983 -25.8126 12.0638
      vertex 19.4099 -25.8126 12.0427
    endloop
  endfacet
  facet normal -0.500794 0.863331 0.0621743
    outer loop
      vertex 19.3757 -25.823 12.0868
      vertex 19.3794 -25.823 12.1163
      vertex 19.3937 -25.8126 12.0874
    endloop
  endfacet
  facet normal -0.500817 0.863318 0.0621583
    outer loop
      vertex 19.3794 -25.823 12.1163
      vertex 19.3967 -25.8126 12.1113
      vertex 19.3937 -25.8126 12.0874
    endloop
  endfacet
  facet normal -0.659708 0 -0.751522
    outer loop
      vertex 19.3538 -26.5626 11.9866
      vertex 19.3832 -26.5626 11.9608
      vertex 19.3538 -26.7426 11.9866
    endloop
  endfacet
  facet normal -0.659708 0 -0.751522
    outer loop
      vertex 19.3832 -26.5626 11.9608
      vertex 19.3832 -26.7426 11.9608
      vertex 19.3538 -26.7426 11.9866
    endloop
  endfacet
  facet normal -0.344638 0.863338 -0.368609
    outer loop
      vertex 19.4174 -25.823 12.0113
      vertex 19.3957 -25.823 12.0316
      vertex 19.4275 -25.8126 12.0262
    endloop
  endfacet
  facet normal -0.344638 0.863336 -0.368613
    outer loop
      vertex 19.3957 -25.823 12.0316
      vertex 19.4099 -25.8126 12.0427
      vertex 19.4275 -25.8126 12.0262
    endloop
  endfacet
  facet normal -0.682957 0 -0.730459
    outer loop
      vertex 19.3957 -25.823 12.0316
      vertex 19.4174 -25.823 12.0113
      vertex 19.3957 -26.5626 12.0316
    endloop
  endfacet
  facet normal -0.682957 0 -0.730459
    outer loop
      vertex 19.4174 -25.823 12.0113
      vertex 19.4174 -26.5626 12.0113
      vertex 19.3957 -26.5626 12.0316
    endloop
  endfacet
  facet normal 0 1 0
    outer loop
      vertex 19.3957 -26.5626 12.0316
      vertex 19.4174 -26.5626 12.0113
      vertex 19.3832 -26.5626 11.9608
    endloop
  endfacet
  facet normal 0 1 0
    outer loop
      vertex 19.4174 -26.5626 12.0113
      vertex 19.4181 -26.5626 11.9431
      vertex 19.3832 -26.5626 11.9608
    endloop
  endfacet
  facet normal 0 -1 0
    outer loop
      vertex 19.3724 -26.7526 12.1879
      vertex 19.3511 -26.7526 12.1603
      vertex 19.4034 -26.7526 12.1355
    endloop
  endfacet
  facet normal -0.398099 -0.864292 0.307435
    outer loop
      vertex 19.3511 -26.7526 12.1603
      vertex 19.3724 -26.7526 12.1879
      vertex 19.3362 -26.7426 12.1691
    endloop
  endfacet
  facet normal -0.398089 -0.864306 0.307407
    outer loop
      vertex 19.3724 -26.7526 12.1879
      vertex 19.3601 -26.7426 12.2001
      vertex 19.3362 -26.7426 12.1691
    endloop
  endfacet
  facet normal -0.791484 0 0.61119
    outer loop
      vertex 19.3362 -26.7426 12.1691
      vertex 19.3601 -26.7426 12.2001
      vertex 19.3362 -26.5626 12.1691
    endloop
  endfacet
  facet normal -0.791484 0 0.61119
    outer loop
      vertex 19.3601 -26.7426 12.2001
      vertex 19.3601 -26.5626 12.2001
      vertex 19.3362 -26.5626 12.1691
    endloop
  endfacet
  facet normal 0 -1 0
    outer loop
      vertex 19.4649 -26.7526 12.009
      vertex 19.3976 -26.7526 12.0545
      vertex 19.3668 -26.7526 11.9981
    endloop
  endfacet
  facet normal 0.560335 0 0.828266
    outer loop
      vertex 19.3976 -26.7526 12.0545
      vertex 19.4649 -26.7526 12.009
      vertex 19.3976 -26.6756 12.0545
    endloop
  endfacet
  facet normal 0.560335 0 0.828266
    outer loop
      vertex 19.4649 -26.7526 12.009
      vertex 19.4649 -26.6756 12.009
      vertex 19.3976 -26.6756 12.0545
    endloop
  endfacet
  facet normal 0.99747 0 -0.0710872
    outer loop
      vertex 19.3976 -26.7526 12.0545
      vertex 19.3976 -26.6756 12.0545
      vertex 19.4034 -26.6756 12.1355
    endloop
  endfacet
  facet normal 0.99747 0 -0.0710872
    outer loop
      vertex 19.4034 -26.7526 12.1355
      vertex 19.3976 -26.7526 12.0545
      vertex 19.4034 -26.6756 12.1355
    endloop
  endfacet
  facet normal 0.437135 0 -0.899396
    outer loop
      vertex 19.4034 -26.7526 12.1355
      vertex 19.4034 -26.6756 12.1355
      vertex 19.4764 -26.6756 12.171
    endloop
  endfacet
  facet normal 0.437135 0 -0.899396
    outer loop
      vertex 19.4764 -26.7526 12.171
      vertex 19.4034 -26.7526 12.1355
      vertex 19.4764 -26.6756 12.171
    endloop
  endfacet
  facet normal 0 -1 0
    outer loop
      vertex 19.4034 -26.7526 12.1355
      vertex 19.4764 -26.7526 12.171
      vertex 19.3998 -26.7526 12.2092
    endloop
  endfacet
  facet normal 0 -1 0
    outer loop
      vertex 19.4764 -26.7526 12.171
      vertex 19.4317 -26.7526 12.2231
      vertex 19.3998 -26.7526 12.2092
    endloop
  endfacet
  facet normal -0.730428 0 0.68299
    outer loop
      vertex 19.392 -26.5626 12.1432
      vertex 19.4123 -26.5626 12.1649
      vertex 19.392 -25.823 12.1432
    endloop
  endfacet
  facet normal -0.730428 0 0.68299
    outer loop
      vertex 19.4123 -26.5626 12.1649
      vertex 19.4123 -25.823 12.1649
      vertex 19.392 -25.823 12.1432
    endloop
  endfacet
  facet normal -0.457082 0.863323 0.21389
    outer loop
      vertex 19.3794 -25.823 12.1163
      vertex 19.392 -25.823 12.1432
      vertex 19.3967 -25.8126 12.1113
    endloop
  endfacet
  facet normal -0.457019 0.863352 0.213909
    outer loop
      vertex 19.392 -25.823 12.1432
      vertex 19.4069 -25.8126 12.1331
      vertex 19.3967 -25.8126 12.1113
    endloop
  endfacet
  facet normal 0 1 0
    outer loop
      vertex 19.3362 -26.5626 12.1691
      vertex 19.3601 -26.5626 12.2001
      vertex 19.4123 -26.5626 12.1649
    endloop
  endfacet
  facet normal 0 1 0
    outer loop
      vertex 19.3601 -26.5626 12.2001
      vertex 19.391 -26.5626 12.2241
      vertex 19.4123 -26.5626 12.1649
    endloop
  endfacet
  facet normal 0 1 0
    outer loop
      vertex 19.4123 -26.5626 12.1649
      vertex 19.391 -26.5626 12.2241
      vertex 19.4383 -26.5626 12.1793
    endloop
  endfacet
  facet normal 0 1 0
    outer loop
      vertex 19.391 -26.5626 12.2241
      vertex 19.4268 -26.5626 12.2397
      vertex 19.4383 -26.5626 12.1793
    endloop
  endfacet
  facet normal 0 1 0
    outer loop
      vertex 19.4383 -26.5626 12.1793
      vertex 19.4268 -26.5626 12.2397
      vertex 19.4675 -26.5626 12.1849
    endloop
  endfacet
  facet normal 0 1 0
    outer loop
      vertex 19.4268 -26.5626 12.2397
      vertex 19.4654 -26.5626 12.2459
      vertex 19.4675 -26.5626 12.1849
    endloop
  endfacet
  facet normal 0 1 0
    outer loop
      vertex 19.4675 -26.5626 12.1849
      vertex 19.4654 -26.5626 12.2459
      vertex 19.497 -26.5626 12.1813
    endloop
  endfacet
  facet normal 0 1 0
    outer loop
      vertex 19.4654 -26.5626 12.2459
      vertex 19.5044 -26.5626 12.2423
      vertex 19.497 -26.5626 12.1813
    endloop
  endfacet
  facet normal 0 1 0
    outer loop
      vertex 19.497 -26.5626 12.1813
      vertex 19.5044 -26.5626 12.2423
      vertex 19.5239 -26.5626 12.1687
    endloop
  endfacet
  facet normal 0 1 0
    outer loop
      vertex 19.5044 -26.5626 12.2423
      vertex 19.5412 -26.5626 12.2291
      vertex 19.5239 -26.5626 12.1687
    endloop
  endfacet
  facet normal 0 1 0
    outer loop
      vertex 19.5239 -26.5626 12.1687
      vertex 19.5412 -26.5626 12.2291
      vertex 19.5736 -26.5626 12.2072
    endloop
  endfacet
  facet normal -0.331843 -0.864278 -0.378027
    outer loop
      vertex 19.3538 -26.7426 11.9866
      vertex 19.3832 -26.7426 11.9608
      vertex 19.3668 -26.7526 11.9981
    endloop
  endfacet
  facet normal -0.331827 -0.864286 -0.378022
    outer loop
      vertex 19.3832 -26.7426 11.9608
      vertex 19.3929 -26.7526 11.9751
      vertex 19.3668 -26.7526 11.9981
    endloop
  endfacet
  facet normal 0 1 0
    outer loop
      vertex 19.3983 -25.8126 12.0638
      vertex 19.3937 -25.8126 12.0874
      vertex 19.4706 -25.8126 12.09
    endloop
  endfacet
  facet normal 0 1 0
    outer loop
      vertex 19.3937 -25.8126 12.0874
      vertex 19.3967 -25.8126 12.1113
      vertex 19.4706 -25.8126 12.09
    endloop
  endfacet
  facet normal 0 1 0
    outer loop
      vertex 19.4706 -25.8126 12.09
      vertex 19.3967 -25.8126 12.1113
      vertex 19.4069 -25.8126 12.1331
    endloop
  endfacet
  facet normal 0 1 0
    outer loop
      vertex 19.4099 -25.8126 12.0427
      vertex 19.3983 -25.8126 12.0638
      vertex 19.4706 -25.8126 12.09
    endloop
  endfacet
  facet normal 0 1 0
    outer loop
      vertex 19.4275 -25.8126 12.0262
      vertex 19.4099 -25.8126 12.0427
      vertex 19.4706 -25.8126 12.09
    endloop
  endfacet
  facet normal -0.452123 0 -0.891956
    outer loop
      vertex 19.3832 -26.5626 11.9608
      vertex 19.4181 -26.5626 11.9431
      vertex 19.3832 -26.7426 11.9608
    endloop
  endfacet
  facet normal -0.452123 0 -0.891956
    outer loop
      vertex 19.4181 -26.5626 11.9431
      vertex 19.4181 -26.7426 11.9431
      vertex 19.3832 -26.7426 11.9608
    endloop
  endfacet
  facet normal -0.213905 0.863347 -0.457031
    outer loop
      vertex 19.4443 -25.823 11.9987
      vertex 19.4174 -25.823 12.0113
      vertex 19.4493 -25.8126 12.016
    endloop
  endfacet
  facet normal -0.213897 0.863334 -0.457058
    outer loop
      vertex 19.4174 -25.823 12.0113
      vertex 19.4275 -25.8126 12.0262
      vertex 19.4493 -25.8126 12.016
    endloop
  endfacet
  facet normal -0.423901 0 -0.905709
    outer loop
      vertex 19.4174 -25.823 12.0113
      vertex 19.4443 -25.823 11.9987
      vertex 19.4174 -26.5626 12.0113
    endloop
  endfacet
  facet normal -0.423901 0 -0.905709
    outer loop
      vertex 19.4443 -25.823 11.9987
      vertex 19.4443 -26.5626 11.9987
      vertex 19.4174 -26.5626 12.0113
    endloop
  endfacet
  facet normal 0 1 0
    outer loop
      vertex 19.4493 -25.8126 12.016
      vertex 19.4275 -25.8126 12.0262
      vertex 19.4706 -25.8126 12.09
    endloop
  endfacet
  facet normal 0 1 0
    outer loop
      vertex 19.4174 -26.5626 12.0113
      vertex 19.4443 -26.5626 11.9987
      vertex 19.4181 -26.5626 11.9431
    endloop
  endfacet
  facet normal 0 1 0
    outer loop
      vertex 19.4443 -26.5626 11.9987
      vertex 19.4563 -26.5626 11.9347
      vertex 19.4181 -26.5626 11.9431
    endloop
  endfacet
  facet normal 0 -1 0
    outer loop
      vertex 19.3998 -26.7526 12.2092
      vertex 19.3724 -26.7526 12.1879
      vertex 19.4034 -26.7526 12.1355
    endloop
  endfacet
  facet normal -0.30912 -0.864306 0.396762
    outer loop
      vertex 19.3724 -26.7526 12.1879
      vertex 19.3998 -26.7526 12.2092
      vertex 19.3601 -26.7426 12.2001
    endloop
  endfacet
  facet normal -0.309124 -0.864287 0.3968
    outer loop
      vertex 19.3998 -26.7526 12.2092
      vertex 19.391 -26.7426 12.2241
      vertex 19.3601 -26.7426 12.2001
    endloop
  endfacet
  facet normal -0.614562 0 0.788869
    outer loop
      vertex 19.3601 -26.7426 12.2001
      vertex 19.391 -26.7426 12.2241
      vertex 19.3601 -26.5626 12.2001
    endloop
  endfacet
  facet normal -0.614562 0 0.788869
    outer loop
      vertex 19.391 -26.7426 12.2241
      vertex 19.391 -26.5626 12.2241
      vertex 19.3601 -26.5626 12.2001
    endloop
  endfacet
  facet normal 0 -1 0
    outer loop
      vertex 19.4034 -26.6756 12.1355
      vertex 19.3976 -26.6756 12.0545
      vertex 19.4764 -26.6756 12.171
    endloop
  endfacet
  facet normal 0 -1 0
    outer loop
      vertex 19.3976 -26.6756 12.0545
      vertex 19.4649 -26.6756 12.009
      vertex 19.4764 -26.6756 12.171
    endloop
  endfacet
  facet normal 0 -1 0
    outer loop
      vertex 19.4764 -26.6756 12.171
      vertex 19.4649 -26.6756 12.009
      vertex 19.5437 -26.6756 12.1255
    endloop
  endfacet
  facet normal 0 -1 0
    outer loop
      vertex 19.4649 -26.6756 12.009
      vertex 19.5379 -26.6756 12.0445
      vertex 19.5437 -26.6756 12.1255
    endloop
  endfacet
  facet normal 0 -1 0
    outer loop
      vertex 19.3668 -26.7526 11.9981
      vertex 19.3929 -26.7526 11.9751
      vertex 19.4649 -26.7526 12.009
    endloop
  endfacet
  facet normal 0 -1 0
    outer loop
      vertex 19.3929 -26.7526 11.9751
      vertex 19.4239 -26.7526 11.9594
      vertex 19.4649 -26.7526 12.009
    endloop
  endfacet
  facet normal 0 -1 0
    outer loop
      vertex 19.4649 -26.7526 12.009
      vertex 19.4239 -26.7526 11.9594
      vertex 19.4579 -26.7526 11.9519
    endloop
  endfacet
  facet normal 0 -1 0
    outer loop
      vertex 19.5379 -26.7526 12.0445
      vertex 19.4649 -26.7526 12.009
      vertex 19.526 -26.7526 11.9628
    endloop
  endfacet
  facet normal 0 -1 0
    outer loop
      vertex 19.4649 -26.7526 12.009
      vertex 19.4926 -26.7526 11.9531
      vertex 19.526 -26.7526 11.9628
    endloop
  endfacet
  facet normal -0.437144 0 0.899391
    outer loop
      vertex 19.4649 -26.7526 12.009
      vertex 19.5379 -26.7526 12.0445
      vertex 19.4649 -26.6756 12.009
    endloop
  endfacet
  facet normal -0.437144 0 0.899391
    outer loop
      vertex 19.5379 -26.7526 12.0445
      vertex 19.5379 -26.6756 12.0445
      vertex 19.4649 -26.6756 12.009
    endloop
  endfacet
  facet normal -0.200739 -0.864289 0.461203
    outer loop
      vertex 19.3998 -26.7526 12.2092
      vertex 19.4317 -26.7526 12.2231
      vertex 19.391 -26.7426 12.2241
    endloop
  endfacet
  facet normal -0.200738 -0.864286 0.461209
    outer loop
      vertex 19.4317 -26.7526 12.2231
      vertex 19.4268 -26.7426 12.2397
      vertex 19.391 -26.7426 12.2241
    endloop
  endfacet
  facet normal -0.560316 0 -0.828279
    outer loop
      vertex 19.4764 -26.6756 12.171
      vertex 19.5437 -26.6756 12.1255
      vertex 19.4764 -26.7526 12.171
    endloop
  endfacet
  facet normal -0.560316 0 -0.828279
    outer loop
      vertex 19.5437 -26.6756 12.1255
      vertex 19.5437 -26.7526 12.1255
      vertex 19.4764 -26.7526 12.171
    endloop
  endfacet
  facet normal 0 -1 0
    outer loop
      vertex 19.4764 -26.7526 12.171
      vertex 19.5437 -26.7526 12.1255
      vertex 19.5621 -26.7526 12.1942
    endloop
  endfacet
  facet normal 0 -1 0
    outer loop
      vertex 19.5437 -26.7526 12.1255
      vertex 19.5852 -26.7526 12.1682
      vertex 19.5621 -26.7526 12.1942
    endloop
  endfacet
  facet normal -0.483585 0 0.875297
    outer loop
      vertex 19.4123 -26.5626 12.1649
      vertex 19.4383 -26.5626 12.1793
      vertex 19.4123 -25.823 12.1649
    endloop
  endfacet
  facet normal -0.483585 0 0.875297
    outer loop
      vertex 19.4383 -26.5626 12.1793
      vertex 19.4383 -25.823 12.1793
      vertex 19.4123 -25.823 12.1649
    endloop
  endfacet
  facet normal -0.368584 0.863345 0.344646
    outer loop
      vertex 19.392 -25.823 12.1432
      vertex 19.4123 -25.823 12.1649
      vertex 19.4069 -25.8126 12.1331
    endloop
  endfacet
  facet normal -0.368604 0.863336 0.344647
    outer loop
      vertex 19.4123 -25.823 12.1649
      vertex 19.4233 -25.8126 12.1507
      vertex 19.4069 -25.8126 12.1331
    endloop
  endfacet
  facet normal -0.399081 0 0.916915
    outer loop
      vertex 19.391 -26.7426 12.2241
      vertex 19.4268 -26.7426 12.2397
      vertex 19.391 -26.5626 12.2241
    endloop
  endfacet
  facet normal -0.399081 0 0.916915
    outer loop
      vertex 19.4268 -26.7426 12.2397
      vertex 19.4268 -26.5626 12.2397
      vertex 19.391 -26.5626 12.2241
    endloop
  endfacet
  facet normal -0.244029 0.863339 0.441697
    outer loop
      vertex 19.4123 -25.823 12.1649
      vertex 19.4383 -25.823 12.1793
      vertex 19.4233 -25.8126 12.1507
    endloop
  endfacet
  facet normal -0.244047 0.86333 0.441703
    outer loop
      vertex 19.4383 -25.823 12.1793
      vertex 19.4444 -25.8126 12.1624
      vertex 19.4233 -25.8126 12.1507
    endloop
  endfacet
  facet normal -0.189477 0 0.981885
    outer loop
      vertex 19.4383 -26.5626 12.1793
      vertex 19.4675 -26.5626 12.1849
      vertex 19.4383 -25.823 12.1793
    endloop
  endfacet
  facet normal -0.189477 0 0.981885
    outer loop
      vertex 19.4675 -26.5626 12.1849
      vertex 19.4675 -25.823 12.1849
      vertex 19.4383 -25.823 12.1793
    endloop
  endfacet
  facet normal 0 1 0
    outer loop
      vertex 19.4069 -25.8126 12.1331
      vertex 19.4233 -25.8126 12.1507
      vertex 19.4706 -25.8126 12.09
    endloop
  endfacet
  facet normal 0 1 0
    outer loop
      vertex 19.4233 -25.8126 12.1507
      vertex 19.4444 -25.8126 12.1624
      vertex 19.4706 -25.8126 12.09
    endloop
  endfacet
  facet normal 0 1 0
    outer loop
      vertex 19.4706 -25.8126 12.09
      vertex 19.4444 -25.8126 12.1624
      vertex 19.4681 -25.8126 12.167
    endloop
  endfacet
  facet normal -0.227417 -0.864288 -0.448652
    outer loop
      vertex 19.3832 -26.7426 11.9608
      vertex 19.4181 -26.7426 11.9431
      vertex 19.3929 -26.7526 11.9751
    endloop
  endfacet
  facet normal -0.22739 -0.864303 -0.448636
    outer loop
      vertex 19.4181 -26.7426 11.9431
      vertex 19.4239 -26.7526 11.9594
      vertex 19.3929 -26.7526 11.9751
    endloop
  endfacet
  facet normal -0.10868 -0.864295 -0.491103
    outer loop
      vertex 19.4579 -26.7526 11.9519
      vertex 19.4239 -26.7526 11.9594
      vertex 19.4563 -26.7426 11.9347
    endloop
  endfacet
  facet normal -0.108675 -0.864299 -0.491098
    outer loop
      vertex 19.4239 -26.7526 11.9594
      vertex 19.4181 -26.7426 11.9431
      vertex 19.4563 -26.7426 11.9347
    endloop
  endfacet
  facet normal 0 -1 0
    outer loop
      vertex 19.5437 -26.7526 12.1255
      vertex 19.5379 -26.7526 12.0445
      vertex 19.6087 -26.7526 12.1033
    endloop
  endfacet
  facet normal 0 -1 0
    outer loop
      vertex 19.5379 -26.7526 12.0445
      vertex 19.6077 -26.7526 12.0686
      vertex 19.6087 -26.7526 12.1033
    endloop
  endfacet
  facet normal -0.997467 0 0.0711321
    outer loop
      vertex 19.5379 -26.7526 12.0445
      vertex 19.5437 -26.7526 12.1255
      vertex 19.5379 -26.6756 12.0445
    endloop
  endfacet
  facet normal -0.997467 0 0.0711321
    outer loop
      vertex 19.5437 -26.7526 12.1255
      vertex 19.5437 -26.6756 12.1255
      vertex 19.5379 -26.6756 12.0445
    endloop
  endfacet
  facet normal 0.0168723 -0.864285 -0.502719
    outer loop
      vertex 19.4926 -26.7526 11.9531
      vertex 19.4579 -26.7526 11.9519
      vertex 19.4954 -26.7426 11.936
    endloop
  endfacet
  facet normal 0.0168783 -0.864291 -0.502708
    outer loop
      vertex 19.4579 -26.7526 11.9519
      vertex 19.4563 -26.7426 11.9347
      vertex 19.4954 -26.7426 11.936
    endloop
  endfacet
  facet normal 0 -1 0
    outer loop
      vertex 19.4579 -26.7526 11.9519
      vertex 19.4926 -26.7526 11.9531
      vertex 19.4649 -26.7526 12.009
    endloop
  endfacet
  facet normal 0.141356 -0.864297 -0.482711
    outer loop
      vertex 19.526 -26.7526 11.9628
      vertex 19.4926 -26.7526 11.9531
      vertex 19.5329 -26.7426 11.947
    endloop
  endfacet
  facet normal 0.141352 -0.86429 -0.482723
    outer loop
      vertex 19.4926 -26.7526 11.9531
      vertex 19.4954 -26.7426 11.936
      vertex 19.5329 -26.7426 11.947
    endloop
  endfacet
  facet normal 0.256953 -0.864305 -0.432379
    outer loop
      vertex 19.5559 -26.7526 11.9806
      vertex 19.526 -26.7526 11.9628
      vertex 19.5665 -26.7426 11.9669
    endloop
  endfacet
  facet normal 0.256953 -0.864295 -0.432399
    outer loop
      vertex 19.526 -26.7526 11.9628
      vertex 19.5329 -26.7426 11.947
      vertex 19.5665 -26.7426 11.9669
    endloop
  endfacet
  facet normal 0 -1 0
    outer loop
      vertex 19.526 -26.7526 11.9628
      vertex 19.5559 -26.7526 11.9806
      vertex 19.5379 -26.7526 12.0445
    endloop
  endfacet
  facet normal 0 -1 0
    outer loop
      vertex 19.5559 -26.7526 11.9806
      vertex 19.5804 -26.7526 12.0052
      vertex 19.5379 -26.7526 12.0445
    endloop
  endfacet
  facet normal 0 -1 0
    outer loop
      vertex 19.5379 -26.7526 12.0445
      vertex 19.5804 -26.7526 12.0052
      vertex 19.598 -26.7526 12.0352
    endloop
  endfacet
  facet normal 0 -1 0
    outer loop
      vertex 19.466 -26.7526 12.2286
      vertex 19.4317 -26.7526 12.2231
      vertex 19.4764 -26.7526 12.171
    endloop
  endfacet
  facet normal -0.0797495 -0.864288 0.496635
    outer loop
      vertex 19.4317 -26.7526 12.2231
      vertex 19.466 -26.7526 12.2286
      vertex 19.4268 -26.7426 12.2397
    endloop
  endfacet
  facet normal -0.0797496 -0.864288 0.496635
    outer loop
      vertex 19.466 -26.7526 12.2286
      vertex 19.4654 -26.7426 12.2459
      vertex 19.4268 -26.7426 12.2397
    endloop
  endfacet
  facet normal 0 -1 0
    outer loop
      vertex 19.5006 -26.7526 12.2254
      vertex 19.466 -26.7526 12.2286
      vertex 19.4764 -26.7526 12.171
    endloop
  endfacet
  facet normal 0.0462781 -0.864287 0.500866
    outer loop
      vertex 19.466 -26.7526 12.2286
      vertex 19.5006 -26.7526 12.2254
      vertex 19.4654 -26.7426 12.2459
    endloop
  endfacet
  facet normal 0.0462633 -0.864299 0.500846
    outer loop
      vertex 19.5006 -26.7526 12.2254
      vertex 19.5044 -26.7426 12.2423
      vertex 19.4654 -26.7426 12.2459
    endloop
  endfacet
  facet normal 0 -1 0
    outer loop
      vertex 19.5333 -26.7526 12.2137
      vertex 19.5006 -26.7526 12.2254
      vertex 19.4764 -26.7526 12.171
    endloop
  endfacet
  facet normal 0.169369 -0.864304 0.473596
    outer loop
      vertex 19.5006 -26.7526 12.2254
      vertex 19.5333 -26.7526 12.2137
      vertex 19.5044 -26.7426 12.2423
    endloop
  endfacet
  facet normal 0.169369 -0.864303 0.473597
    outer loop
      vertex 19.5333 -26.7526 12.2137
      vertex 19.5412 -26.7426 12.2291
      vertex 19.5044 -26.7426 12.2423
    endloop
  endfacet
  facet normal 0 -1 0
    outer loop
      vertex 19.5621 -26.7526 12.1942
      vertex 19.5333 -26.7526 12.2137
      vertex 19.4764 -26.7526 12.171
    endloop
  endfacet
  facet normal 0.281803 -0.864309 0.416601
    outer loop
      vertex 19.5333 -26.7526 12.2137
      vertex 19.5621 -26.7526 12.1942
      vertex 19.5412 -26.7426 12.2291
    endloop
  endfacet
  facet normal 0.28186 -0.864279 0.416626
    outer loop
      vertex 19.5621 -26.7526 12.1942
      vertex 19.5736 -26.7426 12.2072
      vertex 19.5412 -26.7426 12.2291
    endloop
  endfacet
  facet normal 0.376607 -0.864277 0.333456
    outer loop
      vertex 19.5621 -26.7526 12.1942
      vertex 19.5852 -26.7526 12.1682
      vertex 19.5736 -26.7426 12.2072
    endloop
  endfacet
  facet normal 0.376624 -0.864268 0.333459
    outer loop
      vertex 19.5852 -26.7526 12.1682
      vertex 19.5995 -26.7426 12.178
      vertex 19.5736 -26.7426 12.2072
    endloop
  endfacet
  facet normal -0.216063 0 -0.976379
    outer loop
      vertex 19.4181 -26.5626 11.9431
      vertex 19.4563 -26.5626 11.9347
      vertex 19.4181 -26.7426 11.9431
    endloop
  endfacet
  facet normal -0.216063 0 -0.976379
    outer loop
      vertex 19.4563 -26.5626 11.9347
      vertex 19.4563 -26.7426 11.9347
      vertex 19.4181 -26.7426 11.9431
    endloop
  endfacet
  facet normal -0.0621824 0.863339 -0.500779
    outer loop
      vertex 19.4738 -25.823 11.9951
      vertex 19.4443 -25.823 11.9987
      vertex 19.4732 -25.8126 12.013
    endloop
  endfacet
  facet normal -0.062191 0.863345 -0.500767
    outer loop
      vertex 19.4443 -25.823 11.9987
      vertex 19.4493 -25.8126 12.016
      vertex 19.4732 -25.8126 12.013
    endloop
  endfacet
  facet normal -0.123225 0 -0.992379
    outer loop
      vertex 19.4443 -25.823 11.9987
      vertex 19.4738 -25.823 11.9951
      vertex 19.4443 -26.5626 11.9987
    endloop
  endfacet
  facet normal -0.123225 0 -0.992379
    outer loop
      vertex 19.4738 -25.823 11.9951
      vertex 19.4738 -26.5626 11.9951
      vertex 19.4443 -26.5626 11.9987
    endloop
  endfacet
  facet normal 0 1 0
    outer loop
      vertex 19.4732 -25.8126 12.013
      vertex 19.4493 -25.8126 12.016
      vertex 19.4706 -25.8126 12.09
    endloop
  endfacet
  facet normal 0 1 0
    outer loop
      vertex 19.4443 -26.5626 11.9987
      vertex 19.4738 -26.5626 11.9951
      vertex 19.4563 -26.5626 11.9347
    endloop
  endfacet
  facet normal 0 1 0
    outer loop
      vertex 19.4738 -26.5626 11.9951
      vertex 19.4954 -26.5626 11.936
      vertex 19.4563 -26.5626 11.9347
    endloop
  endfacet
  facet normal -0.158549 0 0.987351
    outer loop
      vertex 19.4268 -26.7426 12.2397
      vertex 19.4654 -26.7426 12.2459
      vertex 19.4268 -26.5626 12.2397
    endloop
  endfacet
  facet normal -0.158549 0 0.987351
    outer loop
      vertex 19.4654 -26.7426 12.2459
      vertex 19.4654 -26.5626 12.2459
      vertex 19.4268 -26.5626 12.2397
    endloop
  endfacet
  facet normal -0.0956185 0.863328 0.495502
    outer loop
      vertex 19.4383 -25.823 12.1793
      vertex 19.4675 -25.823 12.1849
      vertex 19.4444 -25.8126 12.1624
    endloop
  endfacet
  facet normal -0.0956156 0.863329 0.4955
    outer loop
      vertex 19.4675 -25.823 12.1849
      vertex 19.4681 -25.8126 12.167
      vertex 19.4444 -25.8126 12.1624
    endloop
  endfacet
  facet normal 0.123209 0 0.992381
    outer loop
      vertex 19.4675 -26.5626 12.1849
      vertex 19.497 -26.5626 12.1813
      vertex 19.4675 -25.823 12.1849
    endloop
  endfacet
  facet normal 0.123209 0 0.992381
    outer loop
      vertex 19.497 -26.5626 12.1813
      vertex 19.497 -25.823 12.1813
      vertex 19.4675 -25.823 12.1849
    endloop
  endfacet
  facet normal 0.0335559 0 -0.999437
    outer loop
      vertex 19.4563 -26.5626 11.9347
      vertex 19.4954 -26.5626 11.936
      vertex 19.4563 -26.7426 11.9347
    endloop
  endfacet
  facet normal 0.0335559 0 -0.999437
    outer loop
      vertex 19.4954 -26.5626 11.936
      vertex 19.4954 -26.7426 11.936
      vertex 19.4563 -26.7426 11.9347
    endloop
  endfacet
  facet normal 0.281022 0 -0.959701
    outer loop
      vertex 19.5329 -26.7426 11.947
      vertex 19.4954 -26.7426 11.936
      vertex 19.5329 -26.5626 11.947
    endloop
  endfacet
  facet normal 0.281022 0 -0.959701
    outer loop
      vertex 19.4954 -26.7426 11.936
      vertex 19.4954 -26.5626 11.936
      vertex 19.5329 -26.5626 11.947
    endloop
  endfacet
  facet normal 0.510856 0 -0.859666
    outer loop
      vertex 19.5665 -26.7426 11.9669
      vertex 19.5329 -26.7426 11.947
      vertex 19.5665 -26.5626 11.9669
    endloop
  endfacet
  facet normal 0.510856 0 -0.859666
    outer loop
      vertex 19.5329 -26.7426 11.947
      vertex 19.5329 -26.5626 11.947
      vertex 19.5665 -26.5626 11.9669
    endloop
  endfacet
  facet normal 0.35641 -0.864302 -0.354901
    outer loop
      vertex 19.5804 -26.7526 12.0052
      vertex 19.5559 -26.7526 11.9806
      vertex 19.5941 -26.7426 11.9946
    endloop
  endfacet
  facet normal 0.356406 -0.86431 -0.354885
    outer loop
      vertex 19.5559 -26.7526 11.9806
      vertex 19.5665 -26.7426 11.9669
      vertex 19.5941 -26.7426 11.9946
    endloop
  endfacet
  facet normal 0.502764 -0.864298 -0.0147151
    outer loop
      vertex 19.6087 -26.7526 12.1033
      vertex 19.6077 -26.7526 12.0686
      vertex 19.6259 -26.7426 12.105
    endloop
  endfacet
  facet normal 0.502795 -0.86428 -0.0147352
    outer loop
      vertex 19.6077 -26.7526 12.0686
      vertex 19.6248 -26.7426 12.0659
      vertex 19.6259 -26.7426 12.105
    endloop
  endfacet
  facet normal 0.490615 -0.864307 0.110765
    outer loop
      vertex 19.601 -26.7526 12.1373
      vertex 19.6087 -26.7526 12.1033
      vertex 19.6173 -26.7426 12.1432
    endloop
  endfacet
  facet normal 0.490632 -0.864299 0.11076
    outer loop
      vertex 19.6087 -26.7526 12.1033
      vertex 19.6259 -26.7426 12.105
      vertex 19.6173 -26.7426 12.1432
    endloop
  endfacet
  facet normal 0 -1 0
    outer loop
      vertex 19.6087 -26.7526 12.1033
      vertex 19.601 -26.7526 12.1373
      vertex 19.5437 -26.7526 12.1255
    endloop
  endfacet
  facet normal 0 -1 0
    outer loop
      vertex 19.601 -26.7526 12.1373
      vertex 19.5852 -26.7526 12.1682
      vertex 19.5437 -26.7526 12.1255
    endloop
  endfacet
  facet normal 0.433476 -0.8643 -0.255116
    outer loop
      vertex 19.598 -26.7526 12.0352
      vertex 19.5804 -26.7526 12.0052
      vertex 19.6139 -26.7426 12.0283
    endloop
  endfacet
  facet normal 0.433474 -0.864302 -0.255113
    outer loop
      vertex 19.5804 -26.7526 12.0052
      vertex 19.5941 -26.7426 11.9946
      vertex 19.6139 -26.7426 12.0283
    endloop
  endfacet
  facet normal 0 -1 0
    outer loop
      vertex 19.598 -26.7526 12.0352
      vertex 19.6077 -26.7526 12.0686
      vertex 19.5379 -26.7526 12.0445
    endloop
  endfacet
  facet normal 0.483334 -0.864279 -0.13932
    outer loop
      vertex 19.6077 -26.7526 12.0686
      vertex 19.598 -26.7526 12.0352
      vertex 19.6248 -26.7426 12.0659
    endloop
  endfacet
  facet normal 0.48331 -0.864297 -0.139293
    outer loop
      vertex 19.598 -26.7526 12.0352
      vertex 19.6139 -26.7426 12.0283
      vertex 19.6248 -26.7426 12.0659
    endloop
  endfacet
  facet normal 0.708618 0 -0.705593
    outer loop
      vertex 19.5941 -26.7426 11.9946
      vertex 19.5665 -26.7426 11.9669
      vertex 19.5941 -26.5626 11.9946
    endloop
  endfacet
  facet normal 0.708618 0 -0.705593
    outer loop
      vertex 19.5665 -26.7426 11.9669
      vertex 19.5665 -26.5626 11.9669
      vertex 19.5941 -26.5626 11.9946
    endloop
  endfacet
  facet normal 0.0919787 0 0.995761
    outer loop
      vertex 19.4654 -26.7426 12.2459
      vertex 19.5044 -26.7426 12.2423
      vertex 19.4654 -26.5626 12.2459
    endloop
  endfacet
  facet normal 0.0919787 0 0.995761
    outer loop
      vertex 19.5044 -26.7426 12.2423
      vertex 19.5044 -26.5626 12.2423
      vertex 19.4654 -26.5626 12.2459
    endloop
  endfacet
  facet normal 0.0621762 0.863331 0.500794
    outer loop
      vertex 19.4675 -25.823 12.1849
      vertex 19.497 -25.823 12.1813
      vertex 19.4681 -25.8126 12.167
    endloop
  endfacet
  facet normal 0.062171 0.863327 0.500801
    outer loop
      vertex 19.497 -25.823 12.1813
      vertex 19.492 -25.8126 12.164
      vertex 19.4681 -25.8126 12.167
    endloop
  endfacet
  facet normal 0.423827 0 0.905743
    outer loop
      vertex 19.497 -26.5626 12.1813
      vertex 19.5239 -26.5626 12.1687
      vertex 19.497 -25.823 12.1813
    endloop
  endfacet
  facet normal 0.423827 0 0.905743
    outer loop
      vertex 19.5239 -26.5626 12.1687
      vertex 19.5239 -25.823 12.1687
      vertex 19.497 -25.823 12.1813
    endloop
  endfacet
  facet normal 0.336738 0 0.941598
    outer loop
      vertex 19.5044 -26.7426 12.2423
      vertex 19.5412 -26.7426 12.2291
      vertex 19.5044 -26.5626 12.2423
    endloop
  endfacet
  facet normal 0.336738 0 0.941598
    outer loop
      vertex 19.5412 -26.7426 12.2291
      vertex 19.5412 -26.5626 12.2291
      vertex 19.5044 -26.5626 12.2423
    endloop
  endfacet
  facet normal 0.447734 -0.864266 0.229298
    outer loop
      vertex 19.5852 -26.7526 12.1682
      vertex 19.601 -26.7526 12.1373
      vertex 19.5995 -26.7426 12.178
    endloop
  endfacet
  facet normal 0.44765 -0.864308 0.229305
    outer loop
      vertex 19.601 -26.7526 12.1373
      vertex 19.6173 -26.7426 12.1432
      vertex 19.5995 -26.7426 12.178
    endloop
  endfacet
  facet normal 0.560343 0 0.828261
    outer loop
      vertex 19.5412 -26.7426 12.2291
      vertex 19.5736 -26.7426 12.2072
      vertex 19.5412 -26.5626 12.2291
    endloop
  endfacet
  facet normal 0.560343 0 0.828261
    outer loop
      vertex 19.5736 -26.7426 12.2072
      vertex 19.5736 -26.5626 12.2072
      vertex 19.5412 -26.5626 12.2291
    endloop
  endfacet
  facet normal 0.748709 0 0.662899
    outer loop
      vertex 19.5736 -26.7426 12.2072
      vertex 19.5995 -26.7426 12.178
      vertex 19.5736 -26.5626 12.2072
    endloop
  endfacet
  facet normal 0.748709 0 0.662899
    outer loop
      vertex 19.5995 -26.7426 12.178
      vertex 19.5995 -26.5626 12.178
      vertex 19.5736 -26.5626 12.2072
    endloop
  endfacet
  facet normal 0.095622 0.863335 -0.495488
    outer loop
      vertex 19.503 -25.823 12.0007
      vertex 19.4738 -25.823 11.9951
      vertex 19.4969 -25.8126 12.0176
    endloop
  endfacet
  facet normal 0.095603 0.863346 -0.495474
    outer loop
      vertex 19.4738 -25.823 11.9951
      vertex 19.4732 -25.8126 12.013
      vertex 19.4969 -25.8126 12.0176
    endloop
  endfacet
  facet normal 0.189489 0 -0.981883
    outer loop
      vertex 19.4738 -25.823 11.9951
      vertex 19.503 -25.823 12.0007
      vertex 19.4738 -26.5626 11.9951
    endloop
  endfacet
  facet normal 0.189489 0 -0.981883
    outer loop
      vertex 19.503 -25.823 12.0007
      vertex 19.503 -26.5626 12.0007
      vertex 19.4738 -26.5626 11.9951
    endloop
  endfacet
  facet normal 0 1 0
    outer loop
      vertex 19.4738 -26.5626 11.9951
      vertex 19.503 -26.5626 12.0007
      vertex 19.5329 -26.5626 11.947
    endloop
  endfacet
  facet normal 0 1 0
    outer loop
      vertex 19.503 -26.5626 12.0007
      vertex 19.5665 -26.5626 11.9669
      vertex 19.5329 -26.5626 11.947
    endloop
  endfacet
  facet normal 0 1 0
    outer loop
      vertex 19.4969 -25.8126 12.0176
      vertex 19.4732 -25.8126 12.013
      vertex 19.4706 -25.8126 12.09
    endloop
  endfacet
  facet normal 0 1 0
    outer loop
      vertex 19.5329 -26.5626 11.947
      vertex 19.4954 -26.5626 11.936
      vertex 19.4738 -26.5626 11.9951
    endloop
  endfacet
  facet normal 0.861823 0 -0.50721
    outer loop
      vertex 19.6139 -26.7426 12.0283
      vertex 19.5941 -26.7426 11.9946
      vertex 19.6139 -26.5626 12.0283
    endloop
  endfacet
  facet normal 0.861823 0 -0.50721
    outer loop
      vertex 19.5941 -26.7426 11.9946
      vertex 19.5941 -26.5626 11.9946
      vertex 19.6139 -26.5626 12.0283
    endloop
  endfacet
  facet normal 0.999571 0 -0.0292941
    outer loop
      vertex 19.6259 -26.7426 12.105
      vertex 19.6248 -26.7426 12.0659
      vertex 19.6259 -26.5626 12.105
    endloop
  endfacet
  facet normal 0.999571 0 -0.0292941
    outer loop
      vertex 19.6248 -26.7426 12.0659
      vertex 19.6248 -26.5626 12.0659
      vertex 19.6259 -26.5626 12.105
    endloop
  endfacet
  facet normal 0.975453 0 0.220208
    outer loop
      vertex 19.6173 -26.7426 12.1432
      vertex 19.6259 -26.7426 12.105
      vertex 19.6173 -26.5626 12.1432
    endloop
  endfacet
  facet normal 0.975453 0 0.220208
    outer loop
      vertex 19.6259 -26.7426 12.105
      vertex 19.6259 -26.5626 12.105
      vertex 19.6173 -26.5626 12.1432
    endloop
  endfacet
  facet normal 0.890026 0 0.455909
    outer loop
      vertex 19.5995 -26.7426 12.178
      vertex 19.6173 -26.7426 12.1432
      vertex 19.5995 -26.5626 12.178
    endloop
  endfacet
  facet normal 0.890026 0 0.455909
    outer loop
      vertex 19.6173 -26.7426 12.1432
      vertex 19.6173 -26.5626 12.1432
      vertex 19.5995 -26.5626 12.178
    endloop
  endfacet
  facet normal 0.960889 0 -0.276935
    outer loop
      vertex 19.6248 -26.7426 12.0659
      vertex 19.6139 -26.7426 12.0283
      vertex 19.6248 -26.5626 12.0659
    endloop
  endfacet
  facet normal 0.960889 0 -0.276935
    outer loop
      vertex 19.6139 -26.7426 12.0283
      vertex 19.6139 -26.5626 12.0283
      vertex 19.6248 -26.5626 12.0659
    endloop
  endfacet
  facet normal 0 1 0
    outer loop
      vertex 19.5941 -26.5626 11.9946
      vertex 19.5665 -26.5626 11.9669
      vertex 19.529 -26.5626 12.0151
    endloop
  endfacet
  facet normal 0 1 0
    outer loop
      vertex 19.5665 -26.5626 11.9669
      vertex 19.503 -26.5626 12.0007
      vertex 19.529 -26.5626 12.0151
    endloop
  endfacet
  facet normal 0 1 0
    outer loop
      vertex 19.6139 -26.5626 12.0283
      vertex 19.5941 -26.5626 11.9946
      vertex 19.5493 -26.5626 12.0368
    endloop
  endfacet
  facet normal 0 1 0
    outer loop
      vertex 19.5941 -26.5626 11.9946
      vertex 19.529 -26.5626 12.0151
      vertex 19.5493 -26.5626 12.0368
    endloop
  endfacet
  facet normal 0 1 0
    outer loop
      vertex 19.4681 -25.8126 12.167
      vertex 19.492 -25.8126 12.164
      vertex 19.4706 -25.8126 12.09
    endloop
  endfacet
  facet normal 0 1 0
    outer loop
      vertex 19.492 -25.8126 12.164
      vertex 19.5138 -25.8126 12.1538
      vertex 19.4706 -25.8126 12.09
    endloop
  endfacet
  facet normal 0 1 0
    outer loop
      vertex 19.4706 -25.8126 12.09
      vertex 19.5138 -25.8126 12.1538
      vertex 19.5314 -25.8126 12.1373
    endloop
  endfacet
  facet normal 0 1 0
    outer loop
      vertex 19.518 -25.8126 12.0293
      vertex 19.4969 -25.8126 12.0176
      vertex 19.4706 -25.8126 12.09
    endloop
  endfacet
  facet normal 0.244065 0.863328 -0.441698
    outer loop
      vertex 19.4969 -25.8126 12.0176
      vertex 19.518 -25.8126 12.0293
      vertex 19.503 -25.823 12.0007
    endloop
  endfacet
  facet normal 0.24406 0.86333 -0.441696
    outer loop
      vertex 19.518 -25.8126 12.0293
      vertex 19.529 -25.823 12.0151
      vertex 19.503 -25.823 12.0007
    endloop
  endfacet
  facet normal 0.213897 0.863334 0.457058
    outer loop
      vertex 19.5138 -25.8126 12.1538
      vertex 19.492 -25.8126 12.164
      vertex 19.5239 -25.823 12.1687
    endloop
  endfacet
  facet normal 0.213887 0.86332 0.45709
    outer loop
      vertex 19.492 -25.8126 12.164
      vertex 19.497 -25.823 12.1813
      vertex 19.5239 -25.823 12.1687
    endloop
  endfacet
  facet normal 0 1 0
    outer loop
      vertex 19.5344 -25.8126 12.0469
      vertex 19.518 -25.8126 12.0293
      vertex 19.4706 -25.8126 12.09
    endloop
  endfacet
  facet normal 0.368592 0.86333 -0.344675
    outer loop
      vertex 19.518 -25.8126 12.0293
      vertex 19.5344 -25.8126 12.0469
      vertex 19.529 -25.823 12.0151
    endloop
  endfacet
  facet normal 0.368582 0.863335 -0.344674
    outer loop
      vertex 19.5344 -25.8126 12.0469
      vertex 19.5493 -25.823 12.0368
      vertex 19.529 -25.823 12.0151
    endloop
  endfacet
  facet normal 0.344675 0.863321 0.368613
    outer loop
      vertex 19.5314 -25.8126 12.1373
      vertex 19.5138 -25.8126 12.1538
      vertex 19.5456 -25.823 12.1484
    endloop
  endfacet
  facet normal 0.344674 0.863335 0.368582
    outer loop
      vertex 19.5138 -25.8126 12.1538
      vertex 19.5239 -25.823 12.1687
      vertex 19.5456 -25.823 12.1484
    endloop
  endfacet
  facet normal 0 1 0
    outer loop
      vertex 19.5446 -25.8126 12.0687
      vertex 19.5344 -25.8126 12.0469
      vertex 19.4706 -25.8126 12.09
    endloop
  endfacet
  facet normal 0.457081 0.863331 -0.21386
    outer loop
      vertex 19.5344 -25.8126 12.0469
      vertex 19.5446 -25.8126 12.0687
      vertex 19.5493 -25.823 12.0368
    endloop
  endfacet
  facet normal 0.457061 0.86334 -0.213866
    outer loop
      vertex 19.5446 -25.8126 12.0687
      vertex 19.5619 -25.823 12.0637
      vertex 19.5493 -25.823 12.0368
    endloop
  endfacet
  facet normal 0.441712 0.863325 0.244051
    outer loop
      vertex 19.543 -25.8126 12.1162
      vertex 19.5314 -25.8126 12.1373
      vertex 19.56 -25.823 12.1224
    endloop
  endfacet
  facet normal 0.441712 0.863324 0.244053
    outer loop
      vertex 19.5314 -25.8126 12.1373
      vertex 19.5456 -25.823 12.1484
      vertex 19.56 -25.823 12.1224
    endloop
  endfacet
  facet normal 0 1 0
    outer loop
      vertex 19.5314 -25.8126 12.1373
      vertex 19.543 -25.8126 12.1162
      vertex 19.4706 -25.8126 12.09
    endloop
  endfacet
  facet normal 0 1 0
    outer loop
      vertex 19.543 -25.8126 12.1162
      vertex 19.5476 -25.8126 12.0926
      vertex 19.4706 -25.8126 12.09
    endloop
  endfacet
  facet normal 0 1 0
    outer loop
      vertex 19.4706 -25.8126 12.09
      vertex 19.5476 -25.8126 12.0926
      vertex 19.5446 -25.8126 12.0687
    endloop
  endfacet
  facet normal 0.495499 0.863328 0.0956311
    outer loop
      vertex 19.5476 -25.8126 12.0926
      vertex 19.543 -25.8126 12.1162
      vertex 19.5656 -25.823 12.0932
    endloop
  endfacet
  facet normal 0.495501 0.863327 0.0956341
    outer loop
      vertex 19.543 -25.8126 12.1162
      vertex 19.56 -25.823 12.1224
      vertex 19.5656 -25.823 12.0932
    endloop
  endfacet
  facet normal 0.500762 0.863345 -0.0622295
    outer loop
      vertex 19.5446 -25.8126 12.0687
      vertex 19.5476 -25.8126 12.0926
      vertex 19.5619 -25.823 12.0637
    endloop
  endfacet
  facet normal 0.500794 0.863328 -0.0622078
    outer loop
      vertex 19.5476 -25.8126 12.0926
      vertex 19.5656 -25.823 12.0932
      vertex 19.5619 -25.823 12.0637
    endloop
  endfacet
  facet normal 0.483633 0 -0.875271
    outer loop
      vertex 19.503 -25.823 12.0007
      vertex 19.529 -25.823 12.0151
      vertex 19.503 -26.5626 12.0007
    endloop
  endfacet
  facet normal 0.483633 0 -0.875271
    outer loop
      vertex 19.529 -25.823 12.0151
      vertex 19.529 -26.5626 12.0151
      vertex 19.503 -26.5626 12.0007
    endloop
  endfacet
  facet normal 0.683021 0 0.730398
    outer loop
      vertex 19.5456 -25.823 12.1484
      vertex 19.5239 -25.823 12.1687
      vertex 19.5456 -26.5626 12.1484
    endloop
  endfacet
  facet normal 0.683021 0 0.730398
    outer loop
      vertex 19.5239 -25.823 12.1687
      vertex 19.5239 -26.5626 12.1687
      vertex 19.5456 -26.5626 12.1484
    endloop
  endfacet
  facet normal 0.730398 0 -0.683021
    outer loop
      vertex 19.529 -25.823 12.0151
      vertex 19.5493 -25.823 12.0368
      vertex 19.529 -26.5626 12.0151
    endloop
  endfacet
  facet normal 0.730398 0 -0.683021
    outer loop
      vertex 19.5493 -25.823 12.0368
      vertex 19.5493 -26.5626 12.0368
      vertex 19.529 -26.5626 12.0151
    endloop
  endfacet
  facet normal 0.875284 0 0.483609
    outer loop
      vertex 19.56 -25.823 12.1224
      vertex 19.5456 -25.823 12.1484
      vertex 19.56 -26.5626 12.1224
    endloop
  endfacet
  facet normal 0.875284 0 0.483609
    outer loop
      vertex 19.5456 -25.823 12.1484
      vertex 19.5456 -26.5626 12.1484
      vertex 19.56 -26.5626 12.1224
    endloop
  endfacet
  facet normal 0.981879 0 0.189507
    outer loop
      vertex 19.5656 -25.823 12.0932
      vertex 19.56 -25.823 12.1224
      vertex 19.5656 -26.5626 12.0932
    endloop
  endfacet
  facet normal 0.981879 0 0.189507
    outer loop
      vertex 19.56 -25.823 12.1224
      vertex 19.56 -26.5626 12.1224
      vertex 19.5656 -26.5626 12.0932
    endloop
  endfacet
  facet normal 0.90575 0 -0.423813
    outer loop
      vertex 19.5493 -25.823 12.0368
      vertex 19.5619 -25.823 12.0637
      vertex 19.5493 -26.5626 12.0368
    endloop
  endfacet
  facet normal 0.90575 0 -0.423813
    outer loop
      vertex 19.5619 -25.823 12.0637
      vertex 19.5619 -26.5626 12.0637
      vertex 19.5493 -26.5626 12.0368
    endloop
  endfacet
  facet normal 0.992373 0 -0.123271
    outer loop
      vertex 19.5619 -25.823 12.0637
      vertex 19.5656 -25.823 12.0932
      vertex 19.5619 -26.5626 12.0637
    endloop
  endfacet
  facet normal 0.992373 0 -0.123271
    outer loop
      vertex 19.5656 -25.823 12.0932
      vertex 19.5656 -26.5626 12.0932
      vertex 19.5619 -26.5626 12.0637
    endloop
  endfacet
  facet normal 0 1 0
    outer loop
      vertex 19.5456 -26.5626 12.1484
      vertex 19.5239 -26.5626 12.1687
      vertex 19.5736 -26.5626 12.2072
    endloop
  endfacet
  facet normal 0 1 0
    outer loop
      vertex 19.56 -26.5626 12.1224
      vertex 19.5456 -26.5626 12.1484
      vertex 19.5995 -26.5626 12.178
    endloop
  endfacet
  facet normal 0 1 0
    outer loop
      vertex 19.5456 -26.5626 12.1484
      vertex 19.5736 -26.5626 12.2072
      vertex 19.5995 -26.5626 12.178
    endloop
  endfacet
  facet normal 0 1 0
    outer loop
      vertex 19.5656 -26.5626 12.0932
      vertex 19.56 -26.5626 12.1224
      vertex 19.6173 -26.5626 12.1432
    endloop
  endfacet
  facet normal 0 1 0
    outer loop
      vertex 19.56 -26.5626 12.1224
      vertex 19.5995 -26.5626 12.178
      vertex 19.6173 -26.5626 12.1432
    endloop
  endfacet
  facet normal 0 1 0
    outer loop
      vertex 19.5619 -26.5626 12.0637
      vertex 19.5656 -26.5626 12.0932
      vertex 19.6259 -26.5626 12.105
    endloop
  endfacet
  facet normal 0 1 0
    outer loop
      vertex 19.5656 -26.5626 12.0932
      vertex 19.6173 -26.5626 12.1432
      vertex 19.6259 -26.5626 12.105
    endloop
  endfacet
  facet normal 0 1 0
    outer loop
      vertex 19.5493 -26.5626 12.0368
      vertex 19.5619 -26.5626 12.0637
      vertex 19.6139 -26.5626 12.0283
    endloop
  endfacet
  facet normal 0 1 0
    outer loop
      vertex 19.5619 -26.5626 12.0637
      vertex 19.6248 -26.5626 12.0659
      vertex 19.6139 -26.5626 12.0283
    endloop
  endfacet
  facet normal 0 1 0
    outer loop
      vertex 19.6259 -26.5626 12.105
      vertex 19.6248 -26.5626 12.0659
      vertex 19.5619 -26.5626 12.0637
    endloop
  endfacet
endsolid Onshape
