solid Onshape
  facet normal -0.999991 0.00427307 0
    outer loop
      vertex 18.9411 -17.506 13.1557
      vertex 18.9411 -17.506 13.1133
      vertex 18.9396 -17.846 13.1345
    endloop
  endfacet
  facet normal -0.997669 0 -0.0682376
    outer loop
      vertex 18.9411 -17.506 13.1133
      vertex 18.9411 -17.846 13.1133
      vertex 18.9396 -17.846 13.1345
    endloop
  endfacet
  facet normal -0.710374 0.703824 0
    outer loop
      vertex 18.9411 -17.506 13.1133
      vertex 18.9411 -17.506 13.1557
      vertex 18.9609 -17.486 13.116
    endloop
  endfacet
  facet normal -0.710374 0.703824 0
    outer loop
      vertex 18.9411 -17.506 13.1557
      vertex 18.9609 -17.486 13.153
      vertex 18.9609 -17.486 13.116
    endloop
  endfacet
  facet normal -0.684029 0.703824 -0.191664
    outer loop
      vertex 18.9526 -17.506 13.0723
      vertex 18.9411 -17.506 13.1133
      vertex 18.9709 -17.486 13.0803
    endloop
  endfacet
  facet normal -0.684034 0.703818 -0.191672
    outer loop
      vertex 18.9411 -17.506 13.1133
      vertex 18.9609 -17.486 13.116
      vertex 18.9709 -17.486 13.0803
    endloop
  endfacet
  facet normal -0.962906 0.00427276 -0.269805
    outer loop
      vertex 18.9411 -17.506 13.1133
      vertex 18.9526 -17.506 13.0723
      vertex 18.9454 -17.846 13.0924
    endloop
  endfacet
  facet normal -0.942261 0 -0.334878
    outer loop
      vertex 18.9526 -17.506 13.0723
      vertex 18.9526 -17.846 13.0723
      vertex 18.9454 -17.846 13.0924
    endloop
  endfacet
  facet normal -0.979079 0 -0.203479
    outer loop
      vertex 18.9454 -17.846 13.0924
      vertex 18.9411 -17.846 13.1133
      vertex 18.9411 -17.506 13.1133
    endloop
  endfacet
  facet normal -0.693114 -0.706288 -0.144048
    outer loop
      vertex 18.9411 -17.846 13.1133
      vertex 18.9454 -17.846 13.0924
      vertex 18.9647 -17.866 13.0978
    endloop
  endfacet
  facet normal -0.66705 -0.706288 -0.237069
    outer loop
      vertex 18.9454 -17.846 13.0924
      vertex 18.9526 -17.846 13.0723
      vertex 18.9647 -17.866 13.0978
    endloop
  endfacet
  facet normal -0.628357 -0.728476 -0.27293
    outer loop
      vertex 18.9647 -17.866 13.0978
      vertex 18.9526 -17.846 13.0723
      vertex 18.9794 -17.866 13.0638
    endloop
  endfacet
  facet normal -0.628557 -0.70628 -0.325705
    outer loop
      vertex 18.9526 -17.846 13.0723
      vertex 18.9624 -17.846 13.0534
      vertex 18.9794 -17.866 13.0638
    endloop
  endfacet
  facet normal -0.578366 -0.706279 -0.408244
    outer loop
      vertex 18.9794 -17.866 13.0638
      vertex 18.9624 -17.846 13.0534
      vertex 18.9746 -17.846 13.036
    endloop
  endfacet
  facet normal -0.706248 -0.706314 -0.0483053
    outer loop
      vertex 18.9396 -17.846 13.1345
      vertex 18.9411 -17.846 13.1133
      vertex 18.9596 -17.866 13.1345
    endloop
  endfacet
  facet normal -0.678676 -0.728492 -0.0932624
    outer loop
      vertex 18.9411 -17.846 13.1133
      vertex 18.9647 -17.866 13.0978
      vertex 18.9596 -17.866 13.1345
    endloop
  endfacet
  facet normal -0.706248 -0.706314 0.0483053
    outer loop
      vertex 18.9411 -17.846 13.1557
      vertex 18.9396 -17.846 13.1345
      vertex 18.9596 -17.866 13.1345
    endloop
  endfacet
  facet normal -0.997669 0 0.0682376
    outer loop
      vertex 18.9396 -17.846 13.1345
      vertex 18.9411 -17.846 13.1557
      vertex 18.9411 -17.506 13.1557
    endloop
  endfacet
  facet normal -0.979079 0 0.203479
    outer loop
      vertex 18.9411 -17.846 13.1557
      vertex 18.9454 -17.846 13.1766
      vertex 18.9411 -17.506 13.1557
    endloop
  endfacet
  facet normal -0.962906 0.00427276 0.269805
    outer loop
      vertex 18.9411 -17.506 13.1557
      vertex 18.9454 -17.846 13.1766
      vertex 18.9526 -17.506 13.1967
    endloop
  endfacet
  facet normal -0.942261 0 0.334878
    outer loop
      vertex 18.9454 -17.846 13.1766
      vertex 18.9526 -17.846 13.1967
      vertex 18.9526 -17.506 13.1967
    endloop
  endfacet
  facet normal -0.887878 0 0.46008
    outer loop
      vertex 18.9526 -17.506 13.1967
      vertex 18.9526 -17.846 13.1967
      vertex 18.9624 -17.846 13.2156
    endloop
  endfacet
  facet normal -0.684035 0.703819 0.191666
    outer loop
      vertex 18.9411 -17.506 13.1557
      vertex 18.9526 -17.506 13.1967
      vertex 18.9609 -17.486 13.153
    endloop
  endfacet
  facet normal -0.684027 0.703825 0.19167
    outer loop
      vertex 18.9526 -17.506 13.1967
      vertex 18.9709 -17.486 13.1887
      vertex 18.9609 -17.486 13.153
    endloop
  endfacet
  facet normal -0.606945 0.703838 -0.369094
    outer loop
      vertex 18.9746 -17.506 13.036
      vertex 18.9526 -17.506 13.0723
      vertex 18.9901 -17.486 13.0487
    endloop
  endfacet
  facet normal -0.606948 0.703826 -0.36911
    outer loop
      vertex 18.9526 -17.506 13.0723
      vertex 18.9709 -17.486 13.0803
      vertex 18.9901 -17.486 13.0487
    endloop
  endfacet
  facet normal -0.85441 0.00427253 -0.519582
    outer loop
      vertex 18.9526 -17.506 13.0723
      vertex 18.9746 -17.506 13.036
      vertex 18.9624 -17.846 13.0534
    endloop
  endfacet
  facet normal -0.816978 0 -0.576669
    outer loop
      vertex 18.9746 -17.506 13.036
      vertex 18.9746 -17.846 13.036
      vertex 18.9624 -17.846 13.0534
    endloop
  endfacet
  facet normal 0 1 0
    outer loop
      vertex 18.9609 -17.486 13.116
      vertex 18.9609 -17.486 13.153
      vertex 19.0956 -17.486 13.1345
    endloop
  endfacet
  facet normal 0 1 0
    outer loop
      vertex 18.9609 -17.486 13.153
      vertex 18.9709 -17.486 13.1887
      vertex 19.0956 -17.486 13.1345
    endloop
  endfacet
  facet normal 0 1 0
    outer loop
      vertex 19.0956 -17.486 13.1345
      vertex 18.9709 -17.486 13.1887
      vertex 18.9901 -17.486 13.2203
    endloop
  endfacet
  facet normal 0 1 0
    outer loop
      vertex 18.9709 -17.486 13.0803
      vertex 18.9609 -17.486 13.116
      vertex 19.0956 -17.486 13.1345
    endloop
  endfacet
  facet normal 0 1 0
    outer loop
      vertex 18.9901 -17.486 13.0487
      vertex 18.9709 -17.486 13.0803
      vertex 19.0956 -17.486 13.1345
    endloop
  endfacet
  facet normal 0 -1 0
    outer loop
      vertex 18.9596 -17.866 13.1345
      vertex 18.9647 -17.866 13.0978
      vertex 18.997 -17.866 13.118
    endloop
  endfacet
  facet normal 0 -1 0
    outer loop
      vertex 18.9647 -17.866 13.0978
      vertex 19.0077 -17.866 13.0869
      vertex 18.997 -17.866 13.118
    endloop
  endfacet
  facet normal 0 -1 0
    outer loop
      vertex 18.9647 -17.866 13.1712
      vertex 18.9596 -17.866 13.1345
      vertex 18.997 -17.866 13.118
    endloop
  endfacet
  facet normal -0.678676 -0.728492 0.0932624
    outer loop
      vertex 18.9596 -17.866 13.1345
      vertex 18.9647 -17.866 13.1712
      vertex 18.9411 -17.846 13.1557
    endloop
  endfacet
  facet normal -0.693114 -0.706288 0.144048
    outer loop
      vertex 18.9647 -17.866 13.1712
      vertex 18.9454 -17.846 13.1766
      vertex 18.9411 -17.846 13.1557
    endloop
  endfacet
  facet normal 0 -1 0
    outer loop
      vertex 18.9647 -17.866 13.0978
      vertex 18.9794 -17.866 13.0638
      vertex 19.0077 -17.866 13.0869
    endloop
  endfacet
  facet normal 0 -1 0
    outer loop
      vertex 18.9794 -17.866 13.0638
      vertex 19.0279 -17.866 13.0609
      vertex 19.0077 -17.866 13.0869
    endloop
  endfacet
  facet normal -0.887878 0 -0.46008
    outer loop
      vertex 18.9624 -17.846 13.0534
      vertex 18.9526 -17.846 13.0723
      vertex 18.9526 -17.506 13.0723
    endloop
  endfacet
  facet normal -0.66705 -0.706288 0.237069
    outer loop
      vertex 18.9526 -17.846 13.1967
      vertex 18.9454 -17.846 13.1766
      vertex 18.9647 -17.866 13.1712
    endloop
  endfacet
  facet normal -0.854404 0.00427324 0.519592
    outer loop
      vertex 18.9746 -17.506 13.2329
      vertex 18.9526 -17.506 13.1967
      vertex 18.9624 -17.846 13.2156
    endloop
  endfacet
  facet normal -0.60695 0.703827 0.369107
    outer loop
      vertex 18.9526 -17.506 13.1967
      vertex 18.9746 -17.506 13.2329
      vertex 18.9709 -17.486 13.1887
    endloop
  endfacet
  facet normal -0.606945 0.70383 0.369108
    outer loop
      vertex 18.9746 -17.506 13.2329
      vertex 18.9901 -17.486 13.2203
      vertex 18.9709 -17.486 13.1887
    endloop
  endfacet
  facet normal 0 1 0
    outer loop
      vertex 19.0172 -17.486 13.0234
      vertex 18.9901 -17.486 13.0487
      vertex 19.0956 -17.486 13.1345
    endloop
  endfacet
  facet normal -0.484867 0.703841 -0.519145
    outer loop
      vertex 18.9901 -17.486 13.0487
      vertex 19.0172 -17.486 13.0234
      vertex 18.9746 -17.506 13.036
    endloop
  endfacet
  facet normal -0.484867 0.703832 -0.519157
    outer loop
      vertex 19.0172 -17.486 13.0234
      vertex 19.0057 -17.506 13.0071
      vertex 18.9746 -17.506 13.036
    endloop
  endfacet
  facet normal -0.682553 0.00427326 -0.730824
    outer loop
      vertex 18.9746 -17.506 13.036
      vertex 19.0057 -17.506 13.0071
      vertex 18.9892 -17.846 13.0205
    endloop
  endfacet
  facet normal -0.631096 0 -0.775704
    outer loop
      vertex 19.0057 -17.506 13.0071
      vertex 19.0057 -17.846 13.0071
      vertex 18.9892 -17.846 13.0205
    endloop
  endfacet
  facet normal -0.945839 0 -0.324635
    outer loop
      vertex 18.997 -17.866 13.118
      vertex 19.0077 -17.866 13.0869
      vertex 18.997 -17.896 13.118
    endloop
  endfacet
  facet normal -0.945839 0 -0.324635
    outer loop
      vertex 19.0077 -17.866 13.0869
      vertex 19.0077 -17.896 13.0869
      vertex 18.997 -17.896 13.118
    endloop
  endfacet
  facet normal -1 0 0
    outer loop
      vertex 18.997 -17.866 13.151
      vertex 18.997 -17.866 13.118
      vertex 18.997 -17.896 13.151
    endloop
  endfacet
  facet normal -1 0 0
    outer loop
      vertex 18.997 -17.866 13.118
      vertex 18.997 -17.896 13.118
      vertex 18.997 -17.896 13.151
    endloop
  endfacet
  facet normal 0 -1 0
    outer loop
      vertex 18.997 -17.866 13.118
      vertex 18.997 -17.866 13.151
      vertex 18.9647 -17.866 13.1712
    endloop
  endfacet
  facet normal 0 -1 0
    outer loop
      vertex 18.997 -17.866 13.151
      vertex 18.9794 -17.866 13.2052
      vertex 18.9647 -17.866 13.1712
    endloop
  endfacet
  facet normal -0.628351 -0.728479 0.272935
    outer loop
      vertex 18.9647 -17.866 13.1712
      vertex 18.9794 -17.866 13.2052
      vertex 18.9526 -17.846 13.1967
    endloop
  endfacet
  facet normal -0.628551 -0.706288 0.325702
    outer loop
      vertex 18.9794 -17.866 13.2052
      vertex 18.9624 -17.846 13.2156
      vertex 18.9526 -17.846 13.1967
    endloop
  endfacet
  facet normal -0.531404 -0.72848 -0.432351
    outer loop
      vertex 19.0028 -17.866 13.0351
      vertex 18.9794 -17.866 13.0638
      vertex 18.9746 -17.846 13.036
    endloop
  endfacet
  facet normal 0 -1 0
    outer loop
      vertex 18.9794 -17.866 13.0638
      vertex 19.0028 -17.866 13.0351
      vertex 19.0279 -17.866 13.0609
    endloop
  endfacet
  facet normal 0 -1 0
    outer loop
      vertex 19.0028 -17.866 13.0351
      vertex 19.0555 -17.866 13.0429
      vertex 19.0279 -17.866 13.0609
    endloop
  endfacet
  facet normal -0.789124 0 -0.614234
    outer loop
      vertex 19.0077 -17.866 13.0869
      vertex 19.0279 -17.866 13.0609
      vertex 19.0077 -17.896 13.0869
    endloop
  endfacet
  facet normal -0.789124 0 -0.614234
    outer loop
      vertex 19.0279 -17.866 13.0609
      vertex 19.0279 -17.896 13.0609
      vertex 19.0077 -17.896 13.0869
    endloop
  endfacet
  facet normal -0.578348 -0.706288 0.408253
    outer loop
      vertex 18.9746 -17.846 13.2329
      vertex 18.9624 -17.846 13.2156
      vertex 18.9794 -17.866 13.2052
    endloop
  endfacet
  facet normal -0.816963 0 0.57669
    outer loop
      vertex 18.9624 -17.846 13.2156
      vertex 18.9746 -17.846 13.2329
      vertex 18.9746 -17.506 13.2329
    endloop
  endfacet
  facet normal -0.73086 0 0.682527
    outer loop
      vertex 18.9746 -17.846 13.2329
      vertex 18.9892 -17.846 13.2485
      vertex 18.9746 -17.506 13.2329
    endloop
  endfacet
  facet normal -0.682564 0.00427427 0.730813
    outer loop
      vertex 18.9746 -17.506 13.2329
      vertex 18.9892 -17.846 13.2485
      vertex 19.0057 -17.506 13.2619
    endloop
  endfacet
  facet normal -0.631096 0 0.775704
    outer loop
      vertex 18.9892 -17.846 13.2485
      vertex 19.0057 -17.846 13.2619
      vertex 19.0057 -17.506 13.2619
    endloop
  endfacet
  facet normal -0.519556 0 0.854437
    outer loop
      vertex 19.0057 -17.506 13.2619
      vertex 19.0057 -17.846 13.2619
      vertex 19.0239 -17.846 13.273
    endloop
  endfacet
  facet normal -0.484877 0.703829 0.519152
    outer loop
      vertex 18.9746 -17.506 13.2329
      vertex 19.0057 -17.506 13.2619
      vertex 18.9901 -17.486 13.2203
    endloop
  endfacet
  facet normal -0.484855 0.703845 0.519151
    outer loop
      vertex 19.0057 -17.506 13.2619
      vertex 19.0172 -17.486 13.2456
      vertex 18.9901 -17.486 13.2203
    endloop
  endfacet
  facet normal 0 1 0
    outer loop
      vertex 19.0501 -17.486 13.0064
      vertex 19.0172 -17.486 13.0234
      vertex 19.0956 -17.486 13.1345
    endloop
  endfacet
  facet normal -0.326799 0.703831 -0.630733
    outer loop
      vertex 19.0172 -17.486 13.0234
      vertex 19.0501 -17.486 13.0064
      vertex 19.0057 -17.506 13.0071
    endloop
  endfacet
  facet normal -0.32681 0.703857 -0.630698
    outer loop
      vertex 19.0501 -17.486 13.0064
      vertex 19.0434 -17.506 12.9875
      vertex 19.0057 -17.506 13.0071
    endloop
  endfacet
  facet normal 0 1 0
    outer loop
      vertex 18.9901 -17.486 13.2203
      vertex 19.0172 -17.486 13.2456
      vertex 19.0956 -17.486 13.1345
    endloop
  endfacet
  facet normal 0 1 0
    outer loop
      vertex 19.0172 -17.486 13.2456
      vertex 19.0501 -17.486 13.2626
      vertex 19.0956 -17.486 13.1345
    endloop
  endfacet
  facet normal 0 1 0
    outer loop
      vertex 19.0956 -17.486 13.1345
      vertex 19.0501 -17.486 13.2626
      vertex 19.0864 -17.486 13.2702
    endloop
  endfacet
  facet normal 0 1 0
    outer loop
      vertex 19.0864 -17.486 12.9988
      vertex 19.0501 -17.486 13.0064
      vertex 19.0956 -17.486 13.1345
    endloop
  endfacet
  facet normal -0.14454 0.703859 -0.695479
    outer loop
      vertex 19.0501 -17.486 13.0064
      vertex 19.0864 -17.486 12.9988
      vertex 19.0434 -17.506 12.9875
    endloop
  endfacet
  facet normal -0.144511 0.703821 -0.695523
    outer loop
      vertex 19.0864 -17.486 12.9988
      vertex 19.085 -17.506 12.9789
      vertex 19.0434 -17.506 12.9875
    endloop
  endfacet
  facet normal -0.326807 0.703843 0.630715
    outer loop
      vertex 19.0501 -17.486 13.2626
      vertex 19.0172 -17.486 13.2456
      vertex 19.0434 -17.506 13.2815
    endloop
  endfacet
  facet normal -0.326803 0.703847 0.630714
    outer loop
      vertex 19.0172 -17.486 13.2456
      vertex 19.0057 -17.506 13.2619
      vertex 19.0434 -17.506 13.2815
    endloop
  endfacet
  facet normal 0 1 0
    outer loop
      vertex 19.1233 -17.486 13.0013
      vertex 19.0864 -17.486 12.9988
      vertex 19.0956 -17.486 13.1345
    endloop
  endfacet
  facet normal 0.0484969 0.703825 -0.708716
    outer loop
      vertex 19.0864 -17.486 12.9988
      vertex 19.1233 -17.486 13.0013
      vertex 19.085 -17.506 12.9789
    endloop
  endfacet
  facet normal 0.0484768 0.703844 -0.708699
    outer loop
      vertex 19.1233 -17.486 13.0013
      vertex 19.1274 -17.506 12.9818
      vertex 19.085 -17.506 12.9789
    endloop
  endfacet
  facet normal -0.144528 0.703836 0.695504
    outer loop
      vertex 19.0864 -17.486 13.2702
      vertex 19.0501 -17.486 13.2626
      vertex 19.085 -17.506 13.2901
    endloop
  endfacet
  facet normal -0.144522 0.703841 0.695501
    outer loop
      vertex 19.0501 -17.486 13.2626
      vertex 19.0434 -17.506 13.2815
      vertex 19.085 -17.506 13.2901
    endloop
  endfacet
  facet normal 0.0484779 0.703844 0.708698
    outer loop
      vertex 19.1233 -17.486 13.2677
      vertex 19.0864 -17.486 13.2702
      vertex 19.1274 -17.506 13.2872
    endloop
  endfacet
  facet normal 0.0484769 0.703843 0.7087
    outer loop
      vertex 19.0864 -17.486 13.2702
      vertex 19.085 -17.506 13.2901
      vertex 19.1274 -17.506 13.2872
    endloop
  endfacet
  facet normal 0 1 0
    outer loop
      vertex 19.0864 -17.486 13.2702
      vertex 19.1233 -17.486 13.2677
      vertex 19.0956 -17.486 13.1345
    endloop
  endfacet
  facet normal 0 1 0
    outer loop
      vertex 19.1233 -17.486 13.2677
      vertex 19.1582 -17.486 13.2553
      vertex 19.0956 -17.486 13.1345
    endloop
  endfacet
  facet normal 0 1 0
    outer loop
      vertex 19.0956 -17.486 13.1345
      vertex 19.1582 -17.486 13.2553
      vertex 19.1885 -17.486 13.2339
    endloop
  endfacet
  facet normal 0 1 0
    outer loop
      vertex 19.1582 -17.486 13.0137
      vertex 19.1233 -17.486 13.0013
      vertex 19.0956 -17.486 13.1345
    endloop
  endfacet
  facet normal 0.237873 0.703848 -0.669339
    outer loop
      vertex 19.1233 -17.486 13.0013
      vertex 19.1582 -17.486 13.0137
      vertex 19.1274 -17.506 12.9818
    endloop
  endfacet
  facet normal 0.237889 0.703836 -0.669346
    outer loop
      vertex 19.1582 -17.486 13.0137
      vertex 19.1674 -17.506 12.996
      vertex 19.1274 -17.506 12.9818
    endloop
  endfacet
  facet normal 0.237888 0.703852 0.66933
    outer loop
      vertex 19.1582 -17.486 13.2553
      vertex 19.1233 -17.486 13.2677
      vertex 19.1674 -17.506 13.273
    endloop
  endfacet
  facet normal 0.237885 0.703847 0.669335
    outer loop
      vertex 19.1233 -17.486 13.2677
      vertex 19.1274 -17.506 13.2872
      vertex 19.1674 -17.506 13.273
    endloop
  endfacet
  facet normal 0 1 0
    outer loop
      vertex 19.1885 -17.486 13.0351
      vertex 19.1582 -17.486 13.0137
      vertex 19.0956 -17.486 13.1345
    endloop
  endfacet
  facet normal 0.409652 0.703837 -0.580344
    outer loop
      vertex 19.1582 -17.486 13.0137
      vertex 19.1885 -17.486 13.0351
      vertex 19.1674 -17.506 12.996
    endloop
  endfacet
  facet normal 0.409615 0.703863 -0.580338
    outer loop
      vertex 19.1885 -17.486 13.0351
      vertex 19.2021 -17.506 13.0205
      vertex 19.1674 -17.506 12.996
    endloop
  endfacet
  facet normal 0.409625 0.703864 0.58033
    outer loop
      vertex 19.1885 -17.486 13.2339
      vertex 19.1582 -17.486 13.2553
      vertex 19.2021 -17.506 13.2485
    endloop
  endfacet
  facet normal 0.409622 0.703852 0.580347
    outer loop
      vertex 19.1582 -17.486 13.2553
      vertex 19.1674 -17.506 13.273
      vertex 19.2021 -17.506 13.2485
    endloop
  endfacet
  facet normal 0 1 0
    outer loop
      vertex 19.2118 -17.486 13.0638
      vertex 19.1885 -17.486 13.0351
      vertex 19.0956 -17.486 13.1345
    endloop
  endfacet
  facet normal 0.550997 0.703873 -0.448292
    outer loop
      vertex 19.1885 -17.486 13.0351
      vertex 19.2118 -17.486 13.0638
      vertex 19.2021 -17.506 13.0205
    endloop
  endfacet
  facet normal 0.551067 0.703823 -0.448285
    outer loop
      vertex 19.2118 -17.486 13.0638
      vertex 19.2289 -17.506 13.0534
      vertex 19.2021 -17.506 13.0205
    endloop
  endfacet
  facet normal 0.551036 0.703831 0.44831
    outer loop
      vertex 19.2118 -17.486 13.2052
      vertex 19.1885 -17.486 13.2339
      vertex 19.2289 -17.506 13.2156
    endloop
  endfacet
  facet normal 0.551031 0.703869 0.448256
    outer loop
      vertex 19.1885 -17.486 13.2339
      vertex 19.2021 -17.506 13.2485
      vertex 19.2289 -17.506 13.2156
    endloop
  endfacet
  facet normal 0 1 0
    outer loop
      vertex 19.1885 -17.486 13.2339
      vertex 19.2118 -17.486 13.2052
      vertex 19.0956 -17.486 13.1345
    endloop
  endfacet
  facet normal 0 1 0
    outer loop
      vertex 19.2118 -17.486 13.2052
      vertex 19.2266 -17.486 13.1712
      vertex 19.0956 -17.486 13.1345
    endloop
  endfacet
  facet normal 0 1 0
    outer loop
      vertex 19.0956 -17.486 13.1345
      vertex 19.2266 -17.486 13.1712
      vertex 19.2316 -17.486 13.1345
    endloop
  endfacet
  facet normal 0 1 0
    outer loop
      vertex 19.2266 -17.486 13.0978
      vertex 19.2118 -17.486 13.0638
      vertex 19.0956 -17.486 13.1345
    endloop
  endfacet
  facet normal 0.651566 0.703823 -0.283011
    outer loop
      vertex 19.2118 -17.486 13.0638
      vertex 19.2266 -17.486 13.0978
      vertex 19.2289 -17.506 13.0534
    endloop
  endfacet
  facet normal 0.651555 0.703831 -0.283015
    outer loop
      vertex 19.2266 -17.486 13.0978
      vertex 19.2459 -17.506 13.0924
      vertex 19.2289 -17.506 13.0534
    endloop
  endfacet
  facet normal 0.651556 0.703831 0.283015
    outer loop
      vertex 19.2266 -17.486 13.1712
      vertex 19.2118 -17.486 13.2052
      vertex 19.2459 -17.506 13.1766
    endloop
  endfacet
  facet normal 0.651556 0.70383 0.283016
    outer loop
      vertex 19.2118 -17.486 13.2052
      vertex 19.2289 -17.506 13.2156
      vertex 19.2459 -17.506 13.1766
    endloop
  endfacet
  facet normal 0 1 0
    outer loop
      vertex 19.2316 -17.486 13.1345
      vertex 19.2266 -17.486 13.0978
      vertex 19.0956 -17.486 13.1345
    endloop
  endfacet
  facet normal 0.703756 0.703828 -0.0967089
    outer loop
      vertex 19.2266 -17.486 13.0978
      vertex 19.2316 -17.486 13.1345
      vertex 19.2459 -17.506 13.0924
    endloop
  endfacet
  facet normal 0.703725 0.703856 -0.0967326
    outer loop
      vertex 19.2316 -17.486 13.1345
      vertex 19.2516 -17.506 13.1345
      vertex 19.2459 -17.506 13.0924
    endloop
  endfacet
  facet normal 0.703727 0.703858 0.0967049
    outer loop
      vertex 19.2316 -17.486 13.1345
      vertex 19.2266 -17.486 13.1712
      vertex 19.2516 -17.506 13.1345
    endloop
  endfacet
  facet normal 0.703751 0.70383 0.0967361
    outer loop
      vertex 19.2266 -17.486 13.1712
      vertex 19.2459 -17.506 13.1766
      vertex 19.2516 -17.506 13.1345
    endloop
  endfacet
  facet normal -0.73084 0 -0.682549
    outer loop
      vertex 18.9892 -17.846 13.0205
      vertex 18.9746 -17.846 13.036
      vertex 18.9746 -17.506 13.036
    endloop
  endfacet
  facet normal -0.517369 -0.706303 -0.483183
    outer loop
      vertex 18.9746 -17.846 13.036
      vertex 18.9892 -17.846 13.0205
      vertex 19.0028 -17.866 13.0351
    endloop
  endfacet
  facet normal -0.446759 -0.706303 -0.549128
    outer loop
      vertex 18.9892 -17.846 13.0205
      vertex 19.0057 -17.846 13.0071
      vertex 19.0028 -17.866 13.0351
    endloop
  endfacet
  facet normal -0.395057 -0.728493 -0.559667
    outer loop
      vertex 19.0028 -17.866 13.0351
      vertex 19.0057 -17.846 13.0071
      vertex 19.0331 -17.866 13.0137
    endloop
  endfacet
  facet normal -0.367803 -0.706295 -0.604871
    outer loop
      vertex 19.0057 -17.846 13.0071
      vertex 19.0239 -17.846 12.996
      vertex 19.0331 -17.866 13.0137
    endloop
  endfacet
  facet normal -0.28207 -0.706294 -0.649296
    outer loop
      vertex 19.0331 -17.866 13.0137
      vertex 19.0239 -17.846 12.996
      vertex 19.0434 -17.846 12.9875
    endloop
  endfacet
  facet normal -0.46007 0.00427072 -0.887872
    outer loop
      vertex 19.0057 -17.506 13.0071
      vertex 19.0434 -17.506 12.9875
      vertex 19.0239 -17.846 12.996
    endloop
  endfacet
  facet normal -0.398449 0 -0.91719
    outer loop
      vertex 19.0434 -17.506 12.9875
      vertex 19.0434 -17.846 12.9875
      vertex 19.0239 -17.846 12.996
    endloop
  endfacet
  facet normal -0.945842 0 0.324627
    outer loop
      vertex 19.0077 -17.866 13.1821
      vertex 18.997 -17.866 13.151
      vertex 19.0077 -17.896 13.1821
    endloop
  endfacet
  facet normal -0.945842 0 0.324627
    outer loop
      vertex 18.997 -17.866 13.151
      vertex 18.997 -17.896 13.151
      vertex 19.0077 -17.896 13.1821
    endloop
  endfacet
  facet normal 0 -1 0
    outer loop
      vertex 18.997 -17.866 13.151
      vertex 19.0077 -17.866 13.1821
      vertex 18.9794 -17.866 13.2052
    endloop
  endfacet
  facet normal 0 -1 0
    outer loop
      vertex 19.0077 -17.866 13.1821
      vertex 19.0028 -17.866 13.2339
      vertex 18.9794 -17.866 13.2052
    endloop
  endfacet
  facet normal 0 1 0
    outer loop
      vertex 18.997 -17.896 13.118
      vertex 19.0077 -17.896 13.0869
      vertex 18.9993 -17.896 13.0824
    endloop
  endfacet
  facet normal 0 1 0
    outer loop
      vertex 19.0077 -17.896 13.0869
      vertex 19.0215 -17.896 13.0539
      vertex 18.9993 -17.896 13.0824
    endloop
  endfacet
  facet normal 0 1 0
    outer loop
      vertex 18.997 -17.896 13.151
      vertex 18.997 -17.896 13.118
      vertex 18.9876 -17.896 13.1165
    endloop
  endfacet
  facet normal 0 1 0
    outer loop
      vertex 18.997 -17.896 13.118
      vertex 18.9993 -17.896 13.0824
      vertex 18.9876 -17.896 13.1165
    endloop
  endfacet
  facet normal 0 1 0
    outer loop
      vertex 19.0077 -17.896 13.1821
      vertex 18.997 -17.896 13.151
      vertex 18.9876 -17.896 13.1525
    endloop
  endfacet
  facet normal 0 1 0
    outer loop
      vertex 18.997 -17.896 13.151
      vertex 18.9876 -17.896 13.1165
      vertex 18.9876 -17.896 13.1525
    endloop
  endfacet
  facet normal -0.531415 -0.728475 0.432346
    outer loop
      vertex 18.9794 -17.866 13.2052
      vertex 19.0028 -17.866 13.2339
      vertex 18.9746 -17.846 13.2329
    endloop
  endfacet
  facet normal -0.517384 -0.706302 0.483168
    outer loop
      vertex 19.0028 -17.866 13.2339
      vertex 18.9892 -17.846 13.2485
      vertex 18.9746 -17.846 13.2329
    endloop
  endfacet
  facet normal -0.546946 0 -0.837168
    outer loop
      vertex 19.0279 -17.866 13.0609
      vertex 19.0555 -17.866 13.0429
      vertex 19.0279 -17.896 13.0609
    endloop
  endfacet
  facet normal -0.546946 0 -0.837168
    outer loop
      vertex 19.0555 -17.866 13.0429
      vertex 19.0555 -17.896 13.0429
      vertex 19.0279 -17.896 13.0609
    endloop
  endfacet
  facet normal 0 1 0
    outer loop
      vertex 19.0077 -17.896 13.0869
      vertex 19.0279 -17.896 13.0609
      vertex 19.0215 -17.896 13.0539
    endloop
  endfacet
  facet normal 0 1 0
    outer loop
      vertex 19.0279 -17.896 13.0609
      vertex 19.0517 -17.896 13.0342
      vertex 19.0215 -17.896 13.0539
    endloop
  endfacet
  facet normal 0 -1 0
    outer loop
      vertex 19.0028 -17.866 13.0351
      vertex 19.0331 -17.866 13.0137
      vertex 19.0555 -17.866 13.0429
    endloop
  endfacet
  facet normal 0 -1 0
    outer loop
      vertex 19.0331 -17.866 13.0137
      vertex 19.0874 -17.866 13.0348
      vertex 19.0555 -17.866 13.0429
    endloop
  endfacet
  facet normal -0.460053 0.00427194 0.887881
    outer loop
      vertex 19.0434 -17.506 13.2815
      vertex 19.0057 -17.506 13.2619
      vertex 19.0239 -17.846 13.273
    endloop
  endfacet
  facet normal -0.446759 -0.706303 0.549128
    outer loop
      vertex 19.0057 -17.846 13.2619
      vertex 18.9892 -17.846 13.2485
      vertex 19.0028 -17.866 13.2339
    endloop
  endfacet
  facet normal -0.789124 0 0.614234
    outer loop
      vertex 19.0279 -17.866 13.2081
      vertex 19.0077 -17.866 13.1821
      vertex 19.0279 -17.896 13.2081
    endloop
  endfacet
  facet normal -0.789124 0 0.614234
    outer loop
      vertex 19.0077 -17.866 13.1821
      vertex 19.0077 -17.896 13.1821
      vertex 19.0279 -17.896 13.2081
    endloop
  endfacet
  facet normal 0 -1 0
    outer loop
      vertex 19.0077 -17.866 13.1821
      vertex 19.0279 -17.866 13.2081
      vertex 19.0028 -17.866 13.2339
    endloop
  endfacet
  facet normal 0 -1 0
    outer loop
      vertex 19.0279 -17.866 13.2081
      vertex 19.0331 -17.866 13.2553
      vertex 19.0028 -17.866 13.2339
    endloop
  endfacet
  facet normal 0 1 0
    outer loop
      vertex 19.0279 -17.896 13.2081
      vertex 19.0077 -17.896 13.1821
      vertex 18.9993 -17.896 13.1866
    endloop
  endfacet
  facet normal 0 1 0
    outer loop
      vertex 19.0077 -17.896 13.1821
      vertex 18.9876 -17.896 13.1525
      vertex 18.9993 -17.896 13.1866
    endloop
  endfacet
  facet normal -0.395042 -0.728499 0.55967
    outer loop
      vertex 19.0028 -17.866 13.2339
      vertex 19.0331 -17.866 13.2553
      vertex 19.0057 -17.846 13.2619
    endloop
  endfacet
  facet normal -0.367795 -0.706309 0.604859
    outer loop
      vertex 19.0331 -17.866 13.2553
      vertex 19.0239 -17.846 13.273
      vertex 19.0057 -17.846 13.2619
    endloop
  endfacet
  facet normal -0.945827 0 -0.324672
    outer loop
      vertex 18.9876 -17.896 13.1165
      vertex 18.9993 -17.896 13.0824
      vertex 18.9876 -18.666 13.1165
    endloop
  endfacet
  facet normal -0.945827 0 -0.324672
    outer loop
      vertex 18.9993 -17.896 13.0824
      vertex 18.9993 -18.666 13.0824
      vertex 18.9876 -18.666 13.1165
    endloop
  endfacet
  facet normal -1 0 0
    outer loop
      vertex 18.9876 -17.896 13.1525
      vertex 18.9876 -17.896 13.1165
      vertex 18.9876 -18.666 13.1525
    endloop
  endfacet
  facet normal -1 0 0
    outer loop
      vertex 18.9876 -17.896 13.1165
      vertex 18.9876 -18.666 13.1165
      vertex 18.9876 -18.666 13.1525
    endloop
  endfacet
  facet normal -0.789132 0 -0.614223
    outer loop
      vertex 18.9993 -17.896 13.0824
      vertex 19.0215 -17.896 13.0539
      vertex 18.9993 -18.666 13.0824
    endloop
  endfacet
  facet normal -0.789132 0 -0.614223
    outer loop
      vertex 19.0215 -17.896 13.0539
      vertex 19.0215 -18.666 13.0539
      vertex 18.9993 -18.666 13.0824
    endloop
  endfacet
  facet normal -0.945827 0 0.324672
    outer loop
      vertex 18.9993 -17.896 13.1866
      vertex 18.9876 -17.896 13.1525
      vertex 18.9993 -18.666 13.1866
    endloop
  endfacet
  facet normal -0.945827 0 0.324672
    outer loop
      vertex 18.9876 -17.896 13.1525
      vertex 18.9876 -18.666 13.1525
      vertex 18.9993 -18.666 13.1866
    endloop
  endfacet
  facet normal -0.203427 0.00427241 -0.979081
    outer loop
      vertex 19.0434 -17.506 12.9875
      vertex 19.085 -17.506 12.9789
      vertex 19.0639 -17.846 12.9818
    endloop
  endfacet
  facet normal -0.136159 0 -0.990687
    outer loop
      vertex 19.085 -17.506 12.9789
      vertex 19.085 -17.846 12.9789
      vertex 19.0639 -17.846 12.9818
    endloop
  endfacet
  facet normal -0.203448 0.00427375 0.979076
    outer loop
      vertex 19.085 -17.506 13.2901
      vertex 19.0434 -17.506 13.2815
      vertex 19.0639 -17.846 13.2872
    endloop
  endfacet
  facet normal -0.269795 0 0.962918
    outer loop
      vertex 19.0434 -17.506 13.2815
      vertex 19.0434 -17.846 13.2815
      vertex 19.0639 -17.846 13.2872
    endloop
  endfacet
  facet normal 0.0682425 0.00427354 0.99766
    outer loop
      vertex 19.1274 -17.506 13.2872
      vertex 19.085 -17.506 13.2901
      vertex 19.1063 -17.846 13.2901
    endloop
  endfacet
  facet normal 0 0 1
    outer loop
      vertex 19.085 -17.506 13.2901
      vertex 19.085 -17.846 13.2901
      vertex 19.1063 -17.846 13.2901
    endloop
  endfacet
  facet normal 0.0682425 0.00427354 -0.99766
    outer loop
      vertex 19.085 -17.506 12.9789
      vertex 19.1274 -17.506 12.9818
      vertex 19.1063 -17.846 12.9789
    endloop
  endfacet
  facet normal 0.136171 0 -0.990685
    outer loop
      vertex 19.1274 -17.506 12.9818
      vertex 19.1274 -17.846 12.9818
      vertex 19.1063 -17.846 12.9789
    endloop
  endfacet
  facet normal 0.33488 0.00427379 0.942251
    outer loop
      vertex 19.1674 -17.506 13.273
      vertex 19.1274 -17.506 13.2872
      vertex 19.1479 -17.846 13.2815
    endloop
  endfacet
  facet normal 0.269795 0 0.962918
    outer loop
      vertex 19.1274 -17.506 13.2872
      vertex 19.1274 -17.846 13.2872
      vertex 19.1479 -17.846 13.2815
    endloop
  endfacet
  facet normal 0.33488 0.00427638 -0.942251
    outer loop
      vertex 19.1274 -17.506 12.9818
      vertex 19.1674 -17.506 12.996
      vertex 19.1479 -17.846 12.9875
    endloop
  endfacet
  facet normal 0.398449 0 -0.91719
    outer loop
      vertex 19.1674 -17.506 12.996
      vertex 19.1674 -17.846 12.996
      vertex 19.1479 -17.846 12.9875
    endloop
  endfacet
  facet normal 0.576645 0.00427327 0.816983
    outer loop
      vertex 19.2021 -17.506 13.2485
      vertex 19.1674 -17.506 13.273
      vertex 19.1856 -17.846 13.2619
    endloop
  endfacet
  facet normal 0.519556 0 0.854437
    outer loop
      vertex 19.1674 -17.506 13.273
      vertex 19.1674 -17.846 13.273
      vertex 19.1856 -17.846 13.2619
    endloop
  endfacet
  facet normal 0.576645 0.00427327 -0.816983
    outer loop
      vertex 19.1674 -17.506 12.996
      vertex 19.2021 -17.506 13.0205
      vertex 19.1856 -17.846 13.0071
    endloop
  endfacet
  facet normal 0.631054 0 -0.775739
    outer loop
      vertex 19.2021 -17.506 13.0205
      vertex 19.2021 -17.846 13.0205
      vertex 19.1856 -17.846 13.0071
    endloop
  endfacet
  facet normal 0.775733 0.0042741 0.631047
    outer loop
      vertex 19.2289 -17.506 13.2156
      vertex 19.2021 -17.506 13.2485
      vertex 19.2167 -17.846 13.2329
    endloop
  endfacet
  facet normal 0.73086 0 0.682527
    outer loop
      vertex 19.2021 -17.506 13.2485
      vertex 19.2021 -17.846 13.2485
      vertex 19.2167 -17.846 13.2329
    endloop
  endfacet
  facet normal 0.775733 0.00427583 -0.631047
    outer loop
      vertex 19.2021 -17.506 13.0205
      vertex 19.2289 -17.506 13.0534
      vertex 19.2167 -17.846 13.036
    endloop
  endfacet
  facet normal 0.817019 0 -0.576611
    outer loop
      vertex 19.2289 -17.506 13.0534
      vertex 19.2289 -17.846 13.0534
      vertex 19.2167 -17.846 13.036
    endloop
  endfacet
  facet normal 0.9172 0.00427398 0.398403
    outer loop
      vertex 19.2459 -17.506 13.1766
      vertex 19.2289 -17.506 13.2156
      vertex 19.2387 -17.846 13.1967
    endloop
  endfacet
  facet normal 0.887878 0 0.46008
    outer loop
      vertex 19.2289 -17.506 13.2156
      vertex 19.2289 -17.846 13.2156
      vertex 19.2387 -17.846 13.1967
    endloop
  endfacet
  facet normal 0.9172 0.00427398 -0.398403
    outer loop
      vertex 19.2289 -17.506 13.0534
      vertex 19.2459 -17.506 13.0924
      vertex 19.2387 -17.846 13.0723
    endloop
  endfacet
  facet normal 0.942261 0 -0.334878
    outer loop
      vertex 19.2459 -17.506 13.0924
      vertex 19.2459 -17.846 13.0924
      vertex 19.2387 -17.846 13.0723
    endloop
  endfacet
  facet normal 0.990675 0.00426892 0.136176
    outer loop
      vertex 19.2516 -17.506 13.1345
      vertex 19.2459 -17.506 13.1766
      vertex 19.2502 -17.846 13.1557
    endloop
  endfacet
  facet normal 0.979097 0 0.203395
    outer loop
      vertex 19.2459 -17.506 13.1766
      vertex 19.2459 -17.846 13.1766
      vertex 19.2502 -17.846 13.1557
    endloop
  endfacet
  facet normal 0.990675 0.00426892 -0.136176
    outer loop
      vertex 19.2459 -17.506 13.0924
      vertex 19.2516 -17.506 13.1345
      vertex 19.2502 -17.846 13.1133
    endloop
  endfacet
  facet normal 0.997663 0 -0.0683247
    outer loop
      vertex 19.2516 -17.506 13.1345
      vertex 19.2516 -17.846 13.1345
      vertex 19.2502 -17.846 13.1133
    endloop
  endfacet
  facet normal -0.519556 0 -0.854437
    outer loop
      vertex 19.0239 -17.846 12.996
      vertex 19.0057 -17.846 13.0071
      vertex 19.0057 -17.506 13.0071
    endloop
  endfacet
  facet normal -0.245477 0 -0.969402
    outer loop
      vertex 19.0555 -17.866 13.0429
      vertex 19.0874 -17.866 13.0348
      vertex 19.0555 -17.896 13.0429
    endloop
  endfacet
  facet normal -0.245477 0 -0.969402
    outer loop
      vertex 19.0874 -17.866 13.0348
      vertex 19.0874 -17.896 13.0348
      vertex 19.0555 -17.896 13.0429
    endloop
  endfacet
  facet normal 0 1 0
    outer loop
      vertex 19.0279 -17.896 13.0609
      vertex 19.0555 -17.896 13.0429
      vertex 19.0517 -17.896 13.0342
    endloop
  endfacet
  facet normal 0 1 0
    outer loop
      vertex 19.0555 -17.896 13.0429
      vertex 19.0866 -17.896 13.0254
      vertex 19.0517 -17.896 13.0342
    endloop
  endfacet
  facet normal -0.229399 -0.728502 -0.645493
    outer loop
      vertex 19.068 -17.866 13.0013
      vertex 19.0331 -17.866 13.0137
      vertex 19.0434 -17.846 12.9875
    endloop
  endfacet
  facet normal 0 -1 0
    outer loop
      vertex 19.0331 -17.866 13.0137
      vertex 19.068 -17.866 13.0013
      vertex 19.0874 -17.866 13.0348
    endloop
  endfacet
  facet normal 0 -1 0
    outer loop
      vertex 19.068 -17.866 13.0013
      vertex 19.1049 -17.866 12.9988
      vertex 19.0874 -17.866 13.0348
    endloop
  endfacet
  facet normal 0 -1 0
    outer loop
      vertex 19.0874 -17.866 13.0348
      vertex 19.1049 -17.866 12.9988
      vertex 19.1202 -17.866 13.0376
    endloop
  endfacet
  facet normal 0 -1 0
    outer loop
      vertex 19.1049 -17.866 12.9988
      vertex 19.1412 -17.866 13.0064
      vertex 19.1202 -17.866 13.0376
    endloop
  endfacet
  facet normal 0 -1 0
    outer loop
      vertex 19.1202 -17.866 13.0376
      vertex 19.1412 -17.866 13.0064
      vertex 19.1503 -17.866 13.0508
    endloop
  endfacet
  facet normal 0 -1 0
    outer loop
      vertex 19.1412 -17.866 13.0064
      vertex 19.1741 -17.866 13.0234
      vertex 19.1503 -17.866 13.0508
    endloop
  endfacet
  facet normal 0 -1 0
    outer loop
      vertex 19.1503 -17.866 13.0508
      vertex 19.1741 -17.866 13.0234
      vertex 19.1746 -17.866 13.0731
    endloop
  endfacet
  facet normal 0 -1 0
    outer loop
      vertex 19.1741 -17.866 13.0234
      vertex 19.2011 -17.866 13.0487
      vertex 19.1746 -17.866 13.0731
    endloop
  endfacet
  facet normal 0 -1 0
    outer loop
      vertex 19.1746 -17.866 13.0731
      vertex 19.2011 -17.866 13.0487
      vertex 19.1902 -17.866 13.102
    endloop
  endfacet
  facet normal 0 -1 0
    outer loop
      vertex 19.2011 -17.866 13.0487
      vertex 19.2204 -17.866 13.0803
      vertex 19.1902 -17.866 13.102
    endloop
  endfacet
  facet normal 0 -1 0
    outer loop
      vertex 19.1902 -17.866 13.102
      vertex 19.2204 -17.866 13.0803
      vertex 19.2304 -17.866 13.116
    endloop
  endfacet
  facet normal -0.546967 0 -0.837154
    outer loop
      vertex 19.0215 -17.896 13.0539
      vertex 19.0517 -17.896 13.0342
      vertex 19.0215 -18.666 13.0539
    endloop
  endfacet
  facet normal -0.546967 0 -0.837154
    outer loop
      vertex 19.0517 -17.896 13.0342
      vertex 19.0517 -18.666 13.0342
      vertex 19.0215 -18.666 13.0539
    endloop
  endfacet
  facet normal -0.282038 -0.706309 0.649294
    outer loop
      vertex 19.0434 -17.846 13.2815
      vertex 19.0239 -17.846 13.273
      vertex 19.0331 -17.866 13.2553
    endloop
  endfacet
  facet normal -0.398413 0 0.917206
    outer loop
      vertex 19.0239 -17.846 13.273
      vertex 19.0434 -17.846 13.2815
      vertex 19.0434 -17.506 13.2815
    endloop
  endfacet
  facet normal -0.546946 0 0.837168
    outer loop
      vertex 19.0555 -17.866 13.2261
      vertex 19.0279 -17.866 13.2081
      vertex 19.0555 -17.896 13.2261
    endloop
  endfacet
  facet normal -0.546946 0 0.837168
    outer loop
      vertex 19.0279 -17.866 13.2081
      vertex 19.0279 -17.896 13.2081
      vertex 19.0555 -17.896 13.2261
    endloop
  endfacet
  facet normal 0 -1 0
    outer loop
      vertex 19.0279 -17.866 13.2081
      vertex 19.0555 -17.866 13.2261
      vertex 19.0331 -17.866 13.2553
    endloop
  endfacet
  facet normal 0 -1 0
    outer loop
      vertex 19.0555 -17.866 13.2261
      vertex 19.068 -17.866 13.2677
      vertex 19.0331 -17.866 13.2553
    endloop
  endfacet
  facet normal 0 1 0
    outer loop
      vertex 19.0555 -17.896 13.2261
      vertex 19.0279 -17.896 13.2081
      vertex 19.0215 -17.896 13.2151
    endloop
  endfacet
  facet normal 0 1 0
    outer loop
      vertex 19.0279 -17.896 13.2081
      vertex 18.9993 -17.896 13.1866
      vertex 19.0215 -17.896 13.2151
    endloop
  endfacet
  facet normal -0.229417 -0.728495 0.645495
    outer loop
      vertex 19.0331 -17.866 13.2553
      vertex 19.068 -17.866 13.2677
      vertex 19.0434 -17.846 13.2815
    endloop
  endfacet
  facet normal -0.190991 -0.706304 0.681658
    outer loop
      vertex 19.068 -17.866 13.2677
      vertex 19.0639 -17.846 13.2872
      vertex 19.0434 -17.846 13.2815
    endloop
  endfacet
  facet normal -0.789132 0 0.614223
    outer loop
      vertex 19.0215 -17.896 13.2151
      vertex 18.9993 -17.896 13.1866
      vertex 19.0215 -18.666 13.2151
    endloop
  endfacet
  facet normal -0.789132 0 0.614223
    outer loop
      vertex 18.9993 -17.896 13.1866
      vertex 18.9993 -18.666 13.1866
      vertex 19.0215 -18.666 13.2151
    endloop
  endfacet
  facet normal -0.269755 0 -0.962929
    outer loop
      vertex 19.0639 -17.846 12.9818
      vertex 19.0434 -17.846 12.9875
      vertex 19.0434 -17.506 12.9875
    endloop
  endfacet
  facet normal -0.190962 -0.706305 -0.681665
    outer loop
      vertex 19.0434 -17.846 12.9875
      vertex 19.0639 -17.846 12.9818
      vertex 19.068 -17.866 13.0013
    endloop
  endfacet
  facet normal -0.0963886 -0.706302 -0.701318
    outer loop
      vertex 19.0639 -17.846 12.9818
      vertex 19.085 -17.846 12.9789
      vertex 19.068 -17.866 13.0013
    endloop
  endfacet
  facet normal -0.0467694 -0.728478 -0.68347
    outer loop
      vertex 19.068 -17.866 13.0013
      vertex 19.085 -17.846 12.9789
      vertex 19.1049 -17.866 12.9988
    endloop
  endfacet
  facet normal 0 -0.706282 -0.70793
    outer loop
      vertex 19.085 -17.846 12.9789
      vertex 19.1063 -17.846 12.9789
      vertex 19.1049 -17.866 12.9988
    endloop
  endfacet
  facet normal 0.0963995 -0.706283 -0.701335
    outer loop
      vertex 19.1049 -17.866 12.9988
      vertex 19.1063 -17.846 12.9789
      vertex 19.1274 -17.846 12.9818
    endloop
  endfacet
  facet normal 0.0825538 0 -0.996587
    outer loop
      vertex 19.0874 -17.866 13.0348
      vertex 19.1202 -17.866 13.0376
      vertex 19.0874 -17.896 13.0348
    endloop
  endfacet
  facet normal 0.0825538 0 -0.996587
    outer loop
      vertex 19.1202 -17.866 13.0376
      vertex 19.1202 -17.896 13.0376
      vertex 19.0874 -17.896 13.0348
    endloop
  endfacet
  facet normal 0 1 0
    outer loop
      vertex 19.0555 -17.896 13.0429
      vertex 19.0874 -17.896 13.0348
      vertex 19.0866 -17.896 13.0254
    endloop
  endfacet
  facet normal 0 1 0
    outer loop
      vertex 19.0874 -17.896 13.0348
      vertex 19.1225 -17.896 13.0284
      vertex 19.0866 -17.896 13.0254
    endloop
  endfacet
  facet normal -0.245501 0 -0.969396
    outer loop
      vertex 19.0517 -17.896 13.0342
      vertex 19.0866 -17.896 13.0254
      vertex 19.0517 -18.666 13.0342
    endloop
  endfacet
  facet normal -0.245501 0 -0.969396
    outer loop
      vertex 19.0866 -17.896 13.0254
      vertex 19.0866 -18.666 13.0254
      vertex 19.0517 -18.666 13.0342
    endloop
  endfacet
  facet normal -0.0963886 -0.706302 0.701318
    outer loop
      vertex 19.085 -17.846 13.2901
      vertex 19.0639 -17.846 13.2872
      vertex 19.068 -17.866 13.2677
    endloop
  endfacet
  facet normal -0.136159 0 0.990687
    outer loop
      vertex 19.0639 -17.846 13.2872
      vertex 19.085 -17.846 13.2901
      vertex 19.085 -17.506 13.2901
    endloop
  endfacet
  facet normal -0.245503 0 0.969396
    outer loop
      vertex 19.0874 -17.866 13.2342
      vertex 19.0555 -17.866 13.2261
      vertex 19.0874 -17.896 13.2342
    endloop
  endfacet
  facet normal -0.245503 0 0.969396
    outer loop
      vertex 19.0555 -17.866 13.2261
      vertex 19.0555 -17.896 13.2261
      vertex 19.0874 -17.896 13.2342
    endloop
  endfacet
  facet normal 0 -1 0
    outer loop
      vertex 19.0555 -17.866 13.2261
      vertex 19.0874 -17.866 13.2342
      vertex 19.068 -17.866 13.2677
    endloop
  endfacet
  facet normal 0 -1 0
    outer loop
      vertex 19.0874 -17.866 13.2342
      vertex 19.1049 -17.866 13.2702
      vertex 19.068 -17.866 13.2677
    endloop
  endfacet
  facet normal 0 1 0
    outer loop
      vertex 19.0874 -17.896 13.2342
      vertex 19.0555 -17.896 13.2261
      vertex 19.0517 -17.896 13.2348
    endloop
  endfacet
  facet normal 0 1 0
    outer loop
      vertex 19.0555 -17.896 13.2261
      vertex 19.0215 -17.896 13.2151
      vertex 19.0517 -17.896 13.2348
    endloop
  endfacet
  facet normal -0.0467517 -0.728486 0.683464
    outer loop
      vertex 19.068 -17.866 13.2677
      vertex 19.1049 -17.866 13.2702
      vertex 19.085 -17.846 13.2901
    endloop
  endfacet
  facet normal 0 -0.706299 0.707914
    outer loop
      vertex 19.1049 -17.866 13.2702
      vertex 19.1063 -17.846 13.2901
      vertex 19.085 -17.846 13.2901
    endloop
  endfacet
  facet normal -0.546967 0 0.837154
    outer loop
      vertex 19.0517 -17.896 13.2348
      vertex 19.0215 -17.896 13.2151
      vertex 19.0517 -18.666 13.2348
    endloop
  endfacet
  facet normal -0.546967 0 0.837154
    outer loop
      vertex 19.0215 -17.896 13.2151
      vertex 19.0215 -18.666 13.2151
      vertex 19.0517 -18.666 13.2348
    endloop
  endfacet
  facet normal 0 -1 0
    outer loop
      vertex 18.9876 -18.666 13.1165
      vertex 18.9993 -18.666 13.0824
      vertex 19.0956 -18.666 13.1345
    endloop
  endfacet
  facet normal 0 -1 0
    outer loop
      vertex 18.9993 -18.666 13.0824
      vertex 19.0215 -18.666 13.0539
      vertex 19.0956 -18.666 13.1345
    endloop
  endfacet
  facet normal 0 -1 0
    outer loop
      vertex 19.0956 -18.666 13.1345
      vertex 19.0215 -18.666 13.0539
      vertex 19.0517 -18.666 13.0342
    endloop
  endfacet
  facet normal 0 -1 0
    outer loop
      vertex 18.9876 -18.666 13.1525
      vertex 18.9876 -18.666 13.1165
      vertex 19.0956 -18.666 13.1345
    endloop
  endfacet
  facet normal 0 -1 0
    outer loop
      vertex 18.9993 -18.666 13.1866
      vertex 18.9876 -18.666 13.1525
      vertex 19.0956 -18.666 13.1345
    endloop
  endfacet
  facet normal 0 -1 0
    outer loop
      vertex 19.0215 -18.666 13.2151
      vertex 18.9993 -18.666 13.1866
      vertex 19.0956 -18.666 13.1345
    endloop
  endfacet
  facet normal 0.0963973 -0.7063 0.701319
    outer loop
      vertex 19.1274 -17.846 13.2872
      vertex 19.1063 -17.846 13.2901
      vertex 19.1049 -17.866 13.2702
    endloop
  endfacet
  facet normal 0.136171 0 0.990685
    outer loop
      vertex 19.1063 -17.846 13.2901
      vertex 19.1274 -17.846 13.2872
      vertex 19.1274 -17.506 13.2872
    endloop
  endfacet
  facet normal 0 0 -1
    outer loop
      vertex 19.1063 -17.846 12.9789
      vertex 19.085 -17.846 12.9789
      vertex 19.085 -17.506 12.9789
    endloop
  endfacet
  facet normal 0.190992 -0.706299 0.681663
    outer loop
      vertex 19.1479 -17.846 13.2815
      vertex 19.1274 -17.846 13.2872
      vertex 19.1412 -17.866 13.2626
    endloop
  endfacet
  facet normal 0.13938 -0.728485 0.670733
    outer loop
      vertex 19.1274 -17.846 13.2872
      vertex 19.1049 -17.866 13.2702
      vertex 19.1412 -17.866 13.2626
    endloop
  endfacet
  facet normal 0.282041 -0.7063 0.649302
    outer loop
      vertex 19.1674 -17.846 13.273
      vertex 19.1479 -17.846 13.2815
      vertex 19.1412 -17.866 13.2626
    endloop
  endfacet
  facet normal 0.398413 0 0.917206
    outer loop
      vertex 19.1479 -17.846 13.2815
      vertex 19.1674 -17.846 13.273
      vertex 19.1674 -17.506 13.273
    endloop
  endfacet
  facet normal 0.282062 -0.706314 -0.649278
    outer loop
      vertex 19.1479 -17.846 12.9875
      vertex 19.1674 -17.846 12.996
      vertex 19.1412 -17.866 13.0064
    endloop
  endfacet
  facet normal 0.315163 -0.728474 -0.608275
    outer loop
      vertex 19.1674 -17.846 12.996
      vertex 19.1741 -17.866 13.0234
      vertex 19.1412 -17.866 13.0064
    endloop
  endfacet
  facet normal 0.190959 -0.706314 -0.681657
    outer loop
      vertex 19.1274 -17.846 12.9818
      vertex 19.1479 -17.846 12.9875
      vertex 19.1412 -17.866 13.0064
    endloop
  endfacet
  facet normal 0.269755 0 -0.962929
    outer loop
      vertex 19.1479 -17.846 12.9875
      vertex 19.1274 -17.846 12.9818
      vertex 19.1274 -17.506 12.9818
    endloop
  endfacet
  facet normal 0.367798 -0.706303 0.604864
    outer loop
      vertex 19.1856 -17.846 13.2619
      vertex 19.1674 -17.846 13.273
      vertex 19.1741 -17.866 13.2456
    endloop
  endfacet
  facet normal 0.315173 -0.728481 0.608262
    outer loop
      vertex 19.1674 -17.846 13.273
      vertex 19.1412 -17.866 13.2626
      vertex 19.1741 -17.866 13.2456
    endloop
  endfacet
  facet normal 0.446728 -0.706304 0.549153
    outer loop
      vertex 19.2021 -17.846 13.2485
      vertex 19.1856 -17.846 13.2619
      vertex 19.1741 -17.866 13.2456
    endloop
  endfacet
  facet normal 0.631054 0 0.775739
    outer loop
      vertex 19.1856 -17.846 13.2619
      vertex 19.2021 -17.846 13.2485
      vertex 19.2021 -17.506 13.2485
    endloop
  endfacet
  facet normal 0.446736 -0.706291 -0.549163
    outer loop
      vertex 19.1856 -17.846 13.0071
      vertex 19.2021 -17.846 13.0205
      vertex 19.1741 -17.866 13.0234
    endloop
  endfacet
  facet normal 0.46759 -0.728501 -0.500646
    outer loop
      vertex 19.2021 -17.846 13.0205
      vertex 19.2011 -17.866 13.0487
      vertex 19.1741 -17.866 13.0234
    endloop
  endfacet
  facet normal 0.367806 -0.706289 -0.604876
    outer loop
      vertex 19.1674 -17.846 12.996
      vertex 19.1856 -17.846 13.0071
      vertex 19.1741 -17.866 13.0234
    endloop
  endfacet
  facet normal 0.519556 0 -0.854437
    outer loop
      vertex 19.1856 -17.846 13.0071
      vertex 19.1674 -17.846 12.996
      vertex 19.1674 -17.506 12.996
    endloop
  endfacet
  facet normal 0.517377 -0.706311 0.483162
    outer loop
      vertex 19.2167 -17.846 13.2329
      vertex 19.2021 -17.846 13.2485
      vertex 19.2011 -17.866 13.2203
    endloop
  endfacet
  facet normal 0.467577 -0.728506 0.50065
    outer loop
      vertex 19.2021 -17.846 13.2485
      vertex 19.1741 -17.866 13.2456
      vertex 19.2011 -17.866 13.2203
    endloop
  endfacet
  facet normal 0.578358 -0.706312 0.408198
    outer loop
      vertex 19.2289 -17.846 13.2156
      vertex 19.2167 -17.846 13.2329
      vertex 19.2011 -17.866 13.2203
    endloop
  endfacet
  facet normal 0.817004 0 0.576632
    outer loop
      vertex 19.2167 -17.846 13.2329
      vertex 19.2289 -17.846 13.2156
      vertex 19.2289 -17.506 13.2156
    endloop
  endfacet
  facet normal 0.578361 -0.706321 -0.408178
    outer loop
      vertex 19.2167 -17.846 13.036
      vertex 19.2289 -17.846 13.0534
      vertex 19.2011 -17.866 13.0487
    endloop
  endfacet
  facet normal 0.585338 -0.728485 -0.355933
    outer loop
      vertex 19.2289 -17.846 13.0534
      vertex 19.2204 -17.866 13.0803
      vertex 19.2011 -17.866 13.0487
    endloop
  endfacet
  facet normal 0.517355 -0.706321 -0.48317
    outer loop
      vertex 19.2021 -17.846 13.0205
      vertex 19.2167 -17.846 13.036
      vertex 19.2011 -17.866 13.0487
    endloop
  endfacet
  facet normal 0.73084 0 -0.682549
    outer loop
      vertex 19.2167 -17.846 13.036
      vertex 19.2021 -17.846 13.0205
      vertex 19.2021 -17.506 13.0205
    endloop
  endfacet
  facet normal 0.628528 -0.706313 0.32569
    outer loop
      vertex 19.2387 -17.846 13.1967
      vertex 19.2289 -17.846 13.2156
      vertex 19.2204 -17.866 13.1887
    endloop
  endfacet
  facet normal 0.585338 -0.728485 0.355933
    outer loop
      vertex 19.2289 -17.846 13.2156
      vertex 19.2011 -17.866 13.2203
      vertex 19.2204 -17.866 13.1887
    endloop
  endfacet
  facet normal 0.667026 -0.706313 0.23706
    outer loop
      vertex 19.2459 -17.846 13.1766
      vertex 19.2387 -17.846 13.1967
      vertex 19.2204 -17.866 13.1887
    endloop
  endfacet
  facet normal 0.942261 0 0.334878
    outer loop
      vertex 19.2387 -17.846 13.1967
      vertex 19.2459 -17.846 13.1766
      vertex 19.2459 -17.506 13.1766
    endloop
  endfacet
  facet normal 0.667026 -0.706313 -0.23706
    outer loop
      vertex 19.2387 -17.846 13.0723
      vertex 19.2459 -17.846 13.0924
      vertex 19.2204 -17.866 13.0803
    endloop
  endfacet
  facet normal 0.659646 -0.728493 -0.184838
    outer loop
      vertex 19.2459 -17.846 13.0924
      vertex 19.2304 -17.866 13.116
      vertex 19.2204 -17.866 13.0803
    endloop
  endfacet
  facet normal 0.628528 -0.706313 -0.32569
    outer loop
      vertex 19.2289 -17.846 13.0534
      vertex 19.2387 -17.846 13.0723
      vertex 19.2204 -17.866 13.0803
    endloop
  endfacet
  facet normal 0.887878 0 -0.46008
    outer loop
      vertex 19.2387 -17.846 13.0723
      vertex 19.2289 -17.846 13.0534
      vertex 19.2289 -17.506 13.0534
    endloop
  endfacet
  facet normal 0.693135 -0.706279 0.14399
    outer loop
      vertex 19.2502 -17.846 13.1557
      vertex 19.2459 -17.846 13.1766
      vertex 19.2304 -17.866 13.153
    endloop
  endfacet
  facet normal 0.659646 -0.728493 0.184838
    outer loop
      vertex 19.2459 -17.846 13.1766
      vertex 19.2204 -17.866 13.1887
      vertex 19.2304 -17.866 13.153
    endloop
  endfacet
  facet normal 0.706276 -0.706282 0.0483691
    outer loop
      vertex 19.2516 -17.846 13.1345
      vertex 19.2502 -17.846 13.1557
      vertex 19.2304 -17.866 13.153
    endloop
  endfacet
  facet normal 0.997663 0 0.0683247
    outer loop
      vertex 19.2502 -17.846 13.1557
      vertex 19.2516 -17.846 13.1345
      vertex 19.2516 -17.506 13.1345
    endloop
  endfacet
  facet normal 0.706246 -0.706312 -0.0483671
    outer loop
      vertex 19.2502 -17.846 13.1133
      vertex 19.2516 -17.846 13.1345
      vertex 19.2316 -17.866 13.1345
    endloop
  endfacet
  facet normal 0.706249 -0.706314 0.0483026
    outer loop
      vertex 19.2516 -17.846 13.1345
      vertex 19.2304 -17.866 13.153
      vertex 19.2316 -17.866 13.1345
    endloop
  endfacet
  facet normal 0.693135 -0.706279 -0.14399
    outer loop
      vertex 19.2459 -17.846 13.0924
      vertex 19.2502 -17.846 13.1133
      vertex 19.2304 -17.866 13.116
    endloop
  endfacet
  facet normal 0.706283 -0.70628 -0.048305
    outer loop
      vertex 19.2502 -17.846 13.1133
      vertex 19.2316 -17.866 13.1345
      vertex 19.2304 -17.866 13.116
    endloop
  endfacet
  facet normal 0.979097 0 -0.203395
    outer loop
      vertex 19.2502 -17.846 13.1133
      vertex 19.2459 -17.846 13.0924
      vertex 19.2459 -17.506 13.0924
    endloop
  endfacet
  facet normal 0 -1 0
    outer loop
      vertex 19.0517 -18.666 13.2348
      vertex 19.0215 -18.666 13.2151
      vertex 19.0956 -18.666 13.1345
    endloop
  endfacet
  facet normal 0 1 0
    outer loop
      vertex 19.0874 -17.896 13.0348
      vertex 19.1202 -17.896 13.0376
      vertex 19.1225 -17.896 13.0284
    endloop
  endfacet
  facet normal 0 1 0
    outer loop
      vertex 19.1202 -17.896 13.0376
      vertex 19.1555 -17.896 13.0428
      vertex 19.1225 -17.896 13.0284
    endloop
  endfacet
  facet normal 0.139398 -0.728477 -0.670738
    outer loop
      vertex 19.1412 -17.866 13.0064
      vertex 19.1049 -17.866 12.9988
      vertex 19.1274 -17.846 12.9818
    endloop
  endfacet
  facet normal 0.401721 0 -0.915762
    outer loop
      vertex 19.1202 -17.866 13.0376
      vertex 19.1503 -17.866 13.0508
      vertex 19.1202 -17.896 13.0376
    endloop
  endfacet
  facet normal 0.401721 0 -0.915762
    outer loop
      vertex 19.1503 -17.866 13.0508
      vertex 19.1503 -17.896 13.0508
      vertex 19.1202 -17.896 13.0376
    endloop
  endfacet
  facet normal 0.0826007 0 -0.996583
    outer loop
      vertex 19.0866 -17.896 13.0254
      vertex 19.1225 -17.896 13.0284
      vertex 19.0866 -18.666 13.0254
    endloop
  endfacet
  facet normal 0.0826007 0 -0.996583
    outer loop
      vertex 19.1225 -17.896 13.0284
      vertex 19.1225 -18.666 13.0284
      vertex 19.0866 -18.666 13.0254
    endloop
  endfacet
  facet normal 0 1 0
    outer loop
      vertex 19.1202 -17.896 13.2314
      vertex 19.0874 -17.896 13.2342
      vertex 19.0866 -17.896 13.2436
    endloop
  endfacet
  facet normal 0 1 0
    outer loop
      vertex 19.0874 -17.896 13.2342
      vertex 19.0517 -17.896 13.2348
      vertex 19.0866 -17.896 13.2436
    endloop
  endfacet
  facet normal 0.08261 0 0.996582
    outer loop
      vertex 19.0874 -17.896 13.2342
      vertex 19.1202 -17.896 13.2314
      vertex 19.0874 -17.866 13.2342
    endloop
  endfacet
  facet normal 0.08261 0 0.996582
    outer loop
      vertex 19.1202 -17.896 13.2314
      vertex 19.1202 -17.866 13.2314
      vertex 19.0874 -17.866 13.2342
    endloop
  endfacet
  facet normal 0 -1 0
    outer loop
      vertex 19.0874 -17.866 13.2342
      vertex 19.1202 -17.866 13.2314
      vertex 19.1049 -17.866 13.2702
    endloop
  endfacet
  facet normal 0 -1 0
    outer loop
      vertex 19.1202 -17.866 13.2314
      vertex 19.1412 -17.866 13.2626
      vertex 19.1049 -17.866 13.2702
    endloop
  endfacet
  facet normal -0.245477 0 0.969402
    outer loop
      vertex 19.0866 -17.896 13.2436
      vertex 19.0517 -17.896 13.2348
      vertex 19.0866 -18.666 13.2436
    endloop
  endfacet
  facet normal -0.245477 0 0.969402
    outer loop
      vertex 19.0517 -17.896 13.2348
      vertex 19.0517 -18.666 13.2348
      vertex 19.0866 -18.666 13.2436
    endloop
  endfacet
  facet normal 0 -1 0
    outer loop
      vertex 19.0517 -18.666 13.0342
      vertex 19.0866 -18.666 13.0254
      vertex 19.0956 -18.666 13.1345
    endloop
  endfacet
  facet normal 0 -1 0
    outer loop
      vertex 19.0866 -18.666 13.0254
      vertex 19.1225 -18.666 13.0284
      vertex 19.0956 -18.666 13.1345
    endloop
  endfacet
  facet normal 0 -1 0
    outer loop
      vertex 19.0956 -18.666 13.1345
      vertex 19.1225 -18.666 13.0284
      vertex 19.1555 -18.666 13.0428
    endloop
  endfacet
  facet normal 0 -1 0
    outer loop
      vertex 19.0866 -18.666 13.2436
      vertex 19.0517 -18.666 13.2348
      vertex 19.0956 -18.666 13.1345
    endloop
  endfacet
  facet normal 0 -1 0
    outer loop
      vertex 19.1225 -18.666 13.2406
      vertex 19.0866 -18.666 13.2436
      vertex 19.0956 -18.666 13.1345
    endloop
  endfacet
  facet normal 0.0825751 0 0.996585
    outer loop
      vertex 19.0866 -18.666 13.2436
      vertex 19.1225 -18.666 13.2406
      vertex 19.0866 -17.896 13.2436
    endloop
  endfacet
  facet normal 0.0825751 0 0.996585
    outer loop
      vertex 19.1225 -18.666 13.2406
      vertex 19.1225 -17.896 13.2406
      vertex 19.0866 -17.896 13.2436
    endloop
  endfacet
  facet normal 0.401713 0 -0.915766
    outer loop
      vertex 19.1555 -18.666 13.0428
      vertex 19.1225 -18.666 13.0284
      vertex 19.1555 -17.896 13.0428
    endloop
  endfacet
  facet normal 0.401713 0 -0.915766
    outer loop
      vertex 19.1225 -18.666 13.0284
      vertex 19.1225 -17.896 13.0284
      vertex 19.1555 -17.896 13.0428
    endloop
  endfacet
  facet normal 0 -1 0
    outer loop
      vertex 19.1555 -18.666 13.2262
      vertex 19.1225 -18.666 13.2406
      vertex 19.0956 -18.666 13.1345
    endloop
  endfacet
  facet normal 0.401713 0 0.915766
    outer loop
      vertex 19.1225 -18.666 13.2406
      vertex 19.1555 -18.666 13.2262
      vertex 19.1225 -17.896 13.2406
    endloop
  endfacet
  facet normal 0.401713 0 0.915766
    outer loop
      vertex 19.1555 -18.666 13.2262
      vertex 19.1555 -17.896 13.2262
      vertex 19.1225 -17.896 13.2406
    endloop
  endfacet
  facet normal 0.677268 0 -0.735737
    outer loop
      vertex 19.1821 -18.666 13.0672
      vertex 19.1555 -18.666 13.0428
      vertex 19.1821 -17.896 13.0672
    endloop
  endfacet
  facet normal 0.677268 0 -0.735737
    outer loop
      vertex 19.1555 -18.666 13.0428
      vertex 19.1555 -17.896 13.0428
      vertex 19.1821 -17.896 13.0672
    endloop
  endfacet
  facet normal 0 -1 0
    outer loop
      vertex 19.1555 -18.666 13.0428
      vertex 19.1821 -18.666 13.0672
      vertex 19.0956 -18.666 13.1345
    endloop
  endfacet
  facet normal 0 -1 0
    outer loop
      vertex 19.1821 -18.666 13.0672
      vertex 19.1992 -18.666 13.0989
      vertex 19.0956 -18.666 13.1345
    endloop
  endfacet
  facet normal 0 -1 0
    outer loop
      vertex 19.0956 -18.666 13.1345
      vertex 19.1992 -18.666 13.0989
      vertex 19.2051 -18.666 13.1345
    endloop
  endfacet
  facet normal 0 -1 0
    outer loop
      vertex 19.1821 -18.666 13.2018
      vertex 19.1555 -18.666 13.2262
      vertex 19.0956 -18.666 13.1345
    endloop
  endfacet
  facet normal 0.677268 0 0.735737
    outer loop
      vertex 19.1555 -18.666 13.2262
      vertex 19.1821 -18.666 13.2018
      vertex 19.1555 -17.896 13.2262
    endloop
  endfacet
  facet normal 0.677268 0 0.735737
    outer loop
      vertex 19.1821 -18.666 13.2018
      vertex 19.1821 -17.896 13.2018
      vertex 19.1555 -17.896 13.2262
    endloop
  endfacet
  facet normal 0.879469 0 -0.475957
    outer loop
      vertex 19.1992 -18.666 13.0989
      vertex 19.1821 -18.666 13.0672
      vertex 19.1992 -17.896 13.0989
    endloop
  endfacet
  facet normal 0.879469 0 -0.475957
    outer loop
      vertex 19.1821 -18.666 13.0672
      vertex 19.1821 -17.896 13.0672
      vertex 19.1992 -17.896 13.0989
    endloop
  endfacet
  facet normal 0 -1 0
    outer loop
      vertex 19.1992 -18.666 13.1701
      vertex 19.1821 -18.666 13.2018
      vertex 19.0956 -18.666 13.1345
    endloop
  endfacet
  facet normal 0.879469 0 0.475957
    outer loop
      vertex 19.1821 -18.666 13.2018
      vertex 19.1992 -18.666 13.1701
      vertex 19.1821 -17.896 13.2018
    endloop
  endfacet
  facet normal 0.879469 0 0.475957
    outer loop
      vertex 19.1992 -18.666 13.1701
      vertex 19.1992 -17.896 13.1701
      vertex 19.1821 -17.896 13.2018
    endloop
  endfacet
  facet normal 0.986355 0 -0.164634
    outer loop
      vertex 19.2051 -18.666 13.1345
      vertex 19.1992 -18.666 13.0989
      vertex 19.2051 -17.896 13.1345
    endloop
  endfacet
  facet normal 0.986355 0 -0.164634
    outer loop
      vertex 19.1992 -18.666 13.0989
      vertex 19.1992 -17.896 13.0989
      vertex 19.2051 -17.896 13.1345
    endloop
  endfacet
  facet normal 0 -1 0
    outer loop
      vertex 19.2051 -18.666 13.1345
      vertex 19.1992 -18.666 13.1701
      vertex 19.0956 -18.666 13.1345
    endloop
  endfacet
  facet normal 0.986355 0 0.164634
    outer loop
      vertex 19.1992 -18.666 13.1701
      vertex 19.2051 -18.666 13.1345
      vertex 19.1992 -17.896 13.1701
    endloop
  endfacet
  facet normal 0.986355 0 0.164634
    outer loop
      vertex 19.2051 -18.666 13.1345
      vertex 19.2051 -17.896 13.1345
      vertex 19.1992 -17.896 13.1701
    endloop
  endfacet
  facet normal 0 1 0
    outer loop
      vertex 19.0866 -17.896 13.2436
      vertex 19.1225 -17.896 13.2406
      vertex 19.1202 -17.896 13.2314
    endloop
  endfacet
  facet normal 0 1 0
    outer loop
      vertex 19.1225 -17.896 13.2406
      vertex 19.1503 -17.896 13.2182
      vertex 19.1202 -17.896 13.2314
    endloop
  endfacet
  facet normal 0 1 0
    outer loop
      vertex 19.1821 -17.896 13.0672
      vertex 19.1555 -17.896 13.0428
      vertex 19.1503 -17.896 13.0508
    endloop
  endfacet
  facet normal 0 1 0
    outer loop
      vertex 19.1555 -17.896 13.0428
      vertex 19.1202 -17.896 13.0376
      vertex 19.1503 -17.896 13.0508
    endloop
  endfacet
  facet normal 0 1 0
    outer loop
      vertex 19.1225 -17.896 13.2406
      vertex 19.1555 -17.896 13.2262
      vertex 19.1503 -17.896 13.2182
    endloop
  endfacet
  facet normal 0 1 0
    outer loop
      vertex 19.1555 -17.896 13.2262
      vertex 19.1746 -17.896 13.1959
      vertex 19.1503 -17.896 13.2182
    endloop
  endfacet
  facet normal 0 1 0
    outer loop
      vertex 19.1992 -17.896 13.0989
      vertex 19.1821 -17.896 13.0672
      vertex 19.1746 -17.896 13.0731
    endloop
  endfacet
  facet normal 0 1 0
    outer loop
      vertex 19.1821 -17.896 13.0672
      vertex 19.1503 -17.896 13.0508
      vertex 19.1746 -17.896 13.0731
    endloop
  endfacet
  facet normal 0 1 0
    outer loop
      vertex 19.1555 -17.896 13.2262
      vertex 19.1821 -17.896 13.2018
      vertex 19.1746 -17.896 13.1959
    endloop
  endfacet
  facet normal 0 1 0
    outer loop
      vertex 19.1821 -17.896 13.2018
      vertex 19.1902 -17.896 13.167
      vertex 19.1746 -17.896 13.1959
    endloop
  endfacet
  facet normal 0 1 0
    outer loop
      vertex 19.2051 -17.896 13.1345
      vertex 19.1992 -17.896 13.0989
      vertex 19.1902 -17.896 13.102
    endloop
  endfacet
  facet normal 0 1 0
    outer loop
      vertex 19.1992 -17.896 13.0989
      vertex 19.1746 -17.896 13.0731
      vertex 19.1902 -17.896 13.102
    endloop
  endfacet
  facet normal 0 1 0
    outer loop
      vertex 19.1821 -17.896 13.2018
      vertex 19.1992 -17.896 13.1701
      vertex 19.1902 -17.896 13.167
    endloop
  endfacet
  facet normal 0 1 0
    outer loop
      vertex 19.1992 -17.896 13.1701
      vertex 19.1956 -17.896 13.1345
      vertex 19.1902 -17.896 13.167
    endloop
  endfacet
  facet normal 0 1 0
    outer loop
      vertex 19.1992 -17.896 13.1701
      vertex 19.2051 -17.896 13.1345
      vertex 19.1956 -17.896 13.1345
    endloop
  endfacet
  facet normal 0 1 0
    outer loop
      vertex 19.2051 -17.896 13.1345
      vertex 19.1902 -17.896 13.102
      vertex 19.1956 -17.896 13.1345
    endloop
  endfacet
  facet normal 0.401697 0 0.915773
    outer loop
      vertex 19.1202 -17.896 13.2314
      vertex 19.1503 -17.896 13.2182
      vertex 19.1202 -17.866 13.2314
    endloop
  endfacet
  facet normal 0.401697 0 0.915773
    outer loop
      vertex 19.1503 -17.896 13.2182
      vertex 19.1503 -17.866 13.2182
      vertex 19.1202 -17.866 13.2314
    endloop
  endfacet
  facet normal 0.677263 0 -0.735741
    outer loop
      vertex 19.1746 -17.896 13.0731
      vertex 19.1503 -17.896 13.0508
      vertex 19.1746 -17.866 13.0731
    endloop
  endfacet
  facet normal 0.677263 0 -0.735741
    outer loop
      vertex 19.1503 -17.896 13.0508
      vertex 19.1503 -17.866 13.0508
      vertex 19.1746 -17.866 13.0731
    endloop
  endfacet
  facet normal 0.677278 0 0.735727
    outer loop
      vertex 19.1503 -17.896 13.2182
      vertex 19.1746 -17.896 13.1959
      vertex 19.1503 -17.866 13.2182
    endloop
  endfacet
  facet normal 0.677278 0 0.735727
    outer loop
      vertex 19.1746 -17.896 13.1959
      vertex 19.1746 -17.866 13.1959
      vertex 19.1503 -17.866 13.2182
    endloop
  endfacet
  facet normal 0.879484 0 -0.475928
    outer loop
      vertex 19.1902 -17.896 13.102
      vertex 19.1746 -17.896 13.0731
      vertex 19.1902 -17.866 13.102
    endloop
  endfacet
  facet normal 0.879484 0 -0.475928
    outer loop
      vertex 19.1746 -17.896 13.0731
      vertex 19.1746 -17.866 13.0731
      vertex 19.1902 -17.866 13.102
    endloop
  endfacet
  facet normal 0.879478 0 0.475939
    outer loop
      vertex 19.1746 -17.896 13.1959
      vertex 19.1902 -17.896 13.167
      vertex 19.1746 -17.866 13.1959
    endloop
  endfacet
  facet normal 0.879478 0 0.475939
    outer loop
      vertex 19.1902 -17.896 13.167
      vertex 19.1902 -17.866 13.167
      vertex 19.1746 -17.866 13.1959
    endloop
  endfacet
  facet normal 0.986361 0 -0.164596
    outer loop
      vertex 19.1956 -17.896 13.1345
      vertex 19.1902 -17.896 13.102
      vertex 19.1956 -17.866 13.1345
    endloop
  endfacet
  facet normal 0.986361 0 -0.164596
    outer loop
      vertex 19.1902 -17.896 13.102
      vertex 19.1902 -17.866 13.102
      vertex 19.1956 -17.866 13.1345
    endloop
  endfacet
  facet normal 0.986361 0 0.164596
    outer loop
      vertex 19.1902 -17.896 13.167
      vertex 19.1956 -17.896 13.1345
      vertex 19.1902 -17.866 13.167
    endloop
  endfacet
  facet normal 0.986361 0 0.164596
    outer loop
      vertex 19.1956 -17.896 13.1345
      vertex 19.1956 -17.866 13.1345
      vertex 19.1902 -17.866 13.167
    endloop
  endfacet
  facet normal 0 -1 0
    outer loop
      vertex 19.1202 -17.866 13.2314
      vertex 19.1503 -17.866 13.2182
      vertex 19.1741 -17.866 13.2456
    endloop
  endfacet
  facet normal 0 -1 0
    outer loop
      vertex 19.1503 -17.866 13.2182
      vertex 19.2011 -17.866 13.2203
      vertex 19.1741 -17.866 13.2456
    endloop
  endfacet
  facet normal 0 -1 0
    outer loop
      vertex 19.1741 -17.866 13.2456
      vertex 19.1412 -17.866 13.2626
      vertex 19.1202 -17.866 13.2314
    endloop
  endfacet
  facet normal 0 -1 0
    outer loop
      vertex 19.1503 -17.866 13.2182
      vertex 19.1746 -17.866 13.1959
      vertex 19.2011 -17.866 13.2203
    endloop
  endfacet
  facet normal 0 -1 0
    outer loop
      vertex 19.1746 -17.866 13.1959
      vertex 19.2204 -17.866 13.1887
      vertex 19.2011 -17.866 13.2203
    endloop
  endfacet
  facet normal 0 -1 0
    outer loop
      vertex 19.1746 -17.866 13.1959
      vertex 19.1902 -17.866 13.167
      vertex 19.2204 -17.866 13.1887
    endloop
  endfacet
  facet normal 0 -1 0
    outer loop
      vertex 19.1902 -17.866 13.167
      vertex 19.2304 -17.866 13.153
      vertex 19.2204 -17.866 13.1887
    endloop
  endfacet
  facet normal 0 -1 0
    outer loop
      vertex 19.1956 -17.866 13.1345
      vertex 19.1902 -17.866 13.102
      vertex 19.2304 -17.866 13.116
    endloop
  endfacet
  facet normal 0 -1 0
    outer loop
      vertex 19.1902 -17.866 13.167
      vertex 19.1956 -17.866 13.1345
      vertex 19.2304 -17.866 13.153
    endloop
  endfacet
  facet normal 0 -1 0
    outer loop
      vertex 19.1956 -17.866 13.1345
      vertex 19.2316 -17.866 13.1345
      vertex 19.2304 -17.866 13.153
    endloop
  endfacet
  facet normal 0 -1 0
    outer loop
      vertex 19.2304 -17.866 13.116
      vertex 19.2316 -17.866 13.1345
      vertex 19.1956 -17.866 13.1345
    endloop
  endfacet
endsolid Onshape
