solid Onshape
  facet normal -0.634315 0 0.773075
    outer loop
      vertex 17.2671 -24.7861 8.88418
      vertex 17.2818 -24.7861 8.89624
      vertex 17.2671 -24.7467 8.88418
    endloop
  endfacet
  facet normal -0.634315 0 0.773075
    outer loop
      vertex 17.2818 -24.7861 8.89624
      vertex 17.2818 -24.7467 8.89624
      vertex 17.2671 -24.7467 8.88418
    endloop
  endfacet
  facet normal 0 -1 0
    outer loop
      vertex 17.2818 -24.7861 8.89624
      vertex 17.2671 -24.7861 8.88418
      vertex 17.3492 -24.7861 8.7992
    endloop
  endfacet
  facet normal 0 -1 0
    outer loop
      vertex 17.2671 -24.7861 8.88418
      vertex 17.2546 -24.7861 8.86992
      vertex 17.3492 -24.7861 8.7992
    endloop
  endfacet
  facet normal 0 -1 0
    outer loop
      vertex 17.3492 -24.7861 8.7992
      vertex 17.2546 -24.7861 8.86992
      vertex 17.2444 -24.7861 8.85383
    endloop
  endfacet
  facet normal 0 -1 0
    outer loop
      vertex 17.2983 -24.7861 8.90578
      vertex 17.2818 -24.7861 8.89624
      vertex 17.3492 -24.7861 8.7992
    endloop
  endfacet
  facet normal -0.502042 0 0.864843
    outer loop
      vertex 17.2818 -24.7861 8.89624
      vertex 17.2983 -24.7861 8.90578
      vertex 17.2818 -24.7467 8.89624
    endloop
  endfacet
  facet normal -0.502042 0 0.864843
    outer loop
      vertex 17.2983 -24.7861 8.90578
      vertex 17.2983 -24.7467 8.90578
      vertex 17.2818 -24.7467 8.89624
    endloop
  endfacet
  facet normal 0 1 0
    outer loop
      vertex 17.2818 -24.7467 8.89624
      vertex 17.2983 -24.7467 8.90578
      vertex 17.3492 -24.7467 8.7992
    endloop
  endfacet
  facet normal 0 1 0
    outer loop
      vertex 17.2983 -24.7467 8.90578
      vertex 17.316 -24.7467 8.91256
      vertex 17.3492 -24.7467 8.7992
    endloop
  endfacet
  facet normal 0 1 0
    outer loop
      vertex 17.3492 -24.7467 8.7992
      vertex 17.316 -24.7467 8.91256
      vertex 17.3346 -24.7467 8.91641
    endloop
  endfacet
  facet normal 0 1 0
    outer loop
      vertex 17.2671 -24.7467 8.88418
      vertex 17.2818 -24.7467 8.89624
      vertex 17.3492 -24.7467 8.7992
    endloop
  endfacet
  facet normal 0 1 0
    outer loop
      vertex 17.2546 -24.7467 8.86992
      vertex 17.2671 -24.7467 8.88418
      vertex 17.3492 -24.7467 8.7992
    endloop
  endfacet
  facet normal -0.750149 0 0.661268
    outer loop
      vertex 17.2671 -24.7467 8.88418
      vertex 17.2546 -24.7467 8.86992
      vertex 17.2671 -24.7861 8.88418
    endloop
  endfacet
  facet normal -0.750149 0 0.661268
    outer loop
      vertex 17.2546 -24.7467 8.86992
      vertex 17.2546 -24.7861 8.86992
      vertex 17.2671 -24.7861 8.88418
    endloop
  endfacet
  facet normal 0 -1 0
    outer loop
      vertex 17.316 -24.7861 8.91256
      vertex 17.2983 -24.7861 8.90578
      vertex 17.3492 -24.7861 8.7992
    endloop
  endfacet
  facet normal -0.356916 0 0.934136
    outer loop
      vertex 17.2983 -24.7861 8.90578
      vertex 17.316 -24.7861 8.91256
      vertex 17.2983 -24.7467 8.90578
    endloop
  endfacet
  facet normal -0.356916 0 0.934136
    outer loop
      vertex 17.316 -24.7861 8.91256
      vertex 17.316 -24.7467 8.91256
      vertex 17.2983 -24.7467 8.90578
    endloop
  endfacet
  facet normal -0.4979 0 -0.867234
    outer loop
      vertex 17.2988 -24.7861 8.69237
      vertex 17.2823 -24.7861 8.70183
      vertex 17.2988 -24.7467 8.69237
    endloop
  endfacet
  facet normal -0.4979 0 -0.867234
    outer loop
      vertex 17.2823 -24.7861 8.70183
      vertex 17.2823 -24.7467 8.70183
      vertex 17.2988 -24.7467 8.69237
    endloop
  endfacet
  facet normal 0 -1 0
    outer loop
      vertex 17.2823 -24.7861 8.70183
      vertex 17.2988 -24.7861 8.69237
      vertex 17.3492 -24.7861 8.7992
    endloop
  endfacet
  facet normal 0 -1 0
    outer loop
      vertex 17.2988 -24.7861 8.69237
      vertex 17.3166 -24.7861 8.68567
      vertex 17.3492 -24.7861 8.7992
    endloop
  endfacet
  facet normal 0 -1 0
    outer loop
      vertex 17.3492 -24.7861 8.7992
      vertex 17.3166 -24.7861 8.68567
      vertex 17.3352 -24.7861 8.68191
    endloop
  endfacet
  facet normal 0 -1 0
    outer loop
      vertex 17.2675 -24.7861 8.71382
      vertex 17.2823 -24.7861 8.70183
      vertex 17.3492 -24.7861 8.7992
    endloop
  endfacet
  facet normal -0.630563 0 -0.776138
    outer loop
      vertex 17.2823 -24.7861 8.70183
      vertex 17.2675 -24.7861 8.71382
      vertex 17.2823 -24.7467 8.70183
    endloop
  endfacet
  facet normal -0.630563 0 -0.776138
    outer loop
      vertex 17.2675 -24.7861 8.71382
      vertex 17.2675 -24.7467 8.71382
      vertex 17.2823 -24.7467 8.70183
    endloop
  endfacet
  facet normal 0 1 0
    outer loop
      vertex 17.2988 -24.7467 8.69237
      vertex 17.2823 -24.7467 8.70183
      vertex 17.3492 -24.7467 8.7992
    endloop
  endfacet
  facet normal 0 1 0
    outer loop
      vertex 17.2823 -24.7467 8.70183
      vertex 17.2675 -24.7467 8.71382
      vertex 17.3492 -24.7467 8.7992
    endloop
  endfacet
  facet normal 0 1 0
    outer loop
      vertex 17.3492 -24.7467 8.7992
      vertex 17.2675 -24.7467 8.71382
      vertex 17.2549 -24.7467 8.72801
    endloop
  endfacet
  facet normal 0 1 0
    outer loop
      vertex 17.3166 -24.7467 8.68567
      vertex 17.2988 -24.7467 8.69237
      vertex 17.3492 -24.7467 8.7992
    endloop
  endfacet
  facet normal -0.352347 0 -0.935869
    outer loop
      vertex 17.2988 -24.7467 8.69237
      vertex 17.3166 -24.7467 8.68567
      vertex 17.2988 -24.7861 8.69237
    endloop
  endfacet
  facet normal -0.352347 0 -0.935869
    outer loop
      vertex 17.3166 -24.7467 8.68567
      vertex 17.3166 -24.7861 8.68567
      vertex 17.2988 -24.7861 8.69237
    endloop
  endfacet
  facet normal 0 1 0
    outer loop
      vertex 17.3352 -24.7467 8.68191
      vertex 17.3166 -24.7467 8.68567
      vertex 17.3492 -24.7467 8.7992
    endloop
  endfacet
  facet normal -0.197614 0 -0.98028
    outer loop
      vertex 17.3166 -24.7467 8.68567
      vertex 17.3352 -24.7467 8.68191
      vertex 17.3166 -24.7861 8.68567
    endloop
  endfacet
  facet normal -0.197614 0 -0.98028
    outer loop
      vertex 17.3352 -24.7467 8.68191
      vertex 17.3352 -24.7861 8.68191
      vertex 17.3166 -24.7861 8.68567
    endloop
  endfacet
  facet normal 0.986664 0 0.16277
    outer loop
      vertex 17.4638 -24.7861 8.82774
      vertex 17.4669 -24.7861 8.80899
      vertex 17.4638 -24.7467 8.82774
    endloop
  endfacet
  facet normal 0.986664 0 0.16277
    outer loop
      vertex 17.4669 -24.7861 8.80899
      vertex 17.4669 -24.7467 8.80899
      vertex 17.4638 -24.7467 8.82774
    endloop
  endfacet
  facet normal 0 -1 0
    outer loop
      vertex 17.4669 -24.7861 8.80899
      vertex 17.4638 -24.7861 8.82774
      vertex 17.3492 -24.7861 8.7992
    endloop
  endfacet
  facet normal 0 -1 0
    outer loop
      vertex 17.4638 -24.7861 8.82774
      vertex 17.4577 -24.7861 8.84575
      vertex 17.3492 -24.7861 8.7992
    endloop
  endfacet
  facet normal 0 -1 0
    outer loop
      vertex 17.3492 -24.7861 8.7992
      vertex 17.4577 -24.7861 8.84575
      vertex 17.4488 -24.7861 8.86256
    endloop
  endfacet
  facet normal 0 -1 0
    outer loop
      vertex 17.4669 -24.7861 8.78998
      vertex 17.4669 -24.7861 8.80899
      vertex 17.3492 -24.7861 8.7992
    endloop
  endfacet
  facet normal 0.999997 0 0.00244989
    outer loop
      vertex 17.4669 -24.7861 8.80899
      vertex 17.4669 -24.7861 8.78998
      vertex 17.4669 -24.7467 8.80899
    endloop
  endfacet
  facet normal 0.999997 0 0.00244989
    outer loop
      vertex 17.4669 -24.7861 8.78998
      vertex 17.4669 -24.7467 8.78998
      vertex 17.4669 -24.7467 8.80899
    endloop
  endfacet
  facet normal 0 1 0
    outer loop
      vertex 17.4669 -24.7467 8.80899
      vertex 17.4669 -24.7467 8.78998
      vertex 17.3492 -24.7467 8.7992
    endloop
  endfacet
  facet normal 0 1 0
    outer loop
      vertex 17.4669 -24.7467 8.78998
      vertex 17.4639 -24.7467 8.77121
      vertex 17.3492 -24.7467 8.7992
    endloop
  endfacet
  facet normal 0 1 0
    outer loop
      vertex 17.3492 -24.7467 8.7992
      vertex 17.4639 -24.7467 8.77121
      vertex 17.4579 -24.7467 8.75316
    endloop
  endfacet
  facet normal 0 1 0
    outer loop
      vertex 17.4638 -24.7467 8.82774
      vertex 17.4669 -24.7467 8.80899
      vertex 17.3492 -24.7467 8.7992
    endloop
  endfacet
  facet normal 0 1 0
    outer loop
      vertex 17.4577 -24.7467 8.84575
      vertex 17.4638 -24.7467 8.82774
      vertex 17.3492 -24.7467 8.7992
    endloop
  endfacet
  facet normal 0.947768 0 0.31896
    outer loop
      vertex 17.4638 -24.7467 8.82774
      vertex 17.4577 -24.7467 8.84575
      vertex 17.4638 -24.7861 8.82774
    endloop
  endfacet
  facet normal 0.947768 0 0.31896
    outer loop
      vertex 17.4577 -24.7467 8.84575
      vertex 17.4577 -24.7861 8.84575
      vertex 17.4638 -24.7861 8.82774
    endloop
  endfacet
  facet normal 0 -1 0
    outer loop
      vertex 17.4639 -24.7861 8.77121
      vertex 17.4669 -24.7861 8.78998
      vertex 17.3492 -24.7861 8.7992
    endloop
  endfacet
  facet normal 0.987444 0 -0.157968
    outer loop
      vertex 17.4669 -24.7861 8.78998
      vertex 17.4639 -24.7861 8.77121
      vertex 17.4669 -24.7467 8.78998
    endloop
  endfacet
  facet normal 0.987444 0 -0.157968
    outer loop
      vertex 17.4639 -24.7861 8.77121
      vertex 17.4639 -24.7467 8.77121
      vertex 17.4669 -24.7467 8.78998
    endloop
  endfacet
  facet normal 0 1 0
    outer loop
      vertex 17.2444 -24.7467 8.85383
      vertex 17.2546 -24.7467 8.86992
      vertex 17.3492 -24.7467 8.7992
    endloop
  endfacet
  facet normal -0.846442 0 0.532481
    outer loop
      vertex 17.2546 -24.7467 8.86992
      vertex 17.2444 -24.7467 8.85383
      vertex 17.2546 -24.7861 8.86992
    endloop
  endfacet
  facet normal -0.846442 0 0.532481
    outer loop
      vertex 17.2444 -24.7467 8.85383
      vertex 17.2444 -24.7861 8.85383
      vertex 17.2546 -24.7861 8.86992
    endloop
  endfacet
  facet normal 0 -1 0
    outer loop
      vertex 17.3346 -24.7861 8.91641
      vertex 17.316 -24.7861 8.91256
      vertex 17.3492 -24.7861 8.7992
    endloop
  endfacet
  facet normal -0.202416 0 0.9793
    outer loop
      vertex 17.316 -24.7861 8.91256
      vertex 17.3346 -24.7861 8.91641
      vertex 17.316 -24.7467 8.91256
    endloop
  endfacet
  facet normal -0.202416 0 0.9793
    outer loop
      vertex 17.3346 -24.7861 8.91641
      vertex 17.3346 -24.7467 8.91641
      vertex 17.316 -24.7467 8.91256
    endloop
  endfacet
  facet normal 0 1 0
    outer loop
      vertex 17.3542 -24.7467 8.68119
      vertex 17.3352 -24.7467 8.68191
      vertex 17.3492 -24.7467 8.7992
    endloop
  endfacet
  facet normal -0.0379213 0 -0.999281
    outer loop
      vertex 17.3352 -24.7467 8.68191
      vertex 17.3542 -24.7467 8.68119
      vertex 17.3352 -24.7861 8.68191
    endloop
  endfacet
  facet normal -0.0379213 0 -0.999281
    outer loop
      vertex 17.3542 -24.7467 8.68119
      vertex 17.3542 -24.7861 8.68119
      vertex 17.3352 -24.7861 8.68191
    endloop
  endfacet
  facet normal -0.746901 0 -0.664935
    outer loop
      vertex 17.2549 -24.7467 8.72801
      vertex 17.2675 -24.7467 8.71382
      vertex 17.2549 -24.7861 8.72801
    endloop
  endfacet
  facet normal -0.746901 0 -0.664935
    outer loop
      vertex 17.2675 -24.7467 8.71382
      vertex 17.2675 -24.7861 8.71382
      vertex 17.2549 -24.7861 8.72801
    endloop
  endfacet
  facet normal 0 1 0
    outer loop
      vertex 17.4488 -24.7467 8.86256
      vertex 17.4577 -24.7467 8.84575
      vertex 17.3492 -24.7467 8.7992
    endloop
  endfacet
  facet normal 0.884301 0 0.466917
    outer loop
      vertex 17.4577 -24.7467 8.84575
      vertex 17.4488 -24.7467 8.86256
      vertex 17.4577 -24.7861 8.84575
    endloop
  endfacet
  facet normal 0.884301 0 0.466917
    outer loop
      vertex 17.4488 -24.7467 8.86256
      vertex 17.4488 -24.7861 8.86256
      vertex 17.4577 -24.7861 8.84575
    endloop
  endfacet
  facet normal 0.949304 0 -0.31436
    outer loop
      vertex 17.4579 -24.7467 8.75316
      vertex 17.4639 -24.7467 8.77121
      vertex 17.4579 -24.7861 8.75316
    endloop
  endfacet
  facet normal 0.949304 0 -0.31436
    outer loop
      vertex 17.4639 -24.7467 8.77121
      vertex 17.4639 -24.7861 8.77121
      vertex 17.4579 -24.7861 8.75316
    endloop
  endfacet
  facet normal 0 1 0
    outer loop
      vertex 17.237 -24.7467 8.83633
      vertex 17.2444 -24.7467 8.85383
      vertex 17.3492 -24.7467 8.7992
    endloop
  endfacet
  facet normal -0.920935 0 0.389717
    outer loop
      vertex 17.2444 -24.7467 8.85383
      vertex 17.237 -24.7467 8.83633
      vertex 17.2444 -24.7861 8.85383
    endloop
  endfacet
  facet normal -0.920935 0 0.389717
    outer loop
      vertex 17.237 -24.7467 8.83633
      vertex 17.237 -24.7861 8.83633
      vertex 17.2444 -24.7861 8.85383
    endloop
  endfacet
  facet normal -0.0426739 0 0.999089
    outer loop
      vertex 17.3536 -24.7467 8.91722
      vertex 17.3346 -24.7467 8.91641
      vertex 17.3536 -24.7861 8.91722
    endloop
  endfacet
  facet normal -0.0426739 0 0.999089
    outer loop
      vertex 17.3346 -24.7467 8.91641
      vertex 17.3346 -24.7861 8.91641
      vertex 17.3536 -24.7861 8.91722
    endloop
  endfacet
  facet normal 0 1 0
    outer loop
      vertex 17.3346 -24.7467 8.91641
      vertex 17.3536 -24.7467 8.91722
      vertex 17.3492 -24.7467 8.7992
    endloop
  endfacet
  facet normal 0 1 0
    outer loop
      vertex 17.3536 -24.7467 8.91722
      vertex 17.3725 -24.7467 8.91498
      vertex 17.3492 -24.7467 8.7992
    endloop
  endfacet
  facet normal 0 1 0
    outer loop
      vertex 17.3492 -24.7467 8.7992
      vertex 17.3725 -24.7467 8.91498
      vertex 17.3908 -24.7467 8.90973
    endloop
  endfacet
  facet normal 0 1 0
    outer loop
      vertex 17.3731 -24.7467 8.68353
      vertex 17.3542 -24.7467 8.68119
      vertex 17.3492 -24.7467 8.7992
    endloop
  endfacet
  facet normal 0.122973 0 -0.99241
    outer loop
      vertex 17.3542 -24.7467 8.68119
      vertex 17.3731 -24.7467 8.68353
      vertex 17.3542 -24.7861 8.68119
    endloop
  endfacet
  facet normal 0.122973 0 -0.99241
    outer loop
      vertex 17.3731 -24.7467 8.68353
      vertex 17.3731 -24.7861 8.68353
      vertex 17.3542 -24.7861 8.68119
    endloop
  endfacet
  facet normal -0.843916 0 -0.536476
    outer loop
      vertex 17.2447 -24.7467 8.74405
      vertex 17.2549 -24.7467 8.72801
      vertex 17.2447 -24.7861 8.74405
    endloop
  endfacet
  facet normal -0.843916 0 -0.536476
    outer loop
      vertex 17.2549 -24.7467 8.72801
      vertex 17.2549 -24.7861 8.72801
      vertex 17.2447 -24.7861 8.74405
    endloop
  endfacet
  facet normal 0 1 0
    outer loop
      vertex 17.2549 -24.7467 8.72801
      vertex 17.2447 -24.7467 8.74405
      vertex 17.3492 -24.7467 8.7992
    endloop
  endfacet
  facet normal 0 1 0
    outer loop
      vertex 17.2447 -24.7467 8.74405
      vertex 17.2372 -24.7467 8.76152
      vertex 17.3492 -24.7467 8.7992
    endloop
  endfacet
  facet normal 0 1 0
    outer loop
      vertex 17.3492 -24.7467 8.7992
      vertex 17.2372 -24.7467 8.76152
      vertex 17.2326 -24.7467 8.77997
    endloop
  endfacet
  facet normal 0 1 0
    outer loop
      vertex 17.4374 -24.7467 8.87773
      vertex 17.4488 -24.7467 8.86256
      vertex 17.3492 -24.7467 8.7992
    endloop
  endfacet
  facet normal 0.797985 0 0.602678
    outer loop
      vertex 17.4488 -24.7467 8.86256
      vertex 17.4374 -24.7467 8.87773
      vertex 17.4488 -24.7861 8.86256
    endloop
  endfacet
  facet normal 0.797985 0 0.602678
    outer loop
      vertex 17.4374 -24.7467 8.87773
      vertex 17.4374 -24.7861 8.87773
      vertex 17.4488 -24.7861 8.86256
    endloop
  endfacet
  facet normal 0.886552 0 -0.46263
    outer loop
      vertex 17.4491 -24.7467 8.73631
      vertex 17.4579 -24.7467 8.75316
      vertex 17.4491 -24.7861 8.73631
    endloop
  endfacet
  facet normal 0.886552 0 -0.46263
    outer loop
      vertex 17.4579 -24.7467 8.75316
      vertex 17.4579 -24.7861 8.75316
      vertex 17.4491 -24.7861 8.73631
    endloop
  endfacet
  facet normal 0 1 0
    outer loop
      vertex 17.4579 -24.7467 8.75316
      vertex 17.4491 -24.7467 8.73631
      vertex 17.3492 -24.7467 8.7992
    endloop
  endfacet
  facet normal 0 1 0
    outer loop
      vertex 17.4491 -24.7467 8.73631
      vertex 17.4378 -24.7467 8.72109
      vertex 17.3492 -24.7467 8.7992
    endloop
  endfacet
  facet normal 0 1 0
    outer loop
      vertex 17.3492 -24.7467 8.7992
      vertex 17.4378 -24.7467 8.72109
      vertex 17.4241 -24.7467 8.70789
    endloop
  endfacet
  facet normal 0 1 0
    outer loop
      vertex 17.2326 -24.7467 8.77997
      vertex 17.231 -24.7467 8.79891
      vertex 17.3492 -24.7467 8.7992
    endloop
  endfacet
  facet normal 0 1 0
    outer loop
      vertex 17.231 -24.7467 8.79891
      vertex 17.2325 -24.7467 8.81786
      vertex 17.3492 -24.7467 8.7992
    endloop
  endfacet
  facet normal 0 1 0
    outer loop
      vertex 17.3492 -24.7467 8.7992
      vertex 17.2325 -24.7467 8.81786
      vertex 17.237 -24.7467 8.83633
    endloop
  endfacet
  facet normal -0.996558 0 -0.0828995
    outer loop
      vertex 17.231 -24.7467 8.79891
      vertex 17.2326 -24.7467 8.77997
      vertex 17.231 -24.7861 8.79891
    endloop
  endfacet
  facet normal -0.996558 0 -0.0828995
    outer loop
      vertex 17.2326 -24.7467 8.77997
      vertex 17.2326 -24.7861 8.77997
      vertex 17.231 -24.7861 8.79891
    endloop
  endfacet
  facet normal -0.996953 0 0.0780041
    outer loop
      vertex 17.2325 -24.7467 8.81786
      vertex 17.231 -24.7467 8.79891
      vertex 17.2325 -24.7861 8.81786
    endloop
  endfacet
  facet normal -0.996953 0 0.0780041
    outer loop
      vertex 17.231 -24.7467 8.79891
      vertex 17.231 -24.7861 8.79891
      vertex 17.2325 -24.7861 8.81786
    endloop
  endfacet
  facet normal -0.971521 0 0.236952
    outer loop
      vertex 17.237 -24.7467 8.83633
      vertex 17.2325 -24.7467 8.81786
      vertex 17.237 -24.7861 8.83633
    endloop
  endfacet
  facet normal -0.971521 0 0.236952
    outer loop
      vertex 17.2325 -24.7467 8.81786
      vertex 17.2325 -24.7861 8.81786
      vertex 17.237 -24.7861 8.83633
    endloop
  endfacet
  facet normal -0.970384 0 -0.241567
    outer loop
      vertex 17.2326 -24.7467 8.77997
      vertex 17.2372 -24.7467 8.76152
      vertex 17.2326 -24.7861 8.77997
    endloop
  endfacet
  facet normal -0.970384 0 -0.241567
    outer loop
      vertex 17.2372 -24.7467 8.76152
      vertex 17.2372 -24.7861 8.76152
      vertex 17.2326 -24.7861 8.77997
    endloop
  endfacet
  facet normal -0.918988 0 -0.394286
    outer loop
      vertex 17.2372 -24.7467 8.76152
      vertex 17.2447 -24.7467 8.74405
      vertex 17.2372 -24.7861 8.76152
    endloop
  endfacet
  facet normal -0.918988 0 -0.394286
    outer loop
      vertex 17.2447 -24.7467 8.74405
      vertex 17.2447 -24.7861 8.74405
      vertex 17.2372 -24.7861 8.76152
    endloop
  endfacet
  facet normal 0.118123 0 0.992999
    outer loop
      vertex 17.3725 -24.7467 8.91498
      vertex 17.3536 -24.7467 8.91722
      vertex 17.3725 -24.7861 8.91498
    endloop
  endfacet
  facet normal 0.118123 0 0.992999
    outer loop
      vertex 17.3536 -24.7467 8.91722
      vertex 17.3536 -24.7861 8.91722
      vertex 17.3725 -24.7861 8.91498
    endloop
  endfacet
  facet normal 0.275873 0 0.961194
    outer loop
      vertex 17.3908 -24.7467 8.90973
      vertex 17.3725 -24.7467 8.91498
      vertex 17.3908 -24.7861 8.90973
    endloop
  endfacet
  facet normal 0.275873 0 0.961194
    outer loop
      vertex 17.3725 -24.7467 8.91498
      vertex 17.3725 -24.7861 8.91498
      vertex 17.3908 -24.7861 8.90973
    endloop
  endfacet
  facet normal 0 1 0
    outer loop
      vertex 17.3913 -24.7467 8.68886
      vertex 17.3731 -24.7467 8.68353
      vertex 17.3492 -24.7467 8.7992
    endloop
  endfacet
  facet normal 0.280534 0 -0.959844
    outer loop
      vertex 17.3731 -24.7467 8.68353
      vertex 17.3913 -24.7467 8.68886
      vertex 17.3731 -24.7861 8.68353
    endloop
  endfacet
  facet normal 0.280534 0 -0.959844
    outer loop
      vertex 17.3913 -24.7467 8.68886
      vertex 17.3913 -24.7861 8.68886
      vertex 17.3731 -24.7861 8.68353
    endloop
  endfacet
  facet normal 0.426517 0 0.90448
    outer loop
      vertex 17.408 -24.7467 8.90163
      vertex 17.3908 -24.7467 8.90973
      vertex 17.408 -24.7861 8.90163
    endloop
  endfacet
  facet normal 0.426517 0 0.90448
    outer loop
      vertex 17.3908 -24.7467 8.90973
      vertex 17.3908 -24.7861 8.90973
      vertex 17.408 -24.7861 8.90163
    endloop
  endfacet
  facet normal 0 1 0
    outer loop
      vertex 17.3908 -24.7467 8.90973
      vertex 17.408 -24.7467 8.90163
      vertex 17.3492 -24.7467 8.7992
    endloop
  endfacet
  facet normal 0 1 0
    outer loop
      vertex 17.408 -24.7467 8.90163
      vertex 17.4236 -24.7467 8.89087
      vertex 17.3492 -24.7467 8.7992
    endloop
  endfacet
  facet normal 0 1 0
    outer loop
      vertex 17.3492 -24.7467 8.7992
      vertex 17.4236 -24.7467 8.89087
      vertex 17.4374 -24.7467 8.87773
    endloop
  endfacet
  facet normal 0 1 0
    outer loop
      vertex 17.4085 -24.7467 8.69705
      vertex 17.3913 -24.7467 8.68886
      vertex 17.3492 -24.7467 8.7992
    endloop
  endfacet
  facet normal 0.430913 0 -0.902394
    outer loop
      vertex 17.3913 -24.7467 8.68886
      vertex 17.4085 -24.7467 8.69705
      vertex 17.3913 -24.7861 8.68886
    endloop
  endfacet
  facet normal 0.430913 0 -0.902394
    outer loop
      vertex 17.4085 -24.7467 8.69705
      vertex 17.4085 -24.7861 8.69705
      vertex 17.3913 -24.7861 8.68886
    endloop
  endfacet
  facet normal 0.56608 0 0.824351
    outer loop
      vertex 17.4236 -24.7467 8.89087
      vertex 17.408 -24.7467 8.90163
      vertex 17.4236 -24.7861 8.89087
    endloop
  endfacet
  facet normal 0.56608 0 0.824351
    outer loop
      vertex 17.408 -24.7467 8.90163
      vertex 17.408 -24.7861 8.90163
      vertex 17.4236 -24.7861 8.89087
    endloop
  endfacet
  facet normal 0 1 0
    outer loop
      vertex 17.4241 -24.7467 8.70789
      vertex 17.4085 -24.7467 8.69705
      vertex 17.3492 -24.7467 8.7992
    endloop
  endfacet
  facet normal 0.570005 0 -0.821641
    outer loop
      vertex 17.4085 -24.7467 8.69705
      vertex 17.4241 -24.7467 8.70789
      vertex 17.4085 -24.7861 8.69705
    endloop
  endfacet
  facet normal 0.570005 0 -0.821641
    outer loop
      vertex 17.4241 -24.7467 8.70789
      vertex 17.4241 -24.7861 8.70789
      vertex 17.4085 -24.7861 8.69705
    endloop
  endfacet
  facet normal 0.690979 0 0.722875
    outer loop
      vertex 17.4374 -24.7467 8.87773
      vertex 17.4236 -24.7467 8.89087
      vertex 17.4374 -24.7861 8.87773
    endloop
  endfacet
  facet normal 0.690979 0 0.722875
    outer loop
      vertex 17.4236 -24.7467 8.89087
      vertex 17.4236 -24.7861 8.89087
      vertex 17.4374 -24.7861 8.87773
    endloop
  endfacet
  facet normal 0.694502 0 -0.719491
    outer loop
      vertex 17.4241 -24.7467 8.70789
      vertex 17.4378 -24.7467 8.72109
      vertex 17.4241 -24.7861 8.70789
    endloop
  endfacet
  facet normal 0.694502 0 -0.719491
    outer loop
      vertex 17.4378 -24.7467 8.72109
      vertex 17.4378 -24.7861 8.72109
      vertex 17.4241 -24.7861 8.70789
    endloop
  endfacet
  facet normal 0.800899 0 -0.5988
    outer loop
      vertex 17.4378 -24.7467 8.72109
      vertex 17.4491 -24.7467 8.73631
      vertex 17.4378 -24.7861 8.72109
    endloop
  endfacet
  facet normal 0.800899 0 -0.5988
    outer loop
      vertex 17.4491 -24.7467 8.73631
      vertex 17.4491 -24.7861 8.73631
      vertex 17.4378 -24.7861 8.72109
    endloop
  endfacet
  facet normal 0 -1 0
    outer loop
      vertex 17.2549 -24.7861 8.72801
      vertex 17.2675 -24.7861 8.71382
      vertex 17.3492 -24.7861 8.7992
    endloop
  endfacet
  facet normal 0 -1 0
    outer loop
      vertex 17.3352 -24.7861 8.68191
      vertex 17.3542 -24.7861 8.68119
      vertex 17.3492 -24.7861 8.7992
    endloop
  endfacet
  facet normal 0 -1 0
    outer loop
      vertex 17.3542 -24.7861 8.68119
      vertex 17.3731 -24.7861 8.68353
      vertex 17.3492 -24.7861 8.7992
    endloop
  endfacet
  facet normal 0 -1 0
    outer loop
      vertex 17.3492 -24.7861 8.7992
      vertex 17.3731 -24.7861 8.68353
      vertex 17.3913 -24.7861 8.68886
    endloop
  endfacet
  facet normal 0 -1 0
    outer loop
      vertex 17.4579 -24.7861 8.75316
      vertex 17.4639 -24.7861 8.77121
      vertex 17.3492 -24.7861 8.7992
    endloop
  endfacet
  facet normal 0 -1 0
    outer loop
      vertex 17.3536 -24.7861 8.91722
      vertex 17.3346 -24.7861 8.91641
      vertex 17.3492 -24.7861 8.7992
    endloop
  endfacet
  facet normal 0 -1 0
    outer loop
      vertex 17.2444 -24.7861 8.85383
      vertex 17.237 -24.7861 8.83633
      vertex 17.3492 -24.7861 8.7992
    endloop
  endfacet
  facet normal 0 -1 0
    outer loop
      vertex 17.237 -24.7861 8.83633
      vertex 17.2325 -24.7861 8.81786
      vertex 17.3492 -24.7861 8.7992
    endloop
  endfacet
  facet normal 0 -1 0
    outer loop
      vertex 17.3492 -24.7861 8.7992
      vertex 17.2325 -24.7861 8.81786
      vertex 17.231 -24.7861 8.79891
    endloop
  endfacet
  facet normal 0 -1 0
    outer loop
      vertex 17.2447 -24.7861 8.74405
      vertex 17.2549 -24.7861 8.72801
      vertex 17.3492 -24.7861 8.7992
    endloop
  endfacet
  facet normal 0 -1 0
    outer loop
      vertex 17.4491 -24.7861 8.73631
      vertex 17.4579 -24.7861 8.75316
      vertex 17.3492 -24.7861 8.7992
    endloop
  endfacet
  facet normal 0 -1 0
    outer loop
      vertex 17.4488 -24.7861 8.86256
      vertex 17.4374 -24.7861 8.87773
      vertex 17.3492 -24.7861 8.7992
    endloop
  endfacet
  facet normal 0 -1 0
    outer loop
      vertex 17.4374 -24.7861 8.87773
      vertex 17.4236 -24.7861 8.89087
      vertex 17.3492 -24.7861 8.7992
    endloop
  endfacet
  facet normal 0 -1 0
    outer loop
      vertex 17.3492 -24.7861 8.7992
      vertex 17.4236 -24.7861 8.89087
      vertex 17.408 -24.7861 8.90163
    endloop
  endfacet
  facet normal 0 -1 0
    outer loop
      vertex 17.231 -24.7861 8.79891
      vertex 17.2326 -24.7861 8.77997
      vertex 17.3492 -24.7861 8.7992
    endloop
  endfacet
  facet normal 0 -1 0
    outer loop
      vertex 17.2326 -24.7861 8.77997
      vertex 17.2372 -24.7861 8.76152
      vertex 17.3492 -24.7861 8.7992
    endloop
  endfacet
  facet normal 0 -1 0
    outer loop
      vertex 17.3492 -24.7861 8.7992
      vertex 17.2372 -24.7861 8.76152
      vertex 17.2447 -24.7861 8.74405
    endloop
  endfacet
  facet normal 0 -1 0
    outer loop
      vertex 17.3725 -24.7861 8.91498
      vertex 17.3536 -24.7861 8.91722
      vertex 17.3492 -24.7861 8.7992
    endloop
  endfacet
  facet normal 0 -1 0
    outer loop
      vertex 17.3908 -24.7861 8.90973
      vertex 17.3725 -24.7861 8.91498
      vertex 17.3492 -24.7861 8.7992
    endloop
  endfacet
  facet normal 0 -1 0
    outer loop
      vertex 17.408 -24.7861 8.90163
      vertex 17.3908 -24.7861 8.90973
      vertex 17.3492 -24.7861 8.7992
    endloop
  endfacet
  facet normal 0 -1 0
    outer loop
      vertex 17.3913 -24.7861 8.68886
      vertex 17.4085 -24.7861 8.69705
      vertex 17.3492 -24.7861 8.7992
    endloop
  endfacet
  facet normal 0 -1 0
    outer loop
      vertex 17.4085 -24.7861 8.69705
      vertex 17.4241 -24.7861 8.70789
      vertex 17.3492 -24.7861 8.7992
    endloop
  endfacet
  facet normal 0 -1 0
    outer loop
      vertex 17.3492 -24.7861 8.7992
      vertex 17.4241 -24.7861 8.70789
      vertex 17.4378 -24.7861 8.72109
    endloop
  endfacet
  facet normal 0 -1 0
    outer loop
      vertex 17.4378 -24.7861 8.72109
      vertex 17.4491 -24.7861 8.73631
      vertex 17.3492 -24.7861 8.7992
    endloop
  endfacet
endsolid Onshape
