solid Onshape
  facet normal -0.996906 0 0.0786091
    outer loop
      vertex 17.6788 -26.2526 5.559
      vertex 17.6934 -26.2526 5.74473
      vertex 17.6788 -26.2076 5.559
    endloop
  endfacet
  facet normal -0.996906 0 0.0786091
    outer loop
      vertex 17.6934 -26.2526 5.74473
      vertex 17.6934 -26.2076 5.74473
      vertex 17.6788 -26.2076 5.559
    endloop
  endfacet
  facet normal 0 -1 0
    outer loop
      vertex 17.6934 -26.2526 5.74473
      vertex 17.6788 -26.2526 5.559
      vertex 17.7643 -26.2526 5.55043
    endloop
  endfacet
  facet normal 0 -1 0
    outer loop
      vertex 17.6788 -26.2526 5.559
      vertex 17.7965 -26.2526 5.37523
      vertex 17.7643 -26.2526 5.55043
    endloop
  endfacet
  facet normal 0 -1 0
    outer loop
      vertex 17.8374 -26.2526 6.57396
      vertex 17.6934 -26.2526 5.74473
      vertex 17.7768 -26.2526 5.72814
    endloop
  endfacet
  facet normal 0 -1 0
    outer loop
      vertex 17.6934 -26.2526 5.74473
      vertex 17.7643 -26.2526 5.55043
      vertex 17.7768 -26.2526 5.72814
    endloop
  endfacet
  facet normal -0.985254 0 0.171098
    outer loop
      vertex 17.6934 -26.2526 5.74473
      vertex 17.8374 -26.2526 6.57396
      vertex 17.8374 -26.2076 6.57396
    endloop
  endfacet
  facet normal -0.992467 0 0.122509
    outer loop
      vertex 17.8374 -26.2526 6.57396
      vertex 17.9405 -26.2076 7.40926
      vertex 17.8374 -26.2076 6.57396
    endloop
  endfacet
  facet normal -0.985254 0 0.171098
    outer loop
      vertex 17.8374 -26.2076 6.57396
      vertex 17.6934 -26.2076 5.74473
      vertex 17.6934 -26.2526 5.74473
    endloop
  endfacet
  facet normal 0 1 0
    outer loop
      vertex 17.6934 -26.2076 5.74473
      vertex 17.8374 -26.2076 6.57396
      vertex 17.9215 -26.2076 6.56148
    endloop
  endfacet
  facet normal 0 1 0
    outer loop
      vertex 17.8374 -26.2076 6.57396
      vertex 18.0251 -26.2076 7.40092
      vertex 17.9215 -26.2076 6.56148
    endloop
  endfacet
  facet normal 0 1 0
    outer loop
      vertex 17.6788 -26.2076 5.559
      vertex 17.6934 -26.2076 5.74473
      vertex 17.7768 -26.2076 5.72814
    endloop
  endfacet
  facet normal 0 1 0
    outer loop
      vertex 17.6934 -26.2076 5.74473
      vertex 17.9215 -26.2076 6.56148
      vertex 17.7768 -26.2076 5.72814
    endloop
  endfacet
  facet normal 0 1 0
    outer loop
      vertex 17.7079 -26.2076 5.37497
      vertex 17.6788 -26.2076 5.559
      vertex 17.7643 -26.2076 5.55043
    endloop
  endfacet
  facet normal 0 1 0
    outer loop
      vertex 17.6788 -26.2076 5.559
      vertex 17.7768 -26.2076 5.72814
      vertex 17.7643 -26.2076 5.55043
    endloop
  endfacet
  facet normal -0.987707 0 -0.156319
    outer loop
      vertex 17.6788 -26.2076 5.559
      vertex 17.7079 -26.2076 5.37497
      vertex 17.6788 -26.2526 5.559
    endloop
  endfacet
  facet normal -0.987707 0 -0.156319
    outer loop
      vertex 17.7079 -26.2076 5.37497
      vertex 17.7079 -26.2526 5.37497
      vertex 17.6788 -26.2526 5.559
    endloop
  endfacet
  facet normal 0 1 0
    outer loop
      vertex 17.8374 -26.2076 6.57396
      vertex 17.9405 -26.2076 7.40926
      vertex 18.0251 -26.2076 7.40092
    endloop
  endfacet
  facet normal 0 1 0
    outer loop
      vertex 17.9405 -26.2076 7.40926
      vertex 18.0874 -26.2076 8.24444
      vertex 18.0251 -26.2076 7.40092
    endloop
  endfacet
  facet normal 0.985254 0 -0.171099
    outer loop
      vertex 17.7768 -26.2076 5.72814
      vertex 17.9215 -26.2076 6.56148
      vertex 17.7768 -26.2526 5.72814
    endloop
  endfacet
  facet normal 0.985254 0 -0.171099
    outer loop
      vertex 17.9215 -26.2076 6.56148
      vertex 17.9215 -26.2526 6.56148
      vertex 17.7768 -26.2526 5.72814
    endloop
  endfacet
  facet normal 0.997532 0 -0.0702084
    outer loop
      vertex 17.7643 -26.2076 5.55043
      vertex 17.7768 -26.2076 5.72814
      vertex 17.7768 -26.2526 5.72814
    endloop
  endfacet
  facet normal 0.992467 0 -0.12251
    outer loop
      vertex 17.9215 -26.2076 6.56148
      vertex 18.0251 -26.2076 7.40092
      vertex 17.9215 -26.2526 6.56148
    endloop
  endfacet
  facet normal 0.992467 0 -0.12251
    outer loop
      vertex 18.0251 -26.2076 7.40092
      vertex 18.0251 -26.2526 7.40092
      vertex 17.9215 -26.2526 6.56148
    endloop
  endfacet
  facet normal 0.997532 0 -0.0702084
    outer loop
      vertex 17.7768 -26.2526 5.72814
      vertex 17.7643 -26.2526 5.55043
      vertex 17.7643 -26.2076 5.55043
    endloop
  endfacet
  facet normal 0.983447 0 0.181194
    outer loop
      vertex 17.7643 -26.2526 5.55043
      vertex 17.7965 -26.2076 5.37523
      vertex 17.7643 -26.2076 5.55043
    endloop
  endfacet
  facet normal 0 -1 0
    outer loop
      vertex 17.7768 -26.2526 5.72814
      vertex 17.9215 -26.2526 6.56148
      vertex 17.8374 -26.2526 6.57396
    endloop
  endfacet
  facet normal 0 -1 0
    outer loop
      vertex 17.9215 -26.2526 6.56148
      vertex 17.9405 -26.2526 7.40926
      vertex 17.8374 -26.2526 6.57396
    endloop
  endfacet
  facet normal 0.983447 0 0.181194
    outer loop
      vertex 17.7643 -26.2526 5.55043
      vertex 17.7965 -26.2526 5.37523
      vertex 17.7965 -26.2076 5.37523
    endloop
  endfacet
  facet normal 0.907007 0 0.421115
    outer loop
      vertex 17.7965 -26.2526 5.37523
      vertex 17.8716 -26.2076 5.21364
      vertex 17.7965 -26.2076 5.37523
    endloop
  endfacet
  facet normal -0.992467 0 0.122509
    outer loop
      vertex 17.8374 -26.2526 6.57396
      vertex 17.9405 -26.2526 7.40926
      vertex 17.9405 -26.2076 7.40926
    endloop
  endfacet
  facet normal -0.997286 0 0.073626
    outer loop
      vertex 17.9405 -26.2526 7.40926
      vertex 18.0025 -26.2076 8.24861
      vertex 17.9405 -26.2076 7.40926
    endloop
  endfacet
  facet normal 0 -1 0
    outer loop
      vertex 17.6788 -26.2526 5.559
      vertex 17.7079 -26.2526 5.37497
      vertex 17.7965 -26.2526 5.37523
    endloop
  endfacet
  facet normal 0 -1 0
    outer loop
      vertex 17.7079 -26.2526 5.37497
      vertex 17.8716 -26.2526 5.21364
      vertex 17.7965 -26.2526 5.37523
    endloop
  endfacet
  facet normal 0 1 0
    outer loop
      vertex 17.7643 -26.2076 5.55043
      vertex 17.7965 -26.2076 5.37523
      vertex 17.7079 -26.2076 5.37497
    endloop
  endfacet
  facet normal 0 1 0
    outer loop
      vertex 17.7965 -26.2076 5.37523
      vertex 17.7792 -26.2076 5.20283
      vertex 17.7079 -26.2076 5.37497
    endloop
  endfacet
  facet normal 0 -1 0
    outer loop
      vertex 17.9215 -26.2526 6.56148
      vertex 18.0251 -26.2526 7.40092
      vertex 17.9405 -26.2526 7.40926
    endloop
  endfacet
  facet normal 0 -1 0
    outer loop
      vertex 18.0251 -26.2526 7.40092
      vertex 18.0025 -26.2526 8.24861
      vertex 17.9405 -26.2526 7.40926
    endloop
  endfacet
  facet normal -0.999698 0 0.0245589
    outer loop
      vertex 18.0025 -26.2526 8.24861
      vertex 18.0231 -26.2526 9.09
      vertex 18.0231 -26.2076 9.09
    endloop
  endfacet
  facet normal -0.98769 0 0.156426
    outer loop
      vertex 18.0231 -26.2526 9.09
      vertex 18.045 -26.2526 9.22828
      vertex 18.0231 -26.2076 9.09
    endloop
  endfacet
  facet normal -0.98769 0 0.156426
    outer loop
      vertex 18.0231 -26.2076 9.09
      vertex 18.045 -26.2526 9.22828
      vertex 18.045 -26.2076 9.22828
    endloop
  endfacet
  facet normal -0.891002 0 0.453999
    outer loop
      vertex 18.045 -26.2526 9.22828
      vertex 18.1086 -26.2526 9.35303
      vertex 18.045 -26.2076 9.22828
    endloop
  endfacet
  facet normal -0.891002 0 0.453999
    outer loop
      vertex 18.045 -26.2076 9.22828
      vertex 18.1086 -26.2526 9.35303
      vertex 18.1086 -26.2076 9.35303
    endloop
  endfacet
  facet normal -0.707103 0 0.70711
    outer loop
      vertex 18.1086 -26.2526 9.35303
      vertex 18.2076 -26.2526 9.45203
      vertex 18.1086 -26.2076 9.35303
    endloop
  endfacet
  facet normal -0.707103 0 0.70711
    outer loop
      vertex 18.1086 -26.2076 9.35303
      vertex 18.2076 -26.2526 9.45203
      vertex 18.2076 -26.2076 9.45203
    endloop
  endfacet
  facet normal -0.453996 0 0.891004
    outer loop
      vertex 18.2076 -26.2526 9.45203
      vertex 18.3324 -26.2526 9.5156
      vertex 18.2076 -26.2076 9.45203
    endloop
  endfacet
  facet normal -0.453996 0 0.891004
    outer loop
      vertex 18.2076 -26.2076 9.45203
      vertex 18.3324 -26.2526 9.5156
      vertex 18.3324 -26.2076 9.5156
    endloop
  endfacet
  facet normal -0.156431 0 0.987689
    outer loop
      vertex 18.3324 -26.2526 9.5156
      vertex 18.4706 -26.2526 9.5375
      vertex 18.3324 -26.2076 9.5156
    endloop
  endfacet
  facet normal -0.156431 0 0.987689
    outer loop
      vertex 18.3324 -26.2076 9.5156
      vertex 18.4706 -26.2526 9.5375
      vertex 18.4706 -26.2076 9.5375
    endloop
  endfacet
  facet normal 0.156433 0 0.987689
    outer loop
      vertex 18.4706 -26.2526 9.5375
      vertex 18.6089 -26.2526 9.5156
      vertex 18.4706 -26.2076 9.5375
    endloop
  endfacet
  facet normal 0.156433 0 0.987689
    outer loop
      vertex 18.4706 -26.2076 9.5375
      vertex 18.6089 -26.2526 9.5156
      vertex 18.6089 -26.2076 9.5156
    endloop
  endfacet
  facet normal 0.453991 0 0.891006
    outer loop
      vertex 18.6089 -26.2526 9.5156
      vertex 18.7337 -26.2526 9.45203
      vertex 18.6089 -26.2076 9.5156
    endloop
  endfacet
  facet normal 0.453991 0 0.891006
    outer loop
      vertex 18.6089 -26.2076 9.5156
      vertex 18.7337 -26.2526 9.45203
      vertex 18.7337 -26.2076 9.45203
    endloop
  endfacet
  facet normal 0.707103 0 0.70711
    outer loop
      vertex 18.7337 -26.2526 9.45203
      vertex 18.8327 -26.2526 9.35303
      vertex 18.7337 -26.2076 9.45203
    endloop
  endfacet
  facet normal 0.707103 0 0.70711
    outer loop
      vertex 18.7337 -26.2076 9.45203
      vertex 18.8327 -26.2526 9.35303
      vertex 18.8327 -26.2076 9.35303
    endloop
  endfacet
  facet normal 0.891008 0 0.453988
    outer loop
      vertex 18.8327 -26.2526 9.35303
      vertex 18.8962 -26.2526 9.22828
      vertex 18.8327 -26.2076 9.35303
    endloop
  endfacet
  facet normal 0.891008 0 0.453988
    outer loop
      vertex 18.8327 -26.2076 9.35303
      vertex 18.8962 -26.2526 9.22828
      vertex 18.8962 -26.2076 9.22828
    endloop
  endfacet
  facet normal 0.98769 0 0.156426
    outer loop
      vertex 18.8962 -26.2526 9.22828
      vertex 18.9181 -26.2526 9.09
      vertex 18.8962 -26.2076 9.22828
    endloop
  endfacet
  facet normal 0.98769 0 0.156426
    outer loop
      vertex 18.8962 -26.2076 9.22828
      vertex 18.9181 -26.2526 9.09
      vertex 18.9181 -26.2076 9.09
    endloop
  endfacet
  facet normal 0.999698 0 0.0245611
    outer loop
      vertex 18.9181 -26.2526 9.09
      vertex 18.9388 -26.2076 8.24861
      vertex 18.9181 -26.2076 9.09
    endloop
  endfacet
  facet normal 0 -1 0
    outer loop
      vertex 18.0231 -26.2526 9.09
      vertex 18.0025 -26.2526 8.24861
      vertex 18.0874 -26.2526 8.24444
    endloop
  endfacet
  facet normal 0 -1 0
    outer loop
      vertex 18.0025 -26.2526 8.24861
      vertex 18.0251 -26.2526 7.40092
      vertex 18.0874 -26.2526 8.24444
    endloop
  endfacet
  facet normal 0 -1 0
    outer loop
      vertex 18.045 -26.2526 9.22828
      vertex 18.0231 -26.2526 9.09
      vertex 18.1081 -26.2526 9.09
    endloop
  endfacet
  facet normal 0 -1 0
    outer loop
      vertex 18.0231 -26.2526 9.09
      vertex 18.0874 -26.2526 8.24444
      vertex 18.1081 -26.2526 9.09
    endloop
  endfacet
  facet normal 0 1 0
    outer loop
      vertex 18.0231 -26.2076 9.09
      vertex 18.045 -26.2076 9.22828
      vertex 18.13 -26.2076 9.21398
    endloop
  endfacet
  facet normal 0 1 0
    outer loop
      vertex 18.045 -26.2076 9.22828
      vertex 18.193 -26.2076 9.32301
      vertex 18.13 -26.2076 9.21398
    endloop
  endfacet
  facet normal 0 1 0
    outer loop
      vertex 18.0025 -26.2076 8.24861
      vertex 18.0231 -26.2076 9.09
      vertex 18.1081 -26.2076 9.09
    endloop
  endfacet
  facet normal 0 1 0
    outer loop
      vertex 18.0231 -26.2076 9.09
      vertex 18.13 -26.2076 9.21398
      vertex 18.1081 -26.2076 9.09
    endloop
  endfacet
  facet normal -0.999698 0 0.0245589
    outer loop
      vertex 18.0231 -26.2076 9.09
      vertex 18.0025 -26.2076 8.24861
      vertex 18.0025 -26.2526 8.24861
    endloop
  endfacet
  facet normal -0.997286 0 0.073626
    outer loop
      vertex 18.0025 -26.2076 8.24861
      vertex 17.9405 -26.2526 7.40926
      vertex 18.0025 -26.2526 8.24861
    endloop
  endfacet
  facet normal 0 -1 0
    outer loop
      vertex 18.1086 -26.2526 9.35303
      vertex 18.045 -26.2526 9.22828
      vertex 18.13 -26.2526 9.21398
    endloop
  endfacet
  facet normal 0 -1 0
    outer loop
      vertex 18.045 -26.2526 9.22828
      vertex 18.1081 -26.2526 9.09
      vertex 18.13 -26.2526 9.21398
    endloop
  endfacet
  facet normal 0.984807 0 -0.173652
    outer loop
      vertex 18.1081 -26.2076 9.09
      vertex 18.13 -26.2076 9.21398
      vertex 18.13 -26.2526 9.21398
    endloop
  endfacet
  facet normal 0.866029 0 -0.499993
    outer loop
      vertex 18.13 -26.2076 9.21398
      vertex 18.193 -26.2526 9.32301
      vertex 18.13 -26.2526 9.21398
    endloop
  endfacet
  facet normal 0.999698 0 -0.024561
    outer loop
      vertex 18.0874 -26.2076 8.24444
      vertex 18.1081 -26.2076 9.09
      vertex 18.0874 -26.2526 8.24444
    endloop
  endfacet
  facet normal 0.999698 0 -0.024561
    outer loop
      vertex 18.1081 -26.2076 9.09
      vertex 18.1081 -26.2526 9.09
      vertex 18.0874 -26.2526 8.24444
    endloop
  endfacet
  facet normal 0 1 0
    outer loop
      vertex 18.1081 -26.2076 9.09
      vertex 18.0874 -26.2076 8.24444
      vertex 18.0025 -26.2076 8.24861
    endloop
  endfacet
  facet normal 0 1 0
    outer loop
      vertex 18.0874 -26.2076 8.24444
      vertex 17.9405 -26.2076 7.40926
      vertex 18.0025 -26.2076 8.24861
    endloop
  endfacet
  facet normal 0.866029 0 -0.499993
    outer loop
      vertex 18.13 -26.2076 9.21398
      vertex 18.193 -26.2076 9.32301
      vertex 18.193 -26.2526 9.32301
    endloop
  endfacet
  facet normal 0 1 0
    outer loop
      vertex 18.045 -26.2076 9.22828
      vertex 18.1086 -26.2076 9.35303
      vertex 18.193 -26.2076 9.32301
    endloop
  endfacet
  facet normal 0 1 0
    outer loop
      vertex 18.1086 -26.2076 9.35303
      vertex 18.2894 -26.2076 9.40393
      vertex 18.193 -26.2076 9.32301
    endloop
  endfacet
  facet normal 0.984807 0 -0.173652
    outer loop
      vertex 18.13 -26.2526 9.21398
      vertex 18.1081 -26.2526 9.09
      vertex 18.1081 -26.2076 9.09
    endloop
  endfacet
  facet normal 0.997286 0 -0.0736237
    outer loop
      vertex 18.0874 -26.2526 8.24444
      vertex 18.0251 -26.2526 7.40092
      vertex 18.0874 -26.2076 8.24444
    endloop
  endfacet
  facet normal 0.997286 0 -0.0736237
    outer loop
      vertex 18.0251 -26.2526 7.40092
      vertex 18.0251 -26.2076 7.40092
      vertex 18.0874 -26.2076 8.24444
    endloop
  endfacet
  facet normal 0 -1 0
    outer loop
      vertex 18.13 -26.2526 9.21398
      vertex 18.193 -26.2526 9.32301
      vertex 18.1086 -26.2526 9.35303
    endloop
  endfacet
  facet normal 0 -1 0
    outer loop
      vertex 18.193 -26.2526 9.32301
      vertex 18.2076 -26.2526 9.45203
      vertex 18.1086 -26.2526 9.35303
    endloop
  endfacet
  facet normal 0.125903 0 0.992043
    outer loop
      vertex 18.2939 -26.2526 4.90493
      vertex 18.4706 -26.2526 4.8825
      vertex 18.4706 -26.2076 4.8825
    endloop
  endfacet
  facet normal -0.125903 0 0.992043
    outer loop
      vertex 18.4706 -26.2526 4.8825
      vertex 18.6474 -26.2076 4.90493
      vertex 18.4706 -26.2076 4.8825
    endloop
  endfacet
  facet normal 0 -1 0
    outer loop
      vertex 18.4706 -26.2526 4.8825
      vertex 18.2939 -26.2526 4.90493
      vertex 18.1963 -26.2526 4.84649
    endloop
  endfacet
  facet normal 0 -1 0
    outer loop
      vertex 18.2939 -26.2526 4.90493
      vertex 18.0303 -26.2526 4.93108
      vertex 18.1963 -26.2526 4.84649
    endloop
  endfacet
  facet normal 0 -1 0
    outer loop
      vertex 18.6474 -26.2526 4.90493
      vertex 18.4706 -26.2526 4.8825
      vertex 18.5638 -26.2526 4.80299
    endloop
  endfacet
  facet normal 0 -1 0
    outer loop
      vertex 18.4706 -26.2526 4.8825
      vertex 18.3775 -26.2526 4.80299
      vertex 18.5638 -26.2526 4.80299
    endloop
  endfacet
  facet normal -0.125903 0 0.992043
    outer loop
      vertex 18.4706 -26.2526 4.8825
      vertex 18.6474 -26.2526 4.90493
      vertex 18.6474 -26.2076 4.90493
    endloop
  endfacet
  facet normal -0.369718 0 0.929144
    outer loop
      vertex 18.6474 -26.2526 4.90493
      vertex 18.8129 -26.2076 4.97079
      vertex 18.6474 -26.2076 4.90493
    endloop
  endfacet
  facet normal 0 1 0
    outer loop
      vertex 18.4706 -26.2076 4.8825
      vertex 18.6474 -26.2076 4.90493
      vertex 18.745 -26.2076 4.84649
    endloop
  endfacet
  facet normal 0 1 0
    outer loop
      vertex 18.6474 -26.2076 4.90493
      vertex 18.911 -26.2076 4.93108
      vertex 18.745 -26.2076 4.84649
    endloop
  endfacet
  facet normal 0 1 0
    outer loop
      vertex 18.2939 -26.2076 4.90493
      vertex 18.4706 -26.2076 4.8825
      vertex 18.3775 -26.2076 4.80299
    endloop
  endfacet
  facet normal 0 1 0
    outer loop
      vertex 18.4706 -26.2076 4.8825
      vertex 18.5638 -26.2076 4.80299
      vertex 18.3775 -26.2076 4.80299
    endloop
  endfacet
  facet normal 0.125903 0 0.992043
    outer loop
      vertex 18.4706 -26.2076 4.8825
      vertex 18.2939 -26.2076 4.90493
      vertex 18.2939 -26.2526 4.90493
    endloop
  endfacet
  facet normal 0.369718 0 0.929144
    outer loop
      vertex 18.2939 -26.2076 4.90493
      vertex 18.1284 -26.2526 4.97079
      vertex 18.2939 -26.2526 4.90493
    endloop
  endfacet
  facet normal 0 -1 0
    outer loop
      vertex 18.2939 -26.2526 4.90493
      vertex 18.1284 -26.2526 4.97079
      vertex 18.0303 -26.2526 4.93108
    endloop
  endfacet
  facet normal 0 -1 0
    outer loop
      vertex 18.1284 -26.2526 4.97079
      vertex 17.8887 -26.2526 5.05209
      vertex 18.0303 -26.2526 4.93108
    endloop
  endfacet
  facet normal 0 1 0
    outer loop
      vertex 18.6474 -26.2076 4.90493
      vertex 18.8129 -26.2076 4.97079
      vertex 18.911 -26.2076 4.93108
    endloop
  endfacet
  facet normal 0 1 0
    outer loop
      vertex 18.8129 -26.2076 4.97079
      vertex 19.0526 -26.2076 5.05209
      vertex 18.911 -26.2076 4.93108
    endloop
  endfacet
  facet normal 0 1 0
    outer loop
      vertex 18.1284 -26.2076 4.97079
      vertex 18.2939 -26.2076 4.90493
      vertex 18.1963 -26.2076 4.84649
    endloop
  endfacet
  facet normal 0 1 0
    outer loop
      vertex 18.2939 -26.2076 4.90493
      vertex 18.3775 -26.2076 4.80299
      vertex 18.1963 -26.2076 4.84649
    endloop
  endfacet
  facet normal 0.369718 0 0.929144
    outer loop
      vertex 18.2939 -26.2076 4.90493
      vertex 18.1284 -26.2076 4.97079
      vertex 18.1284 -26.2526 4.97079
    endloop
  endfacet
  facet normal 0.590098 0 0.807332
    outer loop
      vertex 18.1284 -26.2076 4.97079
      vertex 17.9846 -26.2526 5.07592
      vertex 18.1284 -26.2526 4.97079
    endloop
  endfacet
  facet normal 0.454029 0 -0.890987
    outer loop
      vertex 18.745 -26.2076 4.84649
      vertex 18.911 -26.2076 4.93108
      vertex 18.745 -26.2526 4.84649
    endloop
  endfacet
  facet normal 0.454029 0 -0.890987
    outer loop
      vertex 18.911 -26.2076 4.93108
      vertex 18.911 -26.2526 4.93108
      vertex 18.745 -26.2526 4.84649
    endloop
  endfacet
  facet normal 0.233466 0 -0.972365
    outer loop
      vertex 18.5638 -26.2076 4.80299
      vertex 18.745 -26.2076 4.84649
      vertex 18.5638 -26.2526 4.80299
    endloop
  endfacet
  facet normal 0.233466 0 -0.972365
    outer loop
      vertex 18.745 -26.2076 4.84649
      vertex 18.745 -26.2526 4.84649
      vertex 18.5638 -26.2526 4.80299
    endloop
  endfacet
  facet normal 0 1 0
    outer loop
      vertex 18.745 -26.2076 4.84649
      vertex 18.5638 -26.2076 4.80299
      vertex 18.4706 -26.2076 4.8825
    endloop
  endfacet
  facet normal 0 0 -1
    outer loop
      vertex 18.3775 -26.2076 4.80299
      vertex 18.5638 -26.2076 4.80299
      vertex 18.3775 -26.2526 4.80299
    endloop
  endfacet
  facet normal 0 0 -1
    outer loop
      vertex 18.5638 -26.2076 4.80299
      vertex 18.5638 -26.2526 4.80299
      vertex 18.3775 -26.2526 4.80299
    endloop
  endfacet
  facet normal -0.233469 0 -0.972364
    outer loop
      vertex 18.1963 -26.2076 4.84649
      vertex 18.3775 -26.2076 4.80299
      vertex 18.1963 -26.2526 4.84649
    endloop
  endfacet
  facet normal -0.233469 0 -0.972364
    outer loop
      vertex 18.3775 -26.2076 4.80299
      vertex 18.3775 -26.2526 4.80299
      vertex 18.1963 -26.2526 4.84649
    endloop
  endfacet
  facet normal -0.454029 0 -0.890987
    outer loop
      vertex 18.1963 -26.2526 4.84649
      vertex 18.0303 -26.2526 4.93108
      vertex 18.1963 -26.2076 4.84649
    endloop
  endfacet
  facet normal -0.454029 0 -0.890987
    outer loop
      vertex 18.0303 -26.2526 4.93108
      vertex 18.0303 -26.2076 4.93108
      vertex 18.1963 -26.2076 4.84649
    endloop
  endfacet
  facet normal 0 -1 0
    outer loop
      vertex 18.1963 -26.2526 4.84649
      vertex 18.3775 -26.2526 4.80299
      vertex 18.4706 -26.2526 4.8825
    endloop
  endfacet
  facet normal 0 -1 0
    outer loop
      vertex 18.8129 -26.2526 4.97079
      vertex 18.6474 -26.2526 4.90493
      vertex 18.745 -26.2526 4.84649
    endloop
  endfacet
  facet normal 0 -1 0
    outer loop
      vertex 18.6474 -26.2526 4.90493
      vertex 18.5638 -26.2526 4.80299
      vertex 18.745 -26.2526 4.84649
    endloop
  endfacet
  facet normal -0.369718 0 0.929144
    outer loop
      vertex 18.6474 -26.2526 4.90493
      vertex 18.8129 -26.2526 4.97079
      vertex 18.8129 -26.2076 4.97079
    endloop
  endfacet
  facet normal -0.590098 0 0.807332
    outer loop
      vertex 18.8129 -26.2526 4.97079
      vertex 18.9567 -26.2076 5.07592
      vertex 18.8129 -26.2076 4.97079
    endloop
  endfacet
  facet normal -0.999698 0 -0.0245588
    outer loop
      vertex 18.8539 -26.2526 8.24444
      vertex 18.8331 -26.2526 9.09
      vertex 18.8539 -26.2076 8.24444
    endloop
  endfacet
  facet normal -0.999698 0 -0.0245588
    outer loop
      vertex 18.8331 -26.2526 9.09
      vertex 18.8331 -26.2076 9.09
      vertex 18.8539 -26.2076 8.24444
    endloop
  endfacet
  facet normal 0 -1 0
    outer loop
      vertex 18.8331 -26.2526 9.09
      vertex 18.8539 -26.2526 8.24444
      vertex 18.9388 -26.2526 8.24861
    endloop
  endfacet
  facet normal 0 -1 0
    outer loop
      vertex 18.8539 -26.2526 8.24444
      vertex 19.0008 -26.2526 7.40926
      vertex 18.9388 -26.2526 8.24861
    endloop
  endfacet
  facet normal 0 -1 0
    outer loop
      vertex 18.8113 -26.2526 9.21398
      vertex 18.8331 -26.2526 9.09
      vertex 18.9181 -26.2526 9.09
    endloop
  endfacet
  facet normal 0 -1 0
    outer loop
      vertex 18.8331 -26.2526 9.09
      vertex 18.9388 -26.2526 8.24861
      vertex 18.9181 -26.2526 9.09
    endloop
  endfacet
  facet normal -0.984807 0 -0.173652
    outer loop
      vertex 18.8331 -26.2526 9.09
      vertex 18.8113 -26.2526 9.21398
      vertex 18.8113 -26.2076 9.21398
    endloop
  endfacet
  facet normal -0.866023 0 -0.500004
    outer loop
      vertex 18.8113 -26.2076 9.21398
      vertex 18.8113 -26.2526 9.21398
      vertex 18.7483 -26.2076 9.32301
    endloop
  endfacet
  facet normal -0.866023 0 -0.500004
    outer loop
      vertex 18.8113 -26.2526 9.21398
      vertex 18.7483 -26.2526 9.32301
      vertex 18.7483 -26.2076 9.32301
    endloop
  endfacet
  facet normal -0.642787 0 -0.766045
    outer loop
      vertex 18.7483 -26.2076 9.32301
      vertex 18.7483 -26.2526 9.32301
      vertex 18.6519 -26.2076 9.40393
    endloop
  endfacet
  facet normal -0.642787 0 -0.766045
    outer loop
      vertex 18.7483 -26.2526 9.32301
      vertex 18.6519 -26.2526 9.40393
      vertex 18.6519 -26.2076 9.40393
    endloop
  endfacet
  facet normal -0.34202 0 -0.939693
    outer loop
      vertex 18.6519 -26.2076 9.40393
      vertex 18.6519 -26.2526 9.40393
      vertex 18.5336 -26.2076 9.44699
    endloop
  endfacet
  facet normal -0.34202 0 -0.939693
    outer loop
      vertex 18.6519 -26.2526 9.40393
      vertex 18.5336 -26.2526 9.44699
      vertex 18.5336 -26.2076 9.44699
    endloop
  endfacet
  facet normal 0 1 0
    outer loop
      vertex 18.8113 -26.2076 9.21398
      vertex 18.7483 -26.2076 9.32301
      vertex 18.8327 -26.2076 9.35303
    endloop
  endfacet
  facet normal 0 1 0
    outer loop
      vertex 18.7483 -26.2076 9.32301
      vertex 18.7337 -26.2076 9.45203
      vertex 18.8327 -26.2076 9.35303
    endloop
  endfacet
  facet normal 0 1 0
    outer loop
      vertex 18.8331 -26.2076 9.09
      vertex 18.8113 -26.2076 9.21398
      vertex 18.8962 -26.2076 9.22828
    endloop
  endfacet
  facet normal 0 1 0
    outer loop
      vertex 18.8113 -26.2076 9.21398
      vertex 18.8327 -26.2076 9.35303
      vertex 18.8962 -26.2076 9.22828
    endloop
  endfacet
  facet normal -0.984807 0 -0.173652
    outer loop
      vertex 18.8113 -26.2076 9.21398
      vertex 18.8331 -26.2076 9.09
      vertex 18.8331 -26.2526 9.09
    endloop
  endfacet
  facet normal 0 1 0
    outer loop
      vertex 18.8539 -26.2076 8.24444
      vertex 18.8331 -26.2076 9.09
      vertex 18.9181 -26.2076 9.09
    endloop
  endfacet
  facet normal 0 1 0
    outer loop
      vertex 18.8331 -26.2076 9.09
      vertex 18.8962 -26.2076 9.22828
      vertex 18.9181 -26.2076 9.09
    endloop
  endfacet
  facet normal 0 1 0
    outer loop
      vertex 18.9162 -26.2076 7.40092
      vertex 18.8539 -26.2076 8.24444
      vertex 18.9388 -26.2076 8.24861
    endloop
  endfacet
  facet normal 0 1 0
    outer loop
      vertex 18.8539 -26.2076 8.24444
      vertex 18.9181 -26.2076 9.09
      vertex 18.9388 -26.2076 8.24861
    endloop
  endfacet
  facet normal -0.997286 0 -0.0736259
    outer loop
      vertex 18.8539 -26.2076 8.24444
      vertex 18.9162 -26.2076 7.40092
      vertex 18.8539 -26.2526 8.24444
    endloop
  endfacet
  facet normal -0.997286 0 -0.0736259
    outer loop
      vertex 18.9162 -26.2076 7.40092
      vertex 18.9162 -26.2526 7.40092
      vertex 18.8539 -26.2526 8.24444
    endloop
  endfacet
  facet normal 0.999698 0 0.0245611
    outer loop
      vertex 18.9181 -26.2526 9.09
      vertex 18.9388 -26.2526 8.24861
      vertex 18.9388 -26.2076 8.24861
    endloop
  endfacet
  facet normal 0.997286 0 0.0736238
    outer loop
      vertex 18.9388 -26.2526 8.24861
      vertex 19.0008 -26.2076 7.40926
      vertex 18.9388 -26.2076 8.24861
    endloop
  endfacet
  facet normal 0 -1 0
    outer loop
      vertex 18.9181 -26.2526 9.09
      vertex 18.8962 -26.2526 9.22828
      vertex 18.8113 -26.2526 9.21398
    endloop
  endfacet
  facet normal 0 -1 0
    outer loop
      vertex 18.8962 -26.2526 9.22828
      vertex 18.7483 -26.2526 9.32301
      vertex 18.8113 -26.2526 9.21398
    endloop
  endfacet
  facet normal 0.997286 0 0.0736238
    outer loop
      vertex 18.9388 -26.2526 8.24861
      vertex 19.0008 -26.2526 7.40926
      vertex 19.0008 -26.2076 7.40926
    endloop
  endfacet
  facet normal 0.992467 0 0.122511
    outer loop
      vertex 19.0008 -26.2526 7.40926
      vertex 19.1039 -26.2076 6.57396
      vertex 19.0008 -26.2076 7.40926
    endloop
  endfacet
  facet normal 0 -1 0
    outer loop
      vertex 18.8539 -26.2526 8.24444
      vertex 18.9162 -26.2526 7.40092
      vertex 19.0008 -26.2526 7.40926
    endloop
  endfacet
  facet normal 0 -1 0
    outer loop
      vertex 18.9162 -26.2526 7.40092
      vertex 19.1039 -26.2526 6.57396
      vertex 19.0008 -26.2526 7.40926
    endloop
  endfacet
  facet normal 0 1 0
    outer loop
      vertex 18.9388 -26.2076 8.24861
      vertex 19.0008 -26.2076 7.40926
      vertex 18.9162 -26.2076 7.40092
    endloop
  endfacet
  facet normal 0 1 0
    outer loop
      vertex 19.0008 -26.2076 7.40926
      vertex 19.0198 -26.2076 6.56148
      vertex 18.9162 -26.2076 7.40092
    endloop
  endfacet
  facet normal 0 -1 0
    outer loop
      vertex 18.8962 -26.2526 9.22828
      vertex 18.8327 -26.2526 9.35303
      vertex 18.7483 -26.2526 9.32301
    endloop
  endfacet
  facet normal 0 -1 0
    outer loop
      vertex 18.8327 -26.2526 9.35303
      vertex 18.6519 -26.2526 9.40393
      vertex 18.7483 -26.2526 9.32301
    endloop
  endfacet
  facet normal -0.985254 0 -0.171099
    outer loop
      vertex 19.1645 -26.2526 5.72814
      vertex 19.0198 -26.2526 6.56148
      vertex 19.1645 -26.2076 5.72814
    endloop
  endfacet
  facet normal -0.985254 0 -0.171099
    outer loop
      vertex 19.0198 -26.2526 6.56148
      vertex 19.0198 -26.2076 6.56148
      vertex 19.1645 -26.2076 5.72814
    endloop
  endfacet
  facet normal 0 -1 0
    outer loop
      vertex 19.0198 -26.2526 6.56148
      vertex 19.1645 -26.2526 5.72814
      vertex 19.2479 -26.2526 5.74473
    endloop
  endfacet
  facet normal 0 -1 0
    outer loop
      vertex 19.1645 -26.2526 5.72814
      vertex 19.2625 -26.2526 5.559
      vertex 19.2479 -26.2526 5.74473
    endloop
  endfacet
  facet normal 0 -1 0
    outer loop
      vertex 18.9162 -26.2526 7.40092
      vertex 19.0198 -26.2526 6.56148
      vertex 19.1039 -26.2526 6.57396
    endloop
  endfacet
  facet normal 0 -1 0
    outer loop
      vertex 19.0198 -26.2526 6.56148
      vertex 19.2479 -26.2526 5.74473
      vertex 19.1039 -26.2526 6.57396
    endloop
  endfacet
  facet normal -0.992468 0 -0.122508
    outer loop
      vertex 19.0198 -26.2526 6.56148
      vertex 18.9162 -26.2526 7.40092
      vertex 19.0198 -26.2076 6.56148
    endloop
  endfacet
  facet normal -0.992468 0 -0.122508
    outer loop
      vertex 18.9162 -26.2526 7.40092
      vertex 18.9162 -26.2076 7.40092
      vertex 19.0198 -26.2076 6.56148
    endloop
  endfacet
  facet normal 0 1 0
    outer loop
      vertex 19.1645 -26.2076 5.72814
      vertex 19.0198 -26.2076 6.56148
      vertex 19.1039 -26.2076 6.57396
    endloop
  endfacet
  facet normal 0 1 0
    outer loop
      vertex 19.0198 -26.2076 6.56148
      vertex 19.0008 -26.2076 7.40926
      vertex 19.1039 -26.2076 6.57396
    endloop
  endfacet
  facet normal 0 1 0
    outer loop
      vertex 19.177 -26.2076 5.55043
      vertex 19.1645 -26.2076 5.72814
      vertex 19.2479 -26.2076 5.74473
    endloop
  endfacet
  facet normal 0 1 0
    outer loop
      vertex 19.1645 -26.2076 5.72814
      vertex 19.1039 -26.2076 6.57396
      vertex 19.2479 -26.2076 5.74473
    endloop
  endfacet
  facet normal -0.997532 0 -0.0702084
    outer loop
      vertex 19.1645 -26.2076 5.72814
      vertex 19.177 -26.2076 5.55043
      vertex 19.177 -26.2526 5.55043
    endloop
  endfacet
  facet normal -0.983447 0 0.181194
    outer loop
      vertex 19.177 -26.2076 5.55043
      vertex 19.1448 -26.2526 5.37523
      vertex 19.177 -26.2526 5.55043
    endloop
  endfacet
  facet normal -0.997532 0 -0.0702084
    outer loop
      vertex 19.177 -26.2526 5.55043
      vertex 19.1645 -26.2526 5.72814
      vertex 19.1645 -26.2076 5.72814
    endloop
  endfacet
  facet normal 0 -1 0
    outer loop
      vertex 19.1645 -26.2526 5.72814
      vertex 19.177 -26.2526 5.55043
      vertex 19.2625 -26.2526 5.559
    endloop
  endfacet
  facet normal 0 -1 0
    outer loop
      vertex 19.177 -26.2526 5.55043
      vertex 19.2334 -26.2526 5.37497
      vertex 19.2625 -26.2526 5.559
    endloop
  endfacet
  facet normal 0 -1 0
    outer loop
      vertex 19.177 -26.2526 5.55043
      vertex 19.1448 -26.2526 5.37523
      vertex 19.2334 -26.2526 5.37497
    endloop
  endfacet
  facet normal 0 -1 0
    outer loop
      vertex 19.1448 -26.2526 5.37523
      vertex 19.1621 -26.2526 5.20283
      vertex 19.2334 -26.2526 5.37497
    endloop
  endfacet
  facet normal 0.985254 0 0.171098
    outer loop
      vertex 19.2479 -26.2076 5.74473
      vertex 19.1039 -26.2076 6.57396
      vertex 19.1039 -26.2526 6.57396
    endloop
  endfacet
  facet normal 0.992467 0 0.122511
    outer loop
      vertex 19.1039 -26.2076 6.57396
      vertex 19.0008 -26.2526 7.40926
      vertex 19.1039 -26.2526 6.57396
    endloop
  endfacet
  facet normal 0.996906 0 0.0785992
    outer loop
      vertex 19.2625 -26.2076 5.559
      vertex 19.2479 -26.2076 5.74473
      vertex 19.2625 -26.2526 5.559
    endloop
  endfacet
  facet normal 0.996906 0 0.0785992
    outer loop
      vertex 19.2479 -26.2076 5.74473
      vertex 19.2479 -26.2526 5.74473
      vertex 19.2625 -26.2526 5.559
    endloop
  endfacet
  facet normal 0 1 0
    outer loop
      vertex 19.2479 -26.2076 5.74473
      vertex 19.2625 -26.2076 5.559
      vertex 19.177 -26.2076 5.55043
    endloop
  endfacet
  facet normal 0 1 0
    outer loop
      vertex 19.2625 -26.2076 5.559
      vertex 19.1448 -26.2076 5.37523
      vertex 19.177 -26.2076 5.55043
    endloop
  endfacet
  facet normal -0.983447 0 0.181194
    outer loop
      vertex 19.177 -26.2076 5.55043
      vertex 19.1448 -26.2076 5.37523
      vertex 19.1448 -26.2526 5.37523
    endloop
  endfacet
  facet normal -0.907011 0 0.421107
    outer loop
      vertex 19.1448 -26.2076 5.37523
      vertex 19.0697 -26.2526 5.21364
      vertex 19.1448 -26.2526 5.37523
    endloop
  endfacet
  facet normal 0.985254 0 0.171098
    outer loop
      vertex 19.1039 -26.2526 6.57396
      vertex 19.2479 -26.2526 5.74473
      vertex 19.2479 -26.2076 5.74473
    endloop
  endfacet
  facet normal 0.987708 0 -0.156309
    outer loop
      vertex 19.2625 -26.2526 5.559
      vertex 19.2334 -26.2526 5.37497
      vertex 19.2625 -26.2076 5.559
    endloop
  endfacet
  facet normal 0.987708 0 -0.156309
    outer loop
      vertex 19.2334 -26.2526 5.37497
      vertex 19.2334 -26.2076 5.37497
      vertex 19.2625 -26.2076 5.559
    endloop
  endfacet
  facet normal 0 1 0
    outer loop
      vertex 19.2625 -26.2076 5.559
      vertex 19.2334 -26.2076 5.37497
      vertex 19.1448 -26.2076 5.37523
    endloop
  endfacet
  facet normal 0 1 0
    outer loop
      vertex 19.2334 -26.2076 5.37497
      vertex 19.0697 -26.2076 5.21364
      vertex 19.1448 -26.2076 5.37523
    endloop
  endfacet
  facet normal -0.923922 0 -0.382581
    outer loop
      vertex 17.7079 -26.2076 5.37497
      vertex 17.7792 -26.2076 5.20283
      vertex 17.7079 -26.2526 5.37497
    endloop
  endfacet
  facet normal -0.923922 0 -0.382581
    outer loop
      vertex 17.7792 -26.2076 5.20283
      vertex 17.7792 -26.2526 5.20283
      vertex 17.7079 -26.2526 5.37497
    endloop
  endfacet
  facet normal 0.907007 0 0.421115
    outer loop
      vertex 17.7965 -26.2526 5.37523
      vertex 17.8716 -26.2526 5.21364
      vertex 17.8716 -26.2076 5.21364
    endloop
  endfacet
  facet normal 0.77306 0 0.634332
    outer loop
      vertex 17.8716 -26.2526 5.21364
      vertex 17.9846 -26.2076 5.07592
      vertex 17.8716 -26.2076 5.21364
    endloop
  endfacet
  facet normal 0 1 0
    outer loop
      vertex 17.7965 -26.2076 5.37523
      vertex 17.8716 -26.2076 5.21364
      vertex 17.7792 -26.2076 5.20283
    endloop
  endfacet
  facet normal 0 1 0
    outer loop
      vertex 17.8716 -26.2076 5.21364
      vertex 17.8887 -26.2076 5.05209
      vertex 17.7792 -26.2076 5.20283
    endloop
  endfacet
  facet normal 0 -1 0
    outer loop
      vertex 17.7079 -26.2526 5.37497
      vertex 17.7792 -26.2526 5.20283
      vertex 17.8716 -26.2526 5.21364
    endloop
  endfacet
  facet normal 0 -1 0
    outer loop
      vertex 17.7792 -26.2526 5.20283
      vertex 17.9846 -26.2526 5.07592
      vertex 17.8716 -26.2526 5.21364
    endloop
  endfacet
  facet normal 0.642787 0 -0.766045
    outer loop
      vertex 18.193 -26.2076 9.32301
      vertex 18.2894 -26.2076 9.40393
      vertex 18.2894 -26.2526 9.40393
    endloop
  endfacet
  facet normal 0.642787 0 -0.766045
    outer loop
      vertex 18.193 -26.2526 9.32301
      vertex 18.193 -26.2076 9.32301
      vertex 18.2894 -26.2526 9.40393
    endloop
  endfacet
  facet normal 0 -1 0
    outer loop
      vertex 18.193 -26.2526 9.32301
      vertex 18.2894 -26.2526 9.40393
      vertex 18.2076 -26.2526 9.45203
    endloop
  endfacet
  facet normal 0 -1 0
    outer loop
      vertex 18.2894 -26.2526 9.40393
      vertex 18.3324 -26.2526 9.5156
      vertex 18.2076 -26.2526 9.45203
    endloop
  endfacet
  facet normal 0 1 0
    outer loop
      vertex 18.1086 -26.2076 9.35303
      vertex 18.2076 -26.2076 9.45203
      vertex 18.2894 -26.2076 9.40393
    endloop
  endfacet
  facet normal 0 1 0
    outer loop
      vertex 18.2076 -26.2076 9.45203
      vertex 18.4077 -26.2076 9.44699
      vertex 18.2894 -26.2076 9.40393
    endloop
  endfacet
  facet normal 0 -1 0
    outer loop
      vertex 18.1284 -26.2526 4.97079
      vertex 17.9846 -26.2526 5.07592
      vertex 17.8887 -26.2526 5.05209
    endloop
  endfacet
  facet normal 0 -1 0
    outer loop
      vertex 17.9846 -26.2526 5.07592
      vertex 17.7792 -26.2526 5.20283
      vertex 17.8887 -26.2526 5.05209
    endloop
  endfacet
  facet normal -0.649491 0 -0.760369
    outer loop
      vertex 18.0303 -26.2526 4.93108
      vertex 17.8887 -26.2526 5.05209
      vertex 18.0303 -26.2076 4.93108
    endloop
  endfacet
  facet normal -0.649491 0 -0.760369
    outer loop
      vertex 17.8887 -26.2526 5.05209
      vertex 17.8887 -26.2076 5.05209
      vertex 18.0303 -26.2076 4.93108
    endloop
  endfacet
  facet normal 0.649491 0 -0.760369
    outer loop
      vertex 18.911 -26.2076 4.93108
      vertex 19.0526 -26.2076 5.05209
      vertex 18.911 -26.2526 4.93108
    endloop
  endfacet
  facet normal 0.649491 0 -0.760369
    outer loop
      vertex 19.0526 -26.2076 5.05209
      vertex 19.0526 -26.2526 5.05209
      vertex 18.911 -26.2526 4.93108
    endloop
  endfacet
  facet normal 0 1 0
    outer loop
      vertex 18.8129 -26.2076 4.97079
      vertex 18.9567 -26.2076 5.07592
      vertex 19.0526 -26.2076 5.05209
    endloop
  endfacet
  facet normal 0 1 0
    outer loop
      vertex 18.9567 -26.2076 5.07592
      vertex 19.1621 -26.2076 5.20283
      vertex 19.0526 -26.2076 5.05209
    endloop
  endfacet
  facet normal 0 1 0
    outer loop
      vertex 18.1963 -26.2076 4.84649
      vertex 18.0303 -26.2076 4.93108
      vertex 18.1284 -26.2076 4.97079
    endloop
  endfacet
  facet normal 0 1 0
    outer loop
      vertex 18.0303 -26.2076 4.93108
      vertex 17.9846 -26.2076 5.07592
      vertex 18.1284 -26.2076 4.97079
    endloop
  endfacet
  facet normal 0.590098 0 0.807332
    outer loop
      vertex 18.1284 -26.2076 4.97079
      vertex 17.9846 -26.2076 5.07592
      vertex 17.9846 -26.2526 5.07592
    endloop
  endfacet
  facet normal 0.77306 0 0.634332
    outer loop
      vertex 17.9846 -26.2076 5.07592
      vertex 17.8716 -26.2526 5.21364
      vertex 17.9846 -26.2526 5.07592
    endloop
  endfacet
  facet normal 0 -1 0
    outer loop
      vertex 18.745 -26.2526 4.84649
      vertex 18.911 -26.2526 4.93108
      vertex 18.8129 -26.2526 4.97079
    endloop
  endfacet
  facet normal 0 -1 0
    outer loop
      vertex 18.911 -26.2526 4.93108
      vertex 18.9567 -26.2526 5.07592
      vertex 18.8129 -26.2526 4.97079
    endloop
  endfacet
  facet normal -0.590098 0 0.807332
    outer loop
      vertex 18.8129 -26.2526 4.97079
      vertex 18.9567 -26.2526 5.07592
      vertex 18.9567 -26.2076 5.07592
    endloop
  endfacet
  facet normal -0.77306 0 0.634332
    outer loop
      vertex 18.9567 -26.2526 5.07592
      vertex 19.0697 -26.2076 5.21364
      vertex 18.9567 -26.2076 5.07592
    endloop
  endfacet
  facet normal 0 1 0
    outer loop
      vertex 18.7483 -26.2076 9.32301
      vertex 18.6519 -26.2076 9.40393
      vertex 18.7337 -26.2076 9.45203
    endloop
  endfacet
  facet normal 0 1 0
    outer loop
      vertex 18.6519 -26.2076 9.40393
      vertex 18.6089 -26.2076 9.5156
      vertex 18.7337 -26.2076 9.45203
    endloop
  endfacet
  facet normal 0 -1 0
    outer loop
      vertex 18.8327 -26.2526 9.35303
      vertex 18.7337 -26.2526 9.45203
      vertex 18.6519 -26.2526 9.40393
    endloop
  endfacet
  facet normal 0 -1 0
    outer loop
      vertex 18.7337 -26.2526 9.45203
      vertex 18.5336 -26.2526 9.44699
      vertex 18.6519 -26.2526 9.40393
    endloop
  endfacet
  facet normal 0 -1 0
    outer loop
      vertex 19.1448 -26.2526 5.37523
      vertex 19.0697 -26.2526 5.21364
      vertex 19.1621 -26.2526 5.20283
    endloop
  endfacet
  facet normal 0 -1 0
    outer loop
      vertex 19.0697 -26.2526 5.21364
      vertex 19.0526 -26.2526 5.05209
      vertex 19.1621 -26.2526 5.20283
    endloop
  endfacet
  facet normal 0.923918 0 -0.38259
    outer loop
      vertex 19.2334 -26.2526 5.37497
      vertex 19.1621 -26.2526 5.20283
      vertex 19.2334 -26.2076 5.37497
    endloop
  endfacet
  facet normal 0.923918 0 -0.38259
    outer loop
      vertex 19.1621 -26.2526 5.20283
      vertex 19.1621 -26.2076 5.20283
      vertex 19.2334 -26.2076 5.37497
    endloop
  endfacet
  facet normal -0.907011 0 0.421107
    outer loop
      vertex 19.1448 -26.2076 5.37523
      vertex 19.0697 -26.2076 5.21364
      vertex 19.0697 -26.2526 5.21364
    endloop
  endfacet
  facet normal -0.77306 0 0.634332
    outer loop
      vertex 19.0697 -26.2076 5.21364
      vertex 18.9567 -26.2526 5.07592
      vertex 19.0697 -26.2526 5.21364
    endloop
  endfacet
  facet normal 0 1 0
    outer loop
      vertex 19.2334 -26.2076 5.37497
      vertex 19.1621 -26.2076 5.20283
      vertex 19.0697 -26.2076 5.21364
    endloop
  endfacet
  facet normal 0 1 0
    outer loop
      vertex 19.1621 -26.2076 5.20283
      vertex 18.9567 -26.2076 5.07592
      vertex 19.0697 -26.2076 5.21364
    endloop
  endfacet
  facet normal -0.809068 0 -0.587714
    outer loop
      vertex 17.7792 -26.2076 5.20283
      vertex 17.8887 -26.2076 5.05209
      vertex 17.7792 -26.2526 5.20283
    endloop
  endfacet
  facet normal -0.809068 0 -0.587714
    outer loop
      vertex 17.8887 -26.2076 5.05209
      vertex 17.8887 -26.2526 5.05209
      vertex 17.7792 -26.2526 5.20283
    endloop
  endfacet
  facet normal 0 1 0
    outer loop
      vertex 17.8716 -26.2076 5.21364
      vertex 17.9846 -26.2076 5.07592
      vertex 17.8887 -26.2076 5.05209
    endloop
  endfacet
  facet normal 0 1 0
    outer loop
      vertex 17.9846 -26.2076 5.07592
      vertex 18.0303 -26.2076 4.93108
      vertex 17.8887 -26.2076 5.05209
    endloop
  endfacet
  facet normal 0.342016 0 -0.939694
    outer loop
      vertex 18.2894 -26.2526 9.40393
      vertex 18.2894 -26.2076 9.40393
      vertex 18.4077 -26.2526 9.44699
    endloop
  endfacet
  facet normal 0.342016 0 -0.939694
    outer loop
      vertex 18.2894 -26.2076 9.40393
      vertex 18.4077 -26.2076 9.44699
      vertex 18.4077 -26.2526 9.44699
    endloop
  endfacet
  facet normal 0 0 -1
    outer loop
      vertex 18.4077 -26.2526 9.44699
      vertex 18.4077 -26.2076 9.44699
      vertex 18.5336 -26.2526 9.44699
    endloop
  endfacet
  facet normal 0 0 -1
    outer loop
      vertex 18.4077 -26.2076 9.44699
      vertex 18.5336 -26.2076 9.44699
      vertex 18.5336 -26.2526 9.44699
    endloop
  endfacet
  facet normal 0 -1 0
    outer loop
      vertex 18.2894 -26.2526 9.40393
      vertex 18.4077 -26.2526 9.44699
      vertex 18.3324 -26.2526 9.5156
    endloop
  endfacet
  facet normal 0 -1 0
    outer loop
      vertex 18.4077 -26.2526 9.44699
      vertex 18.4706 -26.2526 9.5375
      vertex 18.3324 -26.2526 9.5156
    endloop
  endfacet
  facet normal 0 1 0
    outer loop
      vertex 18.2076 -26.2076 9.45203
      vertex 18.3324 -26.2076 9.5156
      vertex 18.4077 -26.2076 9.44699
    endloop
  endfacet
  facet normal 0 1 0
    outer loop
      vertex 18.3324 -26.2076 9.5156
      vertex 18.4706 -26.2076 9.5375
      vertex 18.4077 -26.2076 9.44699
    endloop
  endfacet
  facet normal 0 1 0
    outer loop
      vertex 18.4077 -26.2076 9.44699
      vertex 18.4706 -26.2076 9.5375
      vertex 18.5336 -26.2076 9.44699
    endloop
  endfacet
  facet normal 0 1 0
    outer loop
      vertex 18.4706 -26.2076 9.5375
      vertex 18.6089 -26.2076 9.5156
      vertex 18.5336 -26.2076 9.44699
    endloop
  endfacet
  facet normal 0 1 0
    outer loop
      vertex 18.5336 -26.2076 9.44699
      vertex 18.6089 -26.2076 9.5156
      vertex 18.6519 -26.2076 9.40393
    endloop
  endfacet
  facet normal 0.809073 0 -0.587708
    outer loop
      vertex 19.0526 -26.2076 5.05209
      vertex 19.1621 -26.2076 5.20283
      vertex 19.0526 -26.2526 5.05209
    endloop
  endfacet
  facet normal 0.809073 0 -0.587708
    outer loop
      vertex 19.1621 -26.2076 5.20283
      vertex 19.1621 -26.2526 5.20283
      vertex 19.0526 -26.2526 5.05209
    endloop
  endfacet
  facet normal 0 -1 0
    outer loop
      vertex 18.911 -26.2526 4.93108
      vertex 19.0526 -26.2526 5.05209
      vertex 18.9567 -26.2526 5.07592
    endloop
  endfacet
  facet normal 0 -1 0
    outer loop
      vertex 19.0526 -26.2526 5.05209
      vertex 19.0697 -26.2526 5.21364
      vertex 18.9567 -26.2526 5.07592
    endloop
  endfacet
  facet normal 0 -1 0
    outer loop
      vertex 18.7337 -26.2526 9.45203
      vertex 18.6089 -26.2526 9.5156
      vertex 18.5336 -26.2526 9.44699
    endloop
  endfacet
  facet normal 0 -1 0
    outer loop
      vertex 18.6089 -26.2526 9.5156
      vertex 18.4706 -26.2526 9.5375
      vertex 18.5336 -26.2526 9.44699
    endloop
  endfacet
  facet normal 0 -1 0
    outer loop
      vertex 18.5336 -26.2526 9.44699
      vertex 18.4706 -26.2526 9.5375
      vertex 18.4077 -26.2526 9.44699
    endloop
  endfacet
endsolid Onshape
