solid Onshape
  facet normal -0.398089 -0.289161 0.870581
    outer loop
      vertex 19.5045 -2.33173 16.7436
      vertex 19.5005 -2.33167 16.7417
      vertex 19.5004 -2.33865 16.7393
    endloop
  endfacet
  facet normal 0.391425 0.342399 -0.854137
    outer loop
      vertex 19.5005 -2.33167 16.7417
      vertex 19.5045 -2.33173 16.7436
      vertex 19.5067 -2.34521 16.7391
    endloop
  endfacet
  facet normal -0.32383 -0.341102 0.882487
    outer loop
      vertex 19.5067 -2.34521 16.7391
      vertex 19.5045 -2.33173 16.7436
      vertex 19.5004 -2.33865 16.7393
    endloop
  endfacet
  facet normal 0.283973 0.303854 -0.909413
    outer loop
      vertex 19.5067 -2.34521 16.7391
      vertex 19.5004 -2.33865 16.7393
      vertex 19.5005 -2.33167 16.7417
    endloop
  endfacet
endsolid Onshape
