solid Onshape
  facet normal 0.0828749 2.64994e-5 -0.99656
    outer loop
      vertex 17.5356 -23.9987 9.05173
      vertex 17.5245 -24.0003 9.05082
      vertex 17.5201 -23.9649 9.05045
    endloop
  endfacet
  facet normal 0.082911 3.10688e-5 -0.996557
    outer loop
      vertex 17.5245 -24.0003 9.05082
      vertex 17.5052 -23.9697 9.04921
      vertex 17.5201 -23.9649 9.05045
    endloop
  endfacet
  facet normal -0.141805 0.989824 -0.0117947
    outer loop
      vertex 17.5245 -24.0003 9.05082
      vertex 17.5356 -23.9987 9.05173
      vertex 17.5408 -24.0003 8.85464
    endloop
  endfacet
  facet normal -0.141804 0.989825 -0.0117946
    outer loop
      vertex 17.5356 -23.9987 9.05173
      vertex 17.5519 -23.9987 8.85556
      vertex 17.5408 -24.0003 8.85464
    endloop
  endfacet
  facet normal -0.414139 0.909562 -0.0344421
    outer loop
      vertex 17.5143 -24.0049 9.04997
      vertex 17.5245 -24.0003 9.05082
      vertex 17.5307 -24.0049 8.8538
    endloop
  endfacet
  facet normal -0.414074 0.909591 -0.0344408
    outer loop
      vertex 17.5245 -24.0003 9.05082
      vertex 17.5408 -24.0003 8.85464
      vertex 17.5307 -24.0049 8.8538
    endloop
  endfacet
  facet normal 0.0828049 -3.63024e-5 -0.996566
    outer loop
      vertex 17.5245 -24.0003 9.05082
      vertex 17.5143 -24.0049 9.04997
      vertex 17.5052 -23.9697 9.04921
    endloop
  endfacet
  facet normal 0.0828739 -1.83271e-5 -0.99656
    outer loop
      vertex 17.5143 -24.0049 9.04997
      vertex 17.4917 -23.9775 9.04809
      vertex 17.5052 -23.9697 9.04921
    endloop
  endfacet
  facet normal -0.307955 0.951056 -0.0256069
    outer loop
      vertex 17.5201 -23.9649 9.05045
      vertex 17.5052 -23.9697 9.04921
      vertex 17.5135 -23.9649 9.12892
    endloop
  endfacet
  facet normal -0.307919 0.951068 -0.0256112
    outer loop
      vertex 17.5052 -23.9697 9.04921
      vertex 17.4987 -23.9697 9.12768
      vertex 17.5135 -23.9649 9.12892
    endloop
  endfacet
  facet normal -0.104217 0.994517 -0.00866582
    outer loop
      vertex 17.5356 -23.9632 9.05173
      vertex 17.5201 -23.9649 9.05045
      vertex 17.529 -23.9632 9.1302
    endloop
  endfacet
  facet normal -0.104217 0.994517 -0.00866582
    outer loop
      vertex 17.5201 -23.9649 9.05045
      vertex 17.5135 -23.9649 9.12892
      vertex 17.529 -23.9632 9.1302
    endloop
  endfacet
  facet normal 0.0828175 0 -0.996565
    outer loop
      vertex 17.5201 -23.9649 9.05045
      vertex 17.5356 -23.9632 9.05173
      vertex 17.5356 -23.9987 9.05173
    endloop
  endfacet
  facet normal 0.0829343 0 -0.996555
    outer loop
      vertex 17.5356 -23.9632 9.05173
      vertex 17.5466 -24.0003 9.05265
      vertex 17.5356 -23.9987 9.05173
    endloop
  endfacet
  facet normal 0.141757 0.989831 0.0117908
    outer loop
      vertex 17.5356 -23.9987 9.05173
      vertex 17.5466 -24.0003 9.05265
      vertex 17.5519 -23.9987 8.85556
    endloop
  endfacet
  facet normal 0.141782 0.989828 0.0117914
    outer loop
      vertex 17.5466 -24.0003 9.05265
      vertex 17.5629 -24.0003 8.85648
      vertex 17.5519 -23.9987 8.85556
    endloop
  endfacet
  facet normal 0.0829621 0 -0.996553
    outer loop
      vertex 17.5408 -24.0003 8.85464
      vertex 17.5519 -23.9987 8.85556
      vertex 17.5519 -24.038 8.85556
    endloop
  endfacet
  facet normal 0.0828648 0 -0.996561
    outer loop
      vertex 17.5519 -23.9987 8.85556
      vertex 17.5629 -24.0003 8.85648
      vertex 17.5519 -24.038 8.85556
    endloop
  endfacet
  facet normal 0.0828774 -3.71055e-6 -0.99656
    outer loop
      vertex 17.5519 -24.038 8.85556
      vertex 17.5629 -24.0003 8.85648
      vertex 17.5731 -24.0049 8.85733
    endloop
  endfacet
  facet normal 0.0828756 -2.54776e-5 -0.99656
    outer loop
      vertex 17.5307 -24.0049 8.8538
      vertex 17.5408 -24.0003 8.85464
      vertex 17.5519 -24.038 8.85556
    endloop
  endfacet
  facet normal 0.104216 0.994517 0.00866574
    outer loop
      vertex 17.5511 -23.9649 9.05302
      vertex 17.5356 -23.9632 9.05173
      vertex 17.5445 -23.9649 9.13149
    endloop
  endfacet
  facet normal 0.104216 0.994517 0.00866574
    outer loop
      vertex 17.5356 -23.9632 9.05173
      vertex 17.529 -23.9632 9.1302
      vertex 17.5445 -23.9649 9.13149
    endloop
  endfacet
  facet normal 0.0829365 6.59388e-7 -0.996555
    outer loop
      vertex 17.5356 -23.9632 9.05173
      vertex 17.5511 -23.9649 9.05302
      vertex 17.5466 -24.0003 9.05265
    endloop
  endfacet
  facet normal 0.082902 5.02088e-6 -0.996558
    outer loop
      vertex 17.5511 -23.9649 9.05302
      vertex 17.5659 -23.9697 9.05426
      vertex 17.5466 -24.0003 9.05265
    endloop
  endfacet
  facet normal 0.0828977 7.73939e-6 -0.996558
    outer loop
      vertex 17.5466 -24.0003 9.05265
      vertex 17.5659 -23.9697 9.05426
      vertex 17.5568 -24.0049 9.0535
    endloop
  endfacet
  facet normal 0.0828717 1.45151e-5 -0.99656
    outer loop
      vertex 17.5659 -23.9697 9.05426
      vertex 17.5794 -23.9775 9.05538
      vertex 17.5568 -24.0049 9.0535
    endloop
  endfacet
  facet normal 0.0828318 4.76522e-5 -0.996564
    outer loop
      vertex 17.5568 -24.0049 9.0535
      vertex 17.5794 -23.9775 9.05538
      vertex 17.5652 -24.0123 9.0542
    endloop
  endfacet
  facet normal 0.0828932 2.24613e-5 -0.996558
    outer loop
      vertex 17.5794 -23.9775 9.05538
      vertex 17.591 -23.988 9.05634
      vertex 17.5652 -24.0123 9.0542
    endloop
  endfacet
  facet normal 0.0829445 -3.23273e-5 -0.996554
    outer loop
      vertex 17.5652 -24.0123 9.0542
      vertex 17.591 -23.988 9.05634
      vertex 17.5713 -24.0217 9.0547
    endloop
  endfacet
  facet normal 0.0829294 -2.34806e-5 -0.996555
    outer loop
      vertex 17.591 -23.988 9.05634
      vertex 17.6001 -24.0006 9.05711
      vertex 17.5713 -24.0217 9.0547
    endloop
  endfacet
  facet normal 0.082868 6.14476e-5 -0.996561
    outer loop
      vertex 17.5713 -24.0217 9.0547
      vertex 17.6001 -24.0006 9.05711
      vertex 17.6065 -24.0149 9.05763
    endloop
  endfacet
  facet normal 0.414199 0.909534 0.0344473
    outer loop
      vertex 17.5466 -24.0003 9.05265
      vertex 17.5568 -24.0049 9.0535
      vertex 17.5629 -24.0003 8.85648
    endloop
  endfacet
  facet normal 0.414136 0.909563 0.034446
    outer loop
      vertex 17.5568 -24.0049 9.0535
      vertex 17.5731 -24.0049 8.85733
      vertex 17.5629 -24.0003 8.85648
    endloop
  endfacet
  facet normal 0.0828787 0 -0.99656
    outer loop
      vertex 17.5245 -24.0758 9.05082
      vertex 17.5356 -24.0774 9.05173
      vertex 17.5356 -24.1128 9.05173
    endloop
  endfacet
  facet normal 0.0829365 0 -0.996555
    outer loop
      vertex 17.5356 -24.0774 9.05173
      vertex 17.5511 -24.1112 9.05302
      vertex 17.5356 -24.1128 9.05173
    endloop
  endfacet
  facet normal -0.141967 -0.989801 -0.0118082
    outer loop
      vertex 17.5356 -24.0774 9.05173
      vertex 17.5245 -24.0758 9.05082
      vertex 17.5519 -24.0774 8.85556
    endloop
  endfacet
  facet normal -0.141966 -0.989801 -0.0118081
    outer loop
      vertex 17.5245 -24.0758 9.05082
      vertex 17.5408 -24.0758 8.85464
      vertex 17.5519 -24.0774 8.85556
    endloop
  endfacet
  facet normal 0.14192 -0.989808 0.0118029
    outer loop
      vertex 17.5466 -24.0758 9.05265
      vertex 17.5356 -24.0774 9.05173
      vertex 17.5629 -24.0758 8.85648
    endloop
  endfacet
  facet normal 0.141944 -0.989804 0.0118063
    outer loop
      vertex 17.5356 -24.0774 9.05173
      vertex 17.5519 -24.0774 8.85556
      vertex 17.5629 -24.0758 8.85648
    endloop
  endfacet
  facet normal 0.0829345 -9.19845e-7 -0.996555
    outer loop
      vertex 17.5356 -24.0774 9.05173
      vertex 17.5466 -24.0758 9.05265
      vertex 17.5511 -24.1112 9.05302
    endloop
  endfacet
  facet normal 0.082902 -5.02055e-6 -0.996558
    outer loop
      vertex 17.5466 -24.0758 9.05265
      vertex 17.5659 -24.1064 9.05426
      vertex 17.5511 -24.1112 9.05302
    endloop
  endfacet
  facet normal 0.104216 -0.994517 0.00866574
    outer loop
      vertex 17.5356 -24.1128 9.05173
      vertex 17.5511 -24.1112 9.05302
      vertex 17.529 -24.1128 9.1302
    endloop
  endfacet
  facet normal 0.104216 -0.994517 0.00866574
    outer loop
      vertex 17.5511 -24.1112 9.05302
      vertex 17.5445 -24.1112 9.13149
      vertex 17.529 -24.1128 9.1302
    endloop
  endfacet
  facet normal -0.104217 -0.994517 -0.00866582
    outer loop
      vertex 17.5201 -24.1112 9.05045
      vertex 17.5356 -24.1128 9.05173
      vertex 17.5135 -24.1112 9.12892
    endloop
  endfacet
  facet normal -0.104217 -0.994517 -0.00866582
    outer loop
      vertex 17.5356 -24.1128 9.05173
      vertex 17.529 -24.1128 9.1302
      vertex 17.5135 -24.1112 9.12892
    endloop
  endfacet
  facet normal 0.0828155 -1.89875e-5 -0.996565
    outer loop
      vertex 17.5356 -24.1128 9.05173
      vertex 17.5201 -24.1112 9.05045
      vertex 17.5245 -24.0758 9.05082
    endloop
  endfacet
  facet normal 0.082911 -3.10668e-5 -0.996557
    outer loop
      vertex 17.5201 -24.1112 9.05045
      vertex 17.5052 -24.1064 9.04921
      vertex 17.5245 -24.0758 9.05082
    endloop
  endfacet
  facet normal 0.0828049 3.63057e-5 -0.996566
    outer loop
      vertex 17.5245 -24.0758 9.05082
      vertex 17.5052 -24.1064 9.04921
      vertex 17.5143 -24.0712 9.04997
    endloop
  endfacet
  facet normal 0.0828739 1.83285e-5 -0.99656
    outer loop
      vertex 17.5052 -24.1064 9.04921
      vertex 17.4917 -24.0986 9.04809
      vertex 17.5143 -24.0712 9.04997
    endloop
  endfacet
  facet normal 0.0828983 -1.89776e-6 -0.996558
    outer loop
      vertex 17.5143 -24.0712 9.04997
      vertex 17.4917 -24.0986 9.04809
      vertex 17.5059 -24.0638 9.04927
    endloop
  endfacet
  facet normal 0.0829271 -1.37219e-5 -0.996556
    outer loop
      vertex 17.4917 -24.0986 9.04809
      vertex 17.4802 -24.0881 9.04713
      vertex 17.5059 -24.0638 9.04927
    endloop
  endfacet
  facet normal 0.0828966 1.88415e-5 -0.996558
    outer loop
      vertex 17.5059 -24.0638 9.04927
      vertex 17.4802 -24.0881 9.04713
      vertex 17.4999 -24.0544 9.04877
    endloop
  endfacet
  facet normal 0.0829005 1.65434e-5 -0.996558
    outer loop
      vertex 17.4802 -24.0881 9.04713
      vertex 17.471 -24.0754 9.04637
      vertex 17.4999 -24.0544 9.04877
    endloop
  endfacet
  facet normal 0.0829035 1.23613e-5 -0.996558
    outer loop
      vertex 17.4999 -24.0544 9.04877
      vertex 17.471 -24.0754 9.04637
      vertex 17.4647 -24.0612 9.04584
    endloop
  endfacet
  facet normal -0.414002 -0.909624 -0.0344348
    outer loop
      vertex 17.5245 -24.0758 9.05082
      vertex 17.5143 -24.0712 9.04997
      vertex 17.5408 -24.0758 8.85464
    endloop
  endfacet
  facet normal -0.413937 -0.909654 -0.0344253
    outer loop
      vertex 17.5143 -24.0712 9.04997
      vertex 17.5307 -24.0712 8.8538
      vertex 17.5408 -24.0758 8.85464
    endloop
  endfacet
  facet normal 0.307993 -0.951044 0.02561
    outer loop
      vertex 17.5511 -24.1112 9.05302
      vertex 17.5659 -24.1064 9.05426
      vertex 17.5445 -24.1112 9.13149
    endloop
  endfacet
  facet normal 0.308027 -0.951033 0.0256202
    outer loop
      vertex 17.5659 -24.1064 9.05426
      vertex 17.5594 -24.1064 9.13273
      vertex 17.5445 -24.1112 9.13149
    endloop
  endfacet
  facet normal 0.0829621 0 -0.996553
    outer loop
      vertex 17.5519 -24.0774 8.85556
      vertex 17.5408 -24.0758 8.85464
      vertex 17.5519 -24.038 8.85556
    endloop
  endfacet
  facet normal 0.0828756 2.54777e-5 -0.99656
    outer loop
      vertex 17.5408 -24.0758 8.85464
      vertex 17.5307 -24.0712 8.8538
      vertex 17.5519 -24.038 8.85556
    endloop
  endfacet
  facet normal 0.082917 -1.21949e-6 -0.996556
    outer loop
      vertex 17.5519 -24.038 8.85556
      vertex 17.5307 -24.0712 8.8538
      vertex 17.5222 -24.0638 8.8531
    endloop
  endfacet
  facet normal 0.0828648 0 -0.996561
    outer loop
      vertex 17.5629 -24.0758 8.85648
      vertex 17.5519 -24.0774 8.85556
      vertex 17.5519 -24.038 8.85556
    endloop
  endfacet
  facet normal 0.414062 -0.909597 0.0344398
    outer loop
      vertex 17.5568 -24.0712 9.0535
      vertex 17.5466 -24.0758 9.05265
      vertex 17.5731 -24.0712 8.85733
    endloop
  endfacet
  facet normal 0.414 -0.909626 0.0344307
    outer loop
      vertex 17.5466 -24.0758 9.05265
      vertex 17.5629 -24.0758 8.85648
      vertex 17.5731 -24.0712 8.85733
    endloop
  endfacet
  facet normal 0.0828977 -7.74009e-6 -0.996558
    outer loop
      vertex 17.5466 -24.0758 9.05265
      vertex 17.5568 -24.0712 9.0535
      vertex 17.5659 -24.1064 9.05426
    endloop
  endfacet
  facet normal 0.0828717 -1.45163e-5 -0.99656
    outer loop
      vertex 17.5568 -24.0712 9.0535
      vertex 17.5794 -24.0986 9.05538
      vertex 17.5659 -24.1064 9.05426
    endloop
  endfacet
  facet normal 0.0828774 3.71057e-6 -0.99656
    outer loop
      vertex 17.5731 -24.0712 8.85733
      vertex 17.5629 -24.0758 8.85648
      vertex 17.5519 -24.038 8.85556
    endloop
  endfacet
  facet normal -0.498287 0.866021 -0.041445
    outer loop
      vertex 17.5052 -23.9697 9.04921
      vertex 17.4917 -23.9775 9.04809
      vertex 17.4987 -23.9697 9.12768
    endloop
  endfacet
  facet normal -0.498285 0.866022 -0.0414454
    outer loop
      vertex 17.4917 -23.9775 9.04809
      vertex 17.4852 -23.9775 9.12656
      vertex 17.4987 -23.9697 9.12768
    endloop
  endfacet
  facet normal 0.082917 1.21969e-6 -0.996556
    outer loop
      vertex 17.5222 -24.0123 8.8531
      vertex 17.5307 -24.0049 8.8538
      vertex 17.5519 -24.038 8.85556
    endloop
  endfacet
  facet normal -0.652541 0.755807 -0.054269
    outer loop
      vertex 17.5307 -24.0049 8.8538
      vertex 17.5222 -24.0123 8.8531
      vertex 17.5143 -24.0049 9.04997
    endloop
  endfacet
  facet normal -0.652459 0.755878 -0.0542684
    outer loop
      vertex 17.5222 -24.0123 8.8531
      vertex 17.5059 -24.0123 9.04927
      vertex 17.5143 -24.0049 9.04997
    endloop
  endfacet
  facet normal 0.0829068 -7.95512e-6 -0.996557
    outer loop
      vertex 17.5143 -24.0049 9.04997
      vertex 17.5059 -24.0123 9.04927
      vertex 17.4802 -23.988 9.04713
    endloop
  endfacet
  facet normal 0.0828994 -1.57849e-5 -0.996558
    outer loop
      vertex 17.5059 -24.0123 9.04927
      vertex 17.471 -24.0006 9.04637
      vertex 17.4802 -23.988 9.04713
    endloop
  endfacet
  facet normal -0.0828175 0 0.996565
    outer loop
      vertex 17.529 -23.9632 9.1302
      vertex 17.5135 -23.9649 9.12892
      vertex 17.529 -24.0039 9.1302
    endloop
  endfacet
  facet normal -0.0829001 -3.29726e-5 0.996558
    outer loop
      vertex 17.5135 -23.9649 9.12892
      vertex 17.4987 -23.9697 9.12768
      vertex 17.529 -24.0039 9.1302
    endloop
  endfacet
  facet normal -0.0828594 3.26599e-6 0.996561
    outer loop
      vertex 17.529 -24.0039 9.1302
      vertex 17.4987 -23.9697 9.12768
      vertex 17.4996 -24.021 9.12776
    endloop
  endfacet
  facet normal -0.0829328 1.97794e-6 0.996555
    outer loop
      vertex 17.4987 -23.9697 9.12768
      vertex 17.4852 -23.9775 9.12656
      vertex 17.4996 -24.021 9.12776
    endloop
  endfacet
  facet normal -0.082878 2.02575e-5 0.99656
    outer loop
      vertex 17.4996 -24.021 9.12776
      vertex 17.4852 -23.9775 9.12656
      vertex 17.4736 -23.988 9.1256
    endloop
  endfacet
  facet normal -0.0829365 0 0.996555
    outer loop
      vertex 17.5445 -23.9649 9.13149
      vertex 17.529 -23.9632 9.1302
      vertex 17.529 -24.0039 9.1302
    endloop
  endfacet
  facet normal 0.307885 0.951079 0.0256083
    outer loop
      vertex 17.5659 -23.9697 9.05426
      vertex 17.5511 -23.9649 9.05302
      vertex 17.5594 -23.9697 9.13273
    endloop
  endfacet
  facet normal 0.30792 0.951068 0.025604
    outer loop
      vertex 17.5511 -23.9649 9.05302
      vertex 17.5445 -23.9649 9.13149
      vertex 17.5594 -23.9697 9.13273
    endloop
  endfacet
  facet normal -0.0829137 -9.09634e-6 0.996557
    outer loop
      vertex 17.5594 -23.9697 9.13273
      vertex 17.5445 -23.9649 9.13149
      vertex 17.529 -24.0039 9.1302
    endloop
  endfacet
  facet normal 0.498287 0.866021 0.041445
    outer loop
      vertex 17.5794 -23.9775 9.05538
      vertex 17.5659 -23.9697 9.05426
      vertex 17.5729 -23.9775 9.13385
    endloop
  endfacet
  facet normal 0.498287 0.866021 0.041445
    outer loop
      vertex 17.5659 -23.9697 9.05426
      vertex 17.5594 -23.9697 9.13273
      vertex 17.5729 -23.9775 9.13385
    endloop
  endfacet
  facet normal 0.652463 0.755875 0.0542689
    outer loop
      vertex 17.5568 -24.0049 9.0535
      vertex 17.5652 -24.0123 9.0542
      vertex 17.5731 -24.0049 8.85733
    endloop
  endfacet
  facet normal 0.652541 0.755807 0.0542695
    outer loop
      vertex 17.5652 -24.0123 9.0542
      vertex 17.5815 -24.0123 8.85803
      vertex 17.5731 -24.0049 8.85733
    endloop
  endfacet
  facet normal -0.308062 -0.951021 -0.025623
    outer loop
      vertex 17.5052 -24.1064 9.04921
      vertex 17.5201 -24.1112 9.05045
      vertex 17.4987 -24.1064 9.12768
    endloop
  endfacet
  facet normal -0.308027 -0.951033 -0.0256129
    outer loop
      vertex 17.5201 -24.1112 9.05045
      vertex 17.5135 -24.1112 9.12892
      vertex 17.4987 -24.1064 9.12768
    endloop
  endfacet
  facet normal -0.0829365 0 0.996555
    outer loop
      vertex 17.529 -24.1128 9.1302
      vertex 17.5445 -24.1112 9.13149
      vertex 17.529 -24.0721 9.1302
    endloop
  endfacet
  facet normal -0.0829137 9.09556e-6 0.996557
    outer loop
      vertex 17.5445 -24.1112 9.13149
      vertex 17.5594 -24.1064 9.13273
      vertex 17.529 -24.0721 9.1302
    endloop
  endfacet
  facet normal -0.0829214 2.17732e-6 0.996556
    outer loop
      vertex 17.529 -24.0721 9.1302
      vertex 17.5594 -24.1064 9.13273
      vertex 17.5585 -24.0551 9.13265
    endloop
  endfacet
  facet normal -0.0828652 3.16473e-6 0.996561
    outer loop
      vertex 17.5594 -24.1064 9.13273
      vertex 17.5729 -24.0986 9.13385
      vertex 17.5585 -24.0551 9.13265
    endloop
  endfacet
  facet normal -0.0828734 4.25576e-7 0.99656
    outer loop
      vertex 17.5585 -24.0551 9.13265
      vertex 17.5729 -24.0986 9.13385
      vertex 17.5844 -24.0881 9.13481
    endloop
  endfacet
  facet normal -0.0828175 0 0.996565
    outer loop
      vertex 17.5135 -24.1112 9.12892
      vertex 17.529 -24.1128 9.1302
      vertex 17.529 -24.0721 9.1302
    endloop
  endfacet
  facet normal -0.0829001 3.29698e-5 0.996558
    outer loop
      vertex 17.4987 -24.1064 9.12768
      vertex 17.5135 -24.1112 9.12892
      vertex 17.529 -24.0721 9.1302
    endloop
  endfacet
  facet normal -0.498198 -0.866073 -0.0414381
    outer loop
      vertex 17.4917 -24.0986 9.04809
      vertex 17.5052 -24.1064 9.04921
      vertex 17.4852 -24.0986 9.12656
    endloop
  endfacet
  facet normal -0.498196 -0.866074 -0.0414375
    outer loop
      vertex 17.5052 -24.1064 9.04921
      vertex 17.4987 -24.1064 9.12768
      vertex 17.4852 -24.0986 9.12656
    endloop
  endfacet
  facet normal -0.652554 -0.755796 -0.0542701
    outer loop
      vertex 17.5143 -24.0712 9.04997
      vertex 17.5059 -24.0638 9.04927
      vertex 17.5307 -24.0712 8.8538
    endloop
  endfacet
  facet normal -0.652636 -0.755725 -0.054283
    outer loop
      vertex 17.5059 -24.0638 9.04927
      vertex 17.5222 -24.0638 8.8531
      vertex 17.5307 -24.0712 8.8538
    endloop
  endfacet
  facet normal 0.498198 -0.866073 0.0414376
    outer loop
      vertex 17.5659 -24.1064 9.05426
      vertex 17.5794 -24.0986 9.05538
      vertex 17.5594 -24.1064 9.13273
    endloop
  endfacet
  facet normal 0.498198 -0.866073 0.0414376
    outer loop
      vertex 17.5794 -24.0986 9.05538
      vertex 17.5729 -24.0986 9.13385
      vertex 17.5594 -24.1064 9.13273
    endloop
  endfacet
  facet normal 0.0829015 1.92179e-5 -0.996558
    outer loop
      vertex 17.5815 -24.0638 8.85803
      vertex 17.5731 -24.0712 8.85733
      vertex 17.5519 -24.038 8.85556
    endloop
  endfacet
  facet normal 0.652636 -0.755725 0.0542833
    outer loop
      vertex 17.5731 -24.0712 8.85733
      vertex 17.5815 -24.0638 8.85803
      vertex 17.5568 -24.0712 9.0535
    endloop
  endfacet
  facet normal 0.652558 -0.755793 0.0542709
    outer loop
      vertex 17.5815 -24.0638 8.85803
      vertex 17.5652 -24.0638 9.0542
      vertex 17.5568 -24.0712 9.0535
    endloop
  endfacet
  facet normal 0.08285 -6.8629e-5 -0.996562
    outer loop
      vertex 17.5568 -24.0712 9.0535
      vertex 17.5652 -24.0638 9.0542
      vertex 17.591 -24.0881 9.05634
    endloop
  endfacet
  facet normal 0.0829335 2.0559e-5 -0.996555
    outer loop
      vertex 17.5652 -24.0638 9.0542
      vertex 17.6001 -24.0754 9.05711
      vertex 17.591 -24.0881 9.05634
    endloop
  endfacet
  facet normal 0.0829208 2.06564e-5 -0.996556
    outer loop
      vertex 17.4802 -23.988 9.04713
      vertex 17.4917 -23.9775 9.04809
      vertex 17.5143 -24.0049 9.04997
    endloop
  endfacet
  facet normal -0.666823 0.743149 -0.0554638
    outer loop
      vertex 17.4917 -23.9775 9.04809
      vertex 17.4802 -23.988 9.04713
      vertex 17.4852 -23.9775 9.12656
    endloop
  endfacet
  facet normal -0.666826 0.743147 -0.0554633
    outer loop
      vertex 17.4802 -23.988 9.04713
      vertex 17.4736 -23.988 9.1256
      vertex 17.4852 -23.9775 9.12656
    endloop
  endfacet
  facet normal 0.082844 -8.33655e-5 -0.996563
    outer loop
      vertex 17.5162 -24.0217 8.85259
      vertex 17.5222 -24.0123 8.8531
      vertex 17.5519 -24.038 8.85556
    endloop
  endfacet
  facet normal -0.838434 0.540523 -0.0697368
    outer loop
      vertex 17.5222 -24.0123 8.8531
      vertex 17.5162 -24.0217 8.85259
      vertex 17.5059 -24.0123 9.04927
    endloop
  endfacet
  facet normal -0.838431 0.540527 -0.0697369
    outer loop
      vertex 17.5162 -24.0217 8.85259
      vertex 17.4999 -24.0217 9.04877
      vertex 17.5059 -24.0123 9.04927
    endloop
  endfacet
  facet normal -0.806216 0.587809 -0.0670571
    outer loop
      vertex 17.4802 -23.988 9.04713
      vertex 17.471 -24.0006 9.04637
      vertex 17.4736 -23.988 9.1256
    endloop
  endfacet
  facet normal -0.806216 0.587809 -0.0670571
    outer loop
      vertex 17.471 -24.0006 9.04637
      vertex 17.4645 -24.0006 9.12484
      vertex 17.4736 -23.988 9.1256
    endloop
  endfacet
  facet normal 0.0828981 -1.98222e-5 -0.996558
    outer loop
      vertex 17.5059 -24.0123 9.04927
      vertex 17.4999 -24.0217 9.04877
      vertex 17.471 -24.0006 9.04637
    endloop
  endfacet
  facet normal 0.0829035 -1.23611e-5 -0.996558
    outer loop
      vertex 17.4999 -24.0217 9.04877
      vertex 17.4647 -24.0149 9.04584
      vertex 17.471 -24.0006 9.04637
    endloop
  endfacet
  facet normal 0.498303 -0.866012 0.0414275
    outer loop
      vertex 17.529 -24.0039 9.1302
      vertex 17.4996 -24.021 9.12776
      vertex 17.5037 -24.021 9.07871
    endloop
  endfacet
  facet normal 0.498277 -0.866027 0.041445
    outer loop
      vertex 17.5331 -24.0039 9.08116
      vertex 17.529 -24.0039 9.1302
      vertex 17.5037 -24.021 9.07871
    endloop
  endfacet
  facet normal -0.4983 -0.866014 -0.0414469
    outer loop
      vertex 17.529 -24.0039 9.1302
      vertex 17.5331 -24.0039 9.08116
      vertex 17.5585 -24.021 9.13265
    endloop
  endfacet
  facet normal -0.498302 -0.866012 -0.0414455
    outer loop
      vertex 17.5331 -24.0039 9.08116
      vertex 17.5625 -24.021 9.08361
      vertex 17.5585 -24.021 9.13265
    endloop
  endfacet
  facet normal -0.0829214 -2.17732e-6 0.996556
    outer loop
      vertex 17.529 -24.0039 9.1302
      vertex 17.5585 -24.021 9.13265
      vertex 17.5594 -23.9697 9.13273
    endloop
  endfacet
  facet normal -0.0828652 -3.16473e-6 0.996561
    outer loop
      vertex 17.5585 -24.021 9.13265
      vertex 17.5729 -23.9775 9.13385
      vertex 17.5594 -23.9697 9.13273
    endloop
  endfacet
  facet normal 0.0829015 -1.9221e-5 -0.996558
    outer loop
      vertex 17.5731 -24.0049 8.85733
      vertex 17.5815 -24.0123 8.85803
      vertex 17.5519 -24.038 8.85556
    endloop
  endfacet
  facet normal 0.0828149 8.10013e-5 -0.996565
    outer loop
      vertex 17.5815 -24.0123 8.85803
      vertex 17.5876 -24.0217 8.85853
      vertex 17.5519 -24.038 8.85556
    endloop
  endfacet
  facet normal 0.0828978 -0.000101049 -0.996558
    outer loop
      vertex 17.5519 -24.038 8.85556
      vertex 17.5876 -24.0217 8.85853
      vertex 17.5907 -24.0324 8.85879
    endloop
  endfacet
  facet normal 0.0828149 -8.10094e-5 -0.996565
    outer loop
      vertex 17.5876 -24.0544 8.85853
      vertex 17.5815 -24.0638 8.85803
      vertex 17.5519 -24.038 8.85556
    endloop
  endfacet
  facet normal 0.838311 -0.540715 0.0697193
    outer loop
      vertex 17.5815 -24.0638 8.85803
      vertex 17.5876 -24.0544 8.85853
      vertex 17.5652 -24.0638 9.0542
    endloop
  endfacet
  facet normal 0.838305 -0.540725 0.0697182
    outer loop
      vertex 17.5876 -24.0544 8.85853
      vertex 17.5713 -24.0544 9.0547
      vertex 17.5652 -24.0638 9.0542
    endloop
  endfacet
  facet normal 0.0829128 -6.78903e-5 -0.996557
    outer loop
      vertex 17.5162 -24.0544 8.85259
      vertex 17.513 -24.0436 8.85233
      vertex 17.5519 -24.038 8.85556
    endloop
  endfacet
  facet normal 0.0829031 0 -0.996558
    outer loop
      vertex 17.513 -24.0436 8.85233
      vertex 17.513 -24.0324 8.85233
      vertex 17.5519 -24.038 8.85556
    endloop
  endfacet
  facet normal 0.0829128 6.78921e-5 -0.996557
    outer loop
      vertex 17.5519 -24.038 8.85556
      vertex 17.513 -24.0324 8.85233
      vertex 17.5162 -24.0217 8.85259
    endloop
  endfacet
  facet normal -0.956144 -0.281895 -0.0795183
    outer loop
      vertex 17.513 -24.0436 8.85233
      vertex 17.5162 -24.0544 8.85259
      vertex 17.4967 -24.0436 9.04851
    endloop
  endfacet
  facet normal -0.95619 -0.281736 -0.0795316
    outer loop
      vertex 17.5162 -24.0544 8.85259
      vertex 17.4999 -24.0544 9.04877
      vertex 17.4967 -24.0436 9.04851
    endloop
  endfacet
  facet normal -0.99656 0 -0.0828795
    outer loop
      vertex 17.513 -24.0324 8.85233
      vertex 17.513 -24.0436 8.85233
      vertex 17.4967 -24.0324 9.04851
    endloop
  endfacet
  facet normal -0.99656 0 -0.0828795
    outer loop
      vertex 17.513 -24.0436 8.85233
      vertex 17.4967 -24.0436 9.04851
      vertex 17.4967 -24.0324 9.04851
    endloop
  endfacet
  facet normal -0.956144 0.281895 -0.0795277
    outer loop
      vertex 17.5162 -24.0217 8.85259
      vertex 17.513 -24.0324 8.85233
      vertex 17.4999 -24.0217 9.04877
    endloop
  endfacet
  facet normal -0.956191 0.281736 -0.0795222
    outer loop
      vertex 17.513 -24.0324 8.85233
      vertex 17.4967 -24.0324 9.04851
      vertex 17.4999 -24.0217 9.04877
    endloop
  endfacet
  facet normal 0.082844 8.3374e-5 -0.996563
    outer loop
      vertex 17.5222 -24.0638 8.8531
      vertex 17.5162 -24.0544 8.85259
      vertex 17.5519 -24.038 8.85556
    endloop
  endfacet
  facet normal -0.838386 -0.540598 -0.0697332
    outer loop
      vertex 17.5162 -24.0544 8.85259
      vertex 17.5222 -24.0638 8.8531
      vertex 17.4999 -24.0544 9.04877
    endloop
  endfacet
  facet normal -0.838383 -0.540603 -0.0697326
    outer loop
      vertex 17.5222 -24.0638 8.8531
      vertex 17.5059 -24.0638 9.04927
      vertex 17.4999 -24.0544 9.04877
    endloop
  endfacet
  facet normal 0.83836 0.54064 0.0697227
    outer loop
      vertex 17.5876 -24.0217 8.85853
      vertex 17.5815 -24.0123 8.85803
      vertex 17.5713 -24.0217 9.0547
    endloop
  endfacet
  facet normal 0.838354 0.540649 0.0697228
    outer loop
      vertex 17.5815 -24.0123 8.85803
      vertex 17.5652 -24.0123 9.0542
      vertex 17.5713 -24.0217 9.0547
    endloop
  endfacet
  facet normal 0.0828978 0.000101047 -0.996558
    outer loop
      vertex 17.5907 -24.0436 8.85879
      vertex 17.5876 -24.0544 8.85853
      vertex 17.5519 -24.038 8.85556
    endloop
  endfacet
  facet normal 0.956234 -0.28159 0.0795257
    outer loop
      vertex 17.5876 -24.0544 8.85853
      vertex 17.5907 -24.0436 8.85879
      vertex 17.5713 -24.0544 9.0547
    endloop
  endfacet
  facet normal 0.956236 -0.281583 0.0795263
    outer loop
      vertex 17.5907 -24.0436 8.85879
      vertex 17.5744 -24.0436 9.05497
      vertex 17.5713 -24.0544 9.0547
    endloop
  endfacet
  facet normal 0.956234 0.28159 0.0795261
    outer loop
      vertex 17.5907 -24.0324 8.85879
      vertex 17.5876 -24.0217 8.85853
      vertex 17.5744 -24.0324 9.05497
    endloop
  endfacet
  facet normal 0.956236 0.281583 0.0795259
    outer loop
      vertex 17.5876 -24.0217 8.85853
      vertex 17.5713 -24.0217 9.0547
      vertex 17.5744 -24.0324 9.05497
    endloop
  endfacet
  facet normal 0.0828833 0 -0.996559
    outer loop
      vertex 17.5907 -24.0324 8.85879
      vertex 17.5907 -24.0436 8.85879
      vertex 17.5519 -24.038 8.85556
    endloop
  endfacet
  facet normal 0.99656 0 0.0828799
    outer loop
      vertex 17.5907 -24.0436 8.85879
      vertex 17.5907 -24.0324 8.85879
      vertex 17.5744 -24.0436 9.05497
    endloop
  endfacet
  facet normal 0.99656 0 0.0828799
    outer loop
      vertex 17.5907 -24.0324 8.85879
      vertex 17.5744 -24.0324 9.05497
      vertex 17.5744 -24.0436 9.05497
    endloop
  endfacet
  facet normal 0.666885 0.743094 0.0554682
    outer loop
      vertex 17.591 -23.988 9.05634
      vertex 17.5794 -23.9775 9.05538
      vertex 17.5844 -23.988 9.13481
    endloop
  endfacet
  facet normal 0.666885 0.743094 0.0554682
    outer loop
      vertex 17.5794 -23.9775 9.05538
      vertex 17.5729 -23.9775 9.13385
      vertex 17.5844 -23.988 9.13481
    endloop
  endfacet
  facet normal -0.0828734 -4.25607e-7 0.99656
    outer loop
      vertex 17.5844 -23.988 9.13481
      vertex 17.5729 -23.9775 9.13385
      vertex 17.5585 -24.021 9.13265
    endloop
  endfacet
  facet normal -0.0829084 4.04182e-5 0.996557
    outer loop
      vertex 17.4852 -24.0986 9.12656
      vertex 17.4987 -24.1064 9.12768
      vertex 17.529 -24.0721 9.1302
    endloop
  endfacet
  facet normal -0.4983 0.866014 -0.0414454
    outer loop
      vertex 17.529 -24.0721 9.1302
      vertex 17.5585 -24.0551 9.13265
      vertex 17.5625 -24.0551 9.08361
    endloop
  endfacet
  facet normal -0.498302 0.866012 -0.0414471
    outer loop
      vertex 17.5331 -24.0721 9.08116
      vertex 17.529 -24.0721 9.1302
      vertex 17.5625 -24.0551 9.08361
    endloop
  endfacet
  facet normal 0.498302 0.866012 0.0414471
    outer loop
      vertex 17.529 -24.0721 9.1302
      vertex 17.5331 -24.0721 9.08116
      vertex 17.4996 -24.0551 9.12776
    endloop
  endfacet
  facet normal 0.498279 0.866027 0.0414255
    outer loop
      vertex 17.5331 -24.0721 9.08116
      vertex 17.5037 -24.0551 9.07871
      vertex 17.4996 -24.0551 9.12776
    endloop
  endfacet
  facet normal -0.0828706 -2.2709e-5 0.99656
    outer loop
      vertex 17.529 -24.0721 9.1302
      vertex 17.4996 -24.0551 9.12776
      vertex 17.4852 -24.0986 9.12656
    endloop
  endfacet
  facet normal -0.082878 -2.0256e-5 0.99656
    outer loop
      vertex 17.4996 -24.0551 9.12776
      vertex 17.4736 -24.0881 9.1256
      vertex 17.4852 -24.0986 9.12656
    endloop
  endfacet
  facet normal -0.666889 -0.74309 -0.0554686
    outer loop
      vertex 17.4802 -24.0881 9.04713
      vertex 17.4917 -24.0986 9.04809
      vertex 17.4736 -24.0881 9.1256
    endloop
  endfacet
  facet normal -0.666891 -0.743087 -0.0554694
    outer loop
      vertex 17.4917 -24.0986 9.04809
      vertex 17.4852 -24.0986 9.12656
      vertex 17.4736 -24.0881 9.1256
    endloop
  endfacet
  facet normal 0.0828799 -7.69376e-6 -0.99656
    outer loop
      vertex 17.591 -24.0881 9.05634
      vertex 17.5794 -24.0986 9.05538
      vertex 17.5568 -24.0712 9.0535
    endloop
  endfacet
  facet normal 0.66695 -0.743034 0.0554736
    outer loop
      vertex 17.5794 -24.0986 9.05538
      vertex 17.591 -24.0881 9.05634
      vertex 17.5729 -24.0986 9.13385
    endloop
  endfacet
  facet normal 0.66695 -0.743034 0.0554736
    outer loop
      vertex 17.591 -24.0881 9.05634
      vertex 17.5844 -24.0881 9.13481
      vertex 17.5729 -24.0986 9.13385
    endloop
  endfacet
  facet normal 0.806157 -0.58789 0.0670522
    outer loop
      vertex 17.591 -24.0881 9.05634
      vertex 17.6001 -24.0754 9.05711
      vertex 17.5844 -24.0881 9.13481
    endloop
  endfacet
  facet normal 0.806162 -0.587883 0.0670542
    outer loop
      vertex 17.6001 -24.0754 9.05711
      vertex 17.5936 -24.0754 9.13557
      vertex 17.5844 -24.0881 9.13481
    endloop
  endfacet
  facet normal 0.0829386 3.61221e-5 -0.996555
    outer loop
      vertex 17.5652 -24.0638 9.0542
      vertex 17.5713 -24.0544 9.0547
      vertex 17.6001 -24.0754 9.05711
    endloop
  endfacet
  facet normal 0.082868 -6.1449e-5 -0.996561
    outer loop
      vertex 17.5713 -24.0544 9.0547
      vertex 17.6065 -24.0612 9.05763
      vertex 17.6001 -24.0754 9.05711
    endloop
  endfacet
  facet normal -0.996557 0 -0.0829124
    outer loop
      vertex 17.4549 -24.0459 9.12404
      vertex 17.4549 -24.0302 9.12404
      vertex 17.4614 -24.0459 9.04557
    endloop
  endfacet
  facet normal -0.996557 0 -0.0829124
    outer loop
      vertex 17.4549 -24.0302 9.12404
      vertex 17.4614 -24.0302 9.04557
      vertex 17.4614 -24.0459 9.04557
    endloop
  endfacet
  facet normal -0.082884 0 0.996559
    outer loop
      vertex 17.4549 -24.0302 9.12404
      vertex 17.4549 -24.0459 9.12404
      vertex 17.4996 -24.0551 9.12776
    endloop
  endfacet
  facet normal -0.0828896 -2.74274e-5 0.996559
    outer loop
      vertex 17.4549 -24.0459 9.12404
      vertex 17.4581 -24.0612 9.12431
      vertex 17.4996 -24.0551 9.12776
    endloop
  endfacet
  facet normal -0.0828925 -7.45818e-6 0.996558
    outer loop
      vertex 17.4996 -24.0551 9.12776
      vertex 17.4581 -24.0612 9.12431
      vertex 17.4645 -24.0754 9.12484
    endloop
  endfacet
  facet normal -0.0828896 2.74241e-5 0.996559
    outer loop
      vertex 17.4581 -24.0149 9.12431
      vertex 17.4549 -24.0302 9.12404
      vertex 17.4996 -24.021 9.12776
    endloop
  endfacet
  facet normal -0.082884 0 0.996559
    outer loop
      vertex 17.4549 -24.0302 9.12404
      vertex 17.4996 -24.0551 9.12776
      vertex 17.4996 -24.021 9.12776
    endloop
  endfacet
  facet normal -0.974768 0.207966 -0.0810996
    outer loop
      vertex 17.4549 -24.0302 9.12404
      vertex 17.4581 -24.0149 9.12431
      vertex 17.4614 -24.0302 9.04557
    endloop
  endfacet
  facet normal -0.974794 0.207852 -0.0810786
    outer loop
      vertex 17.4581 -24.0149 9.12431
      vertex 17.4647 -24.0149 9.04584
      vertex 17.4614 -24.0302 9.04557
    endloop
  endfacet
  facet normal 0.0828975 0 -0.996558
    outer loop
      vertex 17.4614 -24.0459 9.04557
      vertex 17.4614 -24.0302 9.04557
      vertex 17.4967 -24.0324 9.04851
    endloop
  endfacet
  facet normal 0.0828964 -1.87649e-5 -0.996558
    outer loop
      vertex 17.4614 -24.0302 9.04557
      vertex 17.4647 -24.0149 9.04584
      vertex 17.4967 -24.0324 9.04851
    endloop
  endfacet
  facet normal 0.0829055 -1.91557e-6 -0.996557
    outer loop
      vertex 17.4967 -24.0324 9.04851
      vertex 17.4647 -24.0149 9.04584
      vertex 17.4999 -24.0217 9.04877
    endloop
  endfacet
  facet normal 0.0828964 1.87671e-5 -0.996558
    outer loop
      vertex 17.4647 -24.0612 9.04584
      vertex 17.4614 -24.0459 9.04557
      vertex 17.4967 -24.0436 9.04851
    endloop
  endfacet
  facet normal 0.0828975 0 -0.996558
    outer loop
      vertex 17.4614 -24.0459 9.04557
      vertex 17.4967 -24.0324 9.04851
      vertex 17.4967 -24.0436 9.04851
    endloop
  endfacet
  facet normal -0.974787 -0.207877 -0.0811011
    outer loop
      vertex 17.4614 -24.0459 9.04557
      vertex 17.4647 -24.0612 9.04584
      vertex 17.4549 -24.0459 9.12404
    endloop
  endfacet
  facet normal -0.974765 -0.20799 -0.0810762
    outer loop
      vertex 17.4647 -24.0612 9.04584
      vertex 17.4581 -24.0612 9.12431
      vertex 17.4549 -24.0459 9.12404
    endloop
  endfacet
  facet normal 0.996562 0 0.0828513
    outer loop
      vertex 17.4996 -24.0551 9.12776
      vertex 17.5037 -24.0551 9.07871
      vertex 17.4996 -24.021 9.12776
    endloop
  endfacet
  facet normal 0.996562 0 0.0828513
    outer loop
      vertex 17.5037 -24.0551 9.07871
      vertex 17.5037 -24.021 9.07871
      vertex 17.4996 -24.021 9.12776
    endloop
  endfacet
  facet normal -0.0828925 7.45818e-6 0.996558
    outer loop
      vertex 17.4645 -24.0006 9.12484
      vertex 17.4581 -24.0149 9.12431
      vertex 17.4996 -24.021 9.12776
    endloop
  endfacet
  facet normal -0.910409 0.406721 -0.0757233
    outer loop
      vertex 17.4581 -24.0149 9.12431
      vertex 17.4645 -24.0006 9.12484
      vertex 17.4647 -24.0149 9.04584
    endloop
  endfacet
  facet normal -0.910409 0.406721 -0.0757233
    outer loop
      vertex 17.4645 -24.0006 9.12484
      vertex 17.471 -24.0006 9.04637
      vertex 17.4647 -24.0149 9.04584
    endloop
  endfacet
  facet normal -0.910409 -0.406721 -0.0757233
    outer loop
      vertex 17.4647 -24.0612 9.04584
      vertex 17.471 -24.0754 9.04637
      vertex 17.4581 -24.0612 9.12431
    endloop
  endfacet
  facet normal -0.910409 -0.406721 -0.0757233
    outer loop
      vertex 17.471 -24.0754 9.04637
      vertex 17.4645 -24.0754 9.12484
      vertex 17.4581 -24.0612 9.12431
    endloop
  endfacet
  facet normal 0.0829055 1.9156e-6 -0.996557
    outer loop
      vertex 17.4967 -24.0436 9.04851
      vertex 17.4999 -24.0544 9.04877
      vertex 17.4647 -24.0612 9.04584
    endloop
  endfacet
  facet normal -0.0828837 0 0.996559
    outer loop
      vertex 17.5037 -24.0551 9.07871
      vertex 17.5331 -24.0721 9.08116
      vertex 17.5037 -24.021 9.07871
    endloop
  endfacet
  facet normal -0.0828641 1.13468e-5 0.996561
    outer loop
      vertex 17.5331 -24.0721 9.08116
      vertex 17.5625 -24.0551 9.08361
      vertex 17.5037 -24.021 9.07871
    endloop
  endfacet
  facet normal -0.0828771 -1.13464e-5 0.99656
    outer loop
      vertex 17.5037 -24.021 9.07871
      vertex 17.5625 -24.0551 9.08361
      vertex 17.5331 -24.0039 9.08116
    endloop
  endfacet
  facet normal -0.0828575 0 0.996561
    outer loop
      vertex 17.5625 -24.0551 9.08361
      vertex 17.5625 -24.021 9.08361
      vertex 17.5331 -24.0039 9.08116
    endloop
  endfacet
  facet normal -0.806216 -0.587809 -0.0670571
    outer loop
      vertex 17.4736 -24.0881 9.1256
      vertex 17.4645 -24.0754 9.12484
      vertex 17.4802 -24.0881 9.04713
    endloop
  endfacet
  facet normal -0.806216 -0.587809 -0.0670571
    outer loop
      vertex 17.4645 -24.0754 9.12484
      vertex 17.471 -24.0754 9.04637
      vertex 17.4802 -24.0881 9.04713
    endloop
  endfacet
  facet normal -0.0828912 -9.77654e-6 0.996559
    outer loop
      vertex 17.4645 -24.0754 9.12484
      vertex 17.4736 -24.0881 9.1256
      vertex 17.4996 -24.0551 9.12776
    endloop
  endfacet
  facet normal -0.0828912 9.77654e-6 0.996559
    outer loop
      vertex 17.4736 -23.988 9.1256
      vertex 17.4645 -24.0006 9.12484
      vertex 17.4996 -24.021 9.12776
    endloop
  endfacet
  facet normal -0.996559 0 -0.0828873
    outer loop
      vertex 17.5625 -24.0551 9.08361
      vertex 17.5585 -24.0551 9.13265
      vertex 17.5625 -24.021 9.08361
    endloop
  endfacet
  facet normal -0.996559 0 -0.0828873
    outer loop
      vertex 17.5585 -24.0551 9.13265
      vertex 17.5585 -24.021 9.13265
      vertex 17.5625 -24.021 9.08361
    endloop
  endfacet
  facet normal -0.0828668 0 0.996561
    outer loop
      vertex 17.5585 -24.021 9.13265
      vertex 17.5585 -24.0551 9.13265
      vertex 17.6032 -24.0459 9.13637
    endloop
  endfacet
  facet normal -0.0828717 2.35926e-5 0.99656
    outer loop
      vertex 17.5585 -24.0551 9.13265
      vertex 17.5999 -24.0612 9.1361
      vertex 17.6032 -24.0459 9.13637
    endloop
  endfacet
  facet normal 0.974765 -0.20799 0.0810771
    outer loop
      vertex 17.6032 -24.0459 9.13637
      vertex 17.5999 -24.0612 9.1361
      vertex 17.6097 -24.0459 9.0579
    endloop
  endfacet
  facet normal 0.974786 -0.207881 0.0811011
    outer loop
      vertex 17.5999 -24.0612 9.1361
      vertex 17.6065 -24.0612 9.05763
      vertex 17.6097 -24.0459 9.0579
    endloop
  endfacet
  facet normal 0.996559 0 0.0828898
    outer loop
      vertex 17.6032 -24.0302 9.13637
      vertex 17.6032 -24.0459 9.13637
      vertex 17.6097 -24.0302 9.0579
    endloop
  endfacet
  facet normal 0.996559 0 0.0828898
    outer loop
      vertex 17.6032 -24.0459 9.13637
      vertex 17.6097 -24.0459 9.0579
      vertex 17.6097 -24.0302 9.0579
    endloop
  endfacet
  facet normal -0.0828668 0 0.996561
    outer loop
      vertex 17.6032 -24.0459 9.13637
      vertex 17.6032 -24.0302 9.13637
      vertex 17.5585 -24.021 9.13265
    endloop
  endfacet
  facet normal -0.0828717 -2.35898e-5 0.99656
    outer loop
      vertex 17.6032 -24.0302 9.13637
      vertex 17.5999 -24.0149 9.1361
      vertex 17.5585 -24.021 9.13265
    endloop
  endfacet
  facet normal -0.0828855 7.14681e-5 0.996559
    outer loop
      vertex 17.5585 -24.021 9.13265
      vertex 17.5999 -24.0149 9.1361
      vertex 17.5936 -24.0006 9.13557
    endloop
  endfacet
  facet normal -0.0828195 4.30988e-5 0.996565
    outer loop
      vertex 17.5844 -24.0881 9.13481
      vertex 17.5936 -24.0754 9.13557
      vertex 17.5585 -24.0551 9.13265
    endloop
  endfacet
  facet normal -0.0828855 -7.14681e-5 0.996559
    outer loop
      vertex 17.5936 -24.0754 9.13557
      vertex 17.5999 -24.0612 9.1361
      vertex 17.5585 -24.0551 9.13265
    endloop
  endfacet
  facet normal 0.910449 -0.406626 0.0757483
    outer loop
      vertex 17.5999 -24.0612 9.1361
      vertex 17.5936 -24.0754 9.13557
      vertex 17.6065 -24.0612 9.05763
    endloop
  endfacet
  facet normal 0.91041 -0.406717 0.0757253
    outer loop
      vertex 17.5936 -24.0754 9.13557
      vertex 17.6001 -24.0754 9.05711
      vertex 17.6065 -24.0612 9.05763
    endloop
  endfacet
  facet normal 0.974768 0.207966 0.0810996
    outer loop
      vertex 17.5999 -24.0149 9.1361
      vertex 17.6032 -24.0302 9.13637
      vertex 17.6065 -24.0149 9.05763
    endloop
  endfacet
  facet normal 0.974793 0.207857 0.0810795
    outer loop
      vertex 17.6032 -24.0302 9.13637
      vertex 17.6097 -24.0302 9.0579
      vertex 17.6065 -24.0149 9.05763
    endloop
  endfacet
  facet normal -0.0828195 -4.30988e-5 0.996565
    outer loop
      vertex 17.5936 -24.0006 9.13557
      vertex 17.5844 -23.988 9.13481
      vertex 17.5585 -24.021 9.13265
    endloop
  endfacet
  facet normal 0.806162 0.587883 0.0670526
    outer loop
      vertex 17.5844 -23.988 9.13481
      vertex 17.5936 -24.0006 9.13557
      vertex 17.591 -23.988 9.05634
    endloop
  endfacet
  facet normal 0.806157 0.58789 0.0670538
    outer loop
      vertex 17.5936 -24.0006 9.13557
      vertex 17.6001 -24.0006 9.05711
      vertex 17.591 -23.988 9.05634
    endloop
  endfacet
  facet normal 0.910451 0.406626 0.0757286
    outer loop
      vertex 17.5936 -24.0006 9.13557
      vertex 17.5999 -24.0149 9.1361
      vertex 17.6001 -24.0006 9.05711
    endloop
  endfacet
  facet normal 0.910409 0.406717 0.0757449
    outer loop
      vertex 17.5999 -24.0149 9.1361
      vertex 17.6065 -24.0149 9.05763
      vertex 17.6001 -24.0006 9.05711
    endloop
  endfacet
  facet normal 0.0828958 4.2035e-5 -0.996558
    outer loop
      vertex 17.6097 -24.0459 9.0579
      vertex 17.6065 -24.0612 9.05763
      vertex 17.5744 -24.0436 9.05497
    endloop
  endfacet
  facet normal 0.0828833 1.89836e-5 -0.996559
    outer loop
      vertex 17.6065 -24.0612 9.05763
      vertex 17.5713 -24.0544 9.0547
      vertex 17.5744 -24.0436 9.05497
    endloop
  endfacet
  facet normal 0.0828932 0 -0.996558
    outer loop
      vertex 17.6097 -24.0302 9.0579
      vertex 17.6097 -24.0459 9.0579
      vertex 17.5744 -24.0436 9.05497
    endloop
  endfacet
  facet normal 0.0828958 -4.203e-5 -0.996558
    outer loop
      vertex 17.6065 -24.0149 9.05763
      vertex 17.6097 -24.0302 9.0579
      vertex 17.5744 -24.0324 9.05497
    endloop
  endfacet
  facet normal 0.0828932 0 -0.996558
    outer loop
      vertex 17.6097 -24.0302 9.0579
      vertex 17.5744 -24.0436 9.05497
      vertex 17.5744 -24.0324 9.05497
    endloop
  endfacet
  facet normal 0.0828833 -1.89834e-5 -0.996559
    outer loop
      vertex 17.5744 -24.0324 9.05497
      vertex 17.5713 -24.0217 9.0547
      vertex 17.6065 -24.0149 9.05763
    endloop
  endfacet
endsolid Onshape
