solid Onshape
  facet normal -0.251977 -0.967733 0
    outer loop
      vertex 18.0542 -23.0946 2.215
      vertex 18.2594 -23.148 2.215
      vertex 18.2594 -23.148 3.85326
    endloop
  endfacet
  facet normal -0.127179 -0.99188 0
    outer loop
      vertex 18.2594 -23.148 2.215
      vertex 18.3642 -23.1615 3.85008
      vertex 18.2594 -23.148 3.85326
    endloop
  endfacet
  facet normal 0 0 -1
    outer loop
      vertex 18.2594 -23.148 2.215
      vertex 18.0542 -23.0946 2.215
      vertex 18.0654 -23.0295 2.215
    endloop
  endfacet
  facet normal 0 0 -1
    outer loop
      vertex 18.0542 -23.0946 2.215
      vertex 17.8781 -22.9422 2.215
      vertex 18.0654 -23.0295 2.215
    endloop
  endfacet
  facet normal 0 0 -1
    outer loop
      vertex 18.4706 -23.166 2.215
      vertex 18.2594 -23.148 2.215
      vertex 18.2649 -23.083 2.215
    endloop
  endfacet
  facet normal 0 0 -1
    outer loop
      vertex 18.2594 -23.148 2.215
      vertex 18.0654 -23.0295 2.215
      vertex 18.2649 -23.083 2.215
    endloop
  endfacet
  facet normal -0.0848056 -0.996398 0
    outer loop
      vertex 18.2594 -23.148 2.215
      vertex 18.4706 -23.166 2.215
      vertex 18.4706 -23.166 3.849
    endloop
  endfacet
  facet normal 0.0424502 -0.999099 0
    outer loop
      vertex 18.4706 -23.166 2.215
      vertex 18.5767 -23.1615 3.85007
      vertex 18.4706 -23.166 3.849
    endloop
  endfacet
  facet normal -0.0101351 0.000382134 0.999949
    outer loop
      vertex 18.4706 -23.166 3.849
      vertex 18.5767 -23.1615 3.85007
      vertex 18.5742 -23.0965 3.85002
    endloop
  endfacet
  facet normal -0.0294551 -0.000370841 0.999566
    outer loop
      vertex 18.5767 -23.1615 3.85007
      vertex 18.6764 -23.083 3.85304
      vertex 18.5742 -23.0965 3.85002
    endloop
  endfacet
  facet normal 0.0101563 0 0.999948
    outer loop
      vertex 18.3642 -23.1615 3.85008
      vertex 18.4706 -23.166 3.849
      vertex 18.4706 -23.101 3.849
    endloop
  endfacet
  facet normal -0.00987842 0 0.999951
    outer loop
      vertex 18.4706 -23.166 3.849
      vertex 18.5742 -23.0965 3.85002
      vertex 18.4706 -23.101 3.849
    endloop
  endfacet
  facet normal -0.0426565 -0.999075 -0.00547871
    outer loop
      vertex 18.4706 -23.166 3.849
      vertex 18.3642 -23.1615 3.85008
      vertex 18.2594 -23.148 2.215
    endloop
  endfacet
  facet normal 0.0302498 -0.000426534 0.999542
    outer loop
      vertex 18.2594 -23.148 3.85326
      vertex 18.3642 -23.1615 3.85008
      vertex 18.367 -23.0964 3.85003
    endloop
  endfacet
  facet normal 0.00991142 0.000431056 0.999951
    outer loop
      vertex 18.3642 -23.1615 3.85008
      vertex 18.4706 -23.101 3.849
      vertex 18.367 -23.0964 3.85003
    endloop
  endfacet
  facet normal 0 0 -1
    outer loop
      vertex 18.6819 -23.148 2.215
      vertex 18.4706 -23.166 2.215
      vertex 18.4706 -23.101 2.215
    endloop
  endfacet
  facet normal 0 0 -1
    outer loop
      vertex 18.4706 -23.166 2.215
      vertex 18.2649 -23.083 2.215
      vertex 18.4706 -23.101 2.215
    endloop
  endfacet
  facet normal 0.0848053 -0.996394 -0.00275448
    outer loop
      vertex 18.4706 -23.166 2.215
      vertex 18.6819 -23.148 2.215
      vertex 18.5767 -23.1615 3.85007
    endloop
  endfacet
  facet normal 0.127039 -0.991898 0
    outer loop
      vertex 18.6819 -23.148 2.215
      vertex 18.6819 -23.148 3.85326
      vertex 18.5767 -23.1615 3.85007
    endloop
  endfacet
  facet normal -0.0437739 0.999026 0.00549527
    outer loop
      vertex 18.4706 -23.101 3.849
      vertex 18.5742 -23.0965 3.85002
      vertex 18.6764 -23.083 2.215
    endloop
  endfacet
  facet normal -0.130635 0.99143 0
    outer loop
      vertex 18.5742 -23.0965 3.85002
      vertex 18.6764 -23.083 3.85304
      vertex 18.6764 -23.083 2.215
    endloop
  endfacet
  facet normal -0.258822 0.965925 0
    outer loop
      vertex 18.6764 -23.083 2.215
      vertex 18.6764 -23.083 3.85304
      vertex 18.8759 -23.0295 2.215
    endloop
  endfacet
  facet normal -0.216736 0.976215 0.00546205
    outer loop
      vertex 18.6764 -23.083 3.85304
      vertex 18.7774 -23.0606 3.85799
      vertex 18.8759 -23.0295 2.215
    endloop
  endfacet
  facet normal -0.300745 0.953705 0
    outer loop
      vertex 18.8759 -23.0295 2.215
      vertex 18.7774 -23.0606 3.85799
      vertex 18.8759 -23.0295 3.86469
    endloop
  endfacet
  facet normal 0.0437971 0.99904 0
    outer loop
      vertex 18.367 -23.0964 3.85003
      vertex 18.4706 -23.101 3.849
      vertex 18.4706 -23.101 2.215
    endloop
  endfacet
  facet normal -0.0871627 0.996194 0
    outer loop
      vertex 18.4706 -23.101 3.849
      vertex 18.6764 -23.083 2.215
      vertex 18.4706 -23.101 2.215
    endloop
  endfacet
  facet normal -0.0303744 0.000798207 0.999538
    outer loop
      vertex 18.5767 -23.1615 3.85007
      vertex 18.6819 -23.148 3.85326
      vertex 18.6764 -23.083 3.85304
    endloop
  endfacet
  facet normal -0.0487389 -0.000751398 0.998811
    outer loop
      vertex 18.6819 -23.148 3.85326
      vertex 18.7774 -23.0606 3.85799
      vertex 18.6764 -23.083 3.85304
    endloop
  endfacet
  facet normal 0.0499878 -0.000856819 0.998749
    outer loop
      vertex 18.156 -23.1257 3.85845
      vertex 18.2594 -23.148 3.85326
      vertex 18.2649 -23.083 3.85304
    endloop
  endfacet
  facet normal 0.0296334 0.000860715 0.99956
    outer loop
      vertex 18.2594 -23.148 3.85326
      vertex 18.367 -23.0964 3.85003
      vertex 18.2649 -23.083 3.85304
    endloop
  endfacet
  facet normal -0.210805 -0.977513 -0.00547523
    outer loop
      vertex 18.2594 -23.148 3.85326
      vertex 18.156 -23.1257 3.85845
      vertex 18.0542 -23.0946 2.215
    endloop
  endfacet
  facet normal -0.292691 -0.956207 8.3694e-7
    outer loop
      vertex 18.156 -23.1257 3.85845
      vertex 18.0542 -23.0946 3.86557
      vertex 18.0542 -23.0946 2.215
    endloop
  endfacet
  facet normal -0.411902 -0.911228 1.97312e-7
    outer loop
      vertex 18.0542 -23.0946 2.215
      vertex 18.0542 -23.0946 3.86557
      vertex 17.861 -23.0073 2.215
    endloop
  endfacet
  facet normal -0.339339 -0.940611 -0.0100474
    outer loop
      vertex 18.0542 -23.0946 3.86557
      vertex 18.0402 -23.0895 3.8667
      vertex 17.861 -23.0073 2.215
    endloop
  endfacet
  facet normal -0.381604 -0.924314 -0.00465028
    outer loop
      vertex 17.861 -23.0073 2.215
      vertex 18.0402 -23.0895 3.8667
      vertex 17.9487 -23.0518 3.87505
    endloop
  endfacet
  facet normal 0.258821 0.965921 0.00274458
    outer loop
      vertex 18.2649 -23.083 2.215
      vertex 18.0654 -23.0295 2.215
      vertex 18.1643 -23.0607 3.85796
    endloop
  endfacet
  facet normal 0.300573 0.953759 -8.55018e-7
    outer loop
      vertex 18.0654 -23.0295 2.215
      vertex 18.0653 -23.0295 3.8647
      vertex 18.1643 -23.0607 3.85796
    endloop
  endfacet
  facet normal 0.0871624 0.99619 0.00275756
    outer loop
      vertex 18.4706 -23.101 2.215
      vertex 18.2649 -23.083 2.215
      vertex 18.367 -23.0964 3.85003
    endloop
  endfacet
  facet normal 0.130692 0.991423 0
    outer loop
      vertex 18.2649 -23.083 2.215
      vertex 18.2649 -23.083 3.85304
      vertex 18.367 -23.0964 3.85003
    endloop
  endfacet
  facet normal 0 0 -1
    outer loop
      vertex 18.0542 -23.0946 2.215
      vertex 17.861 -23.0073 2.215
      vertex 17.8781 -22.9422 2.215
    endloop
  endfacet
  facet normal 0 0 -1
    outer loop
      vertex 17.861 -23.0073 2.215
      vertex 17.7089 -22.8238 2.215
      vertex 17.8781 -22.9422 2.215
    endloop
  endfacet
  facet normal 0.422613 0.90631 0.00123382
    outer loop
      vertex 18.0654 -23.0295 2.215
      vertex 17.8781 -22.9422 2.215
      vertex 18.0402 -23.0201 3.8667
    endloop
  endfacet
  facet normal 0.398727 0.917061 0.00408411
    outer loop
      vertex 17.8781 -22.9422 2.215
      vertex 17.9575 -22.9841 3.87418
      vertex 18.0402 -23.0201 3.8667
    endloop
  endfacet
  facet normal 0 0 -1
    outer loop
      vertex 18.8871 -23.0946 2.215
      vertex 18.6819 -23.148 2.215
      vertex 18.6764 -23.083 2.215
    endloop
  endfacet
  facet normal 0 0 -1
    outer loop
      vertex 18.6819 -23.148 2.215
      vertex 18.4706 -23.101 2.215
      vertex 18.6764 -23.083 2.215
    endloop
  endfacet
  facet normal 0.251976 -0.96773 -0.00273969
    outer loop
      vertex 18.6819 -23.148 2.215
      vertex 18.8871 -23.0946 2.215
      vertex 18.7859 -23.1256 3.85849
    endloop
  endfacet
  facet normal 0.292925 -0.956135 0
    outer loop
      vertex 18.8871 -23.0946 2.215
      vertex 18.8871 -23.0946 3.86557
      vertex 18.7859 -23.1256 3.85849
    endloop
  endfacet
  facet normal 0 0 -1
    outer loop
      vertex 18.6764 -23.083 2.215
      vertex 18.8759 -23.0295 2.215
      vertex 18.8871 -23.0946 2.215
    endloop
  endfacet
  facet normal 0 0 -1
    outer loop
      vertex 18.8759 -23.0295 2.215
      vertex 19.0803 -23.0073 2.215
      vertex 18.8871 -23.0946 2.215
    endloop
  endfacet
  facet normal 0.210792 -0.977531 0
    outer loop
      vertex 18.7859 -23.1256 3.85849
      vertex 18.6819 -23.148 3.85326
      vertex 18.6819 -23.148 2.215
    endloop
  endfacet
  facet normal -0.050475 0.00115059 0.998725
    outer loop
      vertex 18.6819 -23.148 3.85326
      vertex 18.7859 -23.1256 3.85849
      vertex 18.7774 -23.0606 3.85799
    endloop
  endfacet
  facet normal -0.0675953 -0.00108312 0.997712
    outer loop
      vertex 18.7859 -23.1256 3.85849
      vertex 18.8759 -23.0295 3.86469
      vertex 18.7774 -23.0606 3.85799
    endloop
  endfacet
  facet normal 0.0693529 -0.00129214 0.997591
    outer loop
      vertex 18.0542 -23.0946 3.86557
      vertex 18.156 -23.1257 3.85845
      vertex 18.1643 -23.0607 3.85796
    endloop
  endfacet
  facet normal 0.0491461 0.00129103 0.998791
    outer loop
      vertex 18.156 -23.1257 3.85845
      vertex 18.2649 -23.083 3.85304
      vertex 18.1643 -23.0607 3.85796
    endloop
  endfacet
  facet normal 0.216289 0.976329 0
    outer loop
      vertex 18.1643 -23.0607 3.85796
      vertex 18.2649 -23.083 3.85304
      vertex 18.2649 -23.083 2.215
    endloop
  endfacet
  facet normal 0.0684331 0.00171116 0.997654
    outer loop
      vertex 18.1643 -23.0607 3.85796
      vertex 18.0653 -23.0295 3.8647
      vertex 18.0542 -23.0946 3.86557
    endloop
  endfacet
  facet normal 0.08064 -0.000388407 0.996743
    outer loop
      vertex 18.0653 -23.0295 3.8647
      vertex 18.0402 -23.0895 3.8667
      vertex 18.0542 -23.0946 3.86557
    endloop
  endfacet
  facet normal 0.573577 0.819147 0.0026875
    outer loop
      vertex 17.8781 -22.9422 2.215
      vertex 17.7089 -22.8238 2.215
      vertex 17.7912 -22.8869 3.89322
    endloop
  endfacet
  facet normal 0.608652 0.793437 0
    outer loop
      vertex 17.7089 -22.8238 2.215
      vertex 17.7089 -22.8238 3.90465
      vertex 17.7912 -22.8869 3.89322
    endloop
  endfacet
  facet normal 0.0904921 0.00108705 0.995897
    outer loop
      vertex 18.0402 -23.0201 3.8667
      vertex 17.9575 -22.9841 3.87418
      vertex 17.9487 -23.0518 3.87505
    endloop
  endfacet
  facet normal 0.107389 -0.00113176 0.994216
    outer loop
      vertex 17.9575 -22.9841 3.87418
      vertex 17.861 -23.0073 3.88458
      vertex 17.9487 -23.0518 3.87505
    endloop
  endfacet
  facet normal 0.0797181 0 0.996817
    outer loop
      vertex 18.0653 -23.0295 3.8647
      vertex 18.0402 -23.0201 3.8667
      vertex 18.0402 -23.0895 3.8667
    endloop
  endfacet
  facet normal 0.0908663 0 0.995863
    outer loop
      vertex 18.0402 -23.0201 3.8667
      vertex 17.9487 -23.0518 3.87505
      vertex 18.0402 -23.0895 3.8667
    endloop
  endfacet
  facet normal 0.352621 0.935766 -3.82708e-7
    outer loop
      vertex 18.0402 -23.0201 3.8667
      vertex 18.0653 -23.0295 3.8647
      vertex 18.0654 -23.0295 2.215
    endloop
  endfacet
  facet normal -0.559974 -0.82851 0
    outer loop
      vertex 17.6854 -22.8885 2.215
      vertex 17.861 -23.0073 2.215
      vertex 17.861 -23.0073 3.88458
    endloop
  endfacet
  facet normal -0.452984 -0.891518 0
    outer loop
      vertex 17.861 -23.0073 2.215
      vertex 17.9487 -23.0518 3.87505
      vertex 17.861 -23.0073 3.88458
    endloop
  endfacet
  facet normal 0 0 -1
    outer loop
      vertex 17.861 -23.0073 2.215
      vertex 17.6854 -22.8885 2.215
      vertex 17.7089 -22.8238 2.215
    endloop
  endfacet
  facet normal 0 0 -1
    outer loop
      vertex 17.6854 -22.8885 2.215
      vertex 17.5629 -22.6777 2.215
      vertex 17.7089 -22.8238 2.215
    endloop
  endfacet
  facet normal 0.411904 -0.911223 -0.00270095
    outer loop
      vertex 18.8871 -23.0946 2.215
      vertex 19.0803 -23.0073 2.215
      vertex 18.992 -23.0521 3.875
    endloop
  endfacet
  facet normal 0.45276 -0.891632 0
    outer loop
      vertex 19.0803 -23.0073 2.215
      vertex 19.0803 -23.0073 3.88458
      vertex 18.992 -23.0521 3.875
    endloop
  endfacet
  facet normal -0.0702376 0.00140564 0.997529
    outer loop
      vertex 18.7859 -23.1256 3.85849
      vertex 18.8871 -23.0946 3.86557
      vertex 18.8759 -23.0295 3.86469
    endloop
  endfacet
  facet normal -0.0797024 -0.000223215 0.996819
    outer loop
      vertex 18.8871 -23.0946 3.86557
      vertex 18.9015 -23.0199 3.86674
      vertex 18.8759 -23.0295 3.86469
    endloop
  endfacet
  facet normal -0.422613 0.90631 0
    outer loop
      vertex 19.0631 -22.9422 2.215
      vertex 18.8759 -23.0295 2.215
      vertex 18.8759 -23.0295 3.86469
    endloop
  endfacet
  facet normal 0 0 -1
    outer loop
      vertex 18.8759 -23.0295 2.215
      vertex 19.0631 -22.9422 2.215
      vertex 19.0803 -23.0073 2.215
    endloop
  endfacet
  facet normal 0 0 -1
    outer loop
      vertex 19.0631 -22.9422 2.215
      vertex 19.2559 -22.8885 2.215
      vertex 19.0803 -23.0073 2.215
    endloop
  endfacet
  facet normal -1 -0.000176274 0
    outer loop
      vertex 17.2218 -21.969 3.99997
      vertex 17.2218 -21.8634 3.99998
      vertex 17.2218 -21.969 2.215
    endloop
  endfacet
  facet normal -0.999096 0.0424332 -0.00252241
    outer loop
      vertex 17.2218 -21.8634 3.99998
      vertex 17.2308 -21.7572 2.215
      vertex 17.2218 -21.969 2.215
    endloop
  endfacet
  facet normal 0.232206 -1.93217e-6 0.972667
    outer loop
      vertex 17.2218 -21.8634 3.99998
      vertex 17.2218 -21.969 3.99997
      vertex 17.2856 -21.916 3.98472
    endloop
  endfacet
  facet normal 0.231974 0.000292628 0.972722
    outer loop
      vertex 17.2218 -21.969 3.99997
      vertex 17.2901 -22.0192 3.98368
      vertex 17.2856 -21.916 3.98472
    endloop
  endfacet
  facet normal 0.232552 0.000443159 0.972584
    outer loop
      vertex 17.2308 -21.7572 3.99777
      vertex 17.2218 -21.8634 3.99998
      vertex 17.2856 -21.916 3.98472
    endloop
  endfacet
  facet normal -0.996413 0.0846181 0
    outer loop
      vertex 17.2218 -21.8634 3.99998
      vertex 17.2308 -21.7572 3.99777
      vertex 17.2308 -21.7572 2.215
    endloop
  endfacet
  facet normal -0.985593 0.169132 0
    outer loop
      vertex 17.2308 -21.7572 3.99777
      vertex 17.2488 -21.6523 3.99342
      vertex 17.2308 -21.7572 2.215
    endloop
  endfacet
  facet normal -0.977551 0.210683 -0.00253165
    outer loop
      vertex 17.2308 -21.7572 2.215
      vertex 17.2488 -21.6523 3.99342
      vertex 17.2754 -21.55 2.215
    endloop
  endfacet
  facet normal -0.967703 0.252093 0
    outer loop
      vertex 17.2488 -21.6523 3.99342
      vertex 17.2754 -21.55 3.9871
      vertex 17.2754 -21.55 2.215
    endloop
  endfacet
  facet normal -0.94292 0.33302 0
    outer loop
      vertex 17.2754 -21.55 2.215
      vertex 17.2754 -21.55 3.9871
      vertex 17.3107 -21.4502 3.97898
    endloop
  endfacet
  facet normal 0 0 -1
    outer loop
      vertex 17.2218 -21.969 2.215
      vertex 17.2308 -21.7572 2.215
      vertex 17.3036 -21.7102 2.215
    endloop
  endfacet
  facet normal 0 0 -1
    outer loop
      vertex 17.2308 -21.7572 2.215
      vertex 17.3571 -21.5107 2.215
      vertex 17.3036 -21.7102 2.215
    endloop
  endfacet
  facet normal 0 0 -1
    outer loop
      vertex 17.2487 -22.1793 2.215
      vertex 17.2218 -21.969 2.215
      vertex 17.2856 -21.916 2.215
    endloop
  endfacet
  facet normal 0 0 -1
    outer loop
      vertex 17.2218 -21.969 2.215
      vertex 17.3036 -21.7102 2.215
      vertex 17.2856 -21.916 2.215
    endloop
  endfacet
  facet normal -0.991897 -0.12702 -0.00252568
    outer loop
      vertex 17.2218 -21.969 2.215
      vertex 17.2487 -22.1793 2.215
      vertex 17.2307 -22.0745 3.99778
    endloop
  endfacet
  facet normal -0.985634 -0.168895 0
    outer loop
      vertex 17.2487 -22.1793 2.215
      vertex 17.2487 -22.1793 3.99344
      vertex 17.2307 -22.0745 3.99778
    endloop
  endfacet
  facet normal -0.996406 -0.0847058 0
    outer loop
      vertex 17.2307 -22.0745 3.99778
      vertex 17.2218 -21.969 3.99997
      vertex 17.2218 -21.969 2.215
    endloop
  endfacet
  facet normal 0.231396 -0.000540811 0.97286
    outer loop
      vertex 17.2218 -21.969 3.99997
      vertex 17.2307 -22.0745 3.99778
      vertex 17.2901 -22.0192 3.98368
    endloop
  endfacet
  facet normal 0.230164 0.000856751 0.973152
    outer loop
      vertex 17.2307 -22.0745 3.99778
      vertex 17.3036 -22.1218 3.98058
      vertex 17.2901 -22.0192 3.98368
    endloop
  endfacet
  facet normal 0 0 -1
    outer loop
      vertex 17.2308 -21.7572 2.215
      vertex 17.2754 -21.55 2.215
      vertex 17.3571 -21.5107 2.215
    endloop
  endfacet
  facet normal 0 0 -1
    outer loop
      vertex 17.2754 -21.55 2.215
      vertex 17.4444 -21.3235 2.215
      vertex 17.3571 -21.5107 2.215
    endloop
  endfacet
  facet normal 0.99905 0.0435695 0
    outer loop
      vertex 17.2856 -21.916 3.98472
      vertex 17.2901 -22.0192 3.98368
      vertex 17.2856 -21.916 2.215
    endloop
  endfacet
  facet normal 0.996192 0.0871535 0.00255006
    outer loop
      vertex 17.2901 -22.0192 3.98368
      vertex 17.3036 -22.1218 2.215
      vertex 17.2856 -21.916 2.215
    endloop
  endfacet
  facet normal 0.999052 -0.0435375 0
    outer loop
      vertex 17.2901 -21.8129 3.98368
      vertex 17.2856 -21.916 3.98472
      vertex 17.2856 -21.916 2.215
    endloop
  endfacet
  facet normal 0.230706 -0.000231021 0.973023
    outer loop
      vertex 17.2856 -21.916 3.98472
      vertex 17.2901 -21.8129 3.98368
      vertex 17.2308 -21.7572 3.99777
    endloop
  endfacet
  facet normal 0.231459 0.000617132 0.972844
    outer loop
      vertex 17.2901 -21.8129 3.98368
      vertex 17.2488 -21.6523 3.99342
      vertex 17.2308 -21.7572 3.99777
    endloop
  endfacet
  facet normal 0.228982 -0.00106675 0.97343
    outer loop
      vertex 17.2307 -22.0745 3.99778
      vertex 17.2487 -22.1793 3.99344
      vertex 17.3036 -22.1218 3.98058
    endloop
  endfacet
  facet normal 0.226529 0.00140265 0.974003
    outer loop
      vertex 17.2487 -22.1793 3.99344
      vertex 17.3261 -22.223 3.9755
      vertex 17.3036 -22.1218 3.98058
    endloop
  endfacet
  facet normal 0.965922 -0.258819 0.00256143
    outer loop
      vertex 17.3036 -21.7102 2.215
      vertex 17.3571 -21.5107 2.215
      vertex 17.326 -21.6092 3.97551
    endloop
  endfacet
  facet normal 0.953706 -0.300741 0
    outer loop
      vertex 17.3571 -21.5107 2.215
      vertex 17.3571 -21.5107 3.96866
      vertex 17.326 -21.6092 3.97551
    endloop
  endfacet
  facet normal 0.996192 -0.0871543 0.00254962
    outer loop
      vertex 17.2856 -21.916 2.215
      vertex 17.3036 -21.7102 2.215
      vertex 17.2901 -21.8129 3.98368
    endloop
  endfacet
  facet normal 0.991455 -0.130449 0
    outer loop
      vertex 17.3036 -21.7102 2.215
      vertex 17.3036 -21.7102 3.98058
      vertex 17.2901 -21.8129 3.98368
    endloop
  endfacet
  facet normal 0 0 -1
    outer loop
      vertex 17.3108 -22.3821 2.215
      vertex 17.2487 -22.1793 2.215
      vertex 17.3036 -22.1218 2.215
    endloop
  endfacet
  facet normal 0 0 -1
    outer loop
      vertex 17.2487 -22.1793 2.215
      vertex 17.2856 -21.916 2.215
      vertex 17.3036 -22.1218 2.215
    endloop
  endfacet
  facet normal -0.956165 -0.292817 -0.00254149
    outer loop
      vertex 17.2487 -22.1793 2.215
      vertex 17.3108 -22.3821 2.215
      vertex 17.2756 -22.2825 3.98707
    endloop
  endfacet
  facet normal -0.942809 -0.333332 0
    outer loop
      vertex 17.3108 -22.3821 2.215
      vertex 17.3108 -22.3821 3.97895
      vertex 17.2756 -22.2825 3.98707
    endloop
  endfacet
  facet normal 0.991449 0.130495 0
    outer loop
      vertex 17.2901 -22.0192 3.98368
      vertex 17.3036 -22.1218 3.98058
      vertex 17.3036 -22.1218 2.215
    endloop
  endfacet
  facet normal 0.976264 0.216583 0
    outer loop
      vertex 17.3036 -22.1218 3.98058
      vertex 17.3261 -22.223 3.9755
      vertex 17.3036 -22.1218 2.215
    endloop
  endfacet
  facet normal 0.965922 0.258819 0.00256185
    outer loop
      vertex 17.3036 -22.1218 2.215
      vertex 17.3261 -22.223 3.9755
      vertex 17.3571 -22.3213 2.215
    endloop
  endfacet
  facet normal 0.953668 0.300862 0
    outer loop
      vertex 17.3261 -22.223 3.9755
      vertex 17.3571 -22.3213 3.96866
      vertex 17.3571 -22.3213 2.215
    endloop
  endfacet
  facet normal 0.923895 0.382645 0
    outer loop
      vertex 17.3571 -22.3213 2.215
      vertex 17.3571 -22.3213 3.96866
      vertex 17.3966 -22.4167 3.96023
    endloop
  endfacet
  facet normal 0.228481 0.000575402 0.973548
    outer loop
      vertex 17.2754 -21.55 3.9871
      vertex 17.2488 -21.6523 3.99342
      vertex 17.3036 -21.7102 3.98058
    endloop
  endfacet
  facet normal 0.227426 -0.000479806 0.973795
    outer loop
      vertex 17.2488 -21.6523 3.99342
      vertex 17.2901 -21.8129 3.98368
      vertex 17.3036 -21.7102 3.98058
    endloop
  endfacet
  facet normal 0.906306 -0.422615 0.00258471
    outer loop
      vertex 17.3571 -21.5107 2.215
      vertex 17.4444 -21.3235 2.215
      vertex 17.3967 -21.4151 3.96021
    endloop
  endfacet
  facet normal 0.886985 -0.461798 0
    outer loop
      vertex 17.4444 -21.3235 2.215
      vertex 17.4444 -21.3235 3.95046
      vertex 17.3967 -21.4151 3.96021
    endloop
  endfacet
  facet normal -0.927886 0.372855 -0.00255249
    outer loop
      vertex 17.3545 -21.3532 2.215
      vertex 17.2754 -21.55 2.215
      vertex 17.3107 -21.4502 3.97898
    endloop
  endfacet
  facet normal 0 0 -1
    outer loop
      vertex 17.2754 -21.55 2.215
      vertex 17.3545 -21.3532 2.215
      vertex 17.4444 -21.3235 2.215
    endloop
  endfacet
  facet normal 0 0 -1
    outer loop
      vertex 17.3545 -21.3532 2.215
      vertex 17.5629 -21.1543 2.215
      vertex 17.4444 -21.3235 2.215
    endloop
  endfacet
  facet normal -0.967685 -0.252164 0
    outer loop
      vertex 17.2756 -22.2825 3.98707
      vertex 17.2487 -22.1793 3.99344
      vertex 17.2487 -22.1793 2.215
    endloop
  endfacet
  facet normal 0.224943 -0.00155681 0.974371
    outer loop
      vertex 17.2487 -22.1793 3.99344
      vertex 17.2756 -22.2825 3.98707
      vertex 17.3261 -22.223 3.9755
    endloop
  endfacet
  facet normal 0.221099 0.00188114 0.97525
    outer loop
      vertex 17.2756 -22.2825 3.98707
      vertex 17.3571 -22.3213 3.96866
      vertex 17.3261 -22.223 3.9755
    endloop
  endfacet
  facet normal 0.216475 -0.000342654 0.976288
    outer loop
      vertex 17.326 -21.6092 3.97551
      vertex 17.3571 -21.5107 3.96866
      vertex 17.3107 -21.4502 3.97898
    endloop
  endfacet
  facet normal 0.216993 7.48735e-5 0.976173
    outer loop
      vertex 17.3571 -21.5107 3.96866
      vertex 17.3545 -21.3532 3.96923
      vertex 17.3107 -21.4502 3.97898
    endloop
  endfacet
  facet normal 0.222664 -0.000503497 0.974895
    outer loop
      vertex 17.3036 -21.7102 3.98058
      vertex 17.326 -21.6092 3.97551
      vertex 17.2754 -21.55 3.9871
    endloop
  endfacet
  facet normal 0.223655 0.000387399 0.974668
    outer loop
      vertex 17.326 -21.6092 3.97551
      vertex 17.3107 -21.4502 3.97898
      vertex 17.2754 -21.55 3.9871
    endloop
  endfacet
  facet normal 0.976289 -0.216473 0
    outer loop
      vertex 17.326 -21.6092 3.97551
      vertex 17.3036 -21.7102 3.98058
      vertex 17.3036 -21.7102 2.215
    endloop
  endfacet
  facet normal 0 0 -1
    outer loop
      vertex 17.3036 -22.1218 2.215
      vertex 17.3571 -22.3213 2.215
      vertex 17.3108 -22.3821 2.215
    endloop
  endfacet
  facet normal 0 0 -1
    outer loop
      vertex 17.3571 -22.3213 2.215
      vertex 17.4062 -22.5714 2.215
      vertex 17.3108 -22.3821 2.215
    endloop
  endfacet
  facet normal 0.219354 -0.00197372 0.975643
    outer loop
      vertex 17.2756 -22.2825 3.98707
      vertex 17.3108 -22.3821 3.97895
      vertex 17.3571 -22.3213 3.96866
    endloop
  endfacet
  facet normal 0.21401 0.00230052 0.976829
    outer loop
      vertex 17.3108 -22.3821 3.97895
      vertex 17.3966 -22.4167 3.96023
      vertex 17.3571 -22.3213 3.96866
    endloop
  endfacet
  facet normal -0.892922 -0.450204 -0.00256611
    outer loop
      vertex 17.3108 -22.3821 2.215
      vertex 17.4062 -22.5714 2.215
      vertex 17.3544 -22.4785 3.96925
    endloop
  endfacet
  facet normal -0.873065 -0.487603 0
    outer loop
      vertex 17.4062 -22.5714 2.215
      vertex 17.4062 -22.5714 3.95823
      vertex 17.3544 -22.4785 3.96925
    endloop
  endfacet
  facet normal 0.819152 -0.573571 0.00261399
    outer loop
      vertex 17.4444 -21.3235 2.215
      vertex 17.5629 -21.1543 2.215
      vertex 17.4999 -21.2363 3.93968
    endloop
  endfacet
  facet normal 0.793367 -0.608743 0
    outer loop
      vertex 17.5629 -21.1543 2.215
      vertex 17.5629 -21.1543 3.92821
      vertex 17.4999 -21.2363 3.93968
    endloop
  endfacet
  facet normal 0.92387 -0.382706 0
    outer loop
      vertex 17.3967 -21.4151 3.96021
      vertex 17.3571 -21.5107 3.96866
      vertex 17.3571 -21.5107 2.215
    endloop
  endfacet
  facet normal 0.208852 -6.7164e-5 0.977947
    outer loop
      vertex 17.3571 -21.5107 3.96866
      vertex 17.3967 -21.4151 3.96021
      vertex 17.3545 -21.3532 3.96923
    endloop
  endfacet
  facet normal 0.208523 -0.000301521 0.978017
    outer loop
      vertex 17.3967 -21.4151 3.96021
      vertex 17.4064 -21.2604 3.9582
      vertex 17.3545 -21.3532 3.96923
    endloop
  endfacet
  facet normal 0.199882 0.000261038 0.97982
    outer loop
      vertex 17.3967 -21.4151 3.96021
      vertex 17.4444 -21.3235 3.95046
      vertex 17.4064 -21.2604 3.9582
    endloop
  endfacet
  facet normal 0.198388 -0.000677378 0.980123
    outer loop
      vertex 17.4444 -21.3235 3.95046
      vertex 17.4657 -21.1727 3.94626
      vertex 17.4064 -21.2604 3.9582
    endloop
  endfacet
  facet normal -0.911285 0.411777 0
    outer loop
      vertex 17.3107 -21.4502 3.97898
      vertex 17.3545 -21.3532 3.96923
      vertex 17.3545 -21.3532 2.215
    endloop
  endfacet
  facet normal -0.872958 0.487796 0
    outer loop
      vertex 17.3545 -21.3532 3.96923
      vertex 17.4064 -21.2604 3.9582
      vertex 17.3545 -21.3532 2.215
    endloop
  endfacet
  facet normal -0.851523 0.524311 -0.00258258
    outer loop
      vertex 17.3545 -21.3532 2.215
      vertex 17.4064 -21.2604 3.9582
      vertex 17.4657 -21.1727 2.215
    endloop
  endfacet
  facet normal -0.828457 0.560053 0
    outer loop
      vertex 17.4064 -21.2604 3.9582
      vertex 17.4657 -21.1727 3.94626
      vertex 17.4657 -21.1727 2.215
    endloop
  endfacet
  facet normal -0.778116 0.628121 0
    outer loop
      vertex 17.4657 -21.1727 2.215
      vertex 17.4657 -21.1727 3.94626
      vertex 17.5321 -21.0904 3.93372
    endloop
  endfacet
  facet normal 0 0 -1
    outer loop
      vertex 17.3545 -21.3532 2.215
      vertex 17.4657 -21.1727 2.215
      vertex 17.5629 -21.1543 2.215
    endloop
  endfacet
  facet normal 0 0 -1
    outer loop
      vertex 17.4657 -21.1727 2.215
      vertex 17.7089 -21.0082 2.215
      vertex 17.5629 -21.1543 2.215
    endloop
  endfacet
  facet normal 0.906306 0.422615 0.00258356
    outer loop
      vertex 17.4444 -22.5085 2.215
      vertex 17.3571 -22.3213 2.215
      vertex 17.3966 -22.4167 3.96023
    endloop
  endfacet
  facet normal 0 0 -1
    outer loop
      vertex 17.3571 -22.3213 2.215
      vertex 17.4444 -22.5085 2.215
      vertex 17.4062 -22.5714 2.215
    endloop
  endfacet
  facet normal 0 0 -1
    outer loop
      vertex 17.4444 -22.5085 2.215
      vertex 17.5323 -22.7418 2.215
      vertex 17.4062 -22.5714 2.215
    endloop
  endfacet
  facet normal -0.91126 -0.411831 0
    outer loop
      vertex 17.3544 -22.4785 3.96925
      vertex 17.3108 -22.3821 3.97895
      vertex 17.3108 -22.3821 2.215
    endloop
  endfacet
  facet normal 0.212225 -0.0023332 0.977218
    outer loop
      vertex 17.3108 -22.3821 3.97895
      vertex 17.3544 -22.4785 3.96925
      vertex 17.3966 -22.4167 3.96023
    endloop
  endfacet
  facet normal 0.205253 0.00264705 0.978705
    outer loop
      vertex 17.3544 -22.4785 3.96925
      vertex 17.4444 -22.5085 3.95046
      vertex 17.3966 -22.4167 3.96023
    endloop
  endfacet
  facet normal -0.803992 -0.594635 -0.00260096
    outer loop
      vertex 17.4062 -22.5714 2.215
      vertex 17.5323 -22.7418 2.215
      vertex 17.4659 -22.6596 3.94621
    endloop
  endfacet
  facet normal -0.777921 -0.628363 0
    outer loop
      vertex 17.5323 -22.7418 2.215
      vertex 17.5323 -22.7418 3.93368
      vertex 17.4659 -22.6596 3.94621
    endloop
  endfacet
  facet normal 0.203578 -0.00260744 0.979055
    outer loop
      vertex 17.3544 -22.4785 3.96925
      vertex 17.4062 -22.5714 3.95823
      vertex 17.4444 -22.5085 3.95046
    endloop
  endfacet
  facet normal 0.194869 0.00289758 0.980825
    outer loop
      vertex 17.4062 -22.5714 3.95823
      vertex 17.5002 -22.596 3.93964
      vertex 17.4444 -22.5085 3.95046
    endloop
  endfacet
  facet normal 0.843393 -0.537296 0
    outer loop
      vertex 17.4999 -21.2363 3.93968
      vertex 17.4444 -21.3235 3.95046
      vertex 17.4444 -21.3235 2.215
    endloop
  endfacet
  facet normal 0.189582 0.000611748 0.981865
    outer loop
      vertex 17.4444 -21.3235 3.95046
      vertex 17.4999 -21.2363 3.93968
      vertex 17.4657 -21.1727 3.94626
    endloop
  endfacet
  facet normal 0.186646 -0.00102849 0.982427
    outer loop
      vertex 17.4999 -21.2363 3.93968
      vertex 17.5321 -21.0904 3.93372
      vertex 17.4657 -21.1727 3.94626
    endloop
  endfacet
  facet normal 0.707105 -0.707105 0.00244071
    outer loop
      vertex 17.5629 -21.1543 2.215
      vertex 17.7089 -21.0082 2.215
      vertex 17.6127 -21.0986 3.9197
    endloop
  endfacet
  facet normal 0.68447 -0.729041 0
    outer loop
      vertex 17.7089 -21.0082 2.215
      vertex 17.7089 -21.0082 3.90465
      vertex 17.6127 -21.0986 3.9197
    endloop
  endfacet
  facet normal 0.178042 0.000932396 0.984022
    outer loop
      vertex 17.4999 -21.2363 3.93968
      vertex 17.5629 -21.1543 3.92821
      vertex 17.5321 -21.0904 3.93372
    endloop
  endfacet
  facet normal 0.173444 -0.00135449 0.984843
    outer loop
      vertex 17.5629 -21.1543 3.92821
      vertex 17.6057 -21.0135 3.92086
      vertex 17.5321 -21.0904 3.93372
    endloop
  endfacet
  facet normal -0.750674 0.660667 -0.0026194
    outer loop
      vertex 17.6057 -21.0135 2.215
      vertex 17.4657 -21.1727 2.215
      vertex 17.5321 -21.0904 3.93372
    endloop
  endfacet
  facet normal 0 0 -1
    outer loop
      vertex 17.4657 -21.1727 2.215
      vertex 17.6057 -21.0135 2.215
      vertex 17.7089 -21.0082 2.215
    endloop
  endfacet
  facet normal 0 0 -1
    outer loop
      vertex 17.6057 -21.0135 2.215
      vertex 17.8781 -20.8897 2.215
      vertex 17.7089 -21.0082 2.215
    endloop
  endfacet
  facet normal 0.887033 0.461706 0
    outer loop
      vertex 17.3966 -22.4167 3.96023
      vertex 17.4444 -22.5085 3.95046
      vertex 17.4444 -22.5085 2.215
    endloop
  endfacet
  facet normal 0.843302 0.53744 0
    outer loop
      vertex 17.4444 -22.5085 3.95046
      vertex 17.5002 -22.596 3.93964
      vertex 17.4444 -22.5085 2.215
    endloop
  endfacet
  facet normal 0.819149 0.573575 0.00261431
    outer loop
      vertex 17.4444 -22.5085 2.215
      vertex 17.5002 -22.596 3.93964
      vertex 17.5629 -22.6777 2.215
    endloop
  endfacet
  facet normal 0.793258 0.608886 0
    outer loop
      vertex 17.5002 -22.596 3.93964
      vertex 17.5629 -22.6777 3.92821
      vertex 17.5629 -22.6777 2.215
    endloop
  endfacet
  facet normal 0.745394 0.666624 0
    outer loop
      vertex 17.5629 -22.6777 2.215
      vertex 17.5629 -22.6777 3.92821
      vertex 17.6127 -22.7334 3.9197
    endloop
  endfacet
  facet normal 0 0 -1
    outer loop
      vertex 17.4444 -22.5085 2.215
      vertex 17.5629 -22.6777 2.215
      vertex 17.5323 -22.7418 2.215
    endloop
  endfacet
  facet normal 0 0 -1
    outer loop
      vertex 17.5629 -22.6777 2.215
      vertex 17.6854 -22.8885 2.215
      vertex 17.5323 -22.7418 2.215
    endloop
  endfacet
  facet normal -0.828405 -0.56013 0
    outer loop
      vertex 17.4659 -22.6596 3.94621
      vertex 17.4062 -22.5714 3.95823
      vertex 17.4062 -22.5714 2.215
    endloop
  endfacet
  facet normal 0.193435 -0.00278808 0.981109
    outer loop
      vertex 17.4062 -22.5714 3.95823
      vertex 17.4659 -22.6596 3.94621
      vertex 17.5002 -22.596 3.93964
    endloop
  endfacet
  facet normal 0.183009 0.00302799 0.983107
    outer loop
      vertex 17.4659 -22.6596 3.94621
      vertex 17.5629 -22.6777 3.92821
      vertex 17.5002 -22.596 3.93964
    endloop
  endfacet
  facet normal -0.691942 -0.721953 0
    outer loop
      vertex 17.5323 -22.7418 2.215
      vertex 17.6854 -22.8885 2.215
      vertex 17.6854 -22.8885 3.90816
    endloop
  endfacet
  facet normal -0.594514 -0.804086 0
    outer loop
      vertex 17.6854 -22.8885 2.215
      vertex 17.771 -22.9518 3.89591
      vertex 17.6854 -22.8885 3.90816
    endloop
  endfacet
  facet normal 0.181949 -0.00286503 0.983304
    outer loop
      vertex 17.4659 -22.6596 3.94621
      vertex 17.5323 -22.7418 3.93368
      vertex 17.5629 -22.6777 3.92821
    endloop
  endfacet
  facet normal 0.171125 0.00246046 0.985246
    outer loop
      vertex 17.5323 -22.7418 3.93368
      vertex 17.6127 -22.7334 3.9197
      vertex 17.5629 -22.6777 3.92821
    endloop
  endfacet
  facet normal 0.745383 -0.666637 0
    outer loop
      vertex 17.6127 -21.0986 3.9197
      vertex 17.5629 -21.1543 3.92821
      vertex 17.5629 -21.1543 2.215
    endloop
  endfacet
  facet normal 0.168107 0.000318045 0.985769
    outer loop
      vertex 17.5629 -21.1543 3.92821
      vertex 17.6127 -21.0986 3.9197
      vertex 17.6057 -21.0135 3.92086
    endloop
  endfacet
  facet normal 0.164335 0 0.986405
    outer loop
      vertex 17.6127 -21.0986 3.9197
      vertex 17.6127 -21.0069 3.9197
      vertex 17.6057 -21.0135 3.92086
    endloop
  endfacet
  facet normal 0.573573 -0.819154 0
    outer loop
      vertex 17.7089 -21.0082 2.215
      vertex 17.8781 -20.8897 2.215
      vertex 17.8781 -20.8897 3.8826
    endloop
  endfacet
  facet normal 0.466704 -0.884413 0
    outer loop
      vertex 17.8781 -20.8897 2.215
      vertex 17.9579 -20.8477 3.87415
      vertex 17.8781 -20.8897 3.8826
    endloop
  endfacet
  facet normal 0.152959 0.00170691 0.988231
    outer loop
      vertex 17.6127 -21.0986 3.9197
      vertex 17.7089 -21.0082 3.90465
      vertex 17.6892 -20.9404 3.90758
    endloop
  endfacet
  facet normal 0.142373 -0.00144014 0.989812
    outer loop
      vertex 17.7089 -21.0082 3.90465
      vertex 17.7707 -20.8804 3.89595
      vertex 17.6892 -20.9404 3.90758
    endloop
  endfacet
  facet normal -0.722058 0.691833 0
    outer loop
      vertex 17.5321 -21.0904 3.93372
      vertex 17.6057 -21.0135 3.92086
      vertex 17.6057 -21.0135 2.215
    endloop
  endfacet
  facet normal -0.689075 0.72469 0
    outer loop
      vertex 17.6057 -21.0135 3.92086
      vertex 17.6127 -21.0069 3.9197
      vertex 17.6057 -21.0135 2.215
    endloop
  endfacet
  facet normal -0.656324 0.754479 -0.000249855
    outer loop
      vertex 17.6057 -21.0135 2.215
      vertex 17.6127 -21.0069 3.9197
      vertex 17.6892 -20.9404 3.90758
    endloop
  endfacet
  facet normal -0.628217 0.778034 -0.00265465
    outer loop
      vertex 17.7707 -20.8804 2.215
      vertex 17.6057 -21.0135 2.215
      vertex 17.6892 -20.9404 3.90758
    endloop
  endfacet
  facet normal 0 0 -1
    outer loop
      vertex 17.6057 -21.0135 2.215
      vertex 17.7707 -20.8804 2.215
      vertex 17.8781 -20.8897 2.215
    endloop
  endfacet
  facet normal 0 0 -1
    outer loop
      vertex 17.7707 -20.8804 2.215
      vertex 18.0654 -20.8025 2.215
      vertex 17.8781 -20.8897 2.215
    endloop
  endfacet
  facet normal 0.707105 0.707105 0.00244148
    outer loop
      vertex 17.7089 -22.8238 2.215
      vertex 17.5629 -22.6777 2.215
      vertex 17.6127 -22.7334 3.9197
    endloop
  endfacet
  facet normal -0.71929 -0.69471 0
    outer loop
      vertex 17.6127 -22.8251 3.9197
      vertex 17.5323 -22.7418 3.93368
      vertex 17.5323 -22.7418 2.215
    endloop
  endfacet
  facet normal 0.171376 0 0.985206
    outer loop
      vertex 17.5323 -22.7418 3.93368
      vertex 17.6127 -22.8251 3.9197
      vertex 17.6127 -22.7334 3.9197
    endloop
  endfacet
  facet normal 0.154524 0 0.987989
    outer loop
      vertex 17.6127 -22.8251 3.9197
      vertex 17.7089 -22.8238 3.90465
      vertex 17.6127 -22.7334 3.9197
    endloop
  endfacet
  facet normal -0.658287 -0.752745 -0.00571036
    outer loop
      vertex 17.6854 -22.8885 3.90816
      vertex 17.6127 -22.8251 3.9197
      vertex 17.5323 -22.7418 2.215
    endloop
  endfacet
  facet normal 0.154558 -0.00259498 0.98798
    outer loop
      vertex 17.6127 -22.8251 3.9197
      vertex 17.6854 -22.8885 3.90816
      vertex 17.7089 -22.8238 3.90465
    endloop
  endfacet
  facet normal 0.139689 0.00293519 0.990191
    outer loop
      vertex 17.6854 -22.8885 3.90816
      vertex 17.7912 -22.8869 3.89322
      vertex 17.7089 -22.8238 3.90465
    endloop
  endfacet
  facet normal 0.139774 -0.00261576 0.99018
    outer loop
      vertex 17.6854 -22.8885 3.90816
      vertex 17.771 -22.9518 3.89591
      vertex 17.7912 -22.8869 3.89322
    endloop
  endfacet
  facet normal 0.12304 0.00269889 0.992398
    outer loop
      vertex 17.771 -22.9518 3.89591
      vertex 17.8781 -22.9422 3.8826
      vertex 17.7912 -22.8869 3.89322
    endloop
  endfacet
  facet normal 0.60881 -0.793316 0
    outer loop
      vertex 17.7908 -20.9454 3.89328
      vertex 17.7089 -21.0082 3.90465
      vertex 17.7089 -21.0082 2.215
    endloop
  endfacet
  facet normal 0.136397 0.0015021 0.990653
    outer loop
      vertex 17.7089 -21.0082 3.90465
      vertex 17.7908 -20.9454 3.89328
      vertex 17.7707 -20.8804 3.89595
    endloop
  endfacet
  facet normal 0.126043 -0.00176178 0.992023
    outer loop
      vertex 17.7908 -20.9454 3.89328
      vertex 17.8607 -20.8249 3.88462
      vertex 17.7707 -20.8804 3.89595
    endloop
  endfacet
  facet normal 0.42262 -0.906307 0
    outer loop
      vertex 17.8781 -20.8897 2.215
      vertex 18.0654 -20.8025 2.215
      vertex 18.0654 -20.8025 3.86469
    endloop
  endfacet
  facet normal 0.30079 -0.95369 0
    outer loop
      vertex 18.0654 -20.8025 2.215
      vertex 18.1637 -20.7714 3.85799
      vertex 18.0654 -20.8025 3.86469
    endloop
  endfacet
  facet normal 0.10534 0.000217268 0.994436
    outer loop
      vertex 17.8781 -20.8897 3.8826
      vertex 17.9579 -20.8477 3.87415
      vertex 17.9558 -20.777 3.87435
    endloop
  endfacet
  facet normal 0.0902827 -0.000233183 0.995916
    outer loop
      vertex 17.9579 -20.8477 3.87415
      vertex 18.0402 -20.7424 3.8667
      vertex 17.9558 -20.777 3.87435
    endloop
  endfacet
  facet normal 0.120403 0.00155879 0.992724
    outer loop
      vertex 17.7908 -20.9454 3.89328
      vertex 17.8781 -20.8897 3.8826
      vertex 17.8607 -20.8249 3.88462
    endloop
  endfacet
  facet normal 0.108201 -0.0017737 0.994127
    outer loop
      vertex 17.8781 -20.8897 3.8826
      vertex 17.9558 -20.777 3.87435
      vertex 17.8607 -20.8249 3.88462
    endloop
  endfacet
  facet normal 0.537813 -0.843047 0.00532597
    outer loop
      vertex 17.8781 -20.8897 3.8826
      vertex 17.7908 -20.9454 3.89328
      vertex 17.7089 -21.0082 2.215
    endloop
  endfacet
  facet normal -0.59305 0.805165 0
    outer loop
      vertex 17.6892 -20.9404 3.90758
      vertex 17.7707 -20.8804 3.89595
      vertex 17.7707 -20.8804 2.215
    endloop
  endfacet
  facet normal -0.524443 0.851445 0
    outer loop
      vertex 17.7707 -20.8804 3.89595
      vertex 17.8607 -20.8249 3.88462
      vertex 17.7707 -20.8804 2.215
    endloop
  endfacet
  facet normal -0.487687 0.873015 -0.00269738
    outer loop
      vertex 17.7707 -20.8804 2.215
      vertex 17.8607 -20.8249 3.88462
      vertex 17.9558 -20.777 2.215
    endloop
  endfacet
  facet normal -0.450338 0.892858 0
    outer loop
      vertex 17.8607 -20.8249 3.88462
      vertex 17.9558 -20.777 3.87435
      vertex 17.9558 -20.777 2.215
    endloop
  endfacet
  facet normal -0.378396 0.925644 0
    outer loop
      vertex 17.9558 -20.777 2.215
      vertex 17.9558 -20.777 3.87435
      vertex 18.0402 -20.7424 3.8667
    endloop
  endfacet
  facet normal 0.156404 0 0.987693
    outer loop
      vertex 17.6892 -20.9404 3.90758
      vertex 17.6127 -21.0069 3.9197
      vertex 17.6127 -21.0986 3.9197
    endloop
  endfacet
  facet normal 0 0 -1
    outer loop
      vertex 17.7707 -20.8804 2.215
      vertex 17.9558 -20.777 2.215
      vertex 18.0654 -20.8025 2.215
    endloop
  endfacet
  facet normal 0 0 -1
    outer loop
      vertex 17.9558 -20.777 2.215
      vertex 18.2649 -20.749 2.215
      vertex 18.0654 -20.8025 2.215
    endloop
  endfacet
  facet normal 0.684463 0.729048 0
    outer loop
      vertex 17.6127 -22.7334 3.9197
      vertex 17.7089 -22.8238 3.90465
      vertex 17.7089 -22.8238 2.215
    endloop
  endfacet
  facet normal -0.524664 -0.851292 -0.00533504
    outer loop
      vertex 17.861 -23.0073 3.88458
      vertex 17.771 -22.9518 3.89591
      vertex 17.6854 -22.8885 2.215
    endloop
  endfacet
  facet normal 0.123486 -0.00234759 0.992344
    outer loop
      vertex 17.771 -22.9518 3.89591
      vertex 17.861 -23.0073 3.88458
      vertex 17.8781 -22.9422 3.8826
    endloop
  endfacet
  facet normal 0.10661 0.00215476 0.994299
    outer loop
      vertex 17.861 -23.0073 3.88458
      vertex 17.9575 -22.9841 3.87418
      vertex 17.8781 -22.9422 3.8826
    endloop
  endfacet
  facet normal 0.537168 0.843475 0
    outer loop
      vertex 17.7912 -22.8869 3.89322
      vertex 17.8781 -22.9422 3.8826
      vertex 17.8781 -22.9422 2.215
    endloop
  endfacet
  facet normal 0.466839 0.884342 0
    outer loop
      vertex 17.8781 -22.9422 3.8826
      vertex 17.9575 -22.9841 3.87418
      vertex 17.8781 -22.9422 2.215
    endloop
  endfacet
  facet normal 0.398736 -0.917057 0.00409345
    outer loop
      vertex 18.0398 -20.8121 3.86674
      vertex 17.9579 -20.8477 3.87415
      vertex 17.8781 -20.8897 2.215
    endloop
  endfacet
  facet normal 0.0900349 -3.76957e-5 0.995939
    outer loop
      vertex 17.9579 -20.8477 3.87415
      vertex 18.0398 -20.8121 3.86674
      vertex 18.0402 -20.7424 3.8667
    endloop
  endfacet
  facet normal 0.0797724 2.09055e-5 0.996813
    outer loop
      vertex 18.0398 -20.8121 3.86674
      vertex 18.0654 -20.8025 3.86469
      vertex 18.0402 -20.7424 3.8667
    endloop
  endfacet
  facet normal 0.0721097 -0.00320797 0.997392
    outer loop
      vertex 18.0402 -20.7424 3.8667
      vertex 18.0654 -20.8025 3.86469
      vertex 18.1557 -20.7063 3.85847
    endloop
  endfacet
  facet normal 0.0676267 0.00102467 0.99771
    outer loop
      vertex 18.0654 -20.8025 3.86469
      vertex 18.1637 -20.7714 3.85799
      vertex 18.1557 -20.7063 3.85847
    endloop
  endfacet
  facet normal 0.0504893 -0.00110241 0.998724
    outer loop
      vertex 18.1557 -20.7063 3.85847
      vertex 18.1637 -20.7714 3.85799
      vertex 18.2589 -20.6841 3.85328
    endloop
  endfacet
  facet normal 0.048737 0.000811275 0.998811
    outer loop
      vertex 18.1637 -20.7714 3.85799
      vertex 18.2649 -20.749 3.85304
      vertex 18.2589 -20.6841 3.85328
    endloop
  endfacet
  facet normal 0.0304257 -0.000872619 0.999537
    outer loop
      vertex 18.2589 -20.6841 3.85328
      vertex 18.2649 -20.749 3.85304
      vertex 18.3646 -20.6705 3.85007
    endloop
  endfacet
  facet normal 0.0293872 0.00044842 0.999568
    outer loop
      vertex 18.2649 -20.749 3.85304
      vertex 18.3677 -20.7355 3.85001
      vertex 18.3646 -20.6705 3.85007
    endloop
  endfacet
  facet normal 0.010138 -0.000467386 0.999948
    outer loop
      vertex 18.3646 -20.6705 3.85007
      vertex 18.3677 -20.7355 3.85001
      vertex 18.4706 -20.666 3.849
    endloop
  endfacet
  facet normal 0.00982252 0 0.999952
    outer loop
      vertex 18.3677 -20.7355 3.85001
      vertex 18.4706 -20.731 3.849
      vertex 18.4706 -20.666 3.849
    endloop
  endfacet
  facet normal -0.0101182 0 0.999949
    outer loop
      vertex 18.4706 -20.666 3.849
      vertex 18.4706 -20.731 3.849
      vertex 18.5767 -20.6705 3.85007
    endloop
  endfacet
  facet normal -0.00985195 -0.000466547 0.999951
    outer loop
      vertex 18.4706 -20.731 3.849
      vertex 18.5737 -20.7355 3.85001
      vertex 18.5767 -20.6705 3.85007
    endloop
  endfacet
  facet normal -0.0302121 0.00045759 0.999543
    outer loop
      vertex 18.5767 -20.6705 3.85007
      vertex 18.5737 -20.7355 3.85001
      vertex 18.6819 -20.684 3.85326
    endloop
  endfacet
  facet normal -0.0295789 -0.000873935 0.999562
    outer loop
      vertex 18.5737 -20.7355 3.85001
      vertex 18.6764 -20.749 3.85304
      vertex 18.6819 -20.684 3.85326
    endloop
  endfacet
  facet normal -0.0500225 0.000857682 0.998748
    outer loop
      vertex 18.6819 -20.684 3.85326
      vertex 18.6764 -20.749 3.85304
      vertex 18.7856 -20.7063 3.85847
    endloop
  endfacet
  facet normal -0.0492097 -0.00122754 0.998788
    outer loop
      vertex 18.6764 -20.749 3.85304
      vertex 18.7778 -20.7715 3.85801
      vertex 18.7856 -20.7063 3.85847
    endloop
  endfacet
  facet normal -0.0706888 0.00136281 0.997497
    outer loop
      vertex 18.7856 -20.7063 3.85847
      vertex 18.7778 -20.7715 3.85801
      vertex 18.9011 -20.7424 3.8667
    endloop
  endfacet
  facet normal -0.0693438 -0.00437044 0.997583
    outer loop
      vertex 18.7778 -20.7715 3.85801
      vertex 18.876 -20.8025 3.8647
      vertex 18.9011 -20.7424 3.8667
    endloop
  endfacet
  facet normal -0.0797239 0 0.996817
    outer loop
      vertex 18.9011 -20.7424 3.8667
      vertex 18.876 -20.8025 3.8647
      vertex 18.9011 -20.8119 3.8667
    endloop
  endfacet
  facet normal 0.258814 -0.965927 0
    outer loop
      vertex 18.0654 -20.8025 2.215
      vertex 18.2649 -20.749 2.215
      vertex 18.2649 -20.749 3.85304
    endloop
  endfacet
  facet normal 0.130368 -0.991466 0
    outer loop
      vertex 18.2649 -20.749 2.215
      vertex 18.3677 -20.7355 3.85001
      vertex 18.2649 -20.749 3.85304
    endloop
  endfacet
  facet normal 0.35347 -0.935399 0.00938656
    outer loop
      vertex 18.0654 -20.8025 3.86469
      vertex 18.0398 -20.8121 3.86674
      vertex 17.8781 -20.8897 2.215
    endloop
  endfacet
  facet normal -0.333144 0.942872 -0.0026736
    outer loop
      vertex 18.1557 -20.7063 2.215
      vertex 17.9558 -20.777 2.215
      vertex 18.0402 -20.7424 3.8667
    endloop
  endfacet
  facet normal 0 0 -1
    outer loop
      vertex 17.9558 -20.777 2.215
      vertex 18.1557 -20.7063 2.215
      vertex 18.2649 -20.749 2.215
    endloop
  endfacet
  facet normal 0 0 -1
    outer loop
      vertex 18.1557 -20.7063 2.215
      vertex 18.4706 -20.731 2.215
      vertex 18.2649 -20.749 2.215
    endloop
  endfacet
  facet normal 0.216782 -0.976205 0.00545501
    outer loop
      vertex 18.2649 -20.749 3.85304
      vertex 18.1637 -20.7714 3.85799
      vertex 18.0654 -20.8025 2.215
    endloop
  endfacet
  facet normal 0.0871627 -0.996194 0
    outer loop
      vertex 18.2649 -20.749 2.215
      vertex 18.4706 -20.731 2.215
      vertex 18.4706 -20.731 3.849
    endloop
  endfacet
  facet normal -0.0435344 -0.999052 0
    outer loop
      vertex 18.4706 -20.731 2.215
      vertex 18.5737 -20.7355 3.85001
      vertex 18.4706 -20.731 3.849
    endloop
  endfacet
  facet normal -0.298505 0.954408 0
    outer loop
      vertex 18.0402 -20.7424 3.8667
      vertex 18.1557 -20.7063 3.85847
      vertex 18.1557 -20.7063 2.215
    endloop
  endfacet
  facet normal -0.210865 0.977515 0
    outer loop
      vertex 18.1557 -20.7063 3.85847
      vertex 18.2589 -20.6841 3.85328
      vertex 18.1557 -20.7063 2.215
    endloop
  endfacet
  facet normal -0.169004 0.985612 -0.00274794
    outer loop
      vertex 18.1557 -20.7063 2.215
      vertex 18.2589 -20.6841 3.85328
      vertex 18.3646 -20.6705 2.215
    endloop
  endfacet
  facet normal -0.127228 0.991874 0
    outer loop
      vertex 18.2589 -20.6841 3.85328
      vertex 18.3646 -20.6705 3.85007
      vertex 18.3646 -20.6705 2.215
    endloop
  endfacet
  facet normal -0.0424484 0.999099 0
    outer loop
      vertex 18.3646 -20.6705 2.215
      vertex 18.3646 -20.6705 3.85007
      vertex 18.4706 -20.666 2.215
    endloop
  endfacet
  facet normal -0.0424484 0.999099 0
    outer loop
      vertex 18.3646 -20.6705 3.85007
      vertex 18.4706 -20.666 3.849
      vertex 18.4706 -20.666 2.215
    endloop
  endfacet
  facet normal 0.0424484 0.999099 0
    outer loop
      vertex 18.4706 -20.666 2.215
      vertex 18.4706 -20.666 3.849
      vertex 18.5767 -20.6705 2.215
    endloop
  endfacet
  facet normal 0.0424484 0.999099 0
    outer loop
      vertex 18.4706 -20.666 3.849
      vertex 18.5767 -20.6705 3.85007
      vertex 18.5767 -20.6705 2.215
    endloop
  endfacet
  facet normal 0.169005 0.985615 0
    outer loop
      vertex 18.5767 -20.6705 2.215
      vertex 18.5767 -20.6705 3.85007
      vertex 18.7856 -20.7063 2.215
    endloop
  endfacet
  facet normal 0.127198 0.991862 -0.00547986
    outer loop
      vertex 18.5767 -20.6705 3.85007
      vertex 18.6819 -20.684 3.85326
      vertex 18.7856 -20.7063 2.215
    endloop
  endfacet
  facet normal 0.210685 0.977554 0
    outer loop
      vertex 18.7856 -20.7063 2.215
      vertex 18.6819 -20.684 3.85326
      vertex 18.7856 -20.7063 3.85847
    endloop
  endfacet
  facet normal 0 0 -1
    outer loop
      vertex 18.1557 -20.7063 2.215
      vertex 18.3646 -20.6705 2.215
      vertex 18.4706 -20.731 2.215
    endloop
  endfacet
  facet normal 0 0 -1
    outer loop
      vertex 18.3646 -20.6705 2.215
      vertex 18.4706 -20.666 2.215
      vertex 18.4706 -20.731 2.215
    endloop
  endfacet
  facet normal 0 0 -1
    outer loop
      vertex 18.4706 -20.731 2.215
      vertex 18.4706 -20.666 2.215
      vertex 18.5767 -20.6705 2.215
    endloop
  endfacet
  facet normal 0.0435394 -0.999036 0.00552492
    outer loop
      vertex 18.4706 -20.731 3.849
      vertex 18.3677 -20.7355 3.85001
      vertex 18.2649 -20.749 2.215
    endloop
  endfacet
  facet normal 0 0 -1
    outer loop
      vertex 18.6764 -20.749 2.215
      vertex 18.4706 -20.731 2.215
      vertex 18.5767 -20.6705 2.215
    endloop
  endfacet
  facet normal -0.0871624 -0.99619 0.00275782
    outer loop
      vertex 18.4706 -20.731 2.215
      vertex 18.6764 -20.749 2.215
      vertex 18.5737 -20.7355 3.85001
    endloop
  endfacet
  facet normal -0.130438 -0.991456 0
    outer loop
      vertex 18.6764 -20.749 2.215
      vertex 18.6764 -20.749 3.85304
      vertex 18.5737 -20.7355 3.85001
    endloop
  endfacet
  facet normal 0 0 -1
    outer loop
      vertex 18.5767 -20.6705 2.215
      vertex 18.7856 -20.7063 2.215
      vertex 18.6764 -20.749 2.215
    endloop
  endfacet
  facet normal 0 0 -1
    outer loop
      vertex 18.7856 -20.7063 2.215
      vertex 18.8759 -20.8025 2.215
      vertex 18.6764 -20.749 2.215
    endloop
  endfacet
  facet normal -0.258813 -0.965924 0.0027442
    outer loop
      vertex 18.6764 -20.749 2.215
      vertex 18.8759 -20.8025 2.215
      vertex 18.7778 -20.7715 3.85801
    endloop
  endfacet
  facet normal -0.300878 -0.953663 2.24482e-7
    outer loop
      vertex 18.8759 -20.8025 2.215
      vertex 18.876 -20.8025 3.8647
      vertex 18.7778 -20.7715 3.85801
    endloop
  endfacet
  facet normal -0.216627 -0.976255 0
    outer loop
      vertex 18.7778 -20.7715 3.85801
      vertex 18.6764 -20.749 3.85304
      vertex 18.6764 -20.749 2.215
    endloop
  endfacet
  facet normal 0.333145 0.942875 0
    outer loop
      vertex 18.9855 -20.777 2.215
      vertex 18.7856 -20.7063 2.215
      vertex 18.7856 -20.7063 3.85847
    endloop
  endfacet
  facet normal 0 0 -1
    outer loop
      vertex 18.7856 -20.7063 2.215
      vertex 18.9855 -20.777 2.215
      vertex 18.8759 -20.8025 2.215
    endloop
  endfacet
  facet normal 0 0 -1
    outer loop
      vertex 18.9855 -20.777 2.215
      vertex 19.0631 -20.8897 2.215
      vertex 18.8759 -20.8025 2.215
    endloop
  endfacet
  facet normal -0.42262 -0.906306 0.00123347
    outer loop
      vertex 18.8759 -20.8025 2.215
      vertex 19.0631 -20.8897 2.215
      vertex 18.9011 -20.8119 3.8667
    endloop
  endfacet
  facet normal -0.398556 -0.917135 0.00410496
    outer loop
      vertex 19.0631 -20.8897 2.215
      vertex 18.9834 -20.8477 3.87414
      vertex 18.9011 -20.8119 3.8667
    endloop
  endfacet
  facet normal 0.298809 0.954302 -0.00466756
    outer loop
      vertex 18.7856 -20.7063 3.85847
      vertex 18.9011 -20.7424 3.8667
      vertex 18.9855 -20.777 2.215
    endloop
  endfacet
  facet normal 0.378389 0.925647 0
    outer loop
      vertex 18.9011 -20.7424 3.8667
      vertex 18.9855 -20.777 3.87435
      vertex 18.9855 -20.777 2.215
    endloop
  endfacet
  facet normal 0.487692 0.873016 0
    outer loop
      vertex 18.9855 -20.777 2.215
      vertex 18.9855 -20.777 3.87435
      vertex 19.1706 -20.8804 2.215
    endloop
  endfacet
  facet normal 0.450657 0.892681 -0.00535647
    outer loop
      vertex 18.9855 -20.777 3.87435
      vertex 19.0803 -20.8247 3.88458
      vertex 19.1706 -20.8804 2.215
    endloop
  endfacet
  facet normal 0.524303 0.851532 0
    outer loop
      vertex 19.1706 -20.8804 2.215
      vertex 19.0803 -20.8247 3.88458
      vertex 19.1706 -20.8804 3.89595
    endloop
  endfacet
  facet normal 0 0 -1
    outer loop
      vertex 18.9855 -20.777 2.215
      vertex 19.1706 -20.8804 2.215
      vertex 19.0631 -20.8897 2.215
    endloop
  endfacet
  facet normal 0 0 -1
    outer loop
      vertex 19.1706 -20.8804 2.215
      vertex 19.2323 -21.0082 2.215
      vertex 19.0631 -20.8897 2.215
    endloop
  endfacet
  facet normal -0.352704 -0.935735 6.74584e-7
    outer loop
      vertex 18.9011 -20.8119 3.8667
      vertex 18.876 -20.8025 3.8647
      vertex 18.8759 -20.8025 2.215
    endloop
  endfacet
  facet normal -0.573575 -0.819148 0.00268703
    outer loop
      vertex 19.0631 -20.8897 2.215
      vertex 19.2323 -21.0082 2.215
      vertex 19.1507 -20.9455 3.89331
    endloop
  endfacet
  facet normal -0.608907 -0.793242 0
    outer loop
      vertex 19.2323 -21.0082 2.215
      vertex 19.2323 -21.0082 3.90465
      vertex 19.1507 -20.9455 3.89331
    endloop
  endfacet
  facet normal -0.0900883 -0.000238215 0.995934
    outer loop
      vertex 18.9011 -20.8119 3.8667
      vertex 18.9834 -20.8477 3.87414
      vertex 18.9855 -20.777 3.87435
    endloop
  endfacet
  facet normal -0.107148 0.000285029 0.994243
    outer loop
      vertex 18.9834 -20.8477 3.87414
      vertex 19.0803 -20.8247 3.88458
      vertex 18.9855 -20.777 3.87435
    endloop
  endfacet
  facet normal -0.0901862 0 0.995925
    outer loop
      vertex 18.9855 -20.777 3.87435
      vertex 18.9011 -20.7424 3.8667
      vertex 18.9011 -20.8119 3.8667
    endloop
  endfacet
  facet normal 0.3755 -0.926823 0
    outer loop
      vertex 18.992 -23.0521 3.875
      vertex 18.8871 -23.0946 3.86557
      vertex 18.8871 -23.0946 2.215
    endloop
  endfacet
  facet normal -0.0899078 0.0010911 0.995949
    outer loop
      vertex 18.8871 -23.0946 3.86557
      vertex 18.992 -23.0521 3.875
      vertex 18.9836 -22.9842 3.87416
    endloop
  endfacet
  facet normal -0.105041 -0.000805733 0.994468
    outer loop
      vertex 18.992 -23.0521 3.875
      vertex 19.0631 -22.9422 3.8826
      vertex 18.9836 -22.9842 3.87416
    endloop
  endfacet
  facet normal 0.559972 -0.828507 -0.00267858
    outer loop
      vertex 19.0803 -23.0073 2.215
      vertex 19.2559 -22.8885 2.215
      vertex 19.1708 -22.9515 3.89598
    endloop
  endfacet
  facet normal 0.594713 -0.803938 0
    outer loop
      vertex 19.2559 -22.8885 2.215
      vertex 19.2559 -22.8885 3.90816
      vertex 19.1708 -22.9515 3.89598
    endloop
  endfacet
  facet normal -0.108711 0.0015979 0.994072
    outer loop
      vertex 18.992 -23.0521 3.875
      vertex 19.0803 -23.0073 3.88458
      vertex 19.0631 -22.9422 3.8826
    endloop
  endfacet
  facet normal -0.120417 -0.00152477 0.992722
    outer loop
      vertex 19.0803 -23.0073 3.88458
      vertex 19.1504 -22.8866 3.89327
      vertex 19.0631 -22.9422 3.8826
    endloop
  endfacet
  facet normal -0.353434 0.935412 0.00939043
    outer loop
      vertex 18.8759 -23.0295 3.86469
      vertex 18.9015 -23.0199 3.86674
      vertex 19.0631 -22.9422 2.215
    endloop
  endfacet
  facet normal -0.398819 0.917021 0.0040832
    outer loop
      vertex 18.9015 -23.0199 3.86674
      vertex 18.9836 -22.9842 3.87416
      vertex 19.0631 -22.9422 2.215
    endloop
  endfacet
  facet normal -0.466751 0.884389 0
    outer loop
      vertex 19.0631 -22.9422 2.215
      vertex 18.9836 -22.9842 3.87416
      vertex 19.0631 -22.9422 3.8826
    endloop
  endfacet
  facet normal -0.573583 0.819147 0
    outer loop
      vertex 19.2323 -22.8238 2.215
      vertex 19.0631 -22.9422 2.215
      vertex 19.0631 -22.9422 3.8826
    endloop
  endfacet
  facet normal 0 0 -1
    outer loop
      vertex 19.0631 -22.9422 2.215
      vertex 19.2323 -22.8238 2.215
      vertex 19.2559 -22.8885 2.215
    endloop
  endfacet
  facet normal 0 0 -1
    outer loop
      vertex 19.2323 -22.8238 2.215
      vertex 19.409 -22.7418 2.215
      vertex 19.2559 -22.8885 2.215
    endloop
  endfacet
  facet normal 0.628219 0.778037 0
    outer loop
      vertex 19.3356 -21.0135 2.215
      vertex 19.1706 -20.8804 2.215
      vertex 19.1706 -20.8804 3.89595
    endloop
  endfacet
  facet normal 0 0 -1
    outer loop
      vertex 19.1706 -20.8804 2.215
      vertex 19.3356 -21.0135 2.215
      vertex 19.2323 -21.0082 2.215
    endloop
  endfacet
  facet normal 0 0 -1
    outer loop
      vertex 19.3356 -21.0135 2.215
      vertex 19.3784 -21.1543 2.215
      vertex 19.2323 -21.0082 2.215
    endloop
  endfacet
  facet normal -0.466676 -0.884429 0
    outer loop
      vertex 19.0631 -20.8897 3.8826
      vertex 18.9834 -20.8477 3.87414
      vertex 19.0631 -20.8897 2.215
    endloop
  endfacet
  facet normal -0.106574 -0.00216743 0.994302
    outer loop
      vertex 18.9834 -20.8477 3.87414
      vertex 19.0631 -20.8897 3.8826
      vertex 19.0803 -20.8247 3.88458
    endloop
  endfacet
  facet normal -0.123511 0.00235072 0.99234
    outer loop
      vertex 19.0631 -20.8897 3.8826
      vertex 19.1706 -20.8804 3.89595
      vertex 19.0803 -20.8247 3.88458
    endloop
  endfacet
  facet normal -0.707105 -0.707105 0.00244148
    outer loop
      vertex 19.2323 -21.0082 2.215
      vertex 19.3784 -21.1543 2.215
      vertex 19.3286 -21.0986 3.9197
    endloop
  endfacet
  facet normal -0.745395 -0.666623 0
    outer loop
      vertex 19.3784 -21.1543 2.215
      vertex 19.3784 -21.1543 3.92821
      vertex 19.3286 -21.0986 3.9197
    endloop
  endfacet
  facet normal -0.537447 -0.843298 0
    outer loop
      vertex 19.1507 -20.9455 3.89331
      vertex 19.0631 -20.8897 3.8826
      vertex 19.0631 -20.8897 2.215
    endloop
  endfacet
  facet normal -0.123078 -0.00266833 0.992393
    outer loop
      vertex 19.0631 -20.8897 3.8826
      vertex 19.1507 -20.9455 3.89331
      vertex 19.1706 -20.8804 3.89595
    endloop
  endfacet
  facet normal -0.139572 0.00246447 0.990209
    outer loop
      vertex 19.1507 -20.9455 3.89331
      vertex 19.2523 -20.9405 3.90762
      vertex 19.1706 -20.8804 3.89595
    endloop
  endfacet
  facet normal -0.139339 -0.0023769 0.990242
    outer loop
      vertex 19.1507 -20.9455 3.89331
      vertex 19.2323 -21.0082 3.90465
      vertex 19.2523 -20.9405 3.90762
    endloop
  endfacet
  facet normal -0.155069 0.00236544 0.987901
    outer loop
      vertex 19.2323 -21.0082 3.90465
      vertex 19.3356 -21.0135 3.92086
      vertex 19.2523 -20.9405 3.90762
    endloop
  endfacet
  facet normal -0.0908779 0.00194644 0.99586
    outer loop
      vertex 18.9836 -22.9842 3.87416
      vertex 18.9015 -23.0199 3.86674
      vertex 18.8871 -23.0946 3.86557
    endloop
  endfacet
  facet normal 0.524399 -0.851472 0
    outer loop
      vertex 19.1708 -22.9515 3.89598
      vertex 19.0803 -23.0073 3.88458
      vertex 19.0803 -23.0073 2.215
    endloop
  endfacet
  facet normal -0.126051 0.00180194 0.992022
    outer loop
      vertex 19.0803 -23.0073 3.88458
      vertex 19.1708 -22.9515 3.89598
      vertex 19.1504 -22.8866 3.89327
    endloop
  endfacet
  facet normal -0.13639 -0.00151055 0.990654
    outer loop
      vertex 19.1708 -22.9515 3.89598
      vertex 19.2323 -22.8238 3.90465
      vertex 19.1504 -22.8866 3.89327
    endloop
  endfacet
  facet normal 0.691935 -0.721955 -0.00262023
    outer loop
      vertex 19.2559 -22.8885 2.215
      vertex 19.409 -22.7418 2.215
      vertex 19.3286 -22.8251 3.9197
    endloop
  endfacet
  facet normal 0.71929 -0.69471 0
    outer loop
      vertex 19.409 -22.7418 2.215
      vertex 19.409 -22.7418 3.93368
      vertex 19.3286 -22.8251 3.9197
    endloop
  endfacet
  facet normal -0.142964 0.0017185 0.989726
    outer loop
      vertex 19.1708 -22.9515 3.89598
      vertex 19.2559 -22.8885 3.90816
      vertex 19.2323 -22.8238 3.90465
    endloop
  endfacet
  facet normal -0.152757 -0.00192437 0.988262
    outer loop
      vertex 19.2559 -22.8885 3.90816
      vertex 19.3286 -22.7334 3.9197
      vertex 19.2323 -22.8238 3.90465
    endloop
  endfacet
  facet normal -0.537797 0.843057 0.00532981
    outer loop
      vertex 19.0631 -22.9422 3.8826
      vertex 19.1504 -22.8866 3.89327
      vertex 19.2323 -22.8238 2.215
    endloop
  endfacet
  facet normal -0.608799 0.793325 0
    outer loop
      vertex 19.1504 -22.8866 3.89327
      vertex 19.2323 -22.8238 3.90465
      vertex 19.2323 -22.8238 2.215
    endloop
  endfacet
  facet normal -0.684456 0.729054 0
    outer loop
      vertex 19.2323 -22.8238 2.215
      vertex 19.2323 -22.8238 3.90465
      vertex 19.3286 -22.7334 3.9197
    endloop
  endfacet
  facet normal -0.707105 0.707105 0.00244225
    outer loop
      vertex 19.3784 -22.6777 2.215
      vertex 19.2323 -22.8238 2.215
      vertex 19.3286 -22.7334 3.9197
    endloop
  endfacet
  facet normal 0 0 -1
    outer loop
      vertex 19.2323 -22.8238 2.215
      vertex 19.3784 -22.6777 2.215
      vertex 19.409 -22.7418 2.215
    endloop
  endfacet
  facet normal 0 0 -1
    outer loop
      vertex 19.3784 -22.6777 2.215
      vertex 19.5351 -22.5714 2.215
      vertex 19.409 -22.7418 2.215
    endloop
  endfacet
  facet normal 0.75067 0.660672 -0.0026202
    outer loop
      vertex 19.4756 -21.1727 2.215
      vertex 19.3356 -21.0135 2.215
      vertex 19.4089 -21.0901 3.93367
    endloop
  endfacet
  facet normal 0.721928 0.691968 0
    outer loop
      vertex 19.3356 -21.0135 2.215
      vertex 19.3356 -21.0135 3.92086
      vertex 19.4089 -21.0901 3.93367
    endloop
  endfacet
  facet normal 0 0 -1
    outer loop
      vertex 19.3356 -21.0135 2.215
      vertex 19.4756 -21.1727 2.215
      vertex 19.3784 -21.1543 2.215
    endloop
  endfacet
  facet normal 0 0 -1
    outer loop
      vertex 19.4756 -21.1727 2.215
      vertex 19.4969 -21.3235 2.215
      vertex 19.3784 -21.1543 2.215
    endloop
  endfacet
  facet normal 0.593636 0.804715 -0.00550761
    outer loop
      vertex 19.1706 -20.8804 3.89595
      vertex 19.2523 -20.9405 3.90762
      vertex 19.3356 -21.0135 2.215
    endloop
  endfacet
  facet normal 0.659288 0.751891 0
    outer loop
      vertex 19.2523 -20.9405 3.90762
      vertex 19.3356 -21.0135 3.92086
      vertex 19.3356 -21.0135 2.215
    endloop
  endfacet
  facet normal -0.684463 -0.729047 0
    outer loop
      vertex 19.3286 -21.0986 3.9197
      vertex 19.2323 -21.0082 3.90465
      vertex 19.2323 -21.0082 2.215
    endloop
  endfacet
  facet normal -0.155227 -0.000770402 0.987879
    outer loop
      vertex 19.2323 -21.0082 3.90465
      vertex 19.3286 -21.0986 3.9197
      vertex 19.3356 -21.0135 3.92086
    endloop
  endfacet
  facet normal -0.171432 0.00059475 0.985196
    outer loop
      vertex 19.3286 -21.0986 3.9197
      vertex 19.4089 -21.0901 3.93367
      vertex 19.3356 -21.0135 3.92086
    endloop
  endfacet
  facet normal -0.819147 -0.573577 0.00261436
    outer loop
      vertex 19.3784 -21.1543 2.215
      vertex 19.4969 -21.3235 2.215
      vertex 19.4415 -21.2365 3.93971
    endloop
  endfacet
  facet normal -0.843455 -0.537199 0
    outer loop
      vertex 19.4969 -21.3235 2.215
      vertex 19.4969 -21.3235 3.95046
      vertex 19.4415 -21.2365 3.93971
    endloop
  endfacet
  facet normal -0.171118 -0.00244879 0.985247
    outer loop
      vertex 19.3286 -21.0986 3.9197
      vertex 19.3784 -21.1543 3.92821
      vertex 19.4089 -21.0901 3.93367
    endloop
  endfacet
  facet normal -0.181963 0.00286956 0.983301
    outer loop
      vertex 19.3784 -21.1543 3.92821
      vertex 19.4756 -21.1727 3.94626
      vertex 19.4089 -21.0901 3.93367
    endloop
  endfacet
  facet normal 0.657774 -0.753215 0
    outer loop
      vertex 19.3286 -22.8251 3.9197
      vertex 19.2559 -22.8885 3.90816
      vertex 19.2559 -22.8885 2.215
    endloop
  endfacet
  facet normal -0.156765 0 0.987636
    outer loop
      vertex 19.2559 -22.8885 3.90816
      vertex 19.3286 -22.8251 3.9197
      vertex 19.3286 -22.7334 3.9197
    endloop
  endfacet
  facet normal -0.168459 0 0.985709
    outer loop
      vertex 19.3286 -22.8251 3.9197
      vertex 19.3784 -22.6777 3.92821
      vertex 19.3286 -22.7334 3.9197
    endloop
  endfacet
  facet normal 0.803996 -0.594629 -0.00260039
    outer loop
      vertex 19.409 -22.7418 2.215
      vertex 19.5351 -22.5714 2.215
      vertex 19.4757 -22.6592 3.94628
    endloop
  endfacet
  facet normal 0.828539 -0.559931 0
    outer loop
      vertex 19.5351 -22.5714 2.215
      vertex 19.5351 -22.5714 3.95823
      vertex 19.4757 -22.6592 3.94628
    endloop
  endfacet
  facet normal -0.172945 0.00156102 0.98493
    outer loop
      vertex 19.3286 -22.8251 3.9197
      vertex 19.409 -22.7418 3.93368
      vertex 19.3784 -22.6777 3.92821
    endloop
  endfacet
  facet normal -0.178033 -0.000942188 0.984024
    outer loop
      vertex 19.409 -22.7418 3.93368
      vertex 19.4414 -22.5955 3.93969
      vertex 19.3784 -22.6777 3.92821
    endloop
  endfacet
  facet normal -0.819144 0.573581 0.00261488
    outer loop
      vertex 19.4969 -22.5085 2.215
      vertex 19.3784 -22.6777 2.215
      vertex 19.4414 -22.5955 3.93969
    endloop
  endfacet
  facet normal -0.793388 0.608717 0
    outer loop
      vertex 19.3784 -22.6777 2.215
      vertex 19.3784 -22.6777 3.92821
      vertex 19.4414 -22.5955 3.93969
    endloop
  endfacet
  facet normal 0 0 -1
    outer loop
      vertex 19.3784 -22.6777 2.215
      vertex 19.4969 -22.5085 2.215
      vertex 19.5351 -22.5714 2.215
    endloop
  endfacet
  facet normal 0 0 -1
    outer loop
      vertex 19.4969 -22.5085 2.215
      vertex 19.6305 -22.3821 2.215
      vertex 19.5351 -22.5714 2.215
    endloop
  endfacet
  facet normal -0.745406 0.66661 0
    outer loop
      vertex 19.3286 -22.7334 3.9197
      vertex 19.3784 -22.6777 3.92821
      vertex 19.3784 -22.6777 2.215
    endloop
  endfacet
  facet normal 0.851527 0.524305 -0.00258276
    outer loop
      vertex 19.5868 -21.3532 2.215
      vertex 19.4756 -21.1727 2.215
      vertex 19.5352 -21.2608 3.95825
    endloop
  endfacet
  facet normal 0.828559 0.559901 0
    outer loop
      vertex 19.4756 -21.1727 2.215
      vertex 19.4756 -21.1727 3.94626
      vertex 19.5352 -21.2608 3.95825
    endloop
  endfacet
  facet normal 0 0 -1
    outer loop
      vertex 19.4756 -21.1727 2.215
      vertex 19.5868 -21.3532 2.215
      vertex 19.4969 -21.3235 2.215
    endloop
  endfacet
  facet normal 0 0 -1
    outer loop
      vertex 19.5868 -21.3532 2.215
      vertex 19.5842 -21.5107 2.215
      vertex 19.4969 -21.3235 2.215
    endloop
  endfacet
  facet normal 0.778012 0.62825 0
    outer loop
      vertex 19.4089 -21.0901 3.93367
      vertex 19.4756 -21.1727 3.94626
      vertex 19.4756 -21.1727 2.215
    endloop
  endfacet
  facet normal -0.793429 -0.608663 0
    outer loop
      vertex 19.4415 -21.2365 3.93971
      vertex 19.3784 -21.1543 3.92821
      vertex 19.3784 -21.1543 2.215
    endloop
  endfacet
  facet normal -0.183041 -0.00302006 0.983101
    outer loop
      vertex 19.3784 -21.1543 3.92821
      vertex 19.4415 -21.2365 3.93971
      vertex 19.4756 -21.1727 3.94626
    endloop
  endfacet
  facet normal -0.193496 0.00277428 0.981097
    outer loop
      vertex 19.4415 -21.2365 3.93971
      vertex 19.5352 -21.2608 3.95825
      vertex 19.4756 -21.1727 3.94626
    endloop
  endfacet
  facet normal -0.906306 -0.422615 0.00258354
    outer loop
      vertex 19.4969 -21.3235 2.215
      vertex 19.5842 -21.5107 2.215
      vertex 19.5444 -21.4147 3.96018
    endloop
  endfacet
  facet normal -0.923801 -0.382874 0
    outer loop
      vertex 19.5842 -21.5107 2.215
      vertex 19.5842 -21.5107 3.96866
      vertex 19.5444 -21.4147 3.96018
    endloop
  endfacet
  facet normal -0.19491 -0.0029049 0.980817
    outer loop
      vertex 19.4415 -21.2365 3.93971
      vertex 19.4969 -21.3235 3.95046
      vertex 19.5352 -21.2608 3.95825
    endloop
  endfacet
  facet normal -0.203577 0.00260421 0.979055
    outer loop
      vertex 19.4969 -21.3235 3.95046
      vertex 19.5868 -21.3532 3.96923
      vertex 19.5352 -21.2608 3.95825
    endloop
  endfacet
  facet normal 0.778082 -0.628163 0
    outer loop
      vertex 19.4757 -22.6592 3.94628
      vertex 19.409 -22.7418 3.93368
      vertex 19.409 -22.7418 2.215
    endloop
  endfacet
  facet normal -0.186655 0.00103605 0.982425
    outer loop
      vertex 19.409 -22.7418 3.93368
      vertex 19.4757 -22.6592 3.94628
      vertex 19.4414 -22.5955 3.93969
    endloop
  endfacet
  facet normal -0.189596 -0.000607416 0.981862
    outer loop
      vertex 19.4757 -22.6592 3.94628
      vertex 19.4969 -22.5085 3.95046
      vertex 19.4414 -22.5955 3.93969
    endloop
  endfacet
  facet normal 0.892919 -0.450211 -0.0025674
    outer loop
      vertex 19.5351 -22.5714 2.215
      vertex 19.6305 -22.3821 2.215
      vertex 19.5866 -22.4791 3.96919
    endloop
  endfacet
  facet normal 0.911161 -0.41205 0
    outer loop
      vertex 19.6305 -22.3821 2.215
      vertex 19.6305 -22.3821 3.97895
      vertex 19.5866 -22.4791 3.96919
    endloop
  endfacet
  facet normal -0.198395 0.000676308 0.980122
    outer loop
      vertex 19.4757 -22.6592 3.94628
      vertex 19.5351 -22.5714 3.95823
      vertex 19.4969 -22.5085 3.95046
    endloop
  endfacet
  facet normal -0.199883 -0.000264645 0.97982
    outer loop
      vertex 19.5351 -22.5714 3.95823
      vertex 19.5445 -22.417 3.9602
      vertex 19.4969 -22.5085 3.95046
    endloop
  endfacet
  facet normal -0.906306 0.422615 0.00258277
    outer loop
      vertex 19.5842 -22.3213 2.215
      vertex 19.4969 -22.5085 2.215
      vertex 19.5445 -22.417 3.9602
    endloop
  endfacet
  facet normal -0.886982 0.461805 0
    outer loop
      vertex 19.4969 -22.5085 2.215
      vertex 19.4969 -22.5085 3.95046
      vertex 19.5445 -22.417 3.9602
    endloop
  endfacet
  facet normal 0 0 -1
    outer loop
      vertex 19.4969 -22.5085 2.215
      vertex 19.5842 -22.3213 2.215
      vertex 19.6305 -22.3821 2.215
    endloop
  endfacet
  facet normal 0 0 -1
    outer loop
      vertex 19.5842 -22.3213 2.215
      vertex 19.6926 -22.1793 2.215
      vertex 19.6305 -22.3821 2.215
    endloop
  endfacet
  facet normal -0.843428 0.537242 0
    outer loop
      vertex 19.4414 -22.5955 3.93969
      vertex 19.4969 -22.5085 3.95046
      vertex 19.4969 -22.5085 2.215
    endloop
  endfacet
  facet normal 0.927883 0.372863 -0.0025525
    outer loop
      vertex 19.6659 -21.55 2.215
      vertex 19.5868 -21.3532 2.215
      vertex 19.6304 -21.4498 3.97894
    endloop
  endfacet
  facet normal 0.911201 0.411962 0
    outer loop
      vertex 19.5868 -21.3532 2.215
      vertex 19.5868 -21.3532 3.96923
      vertex 19.6304 -21.4498 3.97894
    endloop
  endfacet
  facet normal 0 0 -1
    outer loop
      vertex 19.5868 -21.3532 2.215
      vertex 19.6659 -21.55 2.215
      vertex 19.5842 -21.5107 2.215
    endloop
  endfacet
  facet normal 0 0 -1
    outer loop
      vertex 19.6659 -21.55 2.215
      vertex 19.6376 -21.7102 2.215
      vertex 19.5842 -21.5107 2.215
    endloop
  endfacet
  facet normal 0.873051 0.487629 0
    outer loop
      vertex 19.5352 -21.2608 3.95825
      vertex 19.5868 -21.3532 3.96923
      vertex 19.5868 -21.3532 2.215
    endloop
  endfacet
  facet normal -0.886919 -0.461924 0
    outer loop
      vertex 19.5444 -21.4147 3.96018
      vertex 19.4969 -21.3235 3.95046
      vertex 19.4969 -21.3235 2.215
    endloop
  endfacet
  facet normal -0.205244 -0.00265513 0.978707
    outer loop
      vertex 19.4969 -21.3235 3.95046
      vertex 19.5444 -21.4147 3.96018
      vertex 19.5868 -21.3532 3.96923
    endloop
  endfacet
  facet normal -0.212186 0.00234585 0.977227
    outer loop
      vertex 19.5444 -21.4147 3.96018
      vertex 19.6304 -21.4498 3.97894
      vertex 19.5868 -21.3532 3.96923
    endloop
  endfacet
  facet normal -0.965922 -0.258819 0.00256056
    outer loop
      vertex 19.5842 -21.5107 2.215
      vertex 19.6376 -21.7102 2.215
      vertex 19.6153 -21.6095 3.97553
    endloop
  endfacet
  facet normal -0.976316 -0.216351 0
    outer loop
      vertex 19.6376 -21.7102 2.215
      vertex 19.6376 -21.7102 3.98058
      vertex 19.6153 -21.6095 3.97553
    endloop
  endfacet
  facet normal -0.213994 -0.00230713 0.976832
    outer loop
      vertex 19.5444 -21.4147 3.96018
      vertex 19.5842 -21.5107 3.96866
      vertex 19.6304 -21.4498 3.97894
    endloop
  endfacet
  facet normal -0.219365 0.00197249 0.975641
    outer loop
      vertex 19.5842 -21.5107 3.96866
      vertex 19.6659 -21.55 3.9871
      vertex 19.6304 -21.4498 3.97894
    endloop
  endfacet
  facet normal 0.872928 -0.487848 0
    outer loop
      vertex 19.5866 -22.4791 3.96919
      vertex 19.5351 -22.5714 3.95823
      vertex 19.5351 -22.5714 2.215
    endloop
  endfacet
  facet normal -0.208501 0.0002875 0.978022
    outer loop
      vertex 19.5351 -22.5714 3.95823
      vertex 19.5866 -22.4791 3.96919
      vertex 19.5445 -22.417 3.9602
    endloop
  endfacet
  facet normal -0.20882 6.135e-5 0.977954
    outer loop
      vertex 19.5866 -22.4791 3.96919
      vertex 19.5842 -22.3213 3.96866
      vertex 19.5445 -22.417 3.9602
    endloop
  endfacet
  facet normal 0.956165 -0.292817 -0.00254064
    outer loop
      vertex 19.6305 -22.3821 2.215
      vertex 19.6926 -22.1793 2.215
      vertex 19.6659 -22.2819 3.98711
    endloop
  endfacet
  facet normal 0.96774 -0.251949 0
    outer loop
      vertex 19.6926 -22.1793 2.215
      vertex 19.6926 -22.1793 3.99344
      vertex 19.6659 -22.2819 3.98711
    endloop
  endfacet
  facet normal -0.216976 -7.08342e-5 0.976177
    outer loop
      vertex 19.5866 -22.4791 3.96919
      vertex 19.6305 -22.3821 3.97895
      vertex 19.5842 -22.3213 3.96866
    endloop
  endfacet
  facet normal -0.216466 0.000337291 0.97629
    outer loop
      vertex 19.6305 -22.3821 3.97895
      vertex 19.6154 -22.2224 3.97554
      vertex 19.5842 -22.3213 3.96866
    endloop
  endfacet
  facet normal -0.965922 0.258819 0.00256092
    outer loop
      vertex 19.6376 -22.1218 2.215
      vertex 19.5842 -22.3213 2.215
      vertex 19.6154 -22.2224 3.97554
    endloop
  endfacet
  facet normal -0.953759 0.300573 0
    outer loop
      vertex 19.5842 -22.3213 2.215
      vertex 19.5842 -22.3213 3.96866
      vertex 19.6154 -22.2224 3.97554
    endloop
  endfacet
  facet normal 0 0 -1
    outer loop
      vertex 19.5842 -22.3213 2.215
      vertex 19.6376 -22.1218 2.215
      vertex 19.6926 -22.1793 2.215
    endloop
  endfacet
  facet normal 0 0 -1
    outer loop
      vertex 19.6376 -22.1218 2.215
      vertex 19.7195 -21.969 2.215
      vertex 19.6926 -22.1793 2.215
    endloop
  endfacet
  facet normal -0.923842 0.382773 0
    outer loop
      vertex 19.5445 -22.417 3.9602
      vertex 19.5842 -22.3213 3.96866
      vertex 19.5842 -22.3213 2.215
    endloop
  endfacet
  facet normal 0.977553 0.210674 -0.00253187
    outer loop
      vertex 19.7105 -21.7572 2.215
      vertex 19.6659 -21.55 2.215
      vertex 19.6926 -21.6528 3.99345
    endloop
  endfacet
  facet normal 0.967754 0.251896 0
    outer loop
      vertex 19.6659 -21.55 2.215
      vertex 19.6659 -21.55 3.9871
      vertex 19.6926 -21.6528 3.99345
    endloop
  endfacet
  facet normal 0 0 -1
    outer loop
      vertex 19.6659 -21.55 2.215
      vertex 19.7105 -21.7572 2.215
      vertex 19.6376 -21.7102 2.215
    endloop
  endfacet
  facet normal 0 0 -1
    outer loop
      vertex 19.7105 -21.7572 2.215
      vertex 19.6556 -21.916 2.215
      vertex 19.6376 -21.7102 2.215
    endloop
  endfacet
  facet normal 0.942851 0.333214 0
    outer loop
      vertex 19.6304 -21.4498 3.97894
      vertex 19.6659 -21.55 3.9871
      vertex 19.6659 -21.55 2.215
    endloop
  endfacet
  facet normal -0.953752 -0.300595 0
    outer loop
      vertex 19.6153 -21.6095 3.97553
      vertex 19.5842 -21.5107 3.96866
      vertex 19.5842 -21.5107 2.215
    endloop
  endfacet
  facet normal -0.221128 -0.00188008 0.975243
    outer loop
      vertex 19.5842 -21.5107 3.96866
      vertex 19.6153 -21.6095 3.97553
      vertex 19.6659 -21.55 3.9871
    endloop
  endfacet
  facet normal -0.224964 0.00154476 0.974366
    outer loop
      vertex 19.6153 -21.6095 3.97553
      vertex 19.6926 -21.6528 3.99345
      vertex 19.6659 -21.55 3.9871
    endloop
  endfacet
  facet normal -0.996192 -0.0871543 0.00254878
    outer loop
      vertex 19.6376 -21.7102 2.215
      vertex 19.6556 -21.916 2.215
      vertex 19.6511 -21.8123 3.98367
    endloop
  endfacet
  facet normal -0.999039 -0.0438233 0
    outer loop
      vertex 19.6556 -21.916 2.215
      vertex 19.6556 -21.916 3.98472
      vertex 19.6511 -21.8123 3.98367
    endloop
  endfacet
  facet normal -0.226531 -0.00140167 0.974003
    outer loop
      vertex 19.6153 -21.6095 3.97553
      vertex 19.6376 -21.7102 3.98058
      vertex 19.6926 -21.6528 3.99345
    endloop
  endfacet
  facet normal -0.228977 0.00107071 0.973431
    outer loop
      vertex 19.6376 -21.7102 3.98058
      vertex 19.7105 -21.7572 3.99777
      vertex 19.6926 -21.6528 3.99345
    endloop
  endfacet
  facet normal 0.942893 -0.333096 0
    outer loop
      vertex 19.6659 -22.2819 3.98711
      vertex 19.6305 -22.3821 3.97895
      vertex 19.6305 -22.3821 2.215
    endloop
  endfacet
  facet normal -0.223662 -0.000380566 0.974667
    outer loop
      vertex 19.6305 -22.3821 3.97895
      vertex 19.6659 -22.2819 3.98711
      vertex 19.6154 -22.2224 3.97554
    endloop
  endfacet
  facet normal -0.222674 0.000502052 0.974893
    outer loop
      vertex 19.6659 -22.2819 3.98711
      vertex 19.6376 -22.1218 3.98058
      vertex 19.6154 -22.2224 3.97554
    endloop
  endfacet
  facet normal 0.991897 -0.12702 -0.00252496
    outer loop
      vertex 19.6926 -22.1793 2.215
      vertex 19.7195 -21.969 2.215
      vertex 19.7105 -22.0751 3.99776
    endloop
  endfacet
  facet normal 0.996386 -0.0849418 0
    outer loop
      vertex 19.7195 -21.969 2.215
      vertex 19.7195 -21.969 3.99997
      vertex 19.7105 -22.0751 3.99776
    endloop
  endfacet
  facet normal -0.228499 -0.000579704 0.973544
    outer loop
      vertex 19.6659 -22.2819 3.98711
      vertex 19.6926 -22.1793 3.99344
      vertex 19.6376 -22.1218 3.98058
    endloop
  endfacet
  facet normal -0.227444 0.00048164 0.973791
    outer loop
      vertex 19.6926 -22.1793 3.99344
      vertex 19.6511 -22.0195 3.98367
      vertex 19.6376 -22.1218 3.98058
    endloop
  endfacet
  facet normal -0.996192 0.0871535 0.00254921
    outer loop
      vertex 19.6556 -21.916 2.215
      vertex 19.6376 -22.1218 2.215
      vertex 19.6511 -22.0195 3.98367
    endloop
  endfacet
  facet normal -0.991432 0.130626 0
    outer loop
      vertex 19.6376 -22.1218 2.215
      vertex 19.6376 -22.1218 3.98058
      vertex 19.6511 -22.0195 3.98367
    endloop
  endfacet
  facet normal 0 0 -1
    outer loop
      vertex 19.6376 -22.1218 2.215
      vertex 19.6556 -21.916 2.215
      vertex 19.7195 -21.969 2.215
    endloop
  endfacet
  facet normal 0 0 -1
    outer loop
      vertex 19.6556 -21.916 2.215
      vertex 19.7105 -21.7572 2.215
      vertex 19.7195 -21.969 2.215
    endloop
  endfacet
  facet normal -0.976323 0.216316 0
    outer loop
      vertex 19.6154 -22.2224 3.97554
      vertex 19.6376 -22.1218 3.98058
      vertex 19.6376 -22.1218 2.215
    endloop
  endfacet
  facet normal 0.999096 0.042442 -0.00252258
    outer loop
      vertex 19.7195 -21.969 2.215
      vertex 19.7105 -21.7572 2.215
      vertex 19.7195 -21.8628 3.99997
    endloop
  endfacet
  facet normal 0.996394 0.0848503 0
    outer loop
      vertex 19.7105 -21.7572 2.215
      vertex 19.7105 -21.7572 3.99777
      vertex 19.7195 -21.8628 3.99997
    endloop
  endfacet
  facet normal 0.985629 0.168923 0
    outer loop
      vertex 19.6926 -21.6528 3.99345
      vertex 19.7105 -21.7572 3.99777
      vertex 19.7105 -21.7572 2.215
    endloop
  endfacet
  facet normal -0.991421 -0.130705 0
    outer loop
      vertex 19.6511 -21.8123 3.98367
      vertex 19.6376 -21.7102 3.98058
      vertex 19.6376 -21.7102 2.215
    endloop
  endfacet
  facet normal -0.230153 -0.000852986 0.973154
    outer loop
      vertex 19.6376 -21.7102 3.98058
      vertex 19.6511 -21.8123 3.98367
      vertex 19.7105 -21.7572 3.99777
    endloop
  endfacet
  facet normal -0.231382 0.000548736 0.972863
    outer loop
      vertex 19.6511 -21.8123 3.98367
      vertex 19.7195 -21.8628 3.99997
      vertex 19.7105 -21.7572 3.99777
    endloop
  endfacet
  facet normal -0.231974 -0.000298771 0.972722
    outer loop
      vertex 19.6511 -21.8123 3.98367
      vertex 19.6556 -21.916 3.98472
      vertex 19.7195 -21.8628 3.99997
    endloop
  endfacet
  facet normal -0.232207 -3.68744e-6 0.972666
    outer loop
      vertex 19.6556 -21.916 3.98472
      vertex 19.7195 -21.969 3.99997
      vertex 19.7195 -21.8628 3.99997
    endloop
  endfacet
  facet normal 0.985598 -0.169105 0
    outer loop
      vertex 19.7105 -22.0751 3.99776
      vertex 19.6926 -22.1793 3.99344
      vertex 19.6926 -22.1793 2.215
    endloop
  endfacet
  facet normal -0.231458 -0.000617778 0.972845
    outer loop
      vertex 19.6926 -22.1793 3.99344
      vertex 19.7105 -22.0751 3.99776
      vertex 19.6511 -22.0195 3.98367
    endloop
  endfacet
  facet normal -0.230704 0.00023394 0.973024
    outer loop
      vertex 19.7105 -22.0751 3.99776
      vertex 19.6556 -21.916 3.98472
      vertex 19.6511 -22.0195 3.98367
    endloop
  endfacet
  facet normal -0.232548 -0.000437837 0.972585
    outer loop
      vertex 19.7105 -22.0751 3.99776
      vertex 19.7195 -21.969 3.99997
      vertex 19.6556 -21.916 3.98472
    endloop
  endfacet
  facet normal -0.999043 0.0437297 0
    outer loop
      vertex 19.6511 -22.0195 3.98367
      vertex 19.6556 -21.916 3.98472
      vertex 19.6556 -21.916 2.215
    endloop
  endfacet
  facet normal 1 5.26057e-5 0
    outer loop
      vertex 19.7195 -21.8628 3.99997
      vertex 19.7195 -21.969 3.99997
      vertex 19.7195 -21.969 2.215
    endloop
  endfacet
endsolid Onshape
