solid Onshape
  facet normal -0.0748851 -0.428624 0.900374
    outer loop
      vertex 17.1837 -24.6483 8.88808
      vertex 17.1831 -24.6311 8.8962
      vertex 17.1445 -24.6483 8.88482
    endloop
  endfacet
  facet normal -0.0748623 -0.428664 0.900357
    outer loop
      vertex 17.1831 -24.6311 8.8962
      vertex 17.1438 -24.6311 8.89294
      vertex 17.1445 -24.6483 8.88482
    endloop
  endfacet
  facet normal 0.996559 4.97492e-5 0.0828842
    outer loop
      vertex 17.1831 -24.6311 8.8962
      vertex 17.1837 -24.6483 8.88808
      vertex 17.1922 -24.5892 8.78614
    endloop
  endfacet
  facet normal 0.996563 -2.9683e-5 0.0828385
    outer loop
      vertex 17.1837 -24.6483 8.88808
      vertex 17.1846 -24.6639 8.87732
      vertex 17.1922 -24.5892 8.78614
    endloop
  endfacet
  facet normal 0.99656 1.96997e-5 0.0828787
    outer loop
      vertex 17.1922 -24.5892 8.78614
      vertex 17.1846 -24.6639 8.87732
      vertex 17.1857 -24.6776 8.8642
    endloop
  endfacet
  facet normal 0.996562 -2.91705e-5 0.0828544
    outer loop
      vertex 17.1826 -24.6128 8.90147
      vertex 17.1831 -24.6311 8.8962
      vertex 17.1922 -24.5892 8.78614
    endloop
  endfacet
  facet normal -0.0795887 -0.278268 0.9572
    outer loop
      vertex 17.1831 -24.6311 8.8962
      vertex 17.1826 -24.6128 8.90147
      vertex 17.1438 -24.6311 8.89294
    endloop
  endfacet
  facet normal -0.0796124 -0.278223 0.957212
    outer loop
      vertex 17.1826 -24.6128 8.90147
      vertex 17.1434 -24.6128 8.89821
      vertex 17.1438 -24.6311 8.89294
    endloop
  endfacet
  facet normal -0.996558 -3.94621e-5 -0.0828964
    outer loop
      vertex 17.1445 -24.6483 8.88482
      vertex 17.1438 -24.6311 8.89294
      vertex 17.153 -24.5892 8.78288
    endloop
  endfacet
  facet normal -0.99656 2.95669e-5 -0.0828703
    outer loop
      vertex 17.1438 -24.6311 8.89294
      vertex 17.1434 -24.6128 8.89821
      vertex 17.153 -24.5892 8.78288
    endloop
  endfacet
  facet normal -0.99656 -8.10979e-6 -0.082878
    outer loop
      vertex 17.153 -24.5892 8.78288
      vertex 17.1434 -24.6128 8.89821
      vertex 17.1432 -24.594 8.90049
    endloop
  endfacet
  facet normal -0.996558 -4.97373e-5 -0.0829023
    outer loop
      vertex 17.1454 -24.6639 8.87405
      vertex 17.1445 -24.6483 8.88482
      vertex 17.153 -24.5892 8.78288
    endloop
  endfacet
  facet normal -0.068212 -0.568083 0.82014
    outer loop
      vertex 17.1445 -24.6483 8.88482
      vertex 17.1454 -24.6639 8.87405
      vertex 17.1837 -24.6483 8.88808
    endloop
  endfacet
  facet normal -0.0681943 -0.56811 0.820122
    outer loop
      vertex 17.1454 -24.6639 8.87405
      vertex 17.1846 -24.6639 8.87732
      vertex 17.1837 -24.6483 8.88808
    endloop
  endfacet
  facet normal -0.99656 -1.69982e-5 -0.0828757
    outer loop
      vertex 17.1465 -24.6776 8.86093
      vertex 17.1454 -24.6639 8.87405
      vertex 17.153 -24.5892 8.78288
    endloop
  endfacet
  facet normal -0.0597629 -0.692722 0.718724
    outer loop
      vertex 17.1454 -24.6639 8.87405
      vertex 17.1465 -24.6776 8.86093
      vertex 17.1846 -24.6639 8.87732
    endloop
  endfacet
  facet normal -0.0597819 -0.692697 0.718747
    outer loop
      vertex 17.1465 -24.6776 8.86093
      vertex 17.1857 -24.6776 8.8642
      vertex 17.1846 -24.6639 8.87732
    endloop
  endfacet
  facet normal -0.00666874 0.996759 0.0801733
    outer loop
      vertex 17.1906 -24.4726 8.80503
      vertex 17.1922 -24.4711 8.78614
      vertex 17.1514 -24.4726 8.80176
    endloop
  endfacet
  facet normal -0.00666848 0.996759 0.080174
    outer loop
      vertex 17.1922 -24.4711 8.78614
      vertex 17.153 -24.4711 8.78288
      vertex 17.1514 -24.4726 8.80176
    endloop
  endfacet
  facet normal 0.99656 0 0.0828746
    outer loop
      vertex 17.1922 -24.4711 8.78614
      vertex 17.1906 -24.4726 8.80503
      vertex 17.1922 -24.5892 8.78614
    endloop
  endfacet
  facet normal 0.996561 2.02333e-6 0.0828622
    outer loop
      vertex 17.1906 -24.4726 8.80503
      vertex 17.1891 -24.4772 8.82342
      vertex 17.1922 -24.5892 8.78614
    endloop
  endfacet
  facet normal 0.99656 -1.55977e-6 0.0828729
    outer loop
      vertex 17.1922 -24.5892 8.78614
      vertex 17.1891 -24.4772 8.82342
      vertex 17.1877 -24.4846 8.84084
    endloop
  endfacet
  facet normal 0.996552 0 0.0829723
    outer loop
      vertex 17.1938 -24.4726 8.76726
      vertex 17.1922 -24.4711 8.78614
      vertex 17.1922 -24.5892 8.78614
    endloop
  endfacet
  facet normal 0.00666837 0.996759 -0.0801727
    outer loop
      vertex 17.1922 -24.4711 8.78614
      vertex 17.1938 -24.4726 8.76726
      vertex 17.153 -24.4711 8.78288
    endloop
  endfacet
  facet normal 0.00666655 0.996758 -0.0801774
    outer loop
      vertex 17.1938 -24.4726 8.76726
      vertex 17.1546 -24.4726 8.764
      vertex 17.153 -24.4711 8.78288
    endloop
  endfacet
  facet normal -0.99656 0 -0.0828787
    outer loop
      vertex 17.153 -24.4711 8.78288
      vertex 17.1546 -24.4726 8.764
      vertex 17.153 -24.5892 8.78288
    endloop
  endfacet
  facet normal -0.996561 3.31315e-6 -0.0828584
    outer loop
      vertex 17.1546 -24.4726 8.764
      vertex 17.1561 -24.4772 8.74561
      vertex 17.153 -24.5892 8.78288
    endloop
  endfacet
  facet normal -0.996552 -3.25859e-5 -0.0829655
    outer loop
      vertex 17.153 -24.5892 8.78288
      vertex 17.1561 -24.4772 8.74561
      vertex 17.1575 -24.4846 8.72818
    endloop
  endfacet
  facet normal -0.996568 0 -0.082777
    outer loop
      vertex 17.1514 -24.4726 8.80176
      vertex 17.153 -24.4711 8.78288
      vertex 17.153 -24.5892 8.78288
    endloop
  endfacet
  facet normal -0.996553 2.96566e-5 -0.0829588
    outer loop
      vertex 17.1499 -24.4772 8.82015
      vertex 17.1514 -24.4726 8.80176
      vertex 17.153 -24.5892 8.78288
    endloop
  endfacet
  facet normal -0.0198374 0.970942 0.23849
    outer loop
      vertex 17.1514 -24.4726 8.80176
      vertex 17.1499 -24.4772 8.82015
      vertex 17.1906 -24.4726 8.80503
    endloop
  endfacet
  facet normal -0.0198413 0.970945 0.238481
    outer loop
      vertex 17.1499 -24.4772 8.82015
      vertex 17.1891 -24.4772 8.82342
      vertex 17.1906 -24.4726 8.80503
    endloop
  endfacet
  facet normal 0.99656 -1.66789e-5 0.08287
    outer loop
      vertex 17.1953 -24.4772 8.74887
      vertex 17.1938 -24.4726 8.76726
      vertex 17.1922 -24.5892 8.78614
    endloop
  endfacet
  facet normal 0.0198301 0.970942 -0.238493
    outer loop
      vertex 17.1938 -24.4726 8.76726
      vertex 17.1953 -24.4772 8.74887
      vertex 17.1546 -24.4726 8.764
    endloop
  endfacet
  facet normal 0.0198394 0.970947 -0.238469
    outer loop
      vertex 17.1953 -24.4772 8.74887
      vertex 17.1561 -24.4772 8.74561
      vertex 17.1546 -24.4726 8.764
    endloop
  endfacet
  facet normal 0.0748697 -0.428657 -0.90036
    outer loop
      vertex 17.2014 -24.6311 8.67609
      vertex 17.2007 -24.6483 8.68421
      vertex 17.1621 -24.6311 8.67283
    endloop
  endfacet
  facet normal 0.0748659 -0.428664 -0.900357
    outer loop
      vertex 17.2007 -24.6483 8.68421
      vertex 17.1615 -24.6483 8.68095
      vertex 17.1621 -24.6311 8.67283
    endloop
  endfacet
  facet normal 0.996561 5.21418e-5 0.0828618
    outer loop
      vertex 17.2007 -24.6483 8.68421
      vertex 17.2014 -24.6311 8.67609
      vertex 17.1922 -24.5892 8.78614
    endloop
  endfacet
  facet normal 0.996557 -6.2039e-5 0.0829049
    outer loop
      vertex 17.2014 -24.6311 8.67609
      vertex 17.2018 -24.6128 8.67082
      vertex 17.1922 -24.5892 8.78614
    endloop
  endfacet
  facet normal 0.996558 -6.20967e-6 0.0828936
    outer loop
      vertex 17.1922 -24.5892 8.78614
      vertex 17.2018 -24.6128 8.67082
      vertex 17.202 -24.594 8.66854
    endloop
  endfacet
  facet normal 0.996561 4.75982e-5 0.0828644
    outer loop
      vertex 17.1998 -24.6639 8.69497
      vertex 17.2007 -24.6483 8.68421
      vertex 17.1922 -24.5892 8.78614
    endloop
  endfacet
  facet normal 0.0681943 -0.56811 -0.820122
    outer loop
      vertex 17.2007 -24.6483 8.68421
      vertex 17.1998 -24.6639 8.69497
      vertex 17.1615 -24.6483 8.68095
    endloop
  endfacet
  facet normal 0.0682155 -0.568077 -0.820143
    outer loop
      vertex 17.1998 -24.6639 8.69497
      vertex 17.1606 -24.6639 8.69171
      vertex 17.1615 -24.6483 8.68095
    endloop
  endfacet
  facet normal -0.996561 -4.44429e-5 -0.0828669
    outer loop
      vertex 17.1615 -24.6483 8.68095
      vertex 17.1606 -24.6639 8.69171
      vertex 17.153 -24.5892 8.78288
    endloop
  endfacet
  facet normal -0.996558 -2.14423e-6 -0.0829014
    outer loop
      vertex 17.1606 -24.6639 8.69171
      vertex 17.1595 -24.6776 8.70483
      vertex 17.153 -24.5892 8.78288
    endloop
  endfacet
  facet normal -0.996554 4.31463e-5 -0.0829523
    outer loop
      vertex 17.153 -24.5892 8.78288
      vertex 17.1595 -24.6776 8.70483
      vertex 17.1582 -24.689 8.71997
    endloop
  endfacet
  facet normal -0.996557 3.24221e-5 -0.0829112
    outer loop
      vertex 17.1621 -24.6311 8.67283
      vertex 17.1615 -24.6483 8.68095
      vertex 17.153 -24.5892 8.78288
    endloop
  endfacet
  facet normal -0.996559 -3.41361e-5 -0.082886
    outer loop
      vertex 17.1626 -24.6128 8.66756
      vertex 17.1621 -24.6311 8.67283
      vertex 17.153 -24.5892 8.78288
    endloop
  endfacet
  facet normal 0.0795973 -0.278223 -0.957213
    outer loop
      vertex 17.1621 -24.6311 8.67283
      vertex 17.1626 -24.6128 8.66756
      vertex 17.2014 -24.6311 8.67609
    endloop
  endfacet
  facet normal 0.0795934 -0.27823 -0.957211
    outer loop
      vertex 17.1626 -24.6128 8.66756
      vertex 17.2018 -24.6128 8.67082
      vertex 17.2014 -24.6311 8.67609
    endloop
  endfacet
  facet normal 0.996558 2.14423e-6 0.0829014
    outer loop
      vertex 17.1987 -24.6776 8.70809
      vertex 17.1998 -24.6639 8.69497
      vertex 17.1922 -24.5892 8.78614
    endloop
  endfacet
  facet normal 0.0597819 -0.692697 -0.718747
    outer loop
      vertex 17.1998 -24.6639 8.69497
      vertex 17.1987 -24.6776 8.70809
      vertex 17.1606 -24.6639 8.69171
    endloop
  endfacet
  facet normal 0.0597819 -0.692697 -0.718747
    outer loop
      vertex 17.1987 -24.6776 8.70809
      vertex 17.1595 -24.6776 8.70483
      vertex 17.1606 -24.6639 8.69171
    endloop
  endfacet
  facet normal 0.996559 0.000106008 0.0828819
    outer loop
      vertex 17.1824 -24.594 8.90375
      vertex 17.1826 -24.6128 8.90147
      vertex 17.1922 -24.5892 8.78614
    endloop
  endfacet
  facet normal -0.0822808 -0.120519 0.989295
    outer loop
      vertex 17.1826 -24.6128 8.90147
      vertex 17.1824 -24.594 8.90375
      vertex 17.1434 -24.6128 8.89821
    endloop
  endfacet
  facet normal -0.0822848 -0.120511 0.989296
    outer loop
      vertex 17.1824 -24.594 8.90375
      vertex 17.1432 -24.594 8.90049
      vertex 17.1434 -24.6128 8.89821
    endloop
  endfacet
  facet normal -0.996561 -3.38624e-6 -0.0828603
    outer loop
      vertex 17.1478 -24.689 8.84579
      vertex 17.1465 -24.6776 8.86093
      vertex 17.153 -24.5892 8.78288
    endloop
  endfacet
  facet normal -0.0497929 -0.799461 0.598651
    outer loop
      vertex 17.1465 -24.6776 8.86093
      vertex 17.1478 -24.689 8.84579
      vertex 17.1857 -24.6776 8.8642
    endloop
  endfacet
  facet normal -0.0497955 -0.799458 0.598655
    outer loop
      vertex 17.1478 -24.689 8.84579
      vertex 17.187 -24.689 8.84905
      vertex 17.1857 -24.6776 8.8642
    endloop
  endfacet
  facet normal -0.996561 -1.62319e-6 -0.0828655
    outer loop
      vertex 17.1484 -24.4846 8.83758
      vertex 17.1499 -24.4772 8.82015
      vertex 17.153 -24.5892 8.78288
    endloop
  endfacet
  facet normal -0.0324976 0.919986 0.390601
    outer loop
      vertex 17.1499 -24.4772 8.82015
      vertex 17.1484 -24.4846 8.83758
      vertex 17.1891 -24.4772 8.82342
    endloop
  endfacet
  facet normal -0.0324821 0.919971 0.390638
    outer loop
      vertex 17.1484 -24.4846 8.83758
      vertex 17.1877 -24.4846 8.84084
      vertex 17.1891 -24.4772 8.82342
    endloop
  endfacet
  facet normal 0.032491 0.919972 -0.390634
    outer loop
      vertex 17.1575 -24.4846 8.72818
      vertex 17.1561 -24.4772 8.74561
      vertex 17.1968 -24.4846 8.73144
    endloop
  endfacet
  facet normal 0.0324975 0.919979 -0.390619
    outer loop
      vertex 17.1561 -24.4772 8.74561
      vertex 17.1953 -24.4772 8.74887
      vertex 17.1968 -24.4846 8.73144
    endloop
  endfacet
  facet normal -0.996558 2.13811e-6 -0.0828934
    outer loop
      vertex 17.1628 -24.594 8.66527
      vertex 17.1626 -24.6128 8.66756
      vertex 17.153 -24.5892 8.78288
    endloop
  endfacet
  facet normal 0.082261 -0.120559 -0.989292
    outer loop
      vertex 17.1626 -24.6128 8.66756
      vertex 17.1628 -24.594 8.66527
      vertex 17.2018 -24.6128 8.67082
    endloop
  endfacet
  facet normal 0.0822848 -0.120511 -0.989296
    outer loop
      vertex 17.1628 -24.594 8.66527
      vertex 17.202 -24.594 8.66854
      vertex 17.2018 -24.6128 8.67082
    endloop
  endfacet
  facet normal 0.0497902 -0.799464 -0.598647
    outer loop
      vertex 17.1582 -24.689 8.71997
      vertex 17.1595 -24.6776 8.70483
      vertex 17.1975 -24.689 8.72323
    endloop
  endfacet
  facet normal 0.0497929 -0.799461 -0.598651
    outer loop
      vertex 17.1595 -24.6776 8.70483
      vertex 17.1987 -24.6776 8.70809
      vertex 17.1975 -24.689 8.72323
    endloop
  endfacet
  facet normal -0.996566 3.57967e-5 -0.0827986
    outer loop
      vertex 17.1491 -24.6979 8.82902
      vertex 17.1478 -24.689 8.84579
      vertex 17.153 -24.5892 8.78288
    endloop
  endfacet
  facet normal -0.0385192 -0.885475 0.463088
    outer loop
      vertex 17.1478 -24.689 8.84579
      vertex 17.1491 -24.6979 8.82902
      vertex 17.187 -24.689 8.84905
    endloop
  endfacet
  facet normal -0.0385276 -0.885468 0.463101
    outer loop
      vertex 17.1491 -24.6979 8.82902
      vertex 17.1884 -24.6979 8.83228
      vertex 17.187 -24.689 8.84905
    endloop
  endfacet
  facet normal -0.0828216 0.0402683 0.99575
    outer loop
      vertex 17.1433 -24.575 8.89973
      vertex 17.1432 -24.594 8.90049
      vertex 17.1825 -24.575 8.90299
    endloop
  endfacet
  facet normal -0.0828216 0.0402683 0.99575
    outer loop
      vertex 17.1432 -24.594 8.90049
      vertex 17.1824 -24.594 8.90375
      vertex 17.1825 -24.575 8.90299
    endloop
  endfacet
  facet normal -0.99656 -5.43837e-6 -0.0828779
    outer loop
      vertex 17.1432 -24.594 8.90049
      vertex 17.1433 -24.575 8.89973
      vertex 17.153 -24.5892 8.78288
    endloop
  endfacet
  facet normal -0.99656 -1.5254e-5 -0.0828767
    outer loop
      vertex 17.1433 -24.575 8.89973
      vertex 17.1436 -24.5564 8.89594
      vertex 17.153 -24.5892 8.78288
    endloop
  endfacet
  facet normal -0.996559 9.32171e-6 -0.0828838
    outer loop
      vertex 17.153 -24.5892 8.78288
      vertex 17.1436 -24.5564 8.89594
      vertex 17.1441 -24.5386 8.88922
    endloop
  endfacet
  facet normal -0.996566 -3.24854e-5 -0.0828069
    outer loop
      vertex 17.1471 -24.4948 8.85359
      vertex 17.1484 -24.4846 8.83758
      vertex 17.153 -24.5892 8.78288
    endloop
  endfacet
  facet normal -0.0442895 0.845184 0.532637
    outer loop
      vertex 17.1484 -24.4846 8.83758
      vertex 17.1471 -24.4948 8.85359
      vertex 17.1877 -24.4846 8.84084
    endloop
  endfacet
  facet normal -0.044302 0.845201 0.53261
    outer loop
      vertex 17.1471 -24.4948 8.85359
      vertex 17.1863 -24.4948 8.85685
      vertex 17.1877 -24.4846 8.84084
    endloop
  endfacet
  facet normal 0.0442981 0.845198 -0.532614
    outer loop
      vertex 17.1589 -24.4948 8.71217
      vertex 17.1575 -24.4846 8.72818
      vertex 17.1981 -24.4948 8.71543
    endloop
  endfacet
  facet normal 0.0442999 0.845201 -0.53261
    outer loop
      vertex 17.1575 -24.4846 8.72818
      vertex 17.1968 -24.4846 8.73144
      vertex 17.1981 -24.4948 8.71543
    endloop
  endfacet
  facet normal -0.996565 4.82572e-5 -0.082812
    outer loop
      vertex 17.1575 -24.4846 8.72818
      vertex 17.1589 -24.4948 8.71217
      vertex 17.153 -24.5892 8.78288
    endloop
  endfacet
  facet normal -0.996554 -5.70926e-5 -0.0829517
    outer loop
      vertex 17.1589 -24.4948 8.71217
      vertex 17.16 -24.5074 8.69799
      vertex 17.153 -24.5892 8.78288
    endloop
  endfacet
  facet normal -0.996558 -4.24036e-7 -0.0828975
    outer loop
      vertex 17.153 -24.5892 8.78288
      vertex 17.16 -24.5074 8.69799
      vertex 17.161 -24.5221 8.68601
    endloop
  endfacet
  facet normal -0.996558 6.07329e-6 -0.0828936
    outer loop
      vertex 17.1627 -24.575 8.66603
      vertex 17.1628 -24.594 8.66527
      vertex 17.153 -24.5892 8.78288
    endloop
  endfacet
  facet normal 0.0828216 0.0402683 -0.99575
    outer loop
      vertex 17.1628 -24.594 8.66527
      vertex 17.1627 -24.575 8.66603
      vertex 17.202 -24.594 8.66854
    endloop
  endfacet
  facet normal 0.0828255 0.0402764 -0.99575
    outer loop
      vertex 17.1627 -24.575 8.66603
      vertex 17.2019 -24.575 8.6693
      vertex 17.202 -24.594 8.66854
    endloop
  endfacet
  facet normal 0.0385083 -0.885475 -0.463089
    outer loop
      vertex 17.1568 -24.6979 8.73674
      vertex 17.1582 -24.689 8.71997
      vertex 17.1961 -24.6979 8.74001
    endloop
  endfacet
  facet normal 0.0385167 -0.885468 -0.463102
    outer loop
      vertex 17.1582 -24.689 8.71997
      vertex 17.1975 -24.689 8.72323
      vertex 17.1961 -24.6979 8.74001
    endloop
  endfacet
  facet normal -0.996566 -4.97584e-5 -0.0828059
    outer loop
      vertex 17.1582 -24.689 8.71997
      vertex 17.1568 -24.6979 8.73674
      vertex 17.153 -24.5892 8.78288
    endloop
  endfacet
  facet normal -0.996554 1.25123e-5 -0.0829515
    outer loop
      vertex 17.1568 -24.6979 8.73674
      vertex 17.1553 -24.7039 8.75471
      vertex 17.153 -24.5892 8.78288
    endloop
  endfacet
  facet normal -0.996558 1.74431e-7 -0.0829017
    outer loop
      vertex 17.153 -24.5892 8.78288
      vertex 17.1553 -24.7039 8.75471
      vertex 17.1538 -24.7069 8.77341
    endloop
  endfacet
  facet normal -0.0812104 0.199997 0.976425
    outer loop
      vertex 17.1436 -24.5564 8.89594
      vertex 17.1433 -24.575 8.89973
      vertex 17.1828 -24.5564 8.8992
    endloop
  endfacet
  facet normal -0.0812141 0.200005 0.976423
    outer loop
      vertex 17.1433 -24.575 8.89973
      vertex 17.1825 -24.575 8.90299
      vertex 17.1828 -24.5564 8.8992
    endloop
  endfacet
  facet normal -0.0774987 0.354608 0.931798
    outer loop
      vertex 17.1441 -24.5386 8.88922
      vertex 17.1436 -24.5564 8.89594
      vertex 17.1834 -24.5386 8.89248
    endloop
  endfacet
  facet normal -0.0774987 0.354608 0.931798
    outer loop
      vertex 17.1436 -24.5564 8.89594
      vertex 17.1828 -24.5564 8.8992
      vertex 17.1834 -24.5386 8.89248
    endloop
  endfacet
  facet normal -0.0717603 0.499996 0.86305
    outer loop
      vertex 17.1449 -24.5221 8.87975
      vertex 17.1441 -24.5386 8.88922
      vertex 17.1842 -24.5221 8.88301
    endloop
  endfacet
  facet normal -0.0717789 0.500032 0.863027
    outer loop
      vertex 17.1441 -24.5386 8.88922
      vertex 17.1834 -24.5386 8.89248
      vertex 17.1842 -24.5221 8.88301
    endloop
  endfacet
  facet normal -0.996559 9.16723e-6 -0.0828837
    outer loop
      vertex 17.1441 -24.5386 8.88922
      vertex 17.1449 -24.5221 8.87975
      vertex 17.153 -24.5892 8.78288
    endloop
  endfacet
  facet normal -0.996555 9.14397e-5 -0.0829403
    outer loop
      vertex 17.1449 -24.5221 8.87975
      vertex 17.1459 -24.5074 8.86777
      vertex 17.153 -24.5892 8.78288
    endloop
  endfacet
  facet normal -0.996561 7.59061e-6 -0.08286
    outer loop
      vertex 17.153 -24.5892 8.78288
      vertex 17.1459 -24.5074 8.86777
      vertex 17.1471 -24.4948 8.85359
    endloop
  endfacet
  facet normal -0.0641927 0.63242 0.771962
    outer loop
      vertex 17.1459 -24.5074 8.86777
      vertex 17.1449 -24.5221 8.87975
      vertex 17.1852 -24.5074 8.87103
    endloop
  endfacet
  facet normal -0.0641873 0.63241 0.77197
    outer loop
      vertex 17.1449 -24.5221 8.87975
      vertex 17.1842 -24.5221 8.88301
      vertex 17.1852 -24.5074 8.87103
    endloop
  endfacet
  facet normal -0.0549664 0.748528 0.660821
    outer loop
      vertex 17.1471 -24.4948 8.85359
      vertex 17.1459 -24.5074 8.86777
      vertex 17.1863 -24.4948 8.85685
    endloop
  endfacet
  facet normal -0.0549529 0.748507 0.660846
    outer loop
      vertex 17.1459 -24.5074 8.86777
      vertex 17.1852 -24.5074 8.87103
      vertex 17.1863 -24.4948 8.85685
    endloop
  endfacet
  facet normal -0.996554 -2.7468e-5 -0.0829466
    outer loop
      vertex 17.1506 -24.7039 8.81105
      vertex 17.1491 -24.6979 8.82902
      vertex 17.153 -24.5892 8.78288
    endloop
  endfacet
  facet normal -0.0262573 -0.948525 0.315612
    outer loop
      vertex 17.1491 -24.6979 8.82902
      vertex 17.1506 -24.7039 8.81105
      vertex 17.1884 -24.6979 8.83228
    endloop
  endfacet
  facet normal -0.0262501 -0.948529 0.3156
    outer loop
      vertex 17.1506 -24.7039 8.81105
      vertex 17.1899 -24.7039 8.81431
      vertex 17.1884 -24.6979 8.83228
    endloop
  endfacet
  facet normal -0.996558 -1.57376e-5 -0.0828991
    outer loop
      vertex 17.1522 -24.7069 8.79235
      vertex 17.1506 -24.7039 8.81105
      vertex 17.153 -24.5892 8.78288
    endloop
  endfacet
  facet normal -0.0132972 -0.987049 0.15987
    outer loop
      vertex 17.1506 -24.7039 8.81105
      vertex 17.1522 -24.7069 8.79235
      vertex 17.1899 -24.7039 8.81431
    endloop
  endfacet
  facet normal -0.0132979 -0.987048 0.159871
    outer loop
      vertex 17.1522 -24.7069 8.79235
      vertex 17.1914 -24.7069 8.79562
      vertex 17.1899 -24.7039 8.81431
    endloop
  endfacet
  facet normal -0.996566 -7.88373e-6 -0.0828022
    outer loop
      vertex 17.1538 -24.7069 8.77341
      vertex 17.1522 -24.7069 8.79235
      vertex 17.153 -24.5892 8.78288
    endloop
  endfacet
  facet normal 0 -1 0
    outer loop
      vertex 17.1522 -24.7069 8.79235
      vertex 17.1538 -24.7069 8.77341
      vertex 17.1914 -24.7069 8.79562
    endloop
  endfacet
  facet normal 0 -1 0
    outer loop
      vertex 17.1538 -24.7069 8.77341
      vertex 17.193 -24.7069 8.77667
      vertex 17.1914 -24.7069 8.79562
    endloop
  endfacet
  facet normal 0.0132972 -0.987049 -0.15987
    outer loop
      vertex 17.1538 -24.7069 8.77341
      vertex 17.1553 -24.7039 8.75471
      vertex 17.193 -24.7069 8.77667
    endloop
  endfacet
  facet normal 0.0132965 -0.987049 -0.159869
    outer loop
      vertex 17.1553 -24.7039 8.75471
      vertex 17.1946 -24.7039 8.75798
      vertex 17.193 -24.7069 8.77667
    endloop
  endfacet
  facet normal 0.0262498 -0.948525 -0.315612
    outer loop
      vertex 17.1553 -24.7039 8.75471
      vertex 17.1568 -24.6979 8.73674
      vertex 17.1946 -24.7039 8.75798
    endloop
  endfacet
  facet normal 0.0262441 -0.948528 -0.315603
    outer loop
      vertex 17.1568 -24.6979 8.73674
      vertex 17.1961 -24.6979 8.74001
      vertex 17.1946 -24.7039 8.75798
    endloop
  endfacet
  facet normal 0.0549655 0.74851 -0.660841
    outer loop
      vertex 17.16 -24.5074 8.69799
      vertex 17.1589 -24.4948 8.71217
      vertex 17.1993 -24.5074 8.70126
    endloop
  endfacet
  facet normal 0.0549633 0.748507 -0.660845
    outer loop
      vertex 17.1589 -24.4948 8.71217
      vertex 17.1981 -24.4948 8.71543
      vertex 17.1993 -24.5074 8.70126
    endloop
  endfacet
  facet normal 0.0642082 0.632415 -0.771964
    outer loop
      vertex 17.161 -24.5221 8.68601
      vertex 17.16 -24.5074 8.69799
      vertex 17.2003 -24.5221 8.68928
    endloop
  endfacet
  facet normal 0.0642082 0.632415 -0.771964
    outer loop
      vertex 17.16 -24.5074 8.69799
      vertex 17.1993 -24.5074 8.70126
      vertex 17.2003 -24.5221 8.68928
    endloop
  endfacet
  facet normal 0.0717671 0.499996 -0.863049
    outer loop
      vertex 17.1618 -24.5386 8.67654
      vertex 17.161 -24.5221 8.68601
      vertex 17.2011 -24.5386 8.6798
    endloop
  endfacet
  facet normal 0.0717826 0.500026 -0.86303
    outer loop
      vertex 17.161 -24.5221 8.68601
      vertex 17.2003 -24.5221 8.68928
      vertex 17.2011 -24.5386 8.6798
    endloop
  endfacet
  facet normal -0.996558 -9.55797e-7 -0.0828979
    outer loop
      vertex 17.161 -24.5221 8.68601
      vertex 17.1618 -24.5386 8.67654
      vertex 17.153 -24.5892 8.78288
    endloop
  endfacet
  facet normal -0.996558 1.83734e-7 -0.0828973
    outer loop
      vertex 17.1618 -24.5386 8.67654
      vertex 17.1624 -24.5564 8.66982
      vertex 17.153 -24.5892 8.78288
    endloop
  endfacet
  facet normal -0.996559 1.84074e-5 -0.0828921
    outer loop
      vertex 17.153 -24.5892 8.78288
      vertex 17.1624 -24.5564 8.66982
      vertex 17.1627 -24.575 8.66603
    endloop
  endfacet
  facet normal 0.0775047 0.35465 -0.931781
    outer loop
      vertex 17.1624 -24.5564 8.66982
      vertex 17.1618 -24.5386 8.67654
      vertex 17.2016 -24.5564 8.67309
    endloop
  endfacet
  facet normal 0.077484 0.354608 -0.931799
    outer loop
      vertex 17.1618 -24.5386 8.67654
      vertex 17.2011 -24.5386 8.6798
      vertex 17.2016 -24.5564 8.67309
    endloop
  endfacet
  facet normal 0.081218 0.199997 -0.976424
    outer loop
      vertex 17.1627 -24.575 8.66603
      vertex 17.1624 -24.5564 8.66982
      vertex 17.2019 -24.575 8.6693
    endloop
  endfacet
  facet normal 0.081218 0.199997 -0.976424
    outer loop
      vertex 17.1624 -24.5564 8.66982
      vertex 17.2016 -24.5564 8.67309
      vertex 17.2019 -24.575 8.6693
    endloop
  endfacet
  facet normal 0.99656 -1.48388e-5 0.0828755
    outer loop
      vertex 17.1968 -24.4846 8.73144
      vertex 17.1953 -24.4772 8.74887
      vertex 17.1922 -24.5892 8.78614
    endloop
  endfacet
  facet normal 0.99656 2.18245e-5 0.0828792
    outer loop
      vertex 17.1975 -24.689 8.72323
      vertex 17.1987 -24.6776 8.70809
      vertex 17.1922 -24.5892 8.78614
    endloop
  endfacet
  facet normal 0.996567 -6.15852e-5 0.0827873
    outer loop
      vertex 17.1857 -24.6776 8.8642
      vertex 17.187 -24.689 8.84905
      vertex 17.1922 -24.5892 8.78614
    endloop
  endfacet
  facet normal 0.996552 5.71502e-5 0.0829744
    outer loop
      vertex 17.187 -24.689 8.84905
      vertex 17.1884 -24.6979 8.83228
      vertex 17.1922 -24.5892 8.78614
    endloop
  endfacet
  facet normal 0.996562 3.04792e-6 0.0828478
    outer loop
      vertex 17.1922 -24.5892 8.78614
      vertex 17.1884 -24.6979 8.83228
      vertex 17.1899 -24.7039 8.81431
    endloop
  endfacet
  facet normal 0.99656 5.43837e-6 0.0828779
    outer loop
      vertex 17.1825 -24.575 8.90299
      vertex 17.1824 -24.594 8.90375
      vertex 17.1922 -24.5892 8.78614
    endloop
  endfacet
  facet normal 0.996558 -2.72715e-6 0.0828985
    outer loop
      vertex 17.1981 -24.4948 8.71543
      vertex 17.1968 -24.4846 8.73144
      vertex 17.1922 -24.5892 8.78614
    endloop
  endfacet
  facet normal 0.996551 -4.31888e-5 0.0829817
    outer loop
      vertex 17.1961 -24.6979 8.74001
      vertex 17.1975 -24.689 8.72323
      vertex 17.1922 -24.5892 8.78614
    endloop
  endfacet
  facet normal 0.996559 -1.05993e-5 0.0828901
    outer loop
      vertex 17.1877 -24.4846 8.84084
      vertex 17.1863 -24.4948 8.85685
      vertex 17.1922 -24.5892 8.78614
    endloop
  endfacet
  facet normal 0.99656 1.76439e-6 0.0828737
    outer loop
      vertex 17.1863 -24.4948 8.85685
      vertex 17.1852 -24.5074 8.87103
      vertex 17.1922 -24.5892 8.78614
    endloop
  endfacet
  facet normal 0.996565 6.02631e-5 0.0828177
    outer loop
      vertex 17.1922 -24.5892 8.78614
      vertex 17.1852 -24.5074 8.87103
      vertex 17.1842 -24.5221 8.88301
    endloop
  endfacet
  facet normal 0.996559 9.18259e-5 0.0828896
    outer loop
      vertex 17.202 -24.594 8.66854
      vertex 17.2019 -24.575 8.6693
      vertex 17.1922 -24.5892 8.78614
    endloop
  endfacet
  facet normal 0.99656 -1.5254e-5 0.0828767
    outer loop
      vertex 17.2019 -24.575 8.6693
      vertex 17.2016 -24.5564 8.67309
      vertex 17.1922 -24.5892 8.78614
    endloop
  endfacet
  facet normal 0.996559 9.32171e-6 0.0828838
    outer loop
      vertex 17.1922 -24.5892 8.78614
      vertex 17.2016 -24.5564 8.67309
      vertex 17.2011 -24.5386 8.6798
    endloop
  endfacet
  facet normal 0.996559 -8.20015e-5 0.0828884
    outer loop
      vertex 17.1828 -24.5564 8.8992
      vertex 17.1825 -24.575 8.90299
      vertex 17.1922 -24.5892 8.78614
    endloop
  endfacet
  facet normal 0.99656 -1.49129e-5 0.0828691
    outer loop
      vertex 17.1834 -24.5386 8.89248
      vertex 17.1828 -24.5564 8.8992
      vertex 17.1922 -24.5892 8.78614
    endloop
  endfacet
  facet normal 0.996561 -1.33707e-5 0.0828683
    outer loop
      vertex 17.1842 -24.5221 8.88301
      vertex 17.1834 -24.5386 8.89248
      vertex 17.1922 -24.5892 8.78614
    endloop
  endfacet
  facet normal 0.996566 -7.70991e-6 0.0828043
    outer loop
      vertex 17.1899 -24.7039 8.81431
      vertex 17.1914 -24.7069 8.79562
      vertex 17.1922 -24.5892 8.78614
    endloop
  endfacet
  facet normal 0.996558 0 0.0828995
    outer loop
      vertex 17.1914 -24.7069 8.79562
      vertex 17.193 -24.7069 8.77667
      vertex 17.1922 -24.5892 8.78614
    endloop
  endfacet
  facet normal 0.99655 -8.05864e-6 0.082999
    outer loop
      vertex 17.1922 -24.5892 8.78614
      vertex 17.193 -24.7069 8.77667
      vertex 17.1946 -24.7039 8.75798
    endloop
  endfacet
  facet normal 0.996569 5.03088e-5 0.082763
    outer loop
      vertex 17.1946 -24.7039 8.75798
      vertex 17.1961 -24.6979 8.74001
      vertex 17.1922 -24.5892 8.78614
    endloop
  endfacet
  facet normal 0.996559 -1.35662e-5 0.0828841
    outer loop
      vertex 17.1993 -24.5074 8.70126
      vertex 17.1981 -24.4948 8.71543
      vertex 17.1922 -24.5892 8.78614
    endloop
  endfacet
  facet normal 0.996558 4.24036e-7 0.0828975
    outer loop
      vertex 17.2003 -24.5221 8.68928
      vertex 17.1993 -24.5074 8.70126
      vertex 17.1922 -24.5892 8.78614
    endloop
  endfacet
  facet normal 0.996563 -8.3023e-5 0.0828401
    outer loop
      vertex 17.2011 -24.5386 8.6798
      vertex 17.2003 -24.5221 8.68928
      vertex 17.1922 -24.5892 8.78614
    endloop
  endfacet
endsolid Onshape
