solid Onshape
  facet normal 0.0828749 2.64974e-5 -0.99656
    outer loop
      vertex 17.5356 -22.8766 9.05173
      vertex 17.5245 -22.8782 9.05082
      vertex 17.5201 -22.8428 9.05045
    endloop
  endfacet
  facet normal 0.082911 3.10668e-5 -0.996557
    outer loop
      vertex 17.5245 -22.8782 9.05082
      vertex 17.5052 -22.8477 9.04921
      vertex 17.5201 -22.8428 9.05045
    endloop
  endfacet
  facet normal -0.141967 0.989801 -0.0118082
    outer loop
      vertex 17.5245 -22.8782 9.05082
      vertex 17.5356 -22.8766 9.05173
      vertex 17.5408 -22.8782 8.85464
    endloop
  endfacet
  facet normal -0.141966 0.989801 -0.0118081
    outer loop
      vertex 17.5356 -22.8766 9.05173
      vertex 17.5519 -22.8766 8.85556
      vertex 17.5408 -22.8782 8.85464
    endloop
  endfacet
  facet normal -0.414002 0.909624 -0.0344307
    outer loop
      vertex 17.5143 -22.8829 9.04997
      vertex 17.5245 -22.8782 9.05082
      vertex 17.5307 -22.8829 8.8538
    endloop
  endfacet
  facet normal -0.413937 0.909654 -0.0344294
    outer loop
      vertex 17.5245 -22.8782 9.05082
      vertex 17.5408 -22.8782 8.85464
      vertex 17.5307 -22.8829 8.8538
    endloop
  endfacet
  facet normal 0.0828049 -3.63057e-5 -0.996566
    outer loop
      vertex 17.5245 -22.8782 9.05082
      vertex 17.5143 -22.8829 9.04997
      vertex 17.5052 -22.8477 9.04921
    endloop
  endfacet
  facet normal 0.0828739 -1.83285e-5 -0.99656
    outer loop
      vertex 17.5143 -22.8829 9.04997
      vertex 17.4917 -22.8555 9.04809
      vertex 17.5052 -22.8477 9.04921
    endloop
  endfacet
  facet normal -0.308062 0.951021 -0.0256158
    outer loop
      vertex 17.5201 -22.8428 9.05045
      vertex 17.5052 -22.8477 9.04921
      vertex 17.5135 -22.8428 9.12892
    endloop
  endfacet
  facet normal -0.308027 0.951033 -0.0256202
    outer loop
      vertex 17.5052 -22.8477 9.04921
      vertex 17.4987 -22.8477 9.12768
      vertex 17.5135 -22.8428 9.12892
    endloop
  endfacet
  facet normal -0.1041 0.994529 -0.00865606
    outer loop
      vertex 17.5356 -22.8412 9.05173
      vertex 17.5201 -22.8428 9.05045
      vertex 17.529 -22.8412 9.1302
    endloop
  endfacet
  facet normal -0.1041 0.994529 -0.00865606
    outer loop
      vertex 17.5201 -22.8428 9.05045
      vertex 17.5135 -22.8428 9.12892
      vertex 17.529 -22.8412 9.1302
    endloop
  endfacet
  facet normal 0.0828175 0 -0.996565
    outer loop
      vertex 17.5201 -22.8428 9.05045
      vertex 17.5356 -22.8412 9.05173
      vertex 17.5356 -22.8766 9.05173
    endloop
  endfacet
  facet normal 0.0829343 0 -0.996555
    outer loop
      vertex 17.5356 -22.8412 9.05173
      vertex 17.5466 -22.8782 9.05265
      vertex 17.5356 -22.8766 9.05173
    endloop
  endfacet
  facet normal 0.141919 0.989808 0.0118043
    outer loop
      vertex 17.5356 -22.8766 9.05173
      vertex 17.5466 -22.8782 9.05265
      vertex 17.5519 -22.8766 8.85556
    endloop
  endfacet
  facet normal 0.141944 0.989804 0.0118049
    outer loop
      vertex 17.5466 -22.8782 9.05265
      vertex 17.5629 -22.8782 8.85648
      vertex 17.5519 -22.8766 8.85556
    endloop
  endfacet
  facet normal 0.0829621 0 -0.996553
    outer loop
      vertex 17.5408 -22.8782 8.85464
      vertex 17.5519 -22.8766 8.85556
      vertex 17.5519 -22.916 8.85556
    endloop
  endfacet
  facet normal 0.0828648 0 -0.996561
    outer loop
      vertex 17.5519 -22.8766 8.85556
      vertex 17.5629 -22.8782 8.85648
      vertex 17.5519 -22.916 8.85556
    endloop
  endfacet
  facet normal 0.0828774 -3.71073e-6 -0.99656
    outer loop
      vertex 17.5519 -22.916 8.85556
      vertex 17.5629 -22.8782 8.85648
      vertex 17.5731 -22.8829 8.85733
    endloop
  endfacet
  facet normal 0.0828756 -2.54788e-5 -0.99656
    outer loop
      vertex 17.5307 -22.8829 8.8538
      vertex 17.5408 -22.8782 8.85464
      vertex 17.5519 -22.916 8.85556
    endloop
  endfacet
  facet normal 0.104099 0.994529 0.00865597
    outer loop
      vertex 17.5511 -22.8428 9.05302
      vertex 17.5356 -22.8412 9.05173
      vertex 17.5445 -22.8428 9.13149
    endloop
  endfacet
  facet normal 0.104099 0.994529 0.00865597
    outer loop
      vertex 17.5356 -22.8412 9.05173
      vertex 17.529 -22.8412 9.1302
      vertex 17.5445 -22.8428 9.13149
    endloop
  endfacet
  facet normal 0.0829365 6.59363e-7 -0.996555
    outer loop
      vertex 17.5356 -22.8412 9.05173
      vertex 17.5511 -22.8428 9.05302
      vertex 17.5466 -22.8782 9.05265
    endloop
  endfacet
  facet normal 0.082902 5.02055e-6 -0.996558
    outer loop
      vertex 17.5511 -22.8428 9.05302
      vertex 17.5659 -22.8477 9.05426
      vertex 17.5466 -22.8782 9.05265
    endloop
  endfacet
  facet normal 0.0828977 7.74009e-6 -0.996558
    outer loop
      vertex 17.5466 -22.8782 9.05265
      vertex 17.5659 -22.8477 9.05426
      vertex 17.5568 -22.8829 9.0535
    endloop
  endfacet
  facet normal 0.0828717 1.45163e-5 -0.99656
    outer loop
      vertex 17.5659 -22.8477 9.05426
      vertex 17.5794 -22.8555 9.05538
      vertex 17.5568 -22.8829 9.0535
    endloop
  endfacet
  facet normal 0.0828318 4.76522e-5 -0.996564
    outer loop
      vertex 17.5568 -22.8829 9.0535
      vertex 17.5794 -22.8555 9.05538
      vertex 17.5652 -22.8902 9.0542
    endloop
  endfacet
  facet normal 0.0828932 2.24613e-5 -0.996558
    outer loop
      vertex 17.5794 -22.8555 9.05538
      vertex 17.591 -22.8659 9.05634
      vertex 17.5652 -22.8902 9.0542
    endloop
  endfacet
  facet normal 0.0829445 -3.23273e-5 -0.996554
    outer loop
      vertex 17.5652 -22.8902 9.0542
      vertex 17.591 -22.8659 9.05634
      vertex 17.5713 -22.8996 9.0547
    endloop
  endfacet
  facet normal 0.0829294 -2.34806e-5 -0.996555
    outer loop
      vertex 17.591 -22.8659 9.05634
      vertex 17.6001 -22.8786 9.05711
      vertex 17.5713 -22.8996 9.0547
    endloop
  endfacet
  facet normal 0.082868 6.14476e-5 -0.996561
    outer loop
      vertex 17.5713 -22.8996 9.0547
      vertex 17.6001 -22.8786 9.05711
      vertex 17.6065 -22.8929 9.05763
    endloop
  endfacet
  facet normal 0.414062 0.909597 0.0344359
    outer loop
      vertex 17.5466 -22.8782 9.05265
      vertex 17.5568 -22.8829 9.0535
      vertex 17.5629 -22.8782 8.85648
    endloop
  endfacet
  facet normal 0.413999 0.909626 0.0344346
    outer loop
      vertex 17.5568 -22.8829 9.0535
      vertex 17.5731 -22.8829 8.85733
      vertex 17.5629 -22.8782 8.85648
    endloop
  endfacet
  facet normal 0.0828787 0 -0.99656
    outer loop
      vertex 17.5245 -22.9538 9.05082
      vertex 17.5356 -22.9554 9.05173
      vertex 17.5356 -22.9908 9.05173
    endloop
  endfacet
  facet normal 0.0829365 0 -0.996555
    outer loop
      vertex 17.5356 -22.9554 9.05173
      vertex 17.5511 -22.9892 9.05302
      vertex 17.5356 -22.9908 9.05173
    endloop
  endfacet
  facet normal -0.141805 -0.989824 -0.0117947
    outer loop
      vertex 17.5356 -22.9554 9.05173
      vertex 17.5245 -22.9538 9.05082
      vertex 17.5519 -22.9554 8.85556
    endloop
  endfacet
  facet normal -0.141804 -0.989825 -0.0117946
    outer loop
      vertex 17.5245 -22.9538 9.05082
      vertex 17.5408 -22.9538 8.85464
      vertex 17.5519 -22.9554 8.85556
    endloop
  endfacet
  facet normal 0.141757 -0.989831 0.0117894
    outer loop
      vertex 17.5466 -22.9538 9.05265
      vertex 17.5356 -22.9554 9.05173
      vertex 17.5629 -22.9538 8.85648
    endloop
  endfacet
  facet normal 0.141781 -0.989828 0.0117928
    outer loop
      vertex 17.5356 -22.9554 9.05173
      vertex 17.5519 -22.9554 8.85556
      vertex 17.5629 -22.9538 8.85648
    endloop
  endfacet
  facet normal 0.0829345 -9.19864e-7 -0.996555
    outer loop
      vertex 17.5356 -22.9554 9.05173
      vertex 17.5466 -22.9538 9.05265
      vertex 17.5511 -22.9892 9.05302
    endloop
  endfacet
  facet normal 0.082902 -5.02055e-6 -0.996558
    outer loop
      vertex 17.5466 -22.9538 9.05265
      vertex 17.5659 -22.9843 9.05426
      vertex 17.5511 -22.9892 9.05302
    endloop
  endfacet
  facet normal 0.104099 -0.994529 0.00865597
    outer loop
      vertex 17.5356 -22.9908 9.05173
      vertex 17.5511 -22.9892 9.05302
      vertex 17.529 -22.9908 9.1302
    endloop
  endfacet
  facet normal 0.104099 -0.994529 0.00865597
    outer loop
      vertex 17.5511 -22.9892 9.05302
      vertex 17.5445 -22.9892 9.13149
      vertex 17.529 -22.9908 9.1302
    endloop
  endfacet
  facet normal -0.1041 -0.994529 -0.00865606
    outer loop
      vertex 17.5201 -22.9892 9.05045
      vertex 17.5356 -22.9908 9.05173
      vertex 17.5135 -22.9892 9.12892
    endloop
  endfacet
  facet normal -0.1041 -0.994529 -0.00865606
    outer loop
      vertex 17.5356 -22.9908 9.05173
      vertex 17.529 -22.9908 9.1302
      vertex 17.5135 -22.9892 9.12892
    endloop
  endfacet
  facet normal 0.0828155 -1.89878e-5 -0.996565
    outer loop
      vertex 17.5356 -22.9908 9.05173
      vertex 17.5201 -22.9892 9.05045
      vertex 17.5245 -22.9538 9.05082
    endloop
  endfacet
  facet normal 0.082911 -3.10668e-5 -0.996557
    outer loop
      vertex 17.5201 -22.9892 9.05045
      vertex 17.5052 -22.9843 9.04921
      vertex 17.5245 -22.9538 9.05082
    endloop
  endfacet
  facet normal 0.0828049 3.63057e-5 -0.996566
    outer loop
      vertex 17.5245 -22.9538 9.05082
      vertex 17.5052 -22.9843 9.04921
      vertex 17.5143 -22.9491 9.04997
    endloop
  endfacet
  facet normal 0.0828739 1.83279e-5 -0.99656
    outer loop
      vertex 17.5052 -22.9843 9.04921
      vertex 17.4917 -22.9765 9.04809
      vertex 17.5143 -22.9491 9.04997
    endloop
  endfacet
  facet normal 0.0828983 -1.89783e-6 -0.996558
    outer loop
      vertex 17.5143 -22.9491 9.04997
      vertex 17.4917 -22.9765 9.04809
      vertex 17.5059 -22.9418 9.04927
    endloop
  endfacet
  facet normal 0.0829271 -1.37237e-5 -0.996556
    outer loop
      vertex 17.4917 -22.9765 9.04809
      vertex 17.4802 -22.966 9.04713
      vertex 17.5059 -22.9418 9.04927
    endloop
  endfacet
  facet normal 0.0828966 1.88409e-5 -0.996558
    outer loop
      vertex 17.5059 -22.9418 9.04927
      vertex 17.4802 -22.966 9.04713
      vertex 17.4999 -22.9323 9.04877
    endloop
  endfacet
  facet normal 0.0829005 1.65429e-5 -0.996558
    outer loop
      vertex 17.4802 -22.966 9.04713
      vertex 17.471 -22.9534 9.04637
      vertex 17.4999 -22.9323 9.04877
    endloop
  endfacet
  facet normal 0.0829035 1.23599e-5 -0.996558
    outer loop
      vertex 17.4999 -22.9323 9.04877
      vertex 17.471 -22.9534 9.04637
      vertex 17.4647 -22.9391 9.04584
    endloop
  endfacet
  facet normal -0.414002 -0.909624 -0.0344348
    outer loop
      vertex 17.5245 -22.9538 9.05082
      vertex 17.5143 -22.9491 9.04997
      vertex 17.5408 -22.9538 8.85464
    endloop
  endfacet
  facet normal -0.413937 -0.909654 -0.0344253
    outer loop
      vertex 17.5143 -22.9491 9.04997
      vertex 17.5307 -22.9491 8.8538
      vertex 17.5408 -22.9538 8.85464
    endloop
  endfacet
  facet normal 0.307993 -0.951044 0.02561
    outer loop
      vertex 17.5511 -22.9892 9.05302
      vertex 17.5659 -22.9843 9.05426
      vertex 17.5445 -22.9892 9.13149
    endloop
  endfacet
  facet normal 0.308027 -0.951033 0.0256202
    outer loop
      vertex 17.5659 -22.9843 9.05426
      vertex 17.5594 -22.9843 9.13273
      vertex 17.5445 -22.9892 9.13149
    endloop
  endfacet
  facet normal 0.0829621 0 -0.996553
    outer loop
      vertex 17.5519 -22.9554 8.85556
      vertex 17.5408 -22.9538 8.85464
      vertex 17.5519 -22.916 8.85556
    endloop
  endfacet
  facet normal 0.0828756 2.54777e-5 -0.99656
    outer loop
      vertex 17.5408 -22.9538 8.85464
      vertex 17.5307 -22.9491 8.8538
      vertex 17.5519 -22.916 8.85556
    endloop
  endfacet
  facet normal 0.082917 -1.21949e-6 -0.996556
    outer loop
      vertex 17.5519 -22.916 8.85556
      vertex 17.5307 -22.9491 8.8538
      vertex 17.5222 -22.9418 8.8531
    endloop
  endfacet
  facet normal 0.0828648 0 -0.996561
    outer loop
      vertex 17.5629 -22.9538 8.85648
      vertex 17.5519 -22.9554 8.85556
      vertex 17.5519 -22.916 8.85556
    endloop
  endfacet
  facet normal 0.414062 -0.909597 0.0344398
    outer loop
      vertex 17.5568 -22.9491 9.0535
      vertex 17.5466 -22.9538 9.05265
      vertex 17.5731 -22.9491 8.85733
    endloop
  endfacet
  facet normal 0.414 -0.909626 0.0344307
    outer loop
      vertex 17.5466 -22.9538 9.05265
      vertex 17.5629 -22.9538 8.85648
      vertex 17.5731 -22.9491 8.85733
    endloop
  endfacet
  facet normal 0.0828977 -7.74009e-6 -0.996558
    outer loop
      vertex 17.5466 -22.9538 9.05265
      vertex 17.5568 -22.9491 9.0535
      vertex 17.5659 -22.9843 9.05426
    endloop
  endfacet
  facet normal 0.0828717 -1.45158e-5 -0.99656
    outer loop
      vertex 17.5568 -22.9491 9.0535
      vertex 17.5794 -22.9765 9.05538
      vertex 17.5659 -22.9843 9.05426
    endloop
  endfacet
  facet normal 0.0828774 3.71057e-6 -0.99656
    outer loop
      vertex 17.5731 -22.9491 8.85733
      vertex 17.5629 -22.9538 8.85648
      vertex 17.5519 -22.916 8.85556
    endloop
  endfacet
  facet normal -0.498198 0.866073 -0.0414376
    outer loop
      vertex 17.5052 -22.8477 9.04921
      vertex 17.4917 -22.8555 9.04809
      vertex 17.4987 -22.8477 9.12768
    endloop
  endfacet
  facet normal -0.498196 0.866074 -0.041438
    outer loop
      vertex 17.4917 -22.8555 9.04809
      vertex 17.4852 -22.8555 9.12656
      vertex 17.4987 -22.8477 9.12768
    endloop
  endfacet
  facet normal 0.082917 1.21964e-6 -0.996556
    outer loop
      vertex 17.5222 -22.8902 8.8531
      vertex 17.5307 -22.8829 8.8538
      vertex 17.5519 -22.916 8.85556
    endloop
  endfacet
  facet normal -0.652541 0.755807 -0.054269
    outer loop
      vertex 17.5307 -22.8829 8.8538
      vertex 17.5222 -22.8902 8.8531
      vertex 17.5143 -22.8829 9.04997
    endloop
  endfacet
  facet normal -0.652459 0.755878 -0.0542684
    outer loop
      vertex 17.5222 -22.8902 8.8531
      vertex 17.5059 -22.8902 9.04927
      vertex 17.5143 -22.8829 9.04997
    endloop
  endfacet
  facet normal 0.0829068 -7.95512e-6 -0.996557
    outer loop
      vertex 17.5143 -22.8829 9.04997
      vertex 17.5059 -22.8902 9.04927
      vertex 17.4802 -22.8659 9.04713
    endloop
  endfacet
  facet normal 0.0828994 -1.57849e-5 -0.996558
    outer loop
      vertex 17.5059 -22.8902 9.04927
      vertex 17.471 -22.8786 9.04637
      vertex 17.4802 -22.8659 9.04713
    endloop
  endfacet
  facet normal -0.0828175 0 0.996565
    outer loop
      vertex 17.529 -22.8412 9.1302
      vertex 17.5135 -22.8428 9.12892
      vertex 17.529 -22.8819 9.1302
    endloop
  endfacet
  facet normal -0.0829001 -3.29698e-5 0.996558
    outer loop
      vertex 17.5135 -22.8428 9.12892
      vertex 17.4987 -22.8477 9.12768
      vertex 17.529 -22.8819 9.1302
    endloop
  endfacet
  facet normal -0.0828594 3.26611e-6 0.996561
    outer loop
      vertex 17.529 -22.8819 9.1302
      vertex 17.4987 -22.8477 9.12768
      vertex 17.4996 -22.8989 9.12776
    endloop
  endfacet
  facet normal -0.0829328 1.97802e-6 0.996555
    outer loop
      vertex 17.4987 -22.8477 9.12768
      vertex 17.4852 -22.8555 9.12656
      vertex 17.4996 -22.8989 9.12776
    endloop
  endfacet
  facet normal -0.082878 2.02575e-5 0.99656
    outer loop
      vertex 17.4996 -22.8989 9.12776
      vertex 17.4852 -22.8555 9.12656
      vertex 17.4736 -22.8659 9.1256
    endloop
  endfacet
  facet normal -0.0829365 0 0.996555
    outer loop
      vertex 17.5445 -22.8428 9.13149
      vertex 17.529 -22.8412 9.1302
      vertex 17.529 -22.8819 9.1302
    endloop
  endfacet
  facet normal 0.307992 0.951044 0.0256173
    outer loop
      vertex 17.5659 -22.8477 9.05426
      vertex 17.5511 -22.8428 9.05302
      vertex 17.5594 -22.8477 9.13273
    endloop
  endfacet
  facet normal 0.308027 0.951033 0.0256129
    outer loop
      vertex 17.5511 -22.8428 9.05302
      vertex 17.5445 -22.8428 9.13149
      vertex 17.5594 -22.8477 9.13273
    endloop
  endfacet
  facet normal -0.0829137 -9.09556e-6 0.996557
    outer loop
      vertex 17.5594 -22.8477 9.13273
      vertex 17.5445 -22.8428 9.13149
      vertex 17.529 -22.8819 9.1302
    endloop
  endfacet
  facet normal 0.498198 0.866073 0.0414376
    outer loop
      vertex 17.5794 -22.8555 9.05538
      vertex 17.5659 -22.8477 9.05426
      vertex 17.5729 -22.8555 9.13385
    endloop
  endfacet
  facet normal 0.498198 0.866073 0.0414376
    outer loop
      vertex 17.5659 -22.8477 9.05426
      vertex 17.5594 -22.8477 9.13273
      vertex 17.5729 -22.8555 9.13385
    endloop
  endfacet
  facet normal 0.652463 0.755875 0.0542689
    outer loop
      vertex 17.5568 -22.8829 9.0535
      vertex 17.5652 -22.8902 9.0542
      vertex 17.5731 -22.8829 8.85733
    endloop
  endfacet
  facet normal 0.652541 0.755807 0.0542695
    outer loop
      vertex 17.5652 -22.8902 9.0542
      vertex 17.5815 -22.8902 8.85803
      vertex 17.5731 -22.8829 8.85733
    endloop
  endfacet
  facet normal -0.308062 -0.951021 -0.025623
    outer loop
      vertex 17.5052 -22.9843 9.04921
      vertex 17.5201 -22.9892 9.05045
      vertex 17.4987 -22.9843 9.12768
    endloop
  endfacet
  facet normal -0.308027 -0.951033 -0.0256129
    outer loop
      vertex 17.5201 -22.9892 9.05045
      vertex 17.5135 -22.9892 9.12892
      vertex 17.4987 -22.9843 9.12768
    endloop
  endfacet
  facet normal -0.0829365 0 0.996555
    outer loop
      vertex 17.529 -22.9908 9.1302
      vertex 17.5445 -22.9892 9.13149
      vertex 17.529 -22.9501 9.1302
    endloop
  endfacet
  facet normal -0.0829137 9.09517e-6 0.996557
    outer loop
      vertex 17.5445 -22.9892 9.13149
      vertex 17.5594 -22.9843 9.13273
      vertex 17.529 -22.9501 9.1302
    endloop
  endfacet
  facet normal -0.0828839 3.56616e-5 0.996559
    outer loop
      vertex 17.529 -22.9501 9.1302
      vertex 17.5594 -22.9843 9.13273
      vertex 17.5729 -22.9765 9.13385
    endloop
  endfacet
  facet normal -0.0828175 0 0.996565
    outer loop
      vertex 17.5135 -22.9892 9.12892
      vertex 17.529 -22.9908 9.1302
      vertex 17.529 -22.9501 9.1302
    endloop
  endfacet
  facet normal -0.0829001 3.29684e-5 0.996558
    outer loop
      vertex 17.4987 -22.9843 9.12768
      vertex 17.5135 -22.9892 9.12892
      vertex 17.529 -22.9501 9.1302
    endloop
  endfacet
  facet normal -0.498287 -0.866021 -0.0414455
    outer loop
      vertex 17.4917 -22.9765 9.04809
      vertex 17.5052 -22.9843 9.04921
      vertex 17.4852 -22.9765 9.12656
    endloop
  endfacet
  facet normal -0.498285 -0.866022 -0.0414449
    outer loop
      vertex 17.5052 -22.9843 9.04921
      vertex 17.4987 -22.9843 9.12768
      vertex 17.4852 -22.9765 9.12656
    endloop
  endfacet
  facet normal -0.652554 -0.755796 -0.0542701
    outer loop
      vertex 17.5143 -22.9491 9.04997
      vertex 17.5059 -22.9418 9.04927
      vertex 17.5307 -22.9491 8.8538
    endloop
  endfacet
  facet normal -0.652636 -0.755725 -0.054283
    outer loop
      vertex 17.5059 -22.9418 9.04927
      vertex 17.5222 -22.9418 8.8531
      vertex 17.5307 -22.9491 8.8538
    endloop
  endfacet
  facet normal 0.498287 -0.866021 0.041445
    outer loop
      vertex 17.5659 -22.9843 9.05426
      vertex 17.5794 -22.9765 9.05538
      vertex 17.5594 -22.9843 9.13273
    endloop
  endfacet
  facet normal 0.498287 -0.866021 0.041445
    outer loop
      vertex 17.5794 -22.9765 9.05538
      vertex 17.5729 -22.9765 9.13385
      vertex 17.5594 -22.9843 9.13273
    endloop
  endfacet
  facet normal 0.0829015 1.92179e-5 -0.996558
    outer loop
      vertex 17.5815 -22.9418 8.85803
      vertex 17.5731 -22.9491 8.85733
      vertex 17.5519 -22.916 8.85556
    endloop
  endfacet
  facet normal 0.652636 -0.755725 0.0542833
    outer loop
      vertex 17.5731 -22.9491 8.85733
      vertex 17.5815 -22.9418 8.85803
      vertex 17.5568 -22.9491 9.0535
    endloop
  endfacet
  facet normal 0.652558 -0.755793 0.0542709
    outer loop
      vertex 17.5815 -22.9418 8.85803
      vertex 17.5652 -22.9418 9.0542
      vertex 17.5568 -22.9491 9.0535
    endloop
  endfacet
  facet normal 0.08285 -6.86263e-5 -0.996562
    outer loop
      vertex 17.5568 -22.9491 9.0535
      vertex 17.5652 -22.9418 9.0542
      vertex 17.591 -22.966 9.05634
    endloop
  endfacet
  facet normal 0.0829335 2.05583e-5 -0.996555
    outer loop
      vertex 17.5652 -22.9418 9.0542
      vertex 17.6001 -22.9534 9.05711
      vertex 17.591 -22.966 9.05634
    endloop
  endfacet
  facet normal 0.0829208 2.06564e-5 -0.996556
    outer loop
      vertex 17.4802 -22.8659 9.04713
      vertex 17.4917 -22.8555 9.04809
      vertex 17.5143 -22.8829 9.04997
    endloop
  endfacet
  facet normal -0.666823 0.743149 -0.0554638
    outer loop
      vertex 17.4917 -22.8555 9.04809
      vertex 17.4802 -22.8659 9.04713
      vertex 17.4852 -22.8555 9.12656
    endloop
  endfacet
  facet normal -0.666826 0.743147 -0.0554633
    outer loop
      vertex 17.4802 -22.8659 9.04713
      vertex 17.4736 -22.8659 9.1256
      vertex 17.4852 -22.8555 9.12656
    endloop
  endfacet
  facet normal 0.082844 -8.33634e-5 -0.996563
    outer loop
      vertex 17.5162 -22.8996 8.85259
      vertex 17.5222 -22.8902 8.8531
      vertex 17.5519 -22.916 8.85556
    endloop
  endfacet
  facet normal -0.838434 0.540523 -0.0697368
    outer loop
      vertex 17.5222 -22.8902 8.8531
      vertex 17.5162 -22.8996 8.85259
      vertex 17.5059 -22.8902 9.04927
    endloop
  endfacet
  facet normal -0.838431 0.540527 -0.0697369
    outer loop
      vertex 17.5162 -22.8996 8.85259
      vertex 17.4999 -22.8996 9.04877
      vertex 17.5059 -22.8902 9.04927
    endloop
  endfacet
  facet normal -0.806216 0.587809 -0.0670571
    outer loop
      vertex 17.4802 -22.8659 9.04713
      vertex 17.471 -22.8786 9.04637
      vertex 17.4736 -22.8659 9.1256
    endloop
  endfacet
  facet normal -0.806216 0.587809 -0.0670571
    outer loop
      vertex 17.471 -22.8786 9.04637
      vertex 17.4645 -22.8786 9.12484
      vertex 17.4736 -22.8659 9.1256
    endloop
  endfacet
  facet normal 0.0828981 -1.98222e-5 -0.996558
    outer loop
      vertex 17.5059 -22.8902 9.04927
      vertex 17.4999 -22.8996 9.04877
      vertex 17.471 -22.8786 9.04637
    endloop
  endfacet
  facet normal 0.0829035 -1.23611e-5 -0.996558
    outer loop
      vertex 17.4999 -22.8996 9.04877
      vertex 17.4647 -22.8929 9.04584
      vertex 17.471 -22.8786 9.04637
    endloop
  endfacet
  facet normal 0.498263 -0.866036 0.0414241
    outer loop
      vertex 17.529 -22.8819 9.1302
      vertex 17.4996 -22.8989 9.12776
      vertex 17.5037 -22.8989 9.07871
    endloop
  endfacet
  facet normal 0.498236 -0.86605 0.0414416
    outer loop
      vertex 17.5331 -22.8819 9.08116
      vertex 17.529 -22.8819 9.1302
      vertex 17.5037 -22.8989 9.07871
    endloop
  endfacet
  facet normal -0.498259 -0.866037 -0.0414435
    outer loop
      vertex 17.529 -22.8819 9.1302
      vertex 17.5331 -22.8819 9.08116
      vertex 17.5585 -22.8989 9.13265
    endloop
  endfacet
  facet normal -0.498261 -0.866036 -0.0414421
    outer loop
      vertex 17.5331 -22.8819 9.08116
      vertex 17.5625 -22.8989 9.08361
      vertex 17.5585 -22.8989 9.13265
    endloop
  endfacet
  facet normal -0.0829129 1.27284e-5 0.996557
    outer loop
      vertex 17.529 -22.8819 9.1302
      vertex 17.5585 -22.8989 9.13265
      vertex 17.5729 -22.8555 9.13385
    endloop
  endfacet
  facet normal -0.0828734 -4.25607e-7 0.99656
    outer loop
      vertex 17.5585 -22.8989 9.13265
      vertex 17.5844 -22.8659 9.13481
      vertex 17.5729 -22.8555 9.13385
    endloop
  endfacet
  facet normal -0.0828839 -3.56658e-5 0.996559
    outer loop
      vertex 17.5729 -22.8555 9.13385
      vertex 17.5594 -22.8477 9.13273
      vertex 17.529 -22.8819 9.1302
    endloop
  endfacet
  facet normal 0.0829015 -1.92203e-5 -0.996558
    outer loop
      vertex 17.5731 -22.8829 8.85733
      vertex 17.5815 -22.8902 8.85803
      vertex 17.5519 -22.916 8.85556
    endloop
  endfacet
  facet normal 0.0828149 8.09992e-5 -0.996565
    outer loop
      vertex 17.5815 -22.8902 8.85803
      vertex 17.5876 -22.8996 8.85853
      vertex 17.5519 -22.916 8.85556
    endloop
  endfacet
  facet normal 0.0828978 -0.000101048 -0.996558
    outer loop
      vertex 17.5519 -22.916 8.85556
      vertex 17.5876 -22.8996 8.85853
      vertex 17.5907 -22.9104 8.85879
    endloop
  endfacet
  facet normal 0.0828149 -8.10094e-5 -0.996565
    outer loop
      vertex 17.5876 -22.9323 8.85853
      vertex 17.5815 -22.9418 8.85803
      vertex 17.5519 -22.916 8.85556
    endloop
  endfacet
  facet normal 0.838311 -0.540715 0.0697193
    outer loop
      vertex 17.5815 -22.9418 8.85803
      vertex 17.5876 -22.9323 8.85853
      vertex 17.5652 -22.9418 9.0542
    endloop
  endfacet
  facet normal 0.838305 -0.540725 0.0697182
    outer loop
      vertex 17.5876 -22.9323 8.85853
      vertex 17.5713 -22.9323 9.0547
      vertex 17.5652 -22.9418 9.0542
    endloop
  endfacet
  facet normal 0.0829128 -6.78799e-5 -0.996557
    outer loop
      vertex 17.5162 -22.9323 8.85259
      vertex 17.513 -22.9216 8.85233
      vertex 17.5519 -22.916 8.85556
    endloop
  endfacet
  facet normal 0.0829031 0 -0.996558
    outer loop
      vertex 17.513 -22.9216 8.85233
      vertex 17.513 -22.9104 8.85233
      vertex 17.5519 -22.916 8.85556
    endloop
  endfacet
  facet normal 0.0829128 6.78912e-5 -0.996557
    outer loop
      vertex 17.5519 -22.916 8.85556
      vertex 17.513 -22.9104 8.85233
      vertex 17.5162 -22.8996 8.85259
    endloop
  endfacet
  facet normal -0.956158 -0.28185 -0.0795194
    outer loop
      vertex 17.513 -22.9216 8.85233
      vertex 17.5162 -22.9323 8.85259
      vertex 17.4967 -22.9216 9.04851
    endloop
  endfacet
  facet normal -0.956203 -0.281691 -0.0795327
    outer loop
      vertex 17.5162 -22.9323 8.85259
      vertex 17.4999 -22.9323 9.04877
      vertex 17.4967 -22.9216 9.04851
    endloop
  endfacet
  facet normal -0.99656 0 -0.0828795
    outer loop
      vertex 17.513 -22.9104 8.85233
      vertex 17.513 -22.9216 8.85233
      vertex 17.4967 -22.9104 9.04851
    endloop
  endfacet
  facet normal -0.99656 0 -0.0828795
    outer loop
      vertex 17.513 -22.9216 8.85233
      vertex 17.4967 -22.9216 9.04851
      vertex 17.4967 -22.9104 9.04851
    endloop
  endfacet
  facet normal -0.956144 0.281895 -0.0795277
    outer loop
      vertex 17.5162 -22.8996 8.85259
      vertex 17.513 -22.9104 8.85233
      vertex 17.4999 -22.8996 9.04877
    endloop
  endfacet
  facet normal -0.956191 0.281736 -0.0795222
    outer loop
      vertex 17.513 -22.9104 8.85233
      vertex 17.4967 -22.9104 9.04851
      vertex 17.4999 -22.8996 9.04877
    endloop
  endfacet
  facet normal 0.082844 8.3374e-5 -0.996563
    outer loop
      vertex 17.5222 -22.9418 8.8531
      vertex 17.5162 -22.9323 8.85259
      vertex 17.5519 -22.916 8.85556
    endloop
  endfacet
  facet normal -0.838386 -0.540598 -0.0697332
    outer loop
      vertex 17.5162 -22.9323 8.85259
      vertex 17.5222 -22.9418 8.8531
      vertex 17.4999 -22.9323 9.04877
    endloop
  endfacet
  facet normal -0.838383 -0.540603 -0.0697326
    outer loop
      vertex 17.5222 -22.9418 8.8531
      vertex 17.5059 -22.9418 9.04927
      vertex 17.4999 -22.9323 9.04877
    endloop
  endfacet
  facet normal 0.83836 0.54064 0.0697227
    outer loop
      vertex 17.5876 -22.8996 8.85853
      vertex 17.5815 -22.8902 8.85803
      vertex 17.5713 -22.8996 9.0547
    endloop
  endfacet
  facet normal 0.838354 0.540649 0.0697228
    outer loop
      vertex 17.5815 -22.8902 8.85803
      vertex 17.5652 -22.8902 9.0542
      vertex 17.5713 -22.8996 9.0547
    endloop
  endfacet
  facet normal 0.0828978 0.000101031 -0.996558
    outer loop
      vertex 17.5907 -22.9216 8.85879
      vertex 17.5876 -22.9323 8.85853
      vertex 17.5519 -22.916 8.85556
    endloop
  endfacet
  facet normal 0.956247 -0.281545 0.0795268
    outer loop
      vertex 17.5876 -22.9323 8.85853
      vertex 17.5907 -22.9216 8.85879
      vertex 17.5713 -22.9323 9.0547
    endloop
  endfacet
  facet normal 0.956249 -0.281538 0.0795274
    outer loop
      vertex 17.5907 -22.9216 8.85879
      vertex 17.5744 -22.9216 9.05497
      vertex 17.5713 -22.9323 9.0547
    endloop
  endfacet
  facet normal 0.956234 0.28159 0.0795261
    outer loop
      vertex 17.5907 -22.9104 8.85879
      vertex 17.5876 -22.8996 8.85853
      vertex 17.5744 -22.9104 9.05497
    endloop
  endfacet
  facet normal 0.956236 0.281583 0.0795259
    outer loop
      vertex 17.5876 -22.8996 8.85853
      vertex 17.5713 -22.8996 9.0547
      vertex 17.5744 -22.9104 9.05497
    endloop
  endfacet
  facet normal 0.0828833 0 -0.996559
    outer loop
      vertex 17.5907 -22.9104 8.85879
      vertex 17.5907 -22.9216 8.85879
      vertex 17.5519 -22.916 8.85556
    endloop
  endfacet
  facet normal 0.99656 0 0.0828799
    outer loop
      vertex 17.5907 -22.9216 8.85879
      vertex 17.5907 -22.9104 8.85879
      vertex 17.5744 -22.9216 9.05497
    endloop
  endfacet
  facet normal 0.99656 0 0.0828799
    outer loop
      vertex 17.5907 -22.9104 8.85879
      vertex 17.5744 -22.9104 9.05497
      vertex 17.5744 -22.9216 9.05497
    endloop
  endfacet
  facet normal 0.666885 0.743094 0.0554682
    outer loop
      vertex 17.591 -22.8659 9.05634
      vertex 17.5794 -22.8555 9.05538
      vertex 17.5844 -22.8659 9.13481
    endloop
  endfacet
  facet normal 0.666885 0.743094 0.0554682
    outer loop
      vertex 17.5794 -22.8555 9.05538
      vertex 17.5729 -22.8555 9.13385
      vertex 17.5844 -22.8659 9.13481
    endloop
  endfacet
  facet normal -0.0829084 4.04135e-5 0.996557
    outer loop
      vertex 17.4852 -22.9765 9.12656
      vertex 17.4987 -22.9843 9.12768
      vertex 17.529 -22.9501 9.1302
    endloop
  endfacet
  facet normal -0.0829129 -1.27277e-5 0.996557
    outer loop
      vertex 17.5585 -22.933 9.13265
      vertex 17.529 -22.9501 9.1302
      vertex 17.5729 -22.9765 9.13385
    endloop
  endfacet
  facet normal -0.4983 0.866014 -0.0414454
    outer loop
      vertex 17.529 -22.9501 9.1302
      vertex 17.5585 -22.933 9.13265
      vertex 17.5625 -22.933 9.08361
    endloop
  endfacet
  facet normal -0.498302 0.866012 -0.0414471
    outer loop
      vertex 17.5331 -22.9501 9.08116
      vertex 17.529 -22.9501 9.1302
      vertex 17.5625 -22.933 9.08361
    endloop
  endfacet
  facet normal 0.498302 0.866012 0.0414471
    outer loop
      vertex 17.529 -22.9501 9.1302
      vertex 17.5331 -22.9501 9.08116
      vertex 17.4996 -22.933 9.12776
    endloop
  endfacet
  facet normal 0.498279 0.866027 0.0414255
    outer loop
      vertex 17.5331 -22.9501 9.08116
      vertex 17.5037 -22.933 9.07871
      vertex 17.4996 -22.933 9.12776
    endloop
  endfacet
  facet normal -0.0828706 -2.2709e-5 0.99656
    outer loop
      vertex 17.529 -22.9501 9.1302
      vertex 17.4996 -22.933 9.12776
      vertex 17.4852 -22.9765 9.12656
    endloop
  endfacet
  facet normal -0.082878 -2.02576e-5 0.99656
    outer loop
      vertex 17.4996 -22.933 9.12776
      vertex 17.4736 -22.966 9.1256
      vertex 17.4852 -22.9765 9.12656
    endloop
  endfacet
  facet normal -0.666758 -0.743208 -0.0554576
    outer loop
      vertex 17.4802 -22.966 9.04713
      vertex 17.4917 -22.9765 9.04809
      vertex 17.4736 -22.966 9.1256
    endloop
  endfacet
  facet normal -0.66676 -0.743206 -0.0554585
    outer loop
      vertex 17.4917 -22.9765 9.04809
      vertex 17.4852 -22.9765 9.12656
      vertex 17.4736 -22.966 9.1256
    endloop
  endfacet
  facet normal 0.0828799 -7.69523e-6 -0.99656
    outer loop
      vertex 17.591 -22.966 9.05634
      vertex 17.5794 -22.9765 9.05538
      vertex 17.5568 -22.9491 9.0535
    endloop
  endfacet
  facet normal 0.666819 -0.743153 0.0554627
    outer loop
      vertex 17.5794 -22.9765 9.05538
      vertex 17.591 -22.966 9.05634
      vertex 17.5729 -22.9765 9.13385
    endloop
  endfacet
  facet normal 0.666819 -0.743153 0.0554627
    outer loop
      vertex 17.591 -22.966 9.05634
      vertex 17.5844 -22.966 9.13481
      vertex 17.5729 -22.9765 9.13385
    endloop
  endfacet
  facet normal 0.806157 -0.58789 0.0670522
    outer loop
      vertex 17.591 -22.966 9.05634
      vertex 17.6001 -22.9534 9.05711
      vertex 17.5844 -22.966 9.13481
    endloop
  endfacet
  facet normal 0.806162 -0.587883 0.0670542
    outer loop
      vertex 17.6001 -22.9534 9.05711
      vertex 17.5936 -22.9534 9.13557
      vertex 17.5844 -22.966 9.13481
    endloop
  endfacet
  facet normal 0.0829386 3.6121e-5 -0.996555
    outer loop
      vertex 17.5652 -22.9418 9.0542
      vertex 17.5713 -22.9323 9.0547
      vertex 17.6001 -22.9534 9.05711
    endloop
  endfacet
  facet normal 0.082868 -6.14416e-5 -0.996561
    outer loop
      vertex 17.5713 -22.9323 9.0547
      vertex 17.6065 -22.9391 9.05763
      vertex 17.6001 -22.9534 9.05711
    endloop
  endfacet
  facet normal -0.996557 0 -0.0829124
    outer loop
      vertex 17.4549 -22.9238 9.12404
      vertex 17.4549 -22.9082 9.12404
      vertex 17.4614 -22.9238 9.04557
    endloop
  endfacet
  facet normal -0.996557 0 -0.0829124
    outer loop
      vertex 17.4549 -22.9082 9.12404
      vertex 17.4614 -22.9082 9.04557
      vertex 17.4614 -22.9238 9.04557
    endloop
  endfacet
  facet normal -0.082884 0 0.996559
    outer loop
      vertex 17.4549 -22.9082 9.12404
      vertex 17.4549 -22.9238 9.12404
      vertex 17.4996 -22.933 9.12776
    endloop
  endfacet
  facet normal -0.0828896 -2.74239e-5 0.996559
    outer loop
      vertex 17.4549 -22.9238 9.12404
      vertex 17.4581 -22.9391 9.12431
      vertex 17.4996 -22.933 9.12776
    endloop
  endfacet
  facet normal -0.0828925 -7.45713e-6 0.996558
    outer loop
      vertex 17.4996 -22.933 9.12776
      vertex 17.4581 -22.9391 9.12431
      vertex 17.4645 -22.9534 9.12484
    endloop
  endfacet
  facet normal -0.0828896 2.74241e-5 0.996559
    outer loop
      vertex 17.4581 -22.8929 9.12431
      vertex 17.4549 -22.9082 9.12404
      vertex 17.4996 -22.8989 9.12776
    endloop
  endfacet
  facet normal -0.082884 0 0.996559
    outer loop
      vertex 17.4549 -22.9082 9.12404
      vertex 17.4996 -22.933 9.12776
      vertex 17.4996 -22.8989 9.12776
    endloop
  endfacet
  facet normal -0.974768 0.207966 -0.0810996
    outer loop
      vertex 17.4549 -22.9082 9.12404
      vertex 17.4581 -22.8929 9.12431
      vertex 17.4614 -22.9082 9.04557
    endloop
  endfacet
  facet normal -0.974794 0.207852 -0.0810786
    outer loop
      vertex 17.4581 -22.8929 9.12431
      vertex 17.4647 -22.8929 9.04584
      vertex 17.4614 -22.9082 9.04557
    endloop
  endfacet
  facet normal 0.0828975 0 -0.996558
    outer loop
      vertex 17.4614 -22.9238 9.04557
      vertex 17.4614 -22.9082 9.04557
      vertex 17.4967 -22.9104 9.04851
    endloop
  endfacet
  facet normal 0.0828964 -1.87649e-5 -0.996558
    outer loop
      vertex 17.4614 -22.9082 9.04557
      vertex 17.4647 -22.8929 9.04584
      vertex 17.4967 -22.9104 9.04851
    endloop
  endfacet
  facet normal 0.0829055 -1.91557e-6 -0.996557
    outer loop
      vertex 17.4967 -22.9104 9.04851
      vertex 17.4647 -22.8929 9.04584
      vertex 17.4999 -22.8996 9.04877
    endloop
  endfacet
  facet normal 0.0828964 1.87649e-5 -0.996558
    outer loop
      vertex 17.4647 -22.9391 9.04584
      vertex 17.4614 -22.9238 9.04557
      vertex 17.4967 -22.9216 9.04851
    endloop
  endfacet
  facet normal 0.0828975 0 -0.996558
    outer loop
      vertex 17.4614 -22.9238 9.04557
      vertex 17.4967 -22.9104 9.04851
      vertex 17.4967 -22.9216 9.04851
    endloop
  endfacet
  facet normal -0.974792 -0.207852 -0.0811016
    outer loop
      vertex 17.4614 -22.9238 9.04557
      vertex 17.4647 -22.9391 9.04584
      vertex 17.4549 -22.9238 9.12404
    endloop
  endfacet
  facet normal -0.97477 -0.207966 -0.0810766
    outer loop
      vertex 17.4647 -22.9391 9.04584
      vertex 17.4581 -22.9391 9.12431
      vertex 17.4549 -22.9238 9.12404
    endloop
  endfacet
  facet normal 0.996562 0 0.0828513
    outer loop
      vertex 17.4996 -22.933 9.12776
      vertex 17.5037 -22.933 9.07871
      vertex 17.4996 -22.8989 9.12776
    endloop
  endfacet
  facet normal 0.996562 0 0.0828513
    outer loop
      vertex 17.5037 -22.933 9.07871
      vertex 17.5037 -22.8989 9.07871
      vertex 17.4996 -22.8989 9.12776
    endloop
  endfacet
  facet normal -0.0828925 7.45818e-6 0.996558
    outer loop
      vertex 17.4645 -22.8786 9.12484
      vertex 17.4581 -22.8929 9.12431
      vertex 17.4996 -22.8989 9.12776
    endloop
  endfacet
  facet normal -0.910409 0.406721 -0.0757233
    outer loop
      vertex 17.4581 -22.8929 9.12431
      vertex 17.4645 -22.8786 9.12484
      vertex 17.4647 -22.8929 9.04584
    endloop
  endfacet
  facet normal -0.910409 0.406721 -0.0757233
    outer loop
      vertex 17.4645 -22.8786 9.12484
      vertex 17.471 -22.8786 9.04637
      vertex 17.4647 -22.8929 9.04584
    endloop
  endfacet
  facet normal -0.910428 -0.406677 -0.075725
    outer loop
      vertex 17.4647 -22.9391 9.04584
      vertex 17.471 -22.9534 9.04637
      vertex 17.4581 -22.9391 9.12431
    endloop
  endfacet
  facet normal -0.910428 -0.406677 -0.075725
    outer loop
      vertex 17.471 -22.9534 9.04637
      vertex 17.4645 -22.9534 9.12484
      vertex 17.4581 -22.9391 9.12431
    endloop
  endfacet
  facet normal 0.0829055 1.91528e-6 -0.996557
    outer loop
      vertex 17.4967 -22.9216 9.04851
      vertex 17.4999 -22.9323 9.04877
      vertex 17.4647 -22.9391 9.04584
    endloop
  endfacet
  facet normal -0.0828837 0 0.996559
    outer loop
      vertex 17.5037 -22.933 9.07871
      vertex 17.5331 -22.9501 9.08116
      vertex 17.5331 -22.8819 9.08116
    endloop
  endfacet
  facet normal -0.0828575 0 0.996561
    outer loop
      vertex 17.5331 -22.9501 9.08116
      vertex 17.5625 -22.8989 9.08361
      vertex 17.5331 -22.8819 9.08116
    endloop
  endfacet
  facet normal -0.0828837 0 0.996559
    outer loop
      vertex 17.5037 -22.8989 9.07871
      vertex 17.5037 -22.933 9.07871
      vertex 17.5331 -22.8819 9.08116
    endloop
  endfacet
  facet normal -0.806216 -0.587809 -0.0670571
    outer loop
      vertex 17.4736 -22.966 9.1256
      vertex 17.4645 -22.9534 9.12484
      vertex 17.4802 -22.966 9.04713
    endloop
  endfacet
  facet normal -0.806216 -0.587809 -0.0670571
    outer loop
      vertex 17.4645 -22.9534 9.12484
      vertex 17.471 -22.9534 9.04637
      vertex 17.4802 -22.966 9.04713
    endloop
  endfacet
  facet normal -0.0828912 -9.77601e-6 0.996559
    outer loop
      vertex 17.4645 -22.9534 9.12484
      vertex 17.4736 -22.966 9.1256
      vertex 17.4996 -22.933 9.12776
    endloop
  endfacet
  facet normal -0.0828575 0 0.996561
    outer loop
      vertex 17.5331 -22.9501 9.08116
      vertex 17.5625 -22.933 9.08361
      vertex 17.5625 -22.8989 9.08361
    endloop
  endfacet
  facet normal -0.0828912 9.77654e-6 0.996559
    outer loop
      vertex 17.4736 -22.8659 9.1256
      vertex 17.4645 -22.8786 9.12484
      vertex 17.4996 -22.8989 9.12776
    endloop
  endfacet
  facet normal -0.996559 0 -0.0828873
    outer loop
      vertex 17.5625 -22.933 9.08361
      vertex 17.5585 -22.933 9.13265
      vertex 17.5625 -22.8989 9.08361
    endloop
  endfacet
  facet normal -0.996559 0 -0.0828873
    outer loop
      vertex 17.5585 -22.933 9.13265
      vertex 17.5585 -22.8989 9.13265
      vertex 17.5625 -22.8989 9.08361
    endloop
  endfacet
  facet normal -0.0828668 0 0.996561
    outer loop
      vertex 17.5585 -22.8989 9.13265
      vertex 17.5585 -22.933 9.13265
      vertex 17.6032 -22.9082 9.13637
    endloop
  endfacet
  facet normal -0.0828668 0 0.996561
    outer loop
      vertex 17.5585 -22.933 9.13265
      vertex 17.6032 -22.9238 9.13637
      vertex 17.6032 -22.9082 9.13637
    endloop
  endfacet
  facet normal -0.0828734 4.25611e-7 0.99656
    outer loop
      vertex 17.5729 -22.9765 9.13385
      vertex 17.5844 -22.966 9.13481
      vertex 17.5585 -22.933 9.13265
    endloop
  endfacet
  facet normal -0.0828195 4.30965e-5 0.996565
    outer loop
      vertex 17.5844 -22.966 9.13481
      vertex 17.5936 -22.9534 9.13557
      vertex 17.5585 -22.933 9.13265
    endloop
  endfacet
  facet normal -0.0828855 -7.1458e-5 0.996559
    outer loop
      vertex 17.5585 -22.933 9.13265
      vertex 17.5936 -22.9534 9.13557
      vertex 17.5999 -22.9391 9.1361
    endloop
  endfacet
  facet normal 0.996559 0 0.0828898
    outer loop
      vertex 17.6032 -22.9082 9.13637
      vertex 17.6032 -22.9238 9.13637
      vertex 17.6097 -22.9082 9.0579
    endloop
  endfacet
  facet normal 0.996559 0 0.0828898
    outer loop
      vertex 17.6032 -22.9238 9.13637
      vertex 17.6097 -22.9238 9.0579
      vertex 17.6097 -22.9082 9.0579
    endloop
  endfacet
  facet normal 0.974768 0.207966 0.0810996
    outer loop
      vertex 17.5999 -22.8929 9.1361
      vertex 17.6032 -22.9082 9.13637
      vertex 17.6065 -22.8929 9.05763
    endloop
  endfacet
  facet normal 0.974793 0.207857 0.0810795
    outer loop
      vertex 17.6032 -22.9082 9.13637
      vertex 17.6097 -22.9082 9.0579
      vertex 17.6065 -22.8929 9.05763
    endloop
  endfacet
  facet normal -0.0828717 -2.35898e-5 0.99656
    outer loop
      vertex 17.6032 -22.9082 9.13637
      vertex 17.5999 -22.8929 9.1361
      vertex 17.5585 -22.8989 9.13265
    endloop
  endfacet
  facet normal -0.0828855 7.14681e-5 0.996559
    outer loop
      vertex 17.5999 -22.8929 9.1361
      vertex 17.5936 -22.8786 9.13557
      vertex 17.5585 -22.8989 9.13265
    endloop
  endfacet
  facet normal -0.0828195 -4.30988e-5 0.996565
    outer loop
      vertex 17.5585 -22.8989 9.13265
      vertex 17.5936 -22.8786 9.13557
      vertex 17.5844 -22.8659 9.13481
    endloop
  endfacet
  facet normal 0.910469 -0.406582 0.0757499
    outer loop
      vertex 17.5999 -22.9391 9.1361
      vertex 17.5936 -22.9534 9.13557
      vertex 17.6065 -22.9391 9.05763
    endloop
  endfacet
  facet normal 0.91043 -0.406673 0.0757269
    outer loop
      vertex 17.5936 -22.9534 9.13557
      vertex 17.6001 -22.9534 9.05711
      vertex 17.6065 -22.9391 9.05763
    endloop
  endfacet
  facet normal -0.0828716 2.35896e-5 0.99656
    outer loop
      vertex 17.5999 -22.9391 9.1361
      vertex 17.6032 -22.9238 9.13637
      vertex 17.5585 -22.933 9.13265
    endloop
  endfacet
  facet normal 0.97477 -0.207966 0.0810775
    outer loop
      vertex 17.6032 -22.9238 9.13637
      vertex 17.5999 -22.9391 9.1361
      vertex 17.6097 -22.9238 9.0579
    endloop
  endfacet
  facet normal 0.974791 -0.207857 0.0811015
    outer loop
      vertex 17.5999 -22.9391 9.1361
      vertex 17.6065 -22.9391 9.05763
      vertex 17.6097 -22.9238 9.0579
    endloop
  endfacet
  facet normal 0.806162 0.587883 0.0670526
    outer loop
      vertex 17.5844 -22.8659 9.13481
      vertex 17.5936 -22.8786 9.13557
      vertex 17.591 -22.8659 9.05634
    endloop
  endfacet
  facet normal 0.806157 0.58789 0.0670538
    outer loop
      vertex 17.5936 -22.8786 9.13557
      vertex 17.6001 -22.8786 9.05711
      vertex 17.591 -22.8659 9.05634
    endloop
  endfacet
  facet normal 0.910451 0.406626 0.0757286
    outer loop
      vertex 17.5936 -22.8786 9.13557
      vertex 17.5999 -22.8929 9.1361
      vertex 17.6001 -22.8786 9.05711
    endloop
  endfacet
  facet normal 0.910409 0.406717 0.0757449
    outer loop
      vertex 17.5999 -22.8929 9.1361
      vertex 17.6065 -22.8929 9.05763
      vertex 17.6001 -22.8786 9.05711
    endloop
  endfacet
  facet normal 0.0828932 0 -0.996558
    outer loop
      vertex 17.6097 -22.9082 9.0579
      vertex 17.6097 -22.9238 9.0579
      vertex 17.5744 -22.9216 9.05497
    endloop
  endfacet
  facet normal 0.0828958 4.203e-5 -0.996558
    outer loop
      vertex 17.6097 -22.9238 9.0579
      vertex 17.6065 -22.9391 9.05763
      vertex 17.5744 -22.9216 9.05497
    endloop
  endfacet
  facet normal 0.0828833 1.89805e-5 -0.996559
    outer loop
      vertex 17.5744 -22.9216 9.05497
      vertex 17.6065 -22.9391 9.05763
      vertex 17.5713 -22.9323 9.0547
    endloop
  endfacet
  facet normal 0.0828958 -4.203e-5 -0.996558
    outer loop
      vertex 17.6065 -22.8929 9.05763
      vertex 17.6097 -22.9082 9.0579
      vertex 17.5744 -22.9104 9.05497
    endloop
  endfacet
  facet normal 0.0828932 0 -0.996558
    outer loop
      vertex 17.6097 -22.9082 9.0579
      vertex 17.5744 -22.9216 9.05497
      vertex 17.5744 -22.9104 9.05497
    endloop
  endfacet
  facet normal 0.0828833 -1.89834e-5 -0.996559
    outer loop
      vertex 17.5744 -22.9104 9.05497
      vertex 17.5713 -22.8996 9.0547
      vertex 17.6065 -22.8929 9.05763
    endloop
  endfacet
endsolid Onshape
