solid Onshape
  facet normal -0.987436 0 0.158018
    outer loop
      vertex 17.8951 -1.27899 9.33358
      vertex 17.8478 -1.27899 9.0382
      vertex 17.8951 -18.129 9.33358
    endloop
  endfacet
  facet normal -0.987436 0 0.158018
    outer loop
      vertex 17.8478 -1.27899 9.0382
      vertex 17.8478 -18.129 9.0382
      vertex 17.8951 -18.129 9.33358
    endloop
  endfacet
  facet normal 0 1 0
    outer loop
      vertex 17.8478 -1.27899 9.0382
      vertex 17.8951 -1.27899 9.33358
      vertex 17.9641 -1.27899 9.32884
    endloop
  endfacet
  facet normal 0 1 0
    outer loop
      vertex 17.8951 -1.27899 9.33358
      vertex 18.1514 -1.27899 9.5501
      vertex 17.9641 -1.27899 9.32884
    endloop
  endfacet
  facet normal 0 1 0
    outer loop
      vertex 17.9432 -1.27899 8.75468
      vertex 17.8478 -1.27899 9.0382
      vertex 17.9126 -1.27899 9.04358
    endloop
  endfacet
  facet normal 0 1 0
    outer loop
      vertex 17.8478 -1.27899 9.0382
      vertex 17.9641 -1.27899 9.32884
      vertex 17.9126 -1.27899 9.04358
    endloop
  endfacet
  facet normal -0.947765 0 -0.318969
    outer loop
      vertex 17.8478 -1.27899 9.0382
      vertex 17.9432 -1.27899 8.75468
      vertex 17.8478 -18.129 9.0382
    endloop
  endfacet
  facet normal -0.947765 0 -0.318969
    outer loop
      vertex 17.9432 -1.27899 8.75468
      vertex 17.9432 -18.129 8.75468
      vertex 17.8478 -18.129 9.0382
    endloop
  endfacet
  facet normal 0 -1 0
    outer loop
      vertex 17.8478 -18.129 9.0382
      vertex 17.9432 -18.129 8.75468
      vertex 18.0105 -18.129 8.77077
    endloop
  endfacet
  facet normal 0 -1 0
    outer loop
      vertex 17.9432 -18.129 8.75468
      vertex 18.2318 -18.129 8.58349
      vertex 18.0105 -18.129 8.77077
    endloop
  endfacet
  facet normal 0 -1 0
    outer loop
      vertex 17.8951 -18.129 9.33358
      vertex 17.8478 -18.129 9.0382
      vertex 17.9126 -18.129 9.04358
    endloop
  endfacet
  facet normal 0 -1 0
    outer loop
      vertex 17.8478 -18.129 9.0382
      vertex 18.0105 -18.129 8.77077
      vertex 17.9126 -18.129 9.04358
    endloop
  endfacet
  facet normal 0 -1 0
    outer loop
      vertex 18.0742 -18.129 9.57317
      vertex 17.8951 -18.129 9.33358
      vertex 17.9641 -18.129 9.32884
    endloop
  endfacet
  facet normal 0 -1 0
    outer loop
      vertex 17.8951 -18.129 9.33358
      vertex 17.9126 -18.129 9.04358
      vertex 17.9641 -18.129 9.32884
    endloop
  endfacet
  facet normal -0.800897 0 0.598802
    outer loop
      vertex 17.8951 -18.129 9.33358
      vertex 18.0742 -18.129 9.57317
      vertex 17.8951 -1.27899 9.33358
    endloop
  endfacet
  facet normal -0.800897 0 0.598802
    outer loop
      vertex 18.0742 -18.129 9.57317
      vertex 18.0742 -1.27899 9.57317
      vertex 17.8951 -1.27899 9.33358
    endloop
  endfacet
  facet normal 0 1 0
    outer loop
      vertex 18.1595 -1.27899 8.54798
      vertex 17.9432 -1.27899 8.75468
      vertex 18.0105 -1.27899 8.77077
    endloop
  endfacet
  facet normal 0 1 0
    outer loop
      vertex 17.9432 -1.27899 8.75468
      vertex 17.9126 -1.27899 9.04358
      vertex 18.0105 -1.27899 8.77077
    endloop
  endfacet
  facet normal -0.690974 0 -0.722879
    outer loop
      vertex 17.9432 -1.27899 8.75468
      vertex 18.1595 -1.27899 8.54798
      vertex 17.9432 -18.129 8.75468
    endloop
  endfacet
  facet normal -0.690974 0 -0.722879
    outer loop
      vertex 18.1595 -1.27899 8.54798
      vertex 18.1595 -18.129 8.54798
      vertex 17.9432 -18.129 8.75468
    endloop
  endfacet
  facet normal 0 1 0
    outer loop
      vertex 17.8951 -1.27899 9.33358
      vertex 18.0742 -1.27899 9.57317
      vertex 18.1514 -1.27899 9.5501
    endloop
  endfacet
  facet normal 0 1 0
    outer loop
      vertex 18.0742 -1.27899 9.57317
      vertex 18.4242 -1.27899 9.64807
      vertex 18.1514 -1.27899 9.5501
    endloop
  endfacet
  facet normal 0.984053 0 -0.177874
    outer loop
      vertex 17.9126 -1.27899 9.04358
      vertex 17.9641 -1.27899 9.32884
      vertex 17.9641 -18.129 9.32884
    endloop
  endfacet
  facet normal 0.984053 0 -0.177874
    outer loop
      vertex 17.9126 -18.129 9.04358
      vertex 17.9126 -1.27899 9.04358
      vertex 17.9641 -18.129 9.32884
    endloop
  endfacet
  facet normal 0.94115 0 0.33799
    outer loop
      vertex 17.9126 -1.27899 9.04358
      vertex 17.9126 -18.129 9.04358
      vertex 18.0105 -1.27899 8.77077
    endloop
  endfacet
  facet normal 0.94115 0 0.33799
    outer loop
      vertex 17.9126 -18.129 9.04358
      vertex 18.0105 -18.129 8.77077
      vertex 18.0105 -1.27899 8.77077
    endloop
  endfacet
  facet normal 0.763282 0 -0.646066
    outer loop
      vertex 17.9641 -1.27899 9.32884
      vertex 18.1514 -1.27899 9.5501
      vertex 18.1514 -18.129 9.5501
    endloop
  endfacet
  facet normal 0.763282 0 -0.646066
    outer loop
      vertex 17.9641 -18.129 9.32884
      vertex 17.9641 -1.27899 9.32884
      vertex 18.1514 -18.129 9.5501
    endloop
  endfacet
  facet normal 0 -1 0
    outer loop
      vertex 17.9432 -18.129 8.75468
      vertex 18.1595 -18.129 8.54798
      vertex 18.2318 -18.129 8.58349
    endloop
  endfacet
  facet normal 0 -1 0
    outer loop
      vertex 18.1595 -18.129 8.54798
      vertex 18.5171 -18.129 8.53193
      vertex 18.2318 -18.129 8.58349
    endloop
  endfacet
  facet normal 0.646067 0 0.76328
    outer loop
      vertex 18.0105 -18.129 8.77077
      vertex 18.2318 -18.129 8.58349
      vertex 18.2318 -1.27899 8.58349
    endloop
  endfacet
  facet normal 0.646067 0 0.76328
    outer loop
      vertex 18.0105 -1.27899 8.77077
      vertex 18.0105 -18.129 8.77077
      vertex 18.2318 -1.27899 8.58349
    endloop
  endfacet
  facet normal 0 -1 0
    outer loop
      vertex 18.3441 -18.129 9.70206
      vertex 18.0742 -18.129 9.57317
      vertex 18.1514 -18.129 9.5501
    endloop
  endfacet
  facet normal 0 -1 0
    outer loop
      vertex 18.0742 -18.129 9.57317
      vertex 17.9641 -18.129 9.32884
      vertex 18.1514 -18.129 9.5501
    endloop
  endfacet
  facet normal -0.430883 0 0.902408
    outer loop
      vertex 18.0742 -18.129 9.57317
      vertex 18.3441 -18.129 9.70206
      vertex 18.0742 -1.27899 9.57317
    endloop
  endfacet
  facet normal -0.430883 0 0.902408
    outer loop
      vertex 18.3441 -18.129 9.70206
      vertex 18.3441 -1.27899 9.70206
      vertex 18.0742 -1.27899 9.57317
    endloop
  endfacet
  facet normal 0 1 0
    outer loop
      vertex 18.0105 -1.27899 8.77077
      vertex 18.2318 -1.27899 8.58349
      vertex 18.1595 -1.27899 8.54798
    endloop
  endfacet
  facet normal 0 1 0
    outer loop
      vertex 18.2318 -1.27899 8.58349
      vertex 18.447 -1.27899 8.46545
      vertex 18.1595 -1.27899 8.54798
    endloop
  endfacet
  facet normal -0.275887 0 -0.96119
    outer loop
      vertex 18.1595 -1.27899 8.54798
      vertex 18.447 -1.27899 8.46545
      vertex 18.1595 -18.129 8.54798
    endloop
  endfacet
  facet normal -0.275887 0 -0.96119
    outer loop
      vertex 18.447 -1.27899 8.46545
      vertex 18.447 -18.129 8.46545
      vertex 18.1595 -18.129 8.54798
    endloop
  endfacet
  facet normal 0.337989 0 -0.94115
    outer loop
      vertex 18.1514 -1.27899 9.5501
      vertex 18.4242 -1.27899 9.64807
      vertex 18.4242 -16.8165 9.64807
    endloop
  endfacet
  facet normal 0.0684664 0 -0.997653
    outer loop
      vertex 18.4242 -1.27899 9.64807
      vertex 18.4404 -16.8186 9.64918
      vertex 18.4242 -16.8165 9.64807
    endloop
  endfacet
  facet normal 0.388301 0 -0.921533
    outer loop
      vertex 18.1514 -18.129 9.5501
      vertex 18.1514 -1.27899 9.5501
      vertex 18.3643 -16.8628 9.63982
    endloop
  endfacet
  facet normal 0.191535 -0.00303355 -0.981481
    outer loop
      vertex 18.1514 -1.27899 9.5501
      vertex 18.3705 -16.8477 9.64097
      vertex 18.3643 -16.8628 9.63982
    endloop
  endfacet
  facet normal 0 1 0
    outer loop
      vertex 18.0742 -1.27899 9.57317
      vertex 18.3441 -1.27899 9.70206
      vertex 18.4242 -1.27899 9.64807
    endloop
  endfacet
  facet normal 0 1 0
    outer loop
      vertex 18.3441 -1.27899 9.70206
      vertex 18.7095 -1.27899 9.59651
      vertex 18.4242 -1.27899 9.64807
    endloop
  endfacet
  facet normal 0.763339 -0.0829709 -0.640647
    outer loop
      vertex 18.1514 -18.129 9.5501
      vertex 18.3643 -16.8628 9.63982
      vertex 18.3622 -16.879 9.63941
    endloop
  endfacet
  facet normal 0.390064 0 -0.920788
    outer loop
      vertex 18.1514 -18.129 9.5501
      vertex 18.3622 -16.879 9.63941
      vertex 18.3622 -18.129 9.63941
    endloop
  endfacet
  facet normal 0 -1 0
    outer loop
      vertex 18.1514 -18.129 9.5501
      vertex 18.3622 -18.129 9.63941
      vertex 18.3441 -18.129 9.70206
    endloop
  endfacet
  facet normal 0 -1 0
    outer loop
      vertex 18.3622 -18.129 9.63941
      vertex 18.3568 -18.129 9.70455
      vertex 18.3441 -18.129 9.70206
    endloop
  endfacet
  facet normal 0.177867 0 0.984055
    outer loop
      vertex 18.2318 -18.129 8.58349
      vertex 18.5171 -18.129 8.53193
      vertex 18.5171 -1.27899 8.53193
    endloop
  endfacet
  facet normal 0.177867 0 0.984055
    outer loop
      vertex 18.2318 -1.27899 8.58349
      vertex 18.2318 -18.129 8.58349
      vertex 18.5171 -1.27899 8.53193
    endloop
  endfacet
  facet normal 0 -1 0
    outer loop
      vertex 18.1595 -18.129 8.54798
      vertex 18.447 -18.129 8.46545
      vertex 18.5171 -18.129 8.53193
    endloop
  endfacet
  facet normal 0 -1 0
    outer loop
      vertex 18.447 -18.129 8.46545
      vertex 18.7899 -18.129 8.6299
      vertex 18.5171 -18.129 8.53193
    endloop
  endfacet
  facet normal 0 1 0
    outer loop
      vertex 18.2318 -1.27899 8.58349
      vertex 18.5171 -1.27899 8.53193
      vertex 18.447 -1.27899 8.46545
    endloop
  endfacet
  facet normal 0 1 0
    outer loop
      vertex 18.5171 -1.27899 8.53193
      vertex 18.7399 -1.27899 8.52599
      vertex 18.447 -1.27899 8.46545
    endloop
  endfacet
  facet normal -0.192259 0 0.981344
    outer loop
      vertex 18.3441 -18.129 9.70206
      vertex 18.3568 -18.129 9.70455
      vertex 18.3568 -16.879 9.70455
    endloop
  endfacet
  facet normal 0.202401 0 -0.979303
    outer loop
      vertex 18.447 -1.27899 8.46545
      vertex 18.7399 -1.27899 8.52599
      vertex 18.447 -18.129 8.46545
    endloop
  endfacet
  facet normal 0.202401 0 -0.979303
    outer loop
      vertex 18.7399 -1.27899 8.52599
      vertex 18.7399 -18.129 8.52599
      vertex 18.447 -18.129 8.46545
    endloop
  endfacet
  facet normal -0.177871 -0.000737132 -0.984054
    outer loop
      vertex 18.4242 -1.27899 9.64807
      vertex 18.7095 -1.27899 9.59651
      vertex 18.4784 -16.8477 9.64995
    endloop
  endfacet
  facet normal -0.0267395 -0.00303396 -0.999638
    outer loop
      vertex 18.7095 -1.27899 9.59651
      vertex 18.4847 -16.8628 9.64982
      vertex 18.4784 -16.8477 9.64995
    endloop
  endfacet
  facet normal 0.92075 -0.382567 0.0765644
    outer loop
      vertex 18.3643 -16.8628 9.63982
      vertex 18.3705 -16.8477 9.64097
      vertex 18.3651 -16.8477 9.70602
    endloop
  endfacet
  facet normal 0.988039 -0.130497 0.0821587
    outer loop
      vertex 18.3622 -16.879 9.63941
      vertex 18.3643 -16.8628 9.63982
      vertex 18.3589 -16.8628 9.70493
    endloop
  endfacet
  facet normal 0.920751 -0.382564 0.0765636
    outer loop
      vertex 18.3643 -16.8628 9.63982
      vertex 18.3651 -16.8477 9.70602
      vertex 18.3589 -16.8628 9.70493
    endloop
  endfacet
  facet normal -0.13019 -0.99143 -0.0108301
    outer loop
      vertex 18.4242 -16.8165 9.64807
      vertex 18.4404 -16.8186 9.64918
      vertex 18.435 -16.8186 9.71398
    endloop
  endfacet
  facet normal -0.38153 -0.923812 -0.0317384
    outer loop
      vertex 18.4404 -16.8186 9.64918
      vertex 18.4501 -16.8249 9.71466
      vertex 18.435 -16.8186 9.71398
    endloop
  endfacet
  facet normal 0.130326 -0.991412 0.0108379
    outer loop
      vertex 18.4081 -16.8186 9.6465
      vertex 18.4242 -16.8165 9.64807
      vertex 18.4188 -16.8165 9.71285
    endloop
  endfacet
  facet normal -0.130204 -0.991428 -0.0108277
    outer loop
      vertex 18.4242 -16.8165 9.64807
      vertex 18.435 -16.8186 9.71398
      vertex 18.4188 -16.8165 9.71285
    endloop
  endfacet
  facet normal 0.0979373 -0.00455569 -0.995182
    outer loop
      vertex 18.4242 -16.8165 9.64807
      vertex 18.4081 -16.8186 9.6465
      vertex 18.1514 -1.27899 9.5501
    endloop
  endfacet
  facet normal 0.126661 -0.00406109 -0.991938
    outer loop
      vertex 18.4081 -16.8186 9.6465
      vertex 18.3932 -16.8249 9.64461
      vertex 18.1514 -1.27899 9.5501
    endloop
  endfacet
  facet normal 0.162041 -0.00347954 -0.986778
    outer loop
      vertex 18.1514 -1.27899 9.5501
      vertex 18.3932 -16.8249 9.64461
      vertex 18.3705 -16.8477 9.64097
    endloop
  endfacet
  facet normal 0.704643 -0.707138 0.0585942
    outer loop
      vertex 18.3705 -16.8477 9.64097
      vertex 18.3932 -16.8249 9.64461
      vertex 18.3651 -16.8477 9.70602
    endloop
  endfacet
  facet normal 0.704674 -0.707106 0.0586199
    outer loop
      vertex 18.3932 -16.8249 9.64461
      vertex 18.3878 -16.8249 9.70948
      vertex 18.3651 -16.8477 9.70602
    endloop
  endfacet
  facet normal 0.381626 -0.923772 0.0317346
    outer loop
      vertex 18.3932 -16.8249 9.64461
      vertex 18.4081 -16.8186 9.6465
      vertex 18.4027 -16.8186 9.7113
    endloop
  endfacet
  facet normal 0.130328 -0.991412 0.0108376
    outer loop
      vertex 18.4081 -16.8186 9.6465
      vertex 18.4188 -16.8165 9.71285
      vertex 18.4027 -16.8186 9.7113
    endloop
  endfacet
  facet normal 0.381581 -0.92379 0.0317427
    outer loop
      vertex 18.3878 -16.8249 9.70948
      vertex 18.3932 -16.8249 9.64461
      vertex 18.4027 -16.8186 9.7113
    endloop
  endfacet
  facet normal 0.037842 0.000189789 0.999284
    outer loop
      vertex 18.6431 -1.27899 9.69074
      vertex 18.3441 -1.27899 9.70206
      vertex 18.3568 -16.879 9.70455
    endloop
  endfacet
  facet normal -0.192259 0 0.981344
    outer loop
      vertex 18.3441 -1.27899 9.70206
      vertex 18.3441 -18.129 9.70206
      vertex 18.3568 -16.879 9.70455
    endloop
  endfacet
  facet normal 0 1 0
    outer loop
      vertex 18.3441 -1.27899 9.70206
      vertex 18.6431 -1.27899 9.69074
      vertex 18.7095 -1.27899 9.59651
    endloop
  endfacet
  facet normal 0 1 0
    outer loop
      vertex 18.6431 -1.27899 9.69074
      vertex 18.9025 -1.27899 9.5418
      vertex 18.7095 -1.27899 9.59651
    endloop
  endfacet
  facet normal 0 1 0
    outer loop
      vertex 18.7095 -1.27899 9.59651
      vertex 18.9025 -1.27899 9.5418
      vertex 18.9307 -1.27899 9.40923
    endloop
  endfacet
  facet normal 0 1 0
    outer loop
      vertex 18.9025 -1.27899 9.5418
      vertex 19.063 -1.27899 9.28935
      vertex 18.9307 -1.27899 9.40923
    endloop
  endfacet
  facet normal 0 1 0
    outer loop
      vertex 18.9307 -1.27899 9.40923
      vertex 19.063 -1.27899 9.28935
      vertex 19.0287 -1.27899 9.13641
    endloop
  endfacet
  facet normal 0 1 0
    outer loop
      vertex 19.063 -1.27899 9.28935
      vertex 19.0935 -1.27899 9.1418
      vertex 19.0287 -1.27899 9.13641
    endloop
  endfacet
  facet normal 0 1 0
    outer loop
      vertex 19.0287 -1.27899 9.13641
      vertex 19.0935 -1.27899 9.1418
      vertex 18.9772 -1.27899 8.85116
    endloop
  endfacet
  facet normal 0 1 0
    outer loop
      vertex 19.0935 -1.27899 9.1418
      vertex 19.0878 -1.27899 8.99124
      vertex 18.9772 -1.27899 8.85116
    endloop
  endfacet
  facet normal 0 1 0
    outer loop
      vertex 18.9772 -1.27899 8.85116
      vertex 19.0878 -1.27899 8.99124
      vertex 18.9712 -1.27899 8.71575
    endloop
  endfacet
  facet normal 0.996561 0 0.0828662
    outer loop
      vertex 18.3622 -18.129 9.63941
      vertex 18.3622 -16.879 9.63941
      vertex 18.3568 -16.879 9.70455
    endloop
  endfacet
  facet normal 0.988039 -0.130492 0.0821577
    outer loop
      vertex 18.3622 -16.879 9.63941
      vertex 18.3589 -16.8628 9.70493
      vertex 18.3568 -16.879 9.70455
    endloop
  endfacet
  facet normal 0.996561 0 0.0828662
    outer loop
      vertex 18.3568 -18.129 9.70455
      vertex 18.3622 -18.129 9.63941
      vertex 18.3568 -16.879 9.70455
    endloop
  endfacet
  facet normal -0.337991 0 0.941149
    outer loop
      vertex 18.5171 -18.129 8.53193
      vertex 18.7899 -18.129 8.6299
      vertex 18.7899 -1.27899 8.6299
    endloop
  endfacet
  facet normal -0.337991 0 0.941149
    outer loop
      vertex 18.5171 -1.27899 8.53193
      vertex 18.5171 -18.129 8.53193
      vertex 18.7899 -1.27899 8.6299
    endloop
  endfacet
  facet normal 0 1 0
    outer loop
      vertex 18.5171 -1.27899 8.53193
      vertex 18.7899 -1.27899 8.6299
      vertex 18.7399 -1.27899 8.52599
    endloop
  endfacet
  facet normal 0 1 0
    outer loop
      vertex 18.7899 -1.27899 8.6299
      vertex 18.9712 -1.27899 8.71575
      vertex 18.7399 -1.27899 8.52599
    endloop
  endfacet
  facet normal 0 -1 0
    outer loop
      vertex 18.447 -18.129 8.46545
      vertex 18.7399 -18.129 8.52599
      vertex 18.7899 -18.129 8.6299
    endloop
  endfacet
  facet normal 0 -1 0
    outer loop
      vertex 18.7399 -18.129 8.52599
      vertex 18.9712 -18.129 8.71575
      vertex 18.7899 -18.129 8.6299
    endloop
  endfacet
  facet normal 0 -1 0
    outer loop
      vertex 18.7899 -18.129 8.6299
      vertex 18.9712 -18.129 8.71575
      vertex 18.9772 -18.129 8.85116
    endloop
  endfacet
  facet normal 0 -1 0
    outer loop
      vertex 18.9712 -18.129 8.71575
      vertex 19.0878 -18.129 8.99124
      vertex 18.9772 -18.129 8.85116
    endloop
  endfacet
  facet normal 0 -1 0
    outer loop
      vertex 18.9772 -18.129 8.85116
      vertex 19.0878 -18.129 8.99124
      vertex 19.0287 -18.129 9.13641
    endloop
  endfacet
  facet normal 0 -1 0
    outer loop
      vertex 19.0878 -18.129 8.99124
      vertex 19.063 -18.129 9.28935
      vertex 19.0287 -18.129 9.13641
    endloop
  endfacet
  facet normal 0 -1 0
    outer loop
      vertex 19.0287 -18.129 9.13641
      vertex 19.063 -18.129 9.28935
      vertex 18.9307 -18.129 9.40923
    endloop
  endfacet
  facet normal 0 -1 0
    outer loop
      vertex 19.063 -18.129 9.28935
      vertex 18.9025 -18.129 9.5418
      vertex 18.9307 -18.129 9.40923
    endloop
  endfacet
  facet normal 0 -1 0
    outer loop
      vertex 18.9307 -18.129 9.40923
      vertex 18.9025 -18.129 9.5418
      vertex 18.7095 -18.129 9.59651
    endloop
  endfacet
  facet normal 0 -1 0
    outer loop
      vertex 18.9025 -18.129 9.5418
      vertex 18.6431 -18.129 9.69074
      vertex 18.7095 -18.129 9.59651
    endloop
  endfacet
  facet normal 0 -1 0
    outer loop
      vertex 18.7095 -18.129 9.59651
      vertex 18.6431 -18.129 9.69074
      vertex 18.4868 -18.129 9.64977
    endloop
  endfacet
  facet normal 0 -1 0
    outer loop
      vertex 18.6431 -18.129 9.69074
      vertex 18.4814 -18.129 9.71491
      vertex 18.4868 -18.129 9.64977
    endloop
  endfacet
  facet normal -0.216622 0.00483877 0.976244
    outer loop
      vertex 18.3568 -16.879 9.70455
      vertex 18.3589 -16.8628 9.70493
      vertex 18.6431 -1.27899 9.69074
    endloop
  endfacet
  facet normal -0.18378 0.00424605 0.982958
    outer loop
      vertex 18.3589 -16.8628 9.70493
      vertex 18.3651 -16.8477 9.70602
      vertex 18.6431 -1.27899 9.69074
    endloop
  endfacet
  facet normal -0.154437 0.00372707 0.987996
    outer loop
      vertex 18.6431 -1.27899 9.69074
      vertex 18.3651 -16.8477 9.70602
      vertex 18.3878 -16.8249 9.70948
    endloop
  endfacet
  facet normal 0.634324 0 -0.773068
    outer loop
      vertex 18.7399 -1.27899 8.52599
      vertex 18.9712 -1.27899 8.71575
      vertex 18.7399 -18.129 8.52599
    endloop
  endfacet
  facet normal 0.634324 0 -0.773068
    outer loop
      vertex 18.9712 -1.27899 8.71575
      vertex 18.9712 -18.129 8.71575
      vertex 18.7399 -18.129 8.52599
    endloop
  endfacet
  facet normal 0.0405702 -2.9099e-5 -0.999177
    outer loop
      vertex 18.4554 -16.8249 9.64979
      vertex 18.4404 -16.8186 9.64918
      vertex 18.4242 -1.27899 9.64807
    endloop
  endfacet
  facet normal -0.38157 -0.923795 -0.0317308
    outer loop
      vertex 18.4404 -16.8186 9.64918
      vertex 18.4554 -16.8249 9.64979
      vertex 18.4501 -16.8249 9.71466
    endloop
  endfacet
  facet normal -0.646066 0 -0.763282
    outer loop
      vertex 18.7095 -1.27899 9.59651
      vertex 18.9307 -1.27899 9.40923
      vertex 18.9307 -18.129 9.40923
    endloop
  endfacet
  facet normal -0.646066 0 -0.763282
    outer loop
      vertex 18.7095 -18.129 9.59651
      vertex 18.7095 -1.27899 9.59651
      vertex 18.9307 -18.129 9.40923
    endloop
  endfacet
  facet normal -0.232592 0 -0.972574
    outer loop
      vertex 18.7095 -1.27899 9.59651
      vertex 18.7095 -18.129 9.59651
      vertex 18.4868 -16.879 9.64977
    endloop
  endfacet
  facet normal -0.232592 0 -0.972574
    outer loop
      vertex 18.7095 -18.129 9.59651
      vertex 18.4868 -18.129 9.64977
      vertex 18.4868 -16.879 9.64977
    endloop
  endfacet
  facet normal 0.00655959 -9.74769e-5 -0.999978
    outer loop
      vertex 18.4784 -16.8477 9.64995
      vertex 18.4554 -16.8249 9.64979
      vertex 18.4242 -1.27899 9.64807
    endloop
  endfacet
  facet normal -0.704662 -0.707119 -0.0585988
    outer loop
      vertex 18.4554 -16.8249 9.64979
      vertex 18.4784 -16.8477 9.64995
      vertex 18.4501 -16.8249 9.71466
    endloop
  endfacet
  facet normal -0.704686 -0.707094 -0.0586179
    outer loop
      vertex 18.4784 -16.8477 9.64995
      vertex 18.473 -16.8477 9.715
      vertex 18.4501 -16.8249 9.71466
    endloop
  endfacet
  facet normal -0.920588 -0.382957 -0.076562
    outer loop
      vertex 18.4784 -16.8477 9.64995
      vertex 18.4847 -16.8628 9.64982
      vertex 18.4792 -16.8628 9.71494
    endloop
  endfacet
  facet normal -0.988017 -0.130662 -0.0821618
    outer loop
      vertex 18.4847 -16.8628 9.64982
      vertex 18.4814 -16.879 9.71491
      vertex 18.4792 -16.8628 9.71494
    endloop
  endfacet
  facet normal -0.920564 -0.383013 -0.0765752
    outer loop
      vertex 18.473 -16.8477 9.715
      vertex 18.4784 -16.8477 9.64995
      vertex 18.4792 -16.8628 9.71494
    endloop
  endfacet
  facet normal -0.0695951 0.00242366 0.997572
    outer loop
      vertex 18.4188 -16.8165 9.71285
      vertex 18.435 -16.8186 9.71398
      vertex 18.6431 -1.27899 9.69074
    endloop
  endfacet
  facet normal -0.0441693 0.00208536 0.999022
    outer loop
      vertex 18.435 -16.8186 9.71398
      vertex 18.4501 -16.8249 9.71466
      vertex 18.6431 -1.27899 9.69074
    endloop
  endfacet
  facet normal -0.0129271 0.00169882 0.999915
    outer loop
      vertex 18.6431 -1.27899 9.69074
      vertex 18.4501 -16.8249 9.71466
      vertex 18.473 -16.8477 9.715
    endloop
  endfacet
  facet normal -0.096159 0.00280387 0.995362
    outer loop
      vertex 18.4027 -16.8186 9.7113
      vertex 18.4188 -16.8165 9.71285
      vertex 18.6431 -1.27899 9.69074
    endloop
  endfacet
  facet normal -0.121986 0.00319959 0.992527
    outer loop
      vertex 18.3878 -16.8249 9.70948
      vertex 18.4027 -16.8186 9.7113
      vertex 18.6431 -1.27899 9.69074
    endloop
  endfacet
  facet normal 0.147808 0 0.989016
    outer loop
      vertex 18.6431 -18.129 9.69074
      vertex 18.6431 -1.27899 9.69074
      vertex 18.4814 -16.879 9.71491
    endloop
  endfacet
  facet normal 0.0249293 0.00129012 0.999688
    outer loop
      vertex 18.6431 -1.27899 9.69074
      vertex 18.4792 -16.8628 9.71494
      vertex 18.4814 -16.879 9.71491
    endloop
  endfacet
  facet normal 0.4979 0 0.867234
    outer loop
      vertex 18.6431 -1.27899 9.69074
      vertex 18.6431 -18.129 9.69074
      vertex 18.9025 -18.129 9.5418
    endloop
  endfacet
  facet normal 0.4979 0 0.867234
    outer loop
      vertex 18.9025 -1.27899 9.5418
      vertex 18.6431 -1.27899 9.69074
      vertex 18.9025 -18.129 9.5418
    endloop
  endfacet
  facet normal -0.763279 0 0.646069
    outer loop
      vertex 18.7899 -1.27899 8.6299
      vertex 18.7899 -18.129 8.6299
      vertex 18.9772 -1.27899 8.85116
    endloop
  endfacet
  facet normal -0.763279 0 0.646069
    outer loop
      vertex 18.7899 -18.129 8.6299
      vertex 18.9772 -18.129 8.85116
      vertex 18.9772 -1.27899 8.85116
    endloop
  endfacet
  facet normal 0 1 0
    outer loop
      vertex 18.7899 -1.27899 8.6299
      vertex 18.9772 -1.27899 8.85116
      vertex 18.9712 -1.27899 8.71575
    endloop
  endfacet
  facet normal -0.0474371 -0.00273273 -0.99887
    outer loop
      vertex 18.4868 -16.879 9.64977
      vertex 18.4847 -16.8628 9.64982
      vertex 18.7095 -1.27899 9.59651
    endloop
  endfacet
  facet normal -0.988004 -0.130745 -0.0821818
    outer loop
      vertex 18.4847 -16.8628 9.64982
      vertex 18.4868 -16.879 9.64977
      vertex 18.4814 -16.879 9.71491
    endloop
  endfacet
  facet normal -0.996558 0 -0.0828934
    outer loop
      vertex 18.4868 -16.879 9.64977
      vertex 18.4814 -18.129 9.71491
      vertex 18.4814 -16.879 9.71491
    endloop
  endfacet
  facet normal 0.843892 0 0.536513
    outer loop
      vertex 18.9025 -1.27899 9.5418
      vertex 18.9025 -18.129 9.5418
      vertex 19.063 -18.129 9.28935
    endloop
  endfacet
  facet normal 0.843892 0 0.536513
    outer loop
      vertex 19.063 -1.27899 9.28935
      vertex 18.9025 -1.27899 9.5418
      vertex 19.063 -18.129 9.28935
    endloop
  endfacet
  facet normal -0.996558 0 -0.0828934
    outer loop
      vertex 18.4868 -16.879 9.64977
      vertex 18.4868 -18.129 9.64977
      vertex 18.4814 -18.129 9.71491
    endloop
  endfacet
  facet normal -0.941151 0 -0.337987
    outer loop
      vertex 18.9307 -1.27899 9.40923
      vertex 19.0287 -1.27899 9.13641
      vertex 19.0287 -18.129 9.13641
    endloop
  endfacet
  facet normal -0.941151 0 -0.337987
    outer loop
      vertex 18.9307 -18.129 9.40923
      vertex 18.9307 -1.27899 9.40923
      vertex 19.0287 -18.129 9.13641
    endloop
  endfacet
  facet normal 0.0121923 0.00142439 0.999925
    outer loop
      vertex 18.473 -16.8477 9.715
      vertex 18.4792 -16.8628 9.71494
      vertex 18.6431 -1.27899 9.69074
    endloop
  endfacet
  facet normal 0.147808 0 0.989016
    outer loop
      vertex 18.4814 -16.879 9.71491
      vertex 18.4814 -18.129 9.71491
      vertex 18.6431 -18.129 9.69074
    endloop
  endfacet
  facet normal 0.920927 0 -0.389734
    outer loop
      vertex 18.9712 -1.27899 8.71575
      vertex 19.0878 -1.27899 8.99124
      vertex 18.9712 -18.129 8.71575
    endloop
  endfacet
  facet normal 0.920927 0 -0.389734
    outer loop
      vertex 19.0878 -1.27899 8.99124
      vertex 19.0878 -18.129 8.99124
      vertex 18.9712 -18.129 8.71575
    endloop
  endfacet
  facet normal -0.984054 0 0.177869
    outer loop
      vertex 18.9772 -1.27899 8.85116
      vertex 18.9772 -18.129 8.85116
      vertex 19.0287 -1.27899 9.13641
    endloop
  endfacet
  facet normal -0.984054 0 0.177869
    outer loop
      vertex 18.9772 -18.129 8.85116
      vertex 19.0287 -18.129 9.13641
      vertex 19.0287 -1.27899 9.13641
    endloop
  endfacet
  facet normal 0.979301 0 0.202409
    outer loop
      vertex 19.063 -1.27899 9.28935
      vertex 19.063 -18.129 9.28935
      vertex 19.0935 -1.27899 9.1418
    endloop
  endfacet
  facet normal 0.996559 -0.00107791 0.0828818
    outer loop
      vertex 19.063 -18.129 9.28935
      vertex 19.0878 -18.129 8.99124
      vertex 19.0935 -1.27899 9.1418
    endloop
  endfacet
  facet normal 0.999283 0 -0.0378534
    outer loop
      vertex 19.0935 -1.27899 9.1418
      vertex 19.0878 -18.129 8.99124
      vertex 19.0878 -1.27899 8.99124
    endloop
  endfacet
endsolid Onshape
