solid Onshape
  facet normal 0 0 1
    outer loop
      vertex 18.9591 -21.62 13.915
      vertex 18.9526 -21.596 13.915
      vertex 18.8809 -22.0925 13.915
    endloop
  endfacet
  facet normal 0 0 1
    outer loop
      vertex 18.9526 -21.596 13.915
      vertex 18.8809 -20.5262 13.915
      vertex 18.8809 -22.0925 13.915
    endloop
  endfacet
  facet normal 0 0 1
    outer loop
      vertex 18.8809 -22.0925 13.915
      vertex 18.8809 -20.5262 13.915
      vertex 18.832 -21.8159 13.915
    endloop
  endfacet
  facet normal 0 0 1
    outer loop
      vertex 18.8809 -20.5262 13.915
      vertex 18.7566 -21.6733 13.915
      vertex 18.832 -21.8159 13.915
    endloop
  endfacet
  facet normal 0 0 1
    outer loop
      vertex 18.9526 -21.596 13.915
      vertex 18.9591 -21.572 13.915
      vertex 18.8809 -20.5262 13.915
    endloop
  endfacet
  facet normal 0 0 1
    outer loop
      vertex 18.9591 -21.572 13.915
      vertex 18.9766 -21.5544 13.915
      vertex 18.8809 -20.5262 13.915
    endloop
  endfacet
  facet normal 0 0 1
    outer loop
      vertex 18.8809 -20.5262 13.915
      vertex 18.9766 -21.5544 13.915
      vertex 19.0956 -20.5262 13.915
    endloop
  endfacet
  facet normal 0 0 1
    outer loop
      vertex 18.9766 -21.5544 13.915
      vertex 19.0006 -21.548 13.915
      vertex 19.0956 -20.5262 13.915
    endloop
  endfacet
  facet normal 0 0 1
    outer loop
      vertex 19.0956 -20.5262 13.915
      vertex 19.0006 -21.548 13.915
      vertex 19.0246 -21.5544 13.915
    endloop
  endfacet
  facet normal 0 0 1
    outer loop
      vertex 19.0246 -21.5544 13.915
      vertex 19.0422 -21.572 13.915
      vertex 19.0956 -20.5262 13.915
    endloop
  endfacet
  facet normal 0 0 1
    outer loop
      vertex 19.0422 -21.572 13.915
      vertex 19.0486 -21.596 13.915
      vertex 19.0956 -20.5262 13.915
    endloop
  endfacet
  facet normal 0 0 1
    outer loop
      vertex 19.0956 -20.5262 13.915
      vertex 19.0486 -21.596 13.915
      vertex 19.0956 -22.0925 13.915
    endloop
  endfacet
  facet normal 0 0 1
    outer loop
      vertex 19.0486 -21.596 13.915
      vertex 19.0422 -21.62 13.915
      vertex 19.0956 -22.0925 13.915
    endloop
  endfacet
  facet normal 0 0 1
    outer loop
      vertex 19.0956 -22.0925 13.915
      vertex 19.0422 -21.62 13.915
      vertex 19.0246 -21.6376 13.915
    endloop
  endfacet
  facet normal 0 0 1
    outer loop
      vertex 19.0246 -21.6376 13.915
      vertex 19.0006 -21.644 13.915
      vertex 19.0956 -22.0925 13.915
    endloop
  endfacet
  facet normal 0 0 1
    outer loop
      vertex 19.0006 -21.644 13.915
      vertex 18.8809 -22.0925 13.915
      vertex 19.0956 -22.0925 13.915
    endloop
  endfacet
  facet normal 0 0 1
    outer loop
      vertex 19.0956 -22.0925 13.915
      vertex 18.8809 -22.0925 13.915
      vertex 19.0956 -22.201 13.915
    endloop
  endfacet
  facet normal 0 0 1
    outer loop
      vertex 18.8809 -22.0925 13.915
      vertex 18.9956 -22.301 13.915
      vertex 19.0956 -22.201 13.915
    endloop
  endfacet
  facet normal 0 0 1
    outer loop
      vertex 19.0006 -21.644 13.915
      vertex 18.9766 -21.6376 13.915
      vertex 18.8809 -22.0925 13.915
    endloop
  endfacet
  facet normal 0 0 1
    outer loop
      vertex 18.9766 -21.6376 13.915
      vertex 18.9591 -21.62 13.915
      vertex 18.8809 -22.0925 13.915
    endloop
  endfacet
  facet normal 0 0 -1
    outer loop
      vertex 18.9526 -21.596 13.7275
      vertex 18.9591 -21.62 13.7275
      vertex 18.8809 -22.0925 13.7275
    endloop
  endfacet
  facet normal 0 0 -1
    outer loop
      vertex 18.9591 -21.62 13.7275
      vertex 18.9766 -21.6376 13.7275
      vertex 18.8809 -22.0925 13.7275
    endloop
  endfacet
  facet normal 0 0 -1
    outer loop
      vertex 18.8809 -22.0925 13.7275
      vertex 18.9766 -21.6376 13.7275
      vertex 19.0956 -22.0925 13.7275
    endloop
  endfacet
  facet normal 0 0 -1
    outer loop
      vertex 18.9766 -21.6376 13.7275
      vertex 19.0006 -21.644 13.7275
      vertex 19.0956 -22.0925 13.7275
    endloop
  endfacet
  facet normal 0 0 -1
    outer loop
      vertex 19.0956 -22.0925 13.7275
      vertex 19.0006 -21.644 13.7275
      vertex 19.0246 -21.6376 13.7275
    endloop
  endfacet
  facet normal 0 0 -1
    outer loop
      vertex 19.0246 -21.6376 13.7275
      vertex 19.0422 -21.62 13.7275
      vertex 19.0956 -22.0925 13.7275
    endloop
  endfacet
  facet normal 0 0 -1
    outer loop
      vertex 19.0422 -21.62 13.7275
      vertex 19.0486 -21.596 13.7275
      vertex 19.0956 -22.0925 13.7275
    endloop
  endfacet
  facet normal 0 0 -1
    outer loop
      vertex 19.0956 -22.0925 13.7275
      vertex 19.0486 -21.596 13.7275
      vertex 19.0956 -20.5262 13.7275
    endloop
  endfacet
  facet normal 0 0 -1
    outer loop
      vertex 19.0486 -21.596 13.7275
      vertex 19.0422 -21.572 13.7275
      vertex 19.0956 -20.5262 13.7275
    endloop
  endfacet
  facet normal 0 0 -1
    outer loop
      vertex 19.0956 -20.5262 13.7275
      vertex 19.0422 -21.572 13.7275
      vertex 19.0246 -21.5544 13.7275
    endloop
  endfacet
  facet normal 0 0 -1
    outer loop
      vertex 19.0246 -21.5544 13.7275
      vertex 19.0006 -21.548 13.7275
      vertex 19.0956 -20.5262 13.7275
    endloop
  endfacet
  facet normal 0 0 -1
    outer loop
      vertex 19.0006 -21.548 13.7275
      vertex 18.8809 -20.5262 13.7275
      vertex 19.0956 -20.5262 13.7275
    endloop
  endfacet
  facet normal 0 0 -1
    outer loop
      vertex 19.0956 -20.5262 13.7275
      vertex 18.8809 -20.5262 13.7275
      vertex 18.8809 -19.166 13.7275
    endloop
  endfacet
  facet normal 0 0 -1
    outer loop
      vertex 18.8809 -20.5262 13.7275
      vertex 18.8091 -19.416 13.7275
      vertex 18.8809 -19.166 13.7275
    endloop
  endfacet
  facet normal 0 0 -1
    outer loop
      vertex 18.8809 -19.166 13.7275
      vertex 18.8091 -19.416 13.7275
      vertex 18.7973 -19.3717 13.7275
    endloop
  endfacet
  facet normal 0 0 -1
    outer loop
      vertex 19.0006 -21.548 13.7275
      vertex 18.9766 -21.5544 13.7275
      vertex 18.8809 -20.5262 13.7275
    endloop
  endfacet
  facet normal 0 0 -1
    outer loop
      vertex 18.9766 -21.5544 13.7275
      vertex 18.9591 -21.572 13.7275
      vertex 18.8809 -20.5262 13.7275
    endloop
  endfacet
  facet normal 0 0 -1
    outer loop
      vertex 18.8809 -20.5262 13.7275
      vertex 18.9591 -21.572 13.7275
      vertex 18.9526 -21.596 13.7275
    endloop
  endfacet
  facet normal 0 0 1
    outer loop
      vertex 17.9822 -21.62 13.915
      vertex 17.9646 -21.6376 13.915
      vertex 18.0604 -22.0925 13.915
    endloop
  endfacet
  facet normal 0 0 1
    outer loop
      vertex 17.9646 -21.6376 13.915
      vertex 17.8691 -22.0925 13.915
      vertex 18.0604 -22.0925 13.915
    endloop
  endfacet
  facet normal 0 0 1
    outer loop
      vertex 18.0604 -22.0925 13.915
      vertex 17.8691 -22.0925 13.915
      vertex 18.0604 -22.541 13.915
    endloop
  endfacet
  facet normal 0 0 1
    outer loop
      vertex 17.8691 -22.0925 13.915
      vertex 17.8691 -22.541 13.915
      vertex 18.0604 -22.541 13.915
    endloop
  endfacet
  facet normal 0 0 1
    outer loop
      vertex 17.9646 -21.6376 13.915
      vertex 17.9406 -21.644 13.915
      vertex 17.8691 -22.0925 13.915
    endloop
  endfacet
  facet normal 0 0 1
    outer loop
      vertex 17.9406 -21.644 13.915
      vertex 17.9166 -21.6376 13.915
      vertex 17.8691 -22.0925 13.915
    endloop
  endfacet
  facet normal 0 0 1
    outer loop
      vertex 17.8691 -22.0925 13.915
      vertex 17.9166 -21.6376 13.915
      vertex 17.8991 -21.62 13.915
    endloop
  endfacet
  facet normal 0 0 1
    outer loop
      vertex 17.8991 -21.62 13.915
      vertex 17.8926 -21.596 13.915
      vertex 17.8691 -22.0925 13.915
    endloop
  endfacet
  facet normal 0 0 1
    outer loop
      vertex 17.8926 -21.596 13.915
      vertex 17.8691 -20.5262 13.915
      vertex 17.8691 -22.0925 13.915
    endloop
  endfacet
  facet normal 0 0 1
    outer loop
      vertex 17.8691 -22.0925 13.915
      vertex 17.8691 -20.5262 13.915
      vertex 17.8456 -20.5262 13.915
    endloop
  endfacet
  facet normal 0 0 1
    outer loop
      vertex 17.8691 -20.5262 13.915
      vertex 17.8456 -19.166 13.915
      vertex 17.8456 -20.5262 13.915
    endloop
  endfacet
  facet normal 0 0 1
    outer loop
      vertex 17.8926 -21.596 13.915
      vertex 17.8991 -21.572 13.915
      vertex 17.8691 -20.5262 13.915
    endloop
  endfacet
  facet normal 0 0 1
    outer loop
      vertex 17.8991 -21.572 13.915
      vertex 17.9166 -21.5544 13.915
      vertex 17.8691 -20.5262 13.915
    endloop
  endfacet
  facet normal 0 0 1
    outer loop
      vertex 17.8691 -20.5262 13.915
      vertex 17.9166 -21.5544 13.915
      vertex 17.9406 -21.548 13.915
    endloop
  endfacet
  facet normal 0 0 1
    outer loop
      vertex 17.9406 -21.548 13.915
      vertex 17.9646 -21.5544 13.915
      vertex 18.0604 -20.5262 13.915
    endloop
  endfacet
  facet normal 0 0 1
    outer loop
      vertex 17.9646 -21.5544 13.915
      vertex 17.9822 -21.572 13.915
      vertex 18.0604 -20.5262 13.915
    endloop
  endfacet
  facet normal 0 0 1
    outer loop
      vertex 18.0604 -20.5262 13.915
      vertex 17.9822 -21.572 13.915
      vertex 17.9886 -21.596 13.915
    endloop
  endfacet
  facet normal 0 0 1
    outer loop
      vertex 17.9886 -21.596 13.915
      vertex 17.9822 -21.62 13.915
      vertex 18.0604 -22.0925 13.915
    endloop
  endfacet
  facet normal 0 0 -1
    outer loop
      vertex 17.8991 -21.572 13.7275
      vertex 17.8926 -21.596 13.7275
      vertex 17.8691 -20.5262 13.7275
    endloop
  endfacet
  facet normal 0 0 -1
    outer loop
      vertex 17.8926 -21.596 13.7275
      vertex 17.8691 -22.0925 13.7275
      vertex 17.8691 -20.5262 13.7275
    endloop
  endfacet
  facet normal 0 0 -1
    outer loop
      vertex 17.8691 -20.5262 13.7275
      vertex 17.8691 -22.0925 13.7275
      vertex 17.8456 -20.5262 13.7275
    endloop
  endfacet
  facet normal 0 0 -1
    outer loop
      vertex 17.8691 -22.0925 13.7275
      vertex 17.8456 -22.0925 13.7275
      vertex 17.8456 -20.5262 13.7275
    endloop
  endfacet
  facet normal 0 0 -1
    outer loop
      vertex 17.8926 -21.596 13.7275
      vertex 17.8991 -21.62 13.7275
      vertex 17.8691 -22.0925 13.7275
    endloop
  endfacet
  facet normal 0 0 -1
    outer loop
      vertex 17.8991 -21.62 13.7275
      vertex 17.9166 -21.6376 13.7275
      vertex 17.8691 -22.0925 13.7275
    endloop
  endfacet
  facet normal 0 0 -1
    outer loop
      vertex 17.8691 -22.0925 13.7275
      vertex 17.9166 -21.6376 13.7275
      vertex 17.9406 -21.644 13.7275
    endloop
  endfacet
  facet normal 0 0 -1
    outer loop
      vertex 17.9406 -21.644 13.7275
      vertex 17.9646 -21.6376 13.7275
      vertex 18.0604 -22.0925 13.7275
    endloop
  endfacet
  facet normal 0 0 -1
    outer loop
      vertex 17.9646 -21.6376 13.7275
      vertex 17.9822 -21.62 13.7275
      vertex 18.0604 -22.0925 13.7275
    endloop
  endfacet
  facet normal 0 0 -1
    outer loop
      vertex 18.0604 -22.0925 13.7275
      vertex 17.9822 -21.62 13.7275
      vertex 17.9886 -21.596 13.7275
    endloop
  endfacet
  facet normal 0 0 -1
    outer loop
      vertex 17.9886 -21.596 13.7275
      vertex 17.9822 -21.572 13.7275
      vertex 18.0604 -20.5262 13.7275
    endloop
  endfacet
  facet normal 0 0 -1
    outer loop
      vertex 17.9822 -21.572 13.7275
      vertex 17.9646 -21.5544 13.7275
      vertex 18.0604 -20.5262 13.7275
    endloop
  endfacet
  facet normal 0 0 -1
    outer loop
      vertex 18.0604 -20.5262 13.7275
      vertex 17.9646 -21.5544 13.7275
      vertex 17.8691 -20.5262 13.7275
    endloop
  endfacet
  facet normal 0 0 -1
    outer loop
      vertex 17.9646 -21.5544 13.7275
      vertex 17.9406 -21.548 13.7275
      vertex 17.8691 -20.5262 13.7275
    endloop
  endfacet
  facet normal 0 0 -1
    outer loop
      vertex 17.8691 -20.5262 13.7275
      vertex 17.9406 -21.548 13.7275
      vertex 17.9166 -21.5544 13.7275
    endloop
  endfacet
  facet normal 0 0 -1
    outer loop
      vertex 17.9166 -21.5544 13.7275
      vertex 17.8991 -21.572 13.7275
      vertex 17.8691 -20.5262 13.7275
    endloop
  endfacet
  facet normal 0 0 -1
    outer loop
      vertex 18.6282 -21.5757 13.7275
      vertex 18.4706 -21.541 13.7275
      vertex 18.4706 -20.5262 13.7275
    endloop
  endfacet
  facet normal 0 0 -1
    outer loop
      vertex 18.4706 -21.541 13.7275
      vertex 18.0604 -20.5262 13.7275
      vertex 18.4706 -20.5262 13.7275
    endloop
  endfacet
  facet normal 0 0 -1
    outer loop
      vertex 18.4706 -20.5262 13.7275
      vertex 18.0604 -20.5262 13.7275
      vertex 18.2206 -19.5045 13.7275
    endloop
  endfacet
  facet normal 0 0 -1
    outer loop
      vertex 18.0604 -20.5262 13.7275
      vertex 18.1764 -19.4926 13.7275
      vertex 18.2206 -19.5045 13.7275
    endloop
  endfacet
  facet normal -0.215081 -0.976596 0
    outer loop
      vertex 18.4706 -21.541 13.7275
      vertex 18.6282 -21.5757 13.7275
      vertex 18.6282 -21.5757 13.915
    endloop
  endfacet
  facet normal -0.215081 -0.976596 0
    outer loop
      vertex 18.4706 -21.541 13.915
      vertex 18.4706 -21.541 13.7275
      vertex 18.6282 -21.5757 13.915
    endloop
  endfacet
  facet normal 0.215079 -0.976597 0
    outer loop
      vertex 18.4706 -21.541 13.7275
      vertex 18.4706 -21.541 13.915
      vertex 18.3131 -21.5757 13.7275
    endloop
  endfacet
  facet normal 0.215079 -0.976597 0
    outer loop
      vertex 18.4706 -21.541 13.915
      vertex 18.3131 -21.5757 13.915
      vertex 18.3131 -21.5757 13.7275
    endloop
  endfacet
  facet normal 0 0 -1
    outer loop
      vertex 18.4706 -21.541 13.7275
      vertex 18.3131 -21.5757 13.7275
      vertex 18.0604 -20.5262 13.7275
    endloop
  endfacet
  facet normal 0 0 -1
    outer loop
      vertex 18.3131 -21.5757 13.7275
      vertex 18.1847 -21.6733 13.7275
      vertex 18.0604 -20.5262 13.7275
    endloop
  endfacet
  facet normal 0 0 -1
    outer loop
      vertex 18.0604 -20.5262 13.7275
      vertex 18.1847 -21.6733 13.7275
      vertex 18.1093 -21.8159 13.7275
    endloop
  endfacet
  facet normal 0.605433 -0.795896 0
    outer loop
      vertex 18.3131 -21.5757 13.7275
      vertex 18.3131 -21.5757 13.915
      vertex 18.1847 -21.6733 13.7275
    endloop
  endfacet
  facet normal 0.605433 -0.795896 0
    outer loop
      vertex 18.3131 -21.5757 13.915
      vertex 18.1847 -21.6733 13.915
      vertex 18.1847 -21.6733 13.7275
    endloop
  endfacet
  facet normal 0 0 1
    outer loop
      vertex 18.4706 -21.541 13.915
      vertex 18.6282 -21.5757 13.915
      vertex 18.8809 -20.5262 13.915
    endloop
  endfacet
  facet normal 0 0 1
    outer loop
      vertex 18.6282 -21.5757 13.915
      vertex 18.7566 -21.6733 13.915
      vertex 18.8809 -20.5262 13.915
    endloop
  endfacet
  facet normal 0 0 1
    outer loop
      vertex 18.3131 -21.5757 13.915
      vertex 18.4706 -21.541 13.915
      vertex 18.4706 -20.5262 13.915
    endloop
  endfacet
  facet normal 0 0 1
    outer loop
      vertex 18.4706 -21.541 13.915
      vertex 18.8809 -20.5262 13.915
      vertex 18.4706 -20.5262 13.915
    endloop
  endfacet
  facet normal 0 0 1
    outer loop
      vertex 18.4706 -20.5262 13.915
      vertex 18.8809 -20.5262 13.915
      vertex 18.7206 -19.5045 13.915
    endloop
  endfacet
  facet normal 0 0 1
    outer loop
      vertex 18.8809 -20.5262 13.915
      vertex 18.7649 -19.4926 13.915
      vertex 18.7206 -19.5045 13.915
    endloop
  endfacet
  facet normal 0 0 -1
    outer loop
      vertex 18.7566 -21.6733 13.7275
      vertex 18.6282 -21.5757 13.7275
      vertex 18.8809 -20.5262 13.7275
    endloop
  endfacet
  facet normal 0 0 -1
    outer loop
      vertex 18.6282 -21.5757 13.7275
      vertex 18.4706 -20.5262 13.7275
      vertex 18.8809 -20.5262 13.7275
    endloop
  endfacet
  facet normal 0 0 -1
    outer loop
      vertex 18.8809 -20.5262 13.7275
      vertex 18.4706 -20.5262 13.7275
      vertex 18.6764 -19.4926 13.7275
    endloop
  endfacet
  facet normal 0 0 -1
    outer loop
      vertex 18.4706 -20.5262 13.7275
      vertex 18.644 -19.4602 13.7275
      vertex 18.6764 -19.4926 13.7275
    endloop
  endfacet
  facet normal -0.605427 -0.795901 0
    outer loop
      vertex 18.6282 -21.5757 13.7275
      vertex 18.7566 -21.6733 13.7275
      vertex 18.7566 -21.6733 13.915
    endloop
  endfacet
  facet normal -0.605427 -0.795901 0
    outer loop
      vertex 18.6282 -21.5757 13.915
      vertex 18.6282 -21.5757 13.7275
      vertex 18.7566 -21.6733 13.915
    endloop
  endfacet
  facet normal 1 0 0
    outer loop
      vertex 19.0956 -22.0925 13.7275
      vertex 19.0956 -20.5262 13.7275
      vertex 19.0956 -20.5262 13.915
    endloop
  endfacet
  facet normal 1 0 0
    outer loop
      vertex 19.0956 -20.5262 13.7275
      vertex 19.0956 -19.166 13.915
      vertex 19.0956 -20.5262 13.915
    endloop
  endfacet
  facet normal 1 0 0
    outer loop
      vertex 19.0956 -22.201 13.7275
      vertex 19.0956 -22.0925 13.7275
      vertex 19.0956 -22.0925 13.915
    endloop
  endfacet
  facet normal 1 0 0
    outer loop
      vertex 19.0956 -22.0925 13.7275
      vertex 19.0956 -20.5262 13.915
      vertex 19.0956 -22.0925 13.915
    endloop
  endfacet
  facet normal 0 0 -1
    outer loop
      vertex 19.0956 -22.0925 13.7275
      vertex 19.0956 -22.201 13.7275
      vertex 18.8809 -22.0925 13.7275
    endloop
  endfacet
  facet normal 0 0 -1
    outer loop
      vertex 19.0956 -22.201 13.7275
      vertex 18.8956 -22.301 13.7275
      vertex 18.8809 -22.0925 13.7275
    endloop
  endfacet
  facet normal 0 0 -1
    outer loop
      vertex 18.8809 -22.0925 13.7275
      vertex 18.8956 -22.301 13.7275
      vertex 18.8809 -22.541 13.7275
    endloop
  endfacet
  facet normal 0 0 -1
    outer loop
      vertex 18.8956 -22.301 13.7275
      vertex 18.8956 -22.541 13.7275
      vertex 18.8809 -22.541 13.7275
    endloop
  endfacet
  facet normal 0 0 1
    outer loop
      vertex 19.0956 -20.5262 13.915
      vertex 19.0956 -19.166 13.915
      vertex 18.8809 -19.166 13.915
    endloop
  endfacet
  facet normal 0 0 1
    outer loop
      vertex 19.0956 -19.166 13.915
      vertex 18.8809 -14.791 13.915
      vertex 18.8809 -19.166 13.915
    endloop
  endfacet
  facet normal 0 0 1
    outer loop
      vertex 18.8809 -19.166 13.915
      vertex 18.8809 -14.791 13.915
      vertex 18.8091 -18.916 13.915
    endloop
  endfacet
  facet normal 0 0 1
    outer loop
      vertex 18.8809 -14.791 13.915
      vertex 18.7973 -18.8717 13.915
      vertex 18.8091 -18.916 13.915
    endloop
  endfacet
  facet normal 0 0 -1
    outer loop
      vertex 19.0956 -19.166 13.7275
      vertex 19.0956 -20.5262 13.7275
      vertex 18.8809 -19.166 13.7275
    endloop
  endfacet
  facet normal 1 0 0
    outer loop
      vertex 19.0956 -20.5262 13.7275
      vertex 19.0956 -19.166 13.7275
      vertex 19.0956 -19.166 13.915
    endloop
  endfacet
  facet normal 1 0 0
    outer loop
      vertex 19.0956 -19.166 13.7275
      vertex 19.0956 -14.791 13.915
      vertex 19.0956 -19.166 13.915
    endloop
  endfacet
  facet normal 1 0 0
    outer loop
      vertex 19.0956 -22.0925 13.915
      vertex 19.0956 -22.201 13.915
      vertex 19.0956 -22.201 13.7275
    endloop
  endfacet
  facet normal -1 0 0
    outer loop
      vertex 17.8456 -20.5262 13.7275
      vertex 17.8456 -22.0925 13.7275
      vertex 17.8456 -22.3517 13.8212
    endloop
  endfacet
  facet normal -1 0 0
    outer loop
      vertex 17.8456 -22.0925 13.7275
      vertex 17.8456 -22.3603 13.7891
      vertex 17.8456 -22.3517 13.8212
    endloop
  endfacet
  facet normal -1 0 0
    outer loop
      vertex 17.8456 -19.166 13.7275
      vertex 17.8456 -20.5262 13.7275
      vertex 17.8456 -22.3517 13.8212
    endloop
  endfacet
  facet normal 0 0 -1
    outer loop
      vertex 17.8456 -20.5262 13.7275
      vertex 17.8456 -19.166 13.7275
      vertex 17.8691 -20.5262 13.7275
    endloop
  endfacet
  facet normal 0 0 -1
    outer loop
      vertex 17.8456 -19.166 13.7275
      vertex 17.8691 -19.166 13.7275
      vertex 17.8691 -20.5262 13.7275
    endloop
  endfacet
  facet normal 0 0 -1
    outer loop
      vertex 17.8691 -20.5262 13.7275
      vertex 17.8691 -19.166 13.7275
      vertex 18.0604 -20.5262 13.7275
    endloop
  endfacet
  facet normal 0 0 -1
    outer loop
      vertex 17.8691 -19.166 13.7275
      vertex 18.0604 -19.166 13.7275
      vertex 18.0604 -20.5262 13.7275
    endloop
  endfacet
  facet normal 0 0 -1
    outer loop
      vertex 18.0604 -20.5262 13.7275
      vertex 18.0604 -19.166 13.7275
      vertex 18.1321 -19.416 13.7275
    endloop
  endfacet
  facet normal 0 0 -1
    outer loop
      vertex 18.0604 -19.166 13.7275
      vertex 18.144 -19.3717 13.7275
      vertex 18.1321 -19.416 13.7275
    endloop
  endfacet
  facet normal -1 0 0
    outer loop
      vertex 17.8456 -14.791 13.7275
      vertex 17.8456 -19.166 13.7275
      vertex 17.8456 -22.3517 13.8212
    endloop
  endfacet
  facet normal 0 0 -1
    outer loop
      vertex 17.8456 -19.166 13.7275
      vertex 17.8456 -14.791 13.7275
      vertex 17.8691 -19.166 13.7275
    endloop
  endfacet
  facet normal 0 0 -1
    outer loop
      vertex 17.8456 -14.791 13.7275
      vertex 17.8691 -14.791 13.7275
      vertex 17.8691 -19.166 13.7275
    endloop
  endfacet
  facet normal 0 0 -1
    outer loop
      vertex 17.8691 -19.166 13.7275
      vertex 17.8691 -14.791 13.7275
      vertex 18.0604 -19.166 13.7275
    endloop
  endfacet
  facet normal 0 0 -1
    outer loop
      vertex 17.8691 -14.791 13.7275
      vertex 18.0604 -14.791 13.7275
      vertex 18.0604 -19.166 13.7275
    endloop
  endfacet
  facet normal 0 0 -1
    outer loop
      vertex 18.0604 -19.166 13.7275
      vertex 18.0604 -14.791 13.7275
      vertex 18.1321 -18.916 13.7275
    endloop
  endfacet
  facet normal 0 0 -1
    outer loop
      vertex 18.0604 -14.791 13.7275
      vertex 18.144 -18.8717 13.7275
      vertex 18.1321 -18.916 13.7275
    endloop
  endfacet
  facet normal 0 0 -1
    outer loop
      vertex 18.4306 -22.541 13.7275
      vertex 18.0604 -22.541 13.7275
      vertex 18.2777 -22.2376 13.7275
    endloop
  endfacet
  facet normal 0 0 -1
    outer loop
      vertex 18.0604 -22.541 13.7275
      vertex 18.1605 -22.1268 13.7275
      vertex 18.2777 -22.2376 13.7275
    endloop
  endfacet
  facet normal 0 -1 0
    outer loop
      vertex 18.0604 -22.541 13.7275
      vertex 18.4306 -22.541 13.7275
      vertex 18.4306 -22.541 13.915
    endloop
  endfacet
  facet normal 0 -1 0
    outer loop
      vertex 17.8691 -22.541 13.7275
      vertex 18.0604 -22.541 13.7275
      vertex 18.0604 -22.541 13.915
    endloop
  endfacet
  facet normal 0 -1 0
    outer loop
      vertex 18.0604 -22.541 13.7275
      vertex 18.4306 -22.541 13.915
      vertex 18.0604 -22.541 13.915
    endloop
  endfacet
  facet normal 0 0 -1
    outer loop
      vertex 18.0604 -22.541 13.7275
      vertex 17.8691 -22.541 13.7275
      vertex 17.8691 -22.0925 13.7275
    endloop
  endfacet
  facet normal 0 0 -1
    outer loop
      vertex 17.8691 -22.541 13.7275
      vertex 17.8456 -22.0925 13.7275
      vertex 17.8691 -22.0925 13.7275
    endloop
  endfacet
  facet normal 0 0 -1
    outer loop
      vertex 17.8456 -22.541 13.7275
      vertex 17.8456 -22.0925 13.7275
      vertex 17.8691 -22.541 13.7275
    endloop
  endfacet
  facet normal -1 0 0
    outer loop
      vertex 17.8456 -22.0925 13.7275
      vertex 17.8456 -22.541 13.7275
      vertex 17.8456 -22.416 13.757
    endloop
  endfacet
  facet normal -1 0 0
    outer loop
      vertex 17.8456 -22.541 13.7275
      vertex 17.8456 -22.4481 13.7656
      vertex 17.8456 -22.416 13.757
    endloop
  endfacet
  facet normal 0 -1 0
    outer loop
      vertex 17.8456 -22.541 13.7275
      vertex 17.8691 -22.541 13.7275
      vertex 17.8691 -22.541 13.915
    endloop
  endfacet
  facet normal 0 -1 0
    outer loop
      vertex 17.8691 -22.541 13.7275
      vertex 18.0604 -22.541 13.915
      vertex 17.8691 -22.541 13.915
    endloop
  endfacet
  facet normal -1 0 0
    outer loop
      vertex 17.8456 -20.5262 13.915
      vertex 17.8456 -19.166 13.915
      vertex 17.8456 -22.3517 13.8212
    endloop
  endfacet
  facet normal -1 0 0
    outer loop
      vertex 17.8456 -19.166 13.915
      vertex 17.8456 -14.791 13.7275
      vertex 17.8456 -22.3517 13.8212
    endloop
  endfacet
  facet normal -1 0 0
    outer loop
      vertex 17.8456 -22.0925 13.915
      vertex 17.8456 -20.5262 13.915
      vertex 17.8456 -22.3517 13.8212
    endloop
  endfacet
  facet normal 0 0 1
    outer loop
      vertex 17.8456 -20.5262 13.915
      vertex 17.8456 -22.0925 13.915
      vertex 17.8691 -22.0925 13.915
    endloop
  endfacet
  facet normal 0 0 1
    outer loop
      vertex 17.8456 -22.0925 13.915
      vertex 17.8691 -22.541 13.915
      vertex 17.8691 -22.0925 13.915
    endloop
  endfacet
  facet normal 0 0 1
    outer loop
      vertex 17.8456 -14.791 13.915
      vertex 17.8456 -19.166 13.915
      vertex 17.8691 -19.166 13.915
    endloop
  endfacet
  facet normal 0 0 1
    outer loop
      vertex 17.8456 -19.166 13.915
      vertex 17.8691 -20.5262 13.915
      vertex 17.8691 -19.166 13.915
    endloop
  endfacet
  facet normal 0 0 1
    outer loop
      vertex 17.8691 -19.166 13.915
      vertex 17.8691 -20.5262 13.915
      vertex 18.0604 -20.5262 13.915
    endloop
  endfacet
  facet normal 0 0 1
    outer loop
      vertex 17.8691 -20.5262 13.915
      vertex 17.9406 -21.548 13.915
      vertex 18.0604 -20.5262 13.915
    endloop
  endfacet
  facet normal -1 0 0
    outer loop
      vertex 17.8456 -19.166 13.915
      vertex 17.8456 -14.791 13.915
      vertex 17.8456 -14.791 13.7275
    endloop
  endfacet
  facet normal 0 0 1
    outer loop
      vertex 18.0604 -22.541 13.915
      vertex 18.4306 -22.541 13.915
      vertex 18.4306 -22.2889 13.915
    endloop
  endfacet
  facet normal -1 0 0
    outer loop
      vertex 17.8456 -22.541 13.915
      vertex 17.8456 -22.0925 13.915
      vertex 17.8456 -22.416 13.8855
    endloop
  endfacet
  facet normal -1 0 0
    outer loop
      vertex 17.8456 -22.0925 13.915
      vertex 17.8456 -22.3839 13.8769
      vertex 17.8456 -22.416 13.8855
    endloop
  endfacet
  facet normal 0 0 1
    outer loop
      vertex 17.8456 -22.0925 13.915
      vertex 17.8456 -22.541 13.915
      vertex 17.8691 -22.541 13.915
    endloop
  endfacet
  facet normal 0 -1 0
    outer loop
      vertex 17.8691 -22.541 13.915
      vertex 17.8456 -22.541 13.915
      vertex 17.8456 -22.541 13.7275
    endloop
  endfacet
  facet normal 0.883754 -0.467951 0
    outer loop
      vertex 18.1093 -21.8159 13.7275
      vertex 18.1847 -21.6733 13.7275
      vertex 18.1847 -21.6733 13.915
    endloop
  endfacet
  facet normal 0.883754 -0.467951 0
    outer loop
      vertex 18.1093 -21.8159 13.915
      vertex 18.1093 -21.8159 13.7275
      vertex 18.1847 -21.6733 13.915
    endloop
  endfacet
  facet normal 0.998573 -0.0534067 0
    outer loop
      vertex 18.1093 -21.8159 13.7275
      vertex 18.1093 -21.8159 13.915
      vertex 18.1006 -21.977 13.7275
    endloop
  endfacet
  facet normal 0.998573 -0.0534067 0
    outer loop
      vertex 18.1093 -21.8159 13.915
      vertex 18.1006 -21.977 13.915
      vertex 18.1006 -21.977 13.7275
    endloop
  endfacet
  facet normal 0 0 -1
    outer loop
      vertex 18.1093 -21.8159 13.7275
      vertex 18.1006 -21.977 13.7275
      vertex 18.0604 -22.0925 13.7275
    endloop
  endfacet
  facet normal 0 0 -1
    outer loop
      vertex 18.1006 -21.977 13.7275
      vertex 18.1605 -22.1268 13.7275
      vertex 18.0604 -22.0925 13.7275
    endloop
  endfacet
  facet normal 0 0 -1
    outer loop
      vertex 18.0604 -22.0925 13.7275
      vertex 18.1605 -22.1268 13.7275
      vertex 18.0604 -22.541 13.7275
    endloop
  endfacet
  facet normal 0.92863 0.371006 0
    outer loop
      vertex 18.1605 -22.1268 13.7275
      vertex 18.1006 -21.977 13.7275
      vertex 18.1006 -21.977 13.915
    endloop
  endfacet
  facet normal 0.92863 0.371006 0
    outer loop
      vertex 18.1605 -22.1268 13.915
      vertex 18.1605 -22.1268 13.7275
      vertex 18.1006 -21.977 13.915
    endloop
  endfacet
  facet normal 0.686865 0.726785 0
    outer loop
      vertex 18.1605 -22.1268 13.7275
      vertex 18.1605 -22.1268 13.915
      vertex 18.2777 -22.2376 13.7275
    endloop
  endfacet
  facet normal 0.686865 0.726785 0
    outer loop
      vertex 18.1605 -22.1268 13.915
      vertex 18.2777 -22.2376 13.915
      vertex 18.2777 -22.2376 13.7275
    endloop
  endfacet
  facet normal 0 0 1
    outer loop
      vertex 18.1006 -21.977 13.915
      vertex 18.1093 -21.8159 13.915
      vertex 18.0604 -22.0925 13.915
    endloop
  endfacet
  facet normal 0 0 1
    outer loop
      vertex 18.1093 -21.8159 13.915
      vertex 18.0604 -20.5262 13.915
      vertex 18.0604 -22.0925 13.915
    endloop
  endfacet
  facet normal 0 0 1
    outer loop
      vertex 18.0604 -22.0925 13.915
      vertex 18.0604 -20.5262 13.915
      vertex 17.9886 -21.596 13.915
    endloop
  endfacet
  facet normal 0 0 1
    outer loop
      vertex 18.1093 -21.8159 13.915
      vertex 18.1847 -21.6733 13.915
      vertex 18.0604 -20.5262 13.915
    endloop
  endfacet
  facet normal 0 0 1
    outer loop
      vertex 18.1847 -21.6733 13.915
      vertex 18.3131 -21.5757 13.915
      vertex 18.0604 -20.5262 13.915
    endloop
  endfacet
  facet normal 0 0 1
    outer loop
      vertex 18.0604 -20.5262 13.915
      vertex 18.3131 -21.5757 13.915
      vertex 18.4706 -20.5262 13.915
    endloop
  endfacet
  facet normal 0 0 1
    outer loop
      vertex 18.144 -19.4602 13.915
      vertex 18.1321 -19.416 13.915
      vertex 18.0604 -20.5262 13.915
    endloop
  endfacet
  facet normal 0 0 1
    outer loop
      vertex 18.1321 -19.416 13.915
      vertex 18.0604 -19.166 13.915
      vertex 18.0604 -20.5262 13.915
    endloop
  endfacet
  facet normal 0 0 1
    outer loop
      vertex 18.0604 -20.5262 13.915
      vertex 18.0604 -19.166 13.915
      vertex 17.8691 -19.166 13.915
    endloop
  endfacet
  facet normal 0 0 1
    outer loop
      vertex 18.0604 -19.166 13.915
      vertex 17.8691 -14.791 13.915
      vertex 17.8691 -19.166 13.915
    endloop
  endfacet
  facet normal 0 0 1
    outer loop
      vertex 17.8691 -19.166 13.915
      vertex 17.8691 -14.791 13.915
      vertex 17.8456 -14.791 13.915
    endloop
  endfacet
  facet normal 0.96593 0.258804 0
    outer loop
      vertex 18.1321 -19.416 13.915
      vertex 18.144 -19.4602 13.915
      vertex 18.144 -19.4602 13.7275
    endloop
  endfacet
  facet normal 0.96593 0.258804 0
    outer loop
      vertex 18.1321 -19.416 13.7275
      vertex 18.1321 -19.416 13.915
      vertex 18.144 -19.4602 13.7275
    endloop
  endfacet
  facet normal 0.96593 -0.258804 0
    outer loop
      vertex 18.1321 -19.416 13.915
      vertex 18.1321 -19.416 13.7275
      vertex 18.144 -19.3717 13.915
    endloop
  endfacet
  facet normal 0.96593 -0.258804 0
    outer loop
      vertex 18.1321 -19.416 13.7275
      vertex 18.144 -19.3717 13.7275
      vertex 18.144 -19.3717 13.915
    endloop
  endfacet
  facet normal 0 0 1
    outer loop
      vertex 18.1321 -19.416 13.915
      vertex 18.144 -19.3717 13.915
      vertex 18.0604 -19.166 13.915
    endloop
  endfacet
  facet normal 0 0 1
    outer loop
      vertex 18.144 -19.3717 13.915
      vertex 18.1764 -19.3393 13.915
      vertex 18.0604 -19.166 13.915
    endloop
  endfacet
  facet normal 0 0 1
    outer loop
      vertex 18.0604 -19.166 13.915
      vertex 18.1764 -19.3393 13.915
      vertex 18.2206 -19.3275 13.915
    endloop
  endfacet
  facet normal 0 0 1
    outer loop
      vertex 18.1764 -19.4926 13.915
      vertex 18.144 -19.4602 13.915
      vertex 18.0604 -20.5262 13.915
    endloop
  endfacet
  facet normal 0.707107 0.707107 0
    outer loop
      vertex 18.144 -19.4602 13.915
      vertex 18.1764 -19.4926 13.915
      vertex 18.1764 -19.4926 13.7275
    endloop
  endfacet
  facet normal 0.707107 0.707107 0
    outer loop
      vertex 18.144 -19.4602 13.7275
      vertex 18.144 -19.4602 13.915
      vertex 18.1764 -19.4926 13.7275
    endloop
  endfacet
  facet normal 0 0 1
    outer loop
      vertex 18.2206 -19.5045 13.915
      vertex 18.1764 -19.4926 13.915
      vertex 18.0604 -20.5262 13.915
    endloop
  endfacet
  facet normal 0.258832 0.965922 0
    outer loop
      vertex 18.1764 -19.4926 13.915
      vertex 18.2206 -19.5045 13.915
      vertex 18.2206 -19.5045 13.7275
    endloop
  endfacet
  facet normal 0.258832 0.965922 0
    outer loop
      vertex 18.1764 -19.4926 13.7275
      vertex 18.1764 -19.4926 13.915
      vertex 18.2206 -19.5045 13.7275
    endloop
  endfacet
  facet normal 0 0 1
    outer loop
      vertex 18.2649 -19.4926 13.915
      vertex 18.2206 -19.5045 13.915
      vertex 18.0604 -20.5262 13.915
    endloop
  endfacet
  facet normal -0.258832 0.965922 0
    outer loop
      vertex 18.2206 -19.5045 13.915
      vertex 18.2649 -19.4926 13.915
      vertex 18.2649 -19.4926 13.7275
    endloop
  endfacet
  facet normal -0.258832 0.965922 0
    outer loop
      vertex 18.2206 -19.5045 13.7275
      vertex 18.2206 -19.5045 13.915
      vertex 18.2649 -19.4926 13.7275
    endloop
  endfacet
  facet normal 0 0 1
    outer loop
      vertex 18.2973 -19.4602 13.915
      vertex 18.2649 -19.4926 13.915
      vertex 18.4706 -20.5262 13.915
    endloop
  endfacet
  facet normal 0 0 1
    outer loop
      vertex 18.2649 -19.4926 13.915
      vertex 18.0604 -20.5262 13.915
      vertex 18.4706 -20.5262 13.915
    endloop
  endfacet
  facet normal -0.707127 0.707086 0
    outer loop
      vertex 18.2649 -19.4926 13.915
      vertex 18.2973 -19.4602 13.915
      vertex 18.2973 -19.4602 13.7275
    endloop
  endfacet
  facet normal -0.707127 0.707086 0
    outer loop
      vertex 18.2649 -19.4926 13.7275
      vertex 18.2649 -19.4926 13.915
      vertex 18.2973 -19.4602 13.7275
    endloop
  endfacet
  facet normal 0 0 -1
    outer loop
      vertex 18.2206 -19.5045 13.7275
      vertex 18.2649 -19.4926 13.7275
      vertex 18.4706 -20.5262 13.7275
    endloop
  endfacet
  facet normal 0 0 -1
    outer loop
      vertex 18.2649 -19.4926 13.7275
      vertex 18.2973 -19.4602 13.7275
      vertex 18.4706 -20.5262 13.7275
    endloop
  endfacet
  facet normal 0 0 -1
    outer loop
      vertex 18.4706 -20.5262 13.7275
      vertex 18.2973 -19.4602 13.7275
      vertex 18.3091 -19.416 13.7275
    endloop
  endfacet
  facet normal 0 0 -1
    outer loop
      vertex 18.144 -19.4602 13.7275
      vertex 18.1764 -19.4926 13.7275
      vertex 18.0604 -20.5262 13.7275
    endloop
  endfacet
  facet normal 0 0 -1
    outer loop
      vertex 18.1321 -19.416 13.7275
      vertex 18.144 -19.4602 13.7275
      vertex 18.0604 -20.5262 13.7275
    endloop
  endfacet
  facet normal 0 0 1
    outer loop
      vertex 18.4306 -22.2889 13.915
      vertex 18.2777 -22.2376 13.915
      vertex 18.0604 -22.541 13.915
    endloop
  endfacet
  facet normal 0 0 1
    outer loop
      vertex 18.2777 -22.2376 13.915
      vertex 18.0604 -22.0925 13.915
      vertex 18.0604 -22.541 13.915
    endloop
  endfacet
  facet normal 0.318025 0.948082 0
    outer loop
      vertex 18.2777 -22.2376 13.915
      vertex 18.4306 -22.2889 13.915
      vertex 18.4306 -22.2889 13.7275
    endloop
  endfacet
  facet normal 0.318025 0.948082 0
    outer loop
      vertex 18.2777 -22.2376 13.7275
      vertex 18.2777 -22.2376 13.915
      vertex 18.4306 -22.2889 13.7275
    endloop
  endfacet
  facet normal 0 0 1
    outer loop
      vertex 18.2777 -22.2376 13.915
      vertex 18.1605 -22.1268 13.915
      vertex 18.0604 -22.0925 13.915
    endloop
  endfacet
  facet normal 0 0 1
    outer loop
      vertex 18.1605 -22.1268 13.915
      vertex 18.1006 -21.977 13.915
      vertex 18.0604 -22.0925 13.915
    endloop
  endfacet
  facet normal 0.707127 0.707086 0
    outer loop
      vertex 18.6764 -19.4926 13.7275
      vertex 18.644 -19.4602 13.7275
      vertex 18.644 -19.4602 13.915
    endloop
  endfacet
  facet normal 0.707127 0.707086 0
    outer loop
      vertex 18.6764 -19.4926 13.915
      vertex 18.6764 -19.4926 13.7275
      vertex 18.644 -19.4602 13.915
    endloop
  endfacet
  facet normal 0.258832 0.965922 0
    outer loop
      vertex 18.6764 -19.4926 13.7275
      vertex 18.6764 -19.4926 13.915
      vertex 18.7206 -19.5045 13.7275
    endloop
  endfacet
  facet normal 0.258832 0.965922 0
    outer loop
      vertex 18.6764 -19.4926 13.915
      vertex 18.7206 -19.5045 13.915
      vertex 18.7206 -19.5045 13.7275
    endloop
  endfacet
  facet normal 0 0 -1
    outer loop
      vertex 18.6764 -19.4926 13.7275
      vertex 18.7206 -19.5045 13.7275
      vertex 18.8809 -20.5262 13.7275
    endloop
  endfacet
  facet normal 0 0 -1
    outer loop
      vertex 18.7206 -19.5045 13.7275
      vertex 18.7649 -19.4926 13.7275
      vertex 18.8809 -20.5262 13.7275
    endloop
  endfacet
  facet normal 0 0 -1
    outer loop
      vertex 18.8809 -20.5262 13.7275
      vertex 18.7649 -19.4926 13.7275
      vertex 18.7973 -19.4602 13.7275
    endloop
  endfacet
  facet normal 0 0 -1
    outer loop
      vertex 18.6321 -19.416 13.7275
      vertex 18.644 -19.4602 13.7275
      vertex 18.4706 -20.5262 13.7275
    endloop
  endfacet
  facet normal 0.96593 0.258804 0
    outer loop
      vertex 18.644 -19.4602 13.7275
      vertex 18.6321 -19.416 13.7275
      vertex 18.6321 -19.416 13.915
    endloop
  endfacet
  facet normal 0.96593 0.258804 0
    outer loop
      vertex 18.644 -19.4602 13.915
      vertex 18.644 -19.4602 13.7275
      vertex 18.6321 -19.416 13.915
    endloop
  endfacet
  facet normal -0.96592 0.258842 0
    outer loop
      vertex 18.3091 -19.416 13.7275
      vertex 18.2973 -19.4602 13.7275
      vertex 18.2973 -19.4602 13.915
    endloop
  endfacet
  facet normal -0.96592 0.258842 0
    outer loop
      vertex 18.3091 -19.416 13.915
      vertex 18.3091 -19.416 13.7275
      vertex 18.2973 -19.4602 13.915
    endloop
  endfacet
  facet normal -0.96592 -0.258842 0
    outer loop
      vertex 18.3091 -19.416 13.7275
      vertex 18.3091 -19.416 13.915
      vertex 18.2973 -19.3717 13.7275
    endloop
  endfacet
  facet normal -0.96592 -0.258842 0
    outer loop
      vertex 18.3091 -19.416 13.915
      vertex 18.2973 -19.3717 13.915
      vertex 18.2973 -19.3717 13.7275
    endloop
  endfacet
  facet normal 0 0 -1
    outer loop
      vertex 18.3091 -19.416 13.7275
      vertex 18.2973 -19.3717 13.7275
      vertex 18.4706 -19.166 13.7275
    endloop
  endfacet
  facet normal 0 0 -1
    outer loop
      vertex 18.2973 -19.3717 13.7275
      vertex 18.2649 -19.3393 13.7275
      vertex 18.4706 -19.166 13.7275
    endloop
  endfacet
  facet normal 0 0 -1
    outer loop
      vertex 18.4706 -19.166 13.7275
      vertex 18.2649 -19.3393 13.7275
      vertex 18.0604 -19.166 13.7275
    endloop
  endfacet
  facet normal 0 0 -1
    outer loop
      vertex 18.2649 -19.3393 13.7275
      vertex 18.2206 -19.3275 13.7275
      vertex 18.0604 -19.166 13.7275
    endloop
  endfacet
  facet normal 0 0 -1
    outer loop
      vertex 18.0604 -19.166 13.7275
      vertex 18.2206 -19.3275 13.7275
      vertex 18.1764 -19.3393 13.7275
    endloop
  endfacet
  facet normal 0 0 -1
    outer loop
      vertex 18.644 -19.3717 13.7275
      vertex 18.6321 -19.416 13.7275
      vertex 18.4706 -19.166 13.7275
    endloop
  endfacet
  facet normal 0 0 -1
    outer loop
      vertex 18.6321 -19.416 13.7275
      vertex 18.4706 -20.5262 13.7275
      vertex 18.4706 -19.166 13.7275
    endloop
  endfacet
  facet normal 0 0 -1
    outer loop
      vertex 18.4706 -19.166 13.7275
      vertex 18.4706 -20.5262 13.7275
      vertex 18.3091 -19.416 13.7275
    endloop
  endfacet
  facet normal 0.96593 -0.258804 0
    outer loop
      vertex 18.6321 -19.416 13.7275
      vertex 18.644 -19.3717 13.7275
      vertex 18.644 -19.3717 13.915
    endloop
  endfacet
  facet normal 0.96593 -0.258804 0
    outer loop
      vertex 18.6321 -19.416 13.915
      vertex 18.6321 -19.416 13.7275
      vertex 18.644 -19.3717 13.915
    endloop
  endfacet
  facet normal -0.883754 -0.467951 0
    outer loop
      vertex 18.7566 -21.6733 13.915
      vertex 18.7566 -21.6733 13.7275
      vertex 18.832 -21.8159 13.915
    endloop
  endfacet
  facet normal -0.883754 -0.467951 0
    outer loop
      vertex 18.7566 -21.6733 13.7275
      vertex 18.832 -21.8159 13.7275
      vertex 18.832 -21.8159 13.915
    endloop
  endfacet
  facet normal 0 0 -1
    outer loop
      vertex 18.832 -21.8159 13.7275
      vertex 18.7566 -21.6733 13.7275
      vertex 18.8809 -20.5262 13.7275
    endloop
  endfacet
  facet normal 0 0 -1
    outer loop
      vertex 18.8407 -21.977 13.7275
      vertex 18.832 -21.8159 13.7275
      vertex 18.8809 -22.0925 13.7275
    endloop
  endfacet
  facet normal 0 0 -1
    outer loop
      vertex 18.832 -21.8159 13.7275
      vertex 18.8809 -20.5262 13.7275
      vertex 18.8809 -22.0925 13.7275
    endloop
  endfacet
  facet normal 0 0 -1
    outer loop
      vertex 18.8809 -22.0925 13.7275
      vertex 18.8809 -20.5262 13.7275
      vertex 18.9526 -21.596 13.7275
    endloop
  endfacet
  facet normal -0.998573 -0.0534067 0
    outer loop
      vertex 18.832 -21.8159 13.7275
      vertex 18.8407 -21.977 13.7275
      vertex 18.8407 -21.977 13.915
    endloop
  endfacet
  facet normal -0.998573 -0.0534067 0
    outer loop
      vertex 18.832 -21.8159 13.915
      vertex 18.832 -21.8159 13.7275
      vertex 18.8407 -21.977 13.915
    endloop
  endfacet
  facet normal -0.258832 0.965922 0
    outer loop
      vertex 18.7206 -19.5045 13.7275
      vertex 18.7206 -19.5045 13.915
      vertex 18.7649 -19.4926 13.7275
    endloop
  endfacet
  facet normal -0.258832 0.965922 0
    outer loop
      vertex 18.7206 -19.5045 13.915
      vertex 18.7649 -19.4926 13.915
      vertex 18.7649 -19.4926 13.7275
    endloop
  endfacet
  facet normal 0 0 -1
    outer loop
      vertex 18.7973 -19.4602 13.7275
      vertex 18.8091 -19.416 13.7275
      vertex 18.8809 -20.5262 13.7275
    endloop
  endfacet
  facet normal -0.96592 0.258842 0
    outer loop
      vertex 18.8091 -19.416 13.7275
      vertex 18.7973 -19.4602 13.7275
      vertex 18.7973 -19.4602 13.915
    endloop
  endfacet
  facet normal -0.96592 0.258842 0
    outer loop
      vertex 18.8091 -19.416 13.915
      vertex 18.8091 -19.416 13.7275
      vertex 18.7973 -19.4602 13.915
    endloop
  endfacet
  facet normal -0.96592 -0.258842 0
    outer loop
      vertex 18.8091 -19.416 13.7275
      vertex 18.8091 -19.416 13.915
      vertex 18.7973 -19.3717 13.7275
    endloop
  endfacet
  facet normal -0.96592 -0.258842 0
    outer loop
      vertex 18.8091 -19.416 13.915
      vertex 18.7973 -19.3717 13.915
      vertex 18.7973 -19.3717 13.7275
    endloop
  endfacet
  facet normal -0.707107 0.707107 0
    outer loop
      vertex 18.7973 -19.4602 13.7275
      vertex 18.7649 -19.4926 13.7275
      vertex 18.7649 -19.4926 13.915
    endloop
  endfacet
  facet normal -0.707107 0.707107 0
    outer loop
      vertex 18.7973 -19.4602 13.915
      vertex 18.7973 -19.4602 13.7275
      vertex 18.7649 -19.4926 13.915
    endloop
  endfacet
  facet normal 0.707107 -0.707107 0
    outer loop
      vertex 19.0956 -22.201 13.7275
      vertex 19.0956 -22.201 13.915
      vertex 18.9956 -22.301 13.915
    endloop
  endfacet
  facet normal 0.707107 -0.707107 0
    outer loop
      vertex 18.9956 -22.301 13.7275
      vertex 19.0956 -22.201 13.7275
      vertex 18.9956 -22.301 13.915
    endloop
  endfacet
  facet normal 0 0 -1
    outer loop
      vertex 19.0956 -22.201 13.7275
      vertex 18.9956 -22.301 13.7275
      vertex 18.8956 -22.301 13.7275
    endloop
  endfacet
  facet normal 0 0 -1
    outer loop
      vertex 18.7808 -22.1268 13.7275
      vertex 18.8407 -21.977 13.7275
      vertex 18.8809 -22.0925 13.7275
    endloop
  endfacet
  facet normal -0.928626 0.371016 0
    outer loop
      vertex 18.8407 -21.977 13.7275
      vertex 18.7808 -22.1268 13.7275
      vertex 18.7808 -22.1268 13.915
    endloop
  endfacet
  facet normal -0.928626 0.371016 0
    outer loop
      vertex 18.8407 -21.977 13.915
      vertex 18.8407 -21.977 13.7275
      vertex 18.7808 -22.1268 13.915
    endloop
  endfacet
  facet normal 0 -1 0
    outer loop
      vertex 18.8956 -22.301 13.7275
      vertex 18.9956 -22.301 13.7275
      vertex 18.8956 -22.301 13.915
    endloop
  endfacet
  facet normal 0 -1 0
    outer loop
      vertex 18.9956 -22.301 13.7275
      vertex 18.9956 -22.301 13.915
      vertex 18.8956 -22.301 13.915
    endloop
  endfacet
  facet normal 1 0 0
    outer loop
      vertex 18.8956 -22.301 13.7275
      vertex 18.8956 -22.301 13.915
      vertex 18.8956 -22.3517 13.8212
    endloop
  endfacet
  facet normal 1 0 0
    outer loop
      vertex 18.8956 -22.301 13.915
      vertex 18.8956 -22.3603 13.8534
      vertex 18.8956 -22.3517 13.8212
    endloop
  endfacet
  facet normal 1 0 0
    outer loop
      vertex 18.8956 -22.541 13.7275
      vertex 18.8956 -22.301 13.7275
      vertex 18.8956 -22.416 13.757
    endloop
  endfacet
  facet normal 1 0 0
    outer loop
      vertex 18.8956 -22.301 13.7275
      vertex 18.8956 -22.3839 13.7656
      vertex 18.8956 -22.416 13.757
    endloop
  endfacet
  facet normal 0 0 -1
    outer loop
      vertex 18.6636 -22.2376 13.7275
      vertex 18.7808 -22.1268 13.7275
      vertex 18.8809 -22.0925 13.7275
    endloop
  endfacet
  facet normal -0.686865 0.726785 0
    outer loop
      vertex 18.7808 -22.1268 13.7275
      vertex 18.6636 -22.2376 13.7275
      vertex 18.6636 -22.2376 13.915
    endloop
  endfacet
  facet normal -0.686865 0.726785 0
    outer loop
      vertex 18.7808 -22.1268 13.915
      vertex 18.7808 -22.1268 13.7275
      vertex 18.6636 -22.2376 13.915
    endloop
  endfacet
  facet normal 0 -1 0
    outer loop
      vertex 18.8809 -22.541 13.7275
      vertex 18.8956 -22.541 13.7275
      vertex 18.8956 -22.541 13.915
    endloop
  endfacet
  facet normal 0 -1 0
    outer loop
      vertex 18.5106 -22.541 13.7275
      vertex 18.8809 -22.541 13.7275
      vertex 18.8809 -22.541 13.915
    endloop
  endfacet
  facet normal 0 -1 0
    outer loop
      vertex 18.8809 -22.541 13.7275
      vertex 18.8956 -22.541 13.915
      vertex 18.8809 -22.541 13.915
    endloop
  endfacet
  facet normal 0 0 -1
    outer loop
      vertex 18.8809 -22.541 13.7275
      vertex 18.5106 -22.541 13.7275
      vertex 18.5106 -22.2889 13.7275
    endloop
  endfacet
  facet normal 0 0 -1
    outer loop
      vertex 18.5106 -22.2889 13.7275
      vertex 18.6636 -22.2376 13.7275
      vertex 18.8809 -22.541 13.7275
    endloop
  endfacet
  facet normal 0 0 -1
    outer loop
      vertex 18.6636 -22.2376 13.7275
      vertex 18.8809 -22.0925 13.7275
      vertex 18.8809 -22.541 13.7275
    endloop
  endfacet
  facet normal -0.318029 0.948081 0
    outer loop
      vertex 18.6636 -22.2376 13.7275
      vertex 18.5106 -22.2889 13.7275
      vertex 18.5106 -22.2889 13.915
    endloop
  endfacet
  facet normal -0.318029 0.948081 0
    outer loop
      vertex 18.6636 -22.2376 13.915
      vertex 18.6636 -22.2376 13.7275
      vertex 18.5106 -22.2889 13.915
    endloop
  endfacet
  facet normal 0 0 1
    outer loop
      vertex 18.832 -21.8159 13.915
      vertex 18.8407 -21.977 13.915
      vertex 18.8809 -22.0925 13.915
    endloop
  endfacet
  facet normal 0 0 1
    outer loop
      vertex 18.8407 -21.977 13.915
      vertex 18.7808 -22.1268 13.915
      vertex 18.8809 -22.0925 13.915
    endloop
  endfacet
  facet normal 0 0 1
    outer loop
      vertex 18.8809 -22.0925 13.915
      vertex 18.7808 -22.1268 13.915
      vertex 18.8809 -22.541 13.915
    endloop
  endfacet
  facet normal 0 0 1
    outer loop
      vertex 18.7808 -22.1268 13.915
      vertex 18.6636 -22.2376 13.915
      vertex 18.8809 -22.541 13.915
    endloop
  endfacet
  facet normal 0 0 1
    outer loop
      vertex 18.8809 -22.541 13.915
      vertex 18.6636 -22.2376 13.915
      vertex 18.5106 -22.541 13.915
    endloop
  endfacet
  facet normal 0 0 1
    outer loop
      vertex 18.6636 -22.2376 13.915
      vertex 18.5106 -22.2889 13.915
      vertex 18.5106 -22.541 13.915
    endloop
  endfacet
  facet normal 0 0 1
    outer loop
      vertex 18.7206 -19.5045 13.915
      vertex 18.6764 -19.4926 13.915
      vertex 18.4706 -20.5262 13.915
    endloop
  endfacet
  facet normal 0 0 1
    outer loop
      vertex 18.6764 -19.4926 13.915
      vertex 18.644 -19.4602 13.915
      vertex 18.4706 -20.5262 13.915
    endloop
  endfacet
  facet normal 0 0 1
    outer loop
      vertex 18.4706 -20.5262 13.915
      vertex 18.644 -19.4602 13.915
      vertex 18.6321 -19.416 13.915
    endloop
  endfacet
  facet normal 0 0 1
    outer loop
      vertex 18.7973 -19.3717 13.915
      vertex 18.8091 -19.416 13.915
      vertex 18.8809 -19.166 13.915
    endloop
  endfacet
  facet normal 0 0 1
    outer loop
      vertex 18.8091 -19.416 13.915
      vertex 18.8809 -20.5262 13.915
      vertex 18.8809 -19.166 13.915
    endloop
  endfacet
  facet normal 0 0 1
    outer loop
      vertex 18.8809 -19.166 13.915
      vertex 18.8809 -20.5262 13.915
      vertex 19.0956 -20.5262 13.915
    endloop
  endfacet
  facet normal 0 0 1
    outer loop
      vertex 18.8091 -19.416 13.915
      vertex 18.7973 -19.4602 13.915
      vertex 18.8809 -20.5262 13.915
    endloop
  endfacet
  facet normal 0 0 1
    outer loop
      vertex 18.7973 -19.4602 13.915
      vertex 18.7649 -19.4926 13.915
      vertex 18.8809 -20.5262 13.915
    endloop
  endfacet
  facet normal 0 0 1
    outer loop
      vertex 18.8956 -22.301 13.915
      vertex 18.9956 -22.301 13.915
      vertex 18.8809 -22.0925 13.915
    endloop
  endfacet
  facet normal 0 -1 0
    outer loop
      vertex 18.8809 -22.541 13.915
      vertex 18.5106 -22.541 13.915
      vertex 18.5106 -22.541 13.7275
    endloop
  endfacet
  facet normal 0 0 1
    outer loop
      vertex 18.8809 -22.541 13.915
      vertex 18.8956 -22.541 13.915
      vertex 18.8956 -22.301 13.915
    endloop
  endfacet
  facet normal 1 0 0
    outer loop
      vertex 18.8956 -22.301 13.915
      vertex 18.8956 -22.541 13.915
      vertex 18.8956 -22.416 13.8855
    endloop
  endfacet
  facet normal 1 0 0
    outer loop
      vertex 18.8956 -22.541 13.915
      vertex 18.8956 -22.4481 13.8769
      vertex 18.8956 -22.416 13.8855
    endloop
  endfacet
  facet normal 0 0 1
    outer loop
      vertex 19.0956 -19.166 13.915
      vertex 19.0956 -14.791 13.915
      vertex 18.8809 -14.791 13.915
    endloop
  endfacet
  facet normal 0 0 -1
    outer loop
      vertex 19.0956 -14.791 13.7275
      vertex 19.0956 -19.166 13.7275
      vertex 18.8809 -14.791 13.7275
    endloop
  endfacet
  facet normal 0 0 -1
    outer loop
      vertex 19.0956 -19.166 13.7275
      vertex 18.8809 -19.166 13.7275
      vertex 18.8809 -14.791 13.7275
    endloop
  endfacet
  facet normal 0 0 -1
    outer loop
      vertex 18.8809 -14.791 13.7275
      vertex 18.8809 -19.166 13.7275
      vertex 18.8091 -18.916 13.7275
    endloop
  endfacet
  facet normal 0 0 -1
    outer loop
      vertex 18.8809 -19.166 13.7275
      vertex 18.7973 -18.9602 13.7275
      vertex 18.8091 -18.916 13.7275
    endloop
  endfacet
  facet normal 1 0 0
    outer loop
      vertex 19.0956 -19.166 13.7275
      vertex 19.0956 -14.791 13.7275
      vertex 19.0956 -14.791 13.915
    endloop
  endfacet
  facet normal 0 -0.96593 0.258802
    outer loop
      vertex 17.8456 -22.3517 13.8212
      vertex 17.8456 -22.3603 13.7891
      vertex 18.4306 -22.3603 13.7891
    endloop
  endfacet
  facet normal 0 -0.96593 0.258802
    outer loop
      vertex 18.4306 -22.3517 13.8212
      vertex 17.8456 -22.3517 13.8212
      vertex 18.4306 -22.3603 13.7891
    endloop
  endfacet
  facet normal 0 -0.96593 -0.258802
    outer loop
      vertex 17.8456 -22.3517 13.8212
      vertex 18.4306 -22.3517 13.8212
      vertex 17.8456 -22.3603 13.8534
    endloop
  endfacet
  facet normal 0 -0.96593 -0.258802
    outer loop
      vertex 18.4306 -22.3517 13.8212
      vertex 18.4306 -22.3603 13.8534
      vertex 17.8456 -22.3603 13.8534
    endloop
  endfacet
  facet normal -1 0 0
    outer loop
      vertex 17.8456 -22.3517 13.8212
      vertex 17.8456 -22.3603 13.8534
      vertex 17.8456 -22.0925 13.915
    endloop
  endfacet
  facet normal -1 0 0
    outer loop
      vertex 17.8456 -22.3603 13.8534
      vertex 17.8456 -22.3839 13.8769
      vertex 17.8456 -22.0925 13.915
    endloop
  endfacet
  facet normal 0 1 0
    outer loop
      vertex 17.8456 -14.791 13.7275
      vertex 17.8456 -14.791 13.915
      vertex 17.8691 -14.791 13.7275
    endloop
  endfacet
  facet normal 0 1 0
    outer loop
      vertex 17.8456 -14.791 13.915
      vertex 17.8691 -14.791 13.915
      vertex 17.8691 -14.791 13.7275
    endloop
  endfacet
  facet normal 0 1 0
    outer loop
      vertex 17.8691 -14.791 13.7275
      vertex 17.8691 -14.791 13.915
      vertex 18.0604 -14.791 13.7275
    endloop
  endfacet
  facet normal 0 1 0
    outer loop
      vertex 17.8691 -14.791 13.915
      vertex 18.0604 -14.791 13.915
      vertex 18.0604 -14.791 13.7275
    endloop
  endfacet
  facet normal 0 1 0
    outer loop
      vertex 18.0604 -14.791 13.7275
      vertex 18.0604 -14.791 13.915
      vertex 18.4706 -14.791 13.7275
    endloop
  endfacet
  facet normal 0 1 0
    outer loop
      vertex 18.0604 -14.791 13.915
      vertex 18.4706 -14.791 13.915
      vertex 18.4706 -14.791 13.7275
    endloop
  endfacet
  facet normal 0 1 0
    outer loop
      vertex 18.4706 -14.791 13.7275
      vertex 18.4706 -14.791 13.915
      vertex 18.8809 -14.791 13.7275
    endloop
  endfacet
  facet normal 0 1 0
    outer loop
      vertex 18.4706 -14.791 13.915
      vertex 18.8809 -14.791 13.915
      vertex 18.8809 -14.791 13.7275
    endloop
  endfacet
  facet normal 0 1 0
    outer loop
      vertex 18.8809 -14.791 13.7275
      vertex 18.8809 -14.791 13.915
      vertex 19.0956 -14.791 13.7275
    endloop
  endfacet
  facet normal 0 1 0
    outer loop
      vertex 18.8809 -14.791 13.915
      vertex 19.0956 -14.791 13.915
      vertex 19.0956 -14.791 13.7275
    endloop
  endfacet
  facet normal 1 0 0
    outer loop
      vertex 18.4306 -22.541 13.915
      vertex 18.4306 -22.541 13.7275
      vertex 18.4306 -22.4802 13.8212
    endloop
  endfacet
  facet normal 1 0 0
    outer loop
      vertex 18.4306 -22.541 13.7275
      vertex 18.4306 -22.4716 13.7891
      vertex 18.4306 -22.4802 13.8212
    endloop
  endfacet
  facet normal 1 0 0
    outer loop
      vertex 18.4306 -22.2889 13.915
      vertex 18.4306 -22.541 13.915
      vertex 18.4306 -22.416 13.8855
    endloop
  endfacet
  facet normal 1 0 0
    outer loop
      vertex 18.4306 -22.541 13.915
      vertex 18.4306 -22.4481 13.8769
      vertex 18.4306 -22.416 13.8855
    endloop
  endfacet
  facet normal 0 0 -1
    outer loop
      vertex 18.2777 -22.2376 13.7275
      vertex 18.4306 -22.2889 13.7275
      vertex 18.4306 -22.541 13.7275
    endloop
  endfacet
  facet normal 1 0 0
    outer loop
      vertex 18.4306 -22.541 13.7275
      vertex 18.4306 -22.2889 13.7275
      vertex 18.4306 -22.416 13.757
    endloop
  endfacet
  facet normal 1 0 0
    outer loop
      vertex 18.4306 -22.2889 13.7275
      vertex 18.4306 -22.3839 13.7656
      vertex 18.4306 -22.416 13.757
    endloop
  endfacet
  facet normal -1 0 0
    outer loop
      vertex 17.8456 -22.541 13.7275
      vertex 17.8456 -22.541 13.915
      vertex 17.8456 -22.4802 13.8212
    endloop
  endfacet
  facet normal -1 0 0
    outer loop
      vertex 17.8456 -22.541 13.915
      vertex 17.8456 -22.4716 13.8534
      vertex 17.8456 -22.4802 13.8212
    endloop
  endfacet
  facet normal -1 0 0
    outer loop
      vertex 17.8456 -22.3839 13.7656
      vertex 17.8456 -22.3603 13.7891
      vertex 17.8456 -22.0925 13.7275
    endloop
  endfacet
  facet normal 0 -0.707093 0.707121
    outer loop
      vertex 17.8456 -22.3603 13.7891
      vertex 17.8456 -22.3839 13.7656
      vertex 18.4306 -22.3839 13.7656
    endloop
  endfacet
  facet normal 0 -0.707093 0.707121
    outer loop
      vertex 18.4306 -22.3603 13.7891
      vertex 17.8456 -22.3603 13.7891
      vertex 18.4306 -22.3839 13.7656
    endloop
  endfacet
  facet normal -1 0 0
    outer loop
      vertex 17.8456 -22.416 13.757
      vertex 17.8456 -22.3839 13.7656
      vertex 17.8456 -22.0925 13.7275
    endloop
  endfacet
  facet normal 0 -0.258842 0.96592
    outer loop
      vertex 17.8456 -22.3839 13.7656
      vertex 17.8456 -22.416 13.757
      vertex 18.4306 -22.416 13.757
    endloop
  endfacet
  facet normal 0 -0.258842 0.96592
    outer loop
      vertex 18.4306 -22.3839 13.7656
      vertex 17.8456 -22.3839 13.7656
      vertex 18.4306 -22.416 13.757
    endloop
  endfacet
  facet normal 0 0.258814 0.965927
    outer loop
      vertex 17.8456 -22.416 13.757
      vertex 17.8456 -22.4481 13.7656
      vertex 18.4306 -22.4481 13.7656
    endloop
  endfacet
  facet normal 0 0.258814 0.965927
    outer loop
      vertex 18.4306 -22.416 13.757
      vertex 17.8456 -22.416 13.757
      vertex 18.4306 -22.4481 13.7656
    endloop
  endfacet
  facet normal 0 0 1
    outer loop
      vertex 18.0604 -14.791 13.915
      vertex 17.8691 -14.791 13.915
      vertex 18.0604 -19.166 13.915
    endloop
  endfacet
  facet normal 1 0 0
    outer loop
      vertex 18.4306 -22.2889 13.7275
      vertex 18.4306 -22.2889 13.915
      vertex 18.4306 -22.3603 13.8534
    endloop
  endfacet
  facet normal 1 0 0
    outer loop
      vertex 18.4306 -22.2889 13.915
      vertex 18.4306 -22.3839 13.8769
      vertex 18.4306 -22.3603 13.8534
    endloop
  endfacet
  facet normal 0 -0.707093 -0.707121
    outer loop
      vertex 17.8456 -22.3603 13.8534
      vertex 18.4306 -22.3603 13.8534
      vertex 17.8456 -22.3839 13.8769
    endloop
  endfacet
  facet normal 0 -0.707093 -0.707121
    outer loop
      vertex 18.4306 -22.3603 13.8534
      vertex 18.4306 -22.3839 13.8769
      vertex 17.8456 -22.3839 13.8769
    endloop
  endfacet
  facet normal 0 -0.258842 -0.96592
    outer loop
      vertex 17.8456 -22.3839 13.8769
      vertex 18.4306 -22.3839 13.8769
      vertex 17.8456 -22.416 13.8855
    endloop
  endfacet
  facet normal 0 -0.258842 -0.96592
    outer loop
      vertex 18.4306 -22.3839 13.8769
      vertex 18.4306 -22.416 13.8855
      vertex 17.8456 -22.416 13.8855
    endloop
  endfacet
  facet normal 0 0.258814 -0.965927
    outer loop
      vertex 17.8456 -22.416 13.8855
      vertex 18.4306 -22.416 13.8855
      vertex 17.8456 -22.4481 13.8769
    endloop
  endfacet
  facet normal 0 0.258814 -0.965927
    outer loop
      vertex 18.4306 -22.416 13.8855
      vertex 18.4306 -22.4481 13.8769
      vertex 17.8456 -22.4481 13.8769
    endloop
  endfacet
  facet normal -1 0 0
    outer loop
      vertex 17.8456 -22.416 13.8855
      vertex 17.8456 -22.4481 13.8769
      vertex 17.8456 -22.541 13.915
    endloop
  endfacet
  facet normal -1 0 0
    outer loop
      vertex 17.8456 -22.4481 13.8769
      vertex 17.8456 -22.4716 13.8534
      vertex 17.8456 -22.541 13.915
    endloop
  endfacet
  facet normal 0.707127 -0.707086 0
    outer loop
      vertex 18.144 -19.3717 13.915
      vertex 18.144 -19.3717 13.7275
      vertex 18.1764 -19.3393 13.915
    endloop
  endfacet
  facet normal 0.707127 -0.707086 0
    outer loop
      vertex 18.144 -19.3717 13.7275
      vertex 18.1764 -19.3393 13.7275
      vertex 18.1764 -19.3393 13.915
    endloop
  endfacet
  facet normal 0 0 1
    outer loop
      vertex 18.4706 -14.791 13.915
      vertex 18.0604 -14.791 13.915
      vertex 18.2206 -18.8275 13.915
    endloop
  endfacet
  facet normal 0 0 1
    outer loop
      vertex 18.0604 -14.791 13.915
      vertex 18.1764 -18.8393 13.915
      vertex 18.2206 -18.8275 13.915
    endloop
  endfacet
  facet normal 0 0 1
    outer loop
      vertex 18.144 -18.9602 13.915
      vertex 18.1321 -18.916 13.915
      vertex 18.0604 -19.166 13.915
    endloop
  endfacet
  facet normal 0 0 1
    outer loop
      vertex 18.1321 -18.916 13.915
      vertex 18.0604 -14.791 13.915
      vertex 18.0604 -19.166 13.915
    endloop
  endfacet
  facet normal 0.965933 0.258794 0
    outer loop
      vertex 18.1321 -18.916 13.915
      vertex 18.144 -18.9602 13.915
      vertex 18.144 -18.9602 13.7275
    endloop
  endfacet
  facet normal 0.965933 0.258794 0
    outer loop
      vertex 18.1321 -18.916 13.7275
      vertex 18.1321 -18.916 13.915
      vertex 18.144 -18.9602 13.7275
    endloop
  endfacet
  facet normal 0.96593 -0.258804 0
    outer loop
      vertex 18.1321 -18.916 13.915
      vertex 18.1321 -18.916 13.7275
      vertex 18.144 -18.8717 13.915
    endloop
  endfacet
  facet normal 0.96593 -0.258804 0
    outer loop
      vertex 18.1321 -18.916 13.7275
      vertex 18.144 -18.8717 13.7275
      vertex 18.144 -18.8717 13.915
    endloop
  endfacet
  facet normal 0 0 1
    outer loop
      vertex 18.1321 -18.916 13.915
      vertex 18.144 -18.8717 13.915
      vertex 18.0604 -14.791 13.915
    endloop
  endfacet
  facet normal 0 0 1
    outer loop
      vertex 18.144 -18.8717 13.915
      vertex 18.1764 -18.8393 13.915
      vertex 18.0604 -14.791 13.915
    endloop
  endfacet
  facet normal 0 0 1
    outer loop
      vertex 18.1764 -18.9926 13.915
      vertex 18.144 -18.9602 13.915
      vertex 18.0604 -19.166 13.915
    endloop
  endfacet
  facet normal 0.707107 0.707107 0
    outer loop
      vertex 18.144 -18.9602 13.915
      vertex 18.1764 -18.9926 13.915
      vertex 18.1764 -18.9926 13.7275
    endloop
  endfacet
  facet normal 0.707107 0.707107 0
    outer loop
      vertex 18.144 -18.9602 13.7275
      vertex 18.144 -18.9602 13.915
      vertex 18.1764 -18.9926 13.7275
    endloop
  endfacet
  facet normal 0 0 1
    outer loop
      vertex 18.2206 -19.0045 13.915
      vertex 18.1764 -18.9926 13.915
      vertex 18.0604 -19.166 13.915
    endloop
  endfacet
  facet normal 0.258832 0.965922 0
    outer loop
      vertex 18.1764 -18.9926 13.915
      vertex 18.2206 -19.0045 13.915
      vertex 18.2206 -19.0045 13.7275
    endloop
  endfacet
  facet normal 0.258832 0.965922 0
    outer loop
      vertex 18.1764 -18.9926 13.7275
      vertex 18.1764 -18.9926 13.915
      vertex 18.2206 -19.0045 13.7275
    endloop
  endfacet
  facet normal 0.258794 -0.965933 0
    outer loop
      vertex 18.1764 -19.3393 13.915
      vertex 18.1764 -19.3393 13.7275
      vertex 18.2206 -19.3275 13.915
    endloop
  endfacet
  facet normal 0.258794 -0.965933 0
    outer loop
      vertex 18.1764 -19.3393 13.7275
      vertex 18.2206 -19.3275 13.7275
      vertex 18.2206 -19.3275 13.915
    endloop
  endfacet
  facet normal 0 0 1
    outer loop
      vertex 18.2649 -18.9926 13.915
      vertex 18.2206 -19.0045 13.915
      vertex 18.0604 -19.166 13.915
    endloop
  endfacet
  facet normal -0.258832 0.965922 0
    outer loop
      vertex 18.2206 -19.0045 13.915
      vertex 18.2649 -18.9926 13.915
      vertex 18.2649 -18.9926 13.7275
    endloop
  endfacet
  facet normal -0.258832 0.965922 0
    outer loop
      vertex 18.2206 -19.0045 13.7275
      vertex 18.2206 -19.0045 13.915
      vertex 18.2649 -18.9926 13.7275
    endloop
  endfacet
  facet normal -0.258794 -0.965933 0
    outer loop
      vertex 18.2206 -19.3275 13.915
      vertex 18.2206 -19.3275 13.7275
      vertex 18.2649 -19.3393 13.915
    endloop
  endfacet
  facet normal -0.258794 -0.965933 0
    outer loop
      vertex 18.2206 -19.3275 13.7275
      vertex 18.2649 -19.3393 13.7275
      vertex 18.2649 -19.3393 13.915
    endloop
  endfacet
  facet normal 0 0 1
    outer loop
      vertex 18.2206 -19.3275 13.915
      vertex 18.2649 -19.3393 13.915
      vertex 18.4706 -19.166 13.915
    endloop
  endfacet
  facet normal 0 0 1
    outer loop
      vertex 18.2649 -19.3393 13.915
      vertex 18.2973 -19.3717 13.915
      vertex 18.4706 -19.166 13.915
    endloop
  endfacet
  facet normal 0 0 1
    outer loop
      vertex 18.4706 -19.166 13.915
      vertex 18.2973 -19.3717 13.915
      vertex 18.3091 -19.416 13.915
    endloop
  endfacet
  facet normal 0 0 1
    outer loop
      vertex 18.2973 -18.9602 13.915
      vertex 18.2649 -18.9926 13.915
      vertex 18.4706 -19.166 13.915
    endloop
  endfacet
  facet normal 0 0 1
    outer loop
      vertex 18.2649 -18.9926 13.915
      vertex 18.0604 -19.166 13.915
      vertex 18.4706 -19.166 13.915
    endloop
  endfacet
  facet normal 0 0 1
    outer loop
      vertex 18.4706 -19.166 13.915
      vertex 18.0604 -19.166 13.915
      vertex 18.2206 -19.3275 13.915
    endloop
  endfacet
  facet normal -0.707127 0.707086 0
    outer loop
      vertex 18.2649 -18.9926 13.915
      vertex 18.2973 -18.9602 13.915
      vertex 18.2973 -18.9602 13.7275
    endloop
  endfacet
  facet normal -0.707127 0.707086 0
    outer loop
      vertex 18.2649 -18.9926 13.7275
      vertex 18.2649 -18.9926 13.915
      vertex 18.2973 -18.9602 13.7275
    endloop
  endfacet
  facet normal 0 0 1
    outer loop
      vertex 18.3091 -19.416 13.915
      vertex 18.2973 -19.4602 13.915
      vertex 18.4706 -20.5262 13.915
    endloop
  endfacet
  facet normal 0 0 1
    outer loop
      vertex 18.6321 -19.416 13.915
      vertex 18.644 -19.3717 13.915
      vertex 18.4706 -19.166 13.915
    endloop
  endfacet
  facet normal 0 0 1
    outer loop
      vertex 18.644 -19.3717 13.915
      vertex 18.6764 -19.3393 13.915
      vertex 18.4706 -19.166 13.915
    endloop
  endfacet
  facet normal 0 0 1
    outer loop
      vertex 18.4706 -19.166 13.915
      vertex 18.6764 -19.3393 13.915
      vertex 18.8809 -19.166 13.915
    endloop
  endfacet
  facet normal 0 0 1
    outer loop
      vertex 18.6764 -19.3393 13.915
      vertex 18.7206 -19.3275 13.915
      vertex 18.8809 -19.166 13.915
    endloop
  endfacet
  facet normal 0 0 1
    outer loop
      vertex 18.8809 -19.166 13.915
      vertex 18.7206 -19.3275 13.915
      vertex 18.7649 -19.3393 13.915
    endloop
  endfacet
  facet normal 0 0 -1
    outer loop
      vertex 18.1764 -19.3393 13.7275
      vertex 18.144 -19.3717 13.7275
      vertex 18.0604 -19.166 13.7275
    endloop
  endfacet
  facet normal 0 0 -1
    outer loop
      vertex 18.1764 -18.9926 13.7275
      vertex 18.2206 -19.0045 13.7275
      vertex 18.0604 -19.166 13.7275
    endloop
  endfacet
  facet normal 0 0 -1
    outer loop
      vertex 18.2206 -19.0045 13.7275
      vertex 18.4706 -19.166 13.7275
      vertex 18.0604 -19.166 13.7275
    endloop
  endfacet
  facet normal 0 0 -1
    outer loop
      vertex 18.2206 -19.0045 13.7275
      vertex 18.2649 -18.9926 13.7275
      vertex 18.4706 -19.166 13.7275
    endloop
  endfacet
  facet normal 0 0 -1
    outer loop
      vertex 18.2649 -18.9926 13.7275
      vertex 18.2973 -18.9602 13.7275
      vertex 18.4706 -19.166 13.7275
    endloop
  endfacet
  facet normal 0 0 -1
    outer loop
      vertex 18.4706 -19.166 13.7275
      vertex 18.2973 -18.9602 13.7275
      vertex 18.3091 -18.916 13.7275
    endloop
  endfacet
  facet normal -0.707147 -0.707066 0
    outer loop
      vertex 18.2649 -19.3393 13.7275
      vertex 18.2973 -19.3717 13.7275
      vertex 18.2973 -19.3717 13.915
    endloop
  endfacet
  facet normal -0.707147 -0.707066 0
    outer loop
      vertex 18.2649 -19.3393 13.915
      vertex 18.2649 -19.3393 13.7275
      vertex 18.2973 -19.3717 13.915
    endloop
  endfacet
  facet normal 0 0 -1
    outer loop
      vertex 18.0604 -14.791 13.7275
      vertex 18.4706 -14.791 13.7275
      vertex 18.2649 -18.8393 13.7275
    endloop
  endfacet
  facet normal 0 0 -1
    outer loop
      vertex 18.4706 -14.791 13.7275
      vertex 18.2973 -18.8717 13.7275
      vertex 18.2649 -18.8393 13.7275
    endloop
  endfacet
  facet normal 0 0 -1
    outer loop
      vertex 18.1321 -18.916 13.7275
      vertex 18.144 -18.9602 13.7275
      vertex 18.0604 -19.166 13.7275
    endloop
  endfacet
  facet normal 0 0 -1
    outer loop
      vertex 18.144 -18.9602 13.7275
      vertex 18.1764 -18.9926 13.7275
      vertex 18.0604 -19.166 13.7275
    endloop
  endfacet
  facet normal 0 0 -1
    outer loop
      vertex 18.6764 -19.3393 13.7275
      vertex 18.644 -19.3717 13.7275
      vertex 18.4706 -19.166 13.7275
    endloop
  endfacet
  facet normal 0.707147 -0.707066 0
    outer loop
      vertex 18.644 -19.3717 13.7275
      vertex 18.6764 -19.3393 13.7275
      vertex 18.6764 -19.3393 13.915
    endloop
  endfacet
  facet normal 0.707147 -0.707066 0
    outer loop
      vertex 18.644 -19.3717 13.915
      vertex 18.644 -19.3717 13.7275
      vertex 18.6764 -19.3393 13.915
    endloop
  endfacet
  facet normal 0 0 -1
    outer loop
      vertex 18.644 -18.9602 13.7275
      vertex 18.6764 -18.9926 13.7275
      vertex 18.4706 -19.166 13.7275
    endloop
  endfacet
  facet normal 0 0 -1
    outer loop
      vertex 18.6764 -18.9926 13.7275
      vertex 18.8809 -19.166 13.7275
      vertex 18.4706 -19.166 13.7275
    endloop
  endfacet
  facet normal 0 0 -1
    outer loop
      vertex 18.4706 -19.166 13.7275
      vertex 18.8809 -19.166 13.7275
      vertex 18.7206 -19.3275 13.7275
    endloop
  endfacet
  facet normal 0 0 -1
    outer loop
      vertex 18.8809 -19.166 13.7275
      vertex 18.7649 -19.3393 13.7275
      vertex 18.7206 -19.3275 13.7275
    endloop
  endfacet
  facet normal 0.707127 0.707086 0
    outer loop
      vertex 18.6764 -18.9926 13.7275
      vertex 18.644 -18.9602 13.7275
      vertex 18.644 -18.9602 13.915
    endloop
  endfacet
  facet normal 0.707127 0.707086 0
    outer loop
      vertex 18.6764 -18.9926 13.915
      vertex 18.6764 -18.9926 13.7275
      vertex 18.644 -18.9602 13.915
    endloop
  endfacet
  facet normal 0.258832 0.965922 0
    outer loop
      vertex 18.6764 -18.9926 13.7275
      vertex 18.6764 -18.9926 13.915
      vertex 18.7206 -19.0045 13.7275
    endloop
  endfacet
  facet normal 0.258832 0.965922 0
    outer loop
      vertex 18.6764 -18.9926 13.915
      vertex 18.7206 -19.0045 13.915
      vertex 18.7206 -19.0045 13.7275
    endloop
  endfacet
  facet normal 0 0 -1
    outer loop
      vertex 18.6764 -18.9926 13.7275
      vertex 18.7206 -19.0045 13.7275
      vertex 18.8809 -19.166 13.7275
    endloop
  endfacet
  facet normal 0 0 -1
    outer loop
      vertex 18.7206 -19.0045 13.7275
      vertex 18.7649 -18.9926 13.7275
      vertex 18.8809 -19.166 13.7275
    endloop
  endfacet
  facet normal 0 0 -1
    outer loop
      vertex 18.8809 -19.166 13.7275
      vertex 18.7649 -18.9926 13.7275
      vertex 18.7973 -18.9602 13.7275
    endloop
  endfacet
  facet normal -0.258794 -0.965933 0
    outer loop
      vertex 18.7206 -19.3275 13.7275
      vertex 18.7649 -19.3393 13.7275
      vertex 18.7649 -19.3393 13.915
    endloop
  endfacet
  facet normal -0.258794 -0.965933 0
    outer loop
      vertex 18.7206 -19.3275 13.915
      vertex 18.7206 -19.3275 13.7275
      vertex 18.7649 -19.3393 13.915
    endloop
  endfacet
  facet normal 0.258794 -0.965933 0
    outer loop
      vertex 18.7206 -19.3275 13.7275
      vertex 18.7206 -19.3275 13.915
      vertex 18.6764 -19.3393 13.7275
    endloop
  endfacet
  facet normal 0.258794 -0.965933 0
    outer loop
      vertex 18.7206 -19.3275 13.915
      vertex 18.6764 -19.3393 13.915
      vertex 18.6764 -19.3393 13.7275
    endloop
  endfacet
  facet normal 0 0 -1
    outer loop
      vertex 18.7206 -19.3275 13.7275
      vertex 18.6764 -19.3393 13.7275
      vertex 18.4706 -19.166 13.7275
    endloop
  endfacet
  facet normal 0 0 -1
    outer loop
      vertex 18.3091 -18.916 13.7275
      vertex 18.2973 -18.8717 13.7275
      vertex 18.4706 -19.166 13.7275
    endloop
  endfacet
  facet normal 0 0 -1
    outer loop
      vertex 18.2973 -18.8717 13.7275
      vertex 18.4706 -14.791 13.7275
      vertex 18.4706 -19.166 13.7275
    endloop
  endfacet
  facet normal 0 0 -1
    outer loop
      vertex 18.4706 -19.166 13.7275
      vertex 18.4706 -14.791 13.7275
      vertex 18.644 -18.8717 13.7275
    endloop
  endfacet
  facet normal 0 0 -1
    outer loop
      vertex 18.4706 -14.791 13.7275
      vertex 18.6764 -18.8393 13.7275
      vertex 18.644 -18.8717 13.7275
    endloop
  endfacet
  facet normal -0.96592 -0.258842 0
    outer loop
      vertex 18.2973 -18.8717 13.7275
      vertex 18.3091 -18.916 13.7275
      vertex 18.3091 -18.916 13.915
    endloop
  endfacet
  facet normal -0.96592 -0.258842 0
    outer loop
      vertex 18.2973 -18.8717 13.915
      vertex 18.2973 -18.8717 13.7275
      vertex 18.3091 -18.916 13.915
    endloop
  endfacet
  facet normal -0.707127 -0.707086 0
    outer loop
      vertex 18.2973 -18.8717 13.7275
      vertex 18.2973 -18.8717 13.915
      vertex 18.2649 -18.8393 13.7275
    endloop
  endfacet
  facet normal -0.707127 -0.707086 0
    outer loop
      vertex 18.2973 -18.8717 13.915
      vertex 18.2649 -18.8393 13.915
      vertex 18.2649 -18.8393 13.7275
    endloop
  endfacet
  facet normal 0 0 -1
    outer loop
      vertex 18.4706 -14.791 13.7275
      vertex 18.8809 -14.791 13.7275
      vertex 18.7206 -18.8275 13.7275
    endloop
  endfacet
  facet normal 0 0 -1
    outer loop
      vertex 18.8809 -14.791 13.7275
      vertex 18.7649 -18.8393 13.7275
      vertex 18.7206 -18.8275 13.7275
    endloop
  endfacet
  facet normal 0.707127 -0.707086 0
    outer loop
      vertex 18.644 -18.8717 13.7275
      vertex 18.6764 -18.8393 13.7275
      vertex 18.6764 -18.8393 13.915
    endloop
  endfacet
  facet normal 0.707127 -0.707086 0
    outer loop
      vertex 18.644 -18.8717 13.915
      vertex 18.644 -18.8717 13.7275
      vertex 18.6764 -18.8393 13.915
    endloop
  endfacet
  facet normal 0.96593 -0.258804 0
    outer loop
      vertex 18.644 -18.8717 13.7275
      vertex 18.644 -18.8717 13.915
      vertex 18.6321 -18.916 13.7275
    endloop
  endfacet
  facet normal 0.96593 -0.258804 0
    outer loop
      vertex 18.644 -18.8717 13.915
      vertex 18.6321 -18.916 13.915
      vertex 18.6321 -18.916 13.7275
    endloop
  endfacet
  facet normal 0 0 -1
    outer loop
      vertex 18.644 -18.8717 13.7275
      vertex 18.6321 -18.916 13.7275
      vertex 18.4706 -19.166 13.7275
    endloop
  endfacet
  facet normal 0 0 -1
    outer loop
      vertex 18.6321 -18.916 13.7275
      vertex 18.644 -18.9602 13.7275
      vertex 18.4706 -19.166 13.7275
    endloop
  endfacet
  facet normal -0.965922 0.258832 0
    outer loop
      vertex 18.2973 -18.9602 13.7275
      vertex 18.2973 -18.9602 13.915
      vertex 18.3091 -18.916 13.7275
    endloop
  endfacet
  facet normal -0.965922 0.258832 0
    outer loop
      vertex 18.2973 -18.9602 13.915
      vertex 18.3091 -18.916 13.915
      vertex 18.3091 -18.916 13.7275
    endloop
  endfacet
  facet normal 0.965933 0.258794 0
    outer loop
      vertex 18.6321 -18.916 13.7275
      vertex 18.6321 -18.916 13.915
      vertex 18.644 -18.9602 13.7275
    endloop
  endfacet
  facet normal 0.965933 0.258794 0
    outer loop
      vertex 18.6321 -18.916 13.915
      vertex 18.644 -18.9602 13.915
      vertex 18.644 -18.9602 13.7275
    endloop
  endfacet
  facet normal -0.707127 -0.707086 0
    outer loop
      vertex 18.7973 -19.3717 13.7275
      vertex 18.7973 -19.3717 13.915
      vertex 18.7649 -19.3393 13.7275
    endloop
  endfacet
  facet normal -0.707127 -0.707086 0
    outer loop
      vertex 18.7973 -19.3717 13.915
      vertex 18.7649 -19.3393 13.915
      vertex 18.7649 -19.3393 13.7275
    endloop
  endfacet
  facet normal 0 0 -1
    outer loop
      vertex 18.7973 -19.3717 13.7275
      vertex 18.7649 -19.3393 13.7275
      vertex 18.8809 -19.166 13.7275
    endloop
  endfacet
  facet normal -0.258832 0.965922 0
    outer loop
      vertex 18.7206 -19.0045 13.7275
      vertex 18.7206 -19.0045 13.915
      vertex 18.7649 -18.9926 13.7275
    endloop
  endfacet
  facet normal -0.258832 0.965922 0
    outer loop
      vertex 18.7206 -19.0045 13.915
      vertex 18.7649 -18.9926 13.915
      vertex 18.7649 -18.9926 13.7275
    endloop
  endfacet
  facet normal -0.965922 0.258832 0
    outer loop
      vertex 18.8091 -18.916 13.7275
      vertex 18.7973 -18.9602 13.7275
      vertex 18.7973 -18.9602 13.915
    endloop
  endfacet
  facet normal -0.965922 0.258832 0
    outer loop
      vertex 18.8091 -18.916 13.915
      vertex 18.8091 -18.916 13.7275
      vertex 18.7973 -18.9602 13.915
    endloop
  endfacet
  facet normal -0.96592 -0.258842 0
    outer loop
      vertex 18.8091 -18.916 13.7275
      vertex 18.8091 -18.916 13.915
      vertex 18.7973 -18.8717 13.7275
    endloop
  endfacet
  facet normal -0.96592 -0.258842 0
    outer loop
      vertex 18.8091 -18.916 13.915
      vertex 18.7973 -18.8717 13.915
      vertex 18.7973 -18.8717 13.7275
    endloop
  endfacet
  facet normal 0 0 -1
    outer loop
      vertex 18.8091 -18.916 13.7275
      vertex 18.7973 -18.8717 13.7275
      vertex 18.8809 -14.791 13.7275
    endloop
  endfacet
  facet normal 0 0 -1
    outer loop
      vertex 18.7973 -18.8717 13.7275
      vertex 18.7649 -18.8393 13.7275
      vertex 18.8809 -14.791 13.7275
    endloop
  endfacet
  facet normal -0.707107 0.707107 0
    outer loop
      vertex 18.7973 -18.9602 13.7275
      vertex 18.7649 -18.9926 13.7275
      vertex 18.7649 -18.9926 13.915
    endloop
  endfacet
  facet normal -0.707107 0.707107 0
    outer loop
      vertex 18.7973 -18.9602 13.915
      vertex 18.7973 -18.9602 13.7275
      vertex 18.7649 -18.9926 13.915
    endloop
  endfacet
  facet normal -1 0 0
    outer loop
      vertex 18.5106 -22.2889 13.7275
      vertex 18.5106 -22.541 13.7275
      vertex 18.5106 -22.416 13.757
    endloop
  endfacet
  facet normal -1 0 0
    outer loop
      vertex 18.5106 -22.541 13.7275
      vertex 18.5106 -22.4481 13.7656
      vertex 18.5106 -22.416 13.757
    endloop
  endfacet
  facet normal -1 0 0
    outer loop
      vertex 18.5106 -22.2889 13.915
      vertex 18.5106 -22.2889 13.7275
      vertex 18.5106 -22.3517 13.8212
    endloop
  endfacet
  facet normal -1 0 0
    outer loop
      vertex 18.5106 -22.2889 13.7275
      vertex 18.5106 -22.3603 13.7891
      vertex 18.5106 -22.3517 13.8212
    endloop
  endfacet
  facet normal 1 0 0
    outer loop
      vertex 18.8956 -22.541 13.915
      vertex 18.8956 -22.541 13.7275
      vertex 18.8956 -22.4802 13.8212
    endloop
  endfacet
  facet normal 1 0 0
    outer loop
      vertex 18.8956 -22.541 13.7275
      vertex 18.8956 -22.4716 13.7891
      vertex 18.8956 -22.4802 13.8212
    endloop
  endfacet
  facet normal -1 0 0
    outer loop
      vertex 18.5106 -22.541 13.7275
      vertex 18.5106 -22.541 13.915
      vertex 18.5106 -22.4802 13.8212
    endloop
  endfacet
  facet normal -1 0 0
    outer loop
      vertex 18.5106 -22.541 13.915
      vertex 18.5106 -22.4716 13.8534
      vertex 18.5106 -22.4802 13.8212
    endloop
  endfacet
  facet normal -1 0 0
    outer loop
      vertex 18.5106 -22.541 13.915
      vertex 18.5106 -22.2889 13.915
      vertex 18.5106 -22.416 13.8855
    endloop
  endfacet
  facet normal -1 0 0
    outer loop
      vertex 18.5106 -22.2889 13.915
      vertex 18.5106 -22.3839 13.8769
      vertex 18.5106 -22.416 13.8855
    endloop
  endfacet
  facet normal 0 -0.96593 -0.258802
    outer loop
      vertex 18.8956 -22.3517 13.8212
      vertex 18.8956 -22.3603 13.8534
      vertex 18.5106 -22.3603 13.8534
    endloop
  endfacet
  facet normal 0 -0.96593 -0.258802
    outer loop
      vertex 18.5106 -22.3517 13.8212
      vertex 18.8956 -22.3517 13.8212
      vertex 18.5106 -22.3603 13.8534
    endloop
  endfacet
  facet normal 0 -0.96593 0.258802
    outer loop
      vertex 18.8956 -22.3517 13.8212
      vertex 18.5106 -22.3517 13.8212
      vertex 18.8956 -22.3603 13.7891
    endloop
  endfacet
  facet normal 0 -0.96593 0.258802
    outer loop
      vertex 18.5106 -22.3517 13.8212
      vertex 18.5106 -22.3603 13.7891
      vertex 18.8956 -22.3603 13.7891
    endloop
  endfacet
  facet normal 1 0 0
    outer loop
      vertex 18.8956 -22.3517 13.8212
      vertex 18.8956 -22.3603 13.7891
      vertex 18.8956 -22.301 13.7275
    endloop
  endfacet
  facet normal 1 0 0
    outer loop
      vertex 18.8956 -22.3603 13.7891
      vertex 18.8956 -22.3839 13.7656
      vertex 18.8956 -22.301 13.7275
    endloop
  endfacet
  facet normal 0 -0.258842 0.96592
    outer loop
      vertex 18.8956 -22.416 13.757
      vertex 18.8956 -22.3839 13.7656
      vertex 18.5106 -22.3839 13.7656
    endloop
  endfacet
  facet normal 0 -0.258842 0.96592
    outer loop
      vertex 18.5106 -22.416 13.757
      vertex 18.8956 -22.416 13.757
      vertex 18.5106 -22.3839 13.7656
    endloop
  endfacet
  facet normal 0 0.258814 0.965927
    outer loop
      vertex 18.8956 -22.416 13.757
      vertex 18.5106 -22.416 13.757
      vertex 18.8956 -22.4481 13.7656
    endloop
  endfacet
  facet normal 0 0.258814 0.965927
    outer loop
      vertex 18.5106 -22.416 13.757
      vertex 18.5106 -22.4481 13.7656
      vertex 18.8956 -22.4481 13.7656
    endloop
  endfacet
  facet normal 1 0 0
    outer loop
      vertex 18.8956 -22.416 13.757
      vertex 18.8956 -22.4481 13.7656
      vertex 18.8956 -22.541 13.7275
    endloop
  endfacet
  facet normal 1 0 0
    outer loop
      vertex 18.8956 -22.4481 13.7656
      vertex 18.8956 -22.4716 13.7891
      vertex 18.8956 -22.541 13.7275
    endloop
  endfacet
  facet normal 0 -0.707093 0.707121
    outer loop
      vertex 18.8956 -22.3839 13.7656
      vertex 18.8956 -22.3603 13.7891
      vertex 18.5106 -22.3603 13.7891
    endloop
  endfacet
  facet normal 0 -0.707093 0.707121
    outer loop
      vertex 18.5106 -22.3839 13.7656
      vertex 18.8956 -22.3839 13.7656
      vertex 18.5106 -22.3603 13.7891
    endloop
  endfacet
  facet normal 0 0 1
    outer loop
      vertex 18.7649 -19.3393 13.915
      vertex 18.7973 -19.3717 13.915
      vertex 18.8809 -19.166 13.915
    endloop
  endfacet
  facet normal 0 0 1
    outer loop
      vertex 18.8809 -14.791 13.915
      vertex 18.4706 -14.791 13.915
      vertex 18.6764 -18.8393 13.915
    endloop
  endfacet
  facet normal 0 0 1
    outer loop
      vertex 18.4706 -14.791 13.915
      vertex 18.644 -18.8717 13.915
      vertex 18.6764 -18.8393 13.915
    endloop
  endfacet
  facet normal 0 0 1
    outer loop
      vertex 18.7649 -18.9926 13.915
      vertex 18.7206 -19.0045 13.915
      vertex 18.8809 -19.166 13.915
    endloop
  endfacet
  facet normal 0 0 1
    outer loop
      vertex 18.7206 -19.0045 13.915
      vertex 18.4706 -19.166 13.915
      vertex 18.8809 -19.166 13.915
    endloop
  endfacet
  facet normal 0 0 1
    outer loop
      vertex 18.7206 -19.0045 13.915
      vertex 18.6764 -18.9926 13.915
      vertex 18.4706 -19.166 13.915
    endloop
  endfacet
  facet normal 0 0 1
    outer loop
      vertex 18.6764 -18.9926 13.915
      vertex 18.644 -18.9602 13.915
      vertex 18.4706 -19.166 13.915
    endloop
  endfacet
  facet normal 0 0 1
    outer loop
      vertex 18.4706 -19.166 13.915
      vertex 18.644 -18.9602 13.915
      vertex 18.6321 -18.916 13.915
    endloop
  endfacet
  facet normal 0 0 1
    outer loop
      vertex 18.7973 -18.9602 13.915
      vertex 18.7649 -18.9926 13.915
      vertex 18.8809 -19.166 13.915
    endloop
  endfacet
  facet normal 0 0 1
    outer loop
      vertex 18.8091 -18.916 13.915
      vertex 18.7973 -18.9602 13.915
      vertex 18.8809 -19.166 13.915
    endloop
  endfacet
  facet normal 0 0.258814 -0.965927
    outer loop
      vertex 18.8956 -22.416 13.8855
      vertex 18.8956 -22.4481 13.8769
      vertex 18.5106 -22.4481 13.8769
    endloop
  endfacet
  facet normal 0 0.258814 -0.965927
    outer loop
      vertex 18.5106 -22.416 13.8855
      vertex 18.8956 -22.416 13.8855
      vertex 18.5106 -22.4481 13.8769
    endloop
  endfacet
  facet normal 0 -0.258842 -0.96592
    outer loop
      vertex 18.8956 -22.416 13.8855
      vertex 18.5106 -22.416 13.8855
      vertex 18.8956 -22.3839 13.8769
    endloop
  endfacet
  facet normal 0 -0.258842 -0.96592
    outer loop
      vertex 18.5106 -22.416 13.8855
      vertex 18.5106 -22.3839 13.8769
      vertex 18.8956 -22.3839 13.8769
    endloop
  endfacet
  facet normal 1 0 0
    outer loop
      vertex 18.8956 -22.416 13.8855
      vertex 18.8956 -22.3839 13.8769
      vertex 18.8956 -22.301 13.915
    endloop
  endfacet
  facet normal 1 0 0
    outer loop
      vertex 18.8956 -22.3839 13.8769
      vertex 18.8956 -22.3603 13.8534
      vertex 18.8956 -22.301 13.915
    endloop
  endfacet
  facet normal 0 -0.707093 -0.707121
    outer loop
      vertex 18.8956 -22.3603 13.8534
      vertex 18.8956 -22.3839 13.8769
      vertex 18.5106 -22.3839 13.8769
    endloop
  endfacet
  facet normal 0 -0.707093 -0.707121
    outer loop
      vertex 18.5106 -22.3603 13.8534
      vertex 18.8956 -22.3603 13.8534
      vertex 18.5106 -22.3839 13.8769
    endloop
  endfacet
  facet normal 1 0 0
    outer loop
      vertex 18.4306 -22.3603 13.7891
      vertex 18.4306 -22.3839 13.7656
      vertex 18.4306 -22.2889 13.7275
    endloop
  endfacet
  facet normal 1 0 0
    outer loop
      vertex 18.4306 -22.3517 13.8212
      vertex 18.4306 -22.3603 13.7891
      vertex 18.4306 -22.2889 13.7275
    endloop
  endfacet
  facet normal 1 0 0
    outer loop
      vertex 18.4306 -22.3603 13.8534
      vertex 18.4306 -22.3517 13.8212
      vertex 18.4306 -22.2889 13.7275
    endloop
  endfacet
  facet normal 1 0 0
    outer loop
      vertex 18.4306 -22.416 13.757
      vertex 18.4306 -22.4481 13.7656
      vertex 18.4306 -22.541 13.7275
    endloop
  endfacet
  facet normal 1 0 0
    outer loop
      vertex 18.4306 -22.4481 13.7656
      vertex 18.4306 -22.4716 13.7891
      vertex 18.4306 -22.541 13.7275
    endloop
  endfacet
  facet normal -1 0 0
    outer loop
      vertex 17.8456 -22.4716 13.7891
      vertex 17.8456 -22.4481 13.7656
      vertex 17.8456 -22.541 13.7275
    endloop
  endfacet
  facet normal 0 0.707093 0.707121
    outer loop
      vertex 17.8456 -22.4481 13.7656
      vertex 17.8456 -22.4716 13.7891
      vertex 18.4306 -22.4716 13.7891
    endloop
  endfacet
  facet normal 0 0.707093 0.707121
    outer loop
      vertex 18.4306 -22.4481 13.7656
      vertex 17.8456 -22.4481 13.7656
      vertex 18.4306 -22.4716 13.7891
    endloop
  endfacet
  facet normal 0 0.96593 -0.258802
    outer loop
      vertex 17.8456 -22.4802 13.8212
      vertex 17.8456 -22.4716 13.8534
      vertex 18.4306 -22.4716 13.8534
    endloop
  endfacet
  facet normal 0 0.96593 -0.258802
    outer loop
      vertex 18.4306 -22.4802 13.8212
      vertex 17.8456 -22.4802 13.8212
      vertex 18.4306 -22.4716 13.8534
    endloop
  endfacet
  facet normal 0 0.96593 0.258802
    outer loop
      vertex 17.8456 -22.4802 13.8212
      vertex 18.4306 -22.4802 13.8212
      vertex 17.8456 -22.4716 13.7891
    endloop
  endfacet
  facet normal 0 0.96593 0.258802
    outer loop
      vertex 18.4306 -22.4802 13.8212
      vertex 18.4306 -22.4716 13.7891
      vertex 17.8456 -22.4716 13.7891
    endloop
  endfacet
  facet normal -1 0 0
    outer loop
      vertex 17.8456 -22.4802 13.8212
      vertex 17.8456 -22.4716 13.7891
      vertex 17.8456 -22.541 13.7275
    endloop
  endfacet
  facet normal 1 0 0
    outer loop
      vertex 18.4306 -22.416 13.8855
      vertex 18.4306 -22.3839 13.8769
      vertex 18.4306 -22.2889 13.915
    endloop
  endfacet
  facet normal 0 0.707093 -0.707121
    outer loop
      vertex 17.8456 -22.4481 13.8769
      vertex 18.4306 -22.4481 13.8769
      vertex 17.8456 -22.4716 13.8534
    endloop
  endfacet
  facet normal 0 0.707093 -0.707121
    outer loop
      vertex 18.4306 -22.4481 13.8769
      vertex 18.4306 -22.4716 13.8534
      vertex 17.8456 -22.4716 13.8534
    endloop
  endfacet
  facet normal 0 0 -1
    outer loop
      vertex 18.1764 -18.8393 13.7275
      vertex 18.144 -18.8717 13.7275
      vertex 18.0604 -14.791 13.7275
    endloop
  endfacet
  facet normal 0.707107 -0.707107 0
    outer loop
      vertex 18.144 -18.8717 13.7275
      vertex 18.1764 -18.8393 13.7275
      vertex 18.1764 -18.8393 13.915
    endloop
  endfacet
  facet normal 0.707107 -0.707107 0
    outer loop
      vertex 18.144 -18.8717 13.915
      vertex 18.144 -18.8717 13.7275
      vertex 18.1764 -18.8393 13.915
    endloop
  endfacet
  facet normal -0.258794 -0.965933 0
    outer loop
      vertex 18.2649 -18.8393 13.7275
      vertex 18.2649 -18.8393 13.915
      vertex 18.2206 -18.8275 13.7275
    endloop
  endfacet
  facet normal -0.258794 -0.965933 0
    outer loop
      vertex 18.2649 -18.8393 13.915
      vertex 18.2206 -18.8275 13.915
      vertex 18.2206 -18.8275 13.7275
    endloop
  endfacet
  facet normal 0 0 -1
    outer loop
      vertex 18.2649 -18.8393 13.7275
      vertex 18.2206 -18.8275 13.7275
      vertex 18.0604 -14.791 13.7275
    endloop
  endfacet
  facet normal 0 0 -1
    outer loop
      vertex 18.2206 -18.8275 13.7275
      vertex 18.1764 -18.8393 13.7275
      vertex 18.0604 -14.791 13.7275
    endloop
  endfacet
  facet normal 0.258794 -0.965933 0
    outer loop
      vertex 18.1764 -18.8393 13.7275
      vertex 18.2206 -18.8275 13.7275
      vertex 18.2206 -18.8275 13.915
    endloop
  endfacet
  facet normal 0.258794 -0.965933 0
    outer loop
      vertex 18.1764 -18.8393 13.915
      vertex 18.1764 -18.8393 13.7275
      vertex 18.2206 -18.8275 13.915
    endloop
  endfacet
  facet normal 0 0 1
    outer loop
      vertex 18.2206 -18.8275 13.915
      vertex 18.2649 -18.8393 13.915
      vertex 18.4706 -14.791 13.915
    endloop
  endfacet
  facet normal 0 0 1
    outer loop
      vertex 18.2649 -18.8393 13.915
      vertex 18.2973 -18.8717 13.915
      vertex 18.4706 -14.791 13.915
    endloop
  endfacet
  facet normal 0 0 1
    outer loop
      vertex 18.4706 -14.791 13.915
      vertex 18.2973 -18.8717 13.915
      vertex 18.4706 -19.166 13.915
    endloop
  endfacet
  facet normal 0 0 1
    outer loop
      vertex 18.2973 -18.8717 13.915
      vertex 18.3091 -18.916 13.915
      vertex 18.4706 -19.166 13.915
    endloop
  endfacet
  facet normal 0 0 1
    outer loop
      vertex 18.4706 -19.166 13.915
      vertex 18.3091 -18.916 13.915
      vertex 18.2973 -18.9602 13.915
    endloop
  endfacet
  facet normal 0 0 -1
    outer loop
      vertex 18.7206 -18.8275 13.7275
      vertex 18.6764 -18.8393 13.7275
      vertex 18.4706 -14.791 13.7275
    endloop
  endfacet
  facet normal 0.258794 -0.965933 0
    outer loop
      vertex 18.6764 -18.8393 13.7275
      vertex 18.7206 -18.8275 13.7275
      vertex 18.7206 -18.8275 13.915
    endloop
  endfacet
  facet normal 0.258794 -0.965933 0
    outer loop
      vertex 18.6764 -18.8393 13.915
      vertex 18.6764 -18.8393 13.7275
      vertex 18.7206 -18.8275 13.915
    endloop
  endfacet
  facet normal -0.258794 -0.965933 0
    outer loop
      vertex 18.7206 -18.8275 13.7275
      vertex 18.7649 -18.8393 13.7275
      vertex 18.7649 -18.8393 13.915
    endloop
  endfacet
  facet normal -0.258794 -0.965933 0
    outer loop
      vertex 18.7206 -18.8275 13.915
      vertex 18.7206 -18.8275 13.7275
      vertex 18.7649 -18.8393 13.915
    endloop
  endfacet
  facet normal 1 0 0
    outer loop
      vertex 18.4306 -22.4802 13.8212
      vertex 18.4306 -22.4716 13.8534
      vertex 18.4306 -22.541 13.915
    endloop
  endfacet
  facet normal 1 0 0
    outer loop
      vertex 18.4306 -22.4716 13.8534
      vertex 18.4306 -22.4481 13.8769
      vertex 18.4306 -22.541 13.915
    endloop
  endfacet
  facet normal 0 0 1
    outer loop
      vertex 18.6321 -18.916 13.915
      vertex 18.644 -18.8717 13.915
      vertex 18.4706 -19.166 13.915
    endloop
  endfacet
  facet normal 0 0 1
    outer loop
      vertex 18.644 -18.8717 13.915
      vertex 18.4706 -14.791 13.915
      vertex 18.4706 -19.166 13.915
    endloop
  endfacet
  facet normal 0 0 1
    outer loop
      vertex 18.6764 -18.8393 13.915
      vertex 18.7206 -18.8275 13.915
      vertex 18.8809 -14.791 13.915
    endloop
  endfacet
  facet normal 0 0 1
    outer loop
      vertex 18.7206 -18.8275 13.915
      vertex 18.7649 -18.8393 13.915
      vertex 18.8809 -14.791 13.915
    endloop
  endfacet
  facet normal 0 0 1
    outer loop
      vertex 18.8809 -14.791 13.915
      vertex 18.7649 -18.8393 13.915
      vertex 18.7973 -18.8717 13.915
    endloop
  endfacet
  facet normal -0.707107 -0.707107 0
    outer loop
      vertex 18.7649 -18.8393 13.7275
      vertex 18.7973 -18.8717 13.7275
      vertex 18.7973 -18.8717 13.915
    endloop
  endfacet
  facet normal -0.707107 -0.707107 0
    outer loop
      vertex 18.7649 -18.8393 13.915
      vertex 18.7649 -18.8393 13.7275
      vertex 18.7973 -18.8717 13.915
    endloop
  endfacet
  facet normal -1 0 0
    outer loop
      vertex 18.5106 -22.416 13.757
      vertex 18.5106 -22.3839 13.7656
      vertex 18.5106 -22.2889 13.7275
    endloop
  endfacet
  facet normal -1 0 0
    outer loop
      vertex 18.5106 -22.3839 13.7656
      vertex 18.5106 -22.3603 13.7891
      vertex 18.5106 -22.2889 13.7275
    endloop
  endfacet
  facet normal -1 0 0
    outer loop
      vertex 18.5106 -22.4716 13.7891
      vertex 18.5106 -22.4481 13.7656
      vertex 18.5106 -22.541 13.7275
    endloop
  endfacet
  facet normal 0 0.707093 0.707121
    outer loop
      vertex 18.5106 -22.4481 13.7656
      vertex 18.5106 -22.4716 13.7891
      vertex 18.8956 -22.4716 13.7891
    endloop
  endfacet
  facet normal 0 0.707093 0.707121
    outer loop
      vertex 18.8956 -22.4481 13.7656
      vertex 18.5106 -22.4481 13.7656
      vertex 18.8956 -22.4716 13.7891
    endloop
  endfacet
  facet normal -1 0 0
    outer loop
      vertex 18.5106 -22.3517 13.8212
      vertex 18.5106 -22.3603 13.8534
      vertex 18.5106 -22.2889 13.915
    endloop
  endfacet
  facet normal -1 0 0
    outer loop
      vertex 18.5106 -22.3603 13.8534
      vertex 18.5106 -22.3839 13.8769
      vertex 18.5106 -22.2889 13.915
    endloop
  endfacet
  facet normal -1 0 0
    outer loop
      vertex 18.5106 -22.4802 13.8212
      vertex 18.5106 -22.4716 13.7891
      vertex 18.5106 -22.541 13.7275
    endloop
  endfacet
  facet normal 0 0.96593 0.258802
    outer loop
      vertex 18.5106 -22.4716 13.7891
      vertex 18.5106 -22.4802 13.8212
      vertex 18.8956 -22.4802 13.8212
    endloop
  endfacet
  facet normal 0 0.96593 0.258802
    outer loop
      vertex 18.8956 -22.4716 13.7891
      vertex 18.5106 -22.4716 13.7891
      vertex 18.8956 -22.4802 13.8212
    endloop
  endfacet
  facet normal 0 0.96593 -0.258802
    outer loop
      vertex 18.5106 -22.4802 13.8212
      vertex 18.5106 -22.4716 13.8534
      vertex 18.8956 -22.4716 13.8534
    endloop
  endfacet
  facet normal 0 0.96593 -0.258802
    outer loop
      vertex 18.8956 -22.4802 13.8212
      vertex 18.5106 -22.4802 13.8212
      vertex 18.8956 -22.4716 13.8534
    endloop
  endfacet
  facet normal -1 0 0
    outer loop
      vertex 18.5106 -22.416 13.8855
      vertex 18.5106 -22.4481 13.8769
      vertex 18.5106 -22.541 13.915
    endloop
  endfacet
  facet normal -1 0 0
    outer loop
      vertex 18.5106 -22.4481 13.8769
      vertex 18.5106 -22.4716 13.8534
      vertex 18.5106 -22.541 13.915
    endloop
  endfacet
  facet normal 1 0 0
    outer loop
      vertex 18.8956 -22.4802 13.8212
      vertex 18.8956 -22.4716 13.8534
      vertex 18.8956 -22.541 13.915
    endloop
  endfacet
  facet normal 1 0 0
    outer loop
      vertex 18.8956 -22.4716 13.8534
      vertex 18.8956 -22.4481 13.8769
      vertex 18.8956 -22.541 13.915
    endloop
  endfacet
  facet normal 0 0.707093 -0.707121
    outer loop
      vertex 18.5106 -22.4716 13.8534
      vertex 18.5106 -22.4481 13.8769
      vertex 18.8956 -22.4481 13.8769
    endloop
  endfacet
  facet normal 0 0.707093 -0.707121
    outer loop
      vertex 18.8956 -22.4716 13.8534
      vertex 18.5106 -22.4716 13.8534
      vertex 18.8956 -22.4481 13.8769
    endloop
  endfacet
  facet normal 0 0 -1
    outer loop
      vertex 17.9406 -21.644 13.7275
      vertex 18.0604 -22.0925 13.7275
      vertex 17.8691 -22.0925 13.7275
    endloop
  endfacet
  facet normal 0 0 -1
    outer loop
      vertex 18.1093 -21.8159 13.7275
      vertex 18.0604 -22.0925 13.7275
      vertex 18.0604 -20.5262 13.7275
    endloop
  endfacet
  facet normal 0 0 -1
    outer loop
      vertex 18.0604 -22.0925 13.7275
      vertex 17.9886 -21.596 13.7275
      vertex 18.0604 -20.5262 13.7275
    endloop
  endfacet
  facet normal 0 0 -1
    outer loop
      vertex 18.0604 -22.0925 13.7275
      vertex 18.0604 -22.541 13.7275
      vertex 17.8691 -22.0925 13.7275
    endloop
  endfacet
  facet normal 0 0 1
    outer loop
      vertex 18.8809 -22.541 13.915
      vertex 18.8956 -22.301 13.915
      vertex 18.8809 -22.0925 13.915
    endloop
  endfacet
  facet normal 0 0 1
    outer loop
      vertex 18.6321 -19.416 13.915
      vertex 18.4706 -19.166 13.915
      vertex 18.4706 -20.5262 13.915
    endloop
  endfacet
  facet normal 0 0 1
    outer loop
      vertex 18.4706 -19.166 13.915
      vertex 18.3091 -19.416 13.915
      vertex 18.4706 -20.5262 13.915
    endloop
  endfacet
endsolid Onshape
