solid Onshape
  facet normal -0.991095 0.104573 -0.0824344
    outer loop
      vertex 17.8687 -23.993 8.8029
      vertex 17.867 -24.0085 8.80276
      vertex 17.8621 -23.993 8.88137
    endloop
  endfacet
  facet normal -0.991095 0.104573 -0.0824344
    outer loop
      vertex 17.867 -24.0085 8.80276
      vertex 17.8605 -24.0085 8.88123
      vertex 17.8621 -23.993 8.88137
    endloop
  endfacet
  facet normal 0.082867 -3.09011e-5 -0.996561
    outer loop
      vertex 17.867 -24.0085 8.80276
      vertex 17.8687 -23.993 8.8029
      vertex 17.9122 -24.0256 8.80651
    endloop
  endfacet
  facet normal 0.0828901 0 -0.996559
    outer loop
      vertex 17.8687 -23.993 8.8029
      vertex 17.9122 -23.9915 8.80651
      vertex 17.9122 -24.0256 8.80651
    endloop
  endfacet
  facet normal 0.0828912 3.34488e-5 -0.996559
    outer loop
      vertex 17.8687 -24.0241 8.8029
      vertex 17.867 -24.0085 8.80276
      vertex 17.9122 -24.0256 8.80651
    endloop
  endfacet
  facet normal -0.991095 -0.104573 -0.0824344
    outer loop
      vertex 17.867 -24.0085 8.80276
      vertex 17.8687 -24.0241 8.8029
      vertex 17.8605 -24.0085 8.88123
    endloop
  endfacet
  facet normal -0.991095 -0.104573 -0.0824344
    outer loop
      vertex 17.8687 -24.0241 8.8029
      vertex 17.8621 -24.0241 8.88137
      vertex 17.8605 -24.0085 8.88123
    endloop
  endfacet
  facet normal -0.0828648 -3.06631e-5 0.996561
    outer loop
      vertex 17.8605 -24.0085 8.88123
      vertex 17.8621 -24.0241 8.88137
      vertex 17.8987 -24.0192 8.8844
    endloop
  endfacet
  facet normal -0.0828695 5.35596e-6 0.99656
    outer loop
      vertex 17.8621 -24.0241 8.88137
      vertex 17.867 -24.0389 8.88177
      vertex 17.8987 -24.0192 8.8844
    endloop
  endfacet
  facet normal -0.0828906 3.9568e-5 0.996559
    outer loop
      vertex 17.8987 -24.0192 8.8844
      vertex 17.867 -24.0389 8.88177
      vertex 17.9031 -24.0291 8.88478
    endloop
  endfacet
  facet normal -0.0828677 -4.54762e-5 0.996561
    outer loop
      vertex 17.867 -24.0389 8.88177
      vertex 17.8747 -24.0525 8.88241
      vertex 17.9031 -24.0291 8.88478
    endloop
  endfacet
  facet normal -0.0829272 2.73033e-5 0.996556
    outer loop
      vertex 17.9031 -24.0291 8.88478
      vertex 17.8747 -24.0525 8.88241
      vertex 17.9102 -24.0373 8.88537
    endloop
  endfacet
  facet normal -0.082923 1.74972e-5 0.996556
    outer loop
      vertex 17.8747 -24.0525 8.88241
      vertex 17.8852 -24.0641 8.88328
      vertex 17.9102 -24.0373 8.88537
    endloop
  endfacet
  facet normal -0.0828974 -6.55576e-6 0.996558
    outer loop
      vertex 17.9102 -24.0373 8.88537
      vertex 17.8852 -24.0641 8.88328
      vertex 17.9193 -24.0431 8.88612
    endloop
  endfacet
  facet normal -0.0828949 -1.07431e-5 0.996558
    outer loop
      vertex 17.8852 -24.0641 8.88328
      vertex 17.8978 -24.0733 8.88433
      vertex 17.9193 -24.0431 8.88612
    endloop
  endfacet
  facet normal -0.0828736 -2.60293e-5 0.99656
    outer loop
      vertex 17.9193 -24.0431 8.88612
      vertex 17.8978 -24.0733 8.88433
      vertex 17.912 -24.0797 8.88551
    endloop
  endfacet
  facet normal -0.0828609 3.025e-5 0.996561
    outer loop
      vertex 17.8621 -23.993 8.88137
      vertex 17.8605 -24.0085 8.88123
      vertex 17.8971 -24.0085 8.88428
    endloop
  endfacet
  facet normal -0.0828609 -1.66385e-5 0.996561
    outer loop
      vertex 17.8605 -24.0085 8.88123
      vertex 17.8987 -24.0192 8.8844
      vertex 17.8971 -24.0085 8.88428
    endloop
  endfacet
  facet normal -0.0828695 -5.3566e-6 0.99656
    outer loop
      vertex 17.867 -23.9781 8.88177
      vertex 17.8621 -23.993 8.88137
      vertex 17.8987 -23.9978 8.8844
    endloop
  endfacet
  facet normal -0.0828665 1.74537e-5 0.996561
    outer loop
      vertex 17.8621 -23.993 8.88137
      vertex 17.8971 -24.0085 8.88428
      vertex 17.8987 -23.9978 8.8844
    endloop
  endfacet
  facet normal -0.947792 0.308992 -0.0788327
    outer loop
      vertex 17.8621 -23.993 8.88137
      vertex 17.867 -23.9781 8.88177
      vertex 17.8687 -23.993 8.8029
    endloop
  endfacet
  facet normal -0.947828 0.308884 -0.0788132
    outer loop
      vertex 17.867 -23.9781 8.88177
      vertex 17.8735 -23.9781 8.8033
      vertex 17.8687 -23.993 8.8029
    endloop
  endfacet
  facet normal 0.0828897 -9.14604e-6 -0.996559
    outer loop
      vertex 17.8735 -24.0389 8.8033
      vertex 17.8687 -24.0241 8.8029
      vertex 17.9122 -24.0256 8.80651
    endloop
  endfacet
  facet normal -0.947838 -0.308849 -0.0788365
    outer loop
      vertex 17.8687 -24.0241 8.8029
      vertex 17.8735 -24.0389 8.8033
      vertex 17.8621 -24.0241 8.88137
    endloop
  endfacet
  facet normal -0.947805 -0.308957 -0.0788113
    outer loop
      vertex 17.8735 -24.0389 8.8033
      vertex 17.867 -24.0389 8.88177
      vertex 17.8621 -24.0241 8.88137
    endloop
  endfacet
  facet normal 0.0828897 9.14733e-6 -0.996559
    outer loop
      vertex 17.8687 -23.993 8.8029
      vertex 17.8735 -23.9781 8.8033
      vertex 17.9122 -23.9915 8.80651
    endloop
  endfacet
  facet normal 0.0828868 5.72544e-7 -0.996559
    outer loop
      vertex 17.8735 -23.9781 8.8033
      vertex 17.8813 -23.9645 8.80395
      vertex 17.9122 -23.9915 8.80651
    endloop
  endfacet
  facet normal 0.0828721 -1.63827e-5 -0.99656
    outer loop
      vertex 17.9122 -23.9915 8.80651
      vertex 17.8813 -23.9645 8.80395
      vertex 17.8917 -23.9529 8.80481
    endloop
  endfacet
  facet normal 0.996562 0 0.0828528
    outer loop
      vertex 17.9122 -24.0256 8.80651
      vertex 17.9122 -23.9915 8.80651
      vertex 17.9081 -23.9915 8.85556
    endloop
  endfacet
  facet normal 0.996562 0 0.0828528
    outer loop
      vertex 17.9081 -24.0256 8.85556
      vertex 17.9122 -24.0256 8.80651
      vertex 17.9081 -23.9915 8.85556
    endloop
  endfacet
  facet normal 0.498302 0.866013 0.0414282
    outer loop
      vertex 17.9122 -24.0256 8.80651
      vertex 17.9081 -24.0256 8.85556
      vertex 17.9416 -24.0426 8.80896
    endloop
  endfacet
  facet normal 0.498323 0.866 0.0414481
    outer loop
      vertex 17.9081 -24.0256 8.85556
      vertex 17.9375 -24.0426 8.85801
      vertex 17.9416 -24.0426 8.80896
    endloop
  endfacet
  facet normal 0.0828906 2.9599e-6 -0.996559
    outer loop
      vertex 17.9122 -24.0256 8.80651
      vertex 17.9416 -24.0426 8.80896
      vertex 17.9043 -24.0733 8.80586
    endloop
  endfacet
  facet normal 0.0829079 -1.82521e-5 -0.996557
    outer loop
      vertex 17.9416 -24.0426 8.80896
      vertex 17.9185 -24.0797 8.80705
      vertex 17.9043 -24.0733 8.80586
    endloop
  endfacet
  facet normal -0.986413 -0.142333 -0.082036
    outer loop
      vertex 17.8971 -24.0085 8.88428
      vertex 17.8987 -24.0192 8.8844
      vertex 17.8808 -24.0085 9.08045
    endloop
  endfacet
  facet normal -0.986413 -0.142333 -0.082036
    outer loop
      vertex 17.8987 -24.0192 8.8844
      vertex 17.8823 -24.0192 9.08058
      vertex 17.8808 -24.0085 9.08045
    endloop
  endfacet
  facet normal -0.986413 0.142333 -0.082036
    outer loop
      vertex 17.8987 -23.9978 8.8844
      vertex 17.8971 -24.0085 8.88428
      vertex 17.8823 -23.9978 9.08058
    endloop
  endfacet
  facet normal -0.986413 0.142333 -0.082036
    outer loop
      vertex 17.8971 -24.0085 8.88428
      vertex 17.8808 -24.0085 9.08045
      vertex 17.8823 -23.9978 9.08058
    endloop
  endfacet
  facet normal -0.906502 -0.415417 -0.0753901
    outer loop
      vertex 17.8987 -24.0192 8.8844
      vertex 17.9031 -24.0291 8.88478
      vertex 17.8823 -24.0192 9.08058
    endloop
  endfacet
  facet normal -0.906563 -0.415281 -0.0754034
    outer loop
      vertex 17.9031 -24.0291 8.88478
      vertex 17.8868 -24.0291 9.08095
      vertex 17.8823 -24.0192 9.08058
    endloop
  endfacet
  facet normal -0.0828677 4.54708e-5 0.996561
    outer loop
      vertex 17.8747 -23.9645 8.88241
      vertex 17.867 -23.9781 8.88177
      vertex 17.9031 -23.9879 8.88478
    endloop
  endfacet
  facet normal -0.0828906 -3.95747e-5 0.996559
    outer loop
      vertex 17.867 -23.9781 8.88177
      vertex 17.8987 -23.9978 8.8844
      vertex 17.9031 -23.9879 8.88478
    endloop
  endfacet
  facet normal -0.863073 0.499955 -0.0717657
    outer loop
      vertex 17.867 -23.9781 8.88177
      vertex 17.8747 -23.9645 8.88241
      vertex 17.8735 -23.9781 8.8033
    endloop
  endfacet
  facet normal -0.863018 0.500048 -0.0717824
    outer loop
      vertex 17.8747 -23.9645 8.88241
      vertex 17.8813 -23.9645 8.80395
      vertex 17.8735 -23.9781 8.8033
    endloop
  endfacet
  facet normal -0.906471 0.415482 -0.0753958
    outer loop
      vertex 17.9031 -23.9879 8.88478
      vertex 17.8987 -23.9978 8.8844
      vertex 17.8868 -23.9879 9.08095
    endloop
  endfacet
  facet normal -0.906534 0.415346 -0.0753928
    outer loop
      vertex 17.8987 -23.9978 8.8844
      vertex 17.8823 -23.9978 9.08058
      vertex 17.8868 -23.9879 9.08095
    endloop
  endfacet
  facet normal 0.0828868 -5.72583e-7 -0.996559
    outer loop
      vertex 17.8813 -24.0525 8.80395
      vertex 17.8735 -24.0389 8.8033
      vertex 17.9122 -24.0256 8.80651
    endloop
  endfacet
  facet normal -0.86299 -0.500099 -0.0717588
    outer loop
      vertex 17.8735 -24.0389 8.8033
      vertex 17.8813 -24.0525 8.80395
      vertex 17.867 -24.0389 8.88177
    endloop
  endfacet
  facet normal -0.863041 -0.500007 -0.0717844
    outer loop
      vertex 17.8813 -24.0525 8.80395
      vertex 17.8747 -24.0525 8.88241
      vertex 17.867 -24.0389 8.88177
    endloop
  endfacet
  facet normal 0.0828906 -2.96003e-6 -0.996559
    outer loop
      vertex 17.9416 -23.9744 8.80896
      vertex 17.9122 -23.9915 8.80651
      vertex 17.9043 -23.9437 8.80586
    endloop
  endfacet
  facet normal 0.0829002 -1.35971e-6 -0.996558
    outer loop
      vertex 17.9122 -23.9915 8.80651
      vertex 17.8917 -23.9529 8.80481
      vertex 17.9043 -23.9437 8.80586
    endloop
  endfacet
  facet normal 0.49826 -0.866037 0.0414428
    outer loop
      vertex 17.9122 -23.9915 8.80651
      vertex 17.9416 -23.9744 8.80896
      vertex 17.9375 -23.9744 8.85801
    endloop
  endfacet
  facet normal 0.498284 -0.866024 0.0414267
    outer loop
      vertex 17.9081 -23.9915 8.85556
      vertex 17.9122 -23.9915 8.80651
      vertex 17.9375 -23.9744 8.85801
    endloop
  endfacet
  facet normal 0.0828721 1.63837e-5 -0.99656
    outer loop
      vertex 17.8917 -24.0641 8.80481
      vertex 17.8813 -24.0525 8.80395
      vertex 17.9122 -24.0256 8.80651
    endloop
  endfacet
  facet normal -0.740546 -0.669176 -0.0615957
    outer loop
      vertex 17.8813 -24.0525 8.80395
      vertex 17.8917 -24.0641 8.80481
      vertex 17.8747 -24.0525 8.88241
    endloop
  endfacet
  facet normal -0.740544 -0.669179 -0.0615948
    outer loop
      vertex 17.8917 -24.0641 8.80481
      vertex 17.8852 -24.0641 8.88328
      vertex 17.8747 -24.0525 8.88241
    endloop
  endfacet
  facet normal 0.0829254 0 -0.996556
    outer loop
      vertex 17.9081 -23.9915 8.85556
      vertex 17.9375 -23.9744 8.85801
      vertex 17.9081 -24.0256 8.85556
    endloop
  endfacet
  facet normal 0.082898 1.58752e-5 -0.996558
    outer loop
      vertex 17.9375 -23.9744 8.85801
      vertex 17.9669 -23.9915 8.86045
      vertex 17.9081 -24.0256 8.85556
    endloop
  endfacet
  facet normal 0.0829163 -1.58749e-5 -0.996557
    outer loop
      vertex 17.9081 -24.0256 8.85556
      vertex 17.9669 -23.9915 8.86045
      vertex 17.9375 -24.0426 8.85801
    endloop
  endfacet
  facet normal 0.0828889 0 -0.996559
    outer loop
      vertex 17.9669 -23.9915 8.86045
      vertex 17.9669 -24.0256 8.86045
      vertex 17.9375 -24.0426 8.85801
    endloop
  endfacet
  facet normal 0.0829002 1.35963e-6 -0.996558
    outer loop
      vertex 17.9043 -24.0733 8.80586
      vertex 17.8917 -24.0641 8.80481
      vertex 17.9122 -24.0256 8.80651
    endloop
  endfacet
  facet normal -0.585823 -0.808973 -0.0487259
    outer loop
      vertex 17.8917 -24.0641 8.80481
      vertex 17.9043 -24.0733 8.80586
      vertex 17.8852 -24.0641 8.88328
    endloop
  endfacet
  facet normal -0.585768 -0.809014 -0.0487074
    outer loop
      vertex 17.9043 -24.0733 8.80586
      vertex 17.8978 -24.0733 8.88433
      vertex 17.8852 -24.0641 8.88328
    endloop
  endfacet
  facet normal -0.405329 -0.913549 -0.0337037
    outer loop
      vertex 17.9043 -24.0733 8.80586
      vertex 17.9185 -24.0797 8.80705
      vertex 17.8978 -24.0733 8.88433
    endloop
  endfacet
  facet normal -0.405374 -0.913529 -0.0337174
    outer loop
      vertex 17.9185 -24.0797 8.80705
      vertex 17.912 -24.0797 8.88551
      vertex 17.8978 -24.0733 8.88433
    endloop
  endfacet
  facet normal -0.498278 0.866026 -0.0414443
    outer loop
      vertex 17.9416 -24.0426 8.80896
      vertex 17.9375 -24.0426 8.85801
      vertex 17.971 -24.0256 8.81141
    endloop
  endfacet
  facet normal -0.498299 0.866013 -0.0414642
    outer loop
      vertex 17.9375 -24.0426 8.85801
      vertex 17.9669 -24.0256 8.86045
      vertex 17.971 -24.0256 8.81141
    endloop
  endfacet
  facet normal 0.0828589 -1.14335e-5 -0.996561
    outer loop
      vertex 17.9416 -24.0426 8.80896
      vertex 17.971 -24.0256 8.81141
      vertex 17.9789 -24.0733 8.81206
    endloop
  endfacet
  facet normal 0.0828915 -6.04588e-6 -0.996559
    outer loop
      vertex 17.971 -24.0256 8.81141
      vertex 17.9915 -24.0641 8.81311
      vertex 17.9789 -24.0733 8.81206
    endloop
  endfacet
  facet normal -0.0828794 -1.93141e-5 0.99656
    outer loop
      vertex 17.8808 -24.0085 9.08045
      vertex 17.8823 -24.0192 9.08058
      vertex 17.9187 -24.0085 9.0836
    endloop
  endfacet
  facet normal -0.0829243 0.000133996 0.996556
    outer loop
      vertex 17.8823 -24.0192 9.08058
      vertex 17.8868 -24.0291 9.08095
      vertex 17.9187 -24.0085 9.0836
    endloop
  endfacet
  facet normal -0.0827882 -7.8541e-5 0.996567
    outer loop
      vertex 17.9187 -24.0085 9.0836
      vertex 17.8868 -24.0291 9.08095
      vertex 17.8939 -24.0373 9.08154
    endloop
  endfacet
  facet normal -0.0828794 1.93141e-5 0.99656
    outer loop
      vertex 17.8823 -23.9978 9.08058
      vertex 17.8808 -24.0085 9.08045
      vertex 17.9187 -24.0085 9.0836
    endloop
  endfacet
  facet normal -0.0829243 -0.000134018 0.996556
    outer loop
      vertex 17.8868 -23.9879 9.08095
      vertex 17.8823 -23.9978 9.08058
      vertex 17.9187 -24.0085 9.0836
    endloop
  endfacet
  facet normal -0.753078 -0.654943 -0.0626373
    outer loop
      vertex 17.9031 -24.0291 8.88478
      vertex 17.9102 -24.0373 8.88537
      vertex 17.8868 -24.0291 9.08095
    endloop
  endfacet
  facet normal -0.753085 -0.654935 -0.0626385
    outer loop
      vertex 17.9102 -24.0373 8.88537
      vertex 17.8939 -24.0373 9.08154
      vertex 17.8868 -24.0291 9.08095
    endloop
  endfacet
  facet normal -0.753151 0.654858 -0.062644
    outer loop
      vertex 17.9102 -23.9797 8.88537
      vertex 17.9031 -23.9879 8.88478
      vertex 17.8939 -23.9797 9.08154
    endloop
  endfacet
  facet normal -0.753158 0.65485 -0.062644
    outer loop
      vertex 17.9031 -23.9879 8.88478
      vertex 17.8868 -23.9879 9.08095
      vertex 17.8939 -23.9797 9.08154
    endloop
  endfacet
  facet normal -0.0829304 -2.44728e-5 0.996555
    outer loop
      vertex 17.9031 -23.9879 8.88478
      vertex 17.9102 -23.9797 8.88537
      vertex 17.8852 -23.9529 8.88328
    endloop
  endfacet
  facet normal -0.0828941 9.68121e-6 0.996558
    outer loop
      vertex 17.9102 -23.9797 8.88537
      vertex 17.8978 -23.9437 8.88433
      vertex 17.8852 -23.9529 8.88328
    endloop
  endfacet
  facet normal -0.0829208 -1.94933e-5 0.996556
    outer loop
      vertex 17.8852 -23.9529 8.88328
      vertex 17.8747 -23.9645 8.88241
      vertex 17.9031 -23.9879 8.88478
    endloop
  endfacet
  facet normal -0.740597 0.66912 -0.0616
    outer loop
      vertex 17.8747 -23.9645 8.88241
      vertex 17.8852 -23.9529 8.88328
      vertex 17.8813 -23.9645 8.80395
    endloop
  endfacet
  facet normal -0.7406 0.669117 -0.0615994
    outer loop
      vertex 17.8852 -23.9529 8.88328
      vertex 17.8917 -23.9529 8.80481
      vertex 17.8813 -23.9645 8.80395
    endloop
  endfacet
  facet normal -0.0827882 7.85321e-5 0.996567
    outer loop
      vertex 17.8939 -23.9797 9.08154
      vertex 17.8868 -23.9879 9.08095
      vertex 17.9187 -24.0085 9.0836
    endloop
  endfacet
  facet normal -0.49826 -0.866037 -0.0414428
    outer loop
      vertex 17.9375 -23.9744 8.85801
      vertex 17.9416 -23.9744 8.80896
      vertex 17.9669 -23.9915 8.86045
    endloop
  endfacet
  facet normal -0.498236 -0.86605 -0.041459
    outer loop
      vertex 17.9416 -23.9744 8.80896
      vertex 17.971 -23.9915 8.81141
      vertex 17.9669 -23.9915 8.86045
    endloop
  endfacet
  facet normal -0.585746 0.80903 -0.0487056
    outer loop
      vertex 17.9043 -23.9437 8.80586
      vertex 17.8917 -23.9529 8.80481
      vertex 17.8978 -23.9437 8.88433
    endloop
  endfacet
  facet normal -0.585689 0.809071 -0.0487147
    outer loop
      vertex 17.8917 -23.9529 8.80481
      vertex 17.8852 -23.9529 8.88328
      vertex 17.8978 -23.9437 8.88433
    endloop
  endfacet
  facet normal -0.405328 0.913549 -0.0337136
    outer loop
      vertex 17.9185 -23.9374 8.80705
      vertex 17.9043 -23.9437 8.80586
      vertex 17.912 -23.9374 8.88551
    endloop
  endfacet
  facet normal -0.405375 0.913529 -0.0337075
    outer loop
      vertex 17.9043 -23.9437 8.80586
      vertex 17.8978 -23.9437 8.88433
      vertex 17.912 -23.9374 8.88551
    endloop
  endfacet
  facet normal 0.0829079 1.82521e-5 -0.996557
    outer loop
      vertex 17.9043 -23.9437 8.80586
      vertex 17.9185 -23.9374 8.80705
      vertex 17.9416 -23.9744 8.80896
    endloop
  endfacet
  facet normal 0.0828124 -4.1538e-5 -0.996565
    outer loop
      vertex 17.9185 -23.9374 8.80705
      vertex 17.9338 -23.9341 8.80831
      vertex 17.9416 -23.9744 8.80896
    endloop
  endfacet
  facet normal 0.0829075 -2.30322e-5 -0.996557
    outer loop
      vertex 17.9416 -23.9744 8.80896
      vertex 17.9338 -23.9341 8.80831
      vertex 17.9494 -23.9341 8.80961
    endloop
  endfacet
  facet normal 0.0828589 1.1434e-5 -0.996561
    outer loop
      vertex 17.971 -23.9915 8.81141
      vertex 17.9416 -23.9744 8.80896
      vertex 17.9789 -23.9437 8.81206
    endloop
  endfacet
  facet normal 0.0828572 1.34686e-5 -0.996561
    outer loop
      vertex 17.9416 -23.9744 8.80896
      vertex 17.9646 -23.9374 8.81088
      vertex 17.9789 -23.9437 8.81206
    endloop
  endfacet
  facet normal 0.0828124 4.15352e-5 -0.996565
    outer loop
      vertex 17.9338 -24.0829 8.80831
      vertex 17.9185 -24.0797 8.80705
      vertex 17.9416 -24.0426 8.80896
    endloop
  endfacet
  facet normal -0.207246 -0.978137 -0.0172379
    outer loop
      vertex 17.9185 -24.0797 8.80705
      vertex 17.9338 -24.0829 8.80831
      vertex 17.912 -24.0797 8.88551
    endloop
  endfacet
  facet normal -0.207245 -0.978137 -0.0172377
    outer loop
      vertex 17.9338 -24.0829 8.80831
      vertex 17.9273 -24.0829 8.88678
      vertex 17.912 -24.0797 8.88551
    endloop
  endfacet
  facet normal -0.996556 0 -0.0829249
    outer loop
      vertex 17.9669 -23.9915 8.86045
      vertex 17.971 -23.9915 8.81141
      vertex 17.9669 -24.0256 8.86045
    endloop
  endfacet
  facet normal -0.996556 0 -0.0829249
    outer loop
      vertex 17.971 -23.9915 8.81141
      vertex 17.971 -24.0256 8.81141
      vertex 17.9669 -24.0256 8.86045
    endloop
  endfacet
  facet normal 0.0829075 2.30311e-5 -0.996557
    outer loop
      vertex 17.9494 -24.0829 8.80961
      vertex 17.9338 -24.0829 8.80831
      vertex 17.9416 -24.0426 8.80896
    endloop
  endfacet
  facet normal 0 -1 0
    outer loop
      vertex 17.9338 -24.0829 8.80831
      vertex 17.9494 -24.0829 8.80961
      vertex 17.9273 -24.0829 8.88678
    endloop
  endfacet
  facet normal 0 -1 0
    outer loop
      vertex 17.9494 -24.0829 8.80961
      vertex 17.9428 -24.0829 8.88808
      vertex 17.9273 -24.0829 8.88678
    endloop
  endfacet
  facet normal 0.0829025 0 -0.996558
    outer loop
      vertex 17.971 -24.0256 8.81141
      vertex 17.971 -23.9915 8.81141
      vertex 18.0161 -24.0085 8.81516
    endloop
  endfacet
  facet normal 0.0828888 -3.64038e-5 -0.996559
    outer loop
      vertex 17.971 -23.9915 8.81141
      vertex 18.0145 -23.993 8.81503
      vertex 18.0161 -24.0085 8.81516
    endloop
  endfacet
  facet normal 0.0829192 2.53133e-5 -0.996556
    outer loop
      vertex 17.9646 -24.0797 8.81088
      vertex 17.9494 -24.0829 8.80961
      vertex 17.9416 -24.0426 8.80896
    endloop
  endfacet
  facet normal 0.207245 -0.978137 0.0172327
    outer loop
      vertex 17.9494 -24.0829 8.80961
      vertex 17.9646 -24.0797 8.81088
      vertex 17.9428 -24.0829 8.88808
    endloop
  endfacet
  facet normal 0.207245 -0.978137 0.0172327
    outer loop
      vertex 17.9646 -24.0797 8.81088
      vertex 17.9581 -24.0797 8.88935
      vertex 17.9428 -24.0829 8.88808
    endloop
  endfacet
  facet normal 0.0828572 -1.34686e-5 -0.996561
    outer loop
      vertex 17.9789 -24.0733 8.81206
      vertex 17.9646 -24.0797 8.81088
      vertex 17.9416 -24.0426 8.80896
    endloop
  endfacet
  facet normal 0.405331 -0.913549 0.0337038
    outer loop
      vertex 17.9646 -24.0797 8.81088
      vertex 17.9789 -24.0733 8.81206
      vertex 17.9581 -24.0797 8.88935
    endloop
  endfacet
  facet normal 0.405374 -0.913529 0.033717
    outer loop
      vertex 17.9789 -24.0733 8.81206
      vertex 17.9723 -24.0733 8.89053
      vertex 17.9581 -24.0797 8.88935
    endloop
  endfacet
  facet normal 0.585767 -0.809014 0.0487212
    outer loop
      vertex 17.9789 -24.0733 8.81206
      vertex 17.9915 -24.0641 8.81311
      vertex 17.9723 -24.0733 8.89053
    endloop
  endfacet
  facet normal 0.585767 -0.809014 0.0487212
    outer loop
      vertex 17.9915 -24.0641 8.81311
      vertex 17.9849 -24.0641 8.89158
      vertex 17.9723 -24.0733 8.89053
    endloop
  endfacet
  facet normal -0.538927 -0.841159 -0.0448257
    outer loop
      vertex 17.9102 -24.0373 8.88537
      vertex 17.9193 -24.0431 8.88612
      vertex 17.8939 -24.0373 9.08154
    endloop
  endfacet
  facet normal -0.53885 -0.841209 -0.0448142
    outer loop
      vertex 17.9193 -24.0431 8.88612
      vertex 17.903 -24.0431 9.08229
      vertex 17.8939 -24.0373 9.08154
    endloop
  endfacet
  facet normal -0.0828771 1.20292e-6 0.99656
    outer loop
      vertex 17.903 -23.9739 9.08229
      vertex 17.8939 -23.9797 9.08154
      vertex 17.9187 -24.0085 9.0836
    endloop
  endfacet
  facet normal -0.538728 0.841287 -0.0448092
    outer loop
      vertex 17.8939 -23.9797 9.08154
      vertex 17.903 -23.9739 9.08229
      vertex 17.9102 -23.9797 8.88537
    endloop
  endfacet
  facet normal -0.538806 0.841237 -0.0448105
    outer loop
      vertex 17.903 -23.9739 9.08229
      vertex 17.9193 -23.9739 8.88612
      vertex 17.9102 -23.9797 8.88537
    endloop
  endfacet
  facet normal -0.0828985 8.16685e-6 0.996558
    outer loop
      vertex 17.9102 -23.9797 8.88537
      vertex 17.9193 -23.9739 8.88612
      vertex 17.8978 -23.9437 8.88433
    endloop
  endfacet
  facet normal -0.0828736 2.60281e-5 0.99656
    outer loop
      vertex 17.9193 -23.9739 8.88612
      vertex 17.912 -23.9374 8.88551
      vertex 17.8978 -23.9437 8.88433
    endloop
  endfacet
  facet normal -0.0828771 -1.20279e-6 0.99656
    outer loop
      vertex 17.8939 -24.0373 9.08154
      vertex 17.903 -24.0431 9.08229
      vertex 17.9187 -24.0085 9.0836
    endloop
  endfacet
  facet normal -0.082882 1.05417e-6 0.996559
    outer loop
      vertex 17.903 -24.0431 9.08229
      vertex 17.9133 -24.0462 9.08315
      vertex 17.9187 -24.0085 9.0836
    endloop
  endfacet
  facet normal -0.0829601 1.23177e-5 0.996553
    outer loop
      vertex 17.9187 -24.0085 9.0836
      vertex 17.9133 -24.0462 9.08315
      vertex 17.9241 -24.0462 9.08405
    endloop
  endfacet
  facet normal -0.082882 -1.05422e-6 0.996559
    outer loop
      vertex 17.9133 -23.9708 9.08315
      vertex 17.903 -23.9739 9.08229
      vertex 17.9187 -24.0085 9.0836
    endloop
  endfacet
  facet normal -0.280685 0.959516 -0.0233436
    outer loop
      vertex 17.903 -23.9739 9.08229
      vertex 17.9133 -23.9708 9.08315
      vertex 17.9193 -23.9739 8.88612
    endloop
  endfacet
  facet normal -0.280687 0.959515 -0.0233436
    outer loop
      vertex 17.9133 -23.9708 9.08315
      vertex 17.9297 -23.9708 8.88698
      vertex 17.9193 -23.9739 8.88612
    endloop
  endfacet
  facet normal -0.0829601 -1.23183e-5 0.996553
    outer loop
      vertex 17.9241 -23.9708 9.08405
      vertex 17.9133 -23.9708 9.08315
      vertex 17.9187 -24.0085 9.0836
    endloop
  endfacet
  facet normal 0 1 0
    outer loop
      vertex 17.9133 -23.9708 9.08315
      vertex 17.9241 -23.9708 9.08405
      vertex 17.9297 -23.9708 8.88698
    endloop
  endfacet
  facet normal 0 1 0
    outer loop
      vertex 17.9241 -23.9708 9.08405
      vertex 17.9405 -23.9708 8.88788
      vertex 17.9297 -23.9708 8.88698
    endloop
  endfacet
  facet normal -0.280685 -0.959516 -0.0233435
    outer loop
      vertex 17.9133 -24.0462 9.08315
      vertex 17.903 -24.0431 9.08229
      vertex 17.9297 -24.0462 8.88698
    endloop
  endfacet
  facet normal -0.280687 -0.959515 -0.0233437
    outer loop
      vertex 17.903 -24.0431 9.08229
      vertex 17.9193 -24.0431 8.88612
      vertex 17.9297 -24.0462 8.88698
    endloop
  endfacet
  facet normal 0 -1 0
    outer loop
      vertex 17.9241 -24.0462 9.08405
      vertex 17.9133 -24.0462 9.08315
      vertex 17.9405 -24.0462 8.88788
    endloop
  endfacet
  facet normal 0 -1 0
    outer loop
      vertex 17.9133 -24.0462 9.08315
      vertex 17.9297 -24.0462 8.88698
      vertex 17.9405 -24.0462 8.88788
    endloop
  endfacet
  facet normal -0.0828036 -3.49042e-5 0.996566
    outer loop
      vertex 17.9345 -23.9739 9.08491
      vertex 17.9241 -23.9708 9.08405
      vertex 17.9187 -24.0085 9.0836
    endloop
  endfacet
  facet normal 0.280687 0.959515 0.0233436
    outer loop
      vertex 17.9241 -23.9708 9.08405
      vertex 17.9345 -23.9739 9.08491
      vertex 17.9405 -23.9708 8.88788
    endloop
  endfacet
  facet normal 0.280685 0.959516 0.0233436
    outer loop
      vertex 17.9345 -23.9739 9.08491
      vertex 17.9508 -23.9739 8.88874
      vertex 17.9405 -23.9708 8.88788
    endloop
  endfacet
  facet normal 0.280687 -0.959515 0.0233437
    outer loop
      vertex 17.9345 -24.0431 9.08491
      vertex 17.9241 -24.0462 9.08405
      vertex 17.9508 -24.0431 8.88874
    endloop
  endfacet
  facet normal 0.280685 -0.959516 0.0233435
    outer loop
      vertex 17.9241 -24.0462 9.08405
      vertex 17.9405 -24.0462 8.88788
      vertex 17.9508 -24.0431 8.88874
    endloop
  endfacet
  facet normal -0.0828036 3.49025e-5 0.996566
    outer loop
      vertex 17.9241 -24.0462 9.08405
      vertex 17.9345 -24.0431 9.08491
      vertex 17.9187 -24.0085 9.0836
    endloop
  endfacet
  facet normal -0.0828771 1.20279e-6 0.99656
    outer loop
      vertex 17.9345 -24.0431 9.08491
      vertex 17.9436 -24.0373 9.08567
      vertex 17.9187 -24.0085 9.0836
    endloop
  endfacet
  facet normal -0.0829185 -3.48199e-5 0.996556
    outer loop
      vertex 17.9187 -24.0085 9.0836
      vertex 17.9436 -24.0373 9.08567
      vertex 17.9506 -24.0291 9.08626
    endloop
  endfacet
  facet normal -0.0828771 -1.20292e-6 0.99656
    outer loop
      vertex 17.9436 -23.9797 9.08567
      vertex 17.9345 -23.9739 9.08491
      vertex 17.9187 -24.0085 9.0836
    endloop
  endfacet
  facet normal 0.538728 0.841287 0.0448041
    outer loop
      vertex 17.9345 -23.9739 9.08491
      vertex 17.9436 -23.9797 9.08567
      vertex 17.9508 -23.9739 8.88874
    endloop
  endfacet
  facet normal 0.53865 0.841337 0.0448027
    outer loop
      vertex 17.9436 -23.9797 9.08567
      vertex 17.9599 -23.9797 8.8895
      vertex 17.9508 -23.9739 8.88874
    endloop
  endfacet
  facet normal 0.538849 -0.841209 0.0448193
    outer loop
      vertex 17.9436 -24.0373 9.08567
      vertex 17.9345 -24.0431 9.08491
      vertex 17.9599 -24.0373 8.8895
    endloop
  endfacet
  facet normal 0.538772 -0.841259 0.0448077
    outer loop
      vertex 17.9345 -24.0431 9.08491
      vertex 17.9508 -24.0431 8.88874
      vertex 17.9599 -24.0373 8.8895
    endloop
  endfacet
  facet normal -0.0829185 3.48159e-5 0.996556
    outer loop
      vertex 17.9506 -23.9879 9.08626
      vertex 17.9436 -23.9797 9.08567
      vertex 17.9187 -24.0085 9.0836
    endloop
  endfacet
  facet normal 0.753151 0.654858 0.062644
    outer loop
      vertex 17.9436 -23.9797 9.08567
      vertex 17.9506 -23.9879 9.08626
      vertex 17.9599 -23.9797 8.8895
    endloop
  endfacet
  facet normal 0.753155 0.654854 0.062644
    outer loop
      vertex 17.9506 -23.9879 9.08626
      vertex 17.967 -23.9879 8.89008
      vertex 17.9599 -23.9797 8.8895
    endloop
  endfacet
  facet normal 0.753078 -0.654943 0.0626376
    outer loop
      vertex 17.9506 -24.0291 9.08626
      vertex 17.9436 -24.0373 9.08567
      vertex 17.967 -24.0291 8.89008
    endloop
  endfacet
  facet normal 0.753081 -0.654939 0.0626382
    outer loop
      vertex 17.9436 -24.0373 9.08567
      vertex 17.9599 -24.0373 8.8895
      vertex 17.967 -24.0291 8.89008
    endloop
  endfacet
  facet normal -0.0829146 2.86111e-5 0.996557
    outer loop
      vertex 17.9551 -23.9978 9.08663
      vertex 17.9506 -23.9879 9.08626
      vertex 17.9187 -24.0085 9.0836
    endloop
  endfacet
  facet normal 0.906471 0.415482 0.0753962
    outer loop
      vertex 17.9506 -23.9879 9.08626
      vertex 17.9551 -23.9978 9.08663
      vertex 17.967 -23.9879 8.89008
    endloop
  endfacet
  facet normal 0.906536 0.41534 0.075393
    outer loop
      vertex 17.9551 -23.9978 9.08663
      vertex 17.9714 -23.9978 8.89046
      vertex 17.967 -23.9879 8.89008
    endloop
  endfacet
  facet normal 0.906502 -0.415417 0.0753901
    outer loop
      vertex 17.9551 -24.0192 9.08663
      vertex 17.9506 -24.0291 9.08626
      vertex 17.9714 -24.0192 8.89046
    endloop
  endfacet
  facet normal 0.906565 -0.415275 0.075404
    outer loop
      vertex 17.9506 -24.0291 9.08626
      vertex 17.967 -24.0291 8.89008
      vertex 17.9714 -24.0192 8.89046
    endloop
  endfacet
  facet normal -0.0829146 -2.86063e-5 0.996557
    outer loop
      vertex 17.9506 -24.0291 9.08626
      vertex 17.9551 -24.0192 9.08663
      vertex 17.9187 -24.0085 9.0836
    endloop
  endfacet
  facet normal -0.0828997 2.22372e-5 0.996558
    outer loop
      vertex 17.9551 -24.0192 9.08663
      vertex 17.9567 -24.0085 9.08676
      vertex 17.9187 -24.0085 9.0836
    endloop
  endfacet
  facet normal -0.0828997 -2.22372e-5 0.996558
    outer loop
      vertex 17.9187 -24.0085 9.0836
      vertex 17.9567 -24.0085 9.08676
      vertex 17.9551 -23.9978 9.08663
    endloop
  endfacet
  facet normal 0.986413 0.142333 0.082036
    outer loop
      vertex 17.9551 -23.9978 9.08663
      vertex 17.9567 -24.0085 9.08676
      vertex 17.9714 -23.9978 8.89046
    endloop
  endfacet
  facet normal 0.986389 0.142501 0.0820433
    outer loop
      vertex 17.9567 -24.0085 9.08676
      vertex 17.973 -24.0085 8.89059
      vertex 17.9714 -23.9978 8.89046
    endloop
  endfacet
  facet normal 0.986413 -0.142333 0.0820453
    outer loop
      vertex 17.9567 -24.0085 9.08676
      vertex 17.9551 -24.0192 9.08663
      vertex 17.973 -24.0085 8.89059
    endloop
  endfacet
  facet normal 0.986389 -0.142501 0.082034
    outer loop
      vertex 17.9551 -24.0192 9.08663
      vertex 17.9714 -24.0192 8.89046
      vertex 17.973 -24.0085 8.89059
    endloop
  endfacet
  facet normal -0.082805 -3.97961e-5 0.996566
    outer loop
      vertex 17.9297 -24.0462 8.88698
      vertex 17.9193 -24.0431 8.88612
      vertex 17.912 -24.0797 8.88551
    endloop
  endfacet
  facet normal -0.207133 0.978161 -0.0172283
    outer loop
      vertex 17.9338 -23.9341 8.80831
      vertex 17.9185 -23.9374 8.80705
      vertex 17.9273 -23.9341 8.88678
    endloop
  endfacet
  facet normal -0.207132 0.978161 -0.0172284
    outer loop
      vertex 17.9185 -23.9374 8.80705
      vertex 17.912 -23.9374 8.88551
      vertex 17.9273 -23.9341 8.88678
    endloop
  endfacet
  facet normal -0.0828657 7.58775e-6 0.996561
    outer loop
      vertex 17.9273 -23.9341 8.88678
      vertex 17.912 -23.9374 8.88551
      vertex 17.9297 -23.9708 8.88698
    endloop
  endfacet
  facet normal -0.082805 3.97941e-5 0.996566
    outer loop
      vertex 17.912 -23.9374 8.88551
      vertex 17.9193 -23.9739 8.88612
      vertex 17.9297 -23.9708 8.88698
    endloop
  endfacet
  facet normal 0 1 0
    outer loop
      vertex 17.9494 -23.9341 8.80961
      vertex 17.9338 -23.9341 8.80831
      vertex 17.9428 -23.9341 8.88808
    endloop
  endfacet
  facet normal 0 1 0
    outer loop
      vertex 17.9338 -23.9341 8.80831
      vertex 17.9273 -23.9341 8.88678
      vertex 17.9428 -23.9341 8.88808
    endloop
  endfacet
  facet normal 0.207131 0.978162 0.0172232
    outer loop
      vertex 17.9646 -23.9374 8.81088
      vertex 17.9494 -23.9341 8.80961
      vertex 17.9581 -23.9374 8.88935
    endloop
  endfacet
  facet normal 0.207131 0.978162 0.0172232
    outer loop
      vertex 17.9494 -23.9341 8.80961
      vertex 17.9428 -23.9341 8.88808
      vertex 17.9581 -23.9374 8.88935
    endloop
  endfacet
  facet normal 0.0829192 -2.5315e-5 -0.996556
    outer loop
      vertex 17.9494 -23.9341 8.80961
      vertex 17.9646 -23.9374 8.81088
      vertex 17.9416 -23.9744 8.80896
    endloop
  endfacet
  facet normal 0.40533 0.913549 0.0337134
    outer loop
      vertex 17.9789 -23.9437 8.81206
      vertex 17.9646 -23.9374 8.81088
      vertex 17.9723 -23.9437 8.89053
    endloop
  endfacet
  facet normal 0.405375 0.913529 0.0337075
    outer loop
      vertex 17.9646 -23.9374 8.81088
      vertex 17.9581 -23.9374 8.88935
      vertex 17.9723 -23.9437 8.89053
    endloop
  endfacet
  facet normal 0.585689 0.809071 0.0487147
    outer loop
      vertex 17.9915 -23.9529 8.81311
      vertex 17.9789 -23.9437 8.81206
      vertex 17.9849 -23.9529 8.89158
    endloop
  endfacet
  facet normal 0.585689 0.809071 0.0487147
    outer loop
      vertex 17.9789 -23.9437 8.81206
      vertex 17.9723 -23.9437 8.89053
      vertex 17.9849 -23.9529 8.89158
    endloop
  endfacet
  facet normal 0.0828915 6.04622e-6 -0.996559
    outer loop
      vertex 17.9789 -23.9437 8.81206
      vertex 17.9915 -23.9529 8.81311
      vertex 17.971 -23.9915 8.81141
    endloop
  endfacet
  facet normal 0.0828814 1.14465e-5 -0.996559
    outer loop
      vertex 17.9915 -23.9529 8.81311
      vertex 18.0019 -23.9645 8.81398
      vertex 17.971 -23.9915 8.81141
    endloop
  endfacet
  facet normal 0.0828967 -6.24918e-6 -0.996558
    outer loop
      vertex 17.971 -23.9915 8.81141
      vertex 18.0019 -23.9645 8.81398
      vertex 18.0097 -23.9781 8.81463
    endloop
  endfacet
  facet normal -0.0829601 2.80923e-5 0.996553
    outer loop
      vertex 17.9297 -23.9708 8.88698
      vertex 17.9405 -23.9708 8.88788
      vertex 17.9428 -23.9341 8.88808
    endloop
  endfacet
  facet normal -0.0829192 2.54038e-5 0.996556
    outer loop
      vertex 17.9405 -23.9708 8.88788
      vertex 17.9581 -23.9374 8.88935
      vertex 17.9428 -23.9341 8.88808
    endloop
  endfacet
  facet normal -0.0828657 -7.58769e-6 0.996561
    outer loop
      vertex 17.912 -24.0797 8.88551
      vertex 17.9273 -24.0829 8.88678
      vertex 17.9297 -24.0462 8.88698
    endloop
  endfacet
  facet normal -0.0829601 -1.3911e-6 0.996553
    outer loop
      vertex 17.9273 -24.0829 8.88678
      vertex 17.9405 -24.0462 8.88788
      vertex 17.9297 -24.0462 8.88698
    endloop
  endfacet
  facet normal -0.0828976 -2.39885e-5 0.996558
    outer loop
      vertex 17.9273 -24.0829 8.88678
      vertex 17.9428 -24.0829 8.88808
      vertex 17.9405 -24.0462 8.88788
    endloop
  endfacet
  facet normal -0.0829192 -2.54036e-5 0.996556
    outer loop
      vertex 17.9428 -24.0829 8.88808
      vertex 17.9581 -24.0797 8.88935
      vertex 17.9405 -24.0462 8.88788
    endloop
  endfacet
  facet normal -0.0828809 -5.07207e-6 0.996559
    outer loop
      vertex 17.9405 -24.0462 8.88788
      vertex 17.9581 -24.0797 8.88935
      vertex 17.9508 -24.0431 8.88874
    endloop
  endfacet
  facet normal -0.0828615 -1.18771e-6 0.996561
    outer loop
      vertex 17.9581 -24.0797 8.88935
      vertex 17.9723 -24.0733 8.89053
      vertex 17.9508 -24.0431 8.88874
    endloop
  endfacet
  facet normal -0.0828596 1.94481e-7 0.996561
    outer loop
      vertex 17.9508 -24.0431 8.88874
      vertex 17.9723 -24.0733 8.89053
      vertex 17.9599 -24.0373 8.8895
    endloop
  endfacet
  facet normal -0.0828817 -7.48211e-6 0.996559
    outer loop
      vertex 17.9723 -24.0733 8.89053
      vertex 17.9849 -24.0641 8.89158
      vertex 17.9599 -24.0373 8.8895
    endloop
  endfacet
  facet normal -0.0828518 2.05528e-5 0.996562
    outer loop
      vertex 17.9599 -24.0373 8.8895
      vertex 17.9849 -24.0641 8.89158
      vertex 17.967 -24.0291 8.89008
    endloop
  endfacet
  facet normal -0.0828677 1.23702e-5 0.996561
    outer loop
      vertex 17.9849 -24.0641 8.89158
      vertex 17.9954 -24.0525 8.89245
      vertex 17.967 -24.0291 8.89008
    endloop
  endfacet
  facet normal -0.0828873 -1.16631e-5 0.996559
    outer loop
      vertex 17.967 -24.0291 8.89008
      vertex 17.9954 -24.0525 8.89245
      vertex 18.0032 -24.0389 8.89309
    endloop
  endfacet
  facet normal 0.0828814 -1.14471e-5 -0.996559
    outer loop
      vertex 18.0019 -24.0525 8.81398
      vertex 17.9915 -24.0641 8.81311
      vertex 17.971 -24.0256 8.81141
    endloop
  endfacet
  facet normal 0.740605 -0.669111 0.0615999
    outer loop
      vertex 17.9915 -24.0641 8.81311
      vertex 18.0019 -24.0525 8.81398
      vertex 17.9849 -24.0641 8.89158
    endloop
  endfacet
  facet normal 0.740548 -0.669176 0.0615776
    outer loop
      vertex 18.0019 -24.0525 8.81398
      vertex 17.9954 -24.0525 8.89245
      vertex 17.9849 -24.0641 8.89158
    endloop
  endfacet
  facet normal 0.991109 0.10446 0.082412
    outer loop
      vertex 18.0161 -24.0085 8.81516
      vertex 18.0145 -23.993 8.81503
      vertex 18.0096 -24.0085 8.89363
    endloop
  endfacet
  facet normal 0.991109 0.10446 0.082412
    outer loop
      vertex 18.0145 -23.993 8.81503
      vertex 18.008 -23.993 8.8935
      vertex 18.0096 -24.0085 8.89363
    endloop
  endfacet
  facet normal 0.991109 -0.10446 0.082412
    outer loop
      vertex 18.0145 -24.0241 8.81503
      vertex 18.0161 -24.0085 8.81516
      vertex 18.008 -24.0241 8.8935
    endloop
  endfacet
  facet normal 0.991109 -0.10446 0.082412
    outer loop
      vertex 18.0161 -24.0085 8.81516
      vertex 18.0096 -24.0085 8.89363
      vertex 18.008 -24.0241 8.8935
    endloop
  endfacet
  facet normal 0.0828888 3.64036e-5 -0.996559
    outer loop
      vertex 18.0161 -24.0085 8.81516
      vertex 18.0145 -24.0241 8.81503
      vertex 17.971 -24.0256 8.81141
    endloop
  endfacet
  facet normal 0.0828905 -1.18489e-5 -0.996559
    outer loop
      vertex 18.0145 -24.0241 8.81503
      vertex 18.0097 -24.0389 8.81463
      vertex 17.971 -24.0256 8.81141
    endloop
  endfacet
  facet normal 0.0828967 6.24961e-6 -0.996558
    outer loop
      vertex 17.971 -24.0256 8.81141
      vertex 18.0097 -24.0389 8.81463
      vertex 18.0019 -24.0525 8.81398
    endloop
  endfacet
  facet normal 0.94777 -0.309064 0.0788084
    outer loop
      vertex 18.0097 -24.0389 8.81463
      vertex 18.0145 -24.0241 8.81503
      vertex 18.0032 -24.0389 8.89309
    endloop
  endfacet
  facet normal 0.94777 -0.309064 0.0788084
    outer loop
      vertex 18.0145 -24.0241 8.81503
      vertex 18.008 -24.0241 8.8935
      vertex 18.0032 -24.0389 8.89309
    endloop
  endfacet
  facet normal 0.863041 -0.50001 0.071763
    outer loop
      vertex 18.0019 -24.0525 8.81398
      vertex 18.0097 -24.0389 8.81463
      vertex 17.9954 -24.0525 8.89245
    endloop
  endfacet
  facet normal 0.863041 -0.50001 0.071763
    outer loop
      vertex 18.0097 -24.0389 8.81463
      vertex 18.0032 -24.0389 8.89309
      vertex 17.9954 -24.0525 8.89245
    endloop
  endfacet
  facet normal -0.0828976 5.49189e-6 0.996558
    outer loop
      vertex 17.9428 -23.9341 8.88808
      vertex 17.9273 -23.9341 8.88678
      vertex 17.9297 -23.9708 8.88698
    endloop
  endfacet
  facet normal -0.0828615 1.18765e-6 0.996561
    outer loop
      vertex 17.9723 -23.9437 8.89053
      vertex 17.9581 -23.9374 8.88935
      vertex 17.9508 -23.9739 8.88874
    endloop
  endfacet
  facet normal -0.0828809 5.07183e-6 0.996559
    outer loop
      vertex 17.9581 -23.9374 8.88935
      vertex 17.9405 -23.9708 8.88788
      vertex 17.9508 -23.9739 8.88874
    endloop
  endfacet
  facet normal 0.74066 0.669052 0.0615869
    outer loop
      vertex 18.0019 -23.9645 8.81398
      vertex 17.9915 -23.9529 8.81311
      vertex 17.9954 -23.9645 8.89245
    endloop
  endfacet
  facet normal 0.7406 0.669117 0.0615994
    outer loop
      vertex 17.9915 -23.9529 8.81311
      vertex 17.9849 -23.9529 8.89158
      vertex 17.9954 -23.9645 8.89245
    endloop
  endfacet
  facet normal 0.863071 0.499959 0.0717655
    outer loop
      vertex 18.0097 -23.9781 8.81463
      vertex 18.0019 -23.9645 8.81398
      vertex 18.0032 -23.9781 8.89309
    endloop
  endfacet
  facet normal 0.863071 0.499959 0.0717655
    outer loop
      vertex 18.0019 -23.9645 8.81398
      vertex 17.9954 -23.9645 8.89245
      vertex 18.0032 -23.9781 8.89309
    endloop
  endfacet
  facet normal 0.0828905 1.18505e-5 -0.996559
    outer loop
      vertex 18.0097 -23.9781 8.81463
      vertex 18.0145 -23.993 8.81503
      vertex 17.971 -23.9915 8.81141
    endloop
  endfacet
  facet normal 0.947759 0.309099 0.0788074
    outer loop
      vertex 18.0145 -23.993 8.81503
      vertex 18.0097 -23.9781 8.81463
      vertex 18.008 -23.993 8.8935
    endloop
  endfacet
  facet normal 0.947759 0.309099 0.0788074
    outer loop
      vertex 18.0097 -23.9781 8.81463
      vertex 18.0032 -23.9781 8.89309
      vertex 18.008 -23.993 8.8935
    endloop
  endfacet
  facet normal -0.0828778 1.28696e-5 0.99656
    outer loop
      vertex 17.9849 -23.9529 8.89158
      vertex 17.9723 -23.9437 8.89053
      vertex 17.9508 -23.9739 8.88874
    endloop
  endfacet
  facet normal -0.082864 -9.08567e-6 0.996561
    outer loop
      vertex 17.9954 -23.9645 8.89245
      vertex 17.9849 -23.9529 8.89158
      vertex 17.9599 -23.9797 8.8895
    endloop
  endfacet
  facet normal -0.0828648 -8.36177e-6 0.996561
    outer loop
      vertex 17.9849 -23.9529 8.89158
      vertex 17.9508 -23.9739 8.88874
      vertex 17.9599 -23.9797 8.8895
    endloop
  endfacet
  facet normal -0.0828572 -2.51929e-5 0.996561
    outer loop
      vertex 17.9599 -23.9797 8.8895
      vertex 17.967 -23.9879 8.89008
      vertex 17.9954 -23.9645 8.89245
    endloop
  endfacet
  facet normal -0.0828873 1.16617e-5 0.996559
    outer loop
      vertex 17.967 -23.9879 8.89008
      vertex 18.0032 -23.9781 8.89309
      vertex 17.9954 -23.9645 8.89245
    endloop
  endfacet
  facet normal -0.0828982 -5.17817e-5 0.996558
    outer loop
      vertex 17.9714 -24.0192 8.89046
      vertex 17.967 -24.0291 8.89008
      vertex 18.0032 -24.0389 8.89309
    endloop
  endfacet
  facet normal -0.0828982 5.17904e-5 0.996558
    outer loop
      vertex 17.967 -23.9879 8.89008
      vertex 17.9714 -23.9978 8.89046
      vertex 18.0032 -23.9781 8.89309
    endloop
  endfacet
  facet normal -0.0828642 -3.28395e-6 0.996561
    outer loop
      vertex 17.9714 -23.9978 8.89046
      vertex 18.008 -23.993 8.8935
      vertex 18.0032 -23.9781 8.89309
    endloop
  endfacet
  facet normal -0.0828606 3.09847e-5 0.996561
    outer loop
      vertex 17.973 -24.0085 8.89059
      vertex 17.9714 -24.0192 8.89046
      vertex 18.008 -24.0241 8.8935
    endloop
  endfacet
  facet normal -0.0828642 3.28355e-6 0.996561
    outer loop
      vertex 17.9714 -24.0192 8.89046
      vertex 18.0032 -24.0389 8.89309
      vertex 18.008 -24.0241 8.8935
    endloop
  endfacet
  facet normal -0.0828902 -3.52733e-5 0.996559
    outer loop
      vertex 17.9714 -23.9978 8.89046
      vertex 17.973 -24.0085 8.89059
      vertex 18.0096 -24.0085 8.89363
    endloop
  endfacet
  facet normal -0.0828902 -3.62532e-5 0.996559
    outer loop
      vertex 17.973 -24.0085 8.89059
      vertex 18.008 -24.0241 8.8935
      vertex 18.0096 -24.0085 8.89363
    endloop
  endfacet
  facet normal -0.0828697 3.84213e-5 0.99656
    outer loop
      vertex 18.0096 -24.0085 8.89363
      vertex 18.008 -23.993 8.8935
      vertex 17.9714 -23.9978 8.89046
    endloop
  endfacet
endsolid Onshape
