solid Onshape
  facet normal -0.991094 0.104585 -0.0824343
    outer loop
      vertex 17.8687 -23.1268 8.8029
      vertex 17.867 -23.1424 8.80276
      vertex 17.8621 -23.1268 8.88137
    endloop
  endfacet
  facet normal -0.991094 0.104585 -0.0824343
    outer loop
      vertex 17.867 -23.1424 8.80276
      vertex 17.8605 -23.1424 8.88123
      vertex 17.8621 -23.1268 8.88137
    endloop
  endfacet
  facet normal 0.082867 -3.09045e-5 -0.996561
    outer loop
      vertex 17.867 -23.1424 8.80276
      vertex 17.8687 -23.1268 8.8029
      vertex 17.9122 -23.1594 8.80651
    endloop
  endfacet
  facet normal 0.0828901 0 -0.996559
    outer loop
      vertex 17.8687 -23.1268 8.8029
      vertex 17.9122 -23.1253 8.80651
      vertex 17.9122 -23.1594 8.80651
    endloop
  endfacet
  facet normal 0.0828912 3.34489e-5 -0.996559
    outer loop
      vertex 17.8687 -23.1579 8.8029
      vertex 17.867 -23.1424 8.80276
      vertex 17.9122 -23.1594 8.80651
    endloop
  endfacet
  facet normal -0.991095 -0.104573 -0.0824344
    outer loop
      vertex 17.867 -23.1424 8.80276
      vertex 17.8687 -23.1579 8.8029
      vertex 17.8605 -23.1424 8.88123
    endloop
  endfacet
  facet normal -0.991095 -0.104573 -0.0824344
    outer loop
      vertex 17.8687 -23.1579 8.8029
      vertex 17.8621 -23.1579 8.88137
      vertex 17.8605 -23.1424 8.88123
    endloop
  endfacet
  facet normal -0.0828648 -3.06631e-5 0.996561
    outer loop
      vertex 17.8605 -23.1424 8.88123
      vertex 17.8621 -23.1579 8.88137
      vertex 17.8987 -23.1531 8.8844
    endloop
  endfacet
  facet normal -0.0828695 5.3566e-6 0.99656
    outer loop
      vertex 17.8621 -23.1579 8.88137
      vertex 17.867 -23.1728 8.88177
      vertex 17.8987 -23.1531 8.8844
    endloop
  endfacet
  facet normal -0.0828906 3.95747e-5 0.996559
    outer loop
      vertex 17.8987 -23.1531 8.8844
      vertex 17.867 -23.1728 8.88177
      vertex 17.9031 -23.1629 8.88478
    endloop
  endfacet
  facet normal -0.0828677 -4.54654e-5 0.996561
    outer loop
      vertex 17.867 -23.1728 8.88177
      vertex 17.8747 -23.1863 8.88241
      vertex 17.9031 -23.1629 8.88478
    endloop
  endfacet
  facet normal -0.0829272 2.72979e-5 0.996556
    outer loop
      vertex 17.9031 -23.1629 8.88478
      vertex 17.8747 -23.1863 8.88241
      vertex 17.9102 -23.1711 8.88537
    endloop
  endfacet
  facet normal -0.082923 1.74967e-5 0.996556
    outer loop
      vertex 17.8747 -23.1863 8.88241
      vertex 17.8852 -23.198 8.88328
      vertex 17.9102 -23.1711 8.88537
    endloop
  endfacet
  facet normal -0.0828974 -6.55625e-6 0.996558
    outer loop
      vertex 17.9102 -23.1711 8.88537
      vertex 17.8852 -23.198 8.88328
      vertex 17.9193 -23.177 8.88612
    endloop
  endfacet
  facet normal -0.0828949 -1.07423e-5 0.996558
    outer loop
      vertex 17.8852 -23.198 8.88328
      vertex 17.8978 -23.2072 8.88433
      vertex 17.9193 -23.177 8.88612
    endloop
  endfacet
  facet normal -0.0828736 -2.60287e-5 0.99656
    outer loop
      vertex 17.9193 -23.177 8.88612
      vertex 17.8978 -23.2072 8.88433
      vertex 17.912 -23.2135 8.88551
    endloop
  endfacet
  facet normal -0.0828609 3.02536e-5 0.996561
    outer loop
      vertex 17.8621 -23.1268 8.88137
      vertex 17.8605 -23.1424 8.88123
      vertex 17.8971 -23.1424 8.88428
    endloop
  endfacet
  facet normal -0.0828609 -1.66385e-5 0.996561
    outer loop
      vertex 17.8605 -23.1424 8.88123
      vertex 17.8987 -23.1531 8.8844
      vertex 17.8971 -23.1424 8.88428
    endloop
  endfacet
  facet normal -0.0828695 -5.35604e-6 0.99656
    outer loop
      vertex 17.867 -23.1119 8.88177
      vertex 17.8621 -23.1268 8.88137
      vertex 17.8987 -23.1316 8.8844
    endloop
  endfacet
  facet normal -0.0828665 1.74539e-5 0.996561
    outer loop
      vertex 17.8621 -23.1268 8.88137
      vertex 17.8971 -23.1424 8.88428
      vertex 17.8987 -23.1316 8.8844
    endloop
  endfacet
  facet normal -0.947803 0.308957 -0.0788336
    outer loop
      vertex 17.8621 -23.1268 8.88137
      vertex 17.867 -23.1119 8.88177
      vertex 17.8687 -23.1268 8.8029
    endloop
  endfacet
  facet normal -0.94784 0.308849 -0.0788142
    outer loop
      vertex 17.867 -23.1119 8.88177
      vertex 17.8735 -23.1119 8.8033
      vertex 17.8687 -23.1268 8.8029
    endloop
  endfacet
  facet normal 0.0828897 -9.14733e-6 -0.996559
    outer loop
      vertex 17.8735 -23.1728 8.8033
      vertex 17.8687 -23.1579 8.8029
      vertex 17.9122 -23.1594 8.80651
    endloop
  endfacet
  facet normal -0.947827 -0.308884 -0.0788356
    outer loop
      vertex 17.8687 -23.1579 8.8029
      vertex 17.8735 -23.1728 8.8033
      vertex 17.8621 -23.1579 8.88137
    endloop
  endfacet
  facet normal -0.947794 -0.308992 -0.0788103
    outer loop
      vertex 17.8735 -23.1728 8.8033
      vertex 17.867 -23.1728 8.88177
      vertex 17.8621 -23.1579 8.88137
    endloop
  endfacet
  facet normal 0.0828897 9.14617e-6 -0.996559
    outer loop
      vertex 17.8687 -23.1268 8.8029
      vertex 17.8735 -23.1119 8.8033
      vertex 17.9122 -23.1253 8.80651
    endloop
  endfacet
  facet normal 0.0828868 5.72531e-7 -0.996559
    outer loop
      vertex 17.8735 -23.1119 8.8033
      vertex 17.8813 -23.0984 8.80395
      vertex 17.9122 -23.1253 8.80651
    endloop
  endfacet
  facet normal 0.0828721 -1.63837e-5 -0.99656
    outer loop
      vertex 17.9122 -23.1253 8.80651
      vertex 17.8813 -23.0984 8.80395
      vertex 17.8917 -23.0868 8.80481
    endloop
  endfacet
  facet normal 0.996562 0 0.0828528
    outer loop
      vertex 17.9122 -23.1594 8.80651
      vertex 17.9122 -23.1253 8.80651
      vertex 17.9081 -23.1253 8.85556
    endloop
  endfacet
  facet normal 0.996562 0 0.0828528
    outer loop
      vertex 17.9081 -23.1594 8.85556
      vertex 17.9122 -23.1594 8.80651
      vertex 17.9081 -23.1253 8.85556
    endloop
  endfacet
  facet normal 0.498221 0.86606 0.0414214
    outer loop
      vertex 17.9122 -23.1594 8.80651
      vertex 17.9081 -23.1594 8.85556
      vertex 17.9416 -23.1765 8.80896
    endloop
  endfacet
  facet normal 0.498242 0.866047 0.0414413
    outer loop
      vertex 17.9081 -23.1594 8.85556
      vertex 17.9375 -23.1765 8.85801
      vertex 17.9416 -23.1765 8.80896
    endloop
  endfacet
  facet normal 0.0828906 2.95995e-6 -0.996559
    outer loop
      vertex 17.9122 -23.1594 8.80651
      vertex 17.9416 -23.1765 8.80896
      vertex 17.9043 -23.2072 8.80586
    endloop
  endfacet
  facet normal 0.0829079 -1.82526e-5 -0.996557
    outer loop
      vertex 17.9416 -23.1765 8.80896
      vertex 17.9185 -23.2135 8.80705
      vertex 17.9043 -23.2072 8.80586
    endloop
  endfacet
  facet normal -0.986413 -0.142333 -0.082036
    outer loop
      vertex 17.8971 -23.1424 8.88428
      vertex 17.8987 -23.1531 8.8844
      vertex 17.8808 -23.1424 9.08045
    endloop
  endfacet
  facet normal -0.986413 -0.142333 -0.082036
    outer loop
      vertex 17.8987 -23.1531 8.8844
      vertex 17.8823 -23.1531 9.08058
      vertex 17.8808 -23.1424 9.08045
    endloop
  endfacet
  facet normal -0.986413 0.142333 -0.082036
    outer loop
      vertex 17.8987 -23.1316 8.8844
      vertex 17.8971 -23.1424 8.88428
      vertex 17.8823 -23.1316 9.08058
    endloop
  endfacet
  facet normal -0.986413 0.142333 -0.082036
    outer loop
      vertex 17.8971 -23.1424 8.88428
      vertex 17.8808 -23.1424 9.08045
      vertex 17.8823 -23.1316 9.08058
    endloop
  endfacet
  facet normal -0.906472 -0.415482 -0.0753876
    outer loop
      vertex 17.8987 -23.1531 8.8844
      vertex 17.9031 -23.1629 8.88478
      vertex 17.8823 -23.1531 9.08058
    endloop
  endfacet
  facet normal -0.906533 -0.415346 -0.075401
    outer loop
      vertex 17.9031 -23.1629 8.88478
      vertex 17.8868 -23.1629 9.08095
      vertex 17.8823 -23.1531 9.08058
    endloop
  endfacet
  facet normal -0.0828677 4.5472e-5 0.996561
    outer loop
      vertex 17.8747 -23.0984 8.88241
      vertex 17.867 -23.1119 8.88177
      vertex 17.9031 -23.1218 8.88478
    endloop
  endfacet
  facet normal -0.0828906 -3.95689e-5 0.996559
    outer loop
      vertex 17.867 -23.1119 8.88177
      vertex 17.8987 -23.1316 8.8844
      vertex 17.9031 -23.1218 8.88478
    endloop
  endfacet
  facet normal -0.863073 0.499955 -0.0717657
    outer loop
      vertex 17.867 -23.1119 8.88177
      vertex 17.8747 -23.0984 8.88241
      vertex 17.8735 -23.1119 8.8033
    endloop
  endfacet
  facet normal -0.863018 0.500048 -0.0717824
    outer loop
      vertex 17.8747 -23.0984 8.88241
      vertex 17.8813 -23.0984 8.80395
      vertex 17.8735 -23.1119 8.8033
    endloop
  endfacet
  facet normal -0.906501 0.415417 -0.0753983
    outer loop
      vertex 17.9031 -23.1218 8.88478
      vertex 17.8987 -23.1316 8.8844
      vertex 17.8868 -23.1218 9.08095
    endloop
  endfacet
  facet normal -0.906563 0.415281 -0.0753952
    outer loop
      vertex 17.8987 -23.1316 8.8844
      vertex 17.8823 -23.1316 9.08058
      vertex 17.8868 -23.1218 9.08095
    endloop
  endfacet
  facet normal 0.0828868 -5.72478e-7 -0.996559
    outer loop
      vertex 17.8813 -23.1863 8.80395
      vertex 17.8735 -23.1728 8.8033
      vertex 17.9122 -23.1594 8.80651
    endloop
  endfacet
  facet normal -0.863049 -0.499996 -0.0717637
    outer loop
      vertex 17.8735 -23.1728 8.8033
      vertex 17.8813 -23.1863 8.80395
      vertex 17.867 -23.1728 8.88177
    endloop
  endfacet
  facet normal -0.863101 -0.499903 -0.0717893
    outer loop
      vertex 17.8813 -23.1863 8.80395
      vertex 17.8747 -23.1863 8.88241
      vertex 17.867 -23.1728 8.88177
    endloop
  endfacet
  facet normal 0.0828906 -2.95979e-6 -0.996559
    outer loop
      vertex 17.9416 -23.1083 8.80896
      vertex 17.9122 -23.1253 8.80651
      vertex 17.9043 -23.0776 8.80586
    endloop
  endfacet
  facet normal 0.0829002 -1.35956e-6 -0.996558
    outer loop
      vertex 17.9122 -23.1253 8.80651
      vertex 17.8917 -23.0868 8.80481
      vertex 17.9043 -23.0776 8.80586
    endloop
  endfacet
  facet normal 0.498301 -0.866013 0.0414462
    outer loop
      vertex 17.9122 -23.1253 8.80651
      vertex 17.9416 -23.1083 8.80896
      vertex 17.9375 -23.1083 8.85801
    endloop
  endfacet
  facet normal 0.498325 -0.866 0.0414301
    outer loop
      vertex 17.9081 -23.1253 8.85556
      vertex 17.9122 -23.1253 8.80651
      vertex 17.9375 -23.1083 8.85801
    endloop
  endfacet
  facet normal 0.0828721 1.63837e-5 -0.99656
    outer loop
      vertex 17.8917 -23.198 8.80481
      vertex 17.8813 -23.1863 8.80395
      vertex 17.9122 -23.1594 8.80651
    endloop
  endfacet
  facet normal -0.740546 -0.669176 -0.0615957
    outer loop
      vertex 17.8813 -23.1863 8.80395
      vertex 17.8917 -23.198 8.80481
      vertex 17.8747 -23.1863 8.88241
    endloop
  endfacet
  facet normal -0.740544 -0.669179 -0.0615948
    outer loop
      vertex 17.8917 -23.198 8.80481
      vertex 17.8852 -23.198 8.88328
      vertex 17.8747 -23.1863 8.88241
    endloop
  endfacet
  facet normal 0.0829254 0 -0.996556
    outer loop
      vertex 17.9081 -23.1253 8.85556
      vertex 17.9375 -23.1083 8.85801
      vertex 17.9081 -23.1594 8.85556
    endloop
  endfacet
  facet normal 0.082898 1.58744e-5 -0.996558
    outer loop
      vertex 17.9375 -23.1083 8.85801
      vertex 17.9669 -23.1253 8.86045
      vertex 17.9081 -23.1594 8.85556
    endloop
  endfacet
  facet normal 0.0829163 -1.58766e-5 -0.996557
    outer loop
      vertex 17.9081 -23.1594 8.85556
      vertex 17.9669 -23.1253 8.86045
      vertex 17.9375 -23.1765 8.85801
    endloop
  endfacet
  facet normal 0.0828889 0 -0.996559
    outer loop
      vertex 17.9669 -23.1253 8.86045
      vertex 17.9669 -23.1594 8.86045
      vertex 17.9375 -23.1765 8.85801
    endloop
  endfacet
  facet normal 0.0829002 1.35963e-6 -0.996558
    outer loop
      vertex 17.9043 -23.2072 8.80586
      vertex 17.8917 -23.198 8.80481
      vertex 17.9122 -23.1594 8.80651
    endloop
  endfacet
  facet normal -0.585823 -0.808973 -0.0487259
    outer loop
      vertex 17.8917 -23.198 8.80481
      vertex 17.9043 -23.2072 8.80586
      vertex 17.8852 -23.198 8.88328
    endloop
  endfacet
  facet normal -0.585768 -0.809014 -0.0487074
    outer loop
      vertex 17.9043 -23.2072 8.80586
      vertex 17.8978 -23.2072 8.88433
      vertex 17.8852 -23.198 8.88328
    endloop
  endfacet
  facet normal -0.40523 -0.913594 -0.0336954
    outer loop
      vertex 17.9043 -23.2072 8.80586
      vertex 17.9185 -23.2135 8.80705
      vertex 17.8978 -23.2072 8.88433
    endloop
  endfacet
  facet normal -0.405275 -0.913573 -0.0337092
    outer loop
      vertex 17.9185 -23.2135 8.80705
      vertex 17.912 -23.2135 8.88551
      vertex 17.8978 -23.2072 8.88433
    endloop
  endfacet
  facet normal -0.498197 0.866073 -0.0414375
    outer loop
      vertex 17.9416 -23.1765 8.80896
      vertex 17.9375 -23.1765 8.85801
      vertex 17.971 -23.1594 8.81141
    endloop
  endfacet
  facet normal -0.498218 0.86606 -0.0414574
    outer loop
      vertex 17.9375 -23.1765 8.85801
      vertex 17.9669 -23.1594 8.86045
      vertex 17.971 -23.1594 8.81141
    endloop
  endfacet
  facet normal 0.0828589 -1.14337e-5 -0.996561
    outer loop
      vertex 17.9416 -23.1765 8.80896
      vertex 17.971 -23.1594 8.81141
      vertex 17.9789 -23.2072 8.81206
    endloop
  endfacet
  facet normal 0.0828915 -6.04588e-6 -0.996559
    outer loop
      vertex 17.971 -23.1594 8.81141
      vertex 17.9915 -23.198 8.81311
      vertex 17.9789 -23.2072 8.81206
    endloop
  endfacet
  facet normal -0.0828794 -1.93141e-5 0.99656
    outer loop
      vertex 17.8808 -23.1424 9.08045
      vertex 17.8823 -23.1531 9.08058
      vertex 17.9187 -23.1424 9.0836
    endloop
  endfacet
  facet normal -0.0829243 0.000134018 0.996556
    outer loop
      vertex 17.8823 -23.1531 9.08058
      vertex 17.8868 -23.1629 9.08095
      vertex 17.9187 -23.1424 9.0836
    endloop
  endfacet
  facet normal -0.0827882 -7.85321e-5 0.996567
    outer loop
      vertex 17.9187 -23.1424 9.0836
      vertex 17.8868 -23.1629 9.08095
      vertex 17.8939 -23.1711 9.08154
    endloop
  endfacet
  facet normal -0.0828794 1.93141e-5 0.99656
    outer loop
      vertex 17.8823 -23.1316 9.08058
      vertex 17.8808 -23.1424 9.08045
      vertex 17.9187 -23.1424 9.0836
    endloop
  endfacet
  facet normal -0.0829243 -0.000133996 0.996556
    outer loop
      vertex 17.8868 -23.1218 9.08095
      vertex 17.8823 -23.1316 9.08058
      vertex 17.9187 -23.1424 9.0836
    endloop
  endfacet
  facet normal -0.753151 -0.654858 -0.0626434
    outer loop
      vertex 17.9031 -23.1629 8.88478
      vertex 17.9102 -23.1711 8.88537
      vertex 17.8868 -23.1629 9.08095
    endloop
  endfacet
  facet normal -0.753158 -0.65485 -0.0626446
    outer loop
      vertex 17.9102 -23.1711 8.88537
      vertex 17.8939 -23.1711 9.08154
      vertex 17.8868 -23.1629 9.08095
    endloop
  endfacet
  facet normal -0.753078 0.654943 -0.0626379
    outer loop
      vertex 17.9102 -23.1136 8.88537
      vertex 17.9031 -23.1218 8.88478
      vertex 17.8939 -23.1136 9.08154
    endloop
  endfacet
  facet normal -0.753085 0.654935 -0.0626379
    outer loop
      vertex 17.9031 -23.1218 8.88478
      vertex 17.8868 -23.1218 9.08095
      vertex 17.8939 -23.1136 9.08154
    endloop
  endfacet
  facet normal -0.0829304 -2.44765e-5 0.996555
    outer loop
      vertex 17.9031 -23.1218 8.88478
      vertex 17.9102 -23.1136 8.88537
      vertex 17.8852 -23.0868 8.88328
    endloop
  endfacet
  facet normal -0.0828941 9.68003e-6 0.996558
    outer loop
      vertex 17.9102 -23.1136 8.88537
      vertex 17.8978 -23.0776 8.88433
      vertex 17.8852 -23.0868 8.88328
    endloop
  endfacet
  facet normal -0.0829208 -1.94957e-5 0.996556
    outer loop
      vertex 17.8852 -23.0868 8.88328
      vertex 17.8747 -23.0984 8.88241
      vertex 17.9031 -23.1218 8.88478
    endloop
  endfacet
  facet normal -0.740544 0.669179 -0.0615955
    outer loop
      vertex 17.8747 -23.0984 8.88241
      vertex 17.8852 -23.0868 8.88328
      vertex 17.8813 -23.0984 8.80395
    endloop
  endfacet
  facet normal -0.740546 0.669176 -0.061595
    outer loop
      vertex 17.8852 -23.0868 8.88328
      vertex 17.8917 -23.0868 8.80481
      vertex 17.8813 -23.0984 8.80395
    endloop
  endfacet
  facet normal -0.0827882 7.8541e-5 0.996567
    outer loop
      vertex 17.8939 -23.1136 9.08154
      vertex 17.8868 -23.1218 9.08095
      vertex 17.9187 -23.1424 9.0836
    endloop
  endfacet
  facet normal -0.498301 -0.866013 -0.0414462
    outer loop
      vertex 17.9375 -23.1083 8.85801
      vertex 17.9416 -23.1083 8.80896
      vertex 17.9669 -23.1253 8.86045
    endloop
  endfacet
  facet normal -0.498277 -0.866026 -0.0414624
    outer loop
      vertex 17.9416 -23.1083 8.80896
      vertex 17.971 -23.1253 8.81141
      vertex 17.9669 -23.1253 8.86045
    endloop
  endfacet
  facet normal -0.585902 0.808916 -0.0487185
    outer loop
      vertex 17.9043 -23.0776 8.80586
      vertex 17.8917 -23.0868 8.80481
      vertex 17.8978 -23.0776 8.88433
    endloop
  endfacet
  facet normal -0.585844 0.808957 -0.0487276
    outer loop
      vertex 17.8917 -23.0868 8.80481
      vertex 17.8852 -23.0868 8.88328
      vertex 17.8978 -23.0776 8.88433
    endloop
  endfacet
  facet normal -0.405229 0.913594 -0.0337054
    outer loop
      vertex 17.9185 -23.0712 8.80705
      vertex 17.9043 -23.0776 8.80586
      vertex 17.912 -23.0712 8.88551
    endloop
  endfacet
  facet normal -0.405276 0.913573 -0.0336992
    outer loop
      vertex 17.9043 -23.0776 8.80586
      vertex 17.8978 -23.0776 8.88433
      vertex 17.912 -23.0712 8.88551
    endloop
  endfacet
  facet normal 0.0829079 1.82533e-5 -0.996557
    outer loop
      vertex 17.9043 -23.0776 8.80586
      vertex 17.9185 -23.0712 8.80705
      vertex 17.9416 -23.1083 8.80896
    endloop
  endfacet
  facet normal 0.0828124 -4.15352e-5 -0.996565
    outer loop
      vertex 17.9185 -23.0712 8.80705
      vertex 17.9338 -23.068 8.80831
      vertex 17.9416 -23.1083 8.80896
    endloop
  endfacet
  facet normal 0.0829075 -2.30311e-5 -0.996557
    outer loop
      vertex 17.9416 -23.1083 8.80896
      vertex 17.9338 -23.068 8.80831
      vertex 17.9494 -23.068 8.80961
    endloop
  endfacet
  facet normal 0.0828589 1.14331e-5 -0.996561
    outer loop
      vertex 17.971 -23.1253 8.81141
      vertex 17.9416 -23.1083 8.80896
      vertex 17.9789 -23.0776 8.81206
    endloop
  endfacet
  facet normal 0.0828572 1.34694e-5 -0.996561
    outer loop
      vertex 17.9416 -23.1083 8.80896
      vertex 17.9646 -23.0712 8.81088
      vertex 17.9789 -23.0776 8.81206
    endloop
  endfacet
  facet normal 0.0828124 4.15361e-5 -0.996565
    outer loop
      vertex 17.9338 -23.2168 8.80831
      vertex 17.9185 -23.2135 8.80705
      vertex 17.9416 -23.1765 8.80896
    endloop
  endfacet
  facet normal -0.207133 -0.978161 -0.0172285
    outer loop
      vertex 17.9185 -23.2135 8.80705
      vertex 17.9338 -23.2168 8.80831
      vertex 17.912 -23.2135 8.88551
    endloop
  endfacet
  facet normal -0.207132 -0.978161 -0.0172282
    outer loop
      vertex 17.9338 -23.2168 8.80831
      vertex 17.9273 -23.2168 8.88678
      vertex 17.912 -23.2135 8.88551
    endloop
  endfacet
  facet normal -0.996556 0 -0.0829249
    outer loop
      vertex 17.9669 -23.1253 8.86045
      vertex 17.971 -23.1253 8.81141
      vertex 17.9669 -23.1594 8.86045
    endloop
  endfacet
  facet normal -0.996556 0 -0.0829249
    outer loop
      vertex 17.971 -23.1253 8.81141
      vertex 17.971 -23.1594 8.81141
      vertex 17.9669 -23.1594 8.86045
    endloop
  endfacet
  facet normal 0.0829075 2.30311e-5 -0.996557
    outer loop
      vertex 17.9494 -23.2168 8.80961
      vertex 17.9338 -23.2168 8.80831
      vertex 17.9416 -23.1765 8.80896
    endloop
  endfacet
  facet normal 0 -1 0
    outer loop
      vertex 17.9338 -23.2168 8.80831
      vertex 17.9494 -23.2168 8.80961
      vertex 17.9273 -23.2168 8.88678
    endloop
  endfacet
  facet normal 0 -1 0
    outer loop
      vertex 17.9494 -23.2168 8.80961
      vertex 17.9428 -23.2168 8.88808
      vertex 17.9273 -23.2168 8.88678
    endloop
  endfacet
  facet normal 0.0829025 0 -0.996558
    outer loop
      vertex 17.971 -23.1594 8.81141
      vertex 17.971 -23.1253 8.81141
      vertex 18.0161 -23.1424 8.81516
    endloop
  endfacet
  facet normal 0.0828888 -3.64082e-5 -0.996559
    outer loop
      vertex 17.971 -23.1253 8.81141
      vertex 18.0145 -23.1268 8.81503
      vertex 18.0161 -23.1424 8.81516
    endloop
  endfacet
  facet normal 0.0829192 2.53139e-5 -0.996556
    outer loop
      vertex 17.9646 -23.2135 8.81088
      vertex 17.9494 -23.2168 8.80961
      vertex 17.9416 -23.1765 8.80896
    endloop
  endfacet
  facet normal 0.207131 -0.978162 0.0172232
    outer loop
      vertex 17.9494 -23.2168 8.80961
      vertex 17.9646 -23.2135 8.81088
      vertex 17.9428 -23.2168 8.88808
    endloop
  endfacet
  facet normal 0.207131 -0.978162 0.0172232
    outer loop
      vertex 17.9646 -23.2135 8.81088
      vertex 17.9581 -23.2135 8.88935
      vertex 17.9428 -23.2168 8.88808
    endloop
  endfacet
  facet normal 0.0828572 -1.34689e-5 -0.996561
    outer loop
      vertex 17.9789 -23.2072 8.81206
      vertex 17.9646 -23.2135 8.81088
      vertex 17.9416 -23.1765 8.80896
    endloop
  endfacet
  facet normal 0.405232 -0.913593 0.0336956
    outer loop
      vertex 17.9646 -23.2135 8.81088
      vertex 17.9789 -23.2072 8.81206
      vertex 17.9581 -23.2135 8.88935
    endloop
  endfacet
  facet normal 0.405275 -0.913573 0.0337088
    outer loop
      vertex 17.9789 -23.2072 8.81206
      vertex 17.9723 -23.2072 8.89053
      vertex 17.9581 -23.2135 8.88935
    endloop
  endfacet
  facet normal 0.585767 -0.809014 0.0487212
    outer loop
      vertex 17.9789 -23.2072 8.81206
      vertex 17.9915 -23.198 8.81311
      vertex 17.9723 -23.2072 8.89053
    endloop
  endfacet
  facet normal 0.585767 -0.809014 0.0487212
    outer loop
      vertex 17.9915 -23.198 8.81311
      vertex 17.9849 -23.198 8.89158
      vertex 17.9723 -23.2072 8.89053
    endloop
  endfacet
  facet normal -0.538806 -0.841237 -0.0448156
    outer loop
      vertex 17.9102 -23.1711 8.88537
      vertex 17.9193 -23.177 8.88612
      vertex 17.8939 -23.1711 9.08154
    endloop
  endfacet
  facet normal -0.538728 -0.841287 -0.0448041
    outer loop
      vertex 17.9193 -23.177 8.88612
      vertex 17.903 -23.177 9.08229
      vertex 17.8939 -23.1711 9.08154
    endloop
  endfacet
  facet normal -0.0828771 1.20292e-6 0.99656
    outer loop
      vertex 17.903 -23.1077 9.08229
      vertex 17.8939 -23.1136 9.08154
      vertex 17.9187 -23.1424 9.0836
    endloop
  endfacet
  facet normal -0.538728 0.841287 -0.0448092
    outer loop
      vertex 17.8939 -23.1136 9.08154
      vertex 17.903 -23.1077 9.08229
      vertex 17.9102 -23.1136 8.88537
    endloop
  endfacet
  facet normal -0.538806 0.841237 -0.0448105
    outer loop
      vertex 17.903 -23.1077 9.08229
      vertex 17.9193 -23.1077 8.88612
      vertex 17.9102 -23.1136 8.88537
    endloop
  endfacet
  facet normal -0.0828985 8.16651e-6 0.996558
    outer loop
      vertex 17.9102 -23.1136 8.88537
      vertex 17.9193 -23.1077 8.88612
      vertex 17.8978 -23.0776 8.88433
    endloop
  endfacet
  facet normal -0.0828736 2.60287e-5 0.99656
    outer loop
      vertex 17.9193 -23.1077 8.88612
      vertex 17.912 -23.0712 8.88551
      vertex 17.8978 -23.0776 8.88433
    endloop
  endfacet
  facet normal -0.0828771 -1.20292e-6 0.99656
    outer loop
      vertex 17.8939 -23.1711 9.08154
      vertex 17.903 -23.177 9.08229
      vertex 17.9187 -23.1424 9.0836
    endloop
  endfacet
  facet normal -0.082882 1.05422e-6 0.996559
    outer loop
      vertex 17.903 -23.177 9.08229
      vertex 17.9133 -23.18 9.08315
      vertex 17.9187 -23.1424 9.0836
    endloop
  endfacet
  facet normal -0.0829601 1.23183e-5 0.996553
    outer loop
      vertex 17.9187 -23.1424 9.0836
      vertex 17.9133 -23.18 9.08315
      vertex 17.9241 -23.18 9.08405
    endloop
  endfacet
  facet normal -0.082882 -1.05414e-6 0.996559
    outer loop
      vertex 17.9133 -23.1047 9.08315
      vertex 17.903 -23.1077 9.08229
      vertex 17.9187 -23.1424 9.0836
    endloop
  endfacet
  facet normal -0.280843 0.959469 -0.0233567
    outer loop
      vertex 17.903 -23.1077 9.08229
      vertex 17.9133 -23.1047 9.08315
      vertex 17.9193 -23.1077 8.88612
    endloop
  endfacet
  facet normal -0.280845 0.959469 -0.0233567
    outer loop
      vertex 17.9133 -23.1047 9.08315
      vertex 17.9297 -23.1047 8.88698
      vertex 17.9193 -23.1077 8.88612
    endloop
  endfacet
  facet normal -0.0829601 -1.23177e-5 0.996553
    outer loop
      vertex 17.9241 -23.1047 9.08405
      vertex 17.9133 -23.1047 9.08315
      vertex 17.9187 -23.1424 9.0836
    endloop
  endfacet
  facet normal 0 1 0
    outer loop
      vertex 17.9133 -23.1047 9.08315
      vertex 17.9241 -23.1047 9.08405
      vertex 17.9297 -23.1047 8.88698
    endloop
  endfacet
  facet normal 0 1 0
    outer loop
      vertex 17.9241 -23.1047 9.08405
      vertex 17.9405 -23.1047 8.88788
      vertex 17.9297 -23.1047 8.88698
    endloop
  endfacet
  facet normal -0.280685 -0.959516 -0.0233435
    outer loop
      vertex 17.9133 -23.18 9.08315
      vertex 17.903 -23.177 9.08229
      vertex 17.9297 -23.18 8.88698
    endloop
  endfacet
  facet normal -0.280687 -0.959515 -0.0233437
    outer loop
      vertex 17.903 -23.177 9.08229
      vertex 17.9193 -23.177 8.88612
      vertex 17.9297 -23.18 8.88698
    endloop
  endfacet
  facet normal 0 -1 0
    outer loop
      vertex 17.9241 -23.18 9.08405
      vertex 17.9133 -23.18 9.08315
      vertex 17.9405 -23.18 8.88788
    endloop
  endfacet
  facet normal 0 -1 0
    outer loop
      vertex 17.9133 -23.18 9.08315
      vertex 17.9297 -23.18 8.88698
      vertex 17.9405 -23.18 8.88788
    endloop
  endfacet
  facet normal -0.0828036 -3.49016e-5 0.996566
    outer loop
      vertex 17.9345 -23.1077 9.08491
      vertex 17.9241 -23.1047 9.08405
      vertex 17.9187 -23.1424 9.0836
    endloop
  endfacet
  facet normal 0.280845 0.959469 0.0233567
    outer loop
      vertex 17.9241 -23.1047 9.08405
      vertex 17.9345 -23.1077 9.08491
      vertex 17.9405 -23.1047 8.88788
    endloop
  endfacet
  facet normal 0.280843 0.959469 0.0233567
    outer loop
      vertex 17.9345 -23.1077 9.08491
      vertex 17.9508 -23.1077 8.88874
      vertex 17.9405 -23.1047 8.88788
    endloop
  endfacet
  facet normal 0.280687 -0.959515 0.0233437
    outer loop
      vertex 17.9345 -23.177 9.08491
      vertex 17.9241 -23.18 9.08405
      vertex 17.9508 -23.177 8.88874
    endloop
  endfacet
  facet normal 0.280685 -0.959516 0.0233435
    outer loop
      vertex 17.9241 -23.18 9.08405
      vertex 17.9405 -23.18 8.88788
      vertex 17.9508 -23.177 8.88874
    endloop
  endfacet
  facet normal -0.0828036 3.49042e-5 0.996566
    outer loop
      vertex 17.9241 -23.18 9.08405
      vertex 17.9345 -23.177 9.08491
      vertex 17.9187 -23.1424 9.0836
    endloop
  endfacet
  facet normal -0.0828771 1.20292e-6 0.99656
    outer loop
      vertex 17.9345 -23.177 9.08491
      vertex 17.9436 -23.1711 9.08567
      vertex 17.9187 -23.1424 9.0836
    endloop
  endfacet
  facet normal -0.0829185 -3.48159e-5 0.996556
    outer loop
      vertex 17.9187 -23.1424 9.0836
      vertex 17.9436 -23.1711 9.08567
      vertex 17.9506 -23.1629 9.08626
    endloop
  endfacet
  facet normal -0.0828771 -1.20292e-6 0.99656
    outer loop
      vertex 17.9436 -23.1136 9.08567
      vertex 17.9345 -23.1077 9.08491
      vertex 17.9187 -23.1424 9.0836
    endloop
  endfacet
  facet normal 0.538728 0.841287 0.0448041
    outer loop
      vertex 17.9345 -23.1077 9.08491
      vertex 17.9436 -23.1136 9.08567
      vertex 17.9508 -23.1077 8.88874
    endloop
  endfacet
  facet normal 0.53865 0.841337 0.0448027
    outer loop
      vertex 17.9436 -23.1136 9.08567
      vertex 17.9599 -23.1136 8.8895
      vertex 17.9508 -23.1077 8.88874
    endloop
  endfacet
  facet normal 0.538728 -0.841287 0.0448092
    outer loop
      vertex 17.9436 -23.1711 9.08567
      vertex 17.9345 -23.177 9.08491
      vertex 17.9599 -23.1711 8.8895
    endloop
  endfacet
  facet normal 0.538651 -0.841337 0.0447976
    outer loop
      vertex 17.9345 -23.177 9.08491
      vertex 17.9508 -23.177 8.88874
      vertex 17.9599 -23.1711 8.8895
    endloop
  endfacet
  facet normal -0.0829185 3.48199e-5 0.996556
    outer loop
      vertex 17.9506 -23.1218 9.08626
      vertex 17.9436 -23.1136 9.08567
      vertex 17.9187 -23.1424 9.0836
    endloop
  endfacet
  facet normal 0.753078 0.654943 0.0626379
    outer loop
      vertex 17.9436 -23.1136 9.08567
      vertex 17.9506 -23.1218 9.08626
      vertex 17.9599 -23.1136 8.8895
    endloop
  endfacet
  facet normal 0.753081 0.654939 0.0626379
    outer loop
      vertex 17.9506 -23.1218 9.08626
      vertex 17.967 -23.1218 8.89008
      vertex 17.9599 -23.1136 8.8895
    endloop
  endfacet
  facet normal 0.753151 -0.654858 0.0626437
    outer loop
      vertex 17.9506 -23.1629 9.08626
      vertex 17.9436 -23.1711 9.08567
      vertex 17.967 -23.1629 8.89008
    endloop
  endfacet
  facet normal 0.753155 -0.654854 0.0626443
    outer loop
      vertex 17.9436 -23.1711 9.08567
      vertex 17.9599 -23.1711 8.8895
      vertex 17.967 -23.1629 8.89008
    endloop
  endfacet
  facet normal -0.0829146 2.86063e-5 0.996557
    outer loop
      vertex 17.9551 -23.1316 9.08663
      vertex 17.9506 -23.1218 9.08626
      vertex 17.9187 -23.1424 9.0836
    endloop
  endfacet
  facet normal 0.906501 0.415417 0.0753986
    outer loop
      vertex 17.9506 -23.1218 9.08626
      vertex 17.9551 -23.1316 9.08663
      vertex 17.967 -23.1218 8.89008
    endloop
  endfacet
  facet normal 0.906566 0.415275 0.0753955
    outer loop
      vertex 17.9551 -23.1316 9.08663
      vertex 17.9714 -23.1316 8.89046
      vertex 17.967 -23.1218 8.89008
    endloop
  endfacet
  facet normal 0.906472 -0.415482 0.0753876
    outer loop
      vertex 17.9551 -23.1531 9.08663
      vertex 17.9506 -23.1629 9.08626
      vertex 17.9714 -23.1531 8.89046
    endloop
  endfacet
  facet normal 0.906536 -0.41534 0.0754015
    outer loop
      vertex 17.9506 -23.1629 9.08626
      vertex 17.967 -23.1629 8.89008
      vertex 17.9714 -23.1531 8.89046
    endloop
  endfacet
  facet normal -0.0829146 -2.86111e-5 0.996557
    outer loop
      vertex 17.9506 -23.1629 9.08626
      vertex 17.9551 -23.1531 9.08663
      vertex 17.9187 -23.1424 9.0836
    endloop
  endfacet
  facet normal -0.0828997 2.22372e-5 0.996558
    outer loop
      vertex 17.9551 -23.1531 9.08663
      vertex 17.9567 -23.1424 9.08676
      vertex 17.9187 -23.1424 9.0836
    endloop
  endfacet
  facet normal -0.0828997 -2.22372e-5 0.996558
    outer loop
      vertex 17.9187 -23.1424 9.0836
      vertex 17.9567 -23.1424 9.08676
      vertex 17.9551 -23.1316 9.08663
    endloop
  endfacet
  facet normal 0.986413 0.142333 0.082036
    outer loop
      vertex 17.9551 -23.1316 9.08663
      vertex 17.9567 -23.1424 9.08676
      vertex 17.9714 -23.1316 8.89046
    endloop
  endfacet
  facet normal 0.986389 0.142501 0.0820433
    outer loop
      vertex 17.9567 -23.1424 9.08676
      vertex 17.973 -23.1424 8.89059
      vertex 17.9714 -23.1316 8.89046
    endloop
  endfacet
  facet normal 0.986413 -0.142333 0.0820453
    outer loop
      vertex 17.9567 -23.1424 9.08676
      vertex 17.9551 -23.1531 9.08663
      vertex 17.973 -23.1424 8.89059
    endloop
  endfacet
  facet normal 0.986389 -0.142501 0.082034
    outer loop
      vertex 17.9551 -23.1531 9.08663
      vertex 17.9714 -23.1531 8.89046
      vertex 17.973 -23.1424 8.89059
    endloop
  endfacet
  facet normal -0.082805 -3.97941e-5 0.996566
    outer loop
      vertex 17.9297 -23.18 8.88698
      vertex 17.9193 -23.177 8.88612
      vertex 17.912 -23.2135 8.88551
    endloop
  endfacet
  facet normal -0.207246 0.978137 -0.0172377
    outer loop
      vertex 17.9338 -23.068 8.80831
      vertex 17.9185 -23.0712 8.80705
      vertex 17.9273 -23.068 8.88678
    endloop
  endfacet
  facet normal -0.207245 0.978137 -0.0172379
    outer loop
      vertex 17.9185 -23.0712 8.80705
      vertex 17.912 -23.0712 8.88551
      vertex 17.9273 -23.068 8.88678
    endloop
  endfacet
  facet normal -0.0828657 7.58769e-6 0.996561
    outer loop
      vertex 17.9273 -23.068 8.88678
      vertex 17.912 -23.0712 8.88551
      vertex 17.9297 -23.1047 8.88698
    endloop
  endfacet
  facet normal -0.082805 3.97928e-5 0.996566
    outer loop
      vertex 17.912 -23.0712 8.88551
      vertex 17.9193 -23.1077 8.88612
      vertex 17.9297 -23.1047 8.88698
    endloop
  endfacet
  facet normal 0 1 0
    outer loop
      vertex 17.9494 -23.068 8.80961
      vertex 17.9338 -23.068 8.80831
      vertex 17.9428 -23.068 8.88808
    endloop
  endfacet
  facet normal 0 1 0
    outer loop
      vertex 17.9338 -23.068 8.80831
      vertex 17.9273 -23.068 8.88678
      vertex 17.9428 -23.068 8.88808
    endloop
  endfacet
  facet normal 0.207245 0.978137 0.0172327
    outer loop
      vertex 17.9646 -23.0712 8.81088
      vertex 17.9494 -23.068 8.80961
      vertex 17.9581 -23.0712 8.88935
    endloop
  endfacet
  facet normal 0.207245 0.978137 0.0172327
    outer loop
      vertex 17.9494 -23.068 8.80961
      vertex 17.9428 -23.068 8.88808
      vertex 17.9581 -23.0712 8.88935
    endloop
  endfacet
  facet normal 0.0829192 -2.53133e-5 -0.996556
    outer loop
      vertex 17.9494 -23.068 8.80961
      vertex 17.9646 -23.0712 8.81088
      vertex 17.9416 -23.1083 8.80896
    endloop
  endfacet
  facet normal 0.405231 0.913593 0.0337051
    outer loop
      vertex 17.9789 -23.0776 8.81206
      vertex 17.9646 -23.0712 8.81088
      vertex 17.9723 -23.0776 8.89053
    endloop
  endfacet
  facet normal 0.405276 0.913573 0.0336992
    outer loop
      vertex 17.9646 -23.0712 8.81088
      vertex 17.9581 -23.0712 8.88935
      vertex 17.9723 -23.0776 8.89053
    endloop
  endfacet
  facet normal 0.585844 0.808957 0.0487276
    outer loop
      vertex 17.9915 -23.0868 8.81311
      vertex 17.9789 -23.0776 8.81206
      vertex 17.9849 -23.0868 8.89158
    endloop
  endfacet
  facet normal 0.585844 0.808957 0.0487276
    outer loop
      vertex 17.9789 -23.0776 8.81206
      vertex 17.9723 -23.0776 8.89053
      vertex 17.9849 -23.0868 8.89158
    endloop
  endfacet
  facet normal 0.0828915 6.04554e-6 -0.996559
    outer loop
      vertex 17.9789 -23.0776 8.81206
      vertex 17.9915 -23.0868 8.81311
      vertex 17.971 -23.1253 8.81141
    endloop
  endfacet
  facet normal 0.0828814 1.14471e-5 -0.996559
    outer loop
      vertex 17.9915 -23.0868 8.81311
      vertex 18.0019 -23.0984 8.81398
      vertex 17.971 -23.1253 8.81141
    endloop
  endfacet
  facet normal 0.0828901 1.3433e-6 -0.996559
    outer loop
      vertex 17.971 -23.1253 8.81141
      vertex 18.0019 -23.0984 8.81398
      vertex 18.0097 -23.1119 8.81463
    endloop
  endfacet
  facet normal -0.0829601 2.80923e-5 0.996553
    outer loop
      vertex 17.9297 -23.1047 8.88698
      vertex 17.9405 -23.1047 8.88788
      vertex 17.9428 -23.068 8.88808
    endloop
  endfacet
  facet normal -0.0829192 2.54036e-5 0.996556
    outer loop
      vertex 17.9405 -23.1047 8.88788
      vertex 17.9581 -23.0712 8.88935
      vertex 17.9428 -23.068 8.88808
    endloop
  endfacet
  facet normal -0.0828657 -7.58775e-6 0.996561
    outer loop
      vertex 17.912 -23.2135 8.88551
      vertex 17.9273 -23.2168 8.88678
      vertex 17.9297 -23.18 8.88698
    endloop
  endfacet
  facet normal -0.0829601 -1.3911e-6 0.996553
    outer loop
      vertex 17.9273 -23.2168 8.88678
      vertex 17.9405 -23.18 8.88788
      vertex 17.9297 -23.18 8.88698
    endloop
  endfacet
  facet normal -0.0828976 -2.39885e-5 0.996558
    outer loop
      vertex 17.9273 -23.2168 8.88678
      vertex 17.9428 -23.2168 8.88808
      vertex 17.9405 -23.18 8.88788
    endloop
  endfacet
  facet normal -0.0829192 -2.54038e-5 0.996556
    outer loop
      vertex 17.9428 -23.2168 8.88808
      vertex 17.9581 -23.2135 8.88935
      vertex 17.9405 -23.18 8.88788
    endloop
  endfacet
  facet normal -0.0828809 -5.07183e-6 0.996559
    outer loop
      vertex 17.9405 -23.18 8.88788
      vertex 17.9581 -23.2135 8.88935
      vertex 17.9508 -23.177 8.88874
    endloop
  endfacet
  facet normal -0.0828615 -1.18768e-6 0.996561
    outer loop
      vertex 17.9581 -23.2135 8.88935
      vertex 17.9723 -23.2072 8.89053
      vertex 17.9508 -23.177 8.88874
    endloop
  endfacet
  facet normal -0.0828596 1.94484e-7 0.996561
    outer loop
      vertex 17.9508 -23.177 8.88874
      vertex 17.9723 -23.2072 8.89053
      vertex 17.9599 -23.1711 8.8895
    endloop
  endfacet
  facet normal -0.0828817 -7.4818e-6 0.996559
    outer loop
      vertex 17.9723 -23.2072 8.89053
      vertex 17.9849 -23.198 8.89158
      vertex 17.9599 -23.1711 8.8895
    endloop
  endfacet
  facet normal -0.0828518 2.05497e-5 0.996562
    outer loop
      vertex 17.9599 -23.1711 8.8895
      vertex 17.9849 -23.198 8.89158
      vertex 17.967 -23.1629 8.89008
    endloop
  endfacet
  facet normal -0.0828677 1.23694e-5 0.996561
    outer loop
      vertex 17.9849 -23.198 8.89158
      vertex 17.9954 -23.1863 8.89245
      vertex 17.967 -23.1629 8.89008
    endloop
  endfacet
  facet normal -0.0828873 -1.16603e-5 0.996559
    outer loop
      vertex 17.967 -23.1629 8.89008
      vertex 17.9954 -23.1863 8.89245
      vertex 18.0032 -23.1728 8.89309
    endloop
  endfacet
  facet normal 0.0828814 -1.14471e-5 -0.996559
    outer loop
      vertex 18.0019 -23.1863 8.81398
      vertex 17.9915 -23.198 8.81311
      vertex 17.971 -23.1594 8.81141
    endloop
  endfacet
  facet normal 0.740605 -0.669111 0.0615999
    outer loop
      vertex 17.9915 -23.198 8.81311
      vertex 18.0019 -23.1863 8.81398
      vertex 17.9849 -23.198 8.89158
    endloop
  endfacet
  facet normal 0.740548 -0.669176 0.0615776
    outer loop
      vertex 18.0019 -23.1863 8.81398
      vertex 17.9954 -23.1863 8.89245
      vertex 17.9849 -23.198 8.89158
    endloop
  endfacet
  facet normal 0.991107 0.104473 0.0824119
    outer loop
      vertex 18.0161 -23.1424 8.81516
      vertex 18.0145 -23.1268 8.81503
      vertex 18.0096 -23.1424 8.89363
    endloop
  endfacet
  facet normal 0.991107 0.104473 0.0824119
    outer loop
      vertex 18.0145 -23.1268 8.81503
      vertex 18.008 -23.1268 8.8935
      vertex 18.0096 -23.1424 8.89363
    endloop
  endfacet
  facet normal 0.991109 -0.10446 0.082412
    outer loop
      vertex 18.0145 -23.1579 8.81503
      vertex 18.0161 -23.1424 8.81516
      vertex 18.008 -23.1579 8.8935
    endloop
  endfacet
  facet normal 0.991109 -0.10446 0.082412
    outer loop
      vertex 18.0161 -23.1424 8.81516
      vertex 18.0096 -23.1424 8.89363
      vertex 18.008 -23.1579 8.8935
    endloop
  endfacet
  facet normal 0.0828888 3.64038e-5 -0.996559
    outer loop
      vertex 18.0161 -23.1424 8.81516
      vertex 18.0145 -23.1579 8.81503
      vertex 17.971 -23.1594 8.81141
    endloop
  endfacet
  facet normal 0.0828901 -1.35156e-6 -0.996559
    outer loop
      vertex 18.0145 -23.1579 8.81503
      vertex 18.0097 -23.1728 8.81463
      vertex 17.971 -23.1594 8.81141
    endloop
  endfacet
  facet normal 0.0828901 -1.34318e-6 -0.996559
    outer loop
      vertex 17.971 -23.1594 8.81141
      vertex 18.0097 -23.1728 8.81463
      vertex 18.0019 -23.1863 8.81398
    endloop
  endfacet
  facet normal 0.947792 -0.308992 0.0788327
    outer loop
      vertex 18.0097 -23.1728 8.81463
      vertex 18.0145 -23.1579 8.81503
      vertex 18.0032 -23.1728 8.89309
    endloop
  endfacet
  facet normal 0.947759 -0.309099 0.0788074
    outer loop
      vertex 18.0145 -23.1579 8.81503
      vertex 18.008 -23.1579 8.8935
      vertex 18.0032 -23.1728 8.89309
    endloop
  endfacet
  facet normal 0.863049 -0.499996 0.0717637
    outer loop
      vertex 18.0019 -23.1863 8.81398
      vertex 18.0097 -23.1728 8.81463
      vertex 17.9954 -23.1863 8.89245
    endloop
  endfacet
  facet normal 0.863099 -0.499907 0.0717883
    outer loop
      vertex 18.0097 -23.1728 8.81463
      vertex 18.0032 -23.1728 8.89309
      vertex 17.9954 -23.1863 8.89245
    endloop
  endfacet
  facet normal -0.0828976 5.49189e-6 0.996558
    outer loop
      vertex 17.9428 -23.068 8.88808
      vertex 17.9273 -23.068 8.88678
      vertex 17.9297 -23.1047 8.88698
    endloop
  endfacet
  facet normal -0.0828615 1.18768e-6 0.996561
    outer loop
      vertex 17.9723 -23.0776 8.89053
      vertex 17.9581 -23.0712 8.88935
      vertex 17.9508 -23.1077 8.88874
    endloop
  endfacet
  facet normal -0.0828809 5.07165e-6 0.996559
    outer loop
      vertex 17.9581 -23.0712 8.88935
      vertex 17.9405 -23.1047 8.88788
      vertex 17.9508 -23.1077 8.88874
    endloop
  endfacet
  facet normal 0.740607 0.669111 0.0615824
    outer loop
      vertex 18.0019 -23.0984 8.81398
      vertex 17.9915 -23.0868 8.81311
      vertex 17.9954 -23.0984 8.89245
    endloop
  endfacet
  facet normal 0.740546 0.669176 0.061595
    outer loop
      vertex 17.9915 -23.0868 8.81311
      vertex 17.9849 -23.0868 8.89158
      vertex 17.9954 -23.0984 8.89245
    endloop
  endfacet
  facet normal 0.863018 0.500048 0.0717816
    outer loop
      vertex 18.0097 -23.1119 8.81463
      vertex 18.0019 -23.0984 8.81398
      vertex 18.0032 -23.1119 8.89309
    endloop
  endfacet
  facet normal 0.863071 0.499959 0.0717655
    outer loop
      vertex 18.0019 -23.0984 8.81398
      vertex 17.9954 -23.0984 8.89245
      vertex 18.0032 -23.1119 8.89309
    endloop
  endfacet
  facet normal 0.0828901 1.35139e-6 -0.996559
    outer loop
      vertex 18.0097 -23.1119 8.81463
      vertex 18.0145 -23.1268 8.81503
      vertex 17.971 -23.1253 8.81141
    endloop
  endfacet
  facet normal 0.947805 0.308957 0.0788113
    outer loop
      vertex 18.0145 -23.1268 8.81503
      vertex 18.0097 -23.1119 8.81463
      vertex 18.008 -23.1268 8.8935
    endloop
  endfacet
  facet normal 0.947768 0.309064 0.0788307
    outer loop
      vertex 18.0097 -23.1119 8.81463
      vertex 18.0032 -23.1119 8.89309
      vertex 18.008 -23.1268 8.8935
    endloop
  endfacet
  facet normal -0.0828778 1.28673e-5 0.99656
    outer loop
      vertex 17.9849 -23.0868 8.89158
      vertex 17.9723 -23.0776 8.89053
      vertex 17.9508 -23.1077 8.88874
    endloop
  endfacet
  facet normal -0.082864 -9.08672e-6 0.996561
    outer loop
      vertex 17.9954 -23.0984 8.89245
      vertex 17.9849 -23.0868 8.89158
      vertex 17.9599 -23.1136 8.8895
    endloop
  endfacet
  facet normal -0.0828648 -8.36213e-6 0.996561
    outer loop
      vertex 17.9849 -23.0868 8.89158
      vertex 17.9508 -23.1077 8.88874
      vertex 17.9599 -23.1136 8.8895
    endloop
  endfacet
  facet normal -0.0828572 -2.51971e-5 0.996561
    outer loop
      vertex 17.9599 -23.1136 8.8895
      vertex 17.967 -23.1218 8.89008
      vertex 17.9954 -23.0984 8.89245
    endloop
  endfacet
  facet normal -0.0828873 1.1662e-5 0.996559
    outer loop
      vertex 17.967 -23.1218 8.89008
      vertex 18.0032 -23.1119 8.89309
      vertex 17.9954 -23.0984 8.89245
    endloop
  endfacet
  facet normal -0.0828982 -5.17904e-5 0.996558
    outer loop
      vertex 17.9714 -23.1531 8.89046
      vertex 17.967 -23.1629 8.89008
      vertex 18.0032 -23.1728 8.89309
    endloop
  endfacet
  facet normal -0.0828982 5.17828e-5 0.996558
    outer loop
      vertex 17.967 -23.1218 8.89008
      vertex 17.9714 -23.1316 8.89046
      vertex 18.0032 -23.1119 8.89309
    endloop
  endfacet
  facet normal -0.0828642 -3.28361e-6 0.996561
    outer loop
      vertex 17.9714 -23.1316 8.89046
      vertex 18.008 -23.1268 8.8935
      vertex 18.0032 -23.1119 8.89309
    endloop
  endfacet
  facet normal -0.0828606 3.09847e-5 0.996561
    outer loop
      vertex 17.973 -23.1424 8.89059
      vertex 17.9714 -23.1531 8.89046
      vertex 18.008 -23.1579 8.8935
    endloop
  endfacet
  facet normal -0.0828642 3.28395e-6 0.996561
    outer loop
      vertex 17.9714 -23.1531 8.89046
      vertex 18.0032 -23.1728 8.89309
      vertex 18.008 -23.1579 8.8935
    endloop
  endfacet
  facet normal -0.0828902 -3.52733e-5 0.996559
    outer loop
      vertex 17.9714 -23.1316 8.89046
      vertex 17.973 -23.1424 8.89059
      vertex 18.0096 -23.1424 8.89363
    endloop
  endfacet
  facet normal -0.0828902 -3.62532e-5 0.996559
    outer loop
      vertex 17.973 -23.1424 8.89059
      vertex 18.008 -23.1579 8.8935
      vertex 18.0096 -23.1424 8.89363
    endloop
  endfacet
  facet normal -0.0828697 3.8426e-5 0.99656
    outer loop
      vertex 18.0096 -23.1424 8.89363
      vertex 18.008 -23.1268 8.8935
      vertex 17.9714 -23.1316 8.89046
    endloop
  endfacet
endsolid Onshape
