solid Onshape
  facet normal 0.082852 -6.98612e-6 -0.996562
    outer loop
      vertex 19.3992 -23.9987 9.20673
      vertex 19.3882 -24.0003 9.20581
      vertex 19.3837 -23.9649 9.20544
    endloop
  endfacet
  facet normal 0.0828509 -7.12688e-6 -0.996562
    outer loop
      vertex 19.3882 -24.0003 9.20581
      vertex 19.3689 -23.9697 9.20421
      vertex 19.3837 -23.9649 9.20544
    endloop
  endfacet
  facet normal -0.141758 0.989831 -0.0117908
    outer loop
      vertex 19.3882 -24.0003 9.20581
      vertex 19.3992 -23.9987 9.20673
      vertex 19.4045 -24.0003 9.00964
    endloop
  endfacet
  facet normal -0.141782 0.989828 -0.0117914
    outer loop
      vertex 19.3992 -23.9987 9.20673
      vertex 19.4155 -23.9987 9.01056
      vertex 19.4045 -24.0003 9.00964
    endloop
  endfacet
  facet normal -0.414136 0.909563 -0.034446
    outer loop
      vertex 19.378 -24.0049 9.20497
      vertex 19.3882 -24.0003 9.20581
      vertex 19.3943 -24.0049 9.0088
    endloop
  endfacet
  facet normal -0.414136 0.909563 -0.034446
    outer loop
      vertex 19.3882 -24.0003 9.20581
      vertex 19.4045 -24.0003 9.00964
      vertex 19.3943 -24.0049 9.0088
    endloop
  endfacet
  facet normal 0.0828753 8.38641e-6 -0.99656
    outer loop
      vertex 19.3882 -24.0003 9.20581
      vertex 19.378 -24.0049 9.20497
      vertex 19.3689 -23.9697 9.20421
    endloop
  endfacet
  facet normal 0.0829201 2.00604e-5 -0.996556
    outer loop
      vertex 19.378 -24.0049 9.20497
      vertex 19.3554 -23.9775 9.20309
      vertex 19.3689 -23.9697 9.20421
    endloop
  endfacet
  facet normal -0.307921 0.951067 -0.0256116
    outer loop
      vertex 19.3837 -23.9649 9.20544
      vertex 19.3689 -23.9697 9.20421
      vertex 19.3772 -23.9649 9.28391
    endloop
  endfacet
  facet normal -0.307921 0.951067 -0.0256116
    outer loop
      vertex 19.3689 -23.9697 9.20421
      vertex 19.3624 -23.9697 9.28268
      vertex 19.3772 -23.9649 9.28391
    endloop
  endfacet
  facet normal -0.104204 0.994518 -0.00866967
    outer loop
      vertex 19.3992 -23.9632 9.20673
      vertex 19.3837 -23.9649 9.20544
      vertex 19.3927 -23.9632 9.2852
    endloop
  endfacet
  facet normal -0.104216 0.994517 -0.00866829
    outer loop
      vertex 19.3837 -23.9649 9.20544
      vertex 19.3772 -23.9649 9.28391
      vertex 19.3927 -23.9632 9.2852
    endloop
  endfacet
  facet normal 0.0828671 0 -0.996561
    outer loop
      vertex 19.3837 -23.9649 9.20544
      vertex 19.3992 -23.9632 9.20673
      vertex 19.3992 -23.9987 9.20673
    endloop
  endfacet
  facet normal 0.0828787 0 -0.99656
    outer loop
      vertex 19.3992 -23.9632 9.20673
      vertex 19.4103 -24.0003 9.20765
      vertex 19.3992 -23.9987 9.20673
    endloop
  endfacet
  facet normal 0.141805 0.989824 0.0117933
    outer loop
      vertex 19.3992 -23.9987 9.20673
      vertex 19.4103 -24.0003 9.20765
      vertex 19.4155 -23.9987 9.01056
    endloop
  endfacet
  facet normal 0.141805 0.989824 0.0117933
    outer loop
      vertex 19.4103 -24.0003 9.20765
      vertex 19.4266 -24.0003 9.01148
      vertex 19.4155 -23.9987 9.01056
    endloop
  endfacet
  facet normal 0.0828648 0 -0.996561
    outer loop
      vertex 19.4045 -24.0003 9.00964
      vertex 19.4155 -23.9987 9.01056
      vertex 19.4155 -24.038 9.01056
    endloop
  endfacet
  facet normal 0.0828787 0 -0.99656
    outer loop
      vertex 19.4155 -23.9987 9.01056
      vertex 19.4266 -24.0003 9.01148
      vertex 19.4155 -24.038 9.01056
    endloop
  endfacet
  facet normal 0.0828658 3.81331e-6 -0.996561
    outer loop
      vertex 19.4155 -24.038 9.01056
      vertex 19.4266 -24.0003 9.01148
      vertex 19.4367 -24.0049 9.01232
    endloop
  endfacet
  facet normal 0.0828774 3.71055e-6 -0.99656
    outer loop
      vertex 19.3943 -24.0049 9.0088
      vertex 19.4045 -24.0003 9.00964
      vertex 19.4155 -24.038 9.01056
    endloop
  endfacet
  facet normal 0.104229 0.994516 0.00866926
    outer loop
      vertex 19.4147 -23.9649 9.20802
      vertex 19.3992 -23.9632 9.20673
      vertex 19.4082 -23.9649 9.28649
    endloop
  endfacet
  facet normal 0.104217 0.994517 0.00867069
    outer loop
      vertex 19.3992 -23.9632 9.20673
      vertex 19.3927 -23.9632 9.2852
      vertex 19.4082 -23.9649 9.28649
    endloop
  endfacet
  facet normal 0.0828871 2.53832e-6 -0.996559
    outer loop
      vertex 19.3992 -23.9632 9.20673
      vertex 19.4147 -23.9649 9.20802
      vertex 19.4103 -24.0003 9.20765
    endloop
  endfacet
  facet normal 0.0828509 7.12688e-6 -0.996562
    outer loop
      vertex 19.4147 -23.9649 9.20802
      vertex 19.4295 -23.9697 9.20925
      vertex 19.4103 -24.0003 9.20765
    endloop
  endfacet
  facet normal 0.0828753 -8.38641e-6 -0.99656
    outer loop
      vertex 19.4103 -24.0003 9.20765
      vertex 19.4295 -23.9697 9.20925
      vertex 19.4204 -24.0049 9.2085
    endloop
  endfacet
  facet normal 0.0829201 -2.00604e-5 -0.996556
    outer loop
      vertex 19.4295 -23.9697 9.20925
      vertex 19.443 -23.9775 9.21038
      vertex 19.4204 -24.0049 9.2085
    endloop
  endfacet
  facet normal 0.0828983 -1.89796e-6 -0.996558
    outer loop
      vertex 19.4204 -24.0049 9.2085
      vertex 19.443 -23.9775 9.21038
      vertex 19.4289 -24.0123 9.2092
    endloop
  endfacet
  facet normal 0.0828689 1.01557e-5 -0.99656
    outer loop
      vertex 19.443 -23.9775 9.21038
      vertex 19.4546 -23.988 9.21134
      vertex 19.4289 -24.0123 9.2092
    endloop
  endfacet
  facet normal 0.0828742 4.44555e-6 -0.99656
    outer loop
      vertex 19.4289 -24.0123 9.2092
      vertex 19.4546 -23.988 9.21134
      vertex 19.4349 -24.0217 9.2097
    endloop
  endfacet
  facet normal 0.0828796 1.30733e-6 -0.99656
    outer loop
      vertex 19.4546 -23.988 9.21134
      vertex 19.4638 -24.0006 9.2121
      vertex 19.4349 -24.0217 9.2097
    endloop
  endfacet
  facet normal 0.0828794 1.58354e-6 -0.99656
    outer loop
      vertex 19.4349 -24.0217 9.2097
      vertex 19.4638 -24.0006 9.2121
      vertex 19.4701 -24.0149 9.21263
    endloop
  endfacet
  facet normal 0.414137 0.909563 0.0344421
    outer loop
      vertex 19.4103 -24.0003 9.20765
      vertex 19.4204 -24.0049 9.2085
      vertex 19.4266 -24.0003 9.01148
    endloop
  endfacet
  facet normal 0.414074 0.909591 0.0344408
    outer loop
      vertex 19.4204 -24.0049 9.2085
      vertex 19.4367 -24.0049 9.01232
      vertex 19.4266 -24.0003 9.01148
    endloop
  endfacet
  facet normal 0.082851 0 -0.996562
    outer loop
      vertex 19.3882 -24.0758 9.20581
      vertex 19.3992 -24.0774 9.20673
      vertex 19.3992 -24.1128 9.20673
    endloop
  endfacet
  facet normal 0.0828869 0 -0.996559
    outer loop
      vertex 19.3992 -24.0774 9.20673
      vertex 19.4147 -24.1112 9.20802
      vertex 19.3992 -24.1128 9.20673
    endloop
  endfacet
  facet normal -0.141921 -0.989808 -0.011803
    outer loop
      vertex 19.3992 -24.0774 9.20673
      vertex 19.3882 -24.0758 9.20581
      vertex 19.4155 -24.0774 9.01056
    endloop
  endfacet
  facet normal -0.141944 -0.989804 -0.0118062
    outer loop
      vertex 19.3882 -24.0758 9.20581
      vertex 19.4045 -24.0758 9.00964
      vertex 19.4155 -24.0774 9.01056
    endloop
  endfacet
  facet normal 0.141967 -0.989801 0.0118068
    outer loop
      vertex 19.4103 -24.0758 9.20765
      vertex 19.3992 -24.0774 9.20673
      vertex 19.4266 -24.0758 9.01148
    endloop
  endfacet
  facet normal 0.141967 -0.989801 0.0118068
    outer loop
      vertex 19.3992 -24.0774 9.20673
      vertex 19.4155 -24.0774 9.01056
      vertex 19.4266 -24.0758 9.01148
    endloop
  endfacet
  facet normal 0.0828792 -3.5417e-6 -0.99656
    outer loop
      vertex 19.3992 -24.0774 9.20673
      vertex 19.4103 -24.0758 9.20765
      vertex 19.4147 -24.1112 9.20802
    endloop
  endfacet
  facet normal 0.0828509 -7.12641e-6 -0.996562
    outer loop
      vertex 19.4103 -24.0758 9.20765
      vertex 19.4295 -24.1064 9.20925
      vertex 19.4147 -24.1112 9.20802
    endloop
  endfacet
  facet normal 0.104229 -0.994516 0.00867172
    outer loop
      vertex 19.3992 -24.1128 9.20673
      vertex 19.4147 -24.1112 9.20802
      vertex 19.3927 -24.1128 9.2852
    endloop
  endfacet
  facet normal 0.104217 -0.994517 0.00866823
    outer loop
      vertex 19.4147 -24.1112 9.20802
      vertex 19.4082 -24.1112 9.28649
      vertex 19.3927 -24.1128 9.2852
    endloop
  endfacet
  facet normal -0.104204 -0.994518 -0.00866731
    outer loop
      vertex 19.3837 -24.1112 9.20544
      vertex 19.3992 -24.1128 9.20673
      vertex 19.3772 -24.1112 9.28391
    endloop
  endfacet
  facet normal -0.104216 -0.994517 -0.00867065
    outer loop
      vertex 19.3992 -24.1128 9.20673
      vertex 19.3927 -24.1128 9.2852
      vertex 19.3772 -24.1112 9.28391
    endloop
  endfacet
  facet normal 0.0828676 5.00676e-6 -0.996561
    outer loop
      vertex 19.3992 -24.1128 9.20673
      vertex 19.3837 -24.1112 9.20544
      vertex 19.3882 -24.0758 9.20581
    endloop
  endfacet
  facet normal 0.0828509 7.12641e-6 -0.996562
    outer loop
      vertex 19.3837 -24.1112 9.20544
      vertex 19.3689 -24.1064 9.20421
      vertex 19.3882 -24.0758 9.20581
    endloop
  endfacet
  facet normal 0.0828753 -8.38716e-6 -0.99656
    outer loop
      vertex 19.3882 -24.0758 9.20581
      vertex 19.3689 -24.1064 9.20421
      vertex 19.378 -24.0712 9.20497
    endloop
  endfacet
  facet normal 0.0829201 -2.00619e-5 -0.996556
    outer loop
      vertex 19.3689 -24.1064 9.20421
      vertex 19.3554 -24.0986 9.20309
      vertex 19.378 -24.0712 9.20497
    endloop
  endfacet
  facet normal 0.0829088 -1.06871e-5 -0.996557
    outer loop
      vertex 19.378 -24.0712 9.20497
      vertex 19.3554 -24.0986 9.20309
      vertex 19.3696 -24.0638 9.20427
    endloop
  endfacet
  facet normal 0.082866 6.90783e-6 -0.996561
    outer loop
      vertex 19.3554 -24.0986 9.20309
      vertex 19.3438 -24.0881 9.20213
      vertex 19.3696 -24.0638 9.20427
    endloop
  endfacet
  facet normal 0.082861 1.22614e-5 -0.996561
    outer loop
      vertex 19.3696 -24.0638 9.20427
      vertex 19.3438 -24.0881 9.20213
      vertex 19.3635 -24.0544 9.20377
    endloop
  endfacet
  facet normal 0.0828796 1.30737e-6 -0.99656
    outer loop
      vertex 19.3438 -24.0881 9.20213
      vertex 19.3346 -24.0754 9.20136
      vertex 19.3635 -24.0544 9.20377
    endloop
  endfacet
  facet normal 0.0828794 1.58357e-6 -0.99656
    outer loop
      vertex 19.3635 -24.0544 9.20377
      vertex 19.3346 -24.0754 9.20136
      vertex 19.3283 -24.0612 9.20084
    endloop
  endfacet
  facet normal -0.413999 -0.909626 -0.0344346
    outer loop
      vertex 19.3882 -24.0758 9.20581
      vertex 19.378 -24.0712 9.20497
      vertex 19.4045 -24.0758 9.00964
    endloop
  endfacet
  facet normal -0.413999 -0.909626 -0.0344346
    outer loop
      vertex 19.378 -24.0712 9.20497
      vertex 19.3943 -24.0712 9.0088
      vertex 19.4045 -24.0758 9.00964
    endloop
  endfacet
  facet normal 0.308028 -0.951032 0.0256203
    outer loop
      vertex 19.4147 -24.1112 9.20802
      vertex 19.4295 -24.1064 9.20925
      vertex 19.4082 -24.1112 9.28649
    endloop
  endfacet
  facet normal 0.307994 -0.951044 0.0256101
    outer loop
      vertex 19.4295 -24.1064 9.20925
      vertex 19.423 -24.1064 9.28772
      vertex 19.4082 -24.1112 9.28649
    endloop
  endfacet
  facet normal 0.0828648 0 -0.996561
    outer loop
      vertex 19.4155 -24.0774 9.01056
      vertex 19.4045 -24.0758 9.00964
      vertex 19.4155 -24.038 9.01056
    endloop
  endfacet
  facet normal 0.0828774 -3.71057e-6 -0.99656
    outer loop
      vertex 19.4045 -24.0758 9.00964
      vertex 19.3943 -24.0712 9.0088
      vertex 19.4155 -24.038 9.01056
    endloop
  endfacet
  facet normal 0.0829015 -1.92179e-5 -0.996558
    outer loop
      vertex 19.4155 -24.038 9.01056
      vertex 19.3943 -24.0712 9.0088
      vertex 19.3859 -24.0638 9.00809
    endloop
  endfacet
  facet normal 0.0828787 0 -0.99656
    outer loop
      vertex 19.4266 -24.0758 9.01148
      vertex 19.4155 -24.0774 9.01056
      vertex 19.4155 -24.038 9.01056
    endloop
  endfacet
  facet normal 0.413999 -0.909626 0.0344346
    outer loop
      vertex 19.4204 -24.0712 9.2085
      vertex 19.4103 -24.0758 9.20765
      vertex 19.4367 -24.0712 9.01232
    endloop
  endfacet
  facet normal 0.413937 -0.909654 0.0344255
    outer loop
      vertex 19.4103 -24.0758 9.20765
      vertex 19.4266 -24.0758 9.01148
      vertex 19.4367 -24.0712 9.01232
    endloop
  endfacet
  facet normal 0.0828753 8.38716e-6 -0.99656
    outer loop
      vertex 19.4103 -24.0758 9.20765
      vertex 19.4204 -24.0712 9.2085
      vertex 19.4295 -24.1064 9.20925
    endloop
  endfacet
  facet normal 0.0829201 2.00619e-5 -0.996556
    outer loop
      vertex 19.4204 -24.0712 9.2085
      vertex 19.443 -24.0986 9.21038
      vertex 19.4295 -24.1064 9.20925
    endloop
  endfacet
  facet normal 0.0828658 -3.81332e-6 -0.996561
    outer loop
      vertex 19.4367 -24.0712 9.01232
      vertex 19.4266 -24.0758 9.01148
      vertex 19.4155 -24.038 9.01056
    endloop
  endfacet
  facet normal -0.498285 0.866022 -0.0414454
    outer loop
      vertex 19.3689 -23.9697 9.20421
      vertex 19.3554 -23.9775 9.20309
      vertex 19.3624 -23.9697 9.28268
    endloop
  endfacet
  facet normal -0.498287 0.866021 -0.041445
    outer loop
      vertex 19.3554 -23.9775 9.20309
      vertex 19.3489 -23.9775 9.28156
      vertex 19.3624 -23.9697 9.28268
    endloop
  endfacet
  facet normal 0.0829015 1.9221e-5 -0.996558
    outer loop
      vertex 19.3859 -24.0123 9.00809
      vertex 19.3943 -24.0049 9.0088
      vertex 19.4155 -24.038 9.01056
    endloop
  endfacet
  facet normal -0.652541 0.755807 -0.0542754
    outer loop
      vertex 19.3943 -24.0049 9.0088
      vertex 19.3859 -24.0123 9.00809
      vertex 19.378 -24.0049 9.20497
    endloop
  endfacet
  facet normal -0.652541 0.755807 -0.0542754
    outer loop
      vertex 19.3859 -24.0123 9.00809
      vertex 19.3696 -24.0123 9.20427
      vertex 19.378 -24.0049 9.20497
    endloop
  endfacet
  facet normal 0.0828962 2.53469e-5 -0.996558
    outer loop
      vertex 19.378 -24.0049 9.20497
      vertex 19.3696 -24.0123 9.20427
      vertex 19.3438 -23.988 9.20213
    endloop
  endfacet
  facet normal 0.0828746 2.30896e-6 -0.99656
    outer loop
      vertex 19.3696 -24.0123 9.20427
      vertex 19.3346 -24.0006 9.20136
      vertex 19.3438 -23.988 9.20213
    endloop
  endfacet
  facet normal -0.0829365 0 0.996555
    outer loop
      vertex 19.3927 -23.9632 9.2852
      vertex 19.3772 -23.9649 9.28391
      vertex 19.3927 -24.0039 9.2852
    endloop
  endfacet
  facet normal -0.0828586 3.10932e-5 0.996561
    outer loop
      vertex 19.3772 -23.9649 9.28391
      vertex 19.3624 -23.9697 9.28268
      vertex 19.3927 -24.0039 9.2852
    endloop
  endfacet
  facet normal -0.0828904 2.72165e-6 0.996559
    outer loop
      vertex 19.3927 -24.0039 9.2852
      vertex 19.3624 -23.9697 9.28268
      vertex 19.3633 -24.021 9.28276
    endloop
  endfacet
  facet normal -0.0828652 3.16473e-6 0.996561
    outer loop
      vertex 19.3624 -23.9697 9.28268
      vertex 19.3489 -23.9775 9.28156
      vertex 19.3633 -24.021 9.28276
    endloop
  endfacet
  facet normal -0.0828632 3.82207e-6 0.996561
    outer loop
      vertex 19.3633 -24.021 9.28276
      vertex 19.3489 -23.9775 9.28156
      vertex 19.3373 -23.988 9.2806
    endloop
  endfacet
  facet normal -0.082877 0 0.99656
    outer loop
      vertex 19.4082 -23.9649 9.28649
      vertex 19.3927 -23.9632 9.2852
      vertex 19.3927 -24.0039 9.2852
    endloop
  endfacet
  facet normal 0.307921 0.951067 0.0256041
    outer loop
      vertex 19.4295 -23.9697 9.20925
      vertex 19.4147 -23.9649 9.20802
      vertex 19.423 -23.9697 9.28772
    endloop
  endfacet
  facet normal 0.307886 0.951079 0.0256085
    outer loop
      vertex 19.4147 -23.9649 9.20802
      vertex 19.4082 -23.9649 9.28649
      vertex 19.423 -23.9697 9.28772
    endloop
  endfacet
  facet normal -0.0828426 -1.37158e-5 0.996563
    outer loop
      vertex 19.423 -23.9697 9.28772
      vertex 19.4082 -23.9649 9.28649
      vertex 19.3927 -24.0039 9.2852
    endloop
  endfacet
  facet normal 0.498286 0.866022 0.0414336
    outer loop
      vertex 19.443 -23.9775 9.21038
      vertex 19.4295 -23.9697 9.20925
      vertex 19.4365 -23.9775 9.28885
    endloop
  endfacet
  facet normal 0.498288 0.866021 0.0414333
    outer loop
      vertex 19.4295 -23.9697 9.20925
      vertex 19.423 -23.9697 9.28772
      vertex 19.4365 -23.9775 9.28885
    endloop
  endfacet
  facet normal 0.652459 0.755878 0.0542686
    outer loop
      vertex 19.4204 -24.0049 9.2085
      vertex 19.4289 -24.0123 9.2092
      vertex 19.4367 -24.0049 9.01232
    endloop
  endfacet
  facet normal 0.652541 0.755807 0.0542692
    outer loop
      vertex 19.4289 -24.0123 9.2092
      vertex 19.4452 -24.0123 9.01303
      vertex 19.4367 -24.0049 9.01232
    endloop
  endfacet
  facet normal -0.308028 -0.951032 -0.0256206
    outer loop
      vertex 19.3689 -24.1064 9.20421
      vertex 19.3837 -24.1112 9.20544
      vertex 19.3624 -24.1064 9.28268
    endloop
  endfacet
  facet normal -0.308028 -0.951032 -0.0256206
    outer loop
      vertex 19.3837 -24.1112 9.20544
      vertex 19.3772 -24.1112 9.28391
      vertex 19.3624 -24.1064 9.28268
    endloop
  endfacet
  facet normal -0.082877 0 0.99656
    outer loop
      vertex 19.3927 -24.1128 9.2852
      vertex 19.4082 -24.1112 9.28649
      vertex 19.3927 -24.0721 9.2852
    endloop
  endfacet
  facet normal -0.0828426 1.37146e-5 0.996563
    outer loop
      vertex 19.4082 -24.1112 9.28649
      vertex 19.423 -24.1064 9.28772
      vertex 19.3927 -24.0721 9.2852
    endloop
  endfacet
  facet normal -0.0828543 3.3565e-6 0.996562
    outer loop
      vertex 19.3927 -24.0721 9.2852
      vertex 19.423 -24.1064 9.28772
      vertex 19.4221 -24.0551 9.28765
    endloop
  endfacet
  facet normal -0.0828652 3.16473e-6 0.996561
    outer loop
      vertex 19.423 -24.1064 9.28772
      vertex 19.4365 -24.0986 9.28885
      vertex 19.4221 -24.0551 9.28765
    endloop
  endfacet
  facet normal -0.0829347 -1.99967e-5 0.996555
    outer loop
      vertex 19.4221 -24.0551 9.28765
      vertex 19.4365 -24.0986 9.28885
      vertex 19.4481 -24.0881 9.28981
    endloop
  endfacet
  facet normal -0.0829365 0 0.996555
    outer loop
      vertex 19.3772 -24.1112 9.28391
      vertex 19.3927 -24.1128 9.2852
      vertex 19.3927 -24.0721 9.2852
    endloop
  endfacet
  facet normal -0.0828586 -3.10905e-5 0.996561
    outer loop
      vertex 19.3624 -24.1064 9.28268
      vertex 19.3772 -24.1112 9.28391
      vertex 19.3927 -24.0721 9.2852
    endloop
  endfacet
  facet normal -0.498196 -0.866074 -0.0414375
    outer loop
      vertex 19.3554 -24.0986 9.20309
      vertex 19.3689 -24.1064 9.20421
      vertex 19.3489 -24.0986 9.28156
    endloop
  endfacet
  facet normal -0.498198 -0.866073 -0.0414381
    outer loop
      vertex 19.3689 -24.1064 9.20421
      vertex 19.3624 -24.1064 9.28268
      vertex 19.3489 -24.0986 9.28156
    endloop
  endfacet
  facet normal -0.652636 -0.755725 -0.0542833
    outer loop
      vertex 19.378 -24.0712 9.20497
      vertex 19.3696 -24.0638 9.20427
      vertex 19.3943 -24.0712 9.0088
    endloop
  endfacet
  facet normal -0.652636 -0.755725 -0.0542833
    outer loop
      vertex 19.3696 -24.0638 9.20427
      vertex 19.3859 -24.0638 9.00809
      vertex 19.3943 -24.0712 9.0088
    endloop
  endfacet
  facet normal 0.498197 -0.866074 0.0414257
    outer loop
      vertex 19.4295 -24.1064 9.20925
      vertex 19.443 -24.0986 9.21038
      vertex 19.423 -24.1064 9.28772
    endloop
  endfacet
  facet normal 0.498199 -0.866073 0.0414264
    outer loop
      vertex 19.443 -24.0986 9.21038
      vertex 19.4365 -24.0986 9.28885
      vertex 19.423 -24.1064 9.28772
    endloop
  endfacet
  facet normal 0.0829015 1.92179e-5 -0.996558
    outer loop
      vertex 19.4452 -24.0638 9.01303
      vertex 19.4367 -24.0712 9.01232
      vertex 19.4155 -24.038 9.01056
    endloop
  endfacet
  facet normal 0.652636 -0.755725 0.0542833
    outer loop
      vertex 19.4367 -24.0712 9.01232
      vertex 19.4452 -24.0638 9.01303
      vertex 19.4204 -24.0712 9.2085
    endloop
  endfacet
  facet normal 0.652554 -0.755796 0.0542703
    outer loop
      vertex 19.4452 -24.0638 9.01303
      vertex 19.4289 -24.0638 9.2092
      vertex 19.4204 -24.0712 9.2085
    endloop
  endfacet
  facet normal 0.0828896 1.194e-5 -0.996559
    outer loop
      vertex 19.4204 -24.0712 9.2085
      vertex 19.4289 -24.0638 9.2092
      vertex 19.4546 -24.0881 9.21134
    endloop
  endfacet
  facet normal 0.0828782 -2.71283e-7 -0.99656
    outer loop
      vertex 19.4289 -24.0638 9.2092
      vertex 19.4638 -24.0754 9.2121
      vertex 19.4546 -24.0881 9.21134
    endloop
  endfacet
  facet normal 0.0828752 -1.72231e-5 -0.99656
    outer loop
      vertex 19.3438 -23.988 9.20213
      vertex 19.3554 -23.9775 9.20309
      vertex 19.378 -24.0049 9.20497
    endloop
  endfacet
  facet normal -0.666826 0.743147 -0.0554633
    outer loop
      vertex 19.3554 -23.9775 9.20309
      vertex 19.3438 -23.988 9.20213
      vertex 19.3489 -23.9775 9.28156
    endloop
  endfacet
  facet normal -0.666826 0.743147 -0.0554633
    outer loop
      vertex 19.3438 -23.988 9.20213
      vertex 19.3373 -23.988 9.2806
      vertex 19.3489 -23.9775 9.28156
    endloop
  endfacet
  facet normal 0.0829241 4.54531e-5 -0.996556
    outer loop
      vertex 19.3798 -24.0217 9.00759
      vertex 19.3859 -24.0123 9.00809
      vertex 19.4155 -24.038 9.01056
    endloop
  endfacet
  facet normal -0.838353 0.540649 -0.0697304
    outer loop
      vertex 19.3859 -24.0123 9.00809
      vertex 19.3798 -24.0217 9.00759
      vertex 19.3696 -24.0123 9.20427
    endloop
  endfacet
  facet normal -0.838356 0.540645 -0.0697303
    outer loop
      vertex 19.3798 -24.0217 9.00759
      vertex 19.3635 -24.0217 9.20377
      vertex 19.3696 -24.0123 9.20427
    endloop
  endfacet
  facet normal -0.806216 0.587809 -0.0670571
    outer loop
      vertex 19.3438 -23.988 9.20213
      vertex 19.3346 -24.0006 9.20136
      vertex 19.3373 -23.988 9.2806
    endloop
  endfacet
  facet normal -0.806274 0.587731 -0.0670428
    outer loop
      vertex 19.3346 -24.0006 9.20136
      vertex 19.3281 -24.0006 9.27983
      vertex 19.3373 -23.988 9.2806
    endloop
  endfacet
  facet normal 0.0828682 -1.69498e-5 -0.996561
    outer loop
      vertex 19.3696 -24.0123 9.20427
      vertex 19.3635 -24.0217 9.20377
      vertex 19.3346 -24.0006 9.20136
    endloop
  endfacet
  facet normal 0.0828794 -1.58354e-6 -0.99656
    outer loop
      vertex 19.3635 -24.0217 9.20377
      vertex 19.3283 -24.0149 9.20084
      vertex 19.3346 -24.0006 9.20136
    endloop
  endfacet
  facet normal 0.498301 -0.866013 0.0414462
    outer loop
      vertex 19.3927 -24.0039 9.2852
      vertex 19.3633 -24.021 9.28276
      vertex 19.3673 -24.021 9.23371
    endloop
  endfacet
  facet normal 0.498301 -0.866013 0.0414462
    outer loop
      vertex 19.3968 -24.0039 9.23616
      vertex 19.3927 -24.0039 9.2852
      vertex 19.3673 -24.021 9.23371
    endloop
  endfacet
  facet normal -0.498278 -0.866026 -0.0414443
    outer loop
      vertex 19.3927 -24.0039 9.2852
      vertex 19.3968 -24.0039 9.23616
      vertex 19.4221 -24.021 9.28765
    endloop
  endfacet
  facet normal -0.498302 -0.866013 -0.0414282
    outer loop
      vertex 19.3968 -24.0039 9.23616
      vertex 19.4262 -24.021 9.23861
      vertex 19.4221 -24.021 9.28765
    endloop
  endfacet
  facet normal -0.0828543 -3.3565e-6 0.996562
    outer loop
      vertex 19.3927 -24.0039 9.2852
      vertex 19.4221 -24.021 9.28765
      vertex 19.423 -23.9697 9.28772
    endloop
  endfacet
  facet normal -0.0828652 -3.16473e-6 0.996561
    outer loop
      vertex 19.4221 -24.021 9.28765
      vertex 19.4365 -23.9775 9.28885
      vertex 19.423 -23.9697 9.28772
    endloop
  endfacet
  facet normal 0.0829015 -1.9221e-5 -0.996558
    outer loop
      vertex 19.4367 -24.0049 9.01232
      vertex 19.4452 -24.0123 9.01303
      vertex 19.4155 -24.038 9.01056
    endloop
  endfacet
  facet normal 0.0828786 7.25727e-6 -0.99656
    outer loop
      vertex 19.4452 -24.0123 9.01303
      vertex 19.4512 -24.0217 9.01353
      vertex 19.4155 -24.038 9.01056
    endloop
  endfacet
  facet normal 0.0828493 7.16835e-5 -0.996562
    outer loop
      vertex 19.4155 -24.038 9.01056
      vertex 19.4512 -24.0217 9.01353
      vertex 19.4544 -24.0324 9.01379
    endloop
  endfacet
  facet normal 0.0828786 -7.25801e-6 -0.99656
    outer loop
      vertex 19.4512 -24.0544 9.01353
      vertex 19.4452 -24.0638 9.01303
      vertex 19.4155 -24.038 9.01056
    endloop
  endfacet
  facet normal 0.838383 -0.540603 0.069725
    outer loop
      vertex 19.4452 -24.0638 9.01303
      vertex 19.4512 -24.0544 9.01353
      vertex 19.4289 -24.0638 9.2092
    endloop
  endfacet
  facet normal 0.838383 -0.540603 0.069725
    outer loop
      vertex 19.4512 -24.0544 9.01353
      vertex 19.4349 -24.0544 9.2097
      vertex 19.4289 -24.0638 9.2092
    endloop
  endfacet
  facet normal 0.0828683 7.72755e-5 -0.996561
    outer loop
      vertex 19.3798 -24.0544 9.00759
      vertex 19.3767 -24.0436 9.00733
      vertex 19.4155 -24.038 9.01056
    endloop
  endfacet
  facet normal 0.0828793 0 -0.99656
    outer loop
      vertex 19.3767 -24.0436 9.00733
      vertex 19.3767 -24.0324 9.00733
      vertex 19.4155 -24.038 9.01056
    endloop
  endfacet
  facet normal 0.0828683 -7.72776e-5 -0.996561
    outer loop
      vertex 19.4155 -24.038 9.01056
      vertex 19.3767 -24.0324 9.00733
      vertex 19.3798 -24.0217 9.00759
    endloop
  endfacet
  facet normal -0.956193 -0.28173 -0.0795227
    outer loop
      vertex 19.3767 -24.0436 9.00733
      vertex 19.3798 -24.0544 9.00759
      vertex 19.3604 -24.0436 9.2035
    endloop
  endfacet
  facet normal -0.956235 -0.281583 -0.0795349
    outer loop
      vertex 19.3798 -24.0544 9.00759
      vertex 19.3635 -24.0544 9.20377
      vertex 19.3604 -24.0436 9.2035
    endloop
  endfacet
  facet normal -0.99656 0 -0.0828799
    outer loop
      vertex 19.3767 -24.0324 9.00733
      vertex 19.3767 -24.0436 9.00733
      vertex 19.3604 -24.0324 9.2035
    endloop
  endfacet
  facet normal -0.99656 0 -0.0828799
    outer loop
      vertex 19.3767 -24.0436 9.00733
      vertex 19.3604 -24.0436 9.2035
      vertex 19.3604 -24.0324 9.2035
    endloop
  endfacet
  facet normal -0.956192 0.28173 -0.0795314
    outer loop
      vertex 19.3798 -24.0217 9.00759
      vertex 19.3767 -24.0324 9.00733
      vertex 19.3635 -24.0217 9.20377
    endloop
  endfacet
  facet normal -0.956236 0.281583 -0.0795263
    outer loop
      vertex 19.3767 -24.0324 9.00733
      vertex 19.3604 -24.0324 9.2035
      vertex 19.3635 -24.0217 9.20377
    endloop
  endfacet
  facet normal 0.0829241 -4.54577e-5 -0.996556
    outer loop
      vertex 19.3859 -24.0638 9.00809
      vertex 19.3798 -24.0544 9.00759
      vertex 19.4155 -24.038 9.01056
    endloop
  endfacet
  facet normal -0.838305 -0.540725 -0.0697261
    outer loop
      vertex 19.3798 -24.0544 9.00759
      vertex 19.3859 -24.0638 9.00809
      vertex 19.3635 -24.0544 9.20377
    endloop
  endfacet
  facet normal -0.838308 -0.54072 -0.0697266
    outer loop
      vertex 19.3859 -24.0638 9.00809
      vertex 19.3696 -24.0638 9.20427
      vertex 19.3635 -24.0544 9.20377
    endloop
  endfacet
  facet normal 0.838432 0.540527 0.069729
    outer loop
      vertex 19.4512 -24.0217 9.01353
      vertex 19.4452 -24.0123 9.01303
      vertex 19.4349 -24.0217 9.2097
    endloop
  endfacet
  facet normal 0.838432 0.540527 0.069729
    outer loop
      vertex 19.4452 -24.0123 9.01303
      vertex 19.4289 -24.0123 9.2092
      vertex 19.4349 -24.0217 9.2097
    endloop
  endfacet
  facet normal 0.0828493 -7.16815e-5 -0.996562
    outer loop
      vertex 19.4544 -24.0436 9.01379
      vertex 19.4512 -24.0544 9.01353
      vertex 19.4155 -24.038 9.01056
    endloop
  endfacet
  facet normal 0.956193 -0.28173 0.0795227
    outer loop
      vertex 19.4512 -24.0544 9.01353
      vertex 19.4544 -24.0436 9.01379
      vertex 19.4349 -24.0544 9.2097
    endloop
  endfacet
  facet normal 0.956235 -0.281583 0.0795349
    outer loop
      vertex 19.4544 -24.0436 9.01379
      vertex 19.438 -24.0436 9.20996
      vertex 19.4349 -24.0544 9.2097
    endloop
  endfacet
  facet normal 0.956192 0.28173 0.0795314
    outer loop
      vertex 19.4544 -24.0324 9.01379
      vertex 19.4512 -24.0217 9.01353
      vertex 19.438 -24.0324 9.20996
    endloop
  endfacet
  facet normal 0.956236 0.281583 0.0795263
    outer loop
      vertex 19.4512 -24.0217 9.01353
      vertex 19.4349 -24.0217 9.2097
      vertex 19.438 -24.0324 9.20996
    endloop
  endfacet
  facet normal 0.0828596 0 -0.996561
    outer loop
      vertex 19.4544 -24.0324 9.01379
      vertex 19.4544 -24.0436 9.01379
      vertex 19.4155 -24.038 9.01056
    endloop
  endfacet
  facet normal 0.996559 0 0.0828889
    outer loop
      vertex 19.4544 -24.0436 9.01379
      vertex 19.4544 -24.0324 9.01379
      vertex 19.438 -24.0436 9.20996
    endloop
  endfacet
  facet normal 0.996559 0 0.0828889
    outer loop
      vertex 19.4544 -24.0324 9.01379
      vertex 19.438 -24.0324 9.20996
      vertex 19.438 -24.0436 9.20996
    endloop
  endfacet
  facet normal 0.666826 0.743147 0.0554633
    outer loop
      vertex 19.4546 -23.988 9.21134
      vertex 19.443 -23.9775 9.21038
      vertex 19.4481 -23.988 9.28981
    endloop
  endfacet
  facet normal 0.666884 0.743096 0.0554529
    outer loop
      vertex 19.443 -23.9775 9.21038
      vertex 19.4365 -23.9775 9.28885
      vertex 19.4481 -23.988 9.28981
    endloop
  endfacet
  facet normal -0.0829347 1.99982e-5 0.996555
    outer loop
      vertex 19.4481 -23.988 9.28981
      vertex 19.4365 -23.9775 9.28885
      vertex 19.4221 -24.021 9.28765
    endloop
  endfacet
  facet normal -0.0828736 -1.77488e-5 0.99656
    outer loop
      vertex 19.3489 -24.0986 9.28156
      vertex 19.3624 -24.1064 9.28268
      vertex 19.3927 -24.0721 9.2852
    endloop
  endfacet
  facet normal -0.49828 0.866026 -0.0414263
    outer loop
      vertex 19.3927 -24.0721 9.2852
      vertex 19.4221 -24.0551 9.28765
      vertex 19.4262 -24.0551 9.23861
    endloop
  endfacet
  facet normal -0.498301 0.866013 -0.0414462
    outer loop
      vertex 19.3968 -24.0721 9.23616
      vertex 19.3927 -24.0721 9.2852
      vertex 19.4262 -24.0551 9.23861
    endloop
  endfacet
  facet normal 0.498301 0.866013 0.0414462
    outer loop
      vertex 19.3927 -24.0721 9.2852
      vertex 19.3968 -24.0721 9.23616
      vertex 19.3633 -24.0551 9.28276
    endloop
  endfacet
  facet normal 0.498301 0.866013 0.0414462
    outer loop
      vertex 19.3968 -24.0721 9.23616
      vertex 19.3673 -24.0551 9.23371
      vertex 19.3633 -24.0551 9.28276
    endloop
  endfacet
  facet normal -0.0828866 3.96664e-6 0.996559
    outer loop
      vertex 19.3927 -24.0721 9.2852
      vertex 19.3633 -24.0551 9.28276
      vertex 19.3489 -24.0986 9.28156
    endloop
  endfacet
  facet normal -0.0828632 -3.82178e-6 0.996561
    outer loop
      vertex 19.3633 -24.0551 9.28276
      vertex 19.3373 -24.0881 9.2806
      vertex 19.3489 -24.0986 9.28156
    endloop
  endfacet
  facet normal -0.666891 -0.743087 -0.0554688
    outer loop
      vertex 19.3438 -24.0881 9.20213
      vertex 19.3554 -24.0986 9.20309
      vertex 19.3373 -24.0881 9.2806
    endloop
  endfacet
  facet normal -0.666891 -0.743087 -0.0554688
    outer loop
      vertex 19.3554 -24.0986 9.20309
      vertex 19.3489 -24.0986 9.28156
      vertex 19.3373 -24.0881 9.2806
    endloop
  endfacet
  facet normal 0.0828752 -1.72218e-5 -0.99656
    outer loop
      vertex 19.4546 -24.0881 9.21134
      vertex 19.443 -24.0986 9.21038
      vertex 19.4204 -24.0712 9.2085
    endloop
  endfacet
  facet normal 0.666893 -0.743087 0.0554537
    outer loop
      vertex 19.443 -24.0986 9.21038
      vertex 19.4546 -24.0881 9.21134
      vertex 19.4365 -24.0986 9.28885
    endloop
  endfacet
  facet normal 0.666948 -0.743037 0.0554734
    outer loop
      vertex 19.4546 -24.0881 9.21134
      vertex 19.4481 -24.0881 9.28981
      vertex 19.4365 -24.0986 9.28885
    endloop
  endfacet
  facet normal 0.806216 -0.587809 0.0670571
    outer loop
      vertex 19.4546 -24.0881 9.21134
      vertex 19.4638 -24.0754 9.2121
      vertex 19.4481 -24.0881 9.28981
    endloop
  endfacet
  facet normal 0.806216 -0.587809 0.0670571
    outer loop
      vertex 19.4638 -24.0754 9.2121
      vertex 19.4572 -24.0754 9.29057
      vertex 19.4481 -24.0881 9.28981
    endloop
  endfacet
  facet normal 0.0828763 -5.79e-6 -0.99656
    outer loop
      vertex 19.4289 -24.0638 9.2092
      vertex 19.4349 -24.0544 9.2097
      vertex 19.4638 -24.0754 9.2121
    endloop
  endfacet
  facet normal 0.0828794 -1.58357e-6 -0.99656
    outer loop
      vertex 19.4349 -24.0544 9.2097
      vertex 19.4701 -24.0612 9.21263
      vertex 19.4638 -24.0754 9.2121
    endloop
  endfacet
  facet normal -0.996561 0 -0.0828663
    outer loop
      vertex 19.3185 -24.0459 9.27904
      vertex 19.3185 -24.0302 9.27904
      vertex 19.3251 -24.0459 9.20057
    endloop
  endfacet
  facet normal -0.996561 0 -0.0828663
    outer loop
      vertex 19.3185 -24.0302 9.27904
      vertex 19.3251 -24.0302 9.20057
      vertex 19.3251 -24.0459 9.20057
    endloop
  endfacet
  facet normal -0.0828909 0 0.996559
    outer loop
      vertex 19.3185 -24.0302 9.27904
      vertex 19.3185 -24.0459 9.27904
      vertex 19.3633 -24.0551 9.28276
    endloop
  endfacet
  facet normal -0.0828925 -7.84383e-6 0.996558
    outer loop
      vertex 19.3185 -24.0459 9.27904
      vertex 19.3218 -24.0612 9.27931
      vertex 19.3633 -24.0551 9.28276
    endloop
  endfacet
  facet normal -0.0828999 4.33975e-5 0.996558
    outer loop
      vertex 19.3633 -24.0551 9.28276
      vertex 19.3218 -24.0612 9.27931
      vertex 19.3281 -24.0754 9.27983
    endloop
  endfacet
  facet normal -0.0828925 7.84291e-6 0.996558
    outer loop
      vertex 19.3218 -24.0149 9.27931
      vertex 19.3185 -24.0302 9.27904
      vertex 19.3633 -24.021 9.28276
    endloop
  endfacet
  facet normal -0.0828909 0 0.996559
    outer loop
      vertex 19.3185 -24.0302 9.27904
      vertex 19.3633 -24.0551 9.28276
      vertex 19.3633 -24.021 9.28276
    endloop
  endfacet
  facet normal -0.97482 0.207739 -0.0810586
    outer loop
      vertex 19.3185 -24.0302 9.27904
      vertex 19.3218 -24.0149 9.27931
      vertex 19.3251 -24.0302 9.20057
    endloop
  endfacet
  facet normal -0.974794 0.207852 -0.0810795
    outer loop
      vertex 19.3218 -24.0149 9.27931
      vertex 19.3283 -24.0149 9.20084
      vertex 19.3251 -24.0302 9.20057
    endloop
  endfacet
  facet normal 0.0828671 0 -0.996561
    outer loop
      vertex 19.3251 -24.0459 9.20057
      vertex 19.3251 -24.0302 9.20057
      vertex 19.3604 -24.0324 9.2035
    endloop
  endfacet
  facet normal 0.0828663 -1.23566e-5 -0.996561
    outer loop
      vertex 19.3251 -24.0302 9.20057
      vertex 19.3283 -24.0149 9.20084
      vertex 19.3604 -24.0324 9.2035
    endloop
  endfacet
  facet normal 0.0828833 1.89834e-5 -0.996559
    outer loop
      vertex 19.3604 -24.0324 9.2035
      vertex 19.3283 -24.0149 9.20084
      vertex 19.3635 -24.0217 9.20377
    endloop
  endfacet
  facet normal 0.0828663 1.23581e-5 -0.996561
    outer loop
      vertex 19.3283 -24.0612 9.20084
      vertex 19.3251 -24.0459 9.20057
      vertex 19.3604 -24.0436 9.2035
    endloop
  endfacet
  facet normal 0.0828671 0 -0.996561
    outer loop
      vertex 19.3251 -24.0459 9.20057
      vertex 19.3604 -24.0324 9.2035
      vertex 19.3604 -24.0436 9.2035
    endloop
  endfacet
  facet normal -0.974791 -0.207877 -0.0810561
    outer loop
      vertex 19.3251 -24.0459 9.20057
      vertex 19.3283 -24.0612 9.20084
      vertex 19.3185 -24.0459 9.27904
    endloop
  endfacet
  facet normal -0.974813 -0.207763 -0.0810811
    outer loop
      vertex 19.3283 -24.0612 9.20084
      vertex 19.3218 -24.0612 9.27931
      vertex 19.3185 -24.0459 9.27904
    endloop
  endfacet
  facet normal 0.996559 0 0.0828889
    outer loop
      vertex 19.3633 -24.0551 9.28276
      vertex 19.3673 -24.0551 9.23371
      vertex 19.3633 -24.021 9.28276
    endloop
  endfacet
  facet normal 0.996559 0 0.0828889
    outer loop
      vertex 19.3673 -24.0551 9.23371
      vertex 19.3673 -24.021 9.23371
      vertex 19.3633 -24.021 9.28276
    endloop
  endfacet
  facet normal -0.0828999 -4.33975e-5 0.996558
    outer loop
      vertex 19.3281 -24.0006 9.27983
      vertex 19.3218 -24.0149 9.27931
      vertex 19.3633 -24.021 9.28276
    endloop
  endfacet
  facet normal -0.910363 0.406824 -0.0757204
    outer loop
      vertex 19.3218 -24.0149 9.27931
      vertex 19.3281 -24.0006 9.27983
      vertex 19.3283 -24.0149 9.20084
    endloop
  endfacet
  facet normal -0.91041 0.406721 -0.0757019
    outer loop
      vertex 19.3281 -24.0006 9.27983
      vertex 19.3346 -24.0006 9.20136
      vertex 19.3283 -24.0149 9.20084
    endloop
  endfacet
  facet normal -0.910409 -0.406721 -0.0757242
    outer loop
      vertex 19.3283 -24.0612 9.20084
      vertex 19.3346 -24.0754 9.20136
      vertex 19.3218 -24.0612 9.27931
    endloop
  endfacet
  facet normal -0.910365 -0.406824 -0.0756981
    outer loop
      vertex 19.3346 -24.0754 9.20136
      vertex 19.3281 -24.0754 9.27983
      vertex 19.3218 -24.0612 9.27931
    endloop
  endfacet
  facet normal 0.0828833 -1.89836e-5 -0.996559
    outer loop
      vertex 19.3604 -24.0436 9.2035
      vertex 19.3635 -24.0544 9.20377
      vertex 19.3283 -24.0612 9.20084
    endloop
  endfacet
  facet normal -0.0828889 0 0.996559
    outer loop
      vertex 19.3673 -24.0551 9.23371
      vertex 19.3968 -24.0721 9.23616
      vertex 19.3673 -24.021 9.23371
    endloop
  endfacet
  facet normal -0.0828889 0 0.996559
    outer loop
      vertex 19.3968 -24.0721 9.23616
      vertex 19.4262 -24.0551 9.23861
      vertex 19.3673 -24.021 9.23371
    endloop
  endfacet
  facet normal -0.0828889 0 0.996559
    outer loop
      vertex 19.3673 -24.021 9.23371
      vertex 19.4262 -24.0551 9.23861
      vertex 19.3968 -24.0039 9.23616
    endloop
  endfacet
  facet normal -0.0828889 0 0.996559
    outer loop
      vertex 19.4262 -24.0551 9.23861
      vertex 19.4262 -24.021 9.23861
      vertex 19.3968 -24.0039 9.23616
    endloop
  endfacet
  facet normal -0.806272 -0.587731 -0.0670618
    outer loop
      vertex 19.3373 -24.0881 9.2806
      vertex 19.3281 -24.0754 9.27983
      vertex 19.3438 -24.0881 9.20213
    endloop
  endfacet
  facet normal -0.806218 -0.587809 -0.0670381
    outer loop
      vertex 19.3281 -24.0754 9.27983
      vertex 19.3346 -24.0754 9.20136
      vertex 19.3438 -24.0881 9.20213
    endloop
  endfacet
  facet normal -0.0828807 1.00543e-5 0.996559
    outer loop
      vertex 19.3281 -24.0754 9.27983
      vertex 19.3373 -24.0881 9.2806
      vertex 19.3633 -24.0551 9.28276
    endloop
  endfacet
  facet normal -0.0828807 -1.00543e-5 0.996559
    outer loop
      vertex 19.3373 -23.988 9.2806
      vertex 19.3281 -24.0006 9.27983
      vertex 19.3633 -24.021 9.28276
    endloop
  endfacet
  facet normal -0.996562 0 -0.0828528
    outer loop
      vertex 19.4262 -24.0551 9.23861
      vertex 19.4221 -24.0551 9.28765
      vertex 19.4262 -24.021 9.23861
    endloop
  endfacet
  facet normal -0.996562 0 -0.0828528
    outer loop
      vertex 19.4221 -24.0551 9.28765
      vertex 19.4221 -24.021 9.28765
      vertex 19.4262 -24.021 9.23861
    endloop
  endfacet
  facet normal -0.0828909 0 0.996559
    outer loop
      vertex 19.4221 -24.021 9.28765
      vertex 19.4221 -24.0551 9.28765
      vertex 19.4668 -24.0459 9.29137
    endloop
  endfacet
  facet normal -0.0828946 1.84006e-5 0.996558
    outer loop
      vertex 19.4221 -24.0551 9.28765
      vertex 19.4636 -24.0612 9.2911
      vertex 19.4668 -24.0459 9.29137
    endloop
  endfacet
  facet normal 0.974789 -0.207877 0.0810791
    outer loop
      vertex 19.4668 -24.0459 9.29137
      vertex 19.4636 -24.0612 9.2911
      vertex 19.4733 -24.0459 9.2129
    endloop
  endfacet
  facet normal 0.974788 -0.207881 0.0810781
    outer loop
      vertex 19.4636 -24.0612 9.2911
      vertex 19.4701 -24.0612 9.21263
      vertex 19.4733 -24.0459 9.2129
    endloop
  endfacet
  facet normal 0.996559 0 0.0828898
    outer loop
      vertex 19.4668 -24.0302 9.29137
      vertex 19.4668 -24.0459 9.29137
      vertex 19.4733 -24.0302 9.2129
    endloop
  endfacet
  facet normal 0.996559 0 0.0828898
    outer loop
      vertex 19.4668 -24.0459 9.29137
      vertex 19.4733 -24.0459 9.2129
      vertex 19.4733 -24.0302 9.2129
    endloop
  endfacet
  facet normal -0.0828909 0 0.996559
    outer loop
      vertex 19.4668 -24.0459 9.29137
      vertex 19.4668 -24.0302 9.29137
      vertex 19.4221 -24.021 9.28765
    endloop
  endfacet
  facet normal -0.0828946 -1.83984e-5 0.996558
    outer loop
      vertex 19.4668 -24.0302 9.29137
      vertex 19.4636 -24.0149 9.2911
      vertex 19.4221 -24.021 9.28765
    endloop
  endfacet
  facet normal -0.082896 -9.00938e-6 0.996558
    outer loop
      vertex 19.4221 -24.021 9.28765
      vertex 19.4636 -24.0149 9.2911
      vertex 19.4572 -24.0006 9.29057
    endloop
  endfacet
  facet normal -0.0828943 1.20184e-5 0.996558
    outer loop
      vertex 19.4481 -24.0881 9.28981
      vertex 19.4572 -24.0754 9.29057
      vertex 19.4221 -24.0551 9.28765
    endloop
  endfacet
  facet normal -0.082896 9.00938e-6 0.996558
    outer loop
      vertex 19.4572 -24.0754 9.29057
      vertex 19.4636 -24.0612 9.2911
      vertex 19.4221 -24.0551 9.28765
    endloop
  endfacet
  facet normal 0.910409 -0.406721 0.0757233
    outer loop
      vertex 19.4636 -24.0612 9.2911
      vertex 19.4572 -24.0754 9.29057
      vertex 19.4701 -24.0612 9.21263
    endloop
  endfacet
  facet normal 0.910409 -0.406721 0.0757233
    outer loop
      vertex 19.4572 -24.0754 9.29057
      vertex 19.4638 -24.0754 9.2121
      vertex 19.4701 -24.0612 9.21263
    endloop
  endfacet
  facet normal 0.974794 0.207852 0.0810786
    outer loop
      vertex 19.4636 -24.0149 9.2911
      vertex 19.4668 -24.0302 9.29137
      vertex 19.4701 -24.0149 9.21263
    endloop
  endfacet
  facet normal 0.974793 0.207857 0.0810795
    outer loop
      vertex 19.4668 -24.0302 9.29137
      vertex 19.4733 -24.0302 9.2129
      vertex 19.4701 -24.0149 9.21263
    endloop
  endfacet
  facet normal -0.0828943 -1.20184e-5 0.996558
    outer loop
      vertex 19.4572 -24.0006 9.29057
      vertex 19.4481 -23.988 9.28981
      vertex 19.4221 -24.021 9.28765
    endloop
  endfacet
  facet normal 0.806216 0.587809 0.0670571
    outer loop
      vertex 19.4481 -23.988 9.28981
      vertex 19.4572 -24.0006 9.29057
      vertex 19.4546 -23.988 9.21134
    endloop
  endfacet
  facet normal 0.806216 0.587809 0.0670571
    outer loop
      vertex 19.4572 -24.0006 9.29057
      vertex 19.4638 -24.0006 9.2121
      vertex 19.4546 -23.988 9.21134
    endloop
  endfacet
  facet normal 0.910409 0.406721 0.0757233
    outer loop
      vertex 19.4572 -24.0006 9.29057
      vertex 19.4636 -24.0149 9.2911
      vertex 19.4638 -24.0006 9.2121
    endloop
  endfacet
  facet normal 0.910409 0.406721 0.0757233
    outer loop
      vertex 19.4636 -24.0149 9.2911
      vertex 19.4701 -24.0149 9.21263
      vertex 19.4638 -24.0006 9.2121
    endloop
  endfacet
  facet normal 0.0828958 4.2035e-5 -0.996558
    outer loop
      vertex 19.4733 -24.0459 9.2129
      vertex 19.4701 -24.0612 9.21263
      vertex 19.438 -24.0436 9.20996
    endloop
  endfacet
  facet normal 0.0828833 1.89836e-5 -0.996559
    outer loop
      vertex 19.4701 -24.0612 9.21263
      vertex 19.4349 -24.0544 9.2097
      vertex 19.438 -24.0436 9.20996
    endloop
  endfacet
  facet normal 0.0828932 0 -0.996558
    outer loop
      vertex 19.4733 -24.0302 9.2129
      vertex 19.4733 -24.0459 9.2129
      vertex 19.438 -24.0436 9.20996
    endloop
  endfacet
  facet normal 0.0828958 -4.203e-5 -0.996558
    outer loop
      vertex 19.4701 -24.0149 9.21263
      vertex 19.4733 -24.0302 9.2129
      vertex 19.438 -24.0324 9.20996
    endloop
  endfacet
  facet normal 0.0828932 0 -0.996558
    outer loop
      vertex 19.4733 -24.0302 9.2129
      vertex 19.438 -24.0436 9.20996
      vertex 19.438 -24.0324 9.20996
    endloop
  endfacet
  facet normal 0.0828833 -1.89834e-5 -0.996559
    outer loop
      vertex 19.438 -24.0324 9.20996
      vertex 19.4349 -24.0217 9.2097
      vertex 19.4701 -24.0149 9.21263
    endloop
  endfacet
endsolid Onshape
