solid Onshape
  facet normal 0.965923 0 -0.258828
    outer loop
      vertex 19.0331 -26.7526 8.76525
      vertex 19.0197 -26.7526 8.715
      vertex 19.0197 -26.2526 8.715
    endloop
  endfacet
  facet normal 0.965922 0 0.258832
    outer loop
      vertex 19.0197 -26.7526 8.715
      vertex 19.0331 -26.7526 8.66475
      vertex 19.0331 -26.2526 8.66475
    endloop
  endfacet
  facet normal 0.707116 0 0.707098
    outer loop
      vertex 19.0331 -26.7526 8.66475
      vertex 19.0699 -26.7526 8.62796
      vertex 19.0699 -26.2526 8.62796
    endloop
  endfacet
  facet normal 0.25882 0 0.965926
    outer loop
      vertex 19.0699 -26.7526 8.62796
      vertex 19.1202 -26.7526 8.6145
      vertex 19.1202 -26.2526 8.6145
    endloop
  endfacet
  facet normal -0.258802 0 0.96593
    outer loop
      vertex 19.1202 -26.7526 8.6145
      vertex 19.1704 -26.7526 8.62796
      vertex 19.1704 -26.2526 8.62796
    endloop
  endfacet
  facet normal -0.707116 0 0.707098
    outer loop
      vertex 19.1704 -26.7526 8.62796
      vertex 19.2072 -26.7526 8.66475
      vertex 19.2072 -26.2526 8.66475
    endloop
  endfacet
  facet normal -0.965931 0 0.258799
    outer loop
      vertex 19.2072 -26.7526 8.66475
      vertex 19.2207 -26.7526 8.715
      vertex 19.2207 -26.2526 8.715
    endloop
  endfacet
  facet normal -0.965932 0 -0.258795
    outer loop
      vertex 19.2207 -26.7526 8.715
      vertex 19.2072 -26.7526 8.76525
      vertex 19.2072 -26.2526 8.76525
    endloop
  endfacet
  facet normal -0.707098 0 -0.707116
    outer loop
      vertex 19.2072 -26.7526 8.76525
      vertex 19.1704 -26.7526 8.80203
      vertex 19.1704 -26.2526 8.80203
    endloop
  endfacet
  facet normal -0.258819 0 -0.965926
    outer loop
      vertex 19.1704 -26.7526 8.80203
      vertex 19.1202 -26.7526 8.8155
      vertex 19.1202 -26.2526 8.8155
    endloop
  endfacet
  facet normal 0.258837 0 -0.965921
    outer loop
      vertex 19.1202 -26.7526 8.8155
      vertex 19.0699 -26.7526 8.80203
      vertex 19.0699 -26.2526 8.80203
    endloop
  endfacet
  facet normal 0.707098 0 -0.707116
    outer loop
      vertex 19.0699 -26.7526 8.80203
      vertex 19.0331 -26.7526 8.76525
      vertex 19.0331 -26.2526 8.76525
    endloop
  endfacet
  facet normal 0.965922 0 0.258832
    outer loop
      vertex 19.0331 -26.2526 8.66475
      vertex 19.0197 -26.2526 8.715
      vertex 19.0197 -26.7526 8.715
    endloop
  endfacet
  facet normal 0.965923 0 -0.258828
    outer loop
      vertex 19.0197 -26.2526 8.715
      vertex 19.0331 -26.2526 8.76525
      vertex 19.0331 -26.7526 8.76525
    endloop
  endfacet
  facet normal 0.707098 0 -0.707116
    outer loop
      vertex 19.0331 -26.2526 8.76525
      vertex 19.0699 -26.2526 8.80203
      vertex 19.0699 -26.7526 8.80203
    endloop
  endfacet
  facet normal 0.258837 0 -0.965921
    outer loop
      vertex 19.0699 -26.2526 8.80203
      vertex 19.1202 -26.2526 8.8155
      vertex 19.1202 -26.7526 8.8155
    endloop
  endfacet
  facet normal -0.258819 0 -0.965926
    outer loop
      vertex 19.1202 -26.2526 8.8155
      vertex 19.1704 -26.2526 8.80203
      vertex 19.1704 -26.7526 8.80203
    endloop
  endfacet
  facet normal -0.707098 0 -0.707116
    outer loop
      vertex 19.1704 -26.2526 8.80203
      vertex 19.2072 -26.2526 8.76525
      vertex 19.2072 -26.7526 8.76525
    endloop
  endfacet
  facet normal -0.965932 0 -0.258795
    outer loop
      vertex 19.2072 -26.2526 8.76525
      vertex 19.2207 -26.2526 8.715
      vertex 19.2207 -26.7526 8.715
    endloop
  endfacet
  facet normal -0.965931 0 0.258799
    outer loop
      vertex 19.2207 -26.2526 8.715
      vertex 19.2072 -26.2526 8.66475
      vertex 19.2072 -26.7526 8.66475
    endloop
  endfacet
  facet normal -0.707116 0 0.707098
    outer loop
      vertex 19.2072 -26.2526 8.66475
      vertex 19.1704 -26.2526 8.62796
      vertex 19.1704 -26.7526 8.62796
    endloop
  endfacet
  facet normal -0.258802 0 0.96593
    outer loop
      vertex 19.1704 -26.2526 8.62796
      vertex 19.1202 -26.2526 8.6145
      vertex 19.1202 -26.7526 8.6145
    endloop
  endfacet
  facet normal 0.25882 0 0.965926
    outer loop
      vertex 19.1202 -26.2526 8.6145
      vertex 19.0699 -26.2526 8.62796
      vertex 19.0699 -26.7526 8.62796
    endloop
  endfacet
  facet normal 0.707116 0 0.707098
    outer loop
      vertex 19.0699 -26.2526 8.62796
      vertex 19.0331 -26.2526 8.66475
      vertex 19.0331 -26.7526 8.66475
    endloop
  endfacet
endsolid Onshape
