solid Onshape
  facet normal 0.0829605 1.11026e-5 -0.996553
    outer loop
      vertex 19.0559 -24.3432 9.17818
      vertex 19.0449 -24.3447 9.17726
      vertex 19.0404 -24.3094 9.17689
    endloop
  endfacet
  facet normal 0.0828993 3.36175e-6 -0.996558
    outer loop
      vertex 19.0449 -24.3447 9.17726
      vertex 19.0256 -24.3142 9.17566
      vertex 19.0404 -24.3094 9.17689
    endloop
  endfacet
  facet normal -0.141804 0.989825 -0.0117932
    outer loop
      vertex 19.0449 -24.3447 9.17726
      vertex 19.0559 -24.3432 9.17818
      vertex 19.0612 -24.3447 8.98109
    endloop
  endfacet
  facet normal -0.141804 0.989825 -0.0117932
    outer loop
      vertex 19.0559 -24.3432 9.17818
      vertex 19.0722 -24.3432 8.98201
      vertex 19.0612 -24.3447 8.98109
    endloop
  endfacet
  facet normal -0.413937 0.909654 -0.0344253
    outer loop
      vertex 19.0347 -24.3494 9.17642
      vertex 19.0449 -24.3447 9.17726
      vertex 19.051 -24.3494 8.98024
    endloop
  endfacet
  facet normal -0.413937 0.909654 -0.0344253
    outer loop
      vertex 19.0449 -24.3447 9.17726
      vertex 19.0612 -24.3447 8.98109
      vertex 19.051 -24.3494 8.98024
    endloop
  endfacet
  facet normal 0.0828707 -1.47702e-5 -0.99656
    outer loop
      vertex 19.0449 -24.3447 9.17726
      vertex 19.0347 -24.3494 9.17642
      vertex 19.0256 -24.3142 9.17566
    endloop
  endfacet
  facet normal 0.0828717 -1.45147e-5 -0.99656
    outer loop
      vertex 19.0347 -24.3494 9.17642
      vertex 19.0121 -24.322 9.17454
      vertex 19.0256 -24.3142 9.17566
    endloop
  endfacet
  facet normal -0.307885 0.951079 -0.0256083
    outer loop
      vertex 19.0404 -24.3094 9.17689
      vertex 19.0256 -24.3142 9.17566
      vertex 19.0339 -24.3094 9.25536
    endloop
  endfacet
  facet normal -0.30792 0.951068 -0.025604
    outer loop
      vertex 19.0256 -24.3142 9.17566
      vertex 19.0191 -24.3142 9.25413
      vertex 19.0339 -24.3094 9.25536
    endloop
  endfacet
  facet normal -0.104099 0.994529 -0.00865853
    outer loop
      vertex 19.0559 -24.3077 9.17818
      vertex 19.0404 -24.3094 9.17689
      vertex 19.0494 -24.3077 9.25665
    endloop
  endfacet
  facet normal -0.104099 0.994529 -0.00865847
    outer loop
      vertex 19.0404 -24.3094 9.17689
      vertex 19.0339 -24.3094 9.25536
      vertex 19.0494 -24.3077 9.25665
    endloop
  endfacet
  facet normal 0.0829365 0 -0.996555
    outer loop
      vertex 19.0404 -24.3094 9.17689
      vertex 19.0559 -24.3077 9.17818
      vertex 19.0559 -24.3432 9.17818
    endloop
  endfacet
  facet normal 0.0828787 0 -0.99656
    outer loop
      vertex 19.0559 -24.3077 9.17818
      vertex 19.067 -24.3447 9.1791
      vertex 19.0559 -24.3432 9.17818
    endloop
  endfacet
  facet normal 0.141805 0.989824 0.0117933
    outer loop
      vertex 19.0559 -24.3432 9.17818
      vertex 19.067 -24.3447 9.1791
      vertex 19.0722 -24.3432 8.98201
    endloop
  endfacet
  facet normal 0.141805 0.989824 0.0117933
    outer loop
      vertex 19.067 -24.3447 9.1791
      vertex 19.0833 -24.3447 8.98293
      vertex 19.0722 -24.3432 8.98201
    endloop
  endfacet
  facet normal 0.0829621 0 -0.996553
    outer loop
      vertex 19.0612 -24.3447 8.98109
      vertex 19.0722 -24.3432 8.98201
      vertex 19.0722 -24.3825 8.98201
    endloop
  endfacet
  facet normal 0.0828787 0 -0.99656
    outer loop
      vertex 19.0722 -24.3432 8.98201
      vertex 19.0833 -24.3447 8.98293
      vertex 19.0722 -24.3825 8.98201
    endloop
  endfacet
  facet normal 0.0828658 3.81349e-6 -0.996561
    outer loop
      vertex 19.0722 -24.3825 8.98201
      vertex 19.0833 -24.3447 8.98293
      vertex 19.0934 -24.3494 8.98377
    endloop
  endfacet
  facet normal 0.0828756 -2.54788e-5 -0.99656
    outer loop
      vertex 19.051 -24.3494 8.98024
      vertex 19.0612 -24.3447 8.98109
      vertex 19.0722 -24.3825 8.98201
    endloop
  endfacet
  facet normal 0.1041 0.994529 0.00865851
    outer loop
      vertex 19.0714 -24.3094 9.17947
      vertex 19.0559 -24.3077 9.17818
      vertex 19.0649 -24.3094 9.25794
    endloop
  endfacet
  facet normal 0.104099 0.994529 0.00865857
    outer loop
      vertex 19.0559 -24.3077 9.17818
      vertex 19.0494 -24.3077 9.25665
      vertex 19.0649 -24.3094 9.25794
    endloop
  endfacet
  facet normal 0.0828155 -1.89878e-5 -0.996565
    outer loop
      vertex 19.0559 -24.3077 9.17818
      vertex 19.0714 -24.3094 9.17947
      vertex 19.067 -24.3447 9.1791
    endloop
  endfacet
  facet normal 0.0829011 -2.98098e-5 -0.996558
    outer loop
      vertex 19.0714 -24.3094 9.17947
      vertex 19.0862 -24.3142 9.1807
      vertex 19.067 -24.3447 9.1791
    endloop
  endfacet
  facet normal 0.0828618 -4.87312e-6 -0.996561
    outer loop
      vertex 19.067 -24.3447 9.1791
      vertex 19.0862 -24.3142 9.1807
      vertex 19.0771 -24.3494 9.17995
    endloop
  endfacet
  facet normal 0.0828607 -4.5927e-6 -0.996561
    outer loop
      vertex 19.0862 -24.3142 9.1807
      vertex 19.0997 -24.322 9.18183
      vertex 19.0771 -24.3494 9.17995
    endloop
  endfacet
  facet normal 0.0828918 -3.04128e-5 -0.996559
    outer loop
      vertex 19.0771 -24.3494 9.17995
      vertex 19.0997 -24.322 9.18183
      vertex 19.0856 -24.3567 9.18065
    endloop
  endfacet
  facet normal 0.0828485 -1.26179e-5 -0.996562
    outer loop
      vertex 19.0997 -24.322 9.18183
      vertex 19.1113 -24.3325 9.18279
      vertex 19.0856 -24.3567 9.18065
    endloop
  endfacet
  facet normal 0.0827907 4.90504e-5 -0.996567
    outer loop
      vertex 19.0856 -24.3567 9.18065
      vertex 19.1113 -24.3325 9.18279
      vertex 19.0916 -24.3662 9.18115
    endloop
  endfacet
  facet normal 0.082941 -3.94615e-5 -0.996554
    outer loop
      vertex 19.1113 -24.3325 9.18279
      vertex 19.1205 -24.3451 9.18355
      vertex 19.0916 -24.3662 9.18115
    endloop
  endfacet
  facet normal 0.0828976 2.05299e-5 -0.996558
    outer loop
      vertex 19.0916 -24.3662 9.18115
      vertex 19.1205 -24.3451 9.18355
      vertex 19.1268 -24.3594 9.18408
    endloop
  endfacet
  facet normal 0.413937 0.909654 0.0344253
    outer loop
      vertex 19.067 -24.3447 9.1791
      vertex 19.0771 -24.3494 9.17995
      vertex 19.0833 -24.3447 8.98293
    endloop
  endfacet
  facet normal 0.413937 0.909654 0.0344253
    outer loop
      vertex 19.0771 -24.3494 9.17995
      vertex 19.0934 -24.3494 8.98377
      vertex 19.0833 -24.3447 8.98293
    endloop
  endfacet
  facet normal 0.0829621 0 -0.996553
    outer loop
      vertex 19.0449 -24.4203 9.17726
      vertex 19.0559 -24.4219 9.17818
      vertex 19.0559 -24.4573 9.17818
    endloop
  endfacet
  facet normal 0.0828175 0 -0.996565
    outer loop
      vertex 19.0559 -24.4219 9.17818
      vertex 19.0714 -24.4557 9.17947
      vertex 19.0559 -24.4573 9.17818
    endloop
  endfacet
  facet normal -0.141966 -0.989801 -0.0118067
    outer loop
      vertex 19.0559 -24.4219 9.17818
      vertex 19.0449 -24.4203 9.17726
      vertex 19.0722 -24.4219 8.98201
    endloop
  endfacet
  facet normal -0.141966 -0.989801 -0.0118067
    outer loop
      vertex 19.0449 -24.4203 9.17726
      vertex 19.0612 -24.4203 8.98109
      vertex 19.0722 -24.4219 8.98201
    endloop
  endfacet
  facet normal 0.141967 -0.989801 0.0118068
    outer loop
      vertex 19.067 -24.4203 9.1791
      vertex 19.0559 -24.4219 9.17818
      vertex 19.0833 -24.4203 8.98293
    endloop
  endfacet
  facet normal 0.141967 -0.989801 0.0118068
    outer loop
      vertex 19.0559 -24.4219 9.17818
      vertex 19.0722 -24.4219 8.98201
      vertex 19.0833 -24.4203 8.98293
    endloop
  endfacet
  facet normal 0.0828749 2.64961e-5 -0.99656
    outer loop
      vertex 19.0559 -24.4219 9.17818
      vertex 19.067 -24.4203 9.1791
      vertex 19.0714 -24.4557 9.17947
    endloop
  endfacet
  facet normal 0.0829011 2.98079e-5 -0.996558
    outer loop
      vertex 19.067 -24.4203 9.1791
      vertex 19.0862 -24.4509 9.1807
      vertex 19.0714 -24.4557 9.17947
    endloop
  endfacet
  facet normal 0.1041 -0.994529 0.00865861
    outer loop
      vertex 19.0559 -24.4573 9.17818
      vertex 19.0714 -24.4557 9.17947
      vertex 19.0494 -24.4573 9.25665
    endloop
  endfacet
  facet normal 0.104099 -0.994529 0.00865847
    outer loop
      vertex 19.0714 -24.4557 9.17947
      vertex 19.0649 -24.4557 9.25794
      vertex 19.0494 -24.4573 9.25665
    endloop
  endfacet
  facet normal -0.104099 -0.994529 -0.00865843
    outer loop
      vertex 19.0404 -24.4557 9.17689
      vertex 19.0559 -24.4573 9.17818
      vertex 19.0339 -24.4557 9.25536
    endloop
  endfacet
  facet normal -0.104099 -0.994529 -0.00865857
    outer loop
      vertex 19.0559 -24.4573 9.17818
      vertex 19.0494 -24.4573 9.25665
      vertex 19.0339 -24.4557 9.25536
    endloop
  endfacet
  facet normal 0.0829356 -7.9554e-6 -0.996555
    outer loop
      vertex 19.0559 -24.4573 9.17818
      vertex 19.0404 -24.4557 9.17689
      vertex 19.0449 -24.4203 9.17726
    endloop
  endfacet
  facet normal 0.0828993 -3.36153e-6 -0.996558
    outer loop
      vertex 19.0404 -24.4557 9.17689
      vertex 19.0256 -24.4509 9.17566
      vertex 19.0449 -24.4203 9.17726
    endloop
  endfacet
  facet normal 0.0828707 1.47716e-5 -0.99656
    outer loop
      vertex 19.0449 -24.4203 9.17726
      vertex 19.0256 -24.4509 9.17566
      vertex 19.0347 -24.4156 9.17642
    endloop
  endfacet
  facet normal 0.0828717 1.45163e-5 -0.99656
    outer loop
      vertex 19.0256 -24.4509 9.17566
      vertex 19.0121 -24.443 9.17454
      vertex 19.0347 -24.4156 9.17642
    endloop
  endfacet
  facet normal 0.082906 -1.39705e-5 -0.996557
    outer loop
      vertex 19.0347 -24.4156 9.17642
      vertex 19.0121 -24.443 9.17454
      vertex 19.0263 -24.4083 9.17572
    endloop
  endfacet
  facet normal 0.0828727 -3.1089e-7 -0.99656
    outer loop
      vertex 19.0121 -24.443 9.17454
      vertex 19.0005 -24.4326 9.17357
      vertex 19.0263 -24.4083 9.17572
    endloop
  endfacet
  facet normal 0.0828705 2.05176e-6 -0.99656
    outer loop
      vertex 19.0263 -24.4083 9.17572
      vertex 19.0005 -24.4326 9.17357
      vertex 19.0202 -24.3989 9.17521
    endloop
  endfacet
  facet normal 0.0828761 -1.22677e-6 -0.99656
    outer loop
      vertex 19.0005 -24.4326 9.17357
      vertex 18.9913 -24.4199 9.17281
      vertex 19.0202 -24.3989 9.17521
    endloop
  endfacet
  facet normal 0.0828754 -2.09021e-7 -0.99656
    outer loop
      vertex 19.0202 -24.3989 9.17521
      vertex 18.9913 -24.4199 9.17281
      vertex 18.985 -24.4056 9.17228
    endloop
  endfacet
  facet normal -0.4138 -0.909717 -0.0344139
    outer loop
      vertex 19.0449 -24.4203 9.17726
      vertex 19.0347 -24.4156 9.17642
      vertex 19.0612 -24.4203 8.98109
    endloop
  endfacet
  facet normal -0.4138 -0.909717 -0.0344139
    outer loop
      vertex 19.0347 -24.4156 9.17642
      vertex 19.051 -24.4156 8.98024
      vertex 19.0612 -24.4203 8.98109
    endloop
  endfacet
  facet normal 0.308027 -0.951033 0.0256202
    outer loop
      vertex 19.0714 -24.4557 9.17947
      vertex 19.0862 -24.4509 9.1807
      vertex 19.0649 -24.4557 9.25794
    endloop
  endfacet
  facet normal 0.308027 -0.951033 0.0256202
    outer loop
      vertex 19.0862 -24.4509 9.1807
      vertex 19.0797 -24.4509 9.25917
      vertex 19.0649 -24.4557 9.25794
    endloop
  endfacet
  facet normal 0.0829621 0 -0.996553
    outer loop
      vertex 19.0722 -24.4219 8.98201
      vertex 19.0612 -24.4203 8.98109
      vertex 19.0722 -24.3825 8.98201
    endloop
  endfacet
  facet normal 0.0828756 2.548e-5 -0.99656
    outer loop
      vertex 19.0612 -24.4203 8.98109
      vertex 19.051 -24.4156 8.98024
      vertex 19.0722 -24.3825 8.98201
    endloop
  endfacet
  facet normal 0.0828469 4.4021e-5 -0.996562
    outer loop
      vertex 19.0722 -24.3825 8.98201
      vertex 19.051 -24.4156 8.98024
      vertex 19.0426 -24.4083 8.97954
    endloop
  endfacet
  facet normal 0.0828787 0 -0.99656
    outer loop
      vertex 19.0833 -24.4203 8.98293
      vertex 19.0722 -24.4219 8.98201
      vertex 19.0722 -24.3825 8.98201
    endloop
  endfacet
  facet normal 0.4138 -0.909717 0.0344139
    outer loop
      vertex 19.0771 -24.4156 9.17995
      vertex 19.067 -24.4203 9.1791
      vertex 19.0934 -24.4156 8.98377
    endloop
  endfacet
  facet normal 0.4138 -0.909717 0.0344139
    outer loop
      vertex 19.067 -24.4203 9.1791
      vertex 19.0833 -24.4203 8.98293
      vertex 19.0934 -24.4156 8.98377
    endloop
  endfacet
  facet normal 0.0828618 4.87356e-6 -0.996561
    outer loop
      vertex 19.067 -24.4203 9.1791
      vertex 19.0771 -24.4156 9.17995
      vertex 19.0862 -24.4509 9.1807
    endloop
  endfacet
  facet normal 0.0828607 4.5932e-6 -0.996561
    outer loop
      vertex 19.0771 -24.4156 9.17995
      vertex 19.0997 -24.443 9.18183
      vertex 19.0862 -24.4509 9.1807
    endloop
  endfacet
  facet normal 0.0828658 -3.81367e-6 -0.996561
    outer loop
      vertex 19.0934 -24.4156 8.98377
      vertex 19.0833 -24.4203 8.98293
      vertex 19.0722 -24.3825 8.98201
    endloop
  endfacet
  facet normal -0.498377 0.86597 -0.0414407
    outer loop
      vertex 19.0256 -24.3142 9.17566
      vertex 19.0121 -24.322 9.17454
      vertex 19.0191 -24.3142 9.25413
    endloop
  endfacet
  facet normal -0.498377 0.86597 -0.0414407
    outer loop
      vertex 19.0121 -24.322 9.17454
      vertex 19.0056 -24.322 9.25301
      vertex 19.0191 -24.3142 9.25413
    endloop
  endfacet
  facet normal 0.0828469 -4.40186e-5 -0.996562
    outer loop
      vertex 19.0426 -24.3567 8.97954
      vertex 19.051 -24.3494 8.98024
      vertex 19.0722 -24.3825 8.98201
    endloop
  endfacet
  facet normal -0.652639 0.755722 -0.0542771
    outer loop
      vertex 19.051 -24.3494 8.98024
      vertex 19.0426 -24.3567 8.97954
      vertex 19.0347 -24.3494 9.17642
    endloop
  endfacet
  facet normal -0.652636 0.755725 -0.0542771
    outer loop
      vertex 19.0426 -24.3567 8.97954
      vertex 19.0263 -24.3567 9.17572
      vertex 19.0347 -24.3494 9.17642
    endloop
  endfacet
  facet normal 0.0828962 2.53428e-5 -0.996558
    outer loop
      vertex 19.0347 -24.3494 9.17642
      vertex 19.0263 -24.3567 9.17572
      vertex 19.0005 -24.3325 9.17357
    endloop
  endfacet
  facet normal 0.0828746 2.30869e-6 -0.99656
    outer loop
      vertex 19.0263 -24.3567 9.17572
      vertex 18.9913 -24.3451 9.17281
      vertex 19.0005 -24.3325 9.17357
    endloop
  endfacet
  facet normal -0.082877 0 0.99656
    outer loop
      vertex 19.0494 -24.3077 9.25665
      vertex 19.0339 -24.3094 9.25536
      vertex 19.0494 -24.3484 9.25665
    endloop
  endfacet
  facet normal -0.0829069 -1.19376e-5 0.996557
    outer loop
      vertex 19.0339 -24.3094 9.25536
      vertex 19.0191 -24.3142 9.25413
      vertex 19.0494 -24.3484 9.25665
    endloop
  endfacet
  facet normal -0.0828736 1.77453e-5 0.99656
    outer loop
      vertex 19.0494 -24.3484 9.25665
      vertex 19.0191 -24.3142 9.25413
      vertex 19.0056 -24.322 9.25301
    endloop
  endfacet
  facet normal -0.082877 0 0.99656
    outer loop
      vertex 19.0649 -24.3094 9.25794
      vertex 19.0494 -24.3077 9.25665
      vertex 19.0494 -24.3484 9.25665
    endloop
  endfacet
  facet normal 0.307919 0.951068 0.0256112
    outer loop
      vertex 19.0862 -24.3142 9.1807
      vertex 19.0714 -24.3094 9.17947
      vertex 19.0797 -24.3142 9.25917
    endloop
  endfacet
  facet normal 0.307919 0.951068 0.0256112
    outer loop
      vertex 19.0714 -24.3094 9.17947
      vertex 19.0649 -24.3094 9.25794
      vertex 19.0797 -24.3142 9.25917
    endloop
  endfacet
  facet normal -0.0829069 1.19376e-5 0.996557
    outer loop
      vertex 19.0797 -24.3142 9.25917
      vertex 19.0649 -24.3094 9.25794
      vertex 19.0494 -24.3484 9.25665
    endloop
  endfacet
  facet normal 0.498376 0.86597 0.0414524
    outer loop
      vertex 19.0997 -24.322 9.18183
      vertex 19.0862 -24.3142 9.1807
      vertex 19.0932 -24.322 9.26029
    endloop
  endfacet
  facet normal 0.498376 0.86597 0.0414524
    outer loop
      vertex 19.0862 -24.3142 9.1807
      vertex 19.0797 -24.3142 9.25917
      vertex 19.0932 -24.322 9.26029
    endloop
  endfacet
  facet normal 0.652636 0.755725 0.0542769
    outer loop
      vertex 19.0771 -24.3494 9.17995
      vertex 19.0856 -24.3567 9.18065
      vertex 19.0934 -24.3494 8.98377
    endloop
  endfacet
  facet normal 0.652636 0.755725 0.0542769
    outer loop
      vertex 19.0856 -24.3567 9.18065
      vertex 19.1019 -24.3567 8.98447
      vertex 19.0934 -24.3494 8.98377
    endloop
  endfacet
  facet normal -0.307993 -0.951044 -0.02561
    outer loop
      vertex 19.0256 -24.4509 9.17566
      vertex 19.0404 -24.4557 9.17689
      vertex 19.0191 -24.4509 9.25413
    endloop
  endfacet
  facet normal -0.308027 -0.951033 -0.0256202
    outer loop
      vertex 19.0404 -24.4557 9.17689
      vertex 19.0339 -24.4557 9.25536
      vertex 19.0191 -24.4509 9.25413
    endloop
  endfacet
  facet normal -0.082877 0 0.99656
    outer loop
      vertex 19.0494 -24.4573 9.25665
      vertex 19.0649 -24.4557 9.25794
      vertex 19.0494 -24.4166 9.25665
    endloop
  endfacet
  facet normal -0.0829069 -1.19366e-5 0.996557
    outer loop
      vertex 19.0649 -24.4557 9.25794
      vertex 19.0797 -24.4509 9.25917
      vertex 19.0494 -24.4166 9.25665
    endloop
  endfacet
  facet normal -0.0828736 1.77482e-5 0.99656
    outer loop
      vertex 19.0494 -24.4166 9.25665
      vertex 19.0797 -24.4509 9.25917
      vertex 19.0932 -24.443 9.26029
    endloop
  endfacet
  facet normal -0.082877 0 0.99656
    outer loop
      vertex 19.0339 -24.4557 9.25536
      vertex 19.0494 -24.4573 9.25665
      vertex 19.0494 -24.4166 9.25665
    endloop
  endfacet
  facet normal -0.0829069 1.19366e-5 0.996557
    outer loop
      vertex 19.0191 -24.4509 9.25413
      vertex 19.0339 -24.4557 9.25536
      vertex 19.0494 -24.4166 9.25665
    endloop
  endfacet
  facet normal -0.498199 -0.866073 -0.0414259
    outer loop
      vertex 19.0121 -24.443 9.17454
      vertex 19.0256 -24.4509 9.17566
      vertex 19.0056 -24.443 9.25301
    endloop
  endfacet
  facet normal -0.498199 -0.866073 -0.0414259
    outer loop
      vertex 19.0256 -24.4509 9.17566
      vertex 19.0191 -24.4509 9.25413
      vertex 19.0056 -24.443 9.25301
    endloop
  endfacet
  facet normal -0.652541 -0.755807 -0.054269
    outer loop
      vertex 19.0347 -24.4156 9.17642
      vertex 19.0263 -24.4083 9.17572
      vertex 19.051 -24.4156 8.98024
    endloop
  endfacet
  facet normal -0.652545 -0.755804 -0.0542695
    outer loop
      vertex 19.0263 -24.4083 9.17572
      vertex 19.0426 -24.4083 8.97954
      vertex 19.051 -24.4156 8.98024
    endloop
  endfacet
  facet normal 0.498198 -0.866073 0.0414376
    outer loop
      vertex 19.0862 -24.4509 9.1807
      vertex 19.0997 -24.443 9.18183
      vertex 19.0797 -24.4509 9.25917
    endloop
  endfacet
  facet normal 0.498198 -0.866073 0.0414376
    outer loop
      vertex 19.0997 -24.443 9.18183
      vertex 19.0932 -24.443 9.26029
      vertex 19.0797 -24.4509 9.25917
    endloop
  endfacet
  facet normal 0.0829015 1.92196e-5 -0.996558
    outer loop
      vertex 19.1019 -24.4083 8.98447
      vertex 19.0934 -24.4156 8.98377
      vertex 19.0722 -24.3825 8.98201
    endloop
  endfacet
  facet normal 0.652541 -0.755807 0.054269
    outer loop
      vertex 19.0934 -24.4156 8.98377
      vertex 19.1019 -24.4083 8.98447
      vertex 19.0771 -24.4156 9.17995
    endloop
  endfacet
  facet normal 0.652541 -0.755807 0.054269
    outer loop
      vertex 19.1019 -24.4083 8.98447
      vertex 19.0856 -24.4083 9.18065
      vertex 19.0771 -24.4156 9.17995
    endloop
  endfacet
  facet normal 0.082879 4.52426e-5 -0.99656
    outer loop
      vertex 19.0771 -24.4156 9.17995
      vertex 19.0856 -24.4083 9.18065
      vertex 19.1113 -24.4326 9.18279
    endloop
  endfacet
  facet normal 0.0829009 6.86804e-5 -0.996558
    outer loop
      vertex 19.0856 -24.4083 9.18065
      vertex 19.1205 -24.4199 9.18355
      vertex 19.1113 -24.4326 9.18279
    endloop
  endfacet
  facet normal 0.0828799 -7.69523e-6 -0.99656
    outer loop
      vertex 19.0005 -24.3325 9.17357
      vertex 19.0121 -24.322 9.17454
      vertex 19.0347 -24.3494 9.17642
    endloop
  endfacet
  facet normal -0.66682 0.743153 -0.055447
    outer loop
      vertex 19.0121 -24.322 9.17454
      vertex 19.0005 -24.3325 9.17357
      vertex 19.0056 -24.322 9.25301
    endloop
  endfacet
  facet normal -0.666818 0.743155 -0.0554475
    outer loop
      vertex 19.0005 -24.3325 9.17357
      vertex 18.994 -24.3325 9.25204
      vertex 19.0056 -24.322 9.25301
    endloop
  endfacet
  facet normal 0.0828786 -7.2582e-6 -0.99656
    outer loop
      vertex 19.0365 -24.3662 8.97904
      vertex 19.0426 -24.3567 8.97954
      vertex 19.0722 -24.3825 8.98201
    endloop
  endfacet
  facet normal -0.838383 0.540603 -0.069725
    outer loop
      vertex 19.0426 -24.3567 8.97954
      vertex 19.0365 -24.3662 8.97904
      vertex 19.0263 -24.3567 9.17572
    endloop
  endfacet
  facet normal -0.838383 0.540603 -0.069725
    outer loop
      vertex 19.0365 -24.3662 8.97904
      vertex 19.0202 -24.3662 9.17521
      vertex 19.0263 -24.3567 9.17572
    endloop
  endfacet
  facet normal -0.806259 0.587752 -0.0670423
    outer loop
      vertex 19.0005 -24.3325 9.17357
      vertex 18.9913 -24.3451 9.17281
      vertex 18.994 -24.3325 9.25204
    endloop
  endfacet
  facet normal -0.806203 0.587827 -0.067056
    outer loop
      vertex 18.9913 -24.3451 9.17281
      vertex 18.9848 -24.3451 9.25128
      vertex 18.994 -24.3325 9.25204
    endloop
  endfacet
  facet normal 0.0828727 -3.45566e-6 -0.99656
    outer loop
      vertex 19.0263 -24.3567 9.17572
      vertex 19.0202 -24.3662 9.17521
      vertex 18.9913 -24.3451 9.17281
    endloop
  endfacet
  facet normal 0.0828754 2.09042e-7 -0.99656
    outer loop
      vertex 19.0202 -24.3662 9.17521
      vertex 18.985 -24.3594 9.17228
      vertex 18.9913 -24.3451 9.17281
    endloop
  endfacet
  facet normal -0.0828866 -3.96679e-6 0.996559
    outer loop
      vertex 19.02 -24.3655 9.2542
      vertex 19.0494 -24.3484 9.25665
      vertex 19.0056 -24.322 9.25301
    endloop
  endfacet
  facet normal 0.498301 -0.866013 0.0414462
    outer loop
      vertex 19.0494 -24.3484 9.25665
      vertex 19.02 -24.3655 9.2542
      vertex 19.024 -24.3655 9.20516
    endloop
  endfacet
  facet normal 0.498301 -0.866013 0.0414462
    outer loop
      vertex 19.0535 -24.3484 9.20761
      vertex 19.0494 -24.3484 9.25665
      vertex 19.024 -24.3655 9.20516
    endloop
  endfacet
  facet normal -0.498301 -0.866013 -0.0414462
    outer loop
      vertex 19.0494 -24.3484 9.25665
      vertex 19.0535 -24.3484 9.20761
      vertex 19.0788 -24.3655 9.2591
    endloop
  endfacet
  facet normal -0.498301 -0.866013 -0.0414462
    outer loop
      vertex 19.0535 -24.3484 9.20761
      vertex 19.0829 -24.3655 9.21005
      vertex 19.0788 -24.3655 9.2591
    endloop
  endfacet
  facet normal -0.0828866 3.96679e-6 0.996559
    outer loop
      vertex 19.0494 -24.3484 9.25665
      vertex 19.0788 -24.3655 9.2591
      vertex 19.0932 -24.322 9.26029
    endloop
  endfacet
  facet normal -0.0828632 -3.82222e-6 0.996561
    outer loop
      vertex 19.0788 -24.3655 9.2591
      vertex 19.1048 -24.3325 9.26126
      vertex 19.0932 -24.322 9.26029
    endloop
  endfacet
  facet normal -0.0828736 -1.77453e-5 0.99656
    outer loop
      vertex 19.0932 -24.322 9.26029
      vertex 19.0797 -24.3142 9.25917
      vertex 19.0494 -24.3484 9.25665
    endloop
  endfacet
  facet normal 0.0829015 -1.92186e-5 -0.996558
    outer loop
      vertex 19.0934 -24.3494 8.98377
      vertex 19.1019 -24.3567 8.98447
      vertex 19.0722 -24.3825 8.98201
    endloop
  endfacet
  facet normal 0.0828786 7.2582e-6 -0.99656
    outer loop
      vertex 19.1019 -24.3567 8.98447
      vertex 19.1079 -24.3662 8.98498
      vertex 19.0722 -24.3825 8.98201
    endloop
  endfacet
  facet normal 0.0828782 8.22199e-6 -0.99656
    outer loop
      vertex 19.0722 -24.3825 8.98201
      vertex 19.1079 -24.3662 8.98498
      vertex 19.1111 -24.3769 8.98524
    endloop
  endfacet
  facet normal 0.0828786 -7.2569e-6 -0.99656
    outer loop
      vertex 19.1079 -24.3989 8.98498
      vertex 19.1019 -24.4083 8.98447
      vertex 19.0722 -24.3825 8.98201
    endloop
  endfacet
  facet normal 0.838432 -0.540527 0.0697287
    outer loop
      vertex 19.1019 -24.4083 8.98447
      vertex 19.1079 -24.3989 8.98498
      vertex 19.0856 -24.4083 9.18065
    endloop
  endfacet
  facet normal 0.838435 -0.540523 0.0697293
    outer loop
      vertex 19.1079 -24.3989 8.98498
      vertex 19.0916 -24.3989 9.18115
      vertex 19.0856 -24.4083 9.18065
    endloop
  endfacet
  facet normal 0.0828782 8.22313e-6 -0.99656
    outer loop
      vertex 19.0365 -24.3989 8.97904
      vertex 19.0334 -24.3881 8.97878
      vertex 19.0722 -24.3825 8.98201
    endloop
  endfacet
  facet normal 0.0828793 0 -0.99656
    outer loop
      vertex 19.0334 -24.3881 8.97878
      vertex 19.0334 -24.3769 8.97878
      vertex 19.0722 -24.3825 8.98201
    endloop
  endfacet
  facet normal 0.0828782 -8.22199e-6 -0.99656
    outer loop
      vertex 19.0722 -24.3825 8.98201
      vertex 19.0334 -24.3769 8.97878
      vertex 19.0365 -24.3662 8.97904
    endloop
  endfacet
  facet normal -0.956146 -0.281888 -0.0795188
    outer loop
      vertex 19.0334 -24.3881 8.97878
      vertex 19.0365 -24.3989 8.97904
      vertex 19.0171 -24.3881 9.17495
    endloop
  endfacet
  facet normal -0.956146 -0.281888 -0.0795188
    outer loop
      vertex 19.0365 -24.3989 8.97904
      vertex 19.0202 -24.3989 9.17521
      vertex 19.0171 -24.3881 9.17495
    endloop
  endfacet
  facet normal -0.99656 0 -0.0828799
    outer loop
      vertex 19.0334 -24.3769 8.97878
      vertex 19.0334 -24.3881 8.97878
      vertex 19.0171 -24.3769 9.17495
    endloop
  endfacet
  facet normal -0.99656 0 -0.0828799
    outer loop
      vertex 19.0334 -24.3881 8.97878
      vertex 19.0171 -24.3881 9.17495
      vertex 19.0171 -24.3769 9.17495
    endloop
  endfacet
  facet normal -0.956159 0.281843 -0.0795199
    outer loop
      vertex 19.0365 -24.3662 8.97904
      vertex 19.0334 -24.3769 8.97878
      vertex 19.0202 -24.3662 9.17521
    endloop
  endfacet
  facet normal -0.956159 0.281843 -0.0795199
    outer loop
      vertex 19.0334 -24.3769 8.97878
      vertex 19.0171 -24.3769 9.17495
      vertex 19.0202 -24.3662 9.17521
    endloop
  endfacet
  facet normal 0.0828786 7.2569e-6 -0.99656
    outer loop
      vertex 19.0426 -24.4083 8.97954
      vertex 19.0365 -24.3989 8.97904
      vertex 19.0722 -24.3825 8.98201
    endloop
  endfacet
  facet normal -0.838432 -0.540527 -0.069729
    outer loop
      vertex 19.0365 -24.3989 8.97904
      vertex 19.0426 -24.4083 8.97954
      vertex 19.0202 -24.3989 9.17521
    endloop
  endfacet
  facet normal -0.838432 -0.540527 -0.069729
    outer loop
      vertex 19.0426 -24.4083 8.97954
      vertex 19.0263 -24.4083 9.17572
      vertex 19.0202 -24.3989 9.17521
    endloop
  endfacet
  facet normal 0.838383 0.540603 0.069725
    outer loop
      vertex 19.1079 -24.3662 8.98498
      vertex 19.1019 -24.3567 8.98447
      vertex 19.0916 -24.3662 9.18115
    endloop
  endfacet
  facet normal 0.838387 0.540598 0.0697249
    outer loop
      vertex 19.1019 -24.3567 8.98447
      vertex 19.0856 -24.3567 9.18065
      vertex 19.0916 -24.3662 9.18115
    endloop
  endfacet
  facet normal 0.0828782 -8.22313e-6 -0.99656
    outer loop
      vertex 19.1111 -24.3881 8.98524
      vertex 19.1079 -24.3989 8.98498
      vertex 19.0722 -24.3825 8.98201
    endloop
  endfacet
  facet normal 0.956146 -0.281888 0.0795188
    outer loop
      vertex 19.1079 -24.3989 8.98498
      vertex 19.1111 -24.3881 8.98524
      vertex 19.0916 -24.3989 9.18115
    endloop
  endfacet
  facet normal 0.956188 -0.281742 0.079531
    outer loop
      vertex 19.1111 -24.3881 8.98524
      vertex 19.0947 -24.3881 9.18141
      vertex 19.0916 -24.3989 9.18115
    endloop
  endfacet
  facet normal 0.956159 0.281843 0.0795286
    outer loop
      vertex 19.1111 -24.3769 8.98524
      vertex 19.1079 -24.3662 8.98498
      vertex 19.0947 -24.3769 9.18141
    endloop
  endfacet
  facet normal 0.956202 0.281697 0.0795235
    outer loop
      vertex 19.1079 -24.3662 8.98498
      vertex 19.0916 -24.3662 9.18115
      vertex 19.0947 -24.3769 9.18141
    endloop
  endfacet
  facet normal 0.0828793 0 -0.99656
    outer loop
      vertex 19.1111 -24.3769 8.98524
      vertex 19.1111 -24.3881 8.98524
      vertex 19.0722 -24.3825 8.98201
    endloop
  endfacet
  facet normal 0.996559 0 0.0828889
    outer loop
      vertex 19.1111 -24.3881 8.98524
      vertex 19.1111 -24.3769 8.98524
      vertex 19.0947 -24.3881 9.18141
    endloop
  endfacet
  facet normal 0.996559 0 0.0828889
    outer loop
      vertex 19.1111 -24.3769 8.98524
      vertex 19.0947 -24.3769 9.18141
      vertex 19.0947 -24.3881 9.18141
    endloop
  endfacet
  facet normal 0.66676 0.743206 0.0554579
    outer loop
      vertex 19.1113 -24.3325 9.18279
      vertex 19.0997 -24.322 9.18183
      vertex 19.1048 -24.3325 9.26126
    endloop
  endfacet
  facet normal 0.66676 0.743206 0.0554579
    outer loop
      vertex 19.0997 -24.322 9.18183
      vertex 19.0932 -24.322 9.26029
      vertex 19.1048 -24.3325 9.26126
    endloop
  endfacet
  facet normal -0.0828736 -1.77482e-5 0.99656
    outer loop
      vertex 19.0056 -24.443 9.25301
      vertex 19.0191 -24.4509 9.25413
      vertex 19.0494 -24.4166 9.25665
    endloop
  endfacet
  facet normal -0.0828866 -3.96671e-6 0.996559
    outer loop
      vertex 19.0788 -24.3996 9.2591
      vertex 19.0494 -24.4166 9.25665
      vertex 19.0932 -24.443 9.26029
    endloop
  endfacet
  facet normal -0.49826 0.866037 -0.0414428
    outer loop
      vertex 19.0494 -24.4166 9.25665
      vertex 19.0788 -24.3996 9.2591
      vertex 19.0829 -24.3996 9.21005
    endloop
  endfacet
  facet normal -0.49826 0.866037 -0.0414428
    outer loop
      vertex 19.0535 -24.4166 9.20761
      vertex 19.0494 -24.4166 9.25665
      vertex 19.0829 -24.3996 9.21005
    endloop
  endfacet
  facet normal 0.49826 0.866037 0.0414428
    outer loop
      vertex 19.0494 -24.4166 9.25665
      vertex 19.0535 -24.4166 9.20761
      vertex 19.02 -24.3996 9.2542
    endloop
  endfacet
  facet normal 0.49826 0.866037 0.0414428
    outer loop
      vertex 19.0535 -24.4166 9.20761
      vertex 19.024 -24.3996 9.20516
      vertex 19.02 -24.3996 9.2542
    endloop
  endfacet
  facet normal -0.0828866 3.96671e-6 0.996559
    outer loop
      vertex 19.0494 -24.4166 9.25665
      vertex 19.02 -24.3996 9.2542
      vertex 19.0056 -24.443 9.25301
    endloop
  endfacet
  facet normal -0.0829347 1.99967e-5 0.996555
    outer loop
      vertex 19.02 -24.3996 9.2542
      vertex 18.994 -24.4326 9.25204
      vertex 19.0056 -24.443 9.25301
    endloop
  endfacet
  facet normal -0.666952 -0.743034 -0.0554586
    outer loop
      vertex 19.0005 -24.4326 9.17357
      vertex 19.0121 -24.443 9.17454
      vertex 18.994 -24.4326 9.25204
    endloop
  endfacet
  facet normal -0.666949 -0.743037 -0.0554577
    outer loop
      vertex 19.0121 -24.443 9.17454
      vertex 19.0056 -24.443 9.25301
      vertex 18.994 -24.4326 9.25204
    endloop
  endfacet
  facet normal 0.0828578 2.18472e-6 -0.996561
    outer loop
      vertex 19.1113 -24.4326 9.18279
      vertex 19.0997 -24.443 9.18183
      vertex 19.0771 -24.4156 9.17995
    endloop
  endfacet
  facet normal 0.666891 -0.743087 0.0554688
    outer loop
      vertex 19.0997 -24.443 9.18183
      vertex 19.1113 -24.4326 9.18279
      vertex 19.0932 -24.443 9.26029
    endloop
  endfacet
  facet normal 0.666891 -0.743087 0.0554688
    outer loop
      vertex 19.1113 -24.4326 9.18279
      vertex 19.1048 -24.4326 9.26126
      vertex 19.0932 -24.443 9.26029
    endloop
  endfacet
  facet normal 0.80627 -0.587734 0.0670616
    outer loop
      vertex 19.1113 -24.4326 9.18279
      vertex 19.1205 -24.4199 9.18355
      vertex 19.1048 -24.4326 9.26126
    endloop
  endfacet
  facet normal 0.806218 -0.587809 0.0670389
    outer loop
      vertex 19.1205 -24.4199 9.18355
      vertex 19.1139 -24.4199 9.26202
      vertex 19.1048 -24.4326 9.26126
    endloop
  endfacet
  facet normal 0.0828495 -8.69338e-5 -0.996562
    outer loop
      vertex 19.0856 -24.4083 9.18065
      vertex 19.0916 -24.3989 9.18115
      vertex 19.1205 -24.4199 9.18355
    endloop
  endfacet
  facet normal 0.0828976 -2.05279e-5 -0.996558
    outer loop
      vertex 19.0916 -24.3989 9.18115
      vertex 19.1268 -24.4056 9.18408
      vertex 19.1205 -24.4199 9.18355
    endloop
  endfacet
  facet normal -0.996559 0 -0.0828889
    outer loop
      vertex 18.9752 -24.3903 9.25048
      vertex 18.9752 -24.3747 9.25048
      vertex 18.9818 -24.3903 9.17201
    endloop
  endfacet
  facet normal -0.996559 0 -0.0828889
    outer loop
      vertex 18.9752 -24.3747 9.25048
      vertex 18.9818 -24.3747 9.17201
      vertex 18.9818 -24.3903 9.17201
    endloop
  endfacet
  facet normal -0.0828874 0 0.996559
    outer loop
      vertex 18.9752 -24.3747 9.25048
      vertex 18.9752 -24.3903 9.25048
      vertex 19.02 -24.3996 9.2542
    endloop
  endfacet
  facet normal -0.0828802 3.52672e-5 0.99656
    outer loop
      vertex 18.9752 -24.3903 9.25048
      vertex 18.9785 -24.4056 9.25075
      vertex 19.02 -24.3996 9.2542
    endloop
  endfacet
  facet normal -0.0828766 1.04618e-5 0.99656
    outer loop
      vertex 19.02 -24.3996 9.2542
      vertex 18.9785 -24.4056 9.25075
      vertex 18.9848 -24.4199 9.25128
    endloop
  endfacet
  facet normal -0.0828802 -3.52585e-5 0.99656
    outer loop
      vertex 18.9785 -24.3594 9.25075
      vertex 18.9752 -24.3747 9.25048
      vertex 19.02 -24.3655 9.2542
    endloop
  endfacet
  facet normal -0.0828874 0 0.996559
    outer loop
      vertex 18.9752 -24.3747 9.25048
      vertex 19.02 -24.3996 9.2542
      vertex 19.02 -24.3655 9.2542
    endloop
  endfacet
  facet normal -0.974774 0.207946 -0.0810769
    outer loop
      vertex 18.9752 -24.3747 9.25048
      vertex 18.9785 -24.3594 9.25075
      vertex 18.9818 -24.3747 9.17201
    endloop
  endfacet
  facet normal -0.9748 0.207833 -0.081056
    outer loop
      vertex 18.9785 -24.3594 9.25075
      vertex 18.985 -24.3594 9.17228
      vertex 18.9818 -24.3747 9.17201
    endloop
  endfacet
  facet normal 0.0828975 0 -0.996558
    outer loop
      vertex 18.9818 -24.3903 9.17201
      vertex 18.9818 -24.3747 9.17201
      vertex 19.0171 -24.3769 9.17495
    endloop
  endfacet
  facet normal 0.0829001 4.11109e-5 -0.996558
    outer loop
      vertex 18.9818 -24.3747 9.17201
      vertex 18.985 -24.3594 9.17228
      vertex 19.0171 -24.3769 9.17495
    endloop
  endfacet
  facet normal 0.082874 -6.99034e-6 -0.99656
    outer loop
      vertex 19.0171 -24.3769 9.17495
      vertex 18.985 -24.3594 9.17228
      vertex 19.0202 -24.3662 9.17521
    endloop
  endfacet
  facet normal 0.0829001 -4.11208e-5 -0.996558
    outer loop
      vertex 18.985 -24.4056 9.17228
      vertex 18.9818 -24.3903 9.17201
      vertex 19.0171 -24.3881 9.17495
    endloop
  endfacet
  facet normal 0.0828975 0 -0.996558
    outer loop
      vertex 18.9818 -24.3903 9.17201
      vertex 19.0171 -24.3769 9.17495
      vertex 19.0171 -24.3881 9.17495
    endloop
  endfacet
  facet normal -0.974788 -0.207881 -0.0810781
    outer loop
      vertex 18.9818 -24.3903 9.17201
      vertex 18.985 -24.4056 9.17228
      vertex 18.9752 -24.3903 9.25048
    endloop
  endfacet
  facet normal -0.974766 -0.207995 -0.0810531
    outer loop
      vertex 18.985 -24.4056 9.17228
      vertex 18.9785 -24.4056 9.25075
      vertex 18.9752 -24.3903 9.25048
    endloop
  endfacet
  facet normal 0.996559 0 0.0828889
    outer loop
      vertex 19.02 -24.3996 9.2542
      vertex 19.024 -24.3996 9.20516
      vertex 19.02 -24.3655 9.2542
    endloop
  endfacet
  facet normal 0.996559 0 0.0828889
    outer loop
      vertex 19.024 -24.3996 9.20516
      vertex 19.024 -24.3655 9.20516
      vertex 19.02 -24.3655 9.2542
    endloop
  endfacet
  facet normal -0.0828766 -1.04629e-5 0.99656
    outer loop
      vertex 18.9848 -24.3451 9.25128
      vertex 18.9785 -24.3594 9.25075
      vertex 19.02 -24.3655 9.2542
    endloop
  endfacet
  facet normal -0.910435 0.406666 -0.0757039
    outer loop
      vertex 18.9785 -24.3594 9.25075
      vertex 18.9848 -24.3451 9.25128
      vertex 18.985 -24.3594 9.17228
    endloop
  endfacet
  facet normal -0.910389 0.406765 -0.0757217
    outer loop
      vertex 18.9848 -24.3451 9.25128
      vertex 18.9913 -24.3451 9.17281
      vertex 18.985 -24.3594 9.17228
    endloop
  endfacet
  facet normal -0.91041 -0.406721 -0.0757019
    outer loop
      vertex 18.985 -24.4056 9.17228
      vertex 18.9913 -24.4199 9.17281
      vertex 18.9785 -24.4056 9.25075
    endloop
  endfacet
  facet normal -0.910453 -0.406622 -0.075727
    outer loop
      vertex 18.9913 -24.4199 9.17281
      vertex 18.9848 -24.4199 9.25128
      vertex 18.9785 -24.4056 9.25075
    endloop
  endfacet
  facet normal 0.082874 6.99159e-6 -0.99656
    outer loop
      vertex 19.0171 -24.3881 9.17495
      vertex 19.0202 -24.3989 9.17521
      vertex 18.985 -24.4056 9.17228
    endloop
  endfacet
  facet normal -0.0828889 0 0.996559
    outer loop
      vertex 19.024 -24.3996 9.20516
      vertex 19.0535 -24.4166 9.20761
      vertex 19.024 -24.3655 9.20516
    endloop
  endfacet
  facet normal -0.0828889 0 0.996559
    outer loop
      vertex 19.0535 -24.4166 9.20761
      vertex 19.0829 -24.3996 9.21005
      vertex 19.024 -24.3655 9.20516
    endloop
  endfacet
  facet normal -0.0828889 0 0.996559
    outer loop
      vertex 19.024 -24.3655 9.20516
      vertex 19.0829 -24.3996 9.21005
      vertex 19.0535 -24.3484 9.20761
    endloop
  endfacet
  facet normal -0.0828889 0 0.996559
    outer loop
      vertex 19.0829 -24.3996 9.21005
      vertex 19.0829 -24.3655 9.21005
      vertex 19.0535 -24.3484 9.20761
    endloop
  endfacet
  facet normal -0.806164 -0.587883 -0.0670344
    outer loop
      vertex 18.994 -24.4326 9.25204
      vertex 18.9848 -24.4199 9.25128
      vertex 19.0005 -24.4326 9.17357
    endloop
  endfacet
  facet normal -0.806216 -0.587809 -0.0670571
    outer loop
      vertex 18.9848 -24.4199 9.25128
      vertex 18.9913 -24.4199 9.17281
      vertex 19.0005 -24.4326 9.17357
    endloop
  endfacet
  facet normal -0.082838 -5.65764e-5 0.996563
    outer loop
      vertex 18.9848 -24.4199 9.25128
      vertex 18.994 -24.4326 9.25204
      vertex 19.02 -24.3996 9.2542
    endloop
  endfacet
  facet normal -0.082838 5.65705e-5 0.996563
    outer loop
      vertex 18.994 -24.3325 9.25204
      vertex 18.9848 -24.3451 9.25128
      vertex 19.02 -24.3655 9.2542
    endloop
  endfacet
  facet normal -0.0829347 -1.9999e-5 0.996555
    outer loop
      vertex 19.0056 -24.322 9.25301
      vertex 18.994 -24.3325 9.25204
      vertex 19.02 -24.3655 9.2542
    endloop
  endfacet
  facet normal -0.996559 0 -0.0828889
    outer loop
      vertex 19.0829 -24.3996 9.21005
      vertex 19.0788 -24.3996 9.2591
      vertex 19.0829 -24.3655 9.21005
    endloop
  endfacet
  facet normal -0.996559 0 -0.0828889
    outer loop
      vertex 19.0788 -24.3996 9.2591
      vertex 19.0788 -24.3655 9.2591
      vertex 19.0829 -24.3655 9.21005
    endloop
  endfacet
  facet normal -0.0828668 0 0.996561
    outer loop
      vertex 19.0788 -24.3655 9.2591
      vertex 19.0788 -24.3996 9.2591
      vertex 19.1235 -24.3747 9.26282
    endloop
  endfacet
  facet normal -0.0828668 0 0.996561
    outer loop
      vertex 19.0788 -24.3996 9.2591
      vertex 19.1235 -24.3903 9.26282
      vertex 19.1235 -24.3747 9.26282
    endloop
  endfacet
  facet normal -0.0828632 3.82178e-6 0.996561
    outer loop
      vertex 19.0932 -24.443 9.26029
      vertex 19.1048 -24.4326 9.26126
      vertex 19.0788 -24.3996 9.2591
    endloop
  endfacet
  facet normal -0.0828727 -3.69909e-6 0.99656
    outer loop
      vertex 19.1048 -24.4326 9.26126
      vertex 19.1139 -24.4199 9.26202
      vertex 19.0788 -24.3996 9.2591
    endloop
  endfacet
  facet normal -0.0829014 -5.35471e-5 0.996558
    outer loop
      vertex 19.0788 -24.3996 9.2591
      vertex 19.1139 -24.4199 9.26202
      vertex 19.1203 -24.4056 9.26255
    endloop
  endfacet
  facet normal 0.996559 0 0.0828898
    outer loop
      vertex 19.1235 -24.3747 9.26282
      vertex 19.1235 -24.3903 9.26282
      vertex 19.13 -24.3747 9.18435
    endloop
  endfacet
  facet normal 0.996559 0 0.0828898
    outer loop
      vertex 19.1235 -24.3903 9.26282
      vertex 19.13 -24.3903 9.18435
      vertex 19.13 -24.3747 9.18435
    endloop
  endfacet
  facet normal 0.9748 0.207823 0.0810791
    outer loop
      vertex 19.1203 -24.3594 9.26255
      vertex 19.1235 -24.3747 9.26282
      vertex 19.1268 -24.3594 9.18408
    endloop
  endfacet
  facet normal 0.974799 0.207828 0.08108
    outer loop
      vertex 19.1235 -24.3747 9.26282
      vertex 19.13 -24.3747 9.18435
      vertex 19.1268 -24.3594 9.18408
    endloop
  endfacet
  facet normal -0.0828825 -7.64778e-5 0.996559
    outer loop
      vertex 19.1235 -24.3747 9.26282
      vertex 19.1203 -24.3594 9.26255
      vertex 19.0788 -24.3655 9.2591
    endloop
  endfacet
  facet normal -0.0829014 5.35526e-5 0.996558
    outer loop
      vertex 19.1203 -24.3594 9.26255
      vertex 19.1139 -24.3451 9.26202
      vertex 19.0788 -24.3655 9.2591
    endloop
  endfacet
  facet normal -0.0828727 3.6987e-6 0.99656
    outer loop
      vertex 19.0788 -24.3655 9.2591
      vertex 19.1139 -24.3451 9.26202
      vertex 19.1048 -24.3325 9.26126
    endloop
  endfacet
  facet normal -0.0828825 7.64966e-5 0.996559
    outer loop
      vertex 19.1203 -24.4056 9.26255
      vertex 19.1235 -24.3903 9.26282
      vertex 19.0788 -24.3996 9.2591
    endloop
  endfacet
  facet normal 0.97479 -0.207872 0.0810792
    outer loop
      vertex 19.1235 -24.3903 9.26282
      vertex 19.1203 -24.4056 9.26255
      vertex 19.13 -24.3903 9.18435
    endloop
  endfacet
  facet normal 0.974789 -0.207877 0.0810782
    outer loop
      vertex 19.1203 -24.4056 9.26255
      vertex 19.1268 -24.4056 9.18408
      vertex 19.13 -24.3903 9.18435
    endloop
  endfacet
  facet normal 0.910407 -0.406725 0.0757232
    outer loop
      vertex 19.1203 -24.4056 9.26255
      vertex 19.1139 -24.4199 9.26202
      vertex 19.1268 -24.4056 9.18408
    endloop
  endfacet
  facet normal 0.910366 -0.40682 0.0756991
    outer loop
      vertex 19.1139 -24.4199 9.26202
      vertex 19.1205 -24.4199 9.18355
      vertex 19.1268 -24.4056 9.18408
    endloop
  endfacet
  facet normal 0.806257 0.587752 0.0670605
    outer loop
      vertex 19.1048 -24.3325 9.26126
      vertex 19.1139 -24.3451 9.26202
      vertex 19.1113 -24.3325 9.18279
    endloop
  endfacet
  facet normal 0.806312 0.587678 0.0670468
    outer loop
      vertex 19.1139 -24.3451 9.26202
      vertex 19.1205 -24.3451 9.18355
      vertex 19.1113 -24.3325 9.18279
    endloop
  endfacet
  facet normal 0.910389 0.406769 0.075701
    outer loop
      vertex 19.1139 -24.3451 9.26202
      vertex 19.1203 -24.3594 9.26255
      vertex 19.1205 -24.3451 9.18355
    endloop
  endfacet
  facet normal 0.910345 0.406864 0.075718
    outer loop
      vertex 19.1203 -24.3594 9.26255
      vertex 19.1268 -24.3594 9.18408
      vertex 19.1205 -24.3451 9.18355
    endloop
  endfacet
  facet normal 0.0828663 1.23551e-5 -0.996561
    outer loop
      vertex 19.1268 -24.3594 9.18408
      vertex 19.13 -24.3747 9.18435
      vertex 19.0947 -24.3769 9.18141
    endloop
  endfacet
  facet normal 0.0828671 0 -0.996561
    outer loop
      vertex 19.13 -24.3747 9.18435
      vertex 19.0947 -24.3881 9.18141
      vertex 19.0947 -24.3769 9.18141
    endloop
  endfacet
  facet normal 0.0828671 0 -0.996561
    outer loop
      vertex 19.13 -24.3747 9.18435
      vertex 19.13 -24.3903 9.18435
      vertex 19.0947 -24.3881 9.18141
    endloop
  endfacet
  facet normal 0.0828663 -1.23581e-5 -0.996561
    outer loop
      vertex 19.13 -24.3903 9.18435
      vertex 19.1268 -24.4056 9.18408
      vertex 19.0947 -24.3881 9.18141
    endloop
  endfacet
  facet normal 0.0829169 8.10347e-5 -0.996556
    outer loop
      vertex 19.0947 -24.3881 9.18141
      vertex 19.1268 -24.4056 9.18408
      vertex 19.0916 -24.3989 9.18115
    endloop
  endfacet
  facet normal 0.082917 -8.10202e-5 -0.996556
    outer loop
      vertex 19.0947 -24.3769 9.18141
      vertex 19.0916 -24.3662 9.18115
      vertex 19.1268 -24.3594 9.18408
    endloop
  endfacet
endsolid Onshape
