solid Onshape
  facet normal -0.995733 0 -0.092284
    outer loop
      vertex 18.0406 -29.6968 9.00961
      vertex 18.0331 -29.6968 9.09
      vertex 18.0406 -28.6968 9.00961
    endloop
  endfacet
  facet normal -0.995733 0 -0.092284
    outer loop
      vertex 18.0331 -29.6968 9.09
      vertex 18.0331 -28.6968 9.09
      vertex 18.0406 -28.6968 9.00961
    endloop
  endfacet
  facet normal 0 -1 0
    outer loop
      vertex 18.0331 -29.6968 9.09
      vertex 18.0406 -29.6968 9.00961
      vertex 18.1019 -29.6968 9.01665
    endloop
  endfacet
  facet normal 0 -1 0
    outer loop
      vertex 18.0406 -29.6968 9.00961
      vertex 18.1233 -29.6968 8.94611
      vertex 18.1019 -29.6968 9.01665
    endloop
  endfacet
  facet normal 0 -1 0
    outer loop
      vertex 18.0406 -29.6968 9.17039
      vertex 18.0331 -29.6968 9.09
      vertex 18.0946 -29.6968 9.09
    endloop
  endfacet
  facet normal 0 -1 0
    outer loop
      vertex 18.0331 -29.6968 9.09
      vertex 18.1019 -29.6968 9.01665
      vertex 18.0946 -29.6968 9.09
    endloop
  endfacet
  facet normal -0.995733 0 0.0922851
    outer loop
      vertex 18.0331 -29.6968 9.09
      vertex 18.0406 -29.6968 9.17039
      vertex 18.0331 -28.6968 9.09
    endloop
  endfacet
  facet normal -0.995733 0 0.0922851
    outer loop
      vertex 18.0406 -29.6968 9.17039
      vertex 18.0406 -28.6968 9.17039
      vertex 18.0331 -28.6968 9.09
    endloop
  endfacet
  facet normal 0 1 0
    outer loop
      vertex 18.0331 -28.6968 9.09
      vertex 18.0406 -28.6968 9.17039
      vertex 18.1019 -28.6968 9.16335
    endloop
  endfacet
  facet normal 0 1 0
    outer loop
      vertex 18.0406 -28.6968 9.17039
      vertex 18.1233 -28.6968 9.23389
      vertex 18.1019 -28.6968 9.16335
    endloop
  endfacet
  facet normal 0 1 0
    outer loop
      vertex 18.0406 -28.6968 9.00961
      vertex 18.0331 -28.6968 9.09
      vertex 18.0946 -28.6968 9.09
    endloop
  endfacet
  facet normal 0 1 0
    outer loop
      vertex 18.0331 -28.6968 9.09
      vertex 18.1019 -28.6968 9.16335
      vertex 18.0946 -28.6968 9.09
    endloop
  endfacet
  facet normal 0 1 0
    outer loop
      vertex 18.0627 -28.6968 8.93196
      vertex 18.0406 -28.6968 9.00961
      vertex 18.1019 -28.6968 9.01665
    endloop
  endfacet
  facet normal 0 1 0
    outer loop
      vertex 18.0406 -28.6968 9.00961
      vertex 18.0946 -28.6968 9.09
      vertex 18.1019 -28.6968 9.01665
    endloop
  endfacet
  facet normal -0.96183 0 -0.273648
    outer loop
      vertex 18.0406 -28.6968 9.00961
      vertex 18.0627 -28.6968 8.93196
      vertex 18.0406 -29.6968 9.00961
    endloop
  endfacet
  facet normal -0.96183 0 -0.273648
    outer loop
      vertex 18.0627 -28.6968 8.93196
      vertex 18.0627 -29.6968 8.93196
      vertex 18.0406 -29.6968 9.00961
    endloop
  endfacet
  facet normal 0 -1 0
    outer loop
      vertex 18.0627 -29.6968 9.24804
      vertex 18.0406 -29.6968 9.17039
      vertex 18.1019 -29.6968 9.16335
    endloop
  endfacet
  facet normal 0 -1 0
    outer loop
      vertex 18.0406 -29.6968 9.17039
      vertex 18.0946 -29.6968 9.09
      vertex 18.1019 -29.6968 9.16335
    endloop
  endfacet
  facet normal -0.961831 0 0.273645
    outer loop
      vertex 18.0406 -29.6968 9.17039
      vertex 18.0627 -29.6968 9.24804
      vertex 18.0406 -28.6968 9.17039
    endloop
  endfacet
  facet normal -0.961831 0 0.273645
    outer loop
      vertex 18.0627 -29.6968 9.24804
      vertex 18.0627 -28.6968 9.24804
      vertex 18.0406 -28.6968 9.17039
    endloop
  endfacet
  facet normal 0 -1 0
    outer loop
      vertex 18.0406 -29.6968 9.00961
      vertex 18.0627 -29.6968 8.93196
      vertex 18.1233 -29.6968 8.94611
    endloop
  endfacet
  facet normal 0 -1 0
    outer loop
      vertex 18.0627 -29.6968 8.93196
      vertex 18.158 -29.6968 8.88111
      vertex 18.1233 -29.6968 8.94611
    endloop
  endfacet
  facet normal 0.995184 0 0.0980237
    outer loop
      vertex 18.0946 -29.6968 9.09
      vertex 18.1019 -29.6968 9.01665
      vertex 18.1019 -28.6968 9.01665
    endloop
  endfacet
  facet normal 0.956942 0 0.290278
    outer loop
      vertex 18.1019 -29.6968 9.01665
      vertex 18.1233 -28.6968 8.94611
      vertex 18.1019 -28.6968 9.01665
    endloop
  endfacet
  facet normal 0.995184 0 -0.0980237
    outer loop
      vertex 18.1019 -29.6968 9.16335
      vertex 18.0946 -29.6968 9.09
      vertex 18.0946 -28.6968 9.09
    endloop
  endfacet
  facet normal 0.995184 0 0.0980237
    outer loop
      vertex 18.0946 -29.6968 9.09
      vertex 18.1019 -28.6968 9.01665
      vertex 18.0946 -28.6968 9.09
    endloop
  endfacet
  facet normal 0.956942 0 0.290278
    outer loop
      vertex 18.1019 -29.6968 9.01665
      vertex 18.1233 -29.6968 8.94611
      vertex 18.1233 -28.6968 8.94611
    endloop
  endfacet
  facet normal 0.881913 0 0.471413
    outer loop
      vertex 18.1233 -29.6968 8.94611
      vertex 18.158 -28.6968 8.88111
      vertex 18.1233 -28.6968 8.94611
    endloop
  endfacet
  facet normal 0.995184 0 -0.0980237
    outer loop
      vertex 18.0946 -28.6968 9.09
      vertex 18.1019 -28.6968 9.16335
      vertex 18.1019 -29.6968 9.16335
    endloop
  endfacet
  facet normal 0.956941 0 -0.290282
    outer loop
      vertex 18.1019 -28.6968 9.16335
      vertex 18.1233 -29.6968 9.23389
      vertex 18.1019 -29.6968 9.16335
    endloop
  endfacet
  facet normal 0 1 0
    outer loop
      vertex 18.0406 -28.6968 9.17039
      vertex 18.0627 -28.6968 9.24804
      vertex 18.1233 -28.6968 9.23389
    endloop
  endfacet
  facet normal 0 1 0
    outer loop
      vertex 18.0627 -28.6968 9.24804
      vertex 18.158 -28.6968 9.29889
      vertex 18.1233 -28.6968 9.23389
    endloop
  endfacet
  facet normal 0.956941 0 -0.290282
    outer loop
      vertex 18.1019 -28.6968 9.16335
      vertex 18.1233 -28.6968 9.23389
      vertex 18.1233 -29.6968 9.23389
    endloop
  endfacet
  facet normal 0.881913 0 -0.471413
    outer loop
      vertex 18.1233 -28.6968 9.23389
      vertex 18.158 -29.6968 9.29889
      vertex 18.1233 -29.6968 9.23389
    endloop
  endfacet
  facet normal 0 1 0
    outer loop
      vertex 18.0987 -28.6968 8.85969
      vertex 18.0627 -28.6968 8.93196
      vertex 18.1233 -28.6968 8.94611
    endloop
  endfacet
  facet normal 0 1 0
    outer loop
      vertex 18.0627 -28.6968 8.93196
      vertex 18.1019 -28.6968 9.01665
      vertex 18.1233 -28.6968 8.94611
    endloop
  endfacet
  facet normal -0.895155 0 -0.445755
    outer loop
      vertex 18.0627 -28.6968 8.93196
      vertex 18.0987 -28.6968 8.85969
      vertex 18.0627 -29.6968 8.93196
    endloop
  endfacet
  facet normal -0.895155 0 -0.445755
    outer loop
      vertex 18.0987 -28.6968 8.85969
      vertex 18.0987 -29.6968 8.85969
      vertex 18.0627 -29.6968 8.93196
    endloop
  endfacet
  facet normal 0 -1 0
    outer loop
      vertex 18.1019 -29.6968 9.16335
      vertex 18.1233 -29.6968 9.23389
      vertex 18.0627 -29.6968 9.24804
    endloop
  endfacet
  facet normal 0 -1 0
    outer loop
      vertex 18.1233 -29.6968 9.23389
      vertex 18.0987 -29.6968 9.32031
      vertex 18.0627 -29.6968 9.24804
    endloop
  endfacet
  facet normal -0.895155 0 0.445755
    outer loop
      vertex 18.0627 -29.6968 9.24804
      vertex 18.0987 -29.6968 9.32031
      vertex 18.0627 -28.6968 9.24804
    endloop
  endfacet
  facet normal -0.895155 0 0.445755
    outer loop
      vertex 18.0987 -29.6968 9.32031
      vertex 18.0987 -28.6968 9.32031
      vertex 18.0627 -28.6968 9.24804
    endloop
  endfacet
  facet normal 0.881913 0 0.471413
    outer loop
      vertex 18.1233 -29.6968 8.94611
      vertex 18.158 -29.6968 8.88111
      vertex 18.158 -28.6968 8.88111
    endloop
  endfacet
  facet normal 0.773012 0 0.634391
    outer loop
      vertex 18.158 -29.6968 8.88111
      vertex 18.2048 -28.6968 8.82413
      vertex 18.158 -28.6968 8.88111
    endloop
  endfacet
  facet normal 0 -1 0
    outer loop
      vertex 18.0627 -29.6968 8.93196
      vertex 18.0987 -29.6968 8.85969
      vertex 18.158 -29.6968 8.88111
    endloop
  endfacet
  facet normal 0 -1 0
    outer loop
      vertex 18.0987 -29.6968 8.85969
      vertex 18.2048 -29.6968 8.82413
      vertex 18.158 -29.6968 8.88111
    endloop
  endfacet
  facet normal 0 1 0
    outer loop
      vertex 18.1233 -28.6968 8.94611
      vertex 18.158 -28.6968 8.88111
      vertex 18.0987 -28.6968 8.85969
    endloop
  endfacet
  facet normal 0 1 0
    outer loop
      vertex 18.158 -28.6968 8.88111
      vertex 18.1473 -28.6968 8.79526
      vertex 18.0987 -28.6968 8.85969
    endloop
  endfacet
  facet normal 0.881913 0 -0.471413
    outer loop
      vertex 18.1233 -28.6968 9.23389
      vertex 18.158 -28.6968 9.29889
      vertex 18.158 -29.6968 9.29889
    endloop
  endfacet
  facet normal 0.773017 0 -0.634385
    outer loop
      vertex 18.158 -28.6968 9.29889
      vertex 18.2048 -29.6968 9.35587
      vertex 18.158 -29.6968 9.29889
    endloop
  endfacet
  facet normal 0 1 0
    outer loop
      vertex 18.0627 -28.6968 9.24804
      vertex 18.0987 -28.6968 9.32031
      vertex 18.158 -28.6968 9.29889
    endloop
  endfacet
  facet normal 0 1 0
    outer loop
      vertex 18.0987 -28.6968 9.32031
      vertex 18.2048 -28.6968 9.35587
      vertex 18.158 -28.6968 9.29889
    endloop
  endfacet
  facet normal 0 -1 0
    outer loop
      vertex 18.1233 -29.6968 9.23389
      vertex 18.158 -29.6968 9.29889
      vertex 18.0987 -29.6968 9.32031
    endloop
  endfacet
  facet normal 0 -1 0
    outer loop
      vertex 18.158 -29.6968 9.29889
      vertex 18.1473 -29.6968 9.38474
      vertex 18.0987 -29.6968 9.32031
    endloop
  endfacet
  facet normal -0.798022 0 -0.602629
    outer loop
      vertex 18.0987 -28.6968 8.85969
      vertex 18.1473 -28.6968 8.79526
      vertex 18.0987 -29.6968 8.85969
    endloop
  endfacet
  facet normal -0.798022 0 -0.602629
    outer loop
      vertex 18.1473 -28.6968 8.79526
      vertex 18.1473 -29.6968 8.79526
      vertex 18.0987 -29.6968 8.85969
    endloop
  endfacet
  facet normal -0.798026 0 0.602623
    outer loop
      vertex 18.0987 -29.6968 9.32031
      vertex 18.1473 -29.6968 9.38474
      vertex 18.0987 -28.6968 9.32031
    endloop
  endfacet
  facet normal -0.798026 0 0.602623
    outer loop
      vertex 18.1473 -29.6968 9.38474
      vertex 18.1473 -28.6968 9.38474
      vertex 18.0987 -28.6968 9.32031
    endloop
  endfacet
  facet normal 0.773012 0 0.634391
    outer loop
      vertex 18.158 -29.6968 8.88111
      vertex 18.2048 -29.6968 8.82413
      vertex 18.2048 -28.6968 8.82413
    endloop
  endfacet
  facet normal 0.634397 0 0.773007
    outer loop
      vertex 18.2048 -29.6968 8.82413
      vertex 18.2618 -28.6968 8.77737
      vertex 18.2048 -28.6968 8.82413
    endloop
  endfacet
  facet normal 0 1 0
    outer loop
      vertex 18.158 -28.6968 8.88111
      vertex 18.2048 -28.6968 8.82413
      vertex 18.1473 -28.6968 8.79526
    endloop
  endfacet
  facet normal 0 1 0
    outer loop
      vertex 18.2048 -28.6968 8.82413
      vertex 18.207 -28.6968 8.74087
      vertex 18.1473 -28.6968 8.79526
    endloop
  endfacet
  facet normal 0 -1 0
    outer loop
      vertex 18.0987 -29.6968 8.85969
      vertex 18.1473 -29.6968 8.79526
      vertex 18.2048 -29.6968 8.82413
    endloop
  endfacet
  facet normal 0 -1 0
    outer loop
      vertex 18.1473 -29.6968 8.79526
      vertex 18.2618 -29.6968 8.77737
      vertex 18.2048 -29.6968 8.82413
    endloop
  endfacet
  facet normal 0.773017 0 -0.634385
    outer loop
      vertex 18.158 -28.6968 9.29889
      vertex 18.2048 -28.6968 9.35587
      vertex 18.2048 -29.6968 9.35587
    endloop
  endfacet
  facet normal 0.634405 0 -0.773001
    outer loop
      vertex 18.2048 -28.6968 9.35587
      vertex 18.2618 -29.6968 9.40263
      vertex 18.2048 -29.6968 9.35587
    endloop
  endfacet
  facet normal 0 -1 0
    outer loop
      vertex 18.158 -29.6968 9.29889
      vertex 18.2048 -29.6968 9.35587
      vertex 18.1473 -29.6968 9.38474
    endloop
  endfacet
  facet normal 0 -1 0
    outer loop
      vertex 18.2048 -29.6968 9.35587
      vertex 18.207 -29.6968 9.43913
      vertex 18.1473 -29.6968 9.38474
    endloop
  endfacet
  facet normal 0 1 0
    outer loop
      vertex 18.0987 -28.6968 9.32031
      vertex 18.1473 -28.6968 9.38474
      vertex 18.2048 -28.6968 9.35587
    endloop
  endfacet
  facet normal 0 1 0
    outer loop
      vertex 18.1473 -28.6968 9.38474
      vertex 18.2618 -28.6968 9.40263
      vertex 18.2048 -28.6968 9.35587
    endloop
  endfacet
  facet normal -0.673695 0 -0.739009
    outer loop
      vertex 18.1473 -28.6968 8.79526
      vertex 18.207 -28.6968 8.74087
      vertex 18.1473 -29.6968 8.79526
    endloop
  endfacet
  facet normal -0.673695 0 -0.739009
    outer loop
      vertex 18.207 -28.6968 8.74087
      vertex 18.207 -29.6968 8.74087
      vertex 18.1473 -29.6968 8.79526
    endloop
  endfacet
  facet normal -0.673695 0 0.739009
    outer loop
      vertex 18.1473 -29.6968 9.38474
      vertex 18.207 -29.6968 9.43913
      vertex 18.1473 -28.6968 9.38474
    endloop
  endfacet
  facet normal -0.673695 0 0.739009
    outer loop
      vertex 18.207 -29.6968 9.43913
      vertex 18.207 -28.6968 9.43913
      vertex 18.1473 -28.6968 9.38474
    endloop
  endfacet
  facet normal 0 -1 0
    outer loop
      vertex 18.2048 -29.6968 9.35587
      vertex 18.2618 -29.6968 9.40263
      vertex 18.207 -29.6968 9.43913
    endloop
  endfacet
  facet normal 0 -1 0
    outer loop
      vertex 18.2618 -29.6968 9.40263
      vertex 18.2756 -29.6968 9.48163
      vertex 18.207 -29.6968 9.43913
    endloop
  endfacet
  facet normal 0.634405 0 -0.773001
    outer loop
      vertex 18.2048 -28.6968 9.35587
      vertex 18.2618 -28.6968 9.40263
      vertex 18.2618 -29.6968 9.40263
    endloop
  endfacet
  facet normal 0.471388 0 -0.881926
    outer loop
      vertex 18.2618 -28.6968 9.40263
      vertex 18.3268 -29.6968 9.43738
      vertex 18.2618 -29.6968 9.40263
    endloop
  endfacet
  facet normal 0 1 0
    outer loop
      vertex 18.1473 -28.6968 9.38474
      vertex 18.207 -28.6968 9.43913
      vertex 18.2618 -28.6968 9.40263
    endloop
  endfacet
  facet normal 0 1 0
    outer loop
      vertex 18.207 -28.6968 9.43913
      vertex 18.3268 -28.6968 9.43738
      vertex 18.2618 -28.6968 9.40263
    endloop
  endfacet
  facet normal 0 1 0
    outer loop
      vertex 18.2048 -28.6968 8.82413
      vertex 18.2618 -28.6968 8.77737
      vertex 18.207 -28.6968 8.74087
    endloop
  endfacet
  facet normal 0 1 0
    outer loop
      vertex 18.2618 -28.6968 8.77737
      vertex 18.2756 -28.6968 8.69837
      vertex 18.207 -28.6968 8.74087
    endloop
  endfacet
  facet normal 0.634397 0 0.773007
    outer loop
      vertex 18.2048 -29.6968 8.82413
      vertex 18.2618 -29.6968 8.77737
      vertex 18.2618 -28.6968 8.77737
    endloop
  endfacet
  facet normal 0.471398 0 0.881921
    outer loop
      vertex 18.2618 -29.6968 8.77737
      vertex 18.3268 -28.6968 8.74262
      vertex 18.2618 -28.6968 8.77737
    endloop
  endfacet
  facet normal 0 -1 0
    outer loop
      vertex 18.1473 -29.6968 8.79526
      vertex 18.207 -29.6968 8.74087
      vertex 18.2618 -29.6968 8.77737
    endloop
  endfacet
  facet normal 0 -1 0
    outer loop
      vertex 18.207 -29.6968 8.74087
      vertex 18.3268 -29.6968 8.74262
      vertex 18.2618 -29.6968 8.77737
    endloop
  endfacet
  facet normal -0.526417 0 -0.850227
    outer loop
      vertex 18.207 -28.6968 8.74087
      vertex 18.2756 -28.6968 8.69837
      vertex 18.207 -29.6968 8.74087
    endloop
  endfacet
  facet normal -0.526417 0 -0.850227
    outer loop
      vertex 18.2756 -28.6968 8.69837
      vertex 18.2756 -29.6968 8.69837
      vertex 18.207 -29.6968 8.74087
    endloop
  endfacet
  facet normal 0 1 0
    outer loop
      vertex 18.2618 -28.6968 8.77737
      vertex 18.3268 -28.6968 8.74262
      vertex 18.2756 -28.6968 8.69837
    endloop
  endfacet
  facet normal 0 1 0
    outer loop
      vertex 18.3268 -28.6968 8.74262
      vertex 18.3509 -28.6968 8.6692
      vertex 18.2756 -28.6968 8.69837
    endloop
  endfacet
  facet normal 0.471398 0 0.881921
    outer loop
      vertex 18.2618 -29.6968 8.77737
      vertex 18.3268 -29.6968 8.74262
      vertex 18.3268 -28.6968 8.74262
    endloop
  endfacet
  facet normal 0.290275 0 0.956943
    outer loop
      vertex 18.3268 -29.6968 8.74262
      vertex 18.3973 -28.6968 8.72122
      vertex 18.3268 -28.6968 8.74262
    endloop
  endfacet
  facet normal 0 -1 0
    outer loop
      vertex 18.207 -29.6968 8.74087
      vertex 18.2756 -29.6968 8.69837
      vertex 18.3268 -29.6968 8.74262
    endloop
  endfacet
  facet normal 0 -1 0
    outer loop
      vertex 18.2756 -29.6968 8.69837
      vertex 18.3973 -29.6968 8.72122
      vertex 18.3268 -29.6968 8.74262
    endloop
  endfacet
  facet normal -0.526417 0 0.850227
    outer loop
      vertex 18.207 -29.6968 9.43913
      vertex 18.2756 -29.6968 9.48163
      vertex 18.207 -28.6968 9.43913
    endloop
  endfacet
  facet normal -0.526417 0 0.850227
    outer loop
      vertex 18.2756 -29.6968 9.48163
      vertex 18.2756 -28.6968 9.48163
      vertex 18.207 -28.6968 9.43913
    endloop
  endfacet
  facet normal 0 -1 0
    outer loop
      vertex 18.2618 -29.6968 9.40263
      vertex 18.3268 -29.6968 9.43738
      vertex 18.2756 -29.6968 9.48163
    endloop
  endfacet
  facet normal 0 -1 0
    outer loop
      vertex 18.3268 -29.6968 9.43738
      vertex 18.3509 -29.6968 9.5108
      vertex 18.2756 -29.6968 9.48163
    endloop
  endfacet
  facet normal 0.471388 0 -0.881926
    outer loop
      vertex 18.2618 -28.6968 9.40263
      vertex 18.3268 -28.6968 9.43738
      vertex 18.3268 -29.6968 9.43738
    endloop
  endfacet
  facet normal 0.290286 0 -0.95694
    outer loop
      vertex 18.3268 -28.6968 9.43738
      vertex 18.3973 -29.6968 9.45878
      vertex 18.3268 -29.6968 9.43738
    endloop
  endfacet
  facet normal 0 1 0
    outer loop
      vertex 18.207 -28.6968 9.43913
      vertex 18.2756 -28.6968 9.48163
      vertex 18.3268 -28.6968 9.43738
    endloop
  endfacet
  facet normal 0 1 0
    outer loop
      vertex 18.2756 -28.6968 9.48163
      vertex 18.3973 -28.6968 9.45878
      vertex 18.3268 -28.6968 9.43738
    endloop
  endfacet
  facet normal -0.361249 0 -0.932469
    outer loop
      vertex 18.2756 -28.6968 8.69837
      vertex 18.3509 -28.6968 8.6692
      vertex 18.2756 -29.6968 8.69837
    endloop
  endfacet
  facet normal -0.361249 0 -0.932469
    outer loop
      vertex 18.3509 -28.6968 8.6692
      vertex 18.3509 -29.6968 8.6692
      vertex 18.2756 -29.6968 8.69837
    endloop
  endfacet
  facet normal 0 1 0
    outer loop
      vertex 18.3268 -28.6968 8.74262
      vertex 18.3973 -28.6968 8.72122
      vertex 18.3509 -28.6968 8.6692
    endloop
  endfacet
  facet normal 0 1 0
    outer loop
      vertex 18.3973 -28.6968 8.72122
      vertex 18.4303 -28.6968 8.65437
      vertex 18.3509 -28.6968 8.6692
    endloop
  endfacet
  facet normal 0.290275 0 0.956943
    outer loop
      vertex 18.3268 -29.6968 8.74262
      vertex 18.3973 -29.6968 8.72122
      vertex 18.3973 -28.6968 8.72122
    endloop
  endfacet
  facet normal 0.0980249 0 0.995184
    outer loop
      vertex 18.3973 -29.6968 8.72122
      vertex 18.4706 -28.6968 8.714
      vertex 18.3973 -28.6968 8.72122
    endloop
  endfacet
  facet normal 0 -1 0
    outer loop
      vertex 18.2756 -29.6968 8.69837
      vertex 18.3509 -29.6968 8.6692
      vertex 18.3973 -29.6968 8.72122
    endloop
  endfacet
  facet normal 0 -1 0
    outer loop
      vertex 18.3509 -29.6968 8.6692
      vertex 18.4706 -29.6968 8.714
      vertex 18.3973 -29.6968 8.72122
    endloop
  endfacet
  facet normal -0.361239 0 0.932473
    outer loop
      vertex 18.2756 -29.6968 9.48163
      vertex 18.3509 -29.6968 9.5108
      vertex 18.2756 -28.6968 9.48163
    endloop
  endfacet
  facet normal -0.361239 0 0.932473
    outer loop
      vertex 18.3509 -29.6968 9.5108
      vertex 18.3509 -28.6968 9.5108
      vertex 18.2756 -28.6968 9.48163
    endloop
  endfacet
  facet normal 0 -1 0
    outer loop
      vertex 18.3268 -29.6968 9.43738
      vertex 18.3973 -29.6968 9.45878
      vertex 18.3509 -29.6968 9.5108
    endloop
  endfacet
  facet normal 0 -1 0
    outer loop
      vertex 18.3973 -29.6968 9.45878
      vertex 18.4303 -29.6968 9.52563
      vertex 18.3509 -29.6968 9.5108
    endloop
  endfacet
  facet normal 0.290286 0 -0.95694
    outer loop
      vertex 18.3268 -28.6968 9.43738
      vertex 18.3973 -28.6968 9.45878
      vertex 18.3973 -29.6968 9.45878
    endloop
  endfacet
  facet normal 0.0980124 0 -0.995185
    outer loop
      vertex 18.3973 -28.6968 9.45878
      vertex 18.4706 -29.6968 9.466
      vertex 18.3973 -29.6968 9.45878
    endloop
  endfacet
  facet normal 0 1 0
    outer loop
      vertex 18.2756 -28.6968 9.48163
      vertex 18.3509 -28.6968 9.5108
      vertex 18.3973 -28.6968 9.45878
    endloop
  endfacet
  facet normal 0 1 0
    outer loop
      vertex 18.3509 -28.6968 9.5108
      vertex 18.4706 -28.6968 9.466
      vertex 18.3973 -28.6968 9.45878
    endloop
  endfacet
  facet normal -0.183751 0 -0.982973
    outer loop
      vertex 18.3509 -28.6968 8.6692
      vertex 18.4303 -28.6968 8.65437
      vertex 18.3509 -29.6968 8.6692
    endloop
  endfacet
  facet normal -0.183751 0 -0.982973
    outer loop
      vertex 18.4303 -28.6968 8.65437
      vertex 18.4303 -29.6968 8.65437
      vertex 18.3509 -29.6968 8.6692
    endloop
  endfacet
  facet normal 0 1 0
    outer loop
      vertex 18.3973 -28.6968 8.72122
      vertex 18.4706 -28.6968 8.714
      vertex 18.4303 -28.6968 8.65437
    endloop
  endfacet
  facet normal 0 1 0
    outer loop
      vertex 18.4706 -28.6968 8.714
      vertex 18.511 -28.6968 8.65437
      vertex 18.4303 -28.6968 8.65437
    endloop
  endfacet
  facet normal 0.0980249 0 0.995184
    outer loop
      vertex 18.3973 -29.6968 8.72122
      vertex 18.4706 -29.6968 8.714
      vertex 18.4706 -28.6968 8.714
    endloop
  endfacet
  facet normal -0.0980224 0 0.995184
    outer loop
      vertex 18.4706 -29.6968 8.714
      vertex 18.544 -28.6968 8.72122
      vertex 18.4706 -28.6968 8.714
    endloop
  endfacet
  facet normal 0 -1 0
    outer loop
      vertex 18.3509 -29.6968 8.6692
      vertex 18.4303 -29.6968 8.65437
      vertex 18.4706 -29.6968 8.714
    endloop
  endfacet
  facet normal 0 -1 0
    outer loop
      vertex 18.4303 -29.6968 8.65437
      vertex 18.511 -29.6968 8.65437
      vertex 18.4706 -29.6968 8.714
    endloop
  endfacet
  facet normal 0 -1 0
    outer loop
      vertex 18.4706 -29.6968 8.714
      vertex 18.511 -29.6968 8.65437
      vertex 18.544 -29.6968 8.72122
    endloop
  endfacet
  facet normal 0 -1 0
    outer loop
      vertex 18.511 -29.6968 8.65437
      vertex 18.5904 -29.6968 8.6692
      vertex 18.544 -29.6968 8.72122
    endloop
  endfacet
  facet normal 0 -1 0
    outer loop
      vertex 18.544 -29.6968 8.72122
      vertex 18.5904 -29.6968 8.6692
      vertex 18.6145 -29.6968 8.74262
    endloop
  endfacet
  facet normal 0 -1 0
    outer loop
      vertex 18.5904 -29.6968 8.6692
      vertex 18.6657 -29.6968 8.69837
      vertex 18.6145 -29.6968 8.74262
    endloop
  endfacet
  facet normal 0 -1 0
    outer loop
      vertex 18.6145 -29.6968 8.74262
      vertex 18.6657 -29.6968 8.69837
      vertex 18.6795 -29.6968 8.77737
    endloop
  endfacet
  facet normal 0 -1 0
    outer loop
      vertex 18.6657 -29.6968 8.69837
      vertex 18.7343 -29.6968 8.74087
      vertex 18.6795 -29.6968 8.77737
    endloop
  endfacet
  facet normal 0 -1 0
    outer loop
      vertex 18.6795 -29.6968 8.77737
      vertex 18.7343 -29.6968 8.74087
      vertex 18.7365 -29.6968 8.82413
    endloop
  endfacet
  facet normal 0 -1 0
    outer loop
      vertex 18.7343 -29.6968 8.74087
      vertex 18.794 -29.6968 8.79526
      vertex 18.7365 -29.6968 8.82413
    endloop
  endfacet
  facet normal 0 -1 0
    outer loop
      vertex 18.7365 -29.6968 8.82413
      vertex 18.794 -29.6968 8.79526
      vertex 18.7833 -29.6968 8.88111
    endloop
  endfacet
  facet normal 0 -1 0
    outer loop
      vertex 18.794 -29.6968 8.79526
      vertex 18.8426 -29.6968 8.85969
      vertex 18.7833 -29.6968 8.88111
    endloop
  endfacet
  facet normal 0 -1 0
    outer loop
      vertex 18.7833 -29.6968 8.88111
      vertex 18.8426 -29.6968 8.85969
      vertex 18.818 -29.6968 8.94611
    endloop
  endfacet
  facet normal 0 -1 0
    outer loop
      vertex 18.8426 -29.6968 8.85969
      vertex 18.8786 -29.6968 8.93196
      vertex 18.818 -29.6968 8.94611
    endloop
  endfacet
  facet normal 0 -1 0
    outer loop
      vertex 18.818 -29.6968 8.94611
      vertex 18.8786 -29.6968 8.93196
      vertex 18.8394 -29.6968 9.01665
    endloop
  endfacet
  facet normal 0 -1 0
    outer loop
      vertex 18.8786 -29.6968 8.93196
      vertex 18.9007 -29.6968 9.00961
      vertex 18.8394 -29.6968 9.01665
    endloop
  endfacet
  facet normal 0 -1 0
    outer loop
      vertex 18.8394 -29.6968 9.01665
      vertex 18.9007 -29.6968 9.00961
      vertex 18.8466 -29.6968 9.09
    endloop
  endfacet
  facet normal 0 -1 0
    outer loop
      vertex 18.9007 -29.6968 9.00961
      vertex 18.9081 -29.6968 9.09
      vertex 18.8466 -29.6968 9.09
    endloop
  endfacet
  facet normal 0 -1 0
    outer loop
      vertex 18.8466 -29.6968 9.09
      vertex 18.9081 -29.6968 9.09
      vertex 18.8394 -29.6968 9.16335
    endloop
  endfacet
  facet normal 0 -1 0
    outer loop
      vertex 18.9081 -29.6968 9.09
      vertex 18.9007 -29.6968 9.17039
      vertex 18.8394 -29.6968 9.16335
    endloop
  endfacet
  facet normal 0 -1 0
    outer loop
      vertex 18.8394 -29.6968 9.16335
      vertex 18.9007 -29.6968 9.17039
      vertex 18.818 -29.6968 9.23389
    endloop
  endfacet
  facet normal 0 -1 0
    outer loop
      vertex 18.9007 -29.6968 9.17039
      vertex 18.8786 -29.6968 9.24804
      vertex 18.818 -29.6968 9.23389
    endloop
  endfacet
  facet normal 0 -1 0
    outer loop
      vertex 18.818 -29.6968 9.23389
      vertex 18.8786 -29.6968 9.24804
      vertex 18.7833 -29.6968 9.29889
    endloop
  endfacet
  facet normal 0 -1 0
    outer loop
      vertex 18.8786 -29.6968 9.24804
      vertex 18.8426 -29.6968 9.32031
      vertex 18.7833 -29.6968 9.29889
    endloop
  endfacet
  facet normal 0 -1 0
    outer loop
      vertex 18.7833 -29.6968 9.29889
      vertex 18.8426 -29.6968 9.32031
      vertex 18.7365 -29.6968 9.35587
    endloop
  endfacet
  facet normal 0 -1 0
    outer loop
      vertex 18.8426 -29.6968 9.32031
      vertex 18.794 -29.6968 9.38474
      vertex 18.7365 -29.6968 9.35587
    endloop
  endfacet
  facet normal 0 -1 0
    outer loop
      vertex 18.7365 -29.6968 9.35587
      vertex 18.794 -29.6968 9.38474
      vertex 18.6795 -29.6968 9.40263
    endloop
  endfacet
  facet normal 0 -1 0
    outer loop
      vertex 18.794 -29.6968 9.38474
      vertex 18.7343 -29.6968 9.43913
      vertex 18.6795 -29.6968 9.40263
    endloop
  endfacet
  facet normal 0 -1 0
    outer loop
      vertex 18.6795 -29.6968 9.40263
      vertex 18.7343 -29.6968 9.43913
      vertex 18.6145 -29.6968 9.43738
    endloop
  endfacet
  facet normal 0 -1 0
    outer loop
      vertex 18.7343 -29.6968 9.43913
      vertex 18.6657 -29.6968 9.48163
      vertex 18.6145 -29.6968 9.43738
    endloop
  endfacet
  facet normal 0 -1 0
    outer loop
      vertex 18.6145 -29.6968 9.43738
      vertex 18.6657 -29.6968 9.48163
      vertex 18.544 -29.6968 9.45878
    endloop
  endfacet
  facet normal 0 -1 0
    outer loop
      vertex 18.6657 -29.6968 9.48163
      vertex 18.5904 -29.6968 9.5108
      vertex 18.544 -29.6968 9.45878
    endloop
  endfacet
  facet normal 0 -1 0
    outer loop
      vertex 18.544 -29.6968 9.45878
      vertex 18.5904 -29.6968 9.5108
      vertex 18.4706 -29.6968 9.466
    endloop
  endfacet
  facet normal 0 -1 0
    outer loop
      vertex 18.5904 -29.6968 9.5108
      vertex 18.511 -29.6968 9.52563
      vertex 18.4706 -29.6968 9.466
    endloop
  endfacet
  facet normal 0 -1 0
    outer loop
      vertex 18.4706 -29.6968 9.466
      vertex 18.511 -29.6968 9.52563
      vertex 18.4303 -29.6968 9.52563
    endloop
  endfacet
  facet normal -0.183751 0 0.982973
    outer loop
      vertex 18.3509 -29.6968 9.5108
      vertex 18.4303 -29.6968 9.52563
      vertex 18.3509 -28.6968 9.5108
    endloop
  endfacet
  facet normal -0.183751 0 0.982973
    outer loop
      vertex 18.4303 -29.6968 9.52563
      vertex 18.4303 -28.6968 9.52563
      vertex 18.3509 -28.6968 9.5108
    endloop
  endfacet
  facet normal 0 -1 0
    outer loop
      vertex 18.3973 -29.6968 9.45878
      vertex 18.4706 -29.6968 9.466
      vertex 18.4303 -29.6968 9.52563
    endloop
  endfacet
  facet normal 0.0980124 0 -0.995185
    outer loop
      vertex 18.3973 -28.6968 9.45878
      vertex 18.4706 -28.6968 9.466
      vertex 18.4706 -29.6968 9.466
    endloop
  endfacet
  facet normal -0.0980099 0 -0.995185
    outer loop
      vertex 18.4706 -28.6968 9.466
      vertex 18.544 -29.6968 9.45878
      vertex 18.4706 -29.6968 9.466
    endloop
  endfacet
  facet normal 0 1 0
    outer loop
      vertex 18.3509 -28.6968 9.5108
      vertex 18.4303 -28.6968 9.52563
      vertex 18.4706 -28.6968 9.466
    endloop
  endfacet
  facet normal 0 1 0
    outer loop
      vertex 18.4303 -28.6968 9.52563
      vertex 18.511 -28.6968 9.52563
      vertex 18.4706 -28.6968 9.466
    endloop
  endfacet
  facet normal 0 1 0
    outer loop
      vertex 18.4706 -28.6968 9.466
      vertex 18.511 -28.6968 9.52563
      vertex 18.544 -28.6968 9.45878
    endloop
  endfacet
  facet normal 0 1 0
    outer loop
      vertex 18.511 -28.6968 9.52563
      vertex 18.5904 -28.6968 9.5108
      vertex 18.544 -28.6968 9.45878
    endloop
  endfacet
  facet normal 0 1 0
    outer loop
      vertex 18.544 -28.6968 9.45878
      vertex 18.5904 -28.6968 9.5108
      vertex 18.6145 -28.6968 9.43738
    endloop
  endfacet
  facet normal 0 1 0
    outer loop
      vertex 18.5904 -28.6968 9.5108
      vertex 18.6657 -28.6968 9.48163
      vertex 18.6145 -28.6968 9.43738
    endloop
  endfacet
  facet normal 0 1 0
    outer loop
      vertex 18.6145 -28.6968 9.43738
      vertex 18.6657 -28.6968 9.48163
      vertex 18.6795 -28.6968 9.40263
    endloop
  endfacet
  facet normal 0 1 0
    outer loop
      vertex 18.6657 -28.6968 9.48163
      vertex 18.7343 -28.6968 9.43913
      vertex 18.6795 -28.6968 9.40263
    endloop
  endfacet
  facet normal 0 1 0
    outer loop
      vertex 18.6795 -28.6968 9.40263
      vertex 18.7343 -28.6968 9.43913
      vertex 18.7365 -28.6968 9.35587
    endloop
  endfacet
  facet normal 0 1 0
    outer loop
      vertex 18.7343 -28.6968 9.43913
      vertex 18.794 -28.6968 9.38474
      vertex 18.7365 -28.6968 9.35587
    endloop
  endfacet
  facet normal 0 1 0
    outer loop
      vertex 18.7365 -28.6968 9.35587
      vertex 18.794 -28.6968 9.38474
      vertex 18.7833 -28.6968 9.29889
    endloop
  endfacet
  facet normal 0 1 0
    outer loop
      vertex 18.794 -28.6968 9.38474
      vertex 18.8426 -28.6968 9.32031
      vertex 18.7833 -28.6968 9.29889
    endloop
  endfacet
  facet normal 0 1 0
    outer loop
      vertex 18.7833 -28.6968 9.29889
      vertex 18.8426 -28.6968 9.32031
      vertex 18.818 -28.6968 9.23389
    endloop
  endfacet
  facet normal 0 1 0
    outer loop
      vertex 18.8426 -28.6968 9.32031
      vertex 18.8786 -28.6968 9.24804
      vertex 18.818 -28.6968 9.23389
    endloop
  endfacet
  facet normal 0 1 0
    outer loop
      vertex 18.818 -28.6968 9.23389
      vertex 18.8786 -28.6968 9.24804
      vertex 18.8394 -28.6968 9.16335
    endloop
  endfacet
  facet normal 0 1 0
    outer loop
      vertex 18.8786 -28.6968 9.24804
      vertex 18.9007 -28.6968 9.17039
      vertex 18.8394 -28.6968 9.16335
    endloop
  endfacet
  facet normal 0 1 0
    outer loop
      vertex 18.8394 -28.6968 9.16335
      vertex 18.9007 -28.6968 9.17039
      vertex 18.8466 -28.6968 9.09
    endloop
  endfacet
  facet normal 0 1 0
    outer loop
      vertex 18.9007 -28.6968 9.17039
      vertex 18.9081 -28.6968 9.09
      vertex 18.8466 -28.6968 9.09
    endloop
  endfacet
  facet normal 0 1 0
    outer loop
      vertex 18.8466 -28.6968 9.09
      vertex 18.9081 -28.6968 9.09
      vertex 18.8394 -28.6968 9.01665
    endloop
  endfacet
  facet normal 0 1 0
    outer loop
      vertex 18.9081 -28.6968 9.09
      vertex 18.9007 -28.6968 9.00961
      vertex 18.8394 -28.6968 9.01665
    endloop
  endfacet
  facet normal 0 1 0
    outer loop
      vertex 18.8394 -28.6968 9.01665
      vertex 18.9007 -28.6968 9.00961
      vertex 18.818 -28.6968 8.94611
    endloop
  endfacet
  facet normal 0 1 0
    outer loop
      vertex 18.9007 -28.6968 9.00961
      vertex 18.8786 -28.6968 8.93196
      vertex 18.818 -28.6968 8.94611
    endloop
  endfacet
  facet normal 0 1 0
    outer loop
      vertex 18.818 -28.6968 8.94611
      vertex 18.8786 -28.6968 8.93196
      vertex 18.7833 -28.6968 8.88111
    endloop
  endfacet
  facet normal 0 1 0
    outer loop
      vertex 18.8786 -28.6968 8.93196
      vertex 18.8426 -28.6968 8.85969
      vertex 18.7833 -28.6968 8.88111
    endloop
  endfacet
  facet normal 0 1 0
    outer loop
      vertex 18.7833 -28.6968 8.88111
      vertex 18.8426 -28.6968 8.85969
      vertex 18.7365 -28.6968 8.82413
    endloop
  endfacet
  facet normal 0 1 0
    outer loop
      vertex 18.8426 -28.6968 8.85969
      vertex 18.794 -28.6968 8.79526
      vertex 18.7365 -28.6968 8.82413
    endloop
  endfacet
  facet normal 0 1 0
    outer loop
      vertex 18.7365 -28.6968 8.82413
      vertex 18.794 -28.6968 8.79526
      vertex 18.6795 -28.6968 8.77737
    endloop
  endfacet
  facet normal 0 1 0
    outer loop
      vertex 18.794 -28.6968 8.79526
      vertex 18.7343 -28.6968 8.74087
      vertex 18.6795 -28.6968 8.77737
    endloop
  endfacet
  facet normal 0 1 0
    outer loop
      vertex 18.6795 -28.6968 8.77737
      vertex 18.7343 -28.6968 8.74087
      vertex 18.6145 -28.6968 8.74262
    endloop
  endfacet
  facet normal 0 1 0
    outer loop
      vertex 18.7343 -28.6968 8.74087
      vertex 18.6657 -28.6968 8.69837
      vertex 18.6145 -28.6968 8.74262
    endloop
  endfacet
  facet normal 0 1 0
    outer loop
      vertex 18.6145 -28.6968 8.74262
      vertex 18.6657 -28.6968 8.69837
      vertex 18.544 -28.6968 8.72122
    endloop
  endfacet
  facet normal 0 1 0
    outer loop
      vertex 18.6657 -28.6968 8.69837
      vertex 18.5904 -28.6968 8.6692
      vertex 18.544 -28.6968 8.72122
    endloop
  endfacet
  facet normal 0 1 0
    outer loop
      vertex 18.544 -28.6968 8.72122
      vertex 18.5904 -28.6968 8.6692
      vertex 18.4706 -28.6968 8.714
    endloop
  endfacet
  facet normal 0 1 0
    outer loop
      vertex 18.5904 -28.6968 8.6692
      vertex 18.511 -28.6968 8.65437
      vertex 18.4706 -28.6968 8.714
    endloop
  endfacet
  facet normal 0 0 -1
    outer loop
      vertex 18.4303 -28.6968 8.65437
      vertex 18.511 -28.6968 8.65437
      vertex 18.4303 -29.6968 8.65437
    endloop
  endfacet
  facet normal 0 0 -1
    outer loop
      vertex 18.511 -28.6968 8.65437
      vertex 18.511 -29.6968 8.65437
      vertex 18.4303 -29.6968 8.65437
    endloop
  endfacet
  facet normal -0.0980224 0 0.995184
    outer loop
      vertex 18.4706 -29.6968 8.714
      vertex 18.544 -29.6968 8.72122
      vertex 18.544 -28.6968 8.72122
    endloop
  endfacet
  facet normal -0.290289 0 0.956939
    outer loop
      vertex 18.544 -29.6968 8.72122
      vertex 18.6145 -28.6968 8.74262
      vertex 18.544 -28.6968 8.72122
    endloop
  endfacet
  facet normal 0 0 1
    outer loop
      vertex 18.4303 -29.6968 9.52563
      vertex 18.511 -29.6968 9.52563
      vertex 18.4303 -28.6968 9.52563
    endloop
  endfacet
  facet normal 0 0 1
    outer loop
      vertex 18.511 -29.6968 9.52563
      vertex 18.511 -28.6968 9.52563
      vertex 18.4303 -28.6968 9.52563
    endloop
  endfacet
  facet normal -0.0980099 0 -0.995185
    outer loop
      vertex 18.4706 -28.6968 9.466
      vertex 18.544 -28.6968 9.45878
      vertex 18.544 -29.6968 9.45878
    endloop
  endfacet
  facet normal -0.2903 0 -0.956936
    outer loop
      vertex 18.544 -28.6968 9.45878
      vertex 18.6145 -29.6968 9.43738
      vertex 18.544 -29.6968 9.45878
    endloop
  endfacet
  facet normal 0.183747 0 -0.982974
    outer loop
      vertex 18.511 -28.6968 8.65437
      vertex 18.5904 -28.6968 8.6692
      vertex 18.511 -29.6968 8.65437
    endloop
  endfacet
  facet normal 0.183747 0 -0.982974
    outer loop
      vertex 18.5904 -28.6968 8.6692
      vertex 18.5904 -29.6968 8.6692
      vertex 18.511 -29.6968 8.65437
    endloop
  endfacet
  facet normal 0.361249 0 -0.932469
    outer loop
      vertex 18.5904 -28.6968 8.6692
      vertex 18.6657 -28.6968 8.69837
      vertex 18.5904 -29.6968 8.6692
    endloop
  endfacet
  facet normal 0.361249 0 -0.932469
    outer loop
      vertex 18.6657 -28.6968 8.69837
      vertex 18.6657 -29.6968 8.69837
      vertex 18.5904 -29.6968 8.6692
    endloop
  endfacet
  facet normal -0.290289 0 0.956939
    outer loop
      vertex 18.544 -29.6968 8.72122
      vertex 18.6145 -29.6968 8.74262
      vertex 18.6145 -28.6968 8.74262
    endloop
  endfacet
  facet normal -0.471398 0 0.881921
    outer loop
      vertex 18.6145 -29.6968 8.74262
      vertex 18.6795 -28.6968 8.77737
      vertex 18.6145 -28.6968 8.74262
    endloop
  endfacet
  facet normal 0.183747 0 0.982974
    outer loop
      vertex 18.511 -29.6968 9.52563
      vertex 18.5904 -29.6968 9.5108
      vertex 18.511 -28.6968 9.52563
    endloop
  endfacet
  facet normal 0.183747 0 0.982974
    outer loop
      vertex 18.5904 -29.6968 9.5108
      vertex 18.5904 -28.6968 9.5108
      vertex 18.511 -28.6968 9.52563
    endloop
  endfacet
  facet normal 0.361239 0 0.932473
    outer loop
      vertex 18.5904 -29.6968 9.5108
      vertex 18.6657 -29.6968 9.48163
      vertex 18.5904 -28.6968 9.5108
    endloop
  endfacet
  facet normal 0.361239 0 0.932473
    outer loop
      vertex 18.6657 -29.6968 9.48163
      vertex 18.6657 -28.6968 9.48163
      vertex 18.5904 -28.6968 9.5108
    endloop
  endfacet
  facet normal -0.2903 0 -0.956936
    outer loop
      vertex 18.544 -28.6968 9.45878
      vertex 18.6145 -28.6968 9.43738
      vertex 18.6145 -29.6968 9.43738
    endloop
  endfacet
  facet normal -0.471388 0 -0.881926
    outer loop
      vertex 18.6145 -28.6968 9.43738
      vertex 18.6795 -29.6968 9.40263
      vertex 18.6145 -29.6968 9.43738
    endloop
  endfacet
  facet normal 0.526427 0 -0.85022
    outer loop
      vertex 18.6657 -28.6968 8.69837
      vertex 18.7343 -28.6968 8.74087
      vertex 18.6657 -29.6968 8.69837
    endloop
  endfacet
  facet normal 0.526427 0 -0.85022
    outer loop
      vertex 18.7343 -28.6968 8.74087
      vertex 18.7343 -29.6968 8.74087
      vertex 18.6657 -29.6968 8.69837
    endloop
  endfacet
  facet normal -0.471398 0 0.881921
    outer loop
      vertex 18.6145 -29.6968 8.74262
      vertex 18.6795 -29.6968 8.77737
      vertex 18.6795 -28.6968 8.77737
    endloop
  endfacet
  facet normal -0.634385 0 0.773017
    outer loop
      vertex 18.6795 -29.6968 8.77737
      vertex 18.7365 -28.6968 8.82413
      vertex 18.6795 -28.6968 8.77737
    endloop
  endfacet
  facet normal 0.526427 0 0.85022
    outer loop
      vertex 18.6657 -29.6968 9.48163
      vertex 18.7343 -29.6968 9.43913
      vertex 18.6657 -28.6968 9.48163
    endloop
  endfacet
  facet normal 0.526427 0 0.85022
    outer loop
      vertex 18.7343 -29.6968 9.43913
      vertex 18.7343 -28.6968 9.43913
      vertex 18.6657 -28.6968 9.48163
    endloop
  endfacet
  facet normal -0.471388 0 -0.881926
    outer loop
      vertex 18.6145 -28.6968 9.43738
      vertex 18.6795 -28.6968 9.40263
      vertex 18.6795 -29.6968 9.40263
    endloop
  endfacet
  facet normal -0.634392 0 -0.773011
    outer loop
      vertex 18.6795 -28.6968 9.40263
      vertex 18.7365 -29.6968 9.35587
      vertex 18.6795 -29.6968 9.40263
    endloop
  endfacet
  facet normal 0.673695 0 -0.739009
    outer loop
      vertex 18.7343 -28.6968 8.74087
      vertex 18.794 -28.6968 8.79526
      vertex 18.7343 -29.6968 8.74087
    endloop
  endfacet
  facet normal 0.673695 0 -0.739009
    outer loop
      vertex 18.794 -28.6968 8.79526
      vertex 18.794 -29.6968 8.79526
      vertex 18.7343 -29.6968 8.74087
    endloop
  endfacet
  facet normal -0.634385 0 0.773017
    outer loop
      vertex 18.6795 -29.6968 8.77737
      vertex 18.7365 -29.6968 8.82413
      vertex 18.7365 -28.6968 8.82413
    endloop
  endfacet
  facet normal -0.773012 0 0.634391
    outer loop
      vertex 18.7365 -29.6968 8.82413
      vertex 18.7833 -28.6968 8.88111
      vertex 18.7365 -28.6968 8.82413
    endloop
  endfacet
  facet normal 0.673695 0 0.739009
    outer loop
      vertex 18.7343 -29.6968 9.43913
      vertex 18.794 -29.6968 9.38474
      vertex 18.7343 -28.6968 9.43913
    endloop
  endfacet
  facet normal 0.673695 0 0.739009
    outer loop
      vertex 18.794 -29.6968 9.38474
      vertex 18.794 -28.6968 9.38474
      vertex 18.7343 -28.6968 9.43913
    endloop
  endfacet
  facet normal -0.634392 0 -0.773011
    outer loop
      vertex 18.6795 -28.6968 9.40263
      vertex 18.7365 -28.6968 9.35587
      vertex 18.7365 -29.6968 9.35587
    endloop
  endfacet
  facet normal -0.773017 0 -0.634385
    outer loop
      vertex 18.7365 -28.6968 9.35587
      vertex 18.7833 -29.6968 9.29889
      vertex 18.7365 -29.6968 9.35587
    endloop
  endfacet
  facet normal 0.798011 0 -0.602643
    outer loop
      vertex 18.794 -28.6968 8.79526
      vertex 18.8426 -28.6968 8.85969
      vertex 18.794 -29.6968 8.79526
    endloop
  endfacet
  facet normal 0.798011 0 -0.602643
    outer loop
      vertex 18.8426 -28.6968 8.85969
      vertex 18.8426 -29.6968 8.85969
      vertex 18.794 -29.6968 8.79526
    endloop
  endfacet
  facet normal -0.773012 0 0.634391
    outer loop
      vertex 18.7365 -29.6968 8.82413
      vertex 18.7833 -29.6968 8.88111
      vertex 18.7833 -28.6968 8.88111
    endloop
  endfacet
  facet normal -0.881913 0 0.471413
    outer loop
      vertex 18.7833 -29.6968 8.88111
      vertex 18.818 -28.6968 8.94611
      vertex 18.7833 -28.6968 8.88111
    endloop
  endfacet
  facet normal 0.798015 0 0.602638
    outer loop
      vertex 18.794 -29.6968 9.38474
      vertex 18.8426 -29.6968 9.32031
      vertex 18.794 -28.6968 9.38474
    endloop
  endfacet
  facet normal 0.798015 0 0.602638
    outer loop
      vertex 18.8426 -29.6968 9.32031
      vertex 18.8426 -28.6968 9.32031
      vertex 18.794 -28.6968 9.38474
    endloop
  endfacet
  facet normal -0.773017 0 -0.634385
    outer loop
      vertex 18.7365 -28.6968 9.35587
      vertex 18.7833 -28.6968 9.29889
      vertex 18.7833 -29.6968 9.29889
    endloop
  endfacet
  facet normal -0.881913 0 -0.471413
    outer loop
      vertex 18.7833 -28.6968 9.29889
      vertex 18.818 -29.6968 9.23389
      vertex 18.7833 -29.6968 9.29889
    endloop
  endfacet
  facet normal 0.895164 0 -0.445736
    outer loop
      vertex 18.8426 -28.6968 8.85969
      vertex 18.8786 -28.6968 8.93196
      vertex 18.8426 -29.6968 8.85969
    endloop
  endfacet
  facet normal 0.895164 0 -0.445736
    outer loop
      vertex 18.8786 -28.6968 8.93196
      vertex 18.8786 -29.6968 8.93196
      vertex 18.8426 -29.6968 8.85969
    endloop
  endfacet
  facet normal -0.881913 0 0.471413
    outer loop
      vertex 18.7833 -29.6968 8.88111
      vertex 18.818 -29.6968 8.94611
      vertex 18.818 -28.6968 8.94611
    endloop
  endfacet
  facet normal -0.956942 0 0.290278
    outer loop
      vertex 18.818 -29.6968 8.94611
      vertex 18.8394 -28.6968 9.01665
      vertex 18.818 -28.6968 8.94611
    endloop
  endfacet
  facet normal 0.895164 0 0.445736
    outer loop
      vertex 18.8426 -29.6968 9.32031
      vertex 18.8786 -29.6968 9.24804
      vertex 18.8426 -28.6968 9.32031
    endloop
  endfacet
  facet normal 0.895164 0 0.445736
    outer loop
      vertex 18.8786 -29.6968 9.24804
      vertex 18.8786 -28.6968 9.24804
      vertex 18.8426 -28.6968 9.32031
    endloop
  endfacet
  facet normal -0.881913 0 -0.471413
    outer loop
      vertex 18.7833 -28.6968 9.29889
      vertex 18.818 -28.6968 9.23389
      vertex 18.818 -29.6968 9.23389
    endloop
  endfacet
  facet normal -0.956941 0 -0.290282
    outer loop
      vertex 18.818 -28.6968 9.23389
      vertex 18.8394 -29.6968 9.16335
      vertex 18.818 -29.6968 9.23389
    endloop
  endfacet
  facet normal 0.961824 0 -0.27367
    outer loop
      vertex 18.8786 -28.6968 8.93196
      vertex 18.9007 -28.6968 9.00961
      vertex 18.8786 -29.6968 8.93196
    endloop
  endfacet
  facet normal 0.961824 0 -0.27367
    outer loop
      vertex 18.9007 -28.6968 9.00961
      vertex 18.9007 -29.6968 9.00961
      vertex 18.8786 -29.6968 8.93196
    endloop
  endfacet
  facet normal -0.956942 0 0.290278
    outer loop
      vertex 18.818 -29.6968 8.94611
      vertex 18.8394 -29.6968 9.01665
      vertex 18.8394 -28.6968 9.01665
    endloop
  endfacet
  facet normal -0.995184 0 0.0980237
    outer loop
      vertex 18.8394 -29.6968 9.01665
      vertex 18.8466 -28.6968 9.09
      vertex 18.8394 -28.6968 9.01665
    endloop
  endfacet
  facet normal 0.961825 0 0.273667
    outer loop
      vertex 18.8786 -29.6968 9.24804
      vertex 18.9007 -29.6968 9.17039
      vertex 18.8786 -28.6968 9.24804
    endloop
  endfacet
  facet normal 0.961825 0 0.273667
    outer loop
      vertex 18.9007 -29.6968 9.17039
      vertex 18.9007 -28.6968 9.17039
      vertex 18.8786 -28.6968 9.24804
    endloop
  endfacet
  facet normal -0.956941 0 -0.290282
    outer loop
      vertex 18.818 -28.6968 9.23389
      vertex 18.8394 -28.6968 9.16335
      vertex 18.8394 -29.6968 9.16335
    endloop
  endfacet
  facet normal -0.995184 0 -0.0980237
    outer loop
      vertex 18.8394 -28.6968 9.16335
      vertex 18.8466 -29.6968 9.09
      vertex 18.8394 -29.6968 9.16335
    endloop
  endfacet
  facet normal 0.995735 0 -0.0922611
    outer loop
      vertex 18.9007 -28.6968 9.00961
      vertex 18.9081 -28.6968 9.09
      vertex 18.9007 -29.6968 9.00961
    endloop
  endfacet
  facet normal 0.995735 0 -0.0922611
    outer loop
      vertex 18.9081 -28.6968 9.09
      vertex 18.9081 -29.6968 9.09
      vertex 18.9007 -29.6968 9.00961
    endloop
  endfacet
  facet normal -0.995184 0 0.0980237
    outer loop
      vertex 18.8394 -29.6968 9.01665
      vertex 18.8466 -29.6968 9.09
      vertex 18.8466 -28.6968 9.09
    endloop
  endfacet
  facet normal -0.995184 0 -0.0980237
    outer loop
      vertex 18.8466 -29.6968 9.09
      vertex 18.8394 -28.6968 9.16335
      vertex 18.8466 -28.6968 9.09
    endloop
  endfacet
  facet normal 0.995735 0 0.0922622
    outer loop
      vertex 18.9007 -29.6968 9.17039
      vertex 18.9081 -29.6968 9.09
      vertex 18.9007 -28.6968 9.17039
    endloop
  endfacet
  facet normal 0.995735 0 0.0922622
    outer loop
      vertex 18.9081 -29.6968 9.09
      vertex 18.9081 -28.6968 9.09
      vertex 18.9007 -28.6968 9.17039
    endloop
  endfacet
endsolid Onshape
