solid Onshape
  facet normal 0.082852 -6.98561e-6 -0.996562
    outer loop
      vertex 19.3992 -22.8766 9.20673
      vertex 19.3882 -22.8782 9.20581
      vertex 19.3837 -22.8428 9.20544
    endloop
  endfacet
  facet normal 0.0828509 -7.12641e-6 -0.996562
    outer loop
      vertex 19.3882 -22.8782 9.20581
      vertex 19.3689 -22.8477 9.20421
      vertex 19.3837 -22.8428 9.20544
    endloop
  endfacet
  facet normal -0.14192 0.989808 -0.0118043
    outer loop
      vertex 19.3882 -22.8782 9.20581
      vertex 19.3992 -22.8766 9.20673
      vertex 19.4045 -22.8782 9.00964
    endloop
  endfacet
  facet normal -0.141944 0.989804 -0.0118049
    outer loop
      vertex 19.3992 -22.8766 9.20673
      vertex 19.4155 -22.8766 9.01056
      vertex 19.4045 -22.8782 9.00964
    endloop
  endfacet
  facet normal -0.413999 0.909626 -0.0344346
    outer loop
      vertex 19.378 -22.8829 9.20497
      vertex 19.3882 -22.8782 9.20581
      vertex 19.3943 -22.8829 9.0088
    endloop
  endfacet
  facet normal -0.413999 0.909626 -0.0344346
    outer loop
      vertex 19.3882 -22.8782 9.20581
      vertex 19.4045 -22.8782 9.00964
      vertex 19.3943 -22.8829 9.0088
    endloop
  endfacet
  facet normal 0.0828753 8.38716e-6 -0.99656
    outer loop
      vertex 19.3882 -22.8782 9.20581
      vertex 19.378 -22.8829 9.20497
      vertex 19.3689 -22.8477 9.20421
    endloop
  endfacet
  facet normal 0.0829201 2.00619e-5 -0.996556
    outer loop
      vertex 19.378 -22.8829 9.20497
      vertex 19.3554 -22.8555 9.20309
      vertex 19.3689 -22.8477 9.20421
    endloop
  endfacet
  facet normal -0.308028 0.951032 -0.0256206
    outer loop
      vertex 19.3837 -22.8428 9.20544
      vertex 19.3689 -22.8477 9.20421
      vertex 19.3772 -22.8428 9.28391
    endloop
  endfacet
  facet normal -0.308028 0.951032 -0.0256206
    outer loop
      vertex 19.3689 -22.8477 9.20421
      vertex 19.3624 -22.8477 9.28268
      vertex 19.3772 -22.8428 9.28391
    endloop
  endfacet
  facet normal -0.104087 0.994531 -0.0086599
    outer loop
      vertex 19.3992 -22.8412 9.20673
      vertex 19.3837 -22.8428 9.20544
      vertex 19.3927 -22.8412 9.2852
    endloop
  endfacet
  facet normal -0.104099 0.994529 -0.00865853
    outer loop
      vertex 19.3837 -22.8428 9.20544
      vertex 19.3772 -22.8428 9.28391
      vertex 19.3927 -22.8412 9.2852
    endloop
  endfacet
  facet normal 0.0828671 0 -0.996561
    outer loop
      vertex 19.3837 -22.8428 9.20544
      vertex 19.3992 -22.8412 9.20673
      vertex 19.3992 -22.8766 9.20673
    endloop
  endfacet
  facet normal 0.0828787 0 -0.99656
    outer loop
      vertex 19.3992 -22.8412 9.20673
      vertex 19.4103 -22.8782 9.20765
      vertex 19.3992 -22.8766 9.20673
    endloop
  endfacet
  facet normal 0.141967 0.989801 0.0118068
    outer loop
      vertex 19.3992 -22.8766 9.20673
      vertex 19.4103 -22.8782 9.20765
      vertex 19.4155 -22.8766 9.01056
    endloop
  endfacet
  facet normal 0.141967 0.989801 0.0118068
    outer loop
      vertex 19.4103 -22.8782 9.20765
      vertex 19.4266 -22.8782 9.01148
      vertex 19.4155 -22.8766 9.01056
    endloop
  endfacet
  facet normal 0.0828648 0 -0.996561
    outer loop
      vertex 19.4045 -22.8782 9.00964
      vertex 19.4155 -22.8766 9.01056
      vertex 19.4155 -22.916 9.01056
    endloop
  endfacet
  facet normal 0.0828787 0 -0.99656
    outer loop
      vertex 19.4155 -22.8766 9.01056
      vertex 19.4266 -22.8782 9.01148
      vertex 19.4155 -22.916 9.01056
    endloop
  endfacet
  facet normal 0.0828658 3.81349e-6 -0.996561
    outer loop
      vertex 19.4155 -22.916 9.01056
      vertex 19.4266 -22.8782 9.01148
      vertex 19.4367 -22.8829 9.01232
    endloop
  endfacet
  facet normal 0.0828774 3.71073e-6 -0.99656
    outer loop
      vertex 19.3943 -22.8829 9.0088
      vertex 19.4045 -22.8782 9.00964
      vertex 19.4155 -22.916 9.01056
    endloop
  endfacet
  facet normal 0.104112 0.994528 0.00865949
    outer loop
      vertex 19.4147 -22.8428 9.20802
      vertex 19.3992 -22.8412 9.20673
      vertex 19.4082 -22.8428 9.28649
    endloop
  endfacet
  facet normal 0.104099 0.994529 0.00866092
    outer loop
      vertex 19.3992 -22.8412 9.20673
      vertex 19.3927 -22.8412 9.2852
      vertex 19.4082 -22.8428 9.28649
    endloop
  endfacet
  facet normal 0.0828871 2.53822e-6 -0.996559
    outer loop
      vertex 19.3992 -22.8412 9.20673
      vertex 19.4147 -22.8428 9.20802
      vertex 19.4103 -22.8782 9.20765
    endloop
  endfacet
  facet normal 0.0828509 7.12641e-6 -0.996562
    outer loop
      vertex 19.4147 -22.8428 9.20802
      vertex 19.4295 -22.8477 9.20925
      vertex 19.4103 -22.8782 9.20765
    endloop
  endfacet
  facet normal 0.0828753 -8.38716e-6 -0.99656
    outer loop
      vertex 19.4103 -22.8782 9.20765
      vertex 19.4295 -22.8477 9.20925
      vertex 19.4204 -22.8829 9.2085
    endloop
  endfacet
  facet normal 0.0829201 -2.00619e-5 -0.996556
    outer loop
      vertex 19.4295 -22.8477 9.20925
      vertex 19.443 -22.8555 9.21038
      vertex 19.4204 -22.8829 9.2085
    endloop
  endfacet
  facet normal 0.0828983 -1.89796e-6 -0.996558
    outer loop
      vertex 19.4204 -22.8829 9.2085
      vertex 19.443 -22.8555 9.21038
      vertex 19.4289 -22.8902 9.2092
    endloop
  endfacet
  facet normal 0.0828689 1.01557e-5 -0.99656
    outer loop
      vertex 19.443 -22.8555 9.21038
      vertex 19.4546 -22.8659 9.21134
      vertex 19.4289 -22.8902 9.2092
    endloop
  endfacet
  facet normal 0.0828742 4.44555e-6 -0.99656
    outer loop
      vertex 19.4289 -22.8902 9.2092
      vertex 19.4546 -22.8659 9.21134
      vertex 19.4349 -22.8996 9.2097
    endloop
  endfacet
  facet normal 0.0828796 1.30733e-6 -0.99656
    outer loop
      vertex 19.4546 -22.8659 9.21134
      vertex 19.4638 -22.8786 9.2121
      vertex 19.4349 -22.8996 9.2097
    endloop
  endfacet
  facet normal 0.0828794 1.58354e-6 -0.99656
    outer loop
      vertex 19.4349 -22.8996 9.2097
      vertex 19.4638 -22.8786 9.2121
      vertex 19.4701 -22.8929 9.21263
    endloop
  endfacet
  facet normal 0.414 0.909626 0.0344307
    outer loop
      vertex 19.4103 -22.8782 9.20765
      vertex 19.4204 -22.8829 9.2085
      vertex 19.4266 -22.8782 9.01148
    endloop
  endfacet
  facet normal 0.413937 0.909654 0.0344294
    outer loop
      vertex 19.4204 -22.8829 9.2085
      vertex 19.4367 -22.8829 9.01232
      vertex 19.4266 -22.8782 9.01148
    endloop
  endfacet
  facet normal 0.082851 0 -0.996562
    outer loop
      vertex 19.3882 -22.9538 9.20581
      vertex 19.3992 -22.9554 9.20673
      vertex 19.3992 -22.9908 9.20673
    endloop
  endfacet
  facet normal 0.0828869 0 -0.996559
    outer loop
      vertex 19.3992 -22.9554 9.20673
      vertex 19.4147 -22.9892 9.20802
      vertex 19.3992 -22.9908 9.20673
    endloop
  endfacet
  facet normal -0.141758 -0.989831 -0.0117895
    outer loop
      vertex 19.3992 -22.9554 9.20673
      vertex 19.3882 -22.9538 9.20581
      vertex 19.4155 -22.9554 9.01056
    endloop
  endfacet
  facet normal -0.141781 -0.989828 -0.0117927
    outer loop
      vertex 19.3882 -22.9538 9.20581
      vertex 19.4045 -22.9538 9.00964
      vertex 19.4155 -22.9554 9.01056
    endloop
  endfacet
  facet normal 0.141805 -0.989824 0.0117933
    outer loop
      vertex 19.4103 -22.9538 9.20765
      vertex 19.3992 -22.9554 9.20673
      vertex 19.4266 -22.9538 9.01148
    endloop
  endfacet
  facet normal 0.141805 -0.989824 0.0117933
    outer loop
      vertex 19.3992 -22.9554 9.20673
      vertex 19.4155 -22.9554 9.01056
      vertex 19.4266 -22.9538 9.01148
    endloop
  endfacet
  facet normal 0.0828792 -3.54177e-6 -0.99656
    outer loop
      vertex 19.3992 -22.9554 9.20673
      vertex 19.4103 -22.9538 9.20765
      vertex 19.4147 -22.9892 9.20802
    endloop
  endfacet
  facet normal 0.0828509 -7.12641e-6 -0.996562
    outer loop
      vertex 19.4103 -22.9538 9.20765
      vertex 19.4295 -22.9843 9.20925
      vertex 19.4147 -22.9892 9.20802
    endloop
  endfacet
  facet normal 0.104111 -0.994528 0.00866195
    outer loop
      vertex 19.3992 -22.9908 9.20673
      vertex 19.4147 -22.9892 9.20802
      vertex 19.3927 -22.9908 9.2852
    endloop
  endfacet
  facet normal 0.104099 -0.994529 0.00865847
    outer loop
      vertex 19.4147 -22.9892 9.20802
      vertex 19.4082 -22.9892 9.28649
      vertex 19.3927 -22.9908 9.2852
    endloop
  endfacet
  facet normal -0.104087 -0.994531 -0.00865755
    outer loop
      vertex 19.3837 -22.9892 9.20544
      vertex 19.3992 -22.9908 9.20673
      vertex 19.3772 -22.9892 9.28391
    endloop
  endfacet
  facet normal -0.104099 -0.994529 -0.00866088
    outer loop
      vertex 19.3992 -22.9908 9.20673
      vertex 19.3927 -22.9908 9.2852
      vertex 19.3772 -22.9892 9.28391
    endloop
  endfacet
  facet normal 0.0828676 5.00684e-6 -0.996561
    outer loop
      vertex 19.3992 -22.9908 9.20673
      vertex 19.3837 -22.9892 9.20544
      vertex 19.3882 -22.9538 9.20581
    endloop
  endfacet
  facet normal 0.0828509 7.12641e-6 -0.996562
    outer loop
      vertex 19.3837 -22.9892 9.20544
      vertex 19.3689 -22.9843 9.20421
      vertex 19.3882 -22.9538 9.20581
    endloop
  endfacet
  facet normal 0.0828753 -8.38716e-6 -0.99656
    outer loop
      vertex 19.3882 -22.9538 9.20581
      vertex 19.3689 -22.9843 9.20421
      vertex 19.378 -22.9491 9.20497
    endloop
  endfacet
  facet normal 0.0829201 -2.00613e-5 -0.996556
    outer loop
      vertex 19.3689 -22.9843 9.20421
      vertex 19.3554 -22.9765 9.20309
      vertex 19.378 -22.9491 9.20497
    endloop
  endfacet
  facet normal 0.0829088 -1.06876e-5 -0.996557
    outer loop
      vertex 19.378 -22.9491 9.20497
      vertex 19.3554 -22.9765 9.20309
      vertex 19.3696 -22.9418 9.20427
    endloop
  endfacet
  facet normal 0.082866 6.90876e-6 -0.996561
    outer loop
      vertex 19.3554 -22.9765 9.20309
      vertex 19.3438 -22.966 9.20213
      vertex 19.3696 -22.9418 9.20427
    endloop
  endfacet
  facet normal 0.082861 1.22611e-5 -0.996561
    outer loop
      vertex 19.3696 -22.9418 9.20427
      vertex 19.3438 -22.966 9.20213
      vertex 19.3635 -22.9323 9.20377
    endloop
  endfacet
  facet normal 0.0828796 1.30733e-6 -0.99656
    outer loop
      vertex 19.3438 -22.966 9.20213
      vertex 19.3346 -22.9534 9.20136
      vertex 19.3635 -22.9323 9.20377
    endloop
  endfacet
  facet normal 0.0828794 1.58338e-6 -0.99656
    outer loop
      vertex 19.3635 -22.9323 9.20377
      vertex 19.3346 -22.9534 9.20136
      vertex 19.3283 -22.9391 9.20084
    endloop
  endfacet
  facet normal -0.413999 -0.909626 -0.0344346
    outer loop
      vertex 19.3882 -22.9538 9.20581
      vertex 19.378 -22.9491 9.20497
      vertex 19.4045 -22.9538 9.00964
    endloop
  endfacet
  facet normal -0.413999 -0.909626 -0.0344346
    outer loop
      vertex 19.378 -22.9491 9.20497
      vertex 19.3943 -22.9491 9.0088
      vertex 19.4045 -22.9538 9.00964
    endloop
  endfacet
  facet normal 0.308028 -0.951032 0.0256203
    outer loop
      vertex 19.4147 -22.9892 9.20802
      vertex 19.4295 -22.9843 9.20925
      vertex 19.4082 -22.9892 9.28649
    endloop
  endfacet
  facet normal 0.307994 -0.951044 0.0256101
    outer loop
      vertex 19.4295 -22.9843 9.20925
      vertex 19.423 -22.9843 9.28772
      vertex 19.4082 -22.9892 9.28649
    endloop
  endfacet
  facet normal 0.0828648 0 -0.996561
    outer loop
      vertex 19.4155 -22.9554 9.01056
      vertex 19.4045 -22.9538 9.00964
      vertex 19.4155 -22.916 9.01056
    endloop
  endfacet
  facet normal 0.0828774 -3.71057e-6 -0.99656
    outer loop
      vertex 19.4045 -22.9538 9.00964
      vertex 19.3943 -22.9491 9.0088
      vertex 19.4155 -22.916 9.01056
    endloop
  endfacet
  facet normal 0.0829015 -1.92179e-5 -0.996558
    outer loop
      vertex 19.4155 -22.916 9.01056
      vertex 19.3943 -22.9491 9.0088
      vertex 19.3859 -22.9418 9.00809
    endloop
  endfacet
  facet normal 0.0828787 0 -0.99656
    outer loop
      vertex 19.4266 -22.9538 9.01148
      vertex 19.4155 -22.9554 9.01056
      vertex 19.4155 -22.916 9.01056
    endloop
  endfacet
  facet normal 0.413999 -0.909626 0.0344346
    outer loop
      vertex 19.4204 -22.9491 9.2085
      vertex 19.4103 -22.9538 9.20765
      vertex 19.4367 -22.9491 9.01232
    endloop
  endfacet
  facet normal 0.413937 -0.909654 0.0344255
    outer loop
      vertex 19.4103 -22.9538 9.20765
      vertex 19.4266 -22.9538 9.01148
      vertex 19.4367 -22.9491 9.01232
    endloop
  endfacet
  facet normal 0.0828753 8.38716e-6 -0.99656
    outer loop
      vertex 19.4103 -22.9538 9.20765
      vertex 19.4204 -22.9491 9.2085
      vertex 19.4295 -22.9843 9.20925
    endloop
  endfacet
  facet normal 0.0829201 2.00613e-5 -0.996556
    outer loop
      vertex 19.4204 -22.9491 9.2085
      vertex 19.443 -22.9765 9.21038
      vertex 19.4295 -22.9843 9.20925
    endloop
  endfacet
  facet normal 0.0828658 -3.81332e-6 -0.996561
    outer loop
      vertex 19.4367 -22.9491 9.01232
      vertex 19.4266 -22.9538 9.01148
      vertex 19.4155 -22.916 9.01056
    endloop
  endfacet
  facet normal -0.498196 0.866074 -0.041438
    outer loop
      vertex 19.3689 -22.8477 9.20421
      vertex 19.3554 -22.8555 9.20309
      vertex 19.3624 -22.8477 9.28268
    endloop
  endfacet
  facet normal -0.498198 0.866073 -0.0414376
    outer loop
      vertex 19.3554 -22.8555 9.20309
      vertex 19.3489 -22.8555 9.28156
      vertex 19.3624 -22.8477 9.28268
    endloop
  endfacet
  facet normal 0.0829015 1.92203e-5 -0.996558
    outer loop
      vertex 19.3859 -22.8902 9.00809
      vertex 19.3943 -22.8829 9.0088
      vertex 19.4155 -22.916 9.01056
    endloop
  endfacet
  facet normal -0.652541 0.755807 -0.0542754
    outer loop
      vertex 19.3943 -22.8829 9.0088
      vertex 19.3859 -22.8902 9.00809
      vertex 19.378 -22.8829 9.20497
    endloop
  endfacet
  facet normal -0.652541 0.755807 -0.0542754
    outer loop
      vertex 19.3859 -22.8902 9.00809
      vertex 19.3696 -22.8902 9.20427
      vertex 19.378 -22.8829 9.20497
    endloop
  endfacet
  facet normal 0.0828962 2.53469e-5 -0.996558
    outer loop
      vertex 19.378 -22.8829 9.20497
      vertex 19.3696 -22.8902 9.20427
      vertex 19.3438 -22.8659 9.20213
    endloop
  endfacet
  facet normal 0.0828746 2.30896e-6 -0.99656
    outer loop
      vertex 19.3696 -22.8902 9.20427
      vertex 19.3346 -22.8786 9.20136
      vertex 19.3438 -22.8659 9.20213
    endloop
  endfacet
  facet normal -0.0829365 0 0.996555
    outer loop
      vertex 19.3927 -22.8412 9.2852
      vertex 19.3772 -22.8428 9.28391
      vertex 19.3927 -22.8819 9.2852
    endloop
  endfacet
  facet normal -0.0828586 3.10905e-5 0.996561
    outer loop
      vertex 19.3772 -22.8428 9.28391
      vertex 19.3624 -22.8477 9.28268
      vertex 19.3927 -22.8819 9.2852
    endloop
  endfacet
  facet normal -0.0828904 2.72175e-6 0.996559
    outer loop
      vertex 19.3927 -22.8819 9.2852
      vertex 19.3624 -22.8477 9.28268
      vertex 19.3633 -22.8989 9.28276
    endloop
  endfacet
  facet normal -0.0828652 3.16485e-6 0.996561
    outer loop
      vertex 19.3624 -22.8477 9.28268
      vertex 19.3489 -22.8555 9.28156
      vertex 19.3633 -22.8989 9.28276
    endloop
  endfacet
  facet normal -0.0828632 3.82207e-6 0.996561
    outer loop
      vertex 19.3633 -22.8989 9.28276
      vertex 19.3489 -22.8555 9.28156
      vertex 19.3373 -22.8659 9.2806
    endloop
  endfacet
  facet normal -0.082877 0 0.99656
    outer loop
      vertex 19.4082 -22.8428 9.28649
      vertex 19.3927 -22.8412 9.2852
      vertex 19.3927 -22.8819 9.2852
    endloop
  endfacet
  facet normal 0.308029 0.951032 0.025613
    outer loop
      vertex 19.4295 -22.8477 9.20925
      vertex 19.4147 -22.8428 9.20802
      vertex 19.423 -22.8477 9.28772
    endloop
  endfacet
  facet normal 0.307993 0.951044 0.0256174
    outer loop
      vertex 19.4147 -22.8428 9.20802
      vertex 19.4082 -22.8428 9.28649
      vertex 19.423 -22.8477 9.28772
    endloop
  endfacet
  facet normal -0.0828426 -1.37146e-5 0.996563
    outer loop
      vertex 19.423 -22.8477 9.28772
      vertex 19.4082 -22.8428 9.28649
      vertex 19.3927 -22.8819 9.2852
    endloop
  endfacet
  facet normal 0.498197 0.866074 0.0414262
    outer loop
      vertex 19.443 -22.8555 9.21038
      vertex 19.4295 -22.8477 9.20925
      vertex 19.4365 -22.8555 9.28885
    endloop
  endfacet
  facet normal 0.498199 0.866073 0.0414259
    outer loop
      vertex 19.4295 -22.8477 9.20925
      vertex 19.423 -22.8477 9.28772
      vertex 19.4365 -22.8555 9.28885
    endloop
  endfacet
  facet normal 0.652459 0.755878 0.0542686
    outer loop
      vertex 19.4204 -22.8829 9.2085
      vertex 19.4289 -22.8902 9.2092
      vertex 19.4367 -22.8829 9.01232
    endloop
  endfacet
  facet normal 0.652541 0.755807 0.0542692
    outer loop
      vertex 19.4289 -22.8902 9.2092
      vertex 19.4452 -22.8902 9.01303
      vertex 19.4367 -22.8829 9.01232
    endloop
  endfacet
  facet normal -0.308028 -0.951032 -0.0256206
    outer loop
      vertex 19.3689 -22.9843 9.20421
      vertex 19.3837 -22.9892 9.20544
      vertex 19.3624 -22.9843 9.28268
    endloop
  endfacet
  facet normal -0.308028 -0.951032 -0.0256206
    outer loop
      vertex 19.3837 -22.9892 9.20544
      vertex 19.3772 -22.9892 9.28391
      vertex 19.3624 -22.9843 9.28268
    endloop
  endfacet
  facet normal -0.082877 0 0.99656
    outer loop
      vertex 19.3927 -22.9908 9.2852
      vertex 19.4082 -22.9892 9.28649
      vertex 19.3927 -22.9501 9.2852
    endloop
  endfacet
  facet normal -0.0828426 1.3714e-5 0.996563
    outer loop
      vertex 19.4082 -22.9892 9.28649
      vertex 19.423 -22.9843 9.28772
      vertex 19.3927 -22.9501 9.2852
    endloop
  endfacet
  facet normal -0.0828616 -3.14728e-6 0.996561
    outer loop
      vertex 19.3927 -22.9501 9.2852
      vertex 19.423 -22.9843 9.28772
      vertex 19.4365 -22.9765 9.28885
    endloop
  endfacet
  facet normal -0.0829365 0 0.996555
    outer loop
      vertex 19.3772 -22.9892 9.28391
      vertex 19.3927 -22.9908 9.2852
      vertex 19.3927 -22.9501 9.2852
    endloop
  endfacet
  facet normal -0.0828586 -3.10892e-5 0.996561
    outer loop
      vertex 19.3624 -22.9843 9.28268
      vertex 19.3772 -22.9892 9.28391
      vertex 19.3927 -22.9501 9.2852
    endloop
  endfacet
  facet normal -0.498285 -0.866022 -0.0414449
    outer loop
      vertex 19.3554 -22.9765 9.20309
      vertex 19.3689 -22.9843 9.20421
      vertex 19.3489 -22.9765 9.28156
    endloop
  endfacet
  facet normal -0.498287 -0.866021 -0.0414455
    outer loop
      vertex 19.3689 -22.9843 9.20421
      vertex 19.3624 -22.9843 9.28268
      vertex 19.3489 -22.9765 9.28156
    endloop
  endfacet
  facet normal -0.652636 -0.755725 -0.0542833
    outer loop
      vertex 19.378 -22.9491 9.20497
      vertex 19.3696 -22.9418 9.20427
      vertex 19.3943 -22.9491 9.0088
    endloop
  endfacet
  facet normal -0.652636 -0.755725 -0.0542833
    outer loop
      vertex 19.3696 -22.9418 9.20427
      vertex 19.3859 -22.9418 9.00809
      vertex 19.3943 -22.9491 9.0088
    endloop
  endfacet
  facet normal 0.498286 -0.866022 0.0414331
    outer loop
      vertex 19.4295 -22.9843 9.20925
      vertex 19.443 -22.9765 9.21038
      vertex 19.423 -22.9843 9.28772
    endloop
  endfacet
  facet normal 0.498288 -0.866021 0.0414338
    outer loop
      vertex 19.443 -22.9765 9.21038
      vertex 19.4365 -22.9765 9.28885
      vertex 19.423 -22.9843 9.28772
    endloop
  endfacet
  facet normal 0.0829015 1.92179e-5 -0.996558
    outer loop
      vertex 19.4452 -22.9418 9.01303
      vertex 19.4367 -22.9491 9.01232
      vertex 19.4155 -22.916 9.01056
    endloop
  endfacet
  facet normal 0.652636 -0.755725 0.0542833
    outer loop
      vertex 19.4367 -22.9491 9.01232
      vertex 19.4452 -22.9418 9.01303
      vertex 19.4204 -22.9491 9.2085
    endloop
  endfacet
  facet normal 0.652554 -0.755796 0.0542703
    outer loop
      vertex 19.4452 -22.9418 9.01303
      vertex 19.4289 -22.9418 9.2092
      vertex 19.4204 -22.9491 9.2085
    endloop
  endfacet
  facet normal 0.0828896 1.19395e-5 -0.996559
    outer loop
      vertex 19.4204 -22.9491 9.2085
      vertex 19.4289 -22.9418 9.2092
      vertex 19.4546 -22.966 9.21134
    endloop
  endfacet
  facet normal 0.0828782 -2.71275e-7 -0.99656
    outer loop
      vertex 19.4289 -22.9418 9.2092
      vertex 19.4638 -22.9534 9.2121
      vertex 19.4546 -22.966 9.21134
    endloop
  endfacet
  facet normal 0.0828752 -1.72231e-5 -0.99656
    outer loop
      vertex 19.3438 -22.8659 9.20213
      vertex 19.3554 -22.8555 9.20309
      vertex 19.378 -22.8829 9.20497
    endloop
  endfacet
  facet normal -0.666826 0.743147 -0.0554633
    outer loop
      vertex 19.3554 -22.8555 9.20309
      vertex 19.3438 -22.8659 9.20213
      vertex 19.3489 -22.8555 9.28156
    endloop
  endfacet
  facet normal -0.666826 0.743147 -0.0554633
    outer loop
      vertex 19.3438 -22.8659 9.20213
      vertex 19.3373 -22.8659 9.2806
      vertex 19.3489 -22.8555 9.28156
    endloop
  endfacet
  facet normal 0.0829241 4.54519e-5 -0.996556
    outer loop
      vertex 19.3798 -22.8996 9.00759
      vertex 19.3859 -22.8902 9.00809
      vertex 19.4155 -22.916 9.01056
    endloop
  endfacet
  facet normal -0.838353 0.540649 -0.0697304
    outer loop
      vertex 19.3859 -22.8902 9.00809
      vertex 19.3798 -22.8996 9.00759
      vertex 19.3696 -22.8902 9.20427
    endloop
  endfacet
  facet normal -0.838356 0.540645 -0.0697303
    outer loop
      vertex 19.3798 -22.8996 9.00759
      vertex 19.3635 -22.8996 9.20377
      vertex 19.3696 -22.8902 9.20427
    endloop
  endfacet
  facet normal -0.806216 0.587809 -0.0670571
    outer loop
      vertex 19.3438 -22.8659 9.20213
      vertex 19.3346 -22.8786 9.20136
      vertex 19.3373 -22.8659 9.2806
    endloop
  endfacet
  facet normal -0.806274 0.587731 -0.0670428
    outer loop
      vertex 19.3346 -22.8786 9.20136
      vertex 19.3281 -22.8786 9.27983
      vertex 19.3373 -22.8659 9.2806
    endloop
  endfacet
  facet normal 0.0828682 -1.69498e-5 -0.996561
    outer loop
      vertex 19.3696 -22.8902 9.20427
      vertex 19.3635 -22.8996 9.20377
      vertex 19.3346 -22.8786 9.20136
    endloop
  endfacet
  facet normal 0.0828794 -1.58354e-6 -0.99656
    outer loop
      vertex 19.3635 -22.8996 9.20377
      vertex 19.3283 -22.8929 9.20084
      vertex 19.3346 -22.8786 9.20136
    endloop
  endfacet
  facet normal 0.49826 -0.866037 0.0414428
    outer loop
      vertex 19.3927 -22.8819 9.2852
      vertex 19.3633 -22.8989 9.28276
      vertex 19.3673 -22.8989 9.23371
    endloop
  endfacet
  facet normal 0.49826 -0.866037 0.0414428
    outer loop
      vertex 19.3968 -22.8819 9.23616
      vertex 19.3927 -22.8819 9.2852
      vertex 19.3673 -22.8989 9.23371
    endloop
  endfacet
  facet normal -0.498237 -0.86605 -0.0414409
    outer loop
      vertex 19.3927 -22.8819 9.2852
      vertex 19.3968 -22.8819 9.23616
      vertex 19.4221 -22.8989 9.28765
    endloop
  endfacet
  facet normal -0.498261 -0.866037 -0.0414248
    outer loop
      vertex 19.3968 -22.8819 9.23616
      vertex 19.4262 -22.8989 9.23861
      vertex 19.4221 -22.8989 9.28765
    endloop
  endfacet
  facet normal -0.0828559 -6.25162e-6 0.996562
    outer loop
      vertex 19.3927 -22.8819 9.2852
      vertex 19.4221 -22.8989 9.28765
      vertex 19.4365 -22.8555 9.28885
    endloop
  endfacet
  facet normal -0.0829347 1.99982e-5 0.996555
    outer loop
      vertex 19.4221 -22.8989 9.28765
      vertex 19.4481 -22.8659 9.28981
      vertex 19.4365 -22.8555 9.28885
    endloop
  endfacet
  facet normal -0.0828616 3.14765e-6 0.996561
    outer loop
      vertex 19.4365 -22.8555 9.28885
      vertex 19.423 -22.8477 9.28772
      vertex 19.3927 -22.8819 9.2852
    endloop
  endfacet
  facet normal 0.0829015 -1.92203e-5 -0.996558
    outer loop
      vertex 19.4367 -22.8829 9.01232
      vertex 19.4452 -22.8902 9.01303
      vertex 19.4155 -22.916 9.01056
    endloop
  endfacet
  facet normal 0.0828786 7.25709e-6 -0.99656
    outer loop
      vertex 19.4452 -22.8902 9.01303
      vertex 19.4512 -22.8996 9.01353
      vertex 19.4155 -22.916 9.01056
    endloop
  endfacet
  facet normal 0.0828493 7.16825e-5 -0.996562
    outer loop
      vertex 19.4155 -22.916 9.01056
      vertex 19.4512 -22.8996 9.01353
      vertex 19.4544 -22.9104 9.01379
    endloop
  endfacet
  facet normal 0.0828786 -7.25801e-6 -0.99656
    outer loop
      vertex 19.4512 -22.9323 9.01353
      vertex 19.4452 -22.9418 9.01303
      vertex 19.4155 -22.916 9.01056
    endloop
  endfacet
  facet normal 0.838383 -0.540603 0.069725
    outer loop
      vertex 19.4452 -22.9418 9.01303
      vertex 19.4512 -22.9323 9.01353
      vertex 19.4289 -22.9418 9.2092
    endloop
  endfacet
  facet normal 0.838383 -0.540603 0.069725
    outer loop
      vertex 19.4512 -22.9323 9.01353
      vertex 19.4349 -22.9323 9.2097
      vertex 19.4289 -22.9418 9.2092
    endloop
  endfacet
  facet normal 0.0828683 7.72637e-5 -0.996561
    outer loop
      vertex 19.3798 -22.9323 9.00759
      vertex 19.3767 -22.9216 9.00733
      vertex 19.4155 -22.916 9.01056
    endloop
  endfacet
  facet normal 0.0828793 0 -0.99656
    outer loop
      vertex 19.3767 -22.9216 9.00733
      vertex 19.3767 -22.9104 9.00733
      vertex 19.4155 -22.916 9.01056
    endloop
  endfacet
  facet normal 0.0828683 -7.72766e-5 -0.996561
    outer loop
      vertex 19.4155 -22.916 9.01056
      vertex 19.3767 -22.9104 9.00733
      vertex 19.3798 -22.8996 9.00759
    endloop
  endfacet
  facet normal -0.956206 -0.281685 -0.0795238
    outer loop
      vertex 19.3767 -22.9216 9.00733
      vertex 19.3798 -22.9323 9.00759
      vertex 19.3604 -22.9216 9.2035
    endloop
  endfacet
  facet normal -0.956248 -0.281538 -0.079536
    outer loop
      vertex 19.3798 -22.9323 9.00759
      vertex 19.3635 -22.9323 9.20377
      vertex 19.3604 -22.9216 9.2035
    endloop
  endfacet
  facet normal -0.99656 0 -0.0828799
    outer loop
      vertex 19.3767 -22.9104 9.00733
      vertex 19.3767 -22.9216 9.00733
      vertex 19.3604 -22.9104 9.2035
    endloop
  endfacet
  facet normal -0.99656 0 -0.0828799
    outer loop
      vertex 19.3767 -22.9216 9.00733
      vertex 19.3604 -22.9216 9.2035
      vertex 19.3604 -22.9104 9.2035
    endloop
  endfacet
  facet normal -0.956192 0.28173 -0.0795314
    outer loop
      vertex 19.3798 -22.8996 9.00759
      vertex 19.3767 -22.9104 9.00733
      vertex 19.3635 -22.8996 9.20377
    endloop
  endfacet
  facet normal -0.956236 0.281583 -0.0795263
    outer loop
      vertex 19.3767 -22.9104 9.00733
      vertex 19.3604 -22.9104 9.2035
      vertex 19.3635 -22.8996 9.20377
    endloop
  endfacet
  facet normal 0.0829241 -4.54577e-5 -0.996556
    outer loop
      vertex 19.3859 -22.9418 9.00809
      vertex 19.3798 -22.9323 9.00759
      vertex 19.4155 -22.916 9.01056
    endloop
  endfacet
  facet normal -0.838305 -0.540725 -0.0697261
    outer loop
      vertex 19.3798 -22.9323 9.00759
      vertex 19.3859 -22.9418 9.00809
      vertex 19.3635 -22.9323 9.20377
    endloop
  endfacet
  facet normal -0.838308 -0.54072 -0.0697266
    outer loop
      vertex 19.3859 -22.9418 9.00809
      vertex 19.3696 -22.9418 9.20427
      vertex 19.3635 -22.9323 9.20377
    endloop
  endfacet
  facet normal 0.838432 0.540527 0.069729
    outer loop
      vertex 19.4512 -22.8996 9.01353
      vertex 19.4452 -22.8902 9.01303
      vertex 19.4349 -22.8996 9.2097
    endloop
  endfacet
  facet normal 0.838432 0.540527 0.069729
    outer loop
      vertex 19.4452 -22.8902 9.01303
      vertex 19.4289 -22.8902 9.2092
      vertex 19.4349 -22.8996 9.2097
    endloop
  endfacet
  facet normal 0.0828493 -7.16706e-5 -0.996562
    outer loop
      vertex 19.4544 -22.9216 9.01379
      vertex 19.4512 -22.9323 9.01353
      vertex 19.4155 -22.916 9.01056
    endloop
  endfacet
  facet normal 0.956206 -0.281685 0.0795238
    outer loop
      vertex 19.4512 -22.9323 9.01353
      vertex 19.4544 -22.9216 9.01379
      vertex 19.4349 -22.9323 9.2097
    endloop
  endfacet
  facet normal 0.956248 -0.281538 0.079536
    outer loop
      vertex 19.4544 -22.9216 9.01379
      vertex 19.438 -22.9216 9.20996
      vertex 19.4349 -22.9323 9.2097
    endloop
  endfacet
  facet normal 0.956192 0.28173 0.0795314
    outer loop
      vertex 19.4544 -22.9104 9.01379
      vertex 19.4512 -22.8996 9.01353
      vertex 19.438 -22.9104 9.20996
    endloop
  endfacet
  facet normal 0.956236 0.281583 0.0795263
    outer loop
      vertex 19.4512 -22.8996 9.01353
      vertex 19.4349 -22.8996 9.2097
      vertex 19.438 -22.9104 9.20996
    endloop
  endfacet
  facet normal 0.0828596 0 -0.996561
    outer loop
      vertex 19.4544 -22.9104 9.01379
      vertex 19.4544 -22.9216 9.01379
      vertex 19.4155 -22.916 9.01056
    endloop
  endfacet
  facet normal 0.996559 0 0.0828889
    outer loop
      vertex 19.4544 -22.9216 9.01379
      vertex 19.4544 -22.9104 9.01379
      vertex 19.438 -22.9216 9.20996
    endloop
  endfacet
  facet normal 0.996559 0 0.0828889
    outer loop
      vertex 19.4544 -22.9104 9.01379
      vertex 19.438 -22.9104 9.20996
      vertex 19.438 -22.9216 9.20996
    endloop
  endfacet
  facet normal 0.666826 0.743147 0.0554633
    outer loop
      vertex 19.4546 -22.8659 9.21134
      vertex 19.443 -22.8555 9.21038
      vertex 19.4481 -22.8659 9.28981
    endloop
  endfacet
  facet normal 0.666884 0.743096 0.0554529
    outer loop
      vertex 19.443 -22.8555 9.21038
      vertex 19.4365 -22.8555 9.28885
      vertex 19.4481 -22.8659 9.28981
    endloop
  endfacet
  facet normal -0.0828736 -1.77468e-5 0.99656
    outer loop
      vertex 19.3489 -22.9765 9.28156
      vertex 19.3624 -22.9843 9.28268
      vertex 19.3927 -22.9501 9.2852
    endloop
  endfacet
  facet normal -0.0828559 6.25129e-6 0.996562
    outer loop
      vertex 19.4221 -22.933 9.28765
      vertex 19.3927 -22.9501 9.2852
      vertex 19.4365 -22.9765 9.28885
    endloop
  endfacet
  facet normal -0.49828 0.866026 -0.0414263
    outer loop
      vertex 19.3927 -22.9501 9.2852
      vertex 19.4221 -22.933 9.28765
      vertex 19.4262 -22.933 9.23861
    endloop
  endfacet
  facet normal -0.498301 0.866013 -0.0414462
    outer loop
      vertex 19.3968 -22.9501 9.23616
      vertex 19.3927 -22.9501 9.2852
      vertex 19.4262 -22.933 9.23861
    endloop
  endfacet
  facet normal 0.498301 0.866013 0.0414462
    outer loop
      vertex 19.3927 -22.9501 9.2852
      vertex 19.3968 -22.9501 9.23616
      vertex 19.3633 -22.933 9.28276
    endloop
  endfacet
  facet normal 0.498301 0.866013 0.0414462
    outer loop
      vertex 19.3968 -22.9501 9.23616
      vertex 19.3673 -22.933 9.23371
      vertex 19.3633 -22.933 9.28276
    endloop
  endfacet
  facet normal -0.0828866 3.96664e-6 0.996559
    outer loop
      vertex 19.3927 -22.9501 9.2852
      vertex 19.3633 -22.933 9.28276
      vertex 19.3489 -22.9765 9.28156
    endloop
  endfacet
  facet normal -0.0828632 -3.8221e-6 0.996561
    outer loop
      vertex 19.3633 -22.933 9.28276
      vertex 19.3373 -22.966 9.2806
      vertex 19.3489 -22.9765 9.28156
    endloop
  endfacet
  facet normal -0.66676 -0.743206 -0.0554579
    outer loop
      vertex 19.3438 -22.966 9.20213
      vertex 19.3554 -22.9765 9.20309
      vertex 19.3373 -22.966 9.2806
    endloop
  endfacet
  facet normal -0.66676 -0.743206 -0.0554579
    outer loop
      vertex 19.3554 -22.9765 9.20309
      vertex 19.3489 -22.9765 9.28156
      vertex 19.3373 -22.966 9.2806
    endloop
  endfacet
  facet normal 0.0828752 -1.72251e-5 -0.99656
    outer loop
      vertex 19.4546 -22.966 9.21134
      vertex 19.443 -22.9765 9.21038
      vertex 19.4204 -22.9491 9.2085
    endloop
  endfacet
  facet normal 0.666762 -0.743206 0.0554428
    outer loop
      vertex 19.443 -22.9765 9.21038
      vertex 19.4546 -22.966 9.21134
      vertex 19.4365 -22.9765 9.28885
    endloop
  endfacet
  facet normal 0.666817 -0.743155 0.0554625
    outer loop
      vertex 19.4546 -22.966 9.21134
      vertex 19.4481 -22.966 9.28981
      vertex 19.4365 -22.9765 9.28885
    endloop
  endfacet
  facet normal 0.806216 -0.587809 0.0670571
    outer loop
      vertex 19.4546 -22.966 9.21134
      vertex 19.4638 -22.9534 9.2121
      vertex 19.4481 -22.966 9.28981
    endloop
  endfacet
  facet normal 0.806216 -0.587809 0.0670571
    outer loop
      vertex 19.4638 -22.9534 9.2121
      vertex 19.4572 -22.9534 9.29057
      vertex 19.4481 -22.966 9.28981
    endloop
  endfacet
  facet normal 0.0828763 -5.78984e-6 -0.99656
    outer loop
      vertex 19.4289 -22.9418 9.2092
      vertex 19.4349 -22.9323 9.2097
      vertex 19.4638 -22.9534 9.2121
    endloop
  endfacet
  facet normal 0.0828794 -1.58338e-6 -0.99656
    outer loop
      vertex 19.4349 -22.9323 9.2097
      vertex 19.4701 -22.9391 9.21263
      vertex 19.4638 -22.9534 9.2121
    endloop
  endfacet
  facet normal -0.996561 0 -0.0828663
    outer loop
      vertex 19.3185 -22.9238 9.27904
      vertex 19.3185 -22.9082 9.27904
      vertex 19.3251 -22.9238 9.20057
    endloop
  endfacet
  facet normal -0.996561 0 -0.0828663
    outer loop
      vertex 19.3185 -22.9082 9.27904
      vertex 19.3251 -22.9082 9.20057
      vertex 19.3251 -22.9238 9.20057
    endloop
  endfacet
  facet normal -0.0828909 0 0.996559
    outer loop
      vertex 19.3185 -22.9082 9.27904
      vertex 19.3185 -22.9238 9.27904
      vertex 19.3633 -22.933 9.28276
    endloop
  endfacet
  facet normal -0.0828925 -7.84283e-6 0.996558
    outer loop
      vertex 19.3185 -22.9238 9.27904
      vertex 19.3218 -22.9391 9.27931
      vertex 19.3633 -22.933 9.28276
    endloop
  endfacet
  facet normal -0.0828999 4.33914e-5 0.996558
    outer loop
      vertex 19.3633 -22.933 9.28276
      vertex 19.3218 -22.9391 9.27931
      vertex 19.3281 -22.9534 9.27983
    endloop
  endfacet
  facet normal -0.0828925 7.84291e-6 0.996558
    outer loop
      vertex 19.3218 -22.8929 9.27931
      vertex 19.3185 -22.9082 9.27904
      vertex 19.3633 -22.8989 9.28276
    endloop
  endfacet
  facet normal -0.0828909 0 0.996559
    outer loop
      vertex 19.3185 -22.9082 9.27904
      vertex 19.3633 -22.933 9.28276
      vertex 19.3633 -22.8989 9.28276
    endloop
  endfacet
  facet normal -0.97482 0.207739 -0.0810586
    outer loop
      vertex 19.3185 -22.9082 9.27904
      vertex 19.3218 -22.8929 9.27931
      vertex 19.3251 -22.9082 9.20057
    endloop
  endfacet
  facet normal -0.974794 0.207852 -0.0810795
    outer loop
      vertex 19.3218 -22.8929 9.27931
      vertex 19.3283 -22.8929 9.20084
      vertex 19.3251 -22.9082 9.20057
    endloop
  endfacet
  facet normal 0.0828671 0 -0.996561
    outer loop
      vertex 19.3251 -22.9238 9.20057
      vertex 19.3251 -22.9082 9.20057
      vertex 19.3604 -22.9104 9.2035
    endloop
  endfacet
  facet normal 0.0828663 -1.23566e-5 -0.996561
    outer loop
      vertex 19.3251 -22.9082 9.20057
      vertex 19.3283 -22.8929 9.20084
      vertex 19.3604 -22.9104 9.2035
    endloop
  endfacet
  facet normal 0.0828833 1.89834e-5 -0.996559
    outer loop
      vertex 19.3604 -22.9104 9.2035
      vertex 19.3283 -22.8929 9.20084
      vertex 19.3635 -22.8996 9.20377
    endloop
  endfacet
  facet normal 0.0828663 1.23566e-5 -0.996561
    outer loop
      vertex 19.3283 -22.9391 9.20084
      vertex 19.3251 -22.9238 9.20057
      vertex 19.3604 -22.9216 9.2035
    endloop
  endfacet
  facet normal 0.0828671 0 -0.996561
    outer loop
      vertex 19.3251 -22.9238 9.20057
      vertex 19.3604 -22.9104 9.2035
      vertex 19.3604 -22.9216 9.2035
    endloop
  endfacet
  facet normal -0.974796 -0.207852 -0.0810566
    outer loop
      vertex 19.3251 -22.9238 9.20057
      vertex 19.3283 -22.9391 9.20084
      vertex 19.3185 -22.9238 9.27904
    endloop
  endfacet
  facet normal -0.974818 -0.207739 -0.0810815
    outer loop
      vertex 19.3283 -22.9391 9.20084
      vertex 19.3218 -22.9391 9.27931
      vertex 19.3185 -22.9238 9.27904
    endloop
  endfacet
  facet normal 0.996559 0 0.0828889
    outer loop
      vertex 19.3633 -22.933 9.28276
      vertex 19.3673 -22.933 9.23371
      vertex 19.3633 -22.8989 9.28276
    endloop
  endfacet
  facet normal 0.996559 0 0.0828889
    outer loop
      vertex 19.3673 -22.933 9.23371
      vertex 19.3673 -22.8989 9.23371
      vertex 19.3633 -22.8989 9.28276
    endloop
  endfacet
  facet normal -0.0828999 -4.33975e-5 0.996558
    outer loop
      vertex 19.3281 -22.8786 9.27983
      vertex 19.3218 -22.8929 9.27931
      vertex 19.3633 -22.8989 9.28276
    endloop
  endfacet
  facet normal -0.910363 0.406824 -0.0757204
    outer loop
      vertex 19.3218 -22.8929 9.27931
      vertex 19.3281 -22.8786 9.27983
      vertex 19.3283 -22.8929 9.20084
    endloop
  endfacet
  facet normal -0.91041 0.406721 -0.0757019
    outer loop
      vertex 19.3281 -22.8786 9.27983
      vertex 19.3346 -22.8786 9.20136
      vertex 19.3283 -22.8929 9.20084
    endloop
  endfacet
  facet normal -0.910428 -0.406677 -0.0757258
    outer loop
      vertex 19.3283 -22.9391 9.20084
      vertex 19.3346 -22.9534 9.20136
      vertex 19.3218 -22.9391 9.27931
    endloop
  endfacet
  facet normal -0.910384 -0.40678 -0.0756997
    outer loop
      vertex 19.3346 -22.9534 9.20136
      vertex 19.3281 -22.9534 9.27983
      vertex 19.3218 -22.9391 9.27931
    endloop
  endfacet
  facet normal 0.0828833 -1.89805e-5 -0.996559
    outer loop
      vertex 19.3604 -22.9216 9.2035
      vertex 19.3635 -22.9323 9.20377
      vertex 19.3283 -22.9391 9.20084
    endloop
  endfacet
  facet normal -0.0828889 0 0.996559
    outer loop
      vertex 19.3673 -22.933 9.23371
      vertex 19.3968 -22.9501 9.23616
      vertex 19.3968 -22.8819 9.23616
    endloop
  endfacet
  facet normal -0.0828889 0 0.996559
    outer loop
      vertex 19.3968 -22.9501 9.23616
      vertex 19.4262 -22.8989 9.23861
      vertex 19.3968 -22.8819 9.23616
    endloop
  endfacet
  facet normal -0.0828889 0 0.996559
    outer loop
      vertex 19.3673 -22.8989 9.23371
      vertex 19.3673 -22.933 9.23371
      vertex 19.3968 -22.8819 9.23616
    endloop
  endfacet
  facet normal -0.806272 -0.587731 -0.0670618
    outer loop
      vertex 19.3373 -22.966 9.2806
      vertex 19.3281 -22.9534 9.27983
      vertex 19.3438 -22.966 9.20213
    endloop
  endfacet
  facet normal -0.806218 -0.587809 -0.0670381
    outer loop
      vertex 19.3281 -22.9534 9.27983
      vertex 19.3346 -22.9534 9.20136
      vertex 19.3438 -22.966 9.20213
    endloop
  endfacet
  facet normal -0.0828807 1.00537e-5 0.996559
    outer loop
      vertex 19.3281 -22.9534 9.27983
      vertex 19.3373 -22.966 9.2806
      vertex 19.3633 -22.933 9.28276
    endloop
  endfacet
  facet normal -0.0828889 0 0.996559
    outer loop
      vertex 19.3968 -22.9501 9.23616
      vertex 19.4262 -22.933 9.23861
      vertex 19.4262 -22.8989 9.23861
    endloop
  endfacet
  facet normal -0.0828807 -1.00543e-5 0.996559
    outer loop
      vertex 19.3373 -22.8659 9.2806
      vertex 19.3281 -22.8786 9.27983
      vertex 19.3633 -22.8989 9.28276
    endloop
  endfacet
  facet normal -0.996562 0 -0.0828528
    outer loop
      vertex 19.4262 -22.933 9.23861
      vertex 19.4221 -22.933 9.28765
      vertex 19.4262 -22.8989 9.23861
    endloop
  endfacet
  facet normal -0.996562 0 -0.0828528
    outer loop
      vertex 19.4221 -22.933 9.28765
      vertex 19.4221 -22.8989 9.28765
      vertex 19.4262 -22.8989 9.23861
    endloop
  endfacet
  facet normal -0.0828909 0 0.996559
    outer loop
      vertex 19.4221 -22.8989 9.28765
      vertex 19.4221 -22.933 9.28765
      vertex 19.4668 -22.9082 9.29137
    endloop
  endfacet
  facet normal -0.0828909 0 0.996559
    outer loop
      vertex 19.4221 -22.933 9.28765
      vertex 19.4668 -22.9238 9.29137
      vertex 19.4668 -22.9082 9.29137
    endloop
  endfacet
  facet normal -0.0829347 -1.99983e-5 0.996555
    outer loop
      vertex 19.4365 -22.9765 9.28885
      vertex 19.4481 -22.966 9.28981
      vertex 19.4221 -22.933 9.28765
    endloop
  endfacet
  facet normal -0.0828943 1.20177e-5 0.996558
    outer loop
      vertex 19.4481 -22.966 9.28981
      vertex 19.4572 -22.9534 9.29057
      vertex 19.4221 -22.933 9.28765
    endloop
  endfacet
  facet normal -0.082896 9.00811e-6 0.996558
    outer loop
      vertex 19.4221 -22.933 9.28765
      vertex 19.4572 -22.9534 9.29057
      vertex 19.4636 -22.9391 9.2911
    endloop
  endfacet
  facet normal 0.996559 0 0.0828898
    outer loop
      vertex 19.4668 -22.9082 9.29137
      vertex 19.4668 -22.9238 9.29137
      vertex 19.4733 -22.9082 9.2129
    endloop
  endfacet
  facet normal 0.996559 0 0.0828898
    outer loop
      vertex 19.4668 -22.9238 9.29137
      vertex 19.4733 -22.9238 9.2129
      vertex 19.4733 -22.9082 9.2129
    endloop
  endfacet
  facet normal 0.974794 0.207852 0.0810786
    outer loop
      vertex 19.4636 -22.8929 9.2911
      vertex 19.4668 -22.9082 9.29137
      vertex 19.4701 -22.8929 9.21263
    endloop
  endfacet
  facet normal 0.974793 0.207857 0.0810795
    outer loop
      vertex 19.4668 -22.9082 9.29137
      vertex 19.4733 -22.9082 9.2129
      vertex 19.4701 -22.8929 9.21263
    endloop
  endfacet
  facet normal -0.0828946 -1.83984e-5 0.996558
    outer loop
      vertex 19.4668 -22.9082 9.29137
      vertex 19.4636 -22.8929 9.2911
      vertex 19.4221 -22.8989 9.28765
    endloop
  endfacet
  facet normal -0.082896 -9.00938e-6 0.996558
    outer loop
      vertex 19.4636 -22.8929 9.2911
      vertex 19.4572 -22.8786 9.29057
      vertex 19.4221 -22.8989 9.28765
    endloop
  endfacet
  facet normal -0.0828943 -1.20184e-5 0.996558
    outer loop
      vertex 19.4221 -22.8989 9.28765
      vertex 19.4572 -22.8786 9.29057
      vertex 19.4481 -22.8659 9.28981
    endloop
  endfacet
  facet normal 0.910428 -0.406677 0.075725
    outer loop
      vertex 19.4636 -22.9391 9.2911
      vertex 19.4572 -22.9534 9.29057
      vertex 19.4701 -22.9391 9.21263
    endloop
  endfacet
  facet normal 0.910428 -0.406677 0.075725
    outer loop
      vertex 19.4572 -22.9534 9.29057
      vertex 19.4638 -22.9534 9.2121
      vertex 19.4701 -22.9391 9.21263
    endloop
  endfacet
  facet normal -0.0828946 1.83982e-5 0.996558
    outer loop
      vertex 19.4636 -22.9391 9.2911
      vertex 19.4668 -22.9238 9.29137
      vertex 19.4221 -22.933 9.28765
    endloop
  endfacet
  facet normal 0.974794 -0.207852 0.0810795
    outer loop
      vertex 19.4668 -22.9238 9.29137
      vertex 19.4636 -22.9391 9.2911
      vertex 19.4733 -22.9238 9.2129
    endloop
  endfacet
  facet normal 0.974793 -0.207857 0.0810785
    outer loop
      vertex 19.4636 -22.9391 9.2911
      vertex 19.4701 -22.9391 9.21263
      vertex 19.4733 -22.9238 9.2129
    endloop
  endfacet
  facet normal 0.806216 0.587809 0.0670571
    outer loop
      vertex 19.4481 -22.8659 9.28981
      vertex 19.4572 -22.8786 9.29057
      vertex 19.4546 -22.8659 9.21134
    endloop
  endfacet
  facet normal 0.806216 0.587809 0.0670571
    outer loop
      vertex 19.4572 -22.8786 9.29057
      vertex 19.4638 -22.8786 9.2121
      vertex 19.4546 -22.8659 9.21134
    endloop
  endfacet
  facet normal 0.910409 0.406721 0.0757233
    outer loop
      vertex 19.4572 -22.8786 9.29057
      vertex 19.4636 -22.8929 9.2911
      vertex 19.4638 -22.8786 9.2121
    endloop
  endfacet
  facet normal 0.910409 0.406721 0.0757233
    outer loop
      vertex 19.4636 -22.8929 9.2911
      vertex 19.4701 -22.8929 9.21263
      vertex 19.4638 -22.8786 9.2121
    endloop
  endfacet
  facet normal 0.0828932 0 -0.996558
    outer loop
      vertex 19.4733 -22.9082 9.2129
      vertex 19.4733 -22.9238 9.2129
      vertex 19.438 -22.9216 9.20996
    endloop
  endfacet
  facet normal 0.0828958 4.203e-5 -0.996558
    outer loop
      vertex 19.4733 -22.9238 9.2129
      vertex 19.4701 -22.9391 9.21263
      vertex 19.438 -22.9216 9.20996
    endloop
  endfacet
  facet normal 0.0828833 1.89805e-5 -0.996559
    outer loop
      vertex 19.438 -22.9216 9.20996
      vertex 19.4701 -22.9391 9.21263
      vertex 19.4349 -22.9323 9.2097
    endloop
  endfacet
  facet normal 0.0828958 -4.203e-5 -0.996558
    outer loop
      vertex 19.4701 -22.8929 9.21263
      vertex 19.4733 -22.9082 9.2129
      vertex 19.438 -22.9104 9.20996
    endloop
  endfacet
  facet normal 0.0828932 0 -0.996558
    outer loop
      vertex 19.4733 -22.9082 9.2129
      vertex 19.438 -22.9216 9.20996
      vertex 19.438 -22.9104 9.20996
    endloop
  endfacet
  facet normal 0.0828833 -1.89834e-5 -0.996559
    outer loop
      vertex 19.438 -22.9104 9.20996
      vertex 19.4349 -22.8996 9.2097
      vertex 19.4701 -22.8929 9.21263
    endloop
  endfacet
endsolid Onshape
