solid Onshape
  facet normal -0.529902 0.848059 -3.16294e-5
    outer loop
      vertex 17.1975 -31.6123 21.2786
      vertex 17.1908 -31.6164 21.2439
      vertex 17.1375 -31.6497 21.2599
    endloop
  endfacet
  facet normal -0.529898 0.848061 -1.38313e-5
    outer loop
      vertex 17.1908 -31.6164 21.2439
      vertex 17.1348 -31.6514 21.2183
      vertex 17.1375 -31.6497 21.2599
    endloop
  endfacet
  facet normal 0.827093 0.516839 -0.220897
    outer loop
      vertex 17.1908 -31.6164 21.2439
      vertex 17.1975 -31.6123 21.2786
      vertex 17.277 -31.7395 21.2786
    endloop
  endfacet
  facet normal 0.776944 0.485502 -0.400806
    outer loop
      vertex 17.1975 -31.6123 21.2786
      vertex 17.289 -31.7319 21.3111
      vertex 17.277 -31.7395 21.2786
    endloop
  endfacet
  facet normal 0.847583 0.529631 -0.0330842
    outer loop
      vertex 17.1898 -31.6171 21.2084
      vertex 17.1908 -31.6164 21.2439
      vertex 17.2703 -31.7436 21.2439
    endloop
  endfacet
  facet normal 0.82709 0.516825 -0.220939
    outer loop
      vertex 17.1908 -31.6164 21.2439
      vertex 17.277 -31.7395 21.2786
      vertex 17.2703 -31.7436 21.2439
    endloop
  endfacet
  facet normal -0.529907 0.848056 1.30969e-5
    outer loop
      vertex 17.1908 -31.6164 21.2439
      vertex 17.1898 -31.6171 21.2084
      vertex 17.1348 -31.6514 21.2183
    endloop
  endfacet
  facet normal -0.529914 0.848051 -4.33749e-5
    outer loop
      vertex 17.1898 -31.6171 21.2084
      vertex 17.138 -31.6495 21.1768
      vertex 17.1348 -31.6514 21.2183
    endloop
  endfacet
  facet normal -0.844657 -0.527802 -0.0893306
    outer loop
      vertex 17.1348 -31.6514 21.2183
      vertex 17.138 -31.6495 21.1768
      vertex 17.2143 -31.7786 21.2183
    endloop
  endfacet
  facet normal -0.844655 -0.527804 -0.08934
    outer loop
      vertex 17.138 -31.6495 21.1768
      vertex 17.2175 -31.7767 21.1768
      vertex 17.2143 -31.7786 21.2183
    endloop
  endfacet
  facet normal -0.845595 -0.528376 0.0760756
    outer loop
      vertex 17.1375 -31.6497 21.2599
      vertex 17.1348 -31.6514 21.2183
      vertex 17.217 -31.7769 21.2599
    endloop
  endfacet
  facet normal -0.845592 -0.528387 0.0760379
    outer loop
      vertex 17.1348 -31.6514 21.2183
      vertex 17.2143 -31.7786 21.2183
      vertex 17.217 -31.7769 21.2599
    endloop
  endfacet
  facet normal -0.823414 -0.51454 0.239243
    outer loop
      vertex 17.146 -31.6445 21.3003
      vertex 17.1375 -31.6497 21.2599
      vertex 17.2255 -31.7717 21.3003
    endloop
  endfacet
  facet normal -0.82341 -0.514514 0.239315
    outer loop
      vertex 17.1375 -31.6497 21.2599
      vertex 17.217 -31.7769 21.2599
      vertex 17.2255 -31.7717 21.3003
    endloop
  endfacet
  facet normal -0.529905 0.848057 -1.75275e-5
    outer loop
      vertex 17.1375 -31.6497 21.2599
      vertex 17.146 -31.6445 21.3003
      vertex 17.1975 -31.6123 21.2786
    endloop
  endfacet
  facet normal -0.529905 0.848057 -1.80347e-5
    outer loop
      vertex 17.146 -31.6445 21.3003
      vertex 17.2096 -31.6047 21.3111
      vertex 17.1975 -31.6123 21.2786
    endloop
  endfacet
  facet normal 0.837678 0.523429 0.155943
    outer loop
      vertex 17.1945 -31.6141 21.1734
      vertex 17.1898 -31.6171 21.2084
      vertex 17.2693 -31.7443 21.2084
    endloop
  endfacet
  facet normal 0.847587 0.529621 -0.0331286
    outer loop
      vertex 17.1898 -31.6171 21.2084
      vertex 17.2703 -31.7436 21.2439
      vertex 17.2693 -31.7443 21.2084
    endloop
  endfacet
  facet normal -0.529945 0.848032 2.6926e-5
    outer loop
      vertex 17.1898 -31.6171 21.2084
      vertex 17.1945 -31.6141 21.1734
      vertex 17.138 -31.6495 21.1768
    endloop
  endfacet
  facet normal -0.529944 0.848032 4.1253e-5
    outer loop
      vertex 17.1945 -31.6141 21.1734
      vertex 17.1469 -31.6439 21.1365
      vertex 17.138 -31.6495 21.1768
    endloop
  endfacet
  facet normal 0.776935 0.485485 -0.400843
    outer loop
      vertex 17.1975 -31.6123 21.2786
      vertex 17.2096 -31.6047 21.3111
      vertex 17.289 -31.7319 21.3111
    endloop
  endfacet
  facet normal 0.698917 0.436734 -0.566373
    outer loop
      vertex 17.2096 -31.6047 21.3111
      vertex 17.3061 -31.7213 21.3403
      vertex 17.289 -31.7319 21.3111
    endloop
  endfacet
  facet normal 0.529901 -0.84806 3.42961e-6
    outer loop
      vertex 17.2703 -31.7436 21.2439
      vertex 17.277 -31.7395 21.2786
      vertex 17.2255 -31.7717 21.3003
    endloop
  endfacet
  facet normal 0.529887 -0.848068 -4.1224e-5
    outer loop
      vertex 17.277 -31.7395 21.2786
      vertex 17.2395 -31.7629 21.3386
      vertex 17.2255 -31.7717 21.3003
    endloop
  endfacet
  facet normal 0.529873 -0.848077 -3.95934e-5
    outer loop
      vertex 17.2693 -31.7443 21.2084
      vertex 17.2703 -31.7436 21.2439
      vertex 17.217 -31.7769 21.2599
    endloop
  endfacet
  facet normal 0.529877 -0.848075 -2.30627e-5
    outer loop
      vertex 17.2703 -31.7436 21.2439
      vertex 17.2255 -31.7717 21.3003
      vertex 17.217 -31.7769 21.2599
    endloop
  endfacet
  facet normal 0.529959 -0.848024 2.08292e-5
    outer loop
      vertex 17.277 -31.7395 21.2786
      vertex 17.289 -31.7319 21.3111
      vertex 17.2395 -31.7629 21.3386
    endloop
  endfacet
  facet normal 0.529965 -0.848019 3.70542e-5
    outer loop
      vertex 17.289 -31.7319 21.3111
      vertex 17.2586 -31.751 21.3736
      vertex 17.2395 -31.7629 21.3386
    endloop
  endfacet
  facet normal 0.529926 -0.848044 3.50722e-5
    outer loop
      vertex 17.217 -31.7769 21.2599
      vertex 17.2143 -31.7786 21.2183
      vertex 17.2693 -31.7443 21.2084
    endloop
  endfacet
  facet normal 0.529921 -0.848047 -3.2444e-6
    outer loop
      vertex 17.2143 -31.7786 21.2183
      vertex 17.274 -31.7413 21.1734
      vertex 17.2693 -31.7443 21.2084
    endloop
  endfacet
  facet normal -0.820638 -0.512797 -0.252177
    outer loop
      vertex 17.138 -31.6495 21.1768
      vertex 17.1469 -31.6439 21.1365
      vertex 17.2175 -31.7767 21.1768
    endloop
  endfacet
  facet normal -0.820641 -0.512796 -0.252168
    outer loop
      vertex 17.1469 -31.6439 21.1365
      vertex 17.2264 -31.7711 21.1365
      vertex 17.2175 -31.7767 21.1768
    endloop
  endfacet
  facet normal 0.529891 -0.848066 -5.90133e-5
    outer loop
      vertex 17.2143 -31.7786 21.2183
      vertex 17.2175 -31.7767 21.1768
      vertex 17.274 -31.7413 21.1734
    endloop
  endfacet
  facet normal 0.529896 -0.848063 4.65738e-5
    outer loop
      vertex 17.2175 -31.7767 21.1768
      vertex 17.2264 -31.7711 21.1365
      vertex 17.274 -31.7413 21.1734
    endloop
  endfacet
  facet normal 0.529907 -0.848056 2.59116e-5
    outer loop
      vertex 17.274 -31.7413 21.1734
      vertex 17.2264 -31.7711 21.1365
      vertex 17.2842 -31.7349 21.14
    endloop
  endfacet
  facet normal 0.529908 -0.848055 9.01278e-6
    outer loop
      vertex 17.2264 -31.7711 21.1365
      vertex 17.2408 -31.7621 21.0985
      vertex 17.2842 -31.7349 21.14
    endloop
  endfacet
  facet normal 0.529894 -0.848064 2.96604e-5
    outer loop
      vertex 17.2842 -31.7349 21.14
      vertex 17.2408 -31.7621 21.0985
      vertex 17.2996 -31.7253 21.1094
    endloop
  endfacet
  facet normal 0.529902 -0.848059 -3.5818e-5
    outer loop
      vertex 17.2408 -31.7621 21.0985
      vertex 17.2604 -31.7499 21.0638
      vertex 17.2996 -31.7253 21.1094
    endloop
  endfacet
  facet normal 0.529958 -0.848024 -0.000102339
    outer loop
      vertex 17.2996 -31.7253 21.1094
      vertex 17.2604 -31.7499 21.0638
      vertex 17.3196 -31.7128 21.0829
    endloop
  endfacet
  facet normal 0.529925 -0.848045 4.13647e-5
    outer loop
      vertex 17.2604 -31.7499 21.0638
      vertex 17.2845 -31.7348 21.0333
      vertex 17.3196 -31.7128 21.0829
    endloop
  endfacet
  facet normal 0.529928 -0.848042 3.77016e-5
    outer loop
      vertex 17.3196 -31.7128 21.0829
      vertex 17.2845 -31.7348 21.0333
      vertex 17.3435 -31.6979 21.0612
    endloop
  endfacet
  facet normal 0.529952 -0.848027 -3.27893e-5
    outer loop
      vertex 17.2845 -31.7348 21.0333
      vertex 17.3125 -31.7173 21.008
      vertex 17.3435 -31.6979 21.0612
    endloop
  endfacet
  facet normal 0.52991 -0.848054 1.52784e-6
    outer loop
      vertex 17.3435 -31.6979 21.0612
      vertex 17.3125 -31.7173 21.008
      vertex 17.3704 -31.6811 21.0453
    endloop
  endfacet
  facet normal 0.529907 -0.848056 7.88022e-6
    outer loop
      vertex 17.3125 -31.7173 21.008
      vertex 17.3437 -31.6978 20.9884
      vertex 17.3704 -31.6811 21.0453
    endloop
  endfacet
  facet normal 0.529925 -0.848045 -3.61515e-6
    outer loop
      vertex 17.3704 -31.6811 21.0453
      vertex 17.3437 -31.6978 20.9884
      vertex 17.3994 -31.663 21.0356
    endloop
  endfacet
  facet normal 0.529934 -0.848039 -1.9326e-5
    outer loop
      vertex 17.3437 -31.6978 20.9884
      vertex 17.3772 -31.6768 20.9752
      vertex 17.3994 -31.663 21.0356
    endloop
  endfacet
  facet normal 0.52989 -0.848066 3.00404e-6
    outer loop
      vertex 17.3994 -31.663 21.0356
      vertex 17.3772 -31.6768 20.9752
      vertex 17.4294 -31.6443 21.0325
    endloop
  endfacet
  facet normal 0.52989 -0.848067 3.8946e-6
    outer loop
      vertex 17.3772 -31.6768 20.9752
      vertex 17.4121 -31.655 20.9687
      vertex 17.4294 -31.6443 21.0325
    endloop
  endfacet
  facet normal 0.529882 -0.848071 6.61601e-6
    outer loop
      vertex 17.4294 -31.6443 21.0325
      vertex 17.4121 -31.655 20.9687
      vertex 17.4475 -31.6329 20.969
    endloop
  endfacet
  facet normal -0.77872 -0.486586 0.396016
    outer loop
      vertex 17.16 -31.6357 21.3386
      vertex 17.146 -31.6445 21.3003
      vertex 17.2395 -31.7629 21.3386
    endloop
  endfacet
  facet normal -0.778735 -0.486621 0.395944
    outer loop
      vertex 17.146 -31.6445 21.3003
      vertex 17.2255 -31.7717 21.3003
      vertex 17.2395 -31.7629 21.3386
    endloop
  endfacet
  facet normal -0.529907 0.848056 -5.63023e-6
    outer loop
      vertex 17.146 -31.6445 21.3003
      vertex 17.16 -31.6357 21.3386
      vertex 17.2096 -31.6047 21.3111
    endloop
  endfacet
  facet normal -0.529909 0.848054 -1.19902e-5
    outer loop
      vertex 17.16 -31.6357 21.3386
      vertex 17.2266 -31.5941 21.3403
      vertex 17.2096 -31.6047 21.3111
    endloop
  endfacet
  facet normal 0.837666 0.523434 0.155986
    outer loop
      vertex 17.2693 -31.7443 21.2084
      vertex 17.274 -31.7413 21.1734
      vertex 17.1945 -31.6141 21.1734
    endloop
  endfacet
  facet normal 0.797714 0.498469 0.339383
    outer loop
      vertex 17.274 -31.7413 21.1734
      vertex 17.2048 -31.6077 21.14
      vertex 17.1945 -31.6141 21.1734
    endloop
  endfacet
  facet normal -0.529907 0.848056 -2.59116e-5
    outer loop
      vertex 17.1945 -31.6141 21.1734
      vertex 17.2048 -31.6077 21.14
      vertex 17.1469 -31.6439 21.1365
    endloop
  endfacet
  facet normal -0.529908 0.848055 -9.01278e-6
    outer loop
      vertex 17.2048 -31.6077 21.14
      vertex 17.1613 -31.6349 21.0985
      vertex 17.1469 -31.6439 21.1365
    endloop
  endfacet
  facet normal 0.52994 -0.848035 2.04092e-5
    outer loop
      vertex 17.289 -31.7319 21.3111
      vertex 17.3061 -31.7213 21.3403
      vertex 17.2586 -31.751 21.3736
    endloop
  endfacet
  facet normal 0.529908 -0.848055 -4.36204e-5
    outer loop
      vertex 17.3061 -31.7213 21.3403
      vertex 17.2824 -31.7361 21.4044
      vertex 17.2586 -31.751 21.3736
    endloop
  endfacet
  facet normal 0.698904 0.436716 -0.566403
    outer loop
      vertex 17.2096 -31.6047 21.3111
      vertex 17.2266 -31.5941 21.3403
      vertex 17.3061 -31.7213 21.3403
    endloop
  endfacet
  facet normal 0.595852 0.372322 -0.711573
    outer loop
      vertex 17.2266 -31.5941 21.3403
      vertex 17.3275 -31.7079 21.3653
      vertex 17.3061 -31.7213 21.3403
    endloop
  endfacet
  facet normal -0.712765 -0.445374 0.541856
    outer loop
      vertex 17.2395 -31.7629 21.3386
      vertex 17.2586 -31.751 21.3736
      vertex 17.16 -31.6357 21.3386
    endloop
  endfacet
  facet normal -0.712768 -0.445378 0.541849
    outer loop
      vertex 17.2586 -31.751 21.3736
      vertex 17.1791 -31.6238 21.3736
      vertex 17.16 -31.6357 21.3386
    endloop
  endfacet
  facet normal -0.774185 -0.483766 -0.408177
    outer loop
      vertex 17.1469 -31.6439 21.1365
      vertex 17.1613 -31.6349 21.0985
      vertex 17.2264 -31.7711 21.1365
    endloop
  endfacet
  facet normal -0.774185 -0.483766 -0.408177
    outer loop
      vertex 17.1613 -31.6349 21.0985
      vertex 17.2408 -31.7621 21.0985
      vertex 17.2264 -31.7711 21.1365
    endloop
  endfacet
  facet normal 0.797714 0.498469 0.339383
    outer loop
      vertex 17.274 -31.7413 21.1734
      vertex 17.2842 -31.7349 21.14
      vertex 17.2048 -31.6077 21.14
    endloop
  endfacet
  facet normal 0.729136 0.455617 0.51066
    outer loop
      vertex 17.2842 -31.7349 21.14
      vertex 17.2201 -31.5981 21.1094
      vertex 17.2048 -31.6077 21.14
    endloop
  endfacet
  facet normal -0.52991 0.848054 3.9673e-5
    outer loop
      vertex 17.16 -31.6357 21.3386
      vertex 17.1791 -31.6238 21.3736
      vertex 17.2266 -31.5941 21.3403
    endloop
  endfacet
  facet normal -0.529904 0.848058 5.25034e-5
    outer loop
      vertex 17.1791 -31.6238 21.3736
      vertex 17.248 -31.5807 21.3653
      vertex 17.2266 -31.5941 21.3403
    endloop
  endfacet
  facet normal -0.529981 0.84801 1.27775e-5
    outer loop
      vertex 17.2048 -31.6077 21.14
      vertex 17.2201 -31.5981 21.1094
      vertex 17.1809 -31.6227 21.0638
    endloop
  endfacet
  facet normal -0.529961 0.848022 -1.04117e-5
    outer loop
      vertex 17.2201 -31.5981 21.1094
      vertex 17.205 -31.6076 21.0333
      vertex 17.1809 -31.6227 21.0638
    endloop
  endfacet
  facet normal 0.5299 -0.84806 -4.79047e-5
    outer loop
      vertex 17.3061 -31.7213 21.3403
      vertex 17.3275 -31.7079 21.3653
      vertex 17.2824 -31.7361 21.4044
    endloop
  endfacet
  facet normal 0.529916 -0.84805 -2.1689e-5
    outer loop
      vertex 17.3275 -31.7079 21.3653
      vertex 17.3101 -31.7188 21.4302
      vertex 17.2824 -31.7361 21.4044
    endloop
  endfacet
  facet normal -0.627301 -0.391973 0.672942
    outer loop
      vertex 17.2586 -31.751 21.3736
      vertex 17.2824 -31.7361 21.4044
      vertex 17.1791 -31.6238 21.3736
    endloop
  endfacet
  facet normal -0.627286 -0.391953 0.672968
    outer loop
      vertex 17.2824 -31.7361 21.4044
      vertex 17.2029 -31.6089 21.4044
      vertex 17.1791 -31.6238 21.3736
    endloop
  endfacet
  facet normal 0.595852 0.372322 -0.711573
    outer loop
      vertex 17.2266 -31.5941 21.3403
      vertex 17.248 -31.5807 21.3653
      vertex 17.3275 -31.7079 21.3653
    endloop
  endfacet
  facet normal 0.471358 0.294532 -0.831308
    outer loop
      vertex 17.248 -31.5807 21.3653
      vertex 17.3526 -31.6923 21.385
      vertex 17.3275 -31.7079 21.3653
    endloop
  endfacet
  facet normal 0.729163 0.45562 0.510619
    outer loop
      vertex 17.2842 -31.7349 21.14
      vertex 17.2996 -31.7253 21.1094
      vertex 17.2201 -31.5981 21.1094
    endloop
  endfacet
  facet normal 0.634422 0.396421 0.663595
    outer loop
      vertex 17.2996 -31.7253 21.1094
      vertex 17.2401 -31.5856 21.0829
      vertex 17.2201 -31.5981 21.1094
    endloop
  endfacet
  facet normal -0.529898 0.848061 -2.33104e-5
    outer loop
      vertex 17.1809 -31.6227 21.0638
      vertex 17.1613 -31.6349 21.0985
      vertex 17.2048 -31.6077 21.14
    endloop
  endfacet
  facet normal -0.706588 -0.441527 -0.55298
    outer loop
      vertex 17.1613 -31.6349 21.0985
      vertex 17.1809 -31.6227 21.0638
      vertex 17.2408 -31.7621 21.0985
    endloop
  endfacet
  facet normal -0.706545 -0.441523 -0.553039
    outer loop
      vertex 17.1809 -31.6227 21.0638
      vertex 17.2604 -31.7499 21.0638
      vertex 17.2408 -31.7621 21.0985
    endloop
  endfacet
  facet normal -0.529913 0.848052 -5.38158e-5
    outer loop
      vertex 17.1791 -31.6238 21.3736
      vertex 17.2029 -31.6089 21.4044
      vertex 17.248 -31.5807 21.3653
    endloop
  endfacet
  facet normal -0.529903 0.848059 -3.71065e-5
    outer loop
      vertex 17.2029 -31.6089 21.4044
      vertex 17.2307 -31.5915 21.4302
      vertex 17.248 -31.5807 21.3653
    endloop
  endfacet
  facet normal -0.529913 0.848052 -4.10942e-5
    outer loop
      vertex 17.248 -31.5807 21.3653
      vertex 17.2307 -31.5915 21.4302
      vertex 17.2731 -31.565 21.385
    endloop
  endfacet
  facet normal -0.529872 0.848078 1.28103e-5
    outer loop
      vertex 17.2307 -31.5915 21.4302
      vertex 17.2616 -31.5722 21.4502
      vertex 17.2731 -31.565 21.385
    endloop
  endfacet
  facet normal -0.529913 0.848052 2.81616e-6
    outer loop
      vertex 17.2731 -31.565 21.385
      vertex 17.2616 -31.5722 21.4502
      vertex 17.3008 -31.5477 21.3989
    endloop
  endfacet
  facet normal -0.529914 0.848051 1.43998e-6
    outer loop
      vertex 17.2616 -31.5722 21.4502
      vertex 17.295 -31.5513 21.464
      vertex 17.3008 -31.5477 21.3989
    endloop
  endfacet
  facet normal -0.529978 0.848011 -6.55171e-6
    outer loop
      vertex 17.3008 -31.5477 21.3989
      vertex 17.295 -31.5513 21.464
      vertex 17.3303 -31.5293 21.4063
    endloop
  endfacet
  facet normal -0.529963 0.848021 6.44844e-6
    outer loop
      vertex 17.295 -31.5513 21.464
      vertex 17.3298 -31.5296 21.471
      vertex 17.3303 -31.5293 21.4063
    endloop
  endfacet
  facet normal -0.619589 -0.387184 -0.682787
    outer loop
      vertex 17.1809 -31.6227 21.0638
      vertex 17.205 -31.6076 21.0333
      vertex 17.2604 -31.7499 21.0638
    endloop
  endfacet
  facet normal -0.619634 -0.387192 -0.682741
    outer loop
      vertex 17.205 -31.6076 21.0333
      vertex 17.2845 -31.7348 21.0333
      vertex 17.2604 -31.7499 21.0638
    endloop
  endfacet
  facet normal -0.529836 0.8481 -4.50836e-5
    outer loop
      vertex 17.2201 -31.5981 21.1094
      vertex 17.2401 -31.5856 21.0829
      vertex 17.205 -31.6076 21.0333
    endloop
  endfacet
  facet normal -0.529922 0.848046 4.00328e-5
    outer loop
      vertex 17.2401 -31.5856 21.0829
      vertex 17.233 -31.5901 21.008
      vertex 17.205 -31.6076 21.0333
    endloop
  endfacet
  facet normal 0.634388 0.396414 0.663633
    outer loop
      vertex 17.2996 -31.7253 21.1094
      vertex 17.3196 -31.7128 21.0829
      vertex 17.2401 -31.5856 21.0829
    endloop
  endfacet
  facet normal 0.516981 0.323049 0.792698
    outer loop
      vertex 17.3196 -31.7128 21.0829
      vertex 17.264 -31.5707 21.0612
      vertex 17.2401 -31.5856 21.0829
    endloop
  endfacet
  facet normal 0.52992 -0.848048 -2.03816e-5
    outer loop
      vertex 17.3275 -31.7079 21.3653
      vertex 17.3526 -31.6923 21.385
      vertex 17.3101 -31.7188 21.4302
    endloop
  endfacet
  facet normal 0.529938 -0.848036 3.26327e-6
    outer loop
      vertex 17.3526 -31.6923 21.385
      vertex 17.3411 -31.6994 21.4502
      vertex 17.3101 -31.7188 21.4302
    endloop
  endfacet
  facet normal -0.52469 -0.327847 0.785632
    outer loop
      vertex 17.2824 -31.7361 21.4044
      vertex 17.3101 -31.7188 21.4302
      vertex 17.2029 -31.6089 21.4044
    endloop
  endfacet
  facet normal -0.524702 -0.327862 0.785617
    outer loop
      vertex 17.3101 -31.7188 21.4302
      vertex 17.2307 -31.5915 21.4302
      vertex 17.2029 -31.6089 21.4044
    endloop
  endfacet
  facet normal 0.471373 0.294548 -0.831294
    outer loop
      vertex 17.248 -31.5807 21.3653
      vertex 17.2731 -31.565 21.385
      vertex 17.3526 -31.6923 21.385
    endloop
  endfacet
  facet normal 0.329987 0.206199 -0.92119
    outer loop
      vertex 17.2731 -31.565 21.385
      vertex 17.3803 -31.6749 21.3989
      vertex 17.3526 -31.6923 21.385
    endloop
  endfacet
  facet normal -0.515733 -0.322267 -0.793828
    outer loop
      vertex 17.205 -31.6076 21.0333
      vertex 17.233 -31.5901 21.008
      vertex 17.2845 -31.7348 21.0333
    endloop
  endfacet
  facet normal -0.515752 -0.322271 -0.793814
    outer loop
      vertex 17.233 -31.5901 21.008
      vertex 17.3125 -31.7173 21.008
      vertex 17.2845 -31.7348 21.0333
    endloop
  endfacet
  facet normal -0.529996 0.848 4.97457e-5
    outer loop
      vertex 17.2401 -31.5856 21.0829
      vertex 17.264 -31.5707 21.0612
      vertex 17.233 -31.5901 21.008
    endloop
  endfacet
  facet normal -0.529928 0.848042 -5.08005e-6
    outer loop
      vertex 17.264 -31.5707 21.0612
      vertex 17.2642 -31.5706 20.9884
      vertex 17.233 -31.5901 21.008
    endloop
  endfacet
  facet normal 0.529913 -0.848052 -1.65321e-6
    outer loop
      vertex 17.3526 -31.6923 21.385
      vertex 17.3803 -31.6749 21.3989
      vertex 17.3745 -31.6786 21.464
    endloop
  endfacet
  facet normal 0.529942 -0.848034 1.96049e-6
    outer loop
      vertex 17.3803 -31.6749 21.3989
      vertex 17.4093 -31.6568 21.471
      vertex 17.3745 -31.6786 21.464
    endloop
  endfacet
  facet normal -0.407719 -0.254765 0.876847
    outer loop
      vertex 17.3101 -31.7188 21.4302
      vertex 17.3411 -31.6994 21.4502
      vertex 17.2307 -31.5915 21.4302
    endloop
  endfacet
  facet normal -0.407732 -0.254781 0.876836
    outer loop
      vertex 17.3411 -31.6994 21.4502
      vertex 17.2616 -31.5722 21.4502
      vertex 17.2307 -31.5915 21.4302
    endloop
  endfacet
  facet normal 0.329987 0.206199 -0.92119
    outer loop
      vertex 17.2731 -31.565 21.385
      vertex 17.3008 -31.5477 21.3989
      vertex 17.3803 -31.6749 21.3989
    endloop
  endfacet
  facet normal 0.176825 0.110493 -0.978021
    outer loop
      vertex 17.3008 -31.5477 21.3989
      vertex 17.4098 -31.6565 21.4063
      vertex 17.3803 -31.6749 21.3989
    endloop
  endfacet
  facet normal -0.397834 -0.24859 -0.883137
    outer loop
      vertex 17.233 -31.5901 21.008
      vertex 17.2642 -31.5706 20.9884
      vertex 17.3125 -31.7173 21.008
    endloop
  endfacet
  facet normal -0.397818 -0.248586 -0.883145
    outer loop
      vertex 17.2642 -31.5706 20.9884
      vertex 17.3437 -31.6978 20.9884
      vertex 17.3125 -31.7173 21.008
    endloop
  endfacet
  facet normal 0.516987 0.32305 0.792694
    outer loop
      vertex 17.3196 -31.7128 21.0829
      vertex 17.3435 -31.6979 21.0612
      vertex 17.264 -31.5707 21.0612
    endloop
  endfacet
  facet normal 0.380929 0.238032 0.893439
    outer loop
      vertex 17.3435 -31.6979 21.0612
      vertex 17.2909 -31.5539 21.0453
      vertex 17.264 -31.5707 21.0612
    endloop
  endfacet
  facet normal -0.529827 0.848106 -4.58098e-6
    outer loop
      vertex 17.264 -31.5707 21.0612
      vertex 17.2909 -31.5539 21.0453
      vertex 17.2642 -31.5706 20.9884
    endloop
  endfacet
  facet normal -0.529866 0.848081 2.09435e-5
    outer loop
      vertex 17.2909 -31.5539 21.0453
      vertex 17.2978 -31.5496 20.9752
      vertex 17.2642 -31.5706 20.9884
    endloop
  endfacet
  facet normal 0.529898 -0.848062 2.64447e-5
    outer loop
      vertex 17.3803 -31.6749 21.3989
      vertex 17.4098 -31.6565 21.4063
      vertex 17.4093 -31.6568 21.471
    endloop
  endfacet
  facet normal 0.529915 -0.848051 -2.42807e-6
    outer loop
      vertex 17.3745 -31.6786 21.464
      vertex 17.3411 -31.6994 21.4502
      vertex 17.3526 -31.6923 21.385
    endloop
  endfacet
  facet normal -0.279652 -0.174747 0.944065
    outer loop
      vertex 17.3411 -31.6994 21.4502
      vertex 17.3745 -31.6786 21.464
      vertex 17.2616 -31.5722 21.4502
    endloop
  endfacet
  facet normal -0.279652 -0.174747 0.944065
    outer loop
      vertex 17.3745 -31.6786 21.464
      vertex 17.295 -31.5513 21.464
      vertex 17.2616 -31.5722 21.4502
    endloop
  endfacet
  facet normal -0.143917 -0.0899296 0.985495
    outer loop
      vertex 17.3745 -31.6786 21.464
      vertex 17.4093 -31.6568 21.471
      vertex 17.295 -31.5513 21.464
    endloop
  endfacet
  facet normal -0.143921 -0.0899345 0.985494
    outer loop
      vertex 17.4093 -31.6568 21.471
      vertex 17.3298 -31.5296 21.471
      vertex 17.295 -31.5513 21.464
    endloop
  endfacet
  facet normal 0.176817 0.110485 -0.978023
    outer loop
      vertex 17.3008 -31.5477 21.3989
      vertex 17.3303 -31.5293 21.4063
      vertex 17.4098 -31.6565 21.4063
    endloop
  endfacet
  facet normal 0.380907 0.238025 0.893451
    outer loop
      vertex 17.3435 -31.6979 21.0612
      vertex 17.3704 -31.6811 21.0453
      vertex 17.2909 -31.5539 21.0453
    endloop
  endfacet
  facet normal 0.231262 0.144513 0.962099
    outer loop
      vertex 17.3704 -31.6811 21.0453
      vertex 17.3199 -31.5358 21.0356
      vertex 17.2909 -31.5539 21.0453
    endloop
  endfacet
  facet normal -0.268999 -0.16809 -0.948359
    outer loop
      vertex 17.2642 -31.5706 20.9884
      vertex 17.2978 -31.5496 20.9752
      vertex 17.3437 -31.6978 20.9884
    endloop
  endfacet
  facet normal -0.268984 -0.168086 -0.948364
    outer loop
      vertex 17.2978 -31.5496 20.9752
      vertex 17.3772 -31.6768 20.9752
      vertex 17.3437 -31.6978 20.9884
    endloop
  endfacet
  facet normal 0.848025 0.529891 0.00834581
    outer loop
      vertex 17.4098 -31.6565 21.4063
      vertex 17.3303 -31.5293 21.4063
      vertex 17.3298 -31.5296 21.471
    endloop
  endfacet
  facet normal 0.848012 0.529912 0.00829095
    outer loop
      vertex 17.4093 -31.6568 21.471
      vertex 17.4098 -31.6565 21.4063
      vertex 17.3298 -31.5296 21.471
    endloop
  endfacet
  facet normal -0.529922 0.848046 1.32659e-5
    outer loop
      vertex 17.2909 -31.5539 21.0453
      vertex 17.3199 -31.5358 21.0356
      vertex 17.2978 -31.5496 20.9752
    endloop
  endfacet
  facet normal -0.52995 0.848029 2.76464e-5
    outer loop
      vertex 17.3199 -31.5358 21.0356
      vertex 17.3326 -31.5278 20.9687
      vertex 17.2978 -31.5496 20.9752
    endloop
  endfacet
  facet normal 0.231262 0.144513 0.962099
    outer loop
      vertex 17.3704 -31.6811 21.0453
      vertex 17.3994 -31.663 21.0356
      vertex 17.3199 -31.5358 21.0356
    endloop
  endfacet
  facet normal 0.0732612 0.0457802 0.996261
    outer loop
      vertex 17.3994 -31.663 21.0356
      vertex 17.3499 -31.5171 21.0325
      vertex 17.3199 -31.5358 21.0356
    endloop
  endfacet
  facet normal -0.132733 -0.0829434 -0.987675
    outer loop
      vertex 17.2978 -31.5496 20.9752
      vertex 17.3326 -31.5278 20.9687
      vertex 17.3772 -31.6768 20.9752
    endloop
  endfacet
  facet normal -0.13274 -0.0829456 -0.987674
    outer loop
      vertex 17.3326 -31.5278 20.9687
      vertex 17.4121 -31.655 20.9687
      vertex 17.3772 -31.6768 20.9752
    endloop
  endfacet
  facet normal -0.529964 0.84802 2.40376e-5
    outer loop
      vertex 17.3199 -31.5358 21.0356
      vertex 17.3499 -31.5171 21.0325
      vertex 17.3326 -31.5278 20.9687
    endloop
  endfacet
  facet normal -0.529947 0.848031 1.75756e-5
    outer loop
      vertex 17.3499 -31.5171 21.0325
      vertex 17.368 -31.5057 20.969
      vertex 17.3326 -31.5278 20.9687
    endloop
  endfacet
  facet normal 0.0732659 0.0457818 0.996261
    outer loop
      vertex 17.3994 -31.663 21.0356
      vertex 17.4294 -31.6443 21.0325
      vertex 17.3499 -31.5171 21.0325
    endloop
  endfacet
  facet normal -0.0873251 -0.054567 0.994684
    outer loop
      vertex 17.4294 -31.6443 21.0325
      vertex 17.3798 -31.4983 21.0362
      vertex 17.3499 -31.5171 21.0325
    endloop
  endfacet
  facet normal 0.00705156 0.00440632 -0.999965
    outer loop
      vertex 17.3326 -31.5278 20.9687
      vertex 17.368 -31.5057 20.969
      vertex 17.4121 -31.655 20.9687
    endloop
  endfacet
  facet normal 0.00705195 0.00440644 -0.999965
    outer loop
      vertex 17.368 -31.5057 20.969
      vertex 17.4475 -31.6329 20.969
      vertex 17.4121 -31.655 20.9687
    endloop
  endfacet
  facet normal -0.529902 0.848059 3.51766e-5
    outer loop
      vertex 17.3499 -31.5171 21.0325
      vertex 17.3798 -31.4983 21.0362
      vertex 17.368 -31.5057 20.969
    endloop
  endfacet
  facet normal -0.529889 0.848067 3.19842e-5
    outer loop
      vertex 17.3798 -31.4983 21.0362
      vertex 17.4028 -31.484 20.9763
      vertex 17.368 -31.5057 20.969
    endloop
  endfacet
  facet normal 0.529898 -0.848061 1.29291e-5
    outer loop
      vertex 17.4593 -31.6256 21.0362
      vertex 17.4294 -31.6443 21.0325
      vertex 17.4475 -31.6329 20.969
    endloop
  endfacet
  facet normal -0.0873251 -0.054567 0.994684
    outer loop
      vertex 17.4294 -31.6443 21.0325
      vertex 17.4593 -31.6256 21.0362
      vertex 17.3798 -31.4983 21.0362
    endloop
  endfacet
  facet normal -0.244788 -0.152961 0.957435
    outer loop
      vertex 17.4593 -31.6256 21.0362
      vertex 17.4087 -31.4803 21.0464
      vertex 17.3798 -31.4983 21.0362
    endloop
  endfacet
  facet normal 0.146686 0.0916572 -0.984928
    outer loop
      vertex 17.368 -31.5057 20.969
      vertex 17.4028 -31.484 20.9763
      vertex 17.4475 -31.6329 20.969
    endloop
  endfacet
  facet normal 0.146684 0.0916567 -0.984928
    outer loop
      vertex 17.4028 -31.484 20.9763
      vertex 17.4823 -31.6112 20.9763
      vertex 17.4475 -31.6329 20.969
    endloop
  endfacet
  facet normal -0.52989 0.848067 3.54106e-5
    outer loop
      vertex 17.3798 -31.4983 21.0362
      vertex 17.4087 -31.4803 21.0464
      vertex 17.4361 -31.4632 20.9901
    endloop
  endfacet
  facet normal -0.529922 0.848046 1.32447e-5
    outer loop
      vertex 17.4087 -31.4803 21.0464
      vertex 17.467 -31.4439 21.0103
      vertex 17.4361 -31.4632 20.9901
    endloop
  endfacet
  facet normal 0.529971 -0.848016 -4.94194e-6
    outer loop
      vertex 17.4475 -31.6329 20.969
      vertex 17.4823 -31.6112 20.9763
      vertex 17.4593 -31.6256 21.0362
    endloop
  endfacet
  facet normal 0.529984 -0.848008 1.77181e-6
    outer loop
      vertex 17.4823 -31.6112 20.9763
      vertex 17.4881 -31.6075 21.0464
      vertex 17.4593 -31.6256 21.0362
    endloop
  endfacet
  facet normal -0.244785 -0.15296 0.957436
    outer loop
      vertex 17.4593 -31.6256 21.0362
      vertex 17.4881 -31.6075 21.0464
      vertex 17.4087 -31.4803 21.0464
    endloop
  endfacet
  facet normal -0.393467 -0.245868 0.885851
    outer loop
      vertex 17.4881 -31.6075 21.0464
      vertex 17.4353 -31.4637 21.0629
      vertex 17.4087 -31.4803 21.0464
    endloop
  endfacet
  facet normal -0.529893 0.848065 3.01532e-5
    outer loop
      vertex 17.4361 -31.4632 20.9901
      vertex 17.4028 -31.484 20.9763
      vertex 17.3798 -31.4983 21.0362
    endloop
  endfacet
  facet normal 0.282315 0.176407 -0.942963
    outer loop
      vertex 17.4028 -31.484 20.9763
      vertex 17.4361 -31.4632 20.9901
      vertex 17.4823 -31.6112 20.9763
    endloop
  endfacet
  facet normal 0.282301 0.176403 -0.942968
    outer loop
      vertex 17.4361 -31.4632 20.9901
      vertex 17.5156 -31.5904 20.9901
      vertex 17.4823 -31.6112 20.9763
    endloop
  endfacet
  facet normal 0.410197 0.256322 -0.875236
    outer loop
      vertex 17.4361 -31.4632 20.9901
      vertex 17.467 -31.4439 21.0103
      vertex 17.5156 -31.5904 20.9901
    endloop
  endfacet
  facet normal 0.410181 0.256318 -0.875245
    outer loop
      vertex 17.467 -31.4439 21.0103
      vertex 17.5465 -31.5711 21.0103
      vertex 17.5156 -31.5904 20.9901
    endloop
  endfacet
  facet normal -0.52995 0.848029 -4.93924e-5
    outer loop
      vertex 17.4087 -31.4803 21.0464
      vertex 17.4353 -31.4637 21.0629
      vertex 17.467 -31.4439 21.0103
    endloop
  endfacet
  facet normal -0.529924 0.848045 -2.73819e-5
    outer loop
      vertex 17.4353 -31.4637 21.0629
      vertex 17.4947 -31.4266 21.0362
      vertex 17.467 -31.4439 21.0103
    endloop
  endfacet
  facet normal 0.52995 -0.848029 5.65181e-6
    outer loop
      vertex 17.4823 -31.6112 20.9763
      vertex 17.5156 -31.5904 20.9901
      vertex 17.4881 -31.6075 21.0464
    endloop
  endfacet
  facet normal 0.5299 -0.84806 -2.85949e-5
    outer loop
      vertex 17.5156 -31.5904 20.9901
      vertex 17.5148 -31.5909 21.0629
      vertex 17.4881 -31.6075 21.0464
    endloop
  endfacet
  facet normal -0.393489 -0.245875 0.88584
    outer loop
      vertex 17.4881 -31.6075 21.0464
      vertex 17.5148 -31.5909 21.0629
      vertex 17.4353 -31.4637 21.0629
    endloop
  endfacet
  facet normal -0.528099 -0.329986 0.782445
    outer loop
      vertex 17.5148 -31.5909 21.0629
      vertex 17.4589 -31.4489 21.085
      vertex 17.4353 -31.4637 21.0629
    endloop
  endfacet
  facet normal 0.526915 0.329264 -0.783547
    outer loop
      vertex 17.467 -31.4439 21.0103
      vertex 17.4947 -31.4266 21.0362
      vertex 17.5465 -31.5711 21.0103
    endloop
  endfacet
  facet normal 0.52692 0.329265 -0.783543
    outer loop
      vertex 17.4947 -31.4266 21.0362
      vertex 17.5742 -31.5538 21.0362
      vertex 17.5465 -31.5711 21.0103
    endloop
  endfacet
  facet normal 0.529907 -0.848056 -2.84941e-5
    outer loop
      vertex 17.5156 -31.5904 20.9901
      vertex 17.5465 -31.5711 21.0103
      vertex 17.5148 -31.5909 21.0629
    endloop
  endfacet
  facet normal 0.529932 -0.84804 -7.5281e-6
    outer loop
      vertex 17.5465 -31.5711 21.0103
      vertex 17.5384 -31.5761 21.085
      vertex 17.5148 -31.5909 21.0629
    endloop
  endfacet
  facet normal -0.529897 0.848062 5.49777e-5
    outer loop
      vertex 17.4353 -31.4637 21.0629
      vertex 17.4589 -31.4489 21.085
      vertex 17.4947 -31.4266 21.0362
    endloop
  endfacet
  facet normal -0.529942 0.848034 9.564e-6
    outer loop
      vertex 17.4589 -31.4489 21.085
      vertex 17.5184 -31.4117 21.0671
      vertex 17.4947 -31.4266 21.0362
    endloop
  endfacet
  facet normal -0.52805 -0.329973 0.782484
    outer loop
      vertex 17.5148 -31.5909 21.0629
      vertex 17.5384 -31.5761 21.085
      vertex 17.4589 -31.4489 21.085
    endloop
  endfacet
  facet normal -0.64369 -0.402235 0.651053
    outer loop
      vertex 17.5384 -31.5761 21.085
      vertex 17.4785 -31.4367 21.112
      vertex 17.4589 -31.4489 21.085
    endloop
  endfacet
  facet normal 0.529848 -0.848092 -2.01397e-5
    outer loop
      vertex 17.5465 -31.5711 21.0103
      vertex 17.5742 -31.5538 21.0362
      vertex 17.5384 -31.5761 21.085
    endloop
  endfacet
  facet normal 0.529854 -0.848089 -1.44751e-5
    outer loop
      vertex 17.5742 -31.5538 21.0362
      vertex 17.558 -31.5639 21.112
      vertex 17.5384 -31.5761 21.085
    endloop
  endfacet
  facet normal 0.629162 0.393155 -0.67051
    outer loop
      vertex 17.4947 -31.4266 21.0362
      vertex 17.5184 -31.4117 21.0671
      vertex 17.5742 -31.5538 21.0362
    endloop
  endfacet
  facet normal 0.629162 0.393155 -0.67051
    outer loop
      vertex 17.5184 -31.4117 21.0671
      vertex 17.5979 -31.539 21.0671
      vertex 17.5742 -31.5538 21.0362
    endloop
  endfacet
  facet normal -0.529953 0.848027 -3.95216e-5
    outer loop
      vertex 17.4589 -31.4489 21.085
      vertex 17.4785 -31.4367 21.112
      vertex 17.5184 -31.4117 21.0671
    endloop
  endfacet
  facet normal -0.529922 0.848046 -1.75348e-6
    outer loop
      vertex 17.4785 -31.4367 21.112
      vertex 17.5374 -31.3998 21.1022
      vertex 17.5184 -31.4117 21.0671
    endloop
  endfacet
  facet normal -0.529917 0.84805 -2.66311e-5
    outer loop
      vertex 17.3937 -31.4896 21.3998
      vertex 17.3642 -31.5081 21.4066
      vertex 17.3637 -31.5084 21.4714
    endloop
  endfacet
  facet normal -0.162989 -0.101847 -0.981357
    outer loop
      vertex 17.3642 -31.5081 21.4066
      vertex 17.3937 -31.4896 21.3998
      vertex 17.4732 -31.6169 21.3998
    endloop
  endfacet
  facet normal -0.316931 -0.198041 -0.927542
    outer loop
      vertex 17.3937 -31.4896 21.3998
      vertex 17.5012 -31.5994 21.3865
      vertex 17.4732 -31.6169 21.3998
    endloop
  endfacet
  facet normal -0.162989 -0.101847 -0.981357
    outer loop
      vertex 17.4437 -31.6353 21.4066
      vertex 17.3642 -31.5081 21.4066
      vertex 17.4732 -31.6169 21.3998
    endloop
  endfacet
  facet normal -0.848018 -0.529902 -0.0083151
    outer loop
      vertex 17.3642 -31.5081 21.4066
      vertex 17.4437 -31.6353 21.4066
      vertex 17.4432 -31.6356 21.4714
    endloop
  endfacet
  facet normal -0.848024 -0.529894 -0.00829071
    outer loop
      vertex 17.3637 -31.5084 21.4714
      vertex 17.3642 -31.5081 21.4066
      vertex 17.4432 -31.6356 21.4714
    endloop
  endfacet
  facet normal 0.130004 0.081234 0.98818
    outer loop
      vertex 17.3637 -31.5084 21.4714
      vertex 17.4432 -31.6356 21.4714
      vertex 17.4781 -31.6138 21.465
    endloop
  endfacet
  facet normal 0.130008 0.0812384 0.988179
    outer loop
      vertex 17.3986 -31.4866 21.465
      vertex 17.3637 -31.5084 21.4714
      vertex 17.4781 -31.6138 21.465
    endloop
  endfacet
  facet normal -0.529882 0.848071 -6.19774e-6
    outer loop
      vertex 17.3637 -31.5084 21.4714
      vertex 17.3986 -31.4866 21.465
      vertex 17.3937 -31.4896 21.3998
    endloop
  endfacet
  facet normal -0.529977 0.848012 3.79266e-6
    outer loop
      vertex 17.3986 -31.4866 21.465
      vertex 17.4217 -31.4722 21.3865
      vertex 17.3937 -31.4896 21.3998
    endloop
  endfacet
  facet normal -0.316931 -0.198041 -0.927542
    outer loop
      vertex 17.3937 -31.4896 21.3998
      vertex 17.4217 -31.4722 21.3865
      vertex 17.5012 -31.5994 21.3865
    endloop
  endfacet
  facet normal -0.459579 -0.287178 -0.840426
    outer loop
      vertex 17.4217 -31.4722 21.3865
      vertex 17.5265 -31.5836 21.3673
      vertex 17.5012 -31.5994 21.3865
    endloop
  endfacet
  facet normal 0.529866 -0.848081 4.13718e-5
    outer loop
      vertex 17.4432 -31.6356 21.4714
      vertex 17.4437 -31.6353 21.4066
      vertex 17.4781 -31.6138 21.465
    endloop
  endfacet
  facet normal 0.529913 -0.848052 2.94129e-6
    outer loop
      vertex 17.4437 -31.6353 21.4066
      vertex 17.4732 -31.6169 21.3998
      vertex 17.4781 -31.6138 21.465
    endloop
  endfacet
  facet normal 0.529923 -0.848046 1.86065e-6
    outer loop
      vertex 17.4781 -31.6138 21.465
      vertex 17.4732 -31.6169 21.3998
      vertex 17.5117 -31.5928 21.4519
    endloop
  endfacet
  facet normal 0.529965 -0.84802 -4.06499e-5
    outer loop
      vertex 17.4732 -31.6169 21.3998
      vertex 17.5012 -31.5994 21.3865
      vertex 17.5117 -31.5928 21.4519
    endloop
  endfacet
  facet normal 0.529975 -0.848013 -4.29919e-5
    outer loop
      vertex 17.5117 -31.5928 21.4519
      vertex 17.5012 -31.5994 21.3865
      vertex 17.5429 -31.5733 21.4325
    endloop
  endfacet
  facet normal 0.529926 -0.848044 1.97121e-5
    outer loop
      vertex 17.5012 -31.5994 21.3865
      vertex 17.5265 -31.5836 21.3673
      vertex 17.5429 -31.5733 21.4325
    endloop
  endfacet
  facet normal 0.529897 -0.848062 2.97592e-5
    outer loop
      vertex 17.5429 -31.5733 21.4325
      vertex 17.5265 -31.5836 21.3673
      vertex 17.5711 -31.5557 21.4072
    endloop
  endfacet
  facet normal 0.529916 -0.84805 -4.46165e-7
    outer loop
      vertex 17.5265 -31.5836 21.3673
      vertex 17.5953 -31.5406 21.3769
      vertex 17.5711 -31.5557 21.4072
    endloop
  endfacet
  facet normal 0.266298 0.166402 0.949419
    outer loop
      vertex 17.4322 -31.4656 21.4519
      vertex 17.3986 -31.4866 21.465
      vertex 17.5117 -31.5928 21.4519
    endloop
  endfacet
  facet normal 0.266298 0.166402 0.949419
    outer loop
      vertex 17.3986 -31.4866 21.465
      vertex 17.4781 -31.6138 21.465
      vertex 17.5117 -31.5928 21.4519
    endloop
  endfacet
  facet normal -0.529914 0.848051 2.94184e-5
    outer loop
      vertex 17.3986 -31.4866 21.465
      vertex 17.4322 -31.4656 21.4519
      vertex 17.4217 -31.4722 21.3865
    endloop
  endfacet
  facet normal -0.529888 0.848067 2.3595e-5
    outer loop
      vertex 17.4322 -31.4656 21.4519
      vertex 17.4635 -31.4461 21.4325
      vertex 17.4217 -31.4722 21.3865
    endloop
  endfacet
  facet normal -0.52988 0.848073 1.26625e-5
    outer loop
      vertex 17.4217 -31.4722 21.3865
      vertex 17.4635 -31.4461 21.4325
      vertex 17.447 -31.4564 21.3673
    endloop
  endfacet
  facet normal -0.529937 0.848037 3.28607e-5
    outer loop
      vertex 17.4635 -31.4461 21.4325
      vertex 17.4916 -31.4285 21.4072
      vertex 17.447 -31.4564 21.3673
    endloop
  endfacet
  facet normal -0.529918 0.848049 3.13327e-6
    outer loop
      vertex 17.447 -31.4564 21.3673
      vertex 17.4916 -31.4285 21.4072
      vertex 17.4688 -31.4428 21.3427
    endloop
  endfacet
  facet normal -0.529956 0.848025 2.16949e-5
    outer loop
      vertex 17.4916 -31.4285 21.4072
      vertex 17.5158 -31.4134 21.3769
      vertex 17.4688 -31.4428 21.3427
    endloop
  endfacet
  facet normal -0.529909 0.848054 -6.7904e-5
    outer loop
      vertex 17.4688 -31.4428 21.3427
      vertex 17.5158 -31.4134 21.3769
      vertex 17.4862 -31.4319 21.3138
    endloop
  endfacet
  facet normal -0.529879 0.848073 -8.76619e-5
    outer loop
      vertex 17.5158 -31.4134 21.3769
      vertex 17.5354 -31.4011 21.3423
      vertex 17.4862 -31.4319 21.3138
    endloop
  endfacet
  facet normal -0.529945 0.848032 7.18317e-5
    outer loop
      vertex 17.4862 -31.4319 21.3138
      vertex 17.5354 -31.4011 21.3423
      vertex 17.4988 -31.424 21.2815
    endloop
  endfacet
  facet normal -0.529902 0.848059 3.58423e-5
    outer loop
      vertex 17.5354 -31.4011 21.3423
      vertex 17.5499 -31.392 21.3043
      vertex 17.4988 -31.424 21.2815
    endloop
  endfacet
  facet normal -0.529897 0.848062 1.80334e-5
    outer loop
      vertex 17.4988 -31.424 21.2815
      vertex 17.5499 -31.392 21.3043
      vertex 17.5059 -31.4196 21.247
    endloop
  endfacet
  facet normal -0.529903 0.848058 2.49794e-5
    outer loop
      vertex 17.5499 -31.392 21.3043
      vertex 17.559 -31.3864 21.264
      vertex 17.5059 -31.4196 21.247
    endloop
  endfacet
  facet normal -0.5299 0.84806 1.13764e-5
    outer loop
      vertex 17.5059 -31.4196 21.247
      vertex 17.559 -31.3864 21.264
      vertex 17.5074 -31.4186 21.2115
    endloop
  endfacet
  facet normal -0.529896 0.848062 6.49719e-6
    outer loop
      vertex 17.559 -31.3864 21.264
      vertex 17.5622 -31.3844 21.2225
      vertex 17.5074 -31.4186 21.2115
    endloop
  endfacet
  facet normal -0.529889 0.848067 -4.63855e-5
    outer loop
      vertex 17.5074 -31.4186 21.2115
      vertex 17.5622 -31.3844 21.2225
      vertex 17.5032 -31.4213 21.1764
    endloop
  endfacet
  facet normal -0.529922 0.848047 1.23651e-5
    outer loop
      vertex 17.5622 -31.3844 21.2225
      vertex 17.5597 -31.386 21.181
      vertex 17.5032 -31.4213 21.1764
    endloop
  endfacet
  facet normal -0.52992 0.848048 -1.77418e-5
    outer loop
      vertex 17.5032 -31.4213 21.1764
      vertex 17.5597 -31.386 21.181
      vertex 17.5513 -31.3912 21.1405
    endloop
  endfacet
  facet normal -0.459565 -0.287162 -0.840439
    outer loop
      vertex 17.4217 -31.4722 21.3865
      vertex 17.447 -31.4564 21.3673
      vertex 17.5265 -31.5836 21.3673
    endloop
  endfacet
  facet normal -0.585716 -0.365989 -0.72318
    outer loop
      vertex 17.447 -31.4564 21.3673
      vertex 17.5482 -31.57 21.3427
      vertex 17.5265 -31.5836 21.3673
    endloop
  endfacet
  facet normal 0.395295 0.247009 0.884719
    outer loop
      vertex 17.5117 -31.5928 21.4519
      vertex 17.5429 -31.5733 21.4325
      vertex 17.4322 -31.4656 21.4519
    endloop
  endfacet
  facet normal 0.395298 0.247012 0.884717
    outer loop
      vertex 17.5429 -31.5733 21.4325
      vertex 17.4635 -31.4461 21.4325
      vertex 17.4322 -31.4656 21.4519
    endloop
  endfacet
  facet normal 0.529917 -0.84805 -4.73898e-6
    outer loop
      vertex 17.5265 -31.5836 21.3673
      vertex 17.5482 -31.57 21.3427
      vertex 17.5953 -31.5406 21.3769
    endloop
  endfacet
  facet normal 0.529893 -0.848065 4.16147e-5
    outer loop
      vertex 17.5482 -31.57 21.3427
      vertex 17.6149 -31.5283 21.3423
      vertex 17.5953 -31.5406 21.3769
    endloop
  endfacet
  facet normal 0.513565 0.320914 0.79578
    outer loop
      vertex 17.5429 -31.5733 21.4325
      vertex 17.5711 -31.5557 21.4072
      vertex 17.4635 -31.4461 21.4325
    endloop
  endfacet
  facet normal 0.51355 0.320895 0.795797
    outer loop
      vertex 17.5711 -31.5557 21.4072
      vertex 17.4916 -31.4285 21.4072
      vertex 17.4635 -31.4461 21.4325
    endloop
  endfacet
  facet normal -0.585716 -0.365989 -0.72318
    outer loop
      vertex 17.447 -31.4564 21.3673
      vertex 17.4688 -31.4428 21.3427
      vertex 17.5482 -31.57 21.3427
    endloop
  endfacet
  facet normal -0.690833 -0.431672 -0.580009
    outer loop
      vertex 17.4688 -31.4428 21.3427
      vertex 17.5657 -31.5591 21.3138
      vertex 17.5482 -31.57 21.3427
    endloop
  endfacet
  facet normal 0.529892 -0.848065 -5.55352e-5
    outer loop
      vertex 17.5482 -31.57 21.3427
      vertex 17.5657 -31.5591 21.3138
      vertex 17.6149 -31.5283 21.3423
    endloop
  endfacet
  facet normal 0.529898 -0.848061 -6.93532e-5
    outer loop
      vertex 17.5657 -31.5591 21.3138
      vertex 17.6294 -31.5192 21.3043
      vertex 17.6149 -31.5283 21.3423
    endloop
  endfacet
  facet normal 0.617679 0.385961 0.685206
    outer loop
      vertex 17.5711 -31.5557 21.4072
      vertex 17.5953 -31.5406 21.3769
      vertex 17.4916 -31.4285 21.4072
    endloop
  endfacet
  facet normal 0.617703 0.385994 0.685165
    outer loop
      vertex 17.5953 -31.5406 21.3769
      vertex 17.5158 -31.4134 21.3769
      vertex 17.4916 -31.4285 21.4072
    endloop
  endfacet
  facet normal 0.705026 0.440561 0.555737
    outer loop
      vertex 17.5953 -31.5406 21.3769
      vertex 17.6149 -31.5283 21.3423
      vertex 17.5158 -31.4134 21.3769
    endloop
  endfacet
  facet normal 0.705006 0.440528 0.555789
    outer loop
      vertex 17.6149 -31.5283 21.3423
      vertex 17.5354 -31.4011 21.3423
      vertex 17.5158 -31.4134 21.3769
    endloop
  endfacet
  facet normal -0.690849 -0.431695 -0.579972
    outer loop
      vertex 17.4688 -31.4428 21.3427
      vertex 17.4862 -31.4319 21.3138
      vertex 17.5657 -31.5591 21.3138
    endloop
  endfacet
  facet normal -0.771188 -0.481897 -0.415986
    outer loop
      vertex 17.4862 -31.4319 21.3138
      vertex 17.5782 -31.5512 21.2815
      vertex 17.5657 -31.5591 21.3138
    endloop
  endfacet
  facet normal 0.529926 -0.848044 7.07399e-6
    outer loop
      vertex 17.5742 -31.5538 21.0362
      vertex 17.5979 -31.539 21.0671
      vertex 17.558 -31.5639 21.112
    endloop
  endfacet
  facet normal 0.529938 -0.848036 2.17161e-5
    outer loop
      vertex 17.5979 -31.539 21.0671
      vertex 17.5729 -31.5545 21.1428
      vertex 17.558 -31.5639 21.112
    endloop
  endfacet
  facet normal -0.643695 -0.402237 0.651047
    outer loop
      vertex 17.5384 -31.5761 21.085
      vertex 17.558 -31.5639 21.112
      vertex 17.4785 -31.4367 21.112
    endloop
  endfacet
  facet normal -0.736245 -0.46007 0.496265
    outer loop
      vertex 17.558 -31.5639 21.112
      vertex 17.4934 -31.4273 21.1428
      vertex 17.4785 -31.4367 21.112
    endloop
  endfacet
  facet normal 0.714269 0.446337 -0.539077
    outer loop
      vertex 17.5184 -31.4117 21.0671
      vertex 17.5374 -31.3998 21.1022
      vertex 17.5979 -31.539 21.0671
    endloop
  endfacet
  facet normal 0.714288 0.446338 -0.53905
    outer loop
      vertex 17.5374 -31.3998 21.1022
      vertex 17.6169 -31.5271 21.1022
      vertex 17.5979 -31.539 21.0671
    endloop
  endfacet
  facet normal -0.529925 0.848044 -3.03028e-5
    outer loop
      vertex 17.4785 -31.4367 21.112
      vertex 17.4934 -31.4273 21.1428
      vertex 17.5374 -31.3998 21.1022
    endloop
  endfacet
  facet normal -0.529901 0.84806 7.13995e-6
    outer loop
      vertex 17.4934 -31.4273 21.1428
      vertex 17.5513 -31.3912 21.1405
      vertex 17.5374 -31.3998 21.1022
    endloop
  endfacet
  facet normal 0.773017 0.483025 0.411257
    outer loop
      vertex 17.6149 -31.5283 21.3423
      vertex 17.6294 -31.5192 21.3043
      vertex 17.5354 -31.4011 21.3423
    endloop
  endfacet
  facet normal 0.773039 0.483076 0.411155
    outer loop
      vertex 17.6294 -31.5192 21.3043
      vertex 17.5499 -31.392 21.3043
      vertex 17.5354 -31.4011 21.3423
    endloop
  endfacet
  facet normal 0.529909 -0.848054 3.72718e-5
    outer loop
      vertex 17.5657 -31.5591 21.3138
      vertex 17.5782 -31.5512 21.2815
      vertex 17.6294 -31.5192 21.3043
    endloop
  endfacet
  facet normal 0.529911 -0.848053 3.14934e-5
    outer loop
      vertex 17.5782 -31.5512 21.2815
      vertex 17.6385 -31.5136 21.264
      vertex 17.6294 -31.5192 21.3043
    endloop
  endfacet
  facet normal -0.771186 -0.481892 -0.415995
    outer loop
      vertex 17.4862 -31.4319 21.3138
      vertex 17.4988 -31.424 21.2815
      vertex 17.5782 -31.5512 21.2815
    endloop
  endfacet
  facet normal -0.823873 -0.514815 -0.237061
    outer loop
      vertex 17.4988 -31.424 21.2815
      vertex 17.5854 -31.5468 21.247
      vertex 17.5782 -31.5512 21.2815
    endloop
  endfacet
  facet normal 0.529935 -0.848038 2.01961e-5
    outer loop
      vertex 17.5979 -31.539 21.0671
      vertex 17.6169 -31.5271 21.1022
      vertex 17.5729 -31.5545 21.1428
    endloop
  endfacet
  facet normal 0.529926 -0.848044 6.07316e-6
    outer loop
      vertex 17.6169 -31.5271 21.1022
      vertex 17.6308 -31.5184 21.1405
      vertex 17.5729 -31.5545 21.1428
    endloop
  endfacet
  facet normal 0.529926 -0.848044 2.93415e-5
    outer loop
      vertex 17.5729 -31.5545 21.1428
      vertex 17.6308 -31.5184 21.1405
      vertex 17.5827 -31.5485 21.1764
    endloop
  endfacet
  facet normal 0.529909 -0.848055 -3.39177e-6
    outer loop
      vertex 17.6308 -31.5184 21.1405
      vertex 17.6392 -31.5132 21.181
      vertex 17.5827 -31.5485 21.1764
    endloop
  endfacet
  facet normal 0.529908 -0.848055 1.51866e-5
    outer loop
      vertex 17.5827 -31.5485 21.1764
      vertex 17.6392 -31.5132 21.181
      vertex 17.5869 -31.5458 21.2115
    endloop
  endfacet
  facet normal 0.529907 -0.848056 1.26971e-5
    outer loop
      vertex 17.6392 -31.5132 21.181
      vertex 17.6417 -31.5116 21.2225
      vertex 17.5869 -31.5458 21.2115
    endloop
  endfacet
  facet normal 0.529919 -0.848048 -7.15269e-5
    outer loop
      vertex 17.5869 -31.5458 21.2115
      vertex 17.6417 -31.5116 21.2225
      vertex 17.5854 -31.5468 21.247
    endloop
  endfacet
  facet normal 0.529933 -0.84804 -2.6294e-5
    outer loop
      vertex 17.6417 -31.5116 21.2225
      vertex 17.6385 -31.5136 21.264
      vertex 17.5854 -31.5468 21.247
    endloop
  endfacet
  facet normal 0.529915 -0.848051 5.02903e-5
    outer loop
      vertex 17.5854 -31.5468 21.247
      vertex 17.6385 -31.5136 21.264
      vertex 17.5782 -31.5512 21.2815
    endloop
  endfacet
  facet normal 0.779817 0.487286 -0.392985
    outer loop
      vertex 17.5374 -31.3998 21.1022
      vertex 17.5513 -31.3912 21.1405
      vertex 17.6169 -31.5271 21.1022
    endloop
  endfacet
  facet normal 0.779834 0.487285 -0.392953
    outer loop
      vertex 17.5513 -31.3912 21.1405
      vertex 17.6308 -31.5184 21.1405
      vertex 17.6169 -31.5271 21.1022
    endloop
  endfacet
  facet normal -0.736245 -0.46007 0.496265
    outer loop
      vertex 17.558 -31.5639 21.112
      vertex 17.5729 -31.5545 21.1428
      vertex 17.4934 -31.4273 21.1428
    endloop
  endfacet
  facet normal -0.802378 -0.501395 0.323717
    outer loop
      vertex 17.5729 -31.5545 21.1428
      vertex 17.5032 -31.4213 21.1764
      vertex 17.4934 -31.4273 21.1428
    endloop
  endfacet
  facet normal -0.5299 0.84806 1.89619e-5
    outer loop
      vertex 17.4934 -31.4273 21.1428
      vertex 17.5032 -31.4213 21.1764
      vertex 17.5513 -31.3912 21.1405
    endloop
  endfacet
  facet normal 0.819922 0.512373 0.255347
    outer loop
      vertex 17.6294 -31.5192 21.3043
      vertex 17.6385 -31.5136 21.264
      vertex 17.5499 -31.392 21.3043
    endloop
  endfacet
  facet normal 0.819916 0.512342 0.255427
    outer loop
      vertex 17.6385 -31.5136 21.264
      vertex 17.559 -31.3864 21.264
      vertex 17.5499 -31.392 21.3043
    endloop
  endfacet
  facet normal -0.823866 -0.514784 -0.237156
    outer loop
      vertex 17.4988 -31.424 21.2815
      vertex 17.5059 -31.4196 21.247
      vertex 17.5854 -31.5468 21.247
    endloop
  endfacet
  facet normal -0.847008 -0.529244 -0.0497759
    outer loop
      vertex 17.5059 -31.4196 21.247
      vertex 17.5869 -31.5458 21.2115
      vertex 17.5854 -31.5468 21.247
    endloop
  endfacet
  facet normal 0.82409 0.514939 -0.236036
    outer loop
      vertex 17.5513 -31.3912 21.1405
      vertex 17.5597 -31.386 21.181
      vertex 17.6308 -31.5184 21.1405
    endloop
  endfacet
  facet normal 0.824078 0.514943 -0.236072
    outer loop
      vertex 17.5597 -31.386 21.181
      vertex 17.6392 -31.5132 21.181
      vertex 17.6308 -31.5184 21.1405
    endloop
  endfacet
  facet normal -0.802412 -0.501393 0.323637
    outer loop
      vertex 17.5729 -31.5545 21.1428
      vertex 17.5827 -31.5485 21.1764
      vertex 17.5032 -31.4213 21.1764
    endloop
  endfacet
  facet normal -0.83976 -0.52473 0.139503
    outer loop
      vertex 17.5827 -31.5485 21.1764
      vertex 17.5074 -31.4186 21.2115
      vertex 17.5032 -31.4213 21.1764
    endloop
  endfacet
  facet normal 0.844404 0.527645 0.0925883
    outer loop
      vertex 17.6385 -31.5136 21.264
      vertex 17.6417 -31.5116 21.2225
      vertex 17.559 -31.3864 21.264
    endloop
  endfacet
  facet normal 0.844407 0.527634 0.0926259
    outer loop
      vertex 17.6417 -31.5116 21.2225
      vertex 17.5622 -31.3844 21.2225
      vertex 17.559 -31.3864 21.264
    endloop
  endfacet
  facet normal -0.847 -0.529267 -0.0496761
    outer loop
      vertex 17.5059 -31.4196 21.247
      vertex 17.5074 -31.4186 21.2115
      vertex 17.5869 -31.5458 21.2115
    endloop
  endfacet
  facet normal -0.839749 -0.524736 0.139546
    outer loop
      vertex 17.5074 -31.4186 21.2115
      vertex 17.5827 -31.5485 21.1764
      vertex 17.5869 -31.5458 21.2115
    endloop
  endfacet
  facet normal 0.845801 0.528517 -0.0727413
    outer loop
      vertex 17.5597 -31.386 21.181
      vertex 17.5622 -31.3844 21.2225
      vertex 17.6392 -31.5132 21.181
    endloop
  endfacet
  facet normal 0.845808 0.52851 -0.0727036
    outer loop
      vertex 17.5622 -31.3844 21.2225
      vertex 17.6417 -31.5116 21.2225
      vertex 17.6392 -31.5132 21.181
    endloop
  endfacet
endsolid Onshape
