solid Onshape
  facet normal -0.991093 0.10459 -0.0824343
    outer loop
      vertex 18.966 -23.1268 8.89416
      vertex 18.9643 -23.1424 8.89402
      vertex 18.9594 -23.1268 8.97263
    endloop
  endfacet
  facet normal -0.991093 0.10459 -0.0824343
    outer loop
      vertex 18.9643 -23.1424 8.89402
      vertex 18.9578 -23.1424 8.97249
      vertex 18.9594 -23.1268 8.97263
    endloop
  endfacet
  facet normal 0.0828856 2.68177e-5 -0.996559
    outer loop
      vertex 18.9643 -23.1424 8.89402
      vertex 18.966 -23.1268 8.89416
      vertex 19.0094 -23.1253 8.89778
    endloop
  endfacet
  facet normal 0.0828869 -1.06864e-5 -0.996559
    outer loop
      vertex 18.966 -23.1268 8.89416
      vertex 18.9708 -23.1119 8.89456
      vertex 19.0094 -23.1253 8.89778
    endloop
  endfacet
  facet normal 0.0828737 -4.89911e-5 -0.99656
    outer loop
      vertex 19.0094 -23.1253 8.89778
      vertex 18.9708 -23.1119 8.89456
      vertex 18.9786 -23.0984 8.89521
    endloop
  endfacet
  facet normal 0.0828856 -2.68144e-5 -0.996559
    outer loop
      vertex 18.966 -23.1579 8.89416
      vertex 18.9643 -23.1424 8.89402
      vertex 19.0094 -23.1594 8.89778
    endloop
  endfacet
  facet normal 0.0828957 0 -0.996558
    outer loop
      vertex 18.9643 -23.1424 8.89402
      vertex 19.0094 -23.1253 8.89778
      vertex 19.0094 -23.1594 8.89778
    endloop
  endfacet
  facet normal -0.991094 -0.104578 -0.0824344
    outer loop
      vertex 18.9643 -23.1424 8.89402
      vertex 18.966 -23.1579 8.89416
      vertex 18.9578 -23.1424 8.97249
    endloop
  endfacet
  facet normal -0.991094 -0.104578 -0.0824344
    outer loop
      vertex 18.966 -23.1579 8.89416
      vertex 18.9594 -23.1579 8.97263
      vertex 18.9578 -23.1424 8.97249
    endloop
  endfacet
  facet normal -0.0828725 2.81956e-5 0.99656
    outer loop
      vertex 18.9578 -23.1424 8.97249
      vertex 18.9594 -23.1579 8.97263
      vertex 18.9959 -23.1531 8.97567
    endloop
  endfacet
  facet normal -0.0828695 5.3566e-6 0.99656
    outer loop
      vertex 18.9594 -23.1579 8.97263
      vertex 18.9642 -23.1728 8.97303
      vertex 18.9959 -23.1531 8.97567
    endloop
  endfacet
  facet normal -0.0828453 -3.38511e-5 0.996562
    outer loop
      vertex 18.9959 -23.1531 8.97567
      vertex 18.9642 -23.1728 8.97303
      vertex 19.0004 -23.1629 8.97604
    endloop
  endfacet
  facet normal -0.0828456 -3.2711e-5 0.996562
    outer loop
      vertex 18.9642 -23.1728 8.97303
      vertex 18.972 -23.1863 8.97368
      vertex 19.0004 -23.1629 8.97604
    endloop
  endfacet
  facet normal -0.0829082 4.37878e-5 0.996557
    outer loop
      vertex 19.0004 -23.1629 8.97604
      vertex 18.972 -23.1863 8.97368
      vertex 19.0075 -23.1711 8.97663
    endloop
  endfacet
  facet normal -0.0829002 2.48582e-5 0.996558
    outer loop
      vertex 18.972 -23.1863 8.97368
      vertex 18.9825 -23.198 8.97454
      vertex 19.0075 -23.1711 8.97663
    endloop
  endfacet
  facet normal -0.0828753 1.54145e-6 0.99656
    outer loop
      vertex 19.0075 -23.1711 8.97663
      vertex 18.9825 -23.198 8.97454
      vertex 19.0166 -23.177 8.97738
    endloop
  endfacet
  facet normal -0.0828523 -3.6177e-5 0.996562
    outer loop
      vertex 18.9825 -23.198 8.97454
      vertex 18.9951 -23.2072 8.97559
      vertex 19.0166 -23.177 8.97738
    endloop
  endfacet
  facet normal -0.082921 1.31224e-5 0.996556
    outer loop
      vertex 19.0166 -23.177 8.97738
      vertex 18.9951 -23.2072 8.97559
      vertex 19.0093 -23.2135 8.97678
    endloop
  endfacet
  facet normal -0.0828861 -2.67713e-5 0.996559
    outer loop
      vertex 18.9594 -23.1268 8.97263
      vertex 18.9578 -23.1424 8.97249
      vertex 18.9944 -23.1424 8.97554
    endloop
  endfacet
  facet normal -0.0828861 -2.02709e-5 0.996559
    outer loop
      vertex 18.9578 -23.1424 8.97249
      vertex 18.9959 -23.1531 8.97567
      vertex 18.9944 -23.1424 8.97554
    endloop
  endfacet
  facet normal -0.0828695 -5.35604e-6 0.99656
    outer loop
      vertex 18.9642 -23.1119 8.97303
      vertex 18.9594 -23.1268 8.97263
      vertex 18.9959 -23.1316 8.97567
    endloop
  endfacet
  facet normal -0.0828665 1.74539e-5 0.996561
    outer loop
      vertex 18.9594 -23.1268 8.97263
      vertex 18.9944 -23.1424 8.97554
      vertex 18.9959 -23.1316 8.97567
    endloop
  endfacet
  facet normal -0.947803 0.308957 -0.0788336
    outer loop
      vertex 18.9594 -23.1268 8.97263
      vertex 18.9642 -23.1119 8.97303
      vertex 18.966 -23.1268 8.89416
    endloop
  endfacet
  facet normal -0.947767 0.309064 -0.0788531
    outer loop
      vertex 18.9642 -23.1119 8.97303
      vertex 18.9708 -23.1119 8.89456
      vertex 18.966 -23.1268 8.89416
    endloop
  endfacet
  facet normal 0.0828869 1.06877e-5 -0.996559
    outer loop
      vertex 18.9708 -23.1728 8.89456
      vertex 18.966 -23.1579 8.89416
      vertex 19.0094 -23.1594 8.89778
    endloop
  endfacet
  facet normal -0.947757 -0.309099 -0.0788298
    outer loop
      vertex 18.966 -23.1579 8.89416
      vertex 18.9708 -23.1728 8.89456
      vertex 18.9594 -23.1579 8.97263
    endloop
  endfacet
  facet normal -0.94779 -0.308992 -0.078855
    outer loop
      vertex 18.9708 -23.1728 8.89456
      vertex 18.9642 -23.1728 8.97303
      vertex 18.9594 -23.1579 8.97263
    endloop
  endfacet
  facet normal 0.996559 0 0.0828904
    outer loop
      vertex 19.0094 -23.1594 8.89778
      vertex 19.0094 -23.1253 8.89778
      vertex 19.0054 -23.1253 8.94682
    endloop
  endfacet
  facet normal 0.996559 0 0.0828904
    outer loop
      vertex 19.0054 -23.1594 8.94682
      vertex 19.0094 -23.1594 8.89778
      vertex 19.0054 -23.1253 8.94682
    endloop
  endfacet
  facet normal 0.498244 0.866046 0.0414422
    outer loop
      vertex 19.0094 -23.1594 8.89778
      vertex 19.0054 -23.1594 8.94682
      vertex 19.0389 -23.1765 8.90022
    endloop
  endfacet
  facet normal 0.498221 0.86606 0.0414206
    outer loop
      vertex 19.0054 -23.1594 8.94682
      vertex 19.0348 -23.1765 8.94927
      vertex 19.0389 -23.1765 8.90022
    endloop
  endfacet
  facet normal 0.0828769 2.46599e-5 -0.99656
    outer loop
      vertex 19.0094 -23.1594 8.89778
      vertex 19.0389 -23.1765 8.90022
      vertex 19.0016 -23.2072 8.89712
    endloop
  endfacet
  facet normal 0.0829094 -1.49902e-5 -0.996557
    outer loop
      vertex 19.0389 -23.1765 8.90022
      vertex 19.0158 -23.2135 8.89831
      vertex 19.0016 -23.2072 8.89712
    endloop
  endfacet
  facet normal 0.0828769 -2.46585e-5 -0.99656
    outer loop
      vertex 19.0389 -23.1083 8.90022
      vertex 19.0094 -23.1253 8.89778
      vertex 19.0016 -23.0776 8.89712
    endloop
  endfacet
  facet normal 0.0828367 -3.13248e-5 -0.996563
    outer loop
      vertex 19.0094 -23.1253 8.89778
      vertex 18.989 -23.0868 8.89607
      vertex 19.0016 -23.0776 8.89712
    endloop
  endfacet
  facet normal 0.498327 -0.865999 0.0414295
    outer loop
      vertex 19.0094 -23.1253 8.89778
      vertex 19.0389 -23.1083 8.90022
      vertex 19.0348 -23.1083 8.94927
    endloop
  endfacet
  facet normal 0.498301 -0.866013 0.041447
    outer loop
      vertex 19.0054 -23.1253 8.94682
      vertex 19.0094 -23.1253 8.89778
      vertex 19.0348 -23.1083 8.94927
    endloop
  endfacet
  facet normal -0.986413 -0.142333 -0.082036
    outer loop
      vertex 18.9944 -23.1424 8.97554
      vertex 18.9959 -23.1531 8.97567
      vertex 18.9781 -23.1424 9.17171
    endloop
  endfacet
  facet normal -0.986413 -0.142333 -0.082036
    outer loop
      vertex 18.9959 -23.1531 8.97567
      vertex 18.9796 -23.1531 9.17184
      vertex 18.9781 -23.1424 9.17171
    endloop
  endfacet
  facet normal -0.986413 0.142333 -0.082036
    outer loop
      vertex 18.9959 -23.1316 8.97567
      vertex 18.9944 -23.1424 8.97554
      vertex 18.9796 -23.1316 9.17184
    endloop
  endfacet
  facet normal -0.986413 0.142333 -0.082036
    outer loop
      vertex 18.9944 -23.1424 8.97554
      vertex 18.9781 -23.1424 9.17171
      vertex 18.9796 -23.1316 9.17184
    endloop
  endfacet
  facet normal -0.906475 -0.415476 -0.0753879
    outer loop
      vertex 18.9959 -23.1531 8.97567
      vertex 19.0004 -23.1629 8.97604
      vertex 18.9796 -23.1531 9.17184
    endloop
  endfacet
  facet normal -0.906538 -0.415334 -0.0754018
    outer loop
      vertex 19.0004 -23.1629 8.97604
      vertex 18.9841 -23.1629 9.17221
      vertex 18.9796 -23.1531 9.17184
    endloop
  endfacet
  facet normal -0.0828456 3.27157e-5 0.996562
    outer loop
      vertex 18.972 -23.0984 8.97368
      vertex 18.9642 -23.1119 8.97303
      vertex 19.0004 -23.1218 8.97604
    endloop
  endfacet
  facet normal -0.0828453 3.38461e-5 0.996562
    outer loop
      vertex 18.9642 -23.1119 8.97303
      vertex 18.9959 -23.1316 8.97567
      vertex 19.0004 -23.1218 8.97604
    endloop
  endfacet
  facet normal -0.863069 0.499955 -0.0718064
    outer loop
      vertex 18.9642 -23.1119 8.97303
      vertex 18.972 -23.0984 8.97368
      vertex 18.9708 -23.1119 8.89456
    endloop
  endfacet
  facet normal -0.863069 0.499955 -0.0718064
    outer loop
      vertex 18.972 -23.0984 8.97368
      vertex 18.9786 -23.0984 8.89521
      vertex 18.9708 -23.1119 8.89456
    endloop
  endfacet
  facet normal -0.906504 0.415411 -0.0753989
    outer loop
      vertex 19.0004 -23.1218 8.97604
      vertex 18.9959 -23.1316 8.97567
      vertex 18.9841 -23.1218 9.17221
    endloop
  endfacet
  facet normal -0.906569 0.415269 -0.0753957
    outer loop
      vertex 18.9959 -23.1316 8.97567
      vertex 18.9796 -23.1316 9.17184
      vertex 18.9841 -23.1218 9.17221
    endloop
  endfacet
  facet normal 0.0828737 4.89867e-5 -0.99656
    outer loop
      vertex 18.9786 -23.1863 8.89521
      vertex 18.9708 -23.1728 8.89456
      vertex 19.0094 -23.1594 8.89778
    endloop
  endfacet
  facet normal -0.863099 -0.499903 -0.0718088
    outer loop
      vertex 18.9708 -23.1728 8.89456
      vertex 18.9786 -23.1863 8.89521
      vertex 18.9642 -23.1728 8.97303
    endloop
  endfacet
  facet normal -0.863099 -0.499903 -0.0718088
    outer loop
      vertex 18.9786 -23.1863 8.89521
      vertex 18.972 -23.1863 8.97368
      vertex 18.9642 -23.1728 8.97303
    endloop
  endfacet
  facet normal 0.0828889 0 -0.996559
    outer loop
      vertex 19.0054 -23.1253 8.94682
      vertex 19.0348 -23.1083 8.94927
      vertex 19.0054 -23.1594 8.94682
    endloop
  endfacet
  facet normal 0.0828928 -2.26415e-6 -0.996558
    outer loop
      vertex 19.0348 -23.1083 8.94927
      vertex 19.0642 -23.1253 8.95171
      vertex 19.0054 -23.1594 8.94682
    endloop
  endfacet
  facet normal 0.0828902 2.26433e-6 -0.996559
    outer loop
      vertex 19.0054 -23.1594 8.94682
      vertex 19.0642 -23.1253 8.95171
      vertex 19.0348 -23.1765 8.94927
    endloop
  endfacet
  facet normal 0.0828941 0 -0.996558
    outer loop
      vertex 19.0642 -23.1253 8.95171
      vertex 19.0642 -23.1594 8.95171
      vertex 19.0348 -23.1765 8.94927
    endloop
  endfacet
  facet normal 0.0829341 -2.07527e-5 -0.996555
    outer loop
      vertex 18.989 -23.198 8.89607
      vertex 18.9786 -23.1863 8.89521
      vertex 19.0094 -23.1594 8.89778
    endloop
  endfacet
  facet normal -0.740601 -0.669114 -0.0616172
    outer loop
      vertex 18.9786 -23.1863 8.89521
      vertex 18.989 -23.198 8.89607
      vertex 18.972 -23.1863 8.97368
    endloop
  endfacet
  facet normal -0.740487 -0.669245 -0.0615725
    outer loop
      vertex 18.989 -23.198 8.89607
      vertex 18.9825 -23.198 8.97454
      vertex 18.972 -23.1863 8.97368
    endloop
  endfacet
  facet normal 0.0828367 3.13266e-5 -0.996563
    outer loop
      vertex 19.0016 -23.2072 8.89712
      vertex 18.989 -23.198 8.89607
      vertex 19.0094 -23.1594 8.89778
    endloop
  endfacet
  facet normal -0.58577 -0.809012 -0.0487076
    outer loop
      vertex 18.989 -23.198 8.89607
      vertex 19.0016 -23.2072 8.89712
      vertex 18.9825 -23.198 8.97454
    endloop
  endfacet
  facet normal -0.585825 -0.808971 -0.0487261
    outer loop
      vertex 19.0016 -23.2072 8.89712
      vertex 18.9951 -23.2072 8.97559
      vertex 18.9825 -23.198 8.97454
    endloop
  endfacet
  facet normal -0.405229 -0.913594 -0.033705
    outer loop
      vertex 19.0016 -23.2072 8.89712
      vertex 19.0158 -23.2135 8.89831
      vertex 18.9951 -23.2072 8.97559
    endloop
  endfacet
  facet normal -0.405272 -0.913574 -0.0337182
    outer loop
      vertex 19.0158 -23.2135 8.89831
      vertex 19.0093 -23.2135 8.97678
      vertex 18.9951 -23.2072 8.97559
    endloop
  endfacet
  facet normal -0.498197 0.866074 -0.0414187
    outer loop
      vertex 19.0389 -23.1765 8.90022
      vertex 19.0348 -23.1765 8.94927
      vertex 19.0683 -23.1594 8.90267
    endloop
  endfacet
  facet normal -0.498241 0.866047 -0.0414602
    outer loop
      vertex 19.0348 -23.1765 8.94927
      vertex 19.0642 -23.1594 8.95171
      vertex 19.0683 -23.1594 8.90267
    endloop
  endfacet
  facet normal 0.0828773 1.10528e-5 -0.99656
    outer loop
      vertex 19.0389 -23.1765 8.90022
      vertex 19.0683 -23.1594 8.90267
      vertex 19.0761 -23.2072 8.90332
    endloop
  endfacet
  facet normal 0.0829442 2.21211e-5 -0.996554
    outer loop
      vertex 19.0683 -23.1594 8.90267
      vertex 19.0887 -23.198 8.90437
      vertex 19.0761 -23.2072 8.90332
    endloop
  endfacet
  facet normal -0.740604 0.669114 -0.0615822
    outer loop
      vertex 18.989 -23.0868 8.89607
      vertex 18.9786 -23.0984 8.89521
      vertex 18.9825 -23.0868 8.97454
    endloop
  endfacet
  facet normal -0.740484 0.669245 -0.0616074
    outer loop
      vertex 18.9786 -23.0984 8.89521
      vertex 18.972 -23.0984 8.97368
      vertex 18.9825 -23.0868 8.97454
    endloop
  endfacet
  facet normal 0.0829341 2.07527e-5 -0.996555
    outer loop
      vertex 18.9786 -23.0984 8.89521
      vertex 18.989 -23.0868 8.89607
      vertex 19.0094 -23.1253 8.89778
    endloop
  endfacet
  facet normal -0.498326 -0.865999 -0.0414294
    outer loop
      vertex 19.0348 -23.1083 8.94927
      vertex 19.0389 -23.1083 8.90022
      vertex 19.0642 -23.1253 8.95171
    endloop
  endfacet
  facet normal -0.498276 -0.866027 -0.0414631
    outer loop
      vertex 19.0389 -23.1083 8.90022
      vertex 19.0683 -23.1253 8.90267
      vertex 19.0642 -23.1253 8.95171
    endloop
  endfacet
  facet normal -0.585847 0.808956 -0.0487278
    outer loop
      vertex 19.0016 -23.0776 8.89712
      vertex 18.989 -23.0868 8.89607
      vertex 18.9951 -23.0776 8.97559
    endloop
  endfacet
  facet normal -0.585904 0.808915 -0.0487187
    outer loop
      vertex 18.989 -23.0868 8.89607
      vertex 18.9825 -23.0868 8.97454
      vertex 18.9951 -23.0776 8.97559
    endloop
  endfacet
  facet normal -0.405228 0.913594 -0.0337145
    outer loop
      vertex 19.0158 -23.0712 8.89831
      vertex 19.0016 -23.0776 8.89712
      vertex 19.0093 -23.0712 8.97678
    endloop
  endfacet
  facet normal -0.405273 0.913574 -0.0337086
    outer loop
      vertex 19.0016 -23.0776 8.89712
      vertex 18.9951 -23.0776 8.97559
      vertex 19.0093 -23.0712 8.97678
    endloop
  endfacet
  facet normal 0.0829094 1.49908e-5 -0.996557
    outer loop
      vertex 19.0016 -23.0776 8.89712
      vertex 19.0158 -23.0712 8.89831
      vertex 19.0389 -23.1083 8.90022
    endloop
  endfacet
  facet normal 0.0828755 -6.23043e-6 -0.99656
    outer loop
      vertex 19.0158 -23.0712 8.89831
      vertex 19.0311 -23.068 8.89957
      vertex 19.0389 -23.1083 8.90022
    endloop
  endfacet
  facet normal 0.0828976 -1.91582e-6 -0.996558
    outer loop
      vertex 19.0389 -23.1083 8.90022
      vertex 19.0311 -23.068 8.89957
      vertex 19.0467 -23.068 8.90087
    endloop
  endfacet
  facet normal 0.0828773 -1.10522e-5 -0.99656
    outer loop
      vertex 19.0683 -23.1253 8.90267
      vertex 19.0389 -23.1083 8.90022
      vertex 19.0761 -23.0776 8.90332
    endloop
  endfacet
  facet normal 0.0828222 5.62683e-5 -0.996564
    outer loop
      vertex 19.0389 -23.1083 8.90022
      vertex 19.0619 -23.0712 8.90214
      vertex 19.0761 -23.0776 8.90332
    endloop
  endfacet
  facet normal -0.0828754 -1.87308e-5 0.99656
    outer loop
      vertex 18.9781 -23.1424 9.17171
      vertex 18.9796 -23.1531 9.17184
      vertex 19.016 -23.1424 9.17486
    endloop
  endfacet
  facet normal -0.082872 -3.03937e-5 0.99656
    outer loop
      vertex 18.9796 -23.1531 9.17184
      vertex 18.9841 -23.1629 9.17221
      vertex 19.016 -23.1424 9.17486
    endloop
  endfacet
  facet normal -0.0829154 3.75005e-5 0.996557
    outer loop
      vertex 19.016 -23.1424 9.17486
      vertex 18.9841 -23.1629 9.17221
      vertex 18.9912 -23.1711 9.1728
    endloop
  endfacet
  facet normal -0.0828754 1.87308e-5 0.99656
    outer loop
      vertex 18.9796 -23.1316 9.17184
      vertex 18.9781 -23.1424 9.17171
      vertex 19.016 -23.1424 9.17486
    endloop
  endfacet
  facet normal -0.082872 3.03886e-5 0.99656
    outer loop
      vertex 18.9841 -23.1218 9.17221
      vertex 18.9796 -23.1316 9.17184
      vertex 19.016 -23.1424 9.17486
    endloop
  endfacet
  facet normal -0.753151 -0.654858 -0.0626437
    outer loop
      vertex 19.0004 -23.1629 8.97604
      vertex 19.0075 -23.1711 8.97663
      vertex 18.9841 -23.1629 9.17221
    endloop
  endfacet
  facet normal -0.753151 -0.654858 -0.0626437
    outer loop
      vertex 19.0075 -23.1711 8.97663
      vertex 18.9912 -23.1711 9.1728
      vertex 18.9841 -23.1629 9.17221
    endloop
  endfacet
  facet normal -0.753078 0.654943 -0.0626376
    outer loop
      vertex 19.0075 -23.1136 8.97663
      vertex 19.0004 -23.1218 8.97604
      vertex 18.9912 -23.1136 9.1728
    endloop
  endfacet
  facet normal -0.753078 0.654943 -0.0626376
    outer loop
      vertex 19.0004 -23.1218 8.97604
      vertex 18.9841 -23.1218 9.17221
      vertex 18.9912 -23.1136 9.1728
    endloop
  endfacet
  facet normal -0.0829145 -3.8337e-5 0.996557
    outer loop
      vertex 19.0004 -23.1218 8.97604
      vertex 19.0075 -23.1136 8.97663
      vertex 18.9825 -23.0868 8.97454
    endloop
  endfacet
  facet normal -0.0828454 2.66074e-5 0.996562
    outer loop
      vertex 19.0075 -23.1136 8.97663
      vertex 18.9951 -23.0776 8.97559
      vertex 18.9825 -23.0868 8.97454
    endloop
  endfacet
  facet normal -0.0828959 -2.87189e-5 0.996558
    outer loop
      vertex 18.9825 -23.0868 8.97454
      vertex 18.972 -23.0984 8.97368
      vertex 19.0004 -23.1218 8.97604
    endloop
  endfacet
  facet normal -0.0829154 -3.75048e-5 0.996557
    outer loop
      vertex 18.9912 -23.1136 9.1728
      vertex 18.9841 -23.1218 9.17221
      vertex 19.016 -23.1424 9.17486
    endloop
  endfacet
  facet normal 0.0828755 6.23058e-6 -0.99656
    outer loop
      vertex 19.0311 -23.2168 8.89957
      vertex 19.0158 -23.2135 8.89831
      vertex 19.0389 -23.1765 8.90022
    endloop
  endfacet
  facet normal -0.207156 -0.978156 -0.0172351
    outer loop
      vertex 19.0158 -23.2135 8.89831
      vertex 19.0311 -23.2168 8.89957
      vertex 19.0093 -23.2135 8.97678
    endloop
  endfacet
  facet normal -0.207132 -0.978161 -0.0172282
    outer loop
      vertex 19.0311 -23.2168 8.89957
      vertex 19.0245 -23.2168 8.97804
      vertex 19.0093 -23.2135 8.97678
    endloop
  endfacet
  facet normal -0.996556 0 -0.0829265
    outer loop
      vertex 19.0642 -23.1253 8.95171
      vertex 19.0683 -23.1253 8.90267
      vertex 19.0642 -23.1594 8.95171
    endloop
  endfacet
  facet normal -0.996556 0 -0.0829265
    outer loop
      vertex 19.0683 -23.1253 8.90267
      vertex 19.0683 -23.1594 8.90267
      vertex 19.0642 -23.1594 8.95171
    endloop
  endfacet
  facet normal 0.0828976 1.91582e-6 -0.996558
    outer loop
      vertex 19.0467 -23.2168 8.90087
      vertex 19.0311 -23.2168 8.89957
      vertex 19.0389 -23.1765 8.90022
    endloop
  endfacet
  facet normal 0 -1 0
    outer loop
      vertex 19.0311 -23.2168 8.89957
      vertex 19.0467 -23.2168 8.90087
      vertex 19.0245 -23.2168 8.97804
    endloop
  endfacet
  facet normal 0 -1 0
    outer loop
      vertex 19.0467 -23.2168 8.90087
      vertex 19.0401 -23.2168 8.97934
      vertex 19.0245 -23.2168 8.97804
    endloop
  endfacet
  facet normal 0.0828865 0 -0.996559
    outer loop
      vertex 19.0683 -23.1594 8.90267
      vertex 19.0683 -23.1253 8.90267
      vertex 19.1118 -23.1579 8.90629
    endloop
  endfacet
  facet normal 0.0828706 -2.13544e-5 -0.99656
    outer loop
      vertex 19.0683 -23.1253 8.90267
      vertex 19.1134 -23.1424 8.90642
      vertex 19.1118 -23.1579 8.90629
    endloop
  endfacet
  facet normal 0.0829231 6.87571e-6 -0.996556
    outer loop
      vertex 19.0619 -23.2135 8.90214
      vertex 19.0467 -23.2168 8.90087
      vertex 19.0389 -23.1765 8.90022
    endloop
  endfacet
  facet normal 0.207131 -0.978162 0.0172283
    outer loop
      vertex 19.0467 -23.2168 8.90087
      vertex 19.0619 -23.2135 8.90214
      vertex 19.0401 -23.2168 8.97934
    endloop
  endfacet
  facet normal 0.207131 -0.978162 0.0172283
    outer loop
      vertex 19.0619 -23.2135 8.90214
      vertex 19.0554 -23.2135 8.98061
      vertex 19.0401 -23.2168 8.97934
    endloop
  endfacet
  facet normal 0.0828222 -5.6266e-5 -0.996564
    outer loop
      vertex 19.0761 -23.2072 8.90332
      vertex 19.0619 -23.2135 8.90214
      vertex 19.0389 -23.1765 8.90022
    endloop
  endfacet
  facet normal 0.405277 -0.913572 0.0337093
    outer loop
      vertex 19.0619 -23.2135 8.90214
      vertex 19.0761 -23.2072 8.90332
      vertex 19.0554 -23.2135 8.98061
    endloop
  endfacet
  facet normal 0.405275 -0.913573 0.0337088
    outer loop
      vertex 19.0761 -23.2072 8.90332
      vertex 19.0696 -23.2072 8.98179
      vertex 19.0554 -23.2135 8.98061
    endloop
  endfacet
  facet normal 0.585764 -0.809016 0.048721
    outer loop
      vertex 19.0761 -23.2072 8.90332
      vertex 19.0887 -23.198 8.90437
      vertex 19.0696 -23.2072 8.98179
    endloop
  endfacet
  facet normal 0.585709 -0.809057 0.0487025
    outer loop
      vertex 19.0887 -23.198 8.90437
      vertex 19.0822 -23.198 8.98284
      vertex 19.0696 -23.2072 8.98179
    endloop
  endfacet
  facet normal -0.082921 -1.31224e-5 0.996556
    outer loop
      vertex 19.0093 -23.0712 8.97678
      vertex 18.9951 -23.0776 8.97559
      vertex 19.0166 -23.1077 8.97738
    endloop
  endfacet
  facet normal -0.0828846 1.29674e-5 0.996559
    outer loop
      vertex 18.9951 -23.0776 8.97559
      vertex 19.0075 -23.1136 8.97663
      vertex 19.0166 -23.1077 8.97738
    endloop
  endfacet
  facet normal -0.20727 0.978132 -0.0172397
    outer loop
      vertex 19.0311 -23.068 8.89957
      vertex 19.0158 -23.0712 8.89831
      vertex 19.0245 -23.068 8.97804
    endloop
  endfacet
  facet normal -0.207245 0.978137 -0.0172425
    outer loop
      vertex 19.0158 -23.0712 8.89831
      vertex 19.0093 -23.0712 8.97678
      vertex 19.0245 -23.068 8.97804
    endloop
  endfacet
  facet normal -0.0828648 3.44199e-6 0.996561
    outer loop
      vertex 19.0245 -23.068 8.97804
      vertex 19.0093 -23.0712 8.97678
      vertex 19.0269 -23.1047 8.97824
    endloop
  endfacet
  facet normal -0.0828809 -5.07165e-6 0.996559
    outer loop
      vertex 19.0093 -23.0712 8.97678
      vertex 19.0166 -23.1077 8.97738
      vertex 19.0269 -23.1047 8.97824
    endloop
  endfacet
  facet normal 0 1 0
    outer loop
      vertex 19.0467 -23.068 8.90087
      vertex 19.0311 -23.068 8.89957
      vertex 19.0401 -23.068 8.97934
    endloop
  endfacet
  facet normal 0 1 0
    outer loop
      vertex 19.0311 -23.068 8.89957
      vertex 19.0245 -23.068 8.97804
      vertex 19.0401 -23.068 8.97934
    endloop
  endfacet
  facet normal 0.207244 0.978137 0.0172378
    outer loop
      vertex 19.0619 -23.0712 8.90214
      vertex 19.0467 -23.068 8.90087
      vertex 19.0554 -23.0712 8.98061
    endloop
  endfacet
  facet normal 0.207244 0.978137 0.0172378
    outer loop
      vertex 19.0467 -23.068 8.90087
      vertex 19.0401 -23.068 8.97934
      vertex 19.0554 -23.0712 8.98061
    endloop
  endfacet
  facet normal 0.0829231 -6.87555e-6 -0.996556
    outer loop
      vertex 19.0467 -23.068 8.90087
      vertex 19.0619 -23.0712 8.90214
      vertex 19.0389 -23.1083 8.90022
    endloop
  endfacet
  facet normal 0.405277 0.913572 0.0337089
    outer loop
      vertex 19.0761 -23.0776 8.90332
      vertex 19.0619 -23.0712 8.90214
      vertex 19.0696 -23.0776 8.98179
    endloop
  endfacet
  facet normal 0.405275 0.913573 0.0337092
    outer loop
      vertex 19.0619 -23.0712 8.90214
      vertex 19.0554 -23.0712 8.98061
      vertex 19.0696 -23.0776 8.98179
    endloop
  endfacet
  facet normal 0.585843 0.808959 0.0487136
    outer loop
      vertex 19.0887 -23.0868 8.90437
      vertex 19.0761 -23.0776 8.90332
      vertex 19.0822 -23.0868 8.98284
    endloop
  endfacet
  facet normal 0.585786 0.809 0.0487228
    outer loop
      vertex 19.0761 -23.0776 8.90332
      vertex 19.0696 -23.0776 8.98179
      vertex 19.0822 -23.0868 8.98284
    endloop
  endfacet
  facet normal 0.0829442 -2.21198e-5 -0.996554
    outer loop
      vertex 19.0761 -23.0776 8.90332
      vertex 19.0887 -23.0868 8.90437
      vertex 19.0683 -23.1253 8.90267
    endloop
  endfacet
  facet normal 0.0828814 1.14471e-5 -0.996559
    outer loop
      vertex 19.0887 -23.0868 8.90437
      vertex 19.0992 -23.0984 8.90524
      vertex 19.0683 -23.1253 8.90267
    endloop
  endfacet
  facet normal 0.0828901 1.3433e-6 -0.996559
    outer loop
      vertex 19.0683 -23.1253 8.90267
      vertex 19.0992 -23.0984 8.90524
      vertex 19.107 -23.1119 8.90589
    endloop
  endfacet
  facet normal -0.538728 -0.841287 -0.044809
    outer loop
      vertex 19.0075 -23.1711 8.97663
      vertex 19.0166 -23.177 8.97738
      vertex 18.9912 -23.1711 9.1728
    endloop
  endfacet
  facet normal -0.538651 -0.841337 -0.0447974
    outer loop
      vertex 19.0166 -23.177 8.97738
      vertex 19.0003 -23.177 9.17355
      vertex 18.9912 -23.1711 9.1728
    endloop
  endfacet
  facet normal -0.0828641 7.18241e-6 0.996561
    outer loop
      vertex 19.0003 -23.1077 9.17355
      vertex 18.9912 -23.1136 9.1728
      vertex 19.016 -23.1424 9.17486
    endloop
  endfacet
  facet normal -0.53865 0.841337 -0.0448025
    outer loop
      vertex 18.9912 -23.1136 9.1728
      vertex 19.0003 -23.1077 9.17355
      vertex 19.0075 -23.1136 8.97663
    endloop
  endfacet
  facet normal -0.538728 0.841287 -0.0448039
    outer loop
      vertex 19.0003 -23.1077 9.17355
      vertex 19.0166 -23.1077 8.97738
      vertex 19.0075 -23.1136 8.97663
    endloop
  endfacet
  facet normal -0.0828641 -7.18241e-6 0.996561
    outer loop
      vertex 18.9912 -23.1711 9.1728
      vertex 19.0003 -23.177 9.17355
      vertex 19.016 -23.1424 9.17486
    endloop
  endfacet
  facet normal -0.0828951 7.03631e-6 0.996558
    outer loop
      vertex 19.0003 -23.177 9.17355
      vertex 19.0106 -23.18 9.17442
      vertex 19.016 -23.1424 9.17486
    endloop
  endfacet
  facet normal -0.0828605 2.04847e-6 0.996561
    outer loop
      vertex 19.016 -23.1424 9.17486
      vertex 19.0106 -23.18 9.17442
      vertex 19.0214 -23.18 9.17531
    endloop
  endfacet
  facet normal -0.0828951 -7.0358e-6 0.996558
    outer loop
      vertex 19.0106 -23.1047 9.17442
      vertex 19.0003 -23.1077 9.17355
      vertex 19.016 -23.1424 9.17486
    endloop
  endfacet
  facet normal -0.280889 0.959456 -0.0233604
    outer loop
      vertex 19.0003 -23.1077 9.17355
      vertex 19.0106 -23.1047 9.17442
      vertex 19.0166 -23.1077 8.97738
    endloop
  endfacet
  facet normal -0.280843 0.959469 -0.0233592
    outer loop
      vertex 19.0106 -23.1047 9.17442
      vertex 19.0269 -23.1047 8.97824
      vertex 19.0166 -23.1077 8.97738
    endloop
  endfacet
  facet normal -0.0828605 -2.04837e-6 0.996561
    outer loop
      vertex 19.0214 -23.1047 9.17531
      vertex 19.0106 -23.1047 9.17442
      vertex 19.016 -23.1424 9.17486
    endloop
  endfacet
  facet normal 0 1 0
    outer loop
      vertex 19.0106 -23.1047 9.17442
      vertex 19.0214 -23.1047 9.17531
      vertex 19.0269 -23.1047 8.97824
    endloop
  endfacet
  facet normal 0 1 0
    outer loop
      vertex 19.0214 -23.1047 9.17531
      vertex 19.0377 -23.1047 8.97914
      vertex 19.0269 -23.1047 8.97824
    endloop
  endfacet
  facet normal -0.280731 -0.959502 -0.02335
    outer loop
      vertex 19.0106 -23.18 9.17442
      vertex 19.0003 -23.177 9.17355
      vertex 19.0269 -23.18 8.97824
    endloop
  endfacet
  facet normal -0.280685 -0.959516 -0.0233435
    outer loop
      vertex 19.0003 -23.177 9.17355
      vertex 19.0166 -23.177 8.97738
      vertex 19.0269 -23.18 8.97824
    endloop
  endfacet
  facet normal 0 -1 0
    outer loop
      vertex 19.0214 -23.18 9.17531
      vertex 19.0106 -23.18 9.17442
      vertex 19.0377 -23.18 8.97914
    endloop
  endfacet
  facet normal 0 -1 0
    outer loop
      vertex 19.0106 -23.18 9.17442
      vertex 19.0269 -23.18 8.97824
      vertex 19.0377 -23.18 8.97914
    endloop
  endfacet
  facet normal -0.082882 1.05414e-6 0.996559
    outer loop
      vertex 19.0318 -23.1077 9.17618
      vertex 19.0214 -23.1047 9.17531
      vertex 19.016 -23.1424 9.17486
    endloop
  endfacet
  facet normal 0.280843 0.959469 0.0233566
    outer loop
      vertex 19.0214 -23.1047 9.17531
      vertex 19.0318 -23.1077 9.17618
      vertex 19.0377 -23.1047 8.97914
    endloop
  endfacet
  facet normal 0.280797 0.959483 0.0233554
    outer loop
      vertex 19.0318 -23.1077 9.17618
      vertex 19.0481 -23.1077 8.98
      vertex 19.0377 -23.1047 8.97914
    endloop
  endfacet
  facet normal 0.280685 -0.959516 0.0233461
    outer loop
      vertex 19.0318 -23.177 9.17618
      vertex 19.0214 -23.18 9.17531
      vertex 19.0481 -23.177 8.98
    endloop
  endfacet
  facet normal 0.280639 -0.95953 0.0233396
    outer loop
      vertex 19.0214 -23.18 9.17531
      vertex 19.0377 -23.18 8.97914
      vertex 19.0481 -23.177 8.98
    endloop
  endfacet
  facet normal -0.082882 -1.05422e-6 0.996559
    outer loop
      vertex 19.0214 -23.18 9.17531
      vertex 19.0318 -23.177 9.17618
      vertex 19.016 -23.1424 9.17486
    endloop
  endfacet
  facet normal -0.0828771 1.20292e-6 0.99656
    outer loop
      vertex 19.0318 -23.177 9.17618
      vertex 19.0409 -23.1711 9.17693
      vertex 19.016 -23.1424 9.17486
    endloop
  endfacet
  facet normal -0.0829294 -4.42481e-5 0.996555
    outer loop
      vertex 19.016 -23.1424 9.17486
      vertex 19.0409 -23.1711 9.17693
      vertex 19.0479 -23.1629 9.17752
    endloop
  endfacet
  facet normal -0.0828771 -1.20292e-6 0.99656
    outer loop
      vertex 19.0409 -23.1136 9.17693
      vertex 19.0318 -23.1077 9.17618
      vertex 19.016 -23.1424 9.17486
    endloop
  endfacet
  facet normal 0.538728 0.841287 0.044809
    outer loop
      vertex 19.0318 -23.1077 9.17618
      vertex 19.0409 -23.1136 9.17693
      vertex 19.0481 -23.1077 8.98
    endloop
  endfacet
  facet normal 0.538806 0.841237 0.0448103
    outer loop
      vertex 19.0409 -23.1136 9.17693
      vertex 19.0572 -23.1136 8.98076
      vertex 19.0481 -23.1077 8.98
    endloop
  endfacet
  facet normal 0.538728 -0.841287 0.0448039
    outer loop
      vertex 19.0409 -23.1711 9.17693
      vertex 19.0318 -23.177 9.17618
      vertex 19.0572 -23.1711 8.98076
    endloop
  endfacet
  facet normal 0.538806 -0.841237 0.0448154
    outer loop
      vertex 19.0318 -23.177 9.17618
      vertex 19.0481 -23.177 8.98
      vertex 19.0572 -23.1711 8.98076
    endloop
  endfacet
  facet normal -0.0829294 4.42532e-5 0.996555
    outer loop
      vertex 19.0479 -23.1218 9.17752
      vertex 19.0409 -23.1136 9.17693
      vertex 19.016 -23.1424 9.17486
    endloop
  endfacet
  facet normal 0.753163 0.654845 0.0626375
    outer loop
      vertex 19.0409 -23.1136 9.17693
      vertex 19.0479 -23.1218 9.17752
      vertex 19.0572 -23.1136 8.98076
    endloop
  endfacet
  facet normal 0.753078 0.654943 0.0626376
    outer loop
      vertex 19.0479 -23.1218 9.17752
      vertex 19.0643 -23.1218 8.98135
      vertex 19.0572 -23.1136 8.98076
    endloop
  endfacet
  facet normal 0.753236 -0.65476 0.0626507
    outer loop
      vertex 19.0479 -23.1629 9.17752
      vertex 19.0409 -23.1711 9.17693
      vertex 19.0643 -23.1629 8.98135
    endloop
  endfacet
  facet normal 0.753152 -0.654858 0.0626366
    outer loop
      vertex 19.0409 -23.1711 9.17693
      vertex 19.0572 -23.1711 8.98076
      vertex 19.0643 -23.1629 8.98135
    endloop
  endfacet
  facet normal -0.0828716 -4.59016e-5 0.99656
    outer loop
      vertex 19.0524 -23.1316 9.17789
      vertex 19.0479 -23.1218 9.17752
      vertex 19.016 -23.1424 9.17486
    endloop
  endfacet
  facet normal 0.906504 0.415411 0.0753989
    outer loop
      vertex 19.0479 -23.1218 9.17752
      vertex 19.0524 -23.1316 9.17789
      vertex 19.0643 -23.1218 8.98135
    endloop
  endfacet
  facet normal 0.906569 0.415269 0.0753957
    outer loop
      vertex 19.0524 -23.1316 9.17789
      vertex 19.0687 -23.1316 8.98172
      vertex 19.0643 -23.1218 8.98135
    endloop
  endfacet
  facet normal 0.906475 -0.415476 0.0753879
    outer loop
      vertex 19.0524 -23.1531 9.17789
      vertex 19.0479 -23.1629 9.17752
      vertex 19.0687 -23.1531 8.98172
    endloop
  endfacet
  facet normal 0.906538 -0.415334 0.0754018
    outer loop
      vertex 19.0479 -23.1629 9.17752
      vertex 19.0643 -23.1629 8.98135
      vertex 19.0687 -23.1531 8.98172
    endloop
  endfacet
  facet normal -0.0828716 4.59092e-5 0.99656
    outer loop
      vertex 19.0479 -23.1629 9.17752
      vertex 19.0524 -23.1531 9.17789
      vertex 19.016 -23.1424 9.17486
    endloop
  endfacet
  facet normal -0.0828794 1.93141e-5 0.99656
    outer loop
      vertex 19.0524 -23.1531 9.17789
      vertex 19.054 -23.1424 9.17802
      vertex 19.016 -23.1424 9.17486
    endloop
  endfacet
  facet normal -0.0828794 -1.93141e-5 0.99656
    outer loop
      vertex 19.016 -23.1424 9.17486
      vertex 19.054 -23.1424 9.17802
      vertex 19.0524 -23.1316 9.17789
    endloop
  endfacet
  facet normal 0.986413 0.142333 0.082036
    outer loop
      vertex 19.0524 -23.1316 9.17789
      vertex 19.054 -23.1424 9.17802
      vertex 19.0687 -23.1316 8.98172
    endloop
  endfacet
  facet normal 0.986388 0.142508 0.0820436
    outer loop
      vertex 19.054 -23.1424 9.17802
      vertex 19.0703 -23.1424 8.98185
      vertex 19.0687 -23.1316 8.98172
    endloop
  endfacet
  facet normal 0.986413 -0.142333 0.0820457
    outer loop
      vertex 19.054 -23.1424 9.17802
      vertex 19.0524 -23.1531 9.17789
      vertex 19.0703 -23.1424 8.98185
    endloop
  endfacet
  facet normal 0.986388 -0.142508 0.082034
    outer loop
      vertex 19.0524 -23.1531 9.17789
      vertex 19.0687 -23.1531 8.98172
      vertex 19.0703 -23.1424 8.98185
    endloop
  endfacet
  facet normal -0.0828809 5.07183e-6 0.996559
    outer loop
      vertex 19.0269 -23.18 8.97824
      vertex 19.0166 -23.177 8.97738
      vertex 19.0093 -23.2135 8.97678
    endloop
  endfacet
  facet normal -0.0828747 1.82806e-5 0.99656
    outer loop
      vertex 19.0269 -23.1047 8.97824
      vertex 19.0377 -23.1047 8.97914
      vertex 19.0401 -23.068 8.97934
    endloop
  endfacet
  facet normal -0.08292 2.12552e-5 0.996556
    outer loop
      vertex 19.0377 -23.1047 8.97914
      vertex 19.0554 -23.0712 8.98061
      vertex 19.0401 -23.068 8.97934
    endloop
  endfacet
  facet normal -0.0828648 -3.44202e-6 0.996561
    outer loop
      vertex 19.0093 -23.2135 8.97678
      vertex 19.0245 -23.2168 8.97804
      vertex 19.0269 -23.18 8.97824
    endloop
  endfacet
  facet normal -0.0828747 -2.79094e-6 0.99656
    outer loop
      vertex 19.0245 -23.2168 8.97804
      vertex 19.0377 -23.18 8.97914
      vertex 19.0269 -23.18 8.97824
    endloop
  endfacet
  facet normal -0.0828385 5.17171e-6 0.996563
    outer loop
      vertex 19.0401 -23.068 8.97934
      vertex 19.0245 -23.068 8.97804
      vertex 19.0269 -23.1047 8.97824
    endloop
  endfacet
  facet normal -0.082865 -6.57372e-6 0.996561
    outer loop
      vertex 19.0696 -23.0776 8.98179
      vertex 19.0554 -23.0712 8.98061
      vertex 19.0481 -23.1077 8.98
    endloop
  endfacet
  facet normal -0.0828692 -5.7183e-6 0.99656
    outer loop
      vertex 19.0554 -23.0712 8.98061
      vertex 19.0377 -23.1047 8.97914
      vertex 19.0481 -23.1077 8.98
    endloop
  endfacet
  facet normal 0.740607 0.669111 0.0615832
    outer loop
      vertex 19.0992 -23.0984 8.90524
      vertex 19.0887 -23.0868 8.90437
      vertex 19.0927 -23.0984 8.98371
    endloop
  endfacet
  facet normal 0.740609 0.669108 0.0615826
    outer loop
      vertex 19.0887 -23.0868 8.90437
      vertex 19.0822 -23.0868 8.98284
      vertex 19.0927 -23.0984 8.98371
    endloop
  endfacet
  facet normal 0.991107 -0.104456 0.0824354
    outer loop
      vertex 19.1118 -23.1579 8.90629
      vertex 19.1134 -23.1424 8.90642
      vertex 19.1053 -23.1579 8.98476
    endloop
  endfacet
  facet normal 0.991107 -0.104456 0.0824354
    outer loop
      vertex 19.1134 -23.1424 8.90642
      vertex 19.1069 -23.1424 8.98489
      vertex 19.1053 -23.1579 8.98476
    endloop
  endfacet
  facet normal 0.947757 -0.309099 0.0788298
    outer loop
      vertex 19.107 -23.1728 8.90589
      vertex 19.1118 -23.1579 8.90629
      vertex 19.1004 -23.1728 8.98436
    endloop
  endfacet
  facet normal 0.947757 -0.309099 0.0788298
    outer loop
      vertex 19.1118 -23.1579 8.90629
      vertex 19.1053 -23.1579 8.98476
      vertex 19.1004 -23.1728 8.98436
    endloop
  endfacet
  facet normal 0.0828869 -1.06877e-5 -0.996559
    outer loop
      vertex 19.1118 -23.1579 8.90629
      vertex 19.107 -23.1728 8.90589
      vertex 19.0683 -23.1594 8.90267
    endloop
  endfacet
  facet normal 0.0828901 -1.34318e-6 -0.996559
    outer loop
      vertex 19.107 -23.1728 8.90589
      vertex 19.0992 -23.1863 8.90524
      vertex 19.0683 -23.1594 8.90267
    endloop
  endfacet
  facet normal 0.0828814 -1.14471e-5 -0.996559
    outer loop
      vertex 19.0683 -23.1594 8.90267
      vertex 19.0992 -23.1863 8.90524
      vertex 19.0887 -23.198 8.90437
    endloop
  endfacet
  facet normal 0.863018 0.500048 0.0717816
    outer loop
      vertex 19.107 -23.1119 8.90589
      vertex 19.0992 -23.0984 8.90524
      vertex 19.1004 -23.1119 8.98436
    endloop
  endfacet
  facet normal 0.863069 0.499962 0.0717662
    outer loop
      vertex 19.0992 -23.0984 8.90524
      vertex 19.0927 -23.0984 8.98371
      vertex 19.1004 -23.1119 8.98436
    endloop
  endfacet
  facet normal 0.0828873 2.31158e-5 -0.996559
    outer loop
      vertex 19.1118 -23.1268 8.90629
      vertex 19.1134 -23.1424 8.90642
      vertex 19.0683 -23.1253 8.90267
    endloop
  endfacet
  facet normal 0.991106 0.104468 0.0824353
    outer loop
      vertex 19.1134 -23.1424 8.90642
      vertex 19.1118 -23.1268 8.90629
      vertex 19.1069 -23.1424 8.98489
    endloop
  endfacet
  facet normal 0.991106 0.104468 0.0824353
    outer loop
      vertex 19.1118 -23.1268 8.90629
      vertex 19.1053 -23.1268 8.98476
      vertex 19.1069 -23.1424 8.98489
    endloop
  endfacet
  facet normal 0.0828869 1.06864e-5 -0.996559
    outer loop
      vertex 19.107 -23.1119 8.90589
      vertex 19.1118 -23.1268 8.90629
      vertex 19.0683 -23.1253 8.90267
    endloop
  endfacet
  facet normal 0.947768 0.309064 0.0788307
    outer loop
      vertex 19.1118 -23.1268 8.90629
      vertex 19.107 -23.1119 8.90589
      vertex 19.1053 -23.1268 8.98476
    endloop
  endfacet
  facet normal 0.947768 0.309064 0.0788307
    outer loop
      vertex 19.107 -23.1119 8.90589
      vertex 19.1004 -23.1119 8.98436
      vertex 19.1053 -23.1268 8.98476
    endloop
  endfacet
  facet normal -0.0829227 3.49255e-5 0.996556
    outer loop
      vertex 19.0822 -23.0868 8.98284
      vertex 19.0696 -23.0776 8.98179
      vertex 19.0481 -23.1077 8.98
    endloop
  endfacet
  facet normal -0.0828436 -5.71766e-5 0.996563
    outer loop
      vertex 19.0927 -23.0984 8.98371
      vertex 19.0822 -23.0868 8.98284
      vertex 19.0572 -23.1136 8.98076
    endloop
  endfacet
  facet normal -0.0828974 -6.55654e-6 0.996558
    outer loop
      vertex 19.0822 -23.0868 8.98284
      vertex 19.0481 -23.1077 8.98
      vertex 19.0572 -23.1136 8.98076
    endloop
  endfacet
  facet normal -0.0828385 -1.59018e-5 0.996563
    outer loop
      vertex 19.0245 -23.2168 8.97804
      vertex 19.0401 -23.2168 8.97934
      vertex 19.0377 -23.18 8.97914
    endloop
  endfacet
  facet normal -0.08292 -2.12553e-5 0.996556
    outer loop
      vertex 19.0401 -23.2168 8.97934
      vertex 19.0554 -23.2135 8.98061
      vertex 19.0377 -23.18 8.97914
    endloop
  endfacet
  facet normal -0.0828692 5.71849e-6 0.99656
    outer loop
      vertex 19.0377 -23.18 8.97914
      vertex 19.0554 -23.2135 8.98061
      vertex 19.0481 -23.177 8.98
    endloop
  endfacet
  facet normal -0.082865 6.57372e-6 0.996561
    outer loop
      vertex 19.0554 -23.2135 8.98061
      vertex 19.0696 -23.2072 8.98179
      vertex 19.0481 -23.177 8.98
    endloop
  endfacet
  facet normal -0.0828872 -9.40321e-6 0.996559
    outer loop
      vertex 19.0481 -23.177 8.98
      vertex 19.0696 -23.2072 8.98179
      vertex 19.0572 -23.1711 8.98076
    endloop
  endfacet
  facet normal -0.0829304 -2.44041e-5 0.996555
    outer loop
      vertex 19.0696 -23.2072 8.98179
      vertex 19.0822 -23.198 8.98284
      vertex 19.0572 -23.1711 8.98076
    endloop
  endfacet
  facet normal -0.0829304 -2.44728e-5 0.996555
    outer loop
      vertex 19.0572 -23.1711 8.98076
      vertex 19.0822 -23.198 8.98284
      vertex 19.0643 -23.1629 8.98135
    endloop
  endfacet
  facet normal -0.0828177 3.37949e-5 0.996565
    outer loop
      vertex 19.0822 -23.198 8.98284
      vertex 19.0927 -23.1863 8.98371
      vertex 19.0643 -23.1629 8.98135
    endloop
  endfacet
  facet normal -0.0829033 -7.09072e-5 0.996558
    outer loop
      vertex 19.0643 -23.1629 8.98135
      vertex 19.0927 -23.1863 8.98371
      vertex 19.1004 -23.1728 8.98436
    endloop
  endfacet
  facet normal 0.740607 -0.669111 0.0615824
    outer loop
      vertex 19.0887 -23.198 8.90437
      vertex 19.0992 -23.1863 8.90524
      vertex 19.0822 -23.198 8.98284
    endloop
  endfacet
  facet normal 0.740609 -0.669108 0.0615834
    outer loop
      vertex 19.0992 -23.1863 8.90524
      vertex 19.0927 -23.1863 8.98371
      vertex 19.0822 -23.198 8.98284
    endloop
  endfacet
  facet normal 0.863049 -0.499996 0.0717645
    outer loop
      vertex 19.0992 -23.1863 8.90524
      vertex 19.107 -23.1728 8.90589
      vertex 19.0927 -23.1863 8.98371
    endloop
  endfacet
  facet normal 0.863097 -0.499911 0.0717881
    outer loop
      vertex 19.107 -23.1728 8.90589
      vertex 19.1004 -23.1728 8.98436
      vertex 19.0927 -23.1863 8.98371
    endloop
  endfacet
  facet normal -0.0828924 5.75461e-5 0.996559
    outer loop
      vertex 19.0572 -23.1136 8.98076
      vertex 19.0643 -23.1218 8.98135
      vertex 19.0927 -23.0984 8.98371
    endloop
  endfacet
  facet normal -0.0829033 7.09174e-5 0.996558
    outer loop
      vertex 19.0643 -23.1218 8.98135
      vertex 19.1004 -23.1119 8.98436
      vertex 19.0927 -23.0984 8.98371
    endloop
  endfacet
  facet normal -0.0828755 3.20251e-5 0.99656
    outer loop
      vertex 19.0687 -23.1531 8.98172
      vertex 19.0643 -23.1629 8.98135
      vertex 19.1004 -23.1728 8.98436
    endloop
  endfacet
  facet normal -0.0828755 -3.20203e-5 0.99656
    outer loop
      vertex 19.0643 -23.1218 8.98135
      vertex 19.0687 -23.1316 8.98172
      vertex 19.1004 -23.1119 8.98436
    endloop
  endfacet
  facet normal -0.0828884 -1.11752e-5 0.996559
    outer loop
      vertex 19.0687 -23.1316 8.98172
      vertex 19.1053 -23.1268 8.98476
      vertex 19.1004 -23.1119 8.98436
    endloop
  endfacet
  facet normal -0.0828965 -5.03777e-5 0.996558
    outer loop
      vertex 19.0703 -23.1424 8.98185
      vertex 19.0687 -23.1531 8.98172
      vertex 19.1053 -23.1579 8.98476
    endloop
  endfacet
  facet normal -0.0828884 1.11764e-5 0.996559
    outer loop
      vertex 19.0687 -23.1531 8.98172
      vertex 19.1004 -23.1728 8.98436
      vertex 19.1053 -23.1579 8.98476
    endloop
  endfacet
  facet normal -0.0828651 5.49157e-5 0.996561
    outer loop
      vertex 19.0687 -23.1316 8.98172
      vertex 19.0703 -23.1424 8.98185
      vertex 19.1069 -23.1424 8.98489
    endloop
  endfacet
  facet normal -0.0828651 2.07678e-5 0.996561
    outer loop
      vertex 19.0703 -23.1424 8.98185
      vertex 19.1053 -23.1579 8.98476
      vertex 19.1069 -23.1424 8.98489
    endloop
  endfacet
  facet normal -0.0828868 -2.30646e-5 0.996559
    outer loop
      vertex 19.1069 -23.1424 8.98489
      vertex 19.1053 -23.1268 8.98476
      vertex 19.0687 -23.1316 8.98172
    endloop
  endfacet
endsolid Onshape
