solid Onshape
  facet normal -0.999948 -0.000491625 0.0101588
    outer loop
      vertex 23.7116 -20.666 9.09
      vertex 23.7106 -20.6705 8.98399
      vertex 23.7106 -20.7355 8.98708
    endloop
  endfacet
  facet normal -0.999568 0.000423324 0.0293956
    outer loop
      vertex 23.7106 -20.6705 8.98399
      vertex 23.7076 -20.749 8.88423
      vertex 23.7106 -20.7355 8.98708
    endloop
  endfacet
  facet normal 0 0.999099 -0.0424484
    outer loop
      vertex 23.7106 -20.6705 8.98399
      vertex 23.7116 -20.666 9.09
      vertex 25.3456 -20.666 9.09
    endloop
  endfacet
  facet normal 0 0.999099 0.042448
    outer loop
      vertex 23.7116 -20.666 9.09
      vertex 25.3456 -20.6705 9.19601
      vertex 25.3456 -20.666 9.09
    endloop
  endfacet
  facet normal 0 0.991873 -0.127229
    outer loop
      vertex 23.7074 -20.6841 8.87826
      vertex 23.7106 -20.6705 8.98399
      vertex 25.3456 -20.6705 8.98399
    endloop
  endfacet
  facet normal 0 0.999099 -0.0424484
    outer loop
      vertex 23.7106 -20.6705 8.98399
      vertex 25.3456 -20.666 9.09
      vertex 25.3456 -20.6705 8.98399
    endloop
  endfacet
  facet normal -0.999537 -0.000876936 0.0304178
    outer loop
      vertex 23.7106 -20.6705 8.98399
      vertex 23.7074 -20.6841 8.87826
      vertex 23.7076 -20.749 8.88423
    endloop
  endfacet
  facet normal -0.998811 0.000808552 0.0487464
    outer loop
      vertex 23.7074 -20.6841 8.87826
      vertex 23.7027 -20.7714 8.78308
      vertex 23.7076 -20.749 8.88423
    endloop
  endfacet
  facet normal 0 -0.991465 0.13037
    outer loop
      vertex 23.7106 -20.7355 8.98708
      vertex 23.7076 -20.749 8.88423
      vertex 25.3456 -20.749 8.88423
    endloop
  endfacet
  facet normal 0 -0.965928 0.258811
    outer loop
      vertex 23.7076 -20.749 8.88423
      vertex 25.3456 -20.8025 8.68471
      vertex 25.3456 -20.749 8.88423
    endloop
  endfacet
  facet normal -0.00552499 -0.999036 0.043539
    outer loop
      vertex 23.7116 -20.731 9.09
      vertex 23.7106 -20.7355 8.98708
      vertex 25.3456 -20.749 8.88423
    endloop
  endfacet
  facet normal -0.999952 0 0.00982696
    outer loop
      vertex 23.7106 -20.7355 8.98708
      vertex 23.7116 -20.731 9.09
      vertex 23.7116 -20.666 9.09
    endloop
  endfacet
  facet normal -0.999949 0 -0.0101378
    outer loop
      vertex 23.7116 -20.731 9.09
      vertex 23.7106 -20.6705 9.19601
      vertex 23.7116 -20.666 9.09
    endloop
  endfacet
  facet normal 0 0.999099 0.042448
    outer loop
      vertex 23.7116 -20.666 9.09
      vertex 23.7106 -20.6705 9.19601
      vertex 25.3456 -20.6705 9.19601
    endloop
  endfacet
  facet normal 0 0.985615 0.169006
    outer loop
      vertex 23.7106 -20.6705 9.19601
      vertex 25.3456 -20.7063 9.40497
      vertex 25.3456 -20.6705 9.19601
    endloop
  endfacet
  facet normal 1 0 0
    outer loop
      vertex 25.3456 -20.666 9.09
      vertex 25.3456 -20.6705 9.19601
      vertex 25.3456 -20.731 9.09
    endloop
  endfacet
  facet normal 1 0 0
    outer loop
      vertex 25.3456 -20.6705 9.19601
      vertex 25.3456 -20.749 9.29577
      vertex 25.3456 -20.731 9.09
    endloop
  endfacet
  facet normal 1 0 0
    outer loop
      vertex 25.3456 -20.6705 8.98399
      vertex 25.3456 -20.666 9.09
      vertex 25.3456 -20.731 9.09
    endloop
  endfacet
  facet normal 0 -0.999052 -0.043534
    outer loop
      vertex 23.7106 -20.7355 9.19306
      vertex 23.7116 -20.731 9.09
      vertex 25.3456 -20.731 9.09
    endloop
  endfacet
  facet normal 0 -0.996194 0.0871631
    outer loop
      vertex 23.7116 -20.731 9.09
      vertex 25.3456 -20.749 8.88423
      vertex 25.3456 -20.731 9.09
    endloop
  endfacet
  facet normal -0.999951 -0.000469308 -0.00987005
    outer loop
      vertex 23.7116 -20.731 9.09
      vertex 23.7106 -20.7355 9.19306
      vertex 23.7106 -20.6705 9.19601
    endloop
  endfacet
  facet normal -0.999544 0.000453643 -0.030204
    outer loop
      vertex 23.7106 -20.7355 9.19306
      vertex 23.7074 -20.684 9.30127
      vertex 23.7106 -20.6705 9.19601
    endloop
  endfacet
  facet normal 1 0 0
    outer loop
      vertex 25.3456 -20.6705 9.19601
      vertex 25.3456 -20.7063 9.40497
      vertex 25.3456 -20.749 9.29577
    endloop
  endfacet
  facet normal 1 0 0
    outer loop
      vertex 25.3456 -20.7063 9.40497
      vertex 25.3456 -20.8025 9.49529
      vertex 25.3456 -20.749 9.29577
    endloop
  endfacet
  facet normal 0.00547986 0.991862 0.127199
    outer loop
      vertex 23.7106 -20.6705 9.19601
      vertex 23.7074 -20.684 9.30127
      vertex 25.3456 -20.7063 9.40497
    endloop
  endfacet
  facet normal 0 0.977554 0.210687
    outer loop
      vertex 23.7074 -20.684 9.30127
      vertex 23.7022 -20.7063 9.40497
      vertex 25.3456 -20.7063 9.40497
    endloop
  endfacet
  facet normal 0 0.942876 0.333143
    outer loop
      vertex 25.3456 -20.7063 9.40497
      vertex 23.7022 -20.7063 9.40497
      vertex 25.3456 -20.777 9.60488
    endloop
  endfacet
  facet normal 0.00466752 0.954302 0.298807
    outer loop
      vertex 23.7022 -20.7063 9.40497
      vertex 23.6939 -20.7424 9.52043
      vertex 25.3456 -20.777 9.60488
    endloop
  endfacet
  facet normal 0 0.925648 0.378385
    outer loop
      vertex 25.3456 -20.777 9.60488
      vertex 23.6939 -20.7424 9.52043
      vertex 23.6863 -20.777 9.60488
    endloop
  endfacet
  facet normal 0 -0.967733 -0.251976
    outer loop
      vertex 25.3456 -23.0946 8.67358
      vertex 25.3456 -23.148 8.87875
      vertex 23.7074 -23.148 8.87875
    endloop
  endfacet
  facet normal 0 -0.991879 -0.127181
    outer loop
      vertex 25.3456 -23.148 8.87875
      vertex 23.7106 -23.1615 8.98359
      vertex 23.7074 -23.148 8.87875
    endloop
  endfacet
  facet normal 1 0 0
    outer loop
      vertex 25.3456 -23.148 8.87875
      vertex 25.3456 -23.0946 8.67358
      vertex 25.3456 -23.0295 8.68471
    endloop
  endfacet
  facet normal 1 0 0
    outer loop
      vertex 25.3456 -23.0946 8.67358
      vertex 25.3456 -22.9422 8.4975
      vertex 25.3456 -23.0295 8.68471
    endloop
  endfacet
  facet normal 1 0 0
    outer loop
      vertex 25.3456 -23.166 9.09
      vertex 25.3456 -23.148 8.87875
      vertex 25.3456 -23.083 8.88423
    endloop
  endfacet
  facet normal 1 0 0
    outer loop
      vertex 25.3456 -23.148 8.87875
      vertex 25.3456 -23.0295 8.68471
      vertex 25.3456 -23.083 8.88423
    endloop
  endfacet
  facet normal 0 -0.996397 -0.084806
    outer loop
      vertex 25.3456 -23.148 8.87875
      vertex 25.3456 -23.166 9.09
      vertex 23.7116 -23.166 9.09
    endloop
  endfacet
  facet normal 0 -0.999099 0.0424499
    outer loop
      vertex 25.3456 -23.166 9.09
      vertex 23.7106 -23.1615 9.19605
      vertex 23.7116 -23.166 9.09
    endloop
  endfacet
  facet normal -0.999948 0.000406417 -0.0101514
    outer loop
      vertex 23.7116 -23.166 9.09
      vertex 23.7106 -23.1615 9.19605
      vertex 23.7106 -23.0965 9.19351
    endloop
  endfacet
  facet normal -0.999566 -0.000346698 -0.0294676
    outer loop
      vertex 23.7106 -23.1615 9.19605
      vertex 23.7076 -23.083 9.29577
      vertex 23.7106 -23.0965 9.19351
    endloop
  endfacet
  facet normal -0.999948 0 0.0101694
    outer loop
      vertex 23.7106 -23.1615 8.98359
      vertex 23.7116 -23.166 9.09
      vertex 23.7116 -23.101 9.09
    endloop
  endfacet
  facet normal -0.999951 0 -0.00987842
    outer loop
      vertex 23.7116 -23.166 9.09
      vertex 23.7106 -23.0965 9.19351
      vertex 23.7116 -23.101 9.09
    endloop
  endfacet
  facet normal 0.00547877 -0.999075 -0.0426562
    outer loop
      vertex 23.7116 -23.166 9.09
      vertex 23.7106 -23.1615 8.98359
      vertex 25.3456 -23.148 8.87875
    endloop
  endfacet
  facet normal -0.999542 -0.000415933 0.0302428
    outer loop
      vertex 23.7074 -23.148 8.87875
      vertex 23.7106 -23.1615 8.98359
      vertex 23.7106 -23.0964 8.98633
    endloop
  endfacet
  facet normal -0.999951 0.000441355 0.00991861
    outer loop
      vertex 23.7106 -23.1615 8.98359
      vertex 23.7116 -23.101 9.09
      vertex 23.7106 -23.0964 8.98633
    endloop
  endfacet
  facet normal 1 0 0
    outer loop
      vertex 25.3456 -23.148 9.30125
      vertex 25.3456 -23.166 9.09
      vertex 25.3456 -23.101 9.09
    endloop
  endfacet
  facet normal 1 0 0
    outer loop
      vertex 25.3456 -23.166 9.09
      vertex 25.3456 -23.083 8.88423
      vertex 25.3456 -23.101 9.09
    endloop
  endfacet
  facet normal 0.00275455 -0.996394 0.0848056
    outer loop
      vertex 25.3456 -23.166 9.09
      vertex 25.3456 -23.148 9.30125
      vertex 23.7106 -23.1615 9.19605
    endloop
  endfacet
  facet normal 0 -0.991898 0.127041
    outer loop
      vertex 25.3456 -23.148 9.30125
      vertex 23.7074 -23.148 9.30125
      vertex 23.7106 -23.1615 9.19605
    endloop
  endfacet
  facet normal -0.0054953 0.999026 -0.0437739
    outer loop
      vertex 23.7116 -23.101 9.09
      vertex 23.7106 -23.0965 9.19351
      vertex 25.3456 -23.083 9.29577
    endloop
  endfacet
  facet normal 0 0.99143 -0.130636
    outer loop
      vertex 23.7106 -23.0965 9.19351
      vertex 23.7076 -23.083 9.29577
      vertex 25.3456 -23.083 9.29577
    endloop
  endfacet
  facet normal 0 0.965926 -0.25882
    outer loop
      vertex 25.3456 -23.083 9.29577
      vertex 23.7076 -23.083 9.29577
      vertex 25.3456 -23.0295 9.49529
    endloop
  endfacet
  facet normal -0.00546205 0.976215 -0.216734
    outer loop
      vertex 23.7076 -23.083 9.29577
      vertex 23.7027 -23.0606 9.39679
      vertex 25.3456 -23.0295 9.49529
    endloop
  endfacet
  facet normal 0 0.953706 -0.300742
    outer loop
      vertex 25.3456 -23.0295 9.49529
      vertex 23.7027 -23.0606 9.39679
      vertex 23.696 -23.0295 9.49529
    endloop
  endfacet
  facet normal 0 0.99904 0.0437971
    outer loop
      vertex 23.7106 -23.0964 8.98633
      vertex 23.7116 -23.101 9.09
      vertex 25.3456 -23.101 9.09
    endloop
  endfacet
  facet normal 0 0.996194 -0.0871631
    outer loop
      vertex 23.7116 -23.101 9.09
      vertex 25.3456 -23.083 9.29577
      vertex 25.3456 -23.101 9.09
    endloop
  endfacet
  facet normal -0.999539 0.000792003 -0.0303631
    outer loop
      vertex 23.7106 -23.1615 9.19605
      vertex 23.7074 -23.148 9.30125
      vertex 23.7076 -23.083 9.29577
    endloop
  endfacet
  facet normal -0.998811 -0.000759144 -0.048746
    outer loop
      vertex 23.7074 -23.148 9.30125
      vertex 23.7027 -23.0606 9.39679
      vertex 23.7076 -23.083 9.29577
    endloop
  endfacet
  facet normal -0.005455 -0.976205 0.21678
    outer loop
      vertex 23.7076 -20.749 8.88423
      vertex 23.7027 -20.7714 8.78308
      vertex 25.3456 -20.8025 8.68471
    endloop
  endfacet
  facet normal 0 -0.953691 0.300787
    outer loop
      vertex 23.7027 -20.7714 8.78308
      vertex 23.696 -20.8025 8.68471
      vertex 25.3456 -20.8025 8.68471
    endloop
  endfacet
  facet normal 0 -0.906306 0.422622
    outer loop
      vertex 25.3456 -20.8025 8.68471
      vertex 23.696 -20.8025 8.68471
      vertex 25.3456 -20.8897 8.4975
    endloop
  endfacet
  facet normal -0.00938229 -0.935386 0.353504
    outer loop
      vertex 23.696 -20.8025 8.68471
      vertex 23.6939 -20.8121 8.65918
      vertex 25.3456 -20.8897 8.4975
    endloop
  endfacet
  facet normal -0.00409345 -0.917058 0.398732
    outer loop
      vertex 25.3456 -20.8897 8.4975
      vertex 23.6939 -20.8121 8.65918
      vertex 23.6865 -20.8477 8.57722
    endloop
  endfacet
  facet normal 1 0 0
    outer loop
      vertex 25.3456 -20.7063 8.77503
      vertex 25.3456 -20.6705 8.98399
      vertex 25.3456 -20.731 9.09
    endloop
  endfacet
  facet normal 0.00274789 0.985611 -0.169005
    outer loop
      vertex 25.3456 -20.6705 8.98399
      vertex 25.3456 -20.7063 8.77503
      vertex 23.7074 -20.6841 8.87826
    endloop
  endfacet
  facet normal 0 0.977515 -0.210865
    outer loop
      vertex 25.3456 -20.7063 8.77503
      vertex 23.7022 -20.7063 8.77503
      vertex 23.7074 -20.6841 8.87826
    endloop
  endfacet
  facet normal -0.998724 -0.00109909 0.0504931
    outer loop
      vertex 23.7074 -20.6841 8.87826
      vertex 23.7022 -20.7063 8.77503
      vertex 23.7027 -20.7714 8.78308
    endloop
  endfacet
  facet normal -0.99771 0.00102737 0.0676276
    outer loop
      vertex 23.7022 -20.7063 8.77503
      vertex 23.696 -20.8025 8.68471
      vertex 23.7027 -20.7714 8.78308
    endloop
  endfacet
  facet normal 1 0 0
    outer loop
      vertex 25.3456 -20.749 8.88423
      vertex 25.3456 -20.8025 8.68471
      vertex 25.3456 -20.777 8.57512
    endloop
  endfacet
  facet normal 1 0 0
    outer loop
      vertex 25.3456 -20.8025 8.68471
      vertex 25.3456 -20.8804 8.39003
      vertex 25.3456 -20.777 8.57512
    endloop
  endfacet
  facet normal 1 0 0
    outer loop
      vertex 25.3456 -20.731 9.09
      vertex 25.3456 -20.749 8.88423
      vertex 25.3456 -20.7063 8.77503
    endloop
  endfacet
  facet normal 1 0 0
    outer loop
      vertex 25.3456 -20.749 8.88423
      vertex 25.3456 -20.777 8.57512
      vertex 25.3456 -20.7063 8.77503
    endloop
  endfacet
  facet normal -0.0027579 -0.99619 -0.0871628
    outer loop
      vertex 25.3456 -20.731 9.09
      vertex 25.3456 -20.749 9.29577
      vertex 23.7106 -20.7355 9.19306
    endloop
  endfacet
  facet normal 0 -0.991456 -0.130441
    outer loop
      vertex 25.3456 -20.749 9.29577
      vertex 23.7076 -20.749 9.29577
      vertex 23.7106 -20.7355 9.19306
    endloop
  endfacet
  facet normal -0.999562 -0.00087777 -0.0295709
    outer loop
      vertex 23.7106 -20.7355 9.19306
      vertex 23.7076 -20.749 9.29577
      vertex 23.7074 -20.684 9.30127
    endloop
  endfacet
  facet normal -0.998747 0.000855283 -0.050028
    outer loop
      vertex 23.7076 -20.749 9.29577
      vertex 23.7022 -20.7063 9.40497
      vertex 23.7074 -20.684 9.30127
    endloop
  endfacet
  facet normal 1 0 0
    outer loop
      vertex 25.3456 -20.7063 9.40497
      vertex 25.3456 -20.777 9.60488
      vertex 25.3456 -20.8025 9.49529
    endloop
  endfacet
  facet normal 1 0 0
    outer loop
      vertex 25.3456 -20.777 9.60488
      vertex 25.3456 -20.8897 9.6825
      vertex 25.3456 -20.8025 9.49529
    endloop
  endfacet
  facet normal -0.00274434 -0.965924 -0.25881
    outer loop
      vertex 25.3456 -20.749 9.29577
      vertex 25.3456 -20.8025 9.49529
      vertex 23.7026 -20.7715 9.39714
    endloop
  endfacet
  facet normal -2.24482e-7 -0.953663 -0.300878
    outer loop
      vertex 25.3456 -20.8025 9.49529
      vertex 23.696 -20.8025 9.49531
      vertex 23.7026 -20.7715 9.39714
    endloop
  endfacet
  facet normal -0.99875 -0.000863844 0.0499863
    outer loop
      vertex 23.7022 -23.1257 8.77537
      vertex 23.7074 -23.148 8.87875
      vertex 23.7076 -23.083 8.88423
    endloop
  endfacet
  facet normal -0.99956 0.000853423 0.029635
    outer loop
      vertex 23.7074 -23.148 8.87875
      vertex 23.7106 -23.0964 8.98633
      vertex 23.7076 -23.083 8.88423
    endloop
  endfacet
  facet normal 0.00547511 -0.977513 -0.210805
    outer loop
      vertex 23.7074 -23.148 8.87875
      vertex 23.7022 -23.1257 8.77537
      vertex 25.3456 -23.0946 8.67358
    endloop
  endfacet
  facet normal -6.71819e-7 -0.956208 -0.292686
    outer loop
      vertex 23.7022 -23.1257 8.77537
      vertex 23.6951 -23.0946 8.67357
      vertex 25.3456 -23.0946 8.67358
    endloop
  endfacet
  facet normal 3.51112e-8 -0.911227 -0.411904
    outer loop
      vertex 25.3456 -23.0946 8.67358
      vertex 23.6951 -23.0946 8.67357
      vertex 25.3456 -23.0073 8.48038
    endloop
  endfacet
  facet normal 0.0100424 -0.940596 -0.339378
    outer loop
      vertex 23.6951 -23.0946 8.67357
      vertex 23.6939 -23.0895 8.65957
      vertex 25.3456 -23.0073 8.48038
    endloop
  endfacet
  facet normal 0.00465029 -0.924314 -0.381604
    outer loop
      vertex 25.3456 -23.0073 8.48038
      vertex 23.6939 -23.0895 8.65957
      vertex 23.6856 -23.0518 8.56806
    endloop
  endfacet
  facet normal -0.00274459 0.965922 0.258819
    outer loop
      vertex 25.3456 -23.083 8.88423
      vertex 25.3456 -23.0295 8.68471
      vertex 23.7027 -23.0607 8.78366
    endloop
  endfacet
  facet normal 6.85381e-7 0.95376 0.300568
    outer loop
      vertex 25.3456 -23.0295 8.68471
      vertex 23.696 -23.0295 8.68469
      vertex 23.7027 -23.0607 8.78366
    endloop
  endfacet
  facet normal -0.00275759 0.99619 0.0871628
    outer loop
      vertex 25.3456 -23.101 9.09
      vertex 25.3456 -23.083 8.88423
      vertex 23.7106 -23.0964 8.98633
    endloop
  endfacet
  facet normal 0 0.991423 0.130693
    outer loop
      vertex 25.3456 -23.083 8.88423
      vertex 23.7076 -23.083 8.88423
      vertex 23.7106 -23.0964 8.98633
    endloop
  endfacet
  facet normal 1 0 0
    outer loop
      vertex 25.3456 -23.0946 8.67358
      vertex 25.3456 -23.0073 8.48038
      vertex 25.3456 -22.9422 8.4975
    endloop
  endfacet
  facet normal 1 0 0
    outer loop
      vertex 25.3456 -23.0073 8.48038
      vertex 25.3456 -22.8238 8.3283
      vertex 25.3456 -22.9422 8.4975
    endloop
  endfacet
  facet normal -0.00123337 0.906309 0.422614
    outer loop
      vertex 25.3456 -23.0295 8.68471
      vertex 25.3456 -22.9422 8.4975
      vertex 23.6939 -23.0201 8.65957
    endloop
  endfacet
  facet normal -0.00408389 0.917061 0.398727
    outer loop
      vertex 25.3456 -22.9422 8.4975
      vertex 23.6865 -22.9841 8.57686
      vertex 23.6939 -23.0201 8.65957
    endloop
  endfacet
  facet normal 1 0 0
    outer loop
      vertex 25.3456 -23.0946 9.50642
      vertex 25.3456 -23.148 9.30125
      vertex 25.3456 -23.083 9.29577
    endloop
  endfacet
  facet normal 1 0 0
    outer loop
      vertex 25.3456 -23.148 9.30125
      vertex 25.3456 -23.101 9.09
      vertex 25.3456 -23.083 9.29577
    endloop
  endfacet
  facet normal 0.0027397 -0.96773 0.251974
    outer loop
      vertex 25.3456 -23.148 9.30125
      vertex 25.3456 -23.0946 9.50642
      vertex 23.7022 -23.1256 9.40524
    endloop
  endfacet
  facet normal 0 -0.956136 0.292923
    outer loop
      vertex 25.3456 -23.0946 9.50642
      vertex 23.6951 -23.0946 9.50642
      vertex 23.7022 -23.1256 9.40524
    endloop
  endfacet
  facet normal 1 0 0
    outer loop
      vertex 25.3456 -23.083 9.29577
      vertex 25.3456 -23.0295 9.49529
      vertex 25.3456 -23.0946 9.50642
    endloop
  endfacet
  facet normal 1 0 0
    outer loop
      vertex 25.3456 -23.0295 9.49529
      vertex 25.3456 -23.0073 9.69962
      vertex 25.3456 -23.0946 9.50642
    endloop
  endfacet
  facet normal 0 -0.977531 0.21079
    outer loop
      vertex 23.7022 -23.1256 9.40524
      vertex 23.7074 -23.148 9.30125
      vertex 25.3456 -23.148 9.30125
    endloop
  endfacet
  facet normal -0.998725 0.00113616 -0.0504759
    outer loop
      vertex 23.7074 -23.148 9.30125
      vertex 23.7022 -23.1256 9.40524
      vertex 23.7027 -23.0606 9.39679
    endloop
  endfacet
  facet normal -0.997712 -0.00109706 -0.0675926
    outer loop
      vertex 23.7022 -23.1256 9.40524
      vertex 23.696 -23.0295 9.49529
      vertex 23.7027 -23.0606 9.39679
    endloop
  endfacet
  facet normal 1 0 0
    outer loop
      vertex 25.3456 -20.8025 8.68471
      vertex 25.3456 -20.8897 8.4975
      vertex 25.3456 -20.8804 8.39003
    endloop
  endfacet
  facet normal 1 0 0
    outer loop
      vertex 25.3456 -20.8897 8.4975
      vertex 25.3456 -21.0135 8.22508
      vertex 25.3456 -20.8804 8.39003
    endloop
  endfacet
  facet normal 0.00267349 0.942873 -0.333143
    outer loop
      vertex 25.3456 -20.7063 8.77503
      vertex 25.3456 -20.777 8.57512
      vertex 23.6939 -20.7424 8.65957
    endloop
  endfacet
  facet normal 0 0.925645 -0.378392
    outer loop
      vertex 25.3456 -20.777 8.57512
      vertex 23.6863 -20.777 8.57512
      vertex 23.6939 -20.7424 8.65957
    endloop
  endfacet
  facet normal 0 0.954408 -0.298505
    outer loop
      vertex 23.6939 -20.7424 8.65957
      vertex 23.7022 -20.7063 8.77503
      vertex 25.3456 -20.7063 8.77503
    endloop
  endfacet
  facet normal -0.997392 -0.00320043 0.0721053
    outer loop
      vertex 23.7022 -20.7063 8.77503
      vertex 23.6939 -20.7424 8.65957
      vertex 23.696 -20.8025 8.68471
    endloop
  endfacet
  facet normal -0.996813 2.86556e-5 0.0797692
    outer loop
      vertex 23.6939 -20.7424 8.65957
      vertex 23.6939 -20.8121 8.65918
      vertex 23.696 -20.8025 8.68471
    endloop
  endfacet
  facet normal 0.00269724 0.873014 -0.487689
    outer loop
      vertex 25.3456 -20.777 8.57512
      vertex 25.3456 -20.8804 8.39003
      vertex 23.676 -20.8249 8.48003
    endloop
  endfacet
  facet normal 0 0.851445 -0.524443
    outer loop
      vertex 25.3456 -20.8804 8.39003
      vertex 23.6647 -20.8804 8.39003
      vertex 23.676 -20.8249 8.48003
    endloop
  endfacet
  facet normal 0 -0.976255 -0.216623
    outer loop
      vertex 23.7026 -20.7715 9.39714
      vertex 23.7076 -20.749 9.29577
      vertex 25.3456 -20.749 9.29577
    endloop
  endfacet
  facet normal -0.998787 -0.00122446 -0.0492173
    outer loop
      vertex 23.7076 -20.749 9.29577
      vertex 23.7026 -20.7715 9.39714
      vertex 23.7022 -20.7063 9.40497
    endloop
  endfacet
  facet normal -0.997498 0.001364 -0.0706859
    outer loop
      vertex 23.7026 -20.7715 9.39714
      vertex 23.6939 -20.7424 9.52043
      vertex 23.7022 -20.7063 9.40497
    endloop
  endfacet
  facet normal -0.00123327 -0.906305 -0.422622
    outer loop
      vertex 25.3456 -20.8025 9.49529
      vertex 25.3456 -20.8897 9.6825
      vertex 23.6939 -20.8119 9.52043
    endloop
  endfacet
  facet normal -0.00410585 -0.917138 -0.398548
    outer loop
      vertex 25.3456 -20.8897 9.6825
      vertex 23.6865 -20.8477 9.60273
      vertex 23.6939 -20.8119 9.52043
    endloop
  endfacet
  facet normal 0 0.873017 0.48769
    outer loop
      vertex 25.3456 -20.8804 9.78997
      vertex 25.3456 -20.777 9.60488
      vertex 23.6863 -20.777 9.60488
    endloop
  endfacet
  facet normal 1 0 0
    outer loop
      vertex 25.3456 -20.777 9.60488
      vertex 25.3456 -20.8804 9.78997
      vertex 25.3456 -20.8897 9.6825
    endloop
  endfacet
  facet normal 1 0 0
    outer loop
      vertex 25.3456 -20.8804 9.78997
      vertex 25.3456 -21.0082 9.8517
      vertex 25.3456 -20.8897 9.6825
    endloop
  endfacet
  facet normal -0.997584 -0.00438173 -0.069338
    outer loop
      vertex 23.7026 -20.7715 9.39714
      vertex 23.696 -20.8025 9.49531
      vertex 23.6939 -20.7424 9.52043
    endloop
  endfacet
  facet normal -0.996815 0 -0.0797452
    outer loop
      vertex 23.696 -20.8025 9.49531
      vertex 23.6939 -20.8119 9.52043
      vertex 23.6939 -20.7424 9.52043
    endloop
  endfacet
  facet normal -0.995926 0 -0.0901743
    outer loop
      vertex 23.6939 -20.7424 9.52043
      vertex 23.6939 -20.8119 9.52043
      vertex 23.6863 -20.777 9.60488
    endloop
  endfacet
  facet normal -0.995935 -0.000229821 -0.0900799
    outer loop
      vertex 23.6939 -20.8119 9.52043
      vertex 23.6865 -20.8477 9.60273
      vertex 23.6863 -20.777 9.60488
    endloop
  endfacet
  facet normal -0.994243 0.000293355 -0.107145
    outer loop
      vertex 23.6863 -20.777 9.60488
      vertex 23.6865 -20.8477 9.60273
      vertex 23.6761 -20.8247 9.69962
    endloop
  endfacet
  facet normal -0.994303 -0.00216172 -0.10657
    outer loop
      vertex 23.6865 -20.8477 9.60273
      vertex 23.678 -20.8897 9.6825
      vertex 23.6761 -20.8247 9.69962
    endloop
  endfacet
  facet normal -0.992341 0.00235682 -0.123507
    outer loop
      vertex 23.6761 -20.8247 9.69962
      vertex 23.678 -20.8897 9.6825
      vertex 23.6647 -20.8804 9.78997
    endloop
  endfacet
  facet normal -0.992394 -0.00265695 -0.123075
    outer loop
      vertex 23.678 -20.8897 9.6825
      vertex 23.6673 -20.9455 9.77003
      vertex 23.6647 -20.8804 9.78997
    endloop
  endfacet
  facet normal -0.990209 0.00247586 -0.139568
    outer loop
      vertex 23.6647 -20.8804 9.78997
      vertex 23.6673 -20.9455 9.77003
      vertex 23.653 -20.9405 9.87167
    endloop
  endfacet
  facet normal -0.990242 -0.00236789 -0.139335
    outer loop
      vertex 23.6673 -20.9455 9.77003
      vertex 23.656 -21.0082 9.8517
      vertex 23.653 -20.9405 9.87167
    endloop
  endfacet
  facet normal -0.987899 0.00237872 -0.155079
    outer loop
      vertex 23.653 -20.9405 9.87167
      vertex 23.656 -21.0082 9.8517
      vertex 23.6398 -21.0135 9.95492
    endloop
  endfacet
  facet normal -0.987877 -0.000773185 -0.155238
    outer loop
      vertex 23.656 -21.0082 9.8517
      vertex 23.6409 -21.0986 9.94795
      vertex 23.6398 -21.0135 9.95492
    endloop
  endfacet
  facet normal -0.985196 0.000591202 -0.171432
    outer loop
      vertex 23.6398 -21.0135 9.95492
      vertex 23.6409 -21.0986 9.94795
      vertex 23.627 -21.0901 10.0283
    endloop
  endfacet
  facet normal -0.985248 -0.00245892 -0.171117
    outer loop
      vertex 23.6409 -21.0986 9.94795
      vertex 23.6324 -21.1543 9.99776
      vertex 23.627 -21.0901 10.0283
    endloop
  endfacet
  facet normal -0.983301 0.0028606 -0.181965
    outer loop
      vertex 23.627 -21.0901 10.0283
      vertex 23.6324 -21.1543 9.99776
      vertex 23.6144 -21.1727 10.095
    endloop
  endfacet
  facet normal -0.983101 -0.00301763 -0.183041
    outer loop
      vertex 23.6324 -21.1543 9.99776
      vertex 23.6209 -21.2365 10.0609
      vertex 23.6144 -21.1727 10.095
    endloop
  endfacet
  facet normal -0.981098 0.00277586 -0.193493
    outer loop
      vertex 23.6144 -21.1727 10.095
      vertex 23.6209 -21.2365 10.0609
      vertex 23.6024 -21.2608 10.1545
    endloop
  endfacet
  facet normal -0.980816 -0.00291979 -0.194912
    outer loop
      vertex 23.6209 -21.2365 10.0609
      vertex 23.6102 -21.3235 10.1162
      vertex 23.6024 -21.2608 10.1545
    endloop
  endfacet
  facet normal -0.979055 0.00258895 -0.203578
    outer loop
      vertex 23.6024 -21.2608 10.1545
      vertex 23.6102 -21.3235 10.1162
      vertex 23.5914 -21.3532 10.2062
    endloop
  endfacet
  facet normal -0.978707 -0.00266355 -0.205243
    outer loop
      vertex 23.6102 -21.3235 10.1162
      vertex 23.6005 -21.4147 10.1638
      vertex 23.5914 -21.3532 10.2062
    endloop
  endfacet
  facet normal -0.977225 0.00234292 -0.212192
    outer loop
      vertex 23.5914 -21.3532 10.2062
      vertex 23.6005 -21.4147 10.1638
      vertex 23.5817 -21.4498 10.2498
    endloop
  endfacet
  facet normal -0.976833 -0.00229016 -0.213992
    outer loop
      vertex 23.6005 -21.4147 10.1638
      vertex 23.592 -21.5107 10.2035
      vertex 23.5817 -21.4498 10.2498
    endloop
  endfacet
  facet normal -0.975644 0.00197969 -0.219351
    outer loop
      vertex 23.5817 -21.4498 10.2498
      vertex 23.592 -21.5107 10.2035
      vertex 23.5735 -21.55 10.2852
    endloop
  endfacet
  facet normal -0.975247 -0.00186758 -0.221111
    outer loop
      vertex 23.592 -21.5107 10.2035
      vertex 23.5851 -21.6095 10.2347
      vertex 23.5735 -21.55 10.2852
    endloop
  endfacet
  facet normal -0.974369 0.00155785 -0.224949
    outer loop
      vertex 23.5735 -21.55 10.2852
      vertex 23.5851 -21.6095 10.2347
      vertex 23.5672 -21.6528 10.312
    endloop
  endfacet
  facet normal -0.974005 -0.00140214 -0.226523
    outer loop
      vertex 23.5851 -21.6095 10.2347
      vertex 23.5801 -21.7102 10.257
      vertex 23.5672 -21.6528 10.312
    endloop
  endfacet
  facet normal -0.973433 0.00107018 -0.228969
    outer loop
      vertex 23.5672 -21.6528 10.312
      vertex 23.5801 -21.7102 10.257
      vertex 23.5629 -21.7572 10.3299
    endloop
  endfacet
  facet normal -0.973156 -0.000853964 -0.230145
    outer loop
      vertex 23.5801 -21.7102 10.257
      vertex 23.577 -21.8123 10.2705
      vertex 23.5629 -21.7572 10.3299
    endloop
  endfacet
  facet normal -0.972865 0.000547254 -0.231373
    outer loop
      vertex 23.5629 -21.7572 10.3299
      vertex 23.577 -21.8123 10.2705
      vertex 23.5607 -21.8628 10.3389
    endloop
  endfacet
  facet normal -0.972723 -0.000305187 -0.231969
    outer loop
      vertex 23.577 -21.8123 10.2705
      vertex 23.5759 -21.916 10.275
      vertex 23.5607 -21.8628 10.3389
    endloop
  endfacet
  facet normal -0.972665 4.84015e-6 -0.232214
    outer loop
      vertex 23.5607 -21.8628 10.3389
      vertex 23.5759 -21.916 10.275
      vertex 23.5607 -21.969 10.3389
    endloop
  endfacet
  facet normal -0.97258 -0.000444511 -0.232567
    outer loop
      vertex 23.5759 -21.916 10.275
      vertex 23.5629 -22.0751 10.3298
      vertex 23.5607 -21.969 10.3389
    endloop
  endfacet
  facet normal -0.997591 -0.00129243 0.0693629
    outer loop
      vertex 23.6951 -23.0946 8.67357
      vertex 23.7022 -23.1257 8.77537
      vertex 23.7027 -23.0607 8.78366
    endloop
  endfacet
  facet normal -0.998791 0.00129234 0.0491414
    outer loop
      vertex 23.7022 -23.1257 8.77537
      vertex 23.7076 -23.083 8.88423
      vertex 23.7027 -23.0607 8.78366
    endloop
  endfacet
  facet normal 0 0.97633 0.216287
    outer loop
      vertex 23.7027 -23.0607 8.78366
      vertex 23.7076 -23.083 8.88423
      vertex 25.3456 -23.083 8.88423
    endloop
  endfacet
  facet normal -0.997654 0.00172169 0.0684398
    outer loop
      vertex 23.7027 -23.0607 8.78366
      vertex 23.696 -23.0295 8.68469
      vertex 23.6951 -23.0946 8.67357
    endloop
  endfacet
  facet normal -0.996743 -0.000376298 0.0806386
    outer loop
      vertex 23.696 -23.0295 8.68469
      vertex 23.6939 -23.0895 8.65957
      vertex 23.6951 -23.0946 8.67357
    endloop
  endfacet
  facet normal -0.00268766 0.819146 0.573579
    outer loop
      vertex 25.3456 -22.9422 8.4975
      vertex 25.3456 -22.8238 8.3283
      vertex 23.6674 -22.8869 8.4106
    endloop
  endfacet
  facet normal 0 0.793434 0.608657
    outer loop
      vertex 25.3456 -22.8238 8.3283
      vertex 23.656 -22.8238 8.3283
      vertex 23.6674 -22.8869 8.4106
    endloop
  endfacet
  facet normal -0.995898 0.00108878 0.090479
    outer loop
      vertex 23.6939 -23.0201 8.65957
      vertex 23.6865 -22.9841 8.57686
      vertex 23.6856 -23.0518 8.56806
    endloop
  endfacet
  facet normal -0.994216 -0.00113241 0.107394
    outer loop
      vertex 23.6865 -22.9841 8.57686
      vertex 23.6761 -23.0073 8.48038
      vertex 23.6856 -23.0518 8.56806
    endloop
  endfacet
  facet normal -0.996815 0 0.0797452
    outer loop
      vertex 23.696 -23.0295 8.68469
      vertex 23.6939 -23.0201 8.65957
      vertex 23.6939 -23.0895 8.65957
    endloop
  endfacet
  facet normal -0.995864 0 0.0908538
    outer loop
      vertex 23.6939 -23.0201 8.65957
      vertex 23.6856 -23.0518 8.56806
      vertex 23.6939 -23.0895 8.65957
    endloop
  endfacet
  facet normal 1.83304e-7 0.935753 0.352655
    outer loop
      vertex 23.6939 -23.0201 8.65957
      vertex 23.696 -23.0295 8.68469
      vertex 25.3456 -23.0295 8.68471
    endloop
  endfacet
  facet normal 0 -0.82851 -0.559974
    outer loop
      vertex 25.3456 -22.8885 8.30472
      vertex 25.3456 -23.0073 8.48038
      vertex 23.6761 -23.0073 8.48038
    endloop
  endfacet
  facet normal 0 -0.891518 -0.452984
    outer loop
      vertex 25.3456 -23.0073 8.48038
      vertex 23.6856 -23.0518 8.56806
      vertex 23.6761 -23.0073 8.48038
    endloop
  endfacet
  facet normal 1 0 0
    outer loop
      vertex 25.3456 -23.0073 8.48038
      vertex 25.3456 -22.8885 8.30472
      vertex 25.3456 -22.8238 8.3283
    endloop
  endfacet
  facet normal 1 0 0
    outer loop
      vertex 25.3456 -22.8885 8.30472
      vertex 25.3456 -22.6777 8.18224
      vertex 25.3456 -22.8238 8.3283
    endloop
  endfacet
  facet normal 0.00270049 -0.911223 0.411904
    outer loop
      vertex 25.3456 -23.0946 9.50642
      vertex 25.3456 -23.0073 9.69962
      vertex 23.6856 -23.0521 9.61136
    endloop
  endfacet
  facet normal 0 -0.891636 0.452753
    outer loop
      vertex 25.3456 -23.0073 9.69962
      vertex 23.6761 -23.0073 9.69962
      vertex 23.6856 -23.0521 9.61136
    endloop
  endfacet
  facet normal 0 0.906309 -0.422615
    outer loop
      vertex 25.3456 -22.9422 9.6825
      vertex 25.3456 -23.0295 9.49529
      vertex 23.696 -23.0295 9.49529
    endloop
  endfacet
  facet normal 1 0 0
    outer loop
      vertex 25.3456 -23.0295 9.49529
      vertex 25.3456 -22.9422 9.6825
      vertex 25.3456 -23.0073 9.69962
    endloop
  endfacet
  facet normal 1 0 0
    outer loop
      vertex 25.3456 -22.9422 9.6825
      vertex 25.3456 -22.8885 9.87527
      vertex 25.3456 -23.0073 9.69962
    endloop
  endfacet
  facet normal -0.997529 0.00140388 -0.0702478
    outer loop
      vertex 23.7022 -23.1256 9.40524
      vertex 23.6951 -23.0946 9.50642
      vertex 23.696 -23.0295 9.49529
    endloop
  endfacet
  facet normal -0.996819 -0.000222221 -0.0796967
    outer loop
      vertex 23.6951 -23.0946 9.50642
      vertex 23.6939 -23.0199 9.52082
      vertex 23.696 -23.0295 9.49529
    endloop
  endfacet
  facet normal -0.972718 0.000286772 0.231992
    outer loop
      vertex 23.577 -22.0192 7.9095
      vertex 23.5759 -21.916 7.905
      vertex 23.5607 -21.969 7.84113
    endloop
  endfacet
  facet normal -0.972665 6.64184e-6 0.232212
    outer loop
      vertex 23.5759 -21.916 7.905
      vertex 23.5607 -21.8634 7.84111
      vertex 23.5607 -21.969 7.84113
    endloop
  endfacet
  facet normal 0 0.0435785 0.99905
    outer loop
      vertex 23.5759 -21.916 7.905
      vertex 23.577 -22.0192 7.9095
      vertex 25.3456 -21.916 7.905
    endloop
  endfacet
  facet normal -0.00254954 0.0871535 0.996192
    outer loop
      vertex 23.577 -22.0192 7.9095
      vertex 25.3456 -22.1218 7.923
      vertex 25.3456 -21.916 7.905
    endloop
  endfacet
  facet normal 0 -0.0435375 0.999052
    outer loop
      vertex 23.577 -21.8129 7.90949
      vertex 23.5759 -21.916 7.905
      vertex 25.3456 -21.916 7.905
    endloop
  endfacet
  facet normal -0.973018 -0.00022774 0.23073
    outer loop
      vertex 23.5759 -21.916 7.905
      vertex 23.577 -21.8129 7.90949
      vertex 23.5629 -21.7572 7.85012
    endloop
  endfacet
  facet normal -0.972841 0.00060813 0.231472
    outer loop
      vertex 23.577 -21.8129 7.90949
      vertex 23.5672 -21.6523 7.86812
      vertex 23.5629 -21.7572 7.85012
    endloop
  endfacet
  facet normal -0.972585 0.000435359 0.232546
    outer loop
      vertex 23.5629 -21.7572 7.85012
      vertex 23.5607 -21.8634 7.84111
      vertex 23.5759 -21.916 7.905
    endloop
  endfacet
  facet normal 0 0.0846355 -0.996412
    outer loop
      vertex 23.5607 -21.8634 7.84111
      vertex 23.5629 -21.7572 7.85012
      vertex 25.3456 -21.7572 7.85012
    endloop
  endfacet
  facet normal 0 0.169123 -0.985595
    outer loop
      vertex 23.5629 -21.7572 7.85012
      vertex 23.5672 -21.6523 7.86812
      vertex 25.3456 -21.7572 7.85012
    endloop
  endfacet
  facet normal 0.0025319 0.210678 -0.977552
    outer loop
      vertex 25.3456 -21.7572 7.85012
      vertex 23.5672 -21.6523 7.86812
      vertex 25.3456 -21.55 7.89479
    endloop
  endfacet
  facet normal 0 0.252093 -0.967703
    outer loop
      vertex 23.5672 -21.6523 7.86812
      vertex 23.5735 -21.55 7.89479
      vertex 25.3456 -21.55 7.89479
    endloop
  endfacet
  facet normal 0 0.333012 -0.942923
    outer loop
      vertex 25.3456 -21.55 7.89479
      vertex 23.5735 -21.55 7.89479
      vertex 23.5817 -21.4502 7.93002
    endloop
  endfacet
  facet normal 0 -0.000176274 -1
    outer loop
      vertex 23.5607 -21.969 7.84113
      vertex 23.5607 -21.8634 7.84111
      vertex 25.3456 -21.969 7.84113
    endloop
  endfacet
  facet normal 0.00252293 0.042442 -0.999096
    outer loop
      vertex 23.5607 -21.8634 7.84111
      vertex 25.3456 -21.7572 7.85012
      vertex 25.3456 -21.969 7.84113
    endloop
  endfacet
  facet normal 0 -0.0847058 -0.996406
    outer loop
      vertex 23.5629 -22.0745 7.85009
      vertex 23.5607 -21.969 7.84113
      vertex 25.3456 -21.969 7.84113
    endloop
  endfacet
  facet normal -0.972853 -0.000534109 0.231422
    outer loop
      vertex 23.5607 -21.969 7.84113
      vertex 23.5629 -22.0745 7.85009
      vertex 23.577 -22.0192 7.9095
    endloop
  endfacet
  facet normal -0.973148 0.000874675 0.230181
    outer loop
      vertex 23.5629 -22.0745 7.85009
      vertex 23.5801 -22.1218 7.923
      vertex 23.577 -22.0192 7.9095
    endloop
  endfacet
  facet normal 0 0.130486 0.99145
    outer loop
      vertex 23.577 -22.0192 7.9095
      vertex 23.5801 -22.1218 7.923
      vertex 25.3456 -22.1218 7.923
    endloop
  endfacet
  facet normal 0 0.216591 0.976262
    outer loop
      vertex 23.5801 -22.1218 7.923
      vertex 23.5852 -22.223 7.94547
      vertex 25.3456 -22.1218 7.923
    endloop
  endfacet
  facet normal -0.00256134 0.258819 0.965922
    outer loop
      vertex 25.3456 -22.1218 7.923
      vertex 23.5852 -22.223 7.94547
      vertex 25.3456 -22.3213 7.97646
    endloop
  endfacet
  facet normal 0 0.300854 0.95367
    outer loop
      vertex 23.5852 -22.223 7.94547
      vertex 23.592 -22.3213 7.97646
      vertex 25.3456 -22.3213 7.97646
    endloop
  endfacet
  facet normal 0 0.382653 0.923892
    outer loop
      vertex 25.3456 -22.3213 7.97646
      vertex 23.592 -22.3213 7.97646
      vertex 23.6004 -22.4167 8.01598
    endloop
  endfacet
  facet normal 0 -0.130449 0.991455
    outer loop
      vertex 23.5801 -21.7102 7.923
      vertex 23.577 -21.8129 7.90949
      vertex 25.3456 -21.7102 7.923
    endloop
  endfacet
  facet normal -0.00254962 -0.0871543 0.996192
    outer loop
      vertex 23.577 -21.8129 7.90949
      vertex 25.3456 -21.916 7.905
      vertex 25.3456 -21.7102 7.923
    endloop
  endfacet
  facet normal -0.973796 -0.000492842 0.227425
    outer loop
      vertex 23.577 -21.8129 7.90949
      vertex 23.5801 -21.7102 7.923
      vertex 23.5672 -21.6523 7.86812
    endloop
  endfacet
  facet normal -0.973543 0.000586813 0.228504
    outer loop
      vertex 23.5801 -21.7102 7.923
      vertex 23.5735 -21.55 7.89479
      vertex 23.5672 -21.6523 7.86812
    endloop
  endfacet
  facet normal 1 0 0
    outer loop
      vertex 25.3456 -21.916 7.905
      vertex 25.3456 -22.1218 7.923
      vertex 25.3456 -22.1793 7.86806
    endloop
  endfacet
  facet normal 1 0 0
    outer loop
      vertex 25.3456 -22.1218 7.923
      vertex 25.3456 -22.3821 7.93014
      vertex 25.3456 -22.1793 7.86806
    endloop
  endfacet
  facet normal 1 0 0
    outer loop
      vertex 25.3456 -21.7102 7.923
      vertex 25.3456 -21.916 7.905
      vertex 25.3456 -21.969 7.84113
    endloop
  endfacet
  facet normal 1 0 0
    outer loop
      vertex 25.3456 -21.916 7.905
      vertex 25.3456 -22.1793 7.86806
      vertex 25.3456 -21.969 7.84113
    endloop
  endfacet
  facet normal 1 0 0
    outer loop
      vertex 25.3456 -21.969 7.84113
      vertex 25.3456 -21.7572 7.85012
      vertex 25.3456 -21.7102 7.923
    endloop
  endfacet
  facet normal 1 0 0
    outer loop
      vertex 25.3456 -21.7572 7.85012
      vertex 25.3456 -21.5107 7.97646
      vertex 25.3456 -21.7102 7.923
    endloop
  endfacet
  facet normal 0.00252567 -0.12702 -0.991897
    outer loop
      vertex 25.3456 -21.969 7.84113
      vertex 25.3456 -22.1793 7.86806
      vertex 23.5629 -22.0745 7.85009
    endloop
  endfacet
  facet normal 0 -0.168895 -0.985634
    outer loop
      vertex 25.3456 -22.1793 7.86806
      vertex 23.5672 -22.1793 7.86806
      vertex 23.5629 -22.0745 7.85009
    endloop
  endfacet
  facet normal 1 0 0
    outer loop
      vertex 25.3456 -21.7572 7.85012
      vertex 25.3456 -21.55 7.89479
      vertex 25.3456 -21.5107 7.97646
    endloop
  endfacet
  facet normal 1 0 0
    outer loop
      vertex 25.3456 -21.55 7.89479
      vertex 25.3456 -21.3235 8.06376
      vertex 25.3456 -21.5107 7.97646
    endloop
  endfacet
  facet normal -0.97343 -0.00107528 0.228983
    outer loop
      vertex 23.5629 -22.0745 7.85009
      vertex 23.5672 -22.1793 7.86806
      vertex 23.5801 -22.1218 7.923
    endloop
  endfacet
  facet normal -0.974003 0.00139195 0.226532
    outer loop
      vertex 23.5672 -22.1793 7.86806
      vertex 23.5852 -22.223 7.94547
      vertex 23.5801 -22.1218 7.923
    endloop
  endfacet
  facet normal 1 0 0
    outer loop
      vertex 25.3456 -22.1218 7.923
      vertex 25.3456 -22.3213 7.97646
      vertex 25.3456 -22.3821 7.93014
    endloop
  endfacet
  facet normal 1 0 0
    outer loop
      vertex 25.3456 -22.3213 7.97646
      vertex 25.3456 -22.5714 8.02559
      vertex 25.3456 -22.3821 7.93014
    endloop
  endfacet
  facet normal -0.00256143 -0.258819 0.965922
    outer loop
      vertex 25.3456 -21.7102 7.923
      vertex 25.3456 -21.5107 7.97646
      vertex 23.5851 -21.6092 7.9454
    endloop
  endfacet
  facet normal 0 -0.300741 0.953706
    outer loop
      vertex 25.3456 -21.5107 7.97646
      vertex 23.592 -21.5107 7.97646
      vertex 23.5851 -21.6092 7.9454
    endloop
  endfacet
  facet normal 0 -0.216473 0.976289
    outer loop
      vertex 23.5851 -21.6092 7.9454
      vertex 23.5801 -21.7102 7.923
      vertex 25.3456 -21.7102 7.923
    endloop
  endfacet
  facet normal -0.974892 -0.000493512 0.222679
    outer loop
      vertex 23.5801 -21.7102 7.923
      vertex 23.5851 -21.6092 7.9454
      vertex 23.5735 -21.55 7.89479
    endloop
  endfacet
  facet normal -0.97467 0.00037819 0.223649
    outer loop
      vertex 23.5851 -21.6092 7.9454
      vertex 23.5817 -21.4502 7.93002
      vertex 23.5735 -21.55 7.89479
    endloop
  endfacet
  facet normal 0.00254099 -0.292817 -0.956165
    outer loop
      vertex 25.3456 -22.1793 7.86806
      vertex 25.3456 -22.3821 7.93014
      vertex 23.5736 -22.2825 7.89494
    endloop
  endfacet
  facet normal 0 -0.333324 -0.942812
    outer loop
      vertex 25.3456 -22.3821 7.93014
      vertex 23.5817 -22.3821 7.93014
      vertex 23.5736 -22.2825 7.89494
    endloop
  endfacet
  facet normal 0.00255298 0.372855 -0.927886
    outer loop
      vertex 25.3456 -21.3532 7.97384
      vertex 25.3456 -21.55 7.89479
      vertex 23.5817 -21.4502 7.93002
    endloop
  endfacet
  facet normal 1 0 0
    outer loop
      vertex 25.3456 -21.55 7.89479
      vertex 25.3456 -21.3532 7.97384
      vertex 25.3456 -21.3235 8.06376
    endloop
  endfacet
  facet normal 1 0 0
    outer loop
      vertex 25.3456 -21.3532 7.97384
      vertex 25.3456 -21.1543 8.18224
      vertex 25.3456 -21.3235 8.06376
    endloop
  endfacet
  facet normal -0.00258399 -0.422619 0.906304
    outer loop
      vertex 25.3456 -21.5107 7.97646
      vertex 25.3456 -21.3235 8.06376
      vertex 23.6004 -21.4151 8.01607
    endloop
  endfacet
  facet normal 0 -0.461791 0.886989
    outer loop
      vertex 25.3456 -21.3235 8.06376
      vertex 23.6102 -21.3235 8.06376
      vertex 23.6004 -21.4151 8.01607
    endloop
  endfacet
  facet normal 0 -0.252172 -0.967682
    outer loop
      vertex 23.5736 -22.2825 7.89494
      vertex 23.5672 -22.1793 7.86806
      vertex 25.3456 -22.1793 7.86806
    endloop
  endfacet
  facet normal -0.974367 -0.00154136 0.22496
    outer loop
      vertex 23.5672 -22.1793 7.86806
      vertex 23.5736 -22.2825 7.89494
      vertex 23.5852 -22.223 7.94547
    endloop
  endfacet
  facet normal -0.975245 0.00189462 0.221118
    outer loop
      vertex 23.5736 -22.2825 7.89494
      vertex 23.592 -22.3213 7.97646
      vertex 23.5852 -22.223 7.94547
    endloop
  endfacet
  facet normal 0.00256634 -0.450207 -0.89292
    outer loop
      vertex 25.3456 -22.3821 7.93014
      vertex 25.3456 -22.5714 8.02559
      vertex 23.5914 -22.4785 7.97374
    endloop
  endfacet
  facet normal 0 -0.48761 -0.873061
    outer loop
      vertex 25.3456 -22.5714 8.02559
      vertex 23.6024 -22.5714 8.02559
      vertex 23.5914 -22.4785 7.97374
    endloop
  endfacet
  facet normal -0.00258332 0.422619 0.906304
    outer loop
      vertex 25.3456 -22.5085 8.06376
      vertex 25.3456 -22.3213 7.97646
      vertex 23.6004 -22.4167 8.01598
    endloop
  endfacet
  facet normal 1 0 0
    outer loop
      vertex 25.3456 -22.3213 7.97646
      vertex 25.3456 -22.5085 8.06376
      vertex 25.3456 -22.5714 8.02559
    endloop
  endfacet
  facet normal 1 0 0
    outer loop
      vertex 25.3456 -22.5085 8.06376
      vertex 25.3456 -22.7418 8.15166
      vertex 25.3456 -22.5714 8.02559
    endloop
  endfacet
  facet normal -0.976288 -0.000351386 0.216474
    outer loop
      vertex 23.5851 -21.6092 7.9454
      vertex 23.592 -21.5107 7.97646
      vertex 23.5817 -21.4502 7.93002
    endloop
  endfacet
  facet normal -0.97617 7.96296e-5 0.217009
    outer loop
      vertex 23.592 -21.5107 7.97646
      vertex 23.5914 -21.3532 7.97384
      vertex 23.5817 -21.4502 7.93002
    endloop
  endfacet
  facet normal -0.975641 -0.00197587 0.219366
    outer loop
      vertex 23.5736 -22.2825 7.89494
      vertex 23.5817 -22.3821 7.93014
      vertex 23.592 -22.3213 7.97646
    endloop
  endfacet
  facet normal -0.976826 0.00229832 0.214022
    outer loop
      vertex 23.5817 -22.3821 7.93014
      vertex 23.6004 -22.4167 8.01598
      vertex 23.592 -22.3213 7.97646
    endloop
  endfacet
  facet normal -0.00261421 -0.573574 0.819149
    outer loop
      vertex 25.3456 -21.3235 8.06376
      vertex 25.3456 -21.1543 8.18224
      vertex 23.621 -21.2363 8.11929
    endloop
  endfacet
  facet normal 0 -0.608749 0.793363
    outer loop
      vertex 25.3456 -21.1543 8.18224
      vertex 23.6324 -21.1543 8.18224
      vertex 23.621 -21.2363 8.11929
    endloop
  endfacet
  facet normal 0 -0.382722 0.923864
    outer loop
      vertex 23.6004 -21.4151 8.01607
      vertex 23.592 -21.5107 7.97646
      vertex 25.3456 -21.5107 7.97646
    endloop
  endfacet
  facet normal -0.977951 -6.29484e-5 0.208832
    outer loop
      vertex 23.592 -21.5107 7.97646
      vertex 23.6004 -21.4151 8.01607
      vertex 23.5914 -21.3532 7.97384
    endloop
  endfacet
  facet normal -0.978019 -0.000288482 0.208516
    outer loop
      vertex 23.6004 -21.4151 8.01607
      vertex 23.6024 -21.2604 8.02572
      vertex 23.5914 -21.3532 7.97384
    endloop
  endfacet
  facet normal -0.97982 0.000273559 0.199881
    outer loop
      vertex 23.6004 -21.4151 8.01607
      vertex 23.6102 -21.3235 8.06376
      vertex 23.6024 -21.2604 8.02572
    endloop
  endfacet
  facet normal -0.980129 -0.000681269 0.198361
    outer loop
      vertex 23.6102 -21.3235 8.06376
      vertex 23.6144 -21.1727 8.085
      vertex 23.6024 -21.2604 8.02572
    endloop
  endfacet
  facet normal 0 0.411784 -0.911282
    outer loop
      vertex 23.5817 -21.4502 7.93002
      vertex 23.5914 -21.3532 7.97384
      vertex 25.3456 -21.3532 7.97384
    endloop
  endfacet
  facet normal 0 0.487783 -0.872965
    outer loop
      vertex 23.5914 -21.3532 7.97384
      vertex 23.6024 -21.2604 8.02572
      vertex 25.3456 -21.3532 7.97384
    endloop
  endfacet
  facet normal 0.00258326 0.524308 -0.851525
    outer loop
      vertex 25.3456 -21.3532 7.97384
      vertex 23.6024 -21.2604 8.02572
      vertex 25.3456 -21.1727 8.085
    endloop
  endfacet
  facet normal 0 0.560059 -0.828453
    outer loop
      vertex 23.6024 -21.2604 8.02572
      vertex 23.6144 -21.1727 8.085
      vertex 25.3456 -21.1727 8.085
    endloop
  endfacet
  facet normal 0 0.628121 -0.778116
    outer loop
      vertex 25.3456 -21.1727 8.085
      vertex 23.6144 -21.1727 8.085
      vertex 23.6269 -21.0904 8.15144
    endloop
  endfacet
  facet normal 1 0 0
    outer loop
      vertex 25.3456 -21.3532 7.97384
      vertex 25.3456 -21.1727 8.085
      vertex 25.3456 -21.1543 8.18224
    endloop
  endfacet
  facet normal 1 0 0
    outer loop
      vertex 25.3456 -21.1727 8.085
      vertex 25.3456 -21.0082 8.3283
      vertex 25.3456 -21.1543 8.18224
    endloop
  endfacet
  facet normal 0 -0.411831 -0.91126
    outer loop
      vertex 23.5914 -22.4785 7.97374
      vertex 23.5817 -22.3821 7.93014
      vertex 25.3456 -22.3821 7.93014
    endloop
  endfacet
  facet normal -0.977214 -0.0023199 0.212243
    outer loop
      vertex 23.5817 -22.3821 7.93014
      vertex 23.5914 -22.4785 7.97374
      vertex 23.6004 -22.4167 8.01598
    endloop
  endfacet
  facet normal -0.978701 0.00265845 0.205274
    outer loop
      vertex 23.5914 -22.4785 7.97374
      vertex 23.6102 -22.5085 8.06376
      vertex 23.6004 -22.4167 8.01598
    endloop
  endfacet
  facet normal 0.00260139 -0.594635 -0.803992
    outer loop
      vertex 25.3456 -22.5714 8.02559
      vertex 25.3456 -22.7418 8.15166
      vertex 23.6144 -22.6596 8.08527
    endloop
  endfacet
  facet normal 0 -0.628368 -0.777916
    outer loop
      vertex 25.3456 -22.7418 8.15166
      vertex 23.627 -22.7418 8.15166
      vertex 23.6144 -22.6596 8.08527
    endloop
  endfacet
  facet normal -0.979051 -0.0025985 0.203598
    outer loop
      vertex 23.5914 -22.4785 7.97374
      vertex 23.6024 -22.5714 8.02559
      vertex 23.6102 -22.5085 8.06376
    endloop
  endfacet
  facet normal -0.980822 0.00291027 0.194883
    outer loop
      vertex 23.6024 -22.5714 8.02559
      vertex 23.621 -22.596 8.11952
      vertex 23.6102 -22.5085 8.06376
    endloop
  endfacet
  facet normal -0.00244173 -0.707102 0.707107
    outer loop
      vertex 25.3456 -21.1543 8.18224
      vertex 25.3456 -21.0082 8.3283
      vertex 23.6409 -21.0986 8.23205
    endloop
  endfacet
  facet normal 0 -0.729047 0.684463
    outer loop
      vertex 25.3456 -21.0082 8.3283
      vertex 23.656 -21.0082 8.3283
      vertex 23.6409 -21.0986 8.23205
    endloop
  endfacet
  facet normal 0 -0.537296 0.843393
    outer loop
      vertex 23.621 -21.2363 8.11929
      vertex 23.6102 -21.3235 8.06376
      vertex 25.3456 -21.3235 8.06376
    endloop
  endfacet
  facet normal -0.98186 0.00060008 0.189607
    outer loop
      vertex 23.6102 -21.3235 8.06376
      vertex 23.621 -21.2363 8.11929
      vertex 23.6144 -21.1727 8.085
    endloop
  endfacet
  facet normal -0.982425 -0.00104855 0.186657
    outer loop
      vertex 23.621 -21.2363 8.11929
      vertex 23.6269 -21.0904 8.15144
      vertex 23.6144 -21.1727 8.085
    endloop
  endfacet
  facet normal -0.984025 0.000917377 0.17803
    outer loop
      vertex 23.621 -21.2363 8.11929
      vertex 23.6324 -21.1543 8.18224
      vertex 23.6269 -21.0904 8.15144
    endloop
  endfacet
  facet normal -0.984842 -0.00136208 0.173447
    outer loop
      vertex 23.6324 -21.1543 8.18224
      vertex 23.6398 -21.0135 8.22508
      vertex 23.6269 -21.0904 8.15144
    endloop
  endfacet
  facet normal 0.00261981 0.660672 -0.75067
    outer loop
      vertex 25.3456 -21.0135 8.22508
      vertex 25.3456 -21.1727 8.085
      vertex 23.6269 -21.0904 8.15144
    endloop
  endfacet
  facet normal 1 0 0
    outer loop
      vertex 25.3456 -21.1727 8.085
      vertex 25.3456 -21.0135 8.22508
      vertex 25.3456 -21.0082 8.3283
    endloop
  endfacet
  facet normal 1 0 0
    outer loop
      vertex 25.3456 -21.0135 8.22508
      vertex 25.3456 -20.8897 8.4975
      vertex 25.3456 -21.0082 8.3283
    endloop
  endfacet
  facet normal 0 0.461706 0.887033
    outer loop
      vertex 23.6004 -22.4167 8.01598
      vertex 23.6102 -22.5085 8.06376
      vertex 25.3456 -22.5085 8.06376
    endloop
  endfacet
  facet normal 0 0.537434 0.843306
    outer loop
      vertex 23.6102 -22.5085 8.06376
      vertex 23.621 -22.596 8.11952
      vertex 25.3456 -22.5085 8.06376
    endloop
  endfacet
  facet normal -0.00261497 0.573578 0.819147
    outer loop
      vertex 25.3456 -22.5085 8.06376
      vertex 23.621 -22.596 8.11952
      vertex 25.3456 -22.6777 8.18224
    endloop
  endfacet
  facet normal 0 0.608898 0.793249
    outer loop
      vertex 23.621 -22.596 8.11952
      vertex 23.6324 -22.6777 8.18224
      vertex 25.3456 -22.6777 8.18224
    endloop
  endfacet
  facet normal 0 0.666604 0.745412
    outer loop
      vertex 25.3456 -22.6777 8.18224
      vertex 23.6324 -22.6777 8.18224
      vertex 23.6409 -22.7334 8.23205
    endloop
  endfacet
  facet normal 1 0 0
    outer loop
      vertex 25.3456 -22.5085 8.06376
      vertex 25.3456 -22.6777 8.18224
      vertex 25.3456 -22.7418 8.15166
    endloop
  endfacet
  facet normal 1 0 0
    outer loop
      vertex 25.3456 -22.6777 8.18224
      vertex 25.3456 -22.8885 8.30472
      vertex 25.3456 -22.7418 8.15166
    endloop
  endfacet
  facet normal 0 5.26057e-5 1
    outer loop
      vertex 23.5607 -21.8628 10.3389
      vertex 23.5607 -21.969 10.3389
      vertex 25.3456 -21.969 10.3389
    endloop
  endfacet
  facet normal 0 -0.0849245 0.996387
    outer loop
      vertex 23.5607 -21.969 10.3389
      vertex 23.5629 -22.0751 10.3298
      vertex 25.3456 -21.969 10.3389
    endloop
  endfacet
  facet normal 0.00252574 -0.127016 0.991897
    outer loop
      vertex 25.3456 -21.969 10.3389
      vertex 23.5629 -22.0751 10.3298
      vertex 25.3456 -22.1793 10.3119
    endloop
  endfacet
  facet normal 0 -0.169113 0.985597
    outer loop
      vertex 23.5629 -22.0751 10.3298
      vertex 23.5672 -22.1793 10.3119
      vertex 25.3456 -22.1793 10.3119
    endloop
  endfacet
  facet normal 0 -0.251949 0.96774
    outer loop
      vertex 25.3456 -22.1793 10.3119
      vertex 23.5672 -22.1793 10.3119
      vertex 23.5735 -22.2819 10.2852
    endloop
  endfacet
  facet normal 0 0.0848416 0.996394
    outer loop
      vertex 23.5629 -21.7572 10.3299
      vertex 23.5607 -21.8628 10.3389
      vertex 25.3456 -21.7572 10.3299
    endloop
  endfacet
  facet normal 0.00252232 0.0424376 0.999096
    outer loop
      vertex 23.5607 -21.8628 10.3389
      vertex 25.3456 -21.969 10.3389
      vertex 25.3456 -21.7572 10.3299
    endloop
  endfacet
  facet normal 0 -0.0438144 -0.99904
    outer loop
      vertex 23.5759 -21.916 10.275
      vertex 23.577 -21.8123 10.2705
      vertex 25.3456 -21.916 10.275
    endloop
  endfacet
  facet normal -0.0025493 -0.0871543 -0.996192
    outer loop
      vertex 23.577 -21.8123 10.2705
      vertex 25.3456 -21.7102 10.257
      vertex 25.3456 -21.916 10.275
    endloop
  endfacet
  facet normal 0 0.0437207 -0.999044
    outer loop
      vertex 23.577 -22.0195 10.2705
      vertex 23.5759 -21.916 10.275
      vertex 25.3456 -21.916 10.275
    endloop
  endfacet
  facet normal -0.973028 0.000239883 -0.230688
    outer loop
      vertex 23.5759 -21.916 10.275
      vertex 23.577 -22.0195 10.2705
      vertex 23.5629 -22.0751 10.3298
    endloop
  endfacet
  facet normal -0.972847 -0.000617664 -0.231447
    outer loop
      vertex 23.577 -22.0195 10.2705
      vertex 23.5672 -22.1793 10.3119
      vertex 23.5629 -22.0751 10.3298
    endloop
  endfacet
  facet normal 0 -0.130714 -0.99142
    outer loop
      vertex 23.577 -21.8123 10.2705
      vertex 23.5801 -21.7102 10.257
      vertex 25.3456 -21.7102 10.257
    endloop
  endfacet
  facet normal 0 -0.216342 -0.976318
    outer loop
      vertex 23.5801 -21.7102 10.257
      vertex 23.5851 -21.6095 10.2347
      vertex 25.3456 -21.7102 10.257
    endloop
  endfacet
  facet normal -0.00256107 -0.258819 -0.965922
    outer loop
      vertex 25.3456 -21.7102 10.257
      vertex 23.5851 -21.6095 10.2347
      vertex 25.3456 -21.5107 10.2035
    endloop
  endfacet
  facet normal 0 -0.300604 -0.953749
    outer loop
      vertex 23.5851 -21.6095 10.2347
      vertex 23.592 -21.5107 10.2035
      vertex 25.3456 -21.5107 10.2035
    endloop
  endfacet
  facet normal 0 -0.382866 -0.923804
    outer loop
      vertex 25.3456 -21.5107 10.2035
      vertex 23.592 -21.5107 10.2035
      vertex 23.6005 -21.4147 10.1638
    endloop
  endfacet
  facet normal 1 0 0
    outer loop
      vertex 25.3456 -21.969 10.3389
      vertex 25.3456 -22.1793 10.3119
      vertex 25.3456 -22.1218 10.257
    endloop
  endfacet
  facet normal 1 0 0
    outer loop
      vertex 25.3456 -22.1793 10.3119
      vertex 25.3456 -22.3213 10.2035
      vertex 25.3456 -22.1218 10.257
    endloop
  endfacet
  facet normal 1 0 0
    outer loop
      vertex 25.3456 -21.7572 10.3299
      vertex 25.3456 -21.969 10.3389
      vertex 25.3456 -21.916 10.275
    endloop
  endfacet
  facet normal 1 0 0
    outer loop
      vertex 25.3456 -21.969 10.3389
      vertex 25.3456 -22.1218 10.257
      vertex 25.3456 -21.916 10.275
    endloop
  endfacet
  facet normal 0 0.168932 0.985628
    outer loop
      vertex 23.5672 -21.6528 10.312
      vertex 23.5629 -21.7572 10.3299
      vertex 25.3456 -21.7572 10.3299
    endloop
  endfacet
  facet normal 1 0 0
    outer loop
      vertex 25.3456 -21.55 10.2852
      vertex 25.3456 -21.7572 10.3299
      vertex 25.3456 -21.7102 10.257
    endloop
  endfacet
  facet normal 1 0 0
    outer loop
      vertex 25.3456 -21.7572 10.3299
      vertex 25.3456 -21.916 10.275
      vertex 25.3456 -21.7102 10.257
    endloop
  endfacet
  facet normal 0.00253161 0.210678 0.977552
    outer loop
      vertex 25.3456 -21.7572 10.3299
      vertex 25.3456 -21.55 10.2852
      vertex 23.5672 -21.6528 10.312
    endloop
  endfacet
  facet normal 0 0.251896 0.967754
    outer loop
      vertex 25.3456 -21.55 10.2852
      vertex 23.5735 -21.55 10.2852
      vertex 23.5672 -21.6528 10.312
    endloop
  endfacet
  facet normal -0.00254974 0.0871535 -0.996192
    outer loop
      vertex 25.3456 -21.916 10.275
      vertex 25.3456 -22.1218 10.257
      vertex 23.577 -22.0195 10.2705
    endloop
  endfacet
  facet normal 0 0.130634 -0.991431
    outer loop
      vertex 25.3456 -22.1218 10.257
      vertex 23.5801 -22.1218 10.257
      vertex 23.577 -22.0195 10.2705
    endloop
  endfacet
  facet normal -0.973794 0.000482061 -0.227432
    outer loop
      vertex 23.577 -22.0195 10.2705
      vertex 23.5801 -22.1218 10.257
      vertex 23.5672 -22.1793 10.3119
    endloop
  endfacet
  facet normal -0.973545 -0.000585656 -0.228493
    outer loop
      vertex 23.5801 -22.1218 10.257
      vertex 23.5735 -22.2819 10.2852
      vertex 23.5672 -22.1793 10.3119
    endloop
  endfacet
  facet normal 1 0 0
    outer loop
      vertex 25.3456 -21.7102 10.257
      vertex 25.3456 -21.5107 10.2035
      vertex 25.3456 -21.55 10.2852
    endloop
  endfacet
  facet normal 1 0 0
    outer loop
      vertex 25.3456 -21.5107 10.2035
      vertex 25.3456 -21.3532 10.2062
      vertex 25.3456 -21.55 10.2852
    endloop
  endfacet
  facet normal 0.00254114 -0.292825 0.956163
    outer loop
      vertex 25.3456 -22.3821 10.2499
      vertex 25.3456 -22.1793 10.3119
      vertex 23.5735 -22.2819 10.2852
    endloop
  endfacet
  facet normal 1 0 0
    outer loop
      vertex 25.3456 -22.1793 10.3119
      vertex 25.3456 -22.3821 10.2499
      vertex 25.3456 -22.3213 10.2035
    endloop
  endfacet
  facet normal 1 0 0
    outer loop
      vertex 25.3456 -22.3821 10.2499
      vertex 25.3456 -22.5085 10.1162
      vertex 25.3456 -22.3213 10.2035
    endloop
  endfacet
  facet normal -0.00256092 0.258819 -0.965922
    outer loop
      vertex 25.3456 -22.1218 10.257
      vertex 25.3456 -22.3213 10.2035
      vertex 23.5851 -22.2224 10.2347
    endloop
  endfacet
  facet normal 0 0.300573 -0.953759
    outer loop
      vertex 25.3456 -22.3213 10.2035
      vertex 23.592 -22.3213 10.2035
      vertex 23.5851 -22.2224 10.2347
    endloop
  endfacet
  facet normal 0.00255275 0.372859 0.927884
    outer loop
      vertex 25.3456 -21.55 10.2852
      vertex 25.3456 -21.3532 10.2062
      vertex 23.5817 -21.4498 10.2498
    endloop
  endfacet
  facet normal 0 0.411962 0.911201
    outer loop
      vertex 25.3456 -21.3532 10.2062
      vertex 23.5914 -21.3532 10.2062
      vertex 23.5817 -21.4498 10.2498
    endloop
  endfacet
  facet normal 0 0.216316 -0.976323
    outer loop
      vertex 23.5851 -22.2224 10.2347
      vertex 23.5801 -22.1218 10.257
      vertex 25.3456 -22.1218 10.257
    endloop
  endfacet
  facet normal -0.974897 0.000498176 -0.222657
    outer loop
      vertex 23.5801 -22.1218 10.257
      vertex 23.5851 -22.2224 10.2347
      vertex 23.5735 -22.2819 10.2852
    endloop
  endfacet
  facet normal -0.974672 -0.000376739 -0.223637
    outer loop
      vertex 23.5851 -22.2224 10.2347
      vertex 23.5817 -22.3821 10.2499
      vertex 23.5735 -22.2819 10.2852
    endloop
  endfacet
  facet normal -0.00258426 -0.422619 -0.906304
    outer loop
      vertex 25.3456 -21.3235 10.1162
      vertex 25.3456 -21.5107 10.2035
      vertex 23.6005 -21.4147 10.1638
    endloop
  endfacet
  facet normal 1 0 0
    outer loop
      vertex 25.3456 -21.5107 10.2035
      vertex 25.3456 -21.3235 10.1162
      vertex 25.3456 -21.3532 10.2062
    endloop
  endfacet
  facet normal 1 0 0
    outer loop
      vertex 25.3456 -21.3235 10.1162
      vertex 25.3456 -21.1727 10.095
      vertex 25.3456 -21.3532 10.2062
    endloop
  endfacet
  facet normal -0.00258398 0.422619 -0.906304
    outer loop
      vertex 25.3456 -22.3213 10.2035
      vertex 25.3456 -22.5085 10.1162
      vertex 23.6004 -22.417 10.1639
    endloop
  endfacet
  facet normal 0 0.461826 -0.886971
    outer loop
      vertex 25.3456 -22.5085 10.1162
      vertex 23.6102 -22.5085 10.1162
      vertex 23.6004 -22.417 10.1639
    endloop
  endfacet
  facet normal 0 -0.333112 0.942887
    outer loop
      vertex 23.5735 -22.2819 10.2852
      vertex 23.5817 -22.3821 10.2499
      vertex 25.3456 -22.3821 10.2499
    endloop
  endfacet
  facet normal 0 -0.41205 0.911161
    outer loop
      vertex 23.5817 -22.3821 10.2499
      vertex 23.5915 -22.4791 10.206
      vertex 25.3456 -22.3821 10.2499
    endloop
  endfacet
  facet normal 0.00256693 -0.450204 0.892922
    outer loop
      vertex 25.3456 -22.3821 10.2499
      vertex 23.5915 -22.4791 10.206
      vertex 25.3456 -22.5714 10.1544
    endloop
  endfacet
  facet normal 0 -0.487835 0.872936
    outer loop
      vertex 23.5915 -22.4791 10.206
      vertex 23.6024 -22.5714 10.1544
      vertex 25.3456 -22.5714 10.1544
    endloop
  endfacet
  facet normal 0 -0.559925 0.828543
    outer loop
      vertex 25.3456 -22.5714 10.1544
      vertex 23.6024 -22.5714 10.1544
      vertex 23.6144 -22.6592 10.0951
    endloop
  endfacet
  facet normal 1 0 0
    outer loop
      vertex 25.3456 -22.3821 10.2499
      vertex 25.3456 -22.5714 10.1544
      vertex 25.3456 -22.5085 10.1162
    endloop
  endfacet
  facet normal 1 0 0
    outer loop
      vertex 25.3456 -22.5714 10.1544
      vertex 25.3456 -22.6777 9.99776
      vertex 25.3456 -22.5085 10.1162
    endloop
  endfacet
  facet normal -0.976287 0.000337197 -0.21648
    outer loop
      vertex 23.5851 -22.2224 10.2347
      vertex 23.592 -22.3213 10.2035
      vertex 23.5817 -22.3821 10.2499
    endloop
  endfacet
  facet normal -0.976177 -6.09311e-5 -0.216978
    outer loop
      vertex 23.592 -22.3213 10.2035
      vertex 23.5915 -22.4791 10.206
      vertex 23.5817 -22.3821 10.2499
    endloop
  endfacet
  facet normal 0 0.333207 0.942854
    outer loop
      vertex 23.5817 -21.4498 10.2498
      vertex 23.5735 -21.55 10.2852
      vertex 25.3456 -21.55 10.2852
    endloop
  endfacet
  facet normal 0.00258276 0.524305 0.851527
    outer loop
      vertex 25.3456 -21.3532 10.2062
      vertex 25.3456 -21.1727 10.095
      vertex 23.6024 -21.2608 10.1545
    endloop
  endfacet
  facet normal 0 0.559901 0.828559
    outer loop
      vertex 25.3456 -21.1727 10.095
      vertex 23.6144 -21.1727 10.095
      vertex 23.6024 -21.2608 10.1545
    endloop
  endfacet
  facet normal -0.00261488 0.573575 -0.819149
    outer loop
      vertex 25.3456 -22.5085 10.1162
      vertex 25.3456 -22.6777 9.99776
      vertex 23.621 -22.5955 10.0608
    endloop
  endfacet
  facet normal 0 0.608711 -0.793392
    outer loop
      vertex 25.3456 -22.6777 9.99776
      vertex 23.6324 -22.6777 9.99776
      vertex 23.621 -22.5955 10.0608
    endloop
  endfacet
  facet normal 0 0.382758 -0.923849
    outer loop
      vertex 23.6004 -22.417 10.1639
      vertex 23.592 -22.3213 10.2035
      vertex 25.3456 -22.3213 10.2035
    endloop
  endfacet
  facet normal -0.977952 7.10793e-5 -0.20883
    outer loop
      vertex 23.592 -22.3213 10.2035
      vertex 23.6004 -22.417 10.1639
      vertex 23.5915 -22.4791 10.206
    endloop
  endfacet
  facet normal -0.978017 0.000287336 -0.208525
    outer loop
      vertex 23.6004 -22.417 10.1639
      vertex 23.6024 -22.5714 10.1544
      vertex 23.5915 -22.4791 10.206
    endloop
  endfacet
  facet normal -0.979815 -0.000264776 -0.199909
    outer loop
      vertex 23.6004 -22.417 10.1639
      vertex 23.6102 -22.5085 10.1162
      vertex 23.6024 -22.5714 10.1544
    endloop
  endfacet
  facet normal -0.980118 0.000678764 -0.198416
    outer loop
      vertex 23.6102 -22.5085 10.1162
      vertex 23.6144 -22.6592 10.0951
      vertex 23.6024 -22.5714 10.1544
    endloop
  endfacet
  facet normal 0.00260125 -0.594635 0.803992
    outer loop
      vertex 25.3456 -22.7418 10.0283
      vertex 25.3456 -22.5714 10.1544
      vertex 23.6144 -22.6592 10.0951
    endloop
  endfacet
  facet normal 1 0 0
    outer loop
      vertex 25.3456 -22.5714 10.1544
      vertex 25.3456 -22.7418 10.0283
      vertex 25.3456 -22.6777 9.99776
    endloop
  endfacet
  facet normal 1 0 0
    outer loop
      vertex 25.3456 -22.7418 10.0283
      vertex 25.3456 -22.8238 9.8517
      vertex 25.3456 -22.6777 9.99776
    endloop
  endfacet
  facet normal -0.00261436 -0.573571 -0.819152
    outer loop
      vertex 25.3456 -21.1543 9.99776
      vertex 25.3456 -21.3235 10.1162
      vertex 23.6209 -21.2365 10.0609
    endloop
  endfacet
  facet normal 0 -0.537193 -0.843459
    outer loop
      vertex 25.3456 -21.3235 10.1162
      vertex 23.6102 -21.3235 10.1162
      vertex 23.6209 -21.2365 10.0609
    endloop
  endfacet
  facet normal 1 0 0
    outer loop
      vertex 25.3456 -21.3235 10.1162
      vertex 25.3456 -21.1543 9.99776
      vertex 25.3456 -21.1727 10.095
    endloop
  endfacet
  facet normal 1 0 0
    outer loop
      vertex 25.3456 -21.1543 9.99776
      vertex 25.3456 -21.0135 9.95492
      vertex 25.3456 -21.1727 10.095
    endloop
  endfacet
  facet normal 0 -0.461939 -0.886912
    outer loop
      vertex 23.6005 -21.4147 10.1638
      vertex 23.6102 -21.3235 10.1162
      vertex 25.3456 -21.3235 10.1162
    endloop
  endfacet
  facet normal 0 0.487629 0.873051
    outer loop
      vertex 23.6024 -21.2608 10.1545
      vertex 23.5914 -21.3532 10.2062
      vertex 25.3456 -21.3532 10.2062
    endloop
  endfacet
  facet normal 0.00261979 0.660672 0.75067
    outer loop
      vertex 25.3456 -21.1727 10.095
      vertex 25.3456 -21.0135 9.95492
      vertex 23.627 -21.0901 10.0283
    endloop
  endfacet
  facet normal 0 0.691964 0.721932
    outer loop
      vertex 25.3456 -21.0135 9.95492
      vertex 23.6398 -21.0135 9.95492
      vertex 23.627 -21.0901 10.0283
    endloop
  endfacet
  facet normal 0 -0.560124 -0.828409
    outer loop
      vertex 23.6144 -22.6596 8.08527
      vertex 23.6024 -22.5714 8.02559
      vertex 25.3456 -22.5714 8.02559
    endloop
  endfacet
  facet normal -0.981106 -0.00277469 0.193449
    outer loop
      vertex 23.6024 -22.5714 8.02559
      vertex 23.6144 -22.6596 8.08527
      vertex 23.621 -22.596 8.11952
    endloop
  endfacet
  facet normal -0.983106 0.003047 0.183013
    outer loop
      vertex 23.6144 -22.6596 8.08527
      vertex 23.6324 -22.6777 8.18224
      vertex 23.621 -22.596 8.11952
    endloop
  endfacet
  facet normal 0 -0.721953 -0.691942
    outer loop
      vertex 25.3456 -22.7418 8.15166
      vertex 25.3456 -22.8885 8.30472
      vertex 23.6525 -22.8885 8.30472
    endloop
  endfacet
  facet normal 0 -0.804083 -0.594518
    outer loop
      vertex 25.3456 -22.8885 8.30472
      vertex 23.6647 -22.9518 8.39033
      vertex 23.6525 -22.8885 8.30472
    endloop
  endfacet
  facet normal -0.983304 -0.00287455 0.181948
    outer loop
      vertex 23.6144 -22.6596 8.08527
      vertex 23.627 -22.7418 8.15166
      vertex 23.6324 -22.6777 8.18224
    endloop
  endfacet
  facet normal -0.985247 0.00245406 0.171118
    outer loop
      vertex 23.627 -22.7418 8.15166
      vertex 23.6409 -22.7334 8.23205
      vertex 23.6324 -22.6777 8.18224
    endloop
  endfacet
  facet normal -0.00244186 0.707105 -0.707105
    outer loop
      vertex 25.3456 -22.6777 9.99776
      vertex 25.3456 -22.8238 9.8517
      vertex 23.6409 -22.7334 9.94795
    endloop
  endfacet
  facet normal 0 0.729051 -0.684459
    outer loop
      vertex 25.3456 -22.8238 9.8517
      vertex 23.656 -22.8238 9.8517
      vertex 23.6409 -22.7334 9.94795
    endloop
  endfacet
  facet normal 0 0.537236 -0.843432
    outer loop
      vertex 23.621 -22.5955 10.0608
      vertex 23.6102 -22.5085 10.1162
      vertex 25.3456 -22.5085 10.1162
    endloop
  endfacet
  facet normal -0.981863 -0.000608946 -0.189589
    outer loop
      vertex 23.6102 -22.5085 10.1162
      vertex 23.621 -22.5955 10.0608
      vertex 23.6144 -22.6592 10.0951
    endloop
  endfacet
  facet normal -0.982427 0.00103751 -0.186643
    outer loop
      vertex 23.621 -22.5955 10.0608
      vertex 23.627 -22.7418 10.0283
      vertex 23.6144 -22.6592 10.0951
    endloop
  endfacet
  facet normal -0.984026 -0.000939906 -0.178024
    outer loop
      vertex 23.621 -22.5955 10.0608
      vertex 23.6324 -22.6777 9.99776
      vertex 23.627 -22.7418 10.0283
    endloop
  endfacet
  facet normal -0.984932 0.0015626 -0.172937
    outer loop
      vertex 23.6324 -22.6777 9.99776
      vertex 23.6409 -22.8251 9.94795
      vertex 23.627 -22.7418 10.0283
    endloop
  endfacet
  facet normal 0 -0.628179 0.778069
    outer loop
      vertex 23.6144 -22.6592 10.0951
      vertex 23.627 -22.7418 10.0283
      vertex 25.3456 -22.7418 10.0283
    endloop
  endfacet
  facet normal 0 -0.694706 0.719294
    outer loop
      vertex 23.627 -22.7418 10.0283
      vertex 23.6409 -22.8251 9.94795
      vertex 25.3456 -22.7418 10.0283
    endloop
  endfacet
  facet normal 0.0026204 -0.721953 0.691937
    outer loop
      vertex 25.3456 -22.7418 10.0283
      vertex 23.6409 -22.8251 9.94795
      vertex 25.3456 -22.8885 9.87527
    endloop
  endfacet
  facet normal 0 -0.753215 0.657774
    outer loop
      vertex 23.6409 -22.8251 9.94795
      vertex 23.6525 -22.8885 9.87527
      vertex 25.3456 -22.8885 9.87527
    endloop
  endfacet
  facet normal 0 -0.803938 0.594713
    outer loop
      vertex 25.3456 -22.8885 9.87527
      vertex 23.6525 -22.8885 9.87527
      vertex 23.6647 -22.9515 9.79018
    endloop
  endfacet
  facet normal 1 0 0
    outer loop
      vertex 25.3456 -22.7418 10.0283
      vertex 25.3456 -22.8885 9.87527
      vertex 25.3456 -22.8238 9.8517
    endloop
  endfacet
  facet normal 1 0 0
    outer loop
      vertex 25.3456 -22.8885 9.87527
      vertex 25.3456 -22.9422 9.6825
      vertex 25.3456 -22.8238 9.8517
    endloop
  endfacet
  facet normal -0.0024425 0.707102 0.707107
    outer loop
      vertex 25.3456 -22.8238 8.3283
      vertex 25.3456 -22.6777 8.18224
      vertex 23.6409 -22.7334 8.23205
    endloop
  endfacet
  facet normal -0.00244109 -0.707105 -0.707105
    outer loop
      vertex 25.3456 -21.0082 9.8517
      vertex 25.3456 -21.1543 9.99776
      vertex 23.6409 -21.0986 9.94795
    endloop
  endfacet
  facet normal 0 -0.66663 -0.745389
    outer loop
      vertex 25.3456 -21.1543 9.99776
      vertex 23.6324 -21.1543 9.99776
      vertex 23.6409 -21.0986 9.94795
    endloop
  endfacet
  facet normal 1 0 0
    outer loop
      vertex 25.3456 -21.1543 9.99776
      vertex 25.3456 -21.0082 9.8517
      vertex 25.3456 -21.0135 9.95492
    endloop
  endfacet
  facet normal 1 0 0
    outer loop
      vertex 25.3456 -21.0082 9.8517
      vertex 25.3456 -20.8804 9.78997
      vertex 25.3456 -21.0135 9.95492
    endloop
  endfacet
  facet normal 0 -0.608657 -0.793433
    outer loop
      vertex 23.6209 -21.2365 10.0609
      vertex 23.6324 -21.1543 9.99776
      vertex 25.3456 -21.1543 9.99776
    endloop
  endfacet
  facet normal 0 0.628255 0.778007
    outer loop
      vertex 23.627 -21.0901 10.0283
      vertex 23.6144 -21.1727 10.095
      vertex 25.3456 -21.1727 10.095
    endloop
  endfacet
  facet normal 0 0.778035 0.628221
    outer loop
      vertex 25.3456 -21.0135 9.95492
      vertex 25.3456 -20.8804 9.78997
      vertex 23.6647 -20.8804 9.78997
    endloop
  endfacet
  facet normal 0 0.851532 0.524303
    outer loop
      vertex 25.3456 -20.8804 9.78997
      vertex 23.6761 -20.8247 9.69962
      vertex 23.6647 -20.8804 9.78997
    endloop
  endfacet
  facet normal 0 -0.819153 0.573575
    outer loop
      vertex 25.3456 -21.0082 8.3283
      vertex 25.3456 -20.8897 8.4975
      vertex 23.678 -20.8897 8.4975
    endloop
  endfacet
  facet normal 0 -0.884416 0.4667
    outer loop
      vertex 25.3456 -20.8897 8.4975
      vertex 23.6865 -20.8477 8.57722
      vertex 23.678 -20.8897 8.4975
    endloop
  endfacet
  facet normal 0 -0.666616 0.745401
    outer loop
      vertex 23.6409 -21.0986 8.23205
      vertex 23.6324 -21.1543 8.18224
      vertex 25.3456 -21.1543 8.18224
    endloop
  endfacet
  facet normal -0.985767 0.000308057 0.168119
    outer loop
      vertex 23.6324 -21.1543 8.18224
      vertex 23.6409 -21.0986 8.23205
      vertex 23.6398 -21.0135 8.22508
    endloop
  endfacet
  facet normal -0.986383 0 0.164463
    outer loop
      vertex 23.6409 -21.0986 8.23205
      vertex 23.6409 -21.0069 8.23205
      vertex 23.6398 -21.0135 8.22508
    endloop
  endfacet
  facet normal -0.988231 0.00171054 0.15296
    outer loop
      vertex 23.6409 -21.0986 8.23205
      vertex 23.656 -21.0082 8.3283
      vertex 23.6531 -20.9404 8.30856
    endloop
  endfacet
  facet normal -0.989811 -0.00143531 0.142378
    outer loop
      vertex 23.656 -21.0082 8.3283
      vertex 23.6647 -20.8804 8.39003
      vertex 23.6531 -20.9404 8.30856
    endloop
  endfacet
  facet normal 0 0.691842 -0.722049
    outer loop
      vertex 23.6269 -21.0904 8.15144
      vertex 23.6398 -21.0135 8.22508
      vertex 25.3456 -21.0135 8.22508
    endloop
  endfacet
  facet normal 0 0.724552 -0.68922
    outer loop
      vertex 23.6398 -21.0135 8.22508
      vertex 23.6409 -21.0069 8.23205
      vertex 25.3456 -21.0135 8.22508
    endloop
  endfacet
  facet normal 0.000250998 0.754487 -0.656315
    outer loop
      vertex 25.3456 -21.0135 8.22508
      vertex 23.6409 -21.0069 8.23205
      vertex 23.6531 -20.9404 8.30856
    endloop
  endfacet
  facet normal 0.00265482 0.778032 -0.628219
    outer loop
      vertex 25.3456 -20.8804 8.39003
      vertex 25.3456 -21.0135 8.22508
      vertex 23.6531 -20.9404 8.30856
    endloop
  endfacet
  facet normal 0 0.819149 -0.573581
    outer loop
      vertex 25.3456 -22.8238 9.8517
      vertex 25.3456 -22.9422 9.6825
      vertex 23.678 -22.9422 9.6825
    endloop
  endfacet
  facet normal 0 0.884386 -0.466756
    outer loop
      vertex 25.3456 -22.9422 9.6825
      vertex 23.6865 -22.9842 9.60294
      vertex 23.678 -22.9422 9.6825
    endloop
  endfacet
  facet normal 0 0.666617 -0.7454
    outer loop
      vertex 23.6409 -22.7334 9.94795
      vertex 23.6324 -22.6777 9.99776
      vertex 25.3456 -22.6777 9.99776
    endloop
  endfacet
  facet normal -0.985711 0 -0.168447
    outer loop
      vertex 23.6324 -22.6777 9.99776
      vertex 23.6409 -22.7334 9.94795
      vertex 23.6409 -22.8251 9.94795
    endloop
  endfacet
  facet normal -0.987633 0 -0.156784
    outer loop
      vertex 23.6409 -22.7334 9.94795
      vertex 23.6525 -22.8885 9.87527
      vertex 23.6409 -22.8251 9.94795
    endloop
  endfacet
  facet normal -0.988262 -0.00193302 -0.152757
    outer loop
      vertex 23.6409 -22.7334 9.94795
      vertex 23.656 -22.8238 9.8517
      vertex 23.6525 -22.8885 9.87527
    endloop
  endfacet
  facet normal -0.989727 0.00171249 -0.142957
    outer loop
      vertex 23.656 -22.8238 9.8517
      vertex 23.6647 -22.9515 9.79018
      vertex 23.6525 -22.8885 9.87527
    endloop
  endfacet
  facet normal 0.00267843 -0.828506 0.559974
    outer loop
      vertex 25.3456 -23.0073 9.69962
      vertex 25.3456 -22.8885 9.87527
      vertex 23.6647 -22.9515 9.79018
    endloop
  endfacet
  facet normal 0 -0.694702 -0.719298
    outer loop
      vertex 23.6409 -22.8251 8.23205
      vertex 23.627 -22.7418 8.15166
      vertex 25.3456 -22.7418 8.15166
    endloop
  endfacet
  facet normal -0.985207 0 0.171369
    outer loop
      vertex 23.627 -22.7418 8.15166
      vertex 23.6409 -22.8251 8.23205
      vertex 23.6409 -22.7334 8.23205
    endloop
  endfacet
  facet normal -0.987988 0 0.154528
    outer loop
      vertex 23.6409 -22.8251 8.23205
      vertex 23.656 -22.8238 8.3283
      vertex 23.6409 -22.7334 8.23205
    endloop
  endfacet
  facet normal 0.00571191 -0.752753 -0.658278
    outer loop
      vertex 23.6525 -22.8885 8.30472
      vertex 23.6409 -22.8251 8.23205
      vertex 25.3456 -22.7418 8.15166
    endloop
  endfacet
  facet normal -0.98798 -0.00260722 0.154562
    outer loop
      vertex 23.6409 -22.8251 8.23205
      vertex 23.6525 -22.8885 8.30472
      vertex 23.656 -22.8238 8.3283
    endloop
  endfacet
  facet normal -0.990192 0.00292799 0.13968
    outer loop
      vertex 23.6525 -22.8885 8.30472
      vertex 23.6674 -22.8869 8.4106
      vertex 23.656 -22.8238 8.3283
    endloop
  endfacet
  facet normal -0.990181 -0.00261274 0.139764
    outer loop
      vertex 23.6525 -22.8885 8.30472
      vertex 23.6647 -22.9518 8.39033
      vertex 23.6674 -22.8869 8.4106
    endloop
  endfacet
  facet normal -0.992397 0.00269543 0.123051
    outer loop
      vertex 23.6647 -22.9518 8.39033
      vertex 23.678 -22.9422 8.4975
      vertex 23.6674 -22.8869 8.4106
    endloop
  endfacet
  facet normal 0 -0.793312 0.608815
    outer loop
      vertex 23.6674 -20.9454 8.41018
      vertex 23.656 -21.0082 8.3283
      vertex 25.3456 -21.0082 8.3283
    endloop
  endfacet
  facet normal -0.990658 0.00152534 0.136365
    outer loop
      vertex 23.656 -21.0082 8.3283
      vertex 23.6674 -20.9454 8.41018
      vertex 23.6647 -20.8804 8.39003
    endloop
  endfacet
  facet normal -0.992028 -0.00173882 0.126009
    outer loop
      vertex 23.6674 -20.9454 8.41018
      vertex 23.676 -20.8249 8.48003
      vertex 23.6647 -20.8804 8.39003
    endloop
  endfacet
  facet normal -0.994439 0.000240738 0.105313
    outer loop
      vertex 23.678 -20.8897 8.4975
      vertex 23.6865 -20.8477 8.57722
      vertex 23.6863 -20.777 8.57512
    endloop
  endfacet
  facet normal -0.995918 -0.000209685 0.0902613
    outer loop
      vertex 23.6865 -20.8477 8.57722
      vertex 23.6939 -20.7424 8.65957
      vertex 23.6863 -20.777 8.57512
    endloop
  endfacet
  facet normal -0.99272 0.00154149 0.120437
    outer loop
      vertex 23.6674 -20.9454 8.41018
      vertex 23.678 -20.8897 8.4975
      vertex 23.676 -20.8249 8.48003
    endloop
  endfacet
  facet normal -0.994124 -0.00179161 0.108232
    outer loop
      vertex 23.678 -20.8897 8.4975
      vertex 23.6863 -20.777 8.57512
      vertex 23.676 -20.8249 8.48003
    endloop
  endfacet
  facet normal -0.00532626 -0.843047 0.537813
    outer loop
      vertex 23.678 -20.8897 8.4975
      vertex 23.6674 -20.9454 8.41018
      vertex 25.3456 -21.0082 8.3283
    endloop
  endfacet
  facet normal -0.987692 0 0.156412
    outer loop
      vertex 23.6531 -20.9404 8.30856
      vertex 23.6409 -21.0069 8.23205
      vertex 23.6409 -21.0986 8.23205
    endloop
  endfacet
  facet normal 0 0.805165 -0.59305
    outer loop
      vertex 23.6531 -20.9404 8.30856
      vertex 23.6647 -20.8804 8.39003
      vertex 25.3456 -20.8804 8.39003
    endloop
  endfacet
  facet normal 0 0.729054 0.684456
    outer loop
      vertex 23.6409 -22.7334 8.23205
      vertex 23.656 -22.8238 8.3283
      vertex 25.3456 -22.8238 8.3283
    endloop
  endfacet
  facet normal -0.00268718 -0.81915 -0.573573
    outer loop
      vertex 25.3456 -20.8897 9.6825
      vertex 25.3456 -21.0082 9.8517
      vertex 23.6673 -20.9455 9.77003
    endloop
  endfacet
  facet normal 0 -0.793242 -0.608907
    outer loop
      vertex 25.3456 -21.0082 9.8517
      vertex 23.656 -21.0082 9.8517
      vertex 23.6673 -20.9455 9.77003
    endloop
  endfacet
  facet normal 0 -0.729044 -0.684467
    outer loop
      vertex 23.6409 -21.0986 9.94795
      vertex 23.656 -21.0082 9.8517
      vertex 25.3456 -21.0082 9.8517
    endloop
  endfacet
  facet normal 0 0.751891 0.659288
    outer loop
      vertex 23.653 -20.9405 9.87167
      vertex 23.6398 -21.0135 9.95492
      vertex 25.3456 -21.0135 9.95492
    endloop
  endfacet
  facet normal 0.00550726 0.804712 0.59364
    outer loop
      vertex 23.6647 -20.8804 9.78997
      vertex 23.653 -20.9405 9.87167
      vertex 25.3456 -21.0135 9.95492
    endloop
  endfacet
  facet normal 0.00533561 -0.851295 -0.524661
    outer loop
      vertex 23.6761 -23.0073 8.48038
      vertex 23.6647 -22.9518 8.39033
      vertex 25.3456 -22.8885 8.30472
    endloop
  endfacet
  facet normal -0.992342 -0.00235232 0.123497
    outer loop
      vertex 23.6647 -22.9518 8.39033
      vertex 23.6761 -23.0073 8.48038
      vertex 23.678 -22.9422 8.4975
    endloop
  endfacet
  facet normal -0.994298 0.00215124 0.106615
    outer loop
      vertex 23.6761 -23.0073 8.48038
      vertex 23.6865 -22.9841 8.57686
      vertex 23.678 -22.9422 8.4975
    endloop
  endfacet
  facet normal 0 0.843475 0.537168
    outer loop
      vertex 23.6674 -22.8869 8.4106
      vertex 23.678 -22.9422 8.4975
      vertex 25.3456 -22.9422 8.4975
    endloop
  endfacet
  facet normal 0 0.884344 0.466835
    outer loop
      vertex 23.678 -22.9422 8.4975
      vertex 23.6865 -22.9841 8.57686
      vertex 25.3456 -22.9422 8.4975
    endloop
  endfacet
  facet normal 0 0.793328 -0.608794
    outer loop
      vertex 23.6674 -22.8866 9.76976
      vertex 23.656 -22.8238 9.8517
      vertex 25.3456 -22.8238 9.8517
    endloop
  endfacet
  facet normal -0.990654 -0.00151374 -0.136389
    outer loop
      vertex 23.656 -22.8238 9.8517
      vertex 23.6674 -22.8866 9.76976
      vertex 23.6647 -22.9515 9.79018
    endloop
  endfacet
  facet normal -0.992022 0.00179727 -0.126055
    outer loop
      vertex 23.6674 -22.8866 9.76976
      vertex 23.6761 -23.0073 9.69962
      vertex 23.6647 -22.9515 9.79018
    endloop
  endfacet
  facet normal -0.994465 -0.000781428 -0.105061
    outer loop
      vertex 23.678 -22.9422 9.6825
      vertex 23.6865 -22.9842 9.60294
      vertex 23.6856 -23.0521 9.61136
    endloop
  endfacet
  facet normal -0.995948 0.00111604 -0.0899194
    outer loop
      vertex 23.6865 -22.9842 9.60294
      vertex 23.6951 -23.0946 9.50642
      vertex 23.6856 -23.0521 9.61136
    endloop
  endfacet
  facet normal -0.992722 -0.00153048 -0.120419
    outer loop
      vertex 23.6674 -22.8866 9.76976
      vertex 23.678 -22.9422 9.6825
      vertex 23.6761 -23.0073 9.69962
    endloop
  endfacet
  facet normal -0.994074 0.00159758 -0.108693
    outer loop
      vertex 23.678 -22.9422 9.6825
      vertex 23.6856 -23.0521 9.61136
      vertex 23.6761 -23.0073 9.69962
    endloop
  endfacet
  facet normal -0.00532951 0.843057 -0.537797
    outer loop
      vertex 23.678 -22.9422 9.6825
      vertex 23.6674 -22.8866 9.76976
      vertex 25.3456 -22.8238 9.8517
    endloop
  endfacet
  facet normal 0 -0.85147 0.524403
    outer loop
      vertex 23.6647 -22.9515 9.79018
      vertex 23.6761 -23.0073 9.69962
      vertex 25.3456 -23.0073 9.69962
    endloop
  endfacet
  facet normal 0 -0.8433 -0.537443
    outer loop
      vertex 23.6673 -20.9455 9.77003
      vertex 23.678 -20.8897 9.6825
      vertex 25.3456 -20.8897 9.6825
    endloop
  endfacet
  facet normal 0 -0.884424 -0.466684
    outer loop
      vertex 23.678 -20.8897 9.6825
      vertex 23.6865 -20.8477 9.60273
      vertex 25.3456 -20.8897 9.6825
    endloop
  endfacet
  facet normal 0.00535672 0.892683 0.450653
    outer loop
      vertex 23.6863 -20.777 9.60488
      vertex 23.6761 -20.8247 9.69962
      vertex 25.3456 -20.8804 9.78997
    endloop
  endfacet
  facet normal -0.995939 -2.98237e-5 0.0900333
    outer loop
      vertex 23.6865 -20.8477 8.57722
      vertex 23.6939 -20.8121 8.65918
      vertex 23.6939 -20.7424 8.65957
    endloop
  endfacet
  facet normal 0 0.892857 -0.450341
    outer loop
      vertex 23.676 -20.8249 8.48003
      vertex 23.6863 -20.777 8.57512
      vertex 25.3456 -20.777 8.57512
    endloop
  endfacet
  facet normal -0.00408365 0.917022 -0.398815
    outer loop
      vertex 23.6939 -23.0199 9.52082
      vertex 23.6865 -22.9842 9.60294
      vertex 25.3456 -22.9422 9.6825
    endloop
  endfacet
  facet normal -0.995862 0.00194482 -0.0908594
    outer loop
      vertex 23.6865 -22.9842 9.60294
      vertex 23.6939 -23.0199 9.52082
      vertex 23.6951 -23.0946 9.50642
    endloop
  endfacet
  facet normal -0.00938914 0.935408 -0.353445
    outer loop
      vertex 23.696 -23.0295 9.49529
      vertex 23.6939 -23.0199 9.52082
      vertex 25.3456 -22.9422 9.6825
    endloop
  endfacet
  facet normal 0 -0.92682 0.375505
    outer loop
      vertex 23.6856 -23.0521 9.61136
      vertex 23.6951 -23.0946 9.50642
      vertex 25.3456 -23.0946 9.50642
    endloop
  endfacet
  facet normal -6.74684e-7 -0.93573 -0.352716
    outer loop
      vertex 23.6939 -20.8119 9.52043
      vertex 23.696 -20.8025 9.49531
      vertex 25.3456 -20.8025 9.49529
    endloop
  endfacet
endsolid Onshape
