solid Onshape
  facet normal -0.903441 0 -0.428711
    outer loop
      vertex 18.1574 -26.7076 8.97121
      vertex 18.1805 -26.7076 8.9225
      vertex 18.1574 -26.7526 8.97121
    endloop
  endfacet
  facet normal -0.903441 0 -0.428711
    outer loop
      vertex 18.1805 -26.7076 8.9225
      vertex 18.1805 -26.7526 8.9225
      vertex 18.1574 -26.7526 8.97121
    endloop
  endfacet
  facet normal 0 1 0
    outer loop
      vertex 18.1805 -26.7076 8.9225
      vertex 18.1574 -26.7076 8.97121
      vertex 18.2469 -26.7076 8.97857
    endloop
  endfacet
  facet normal 0 1 0
    outer loop
      vertex 18.1574 -26.7076 8.97121
      vertex 18.2302 -26.7076 9.02158
      vertex 18.2469 -26.7076 8.97857
    endloop
  endfacet
  facet normal 0 1 0
    outer loop
      vertex 18.2112 -26.7076 8.87813
      vertex 18.1805 -26.7076 8.9225
      vertex 18.2469 -26.7076 8.97857
    endloop
  endfacet
  facet normal -0.823002 0 -0.568039
    outer loop
      vertex 18.1805 -26.7076 8.9225
      vertex 18.2112 -26.7076 8.87813
      vertex 18.1805 -26.7526 8.9225
    endloop
  endfacet
  facet normal -0.823002 0 -0.568039
    outer loop
      vertex 18.2112 -26.7076 8.87813
      vertex 18.2112 -26.7526 8.87813
      vertex 18.1805 -26.7526 8.9225
    endloop
  endfacet
  facet normal 0 -1 0
    outer loop
      vertex 18.1805 -26.7526 8.9225
      vertex 18.2112 -26.7526 8.87813
      vertex 18.2711 -26.7526 8.93934
    endloop
  endfacet
  facet normal 0 -1 0
    outer loop
      vertex 18.2112 -26.7526 8.87813
      vertex 18.3022 -26.7526 8.90525
      vertex 18.2711 -26.7526 8.93934
    endloop
  endfacet
  facet normal 0 -1 0
    outer loop
      vertex 18.1574 -26.7526 8.97121
      vertex 18.1805 -26.7526 8.9225
      vertex 18.2469 -26.7526 8.97857
    endloop
  endfacet
  facet normal 0 -1 0
    outer loop
      vertex 18.1805 -26.7526 8.9225
      vertex 18.2711 -26.7526 8.93934
      vertex 18.2469 -26.7526 8.97857
    endloop
  endfacet
  facet normal 0 -1 0
    outer loop
      vertex 18.1424 -26.7526 9.02299
      vertex 18.1574 -26.7526 8.97121
      vertex 18.2302 -26.7526 9.02158
    endloop
  endfacet
  facet normal 0 -1 0
    outer loop
      vertex 18.1574 -26.7526 8.97121
      vertex 18.2469 -26.7526 8.97857
      vertex 18.2302 -26.7526 9.02158
    endloop
  endfacet
  facet normal -0.960515 0 -0.278228
    outer loop
      vertex 18.1574 -26.7526 8.97121
      vertex 18.1424 -26.7526 9.02299
      vertex 18.1574 -26.7076 8.97121
    endloop
  endfacet
  facet normal -0.960515 0 -0.278228
    outer loop
      vertex 18.1424 -26.7526 9.02299
      vertex 18.1424 -26.7076 9.02299
      vertex 18.1574 -26.7076 8.97121
    endloop
  endfacet
  facet normal 0 1 0
    outer loop
      vertex 18.2485 -26.7076 8.83925
      vertex 18.2112 -26.7076 8.87813
      vertex 18.2711 -26.7076 8.93934
    endloop
  endfacet
  facet normal 0 1 0
    outer loop
      vertex 18.2112 -26.7076 8.87813
      vertex 18.2469 -26.7076 8.97857
      vertex 18.2711 -26.7076 8.93934
    endloop
  endfacet
  facet normal -0.721189 0 -0.692738
    outer loop
      vertex 18.2112 -26.7076 8.87813
      vertex 18.2485 -26.7076 8.83925
      vertex 18.2112 -26.7526 8.87813
    endloop
  endfacet
  facet normal -0.721189 0 -0.692738
    outer loop
      vertex 18.2485 -26.7076 8.83925
      vertex 18.2485 -26.7526 8.83925
      vertex 18.2112 -26.7526 8.87813
    endloop
  endfacet
  facet normal 0 1 0
    outer loop
      vertex 18.1574 -26.7076 8.97121
      vertex 18.1424 -26.7076 9.02299
      vertex 18.2302 -26.7076 9.02158
    endloop
  endfacet
  facet normal 0 1 0
    outer loop
      vertex 18.1424 -26.7076 9.02299
      vertex 18.2217 -26.7076 9.06693
      vertex 18.2302 -26.7076 9.02158
    endloop
  endfacet
  facet normal 0.932478 0 0.361226
    outer loop
      vertex 18.2469 -26.7076 8.97857
      vertex 18.2302 -26.7076 9.02158
      vertex 18.2302 -26.7526 9.02158
    endloop
  endfacet
  facet normal 0.982966 0 0.183786
    outer loop
      vertex 18.2302 -26.7076 9.02158
      vertex 18.2217 -26.7526 9.06693
      vertex 18.2302 -26.7526 9.02158
    endloop
  endfacet
  facet normal 0.850209 0 0.526445
    outer loop
      vertex 18.2711 -26.7076 8.93934
      vertex 18.2469 -26.7076 8.97857
      vertex 18.2469 -26.7526 8.97857
    endloop
  endfacet
  facet normal 0.932478 0 0.361226
    outer loop
      vertex 18.2469 -26.7076 8.97857
      vertex 18.2302 -26.7526 9.02158
      vertex 18.2469 -26.7526 8.97857
    endloop
  endfacet
  facet normal 0.850209 0 0.526445
    outer loop
      vertex 18.2469 -26.7526 8.97857
      vertex 18.2711 -26.7526 8.93934
      vertex 18.2711 -26.7076 8.93934
    endloop
  endfacet
  facet normal 0.739015 0 0.673689
    outer loop
      vertex 18.2711 -26.7526 8.93934
      vertex 18.3022 -26.7076 8.90525
      vertex 18.2711 -26.7076 8.93934
    endloop
  endfacet
  facet normal 0 -1 0
    outer loop
      vertex 18.2112 -26.7526 8.87813
      vertex 18.2485 -26.7526 8.83925
      vertex 18.3022 -26.7526 8.90525
    endloop
  endfacet
  facet normal 0 -1 0
    outer loop
      vertex 18.2485 -26.7526 8.83925
      vertex 18.339 -26.7526 8.87745
      vertex 18.3022 -26.7526 8.90525
    endloop
  endfacet
  facet normal 0.739015 0 0.673689
    outer loop
      vertex 18.2711 -26.7526 8.93934
      vertex 18.3022 -26.7526 8.90525
      vertex 18.3022 -26.7076 8.90525
    endloop
  endfacet
  facet normal 0.602632 0 0.798019
    outer loop
      vertex 18.3022 -26.7526 8.90525
      vertex 18.339 -26.7076 8.87745
      vertex 18.3022 -26.7076 8.90525
    endloop
  endfacet
  facet normal 0 1 0
    outer loop
      vertex 18.4247 -26.7076 8.84426
      vertex 18.4706 -26.7076 8.84
      vertex 18.4437 -26.7076 8.75609
    endloop
  endfacet
  facet normal 0 1 0
    outer loop
      vertex 18.4706 -26.7076 8.84
      vertex 18.4706 -26.7076 8.755
      vertex 18.4437 -26.7076 8.75609
    endloop
  endfacet
  facet normal 0.0922538 0 0.995736
    outer loop
      vertex 18.4706 -26.7076 8.84
      vertex 18.4247 -26.7076 8.84426
      vertex 18.4247 -26.7526 8.84426
    endloop
  endfacet
  facet normal 0.273684 0 0.96182
    outer loop
      vertex 18.4247 -26.7076 8.84426
      vertex 18.3803 -26.7526 8.85688
      vertex 18.4247 -26.7526 8.84426
    endloop
  endfacet
  facet normal -0.0922538 0 0.995736
    outer loop
      vertex 18.5166 -26.7076 8.84426
      vertex 18.4706 -26.7076 8.84
      vertex 18.4706 -26.7526 8.84
    endloop
  endfacet
  facet normal 0.0922538 0 0.995736
    outer loop
      vertex 18.4706 -26.7076 8.84
      vertex 18.4247 -26.7526 8.84426
      vertex 18.4706 -26.7526 8.84
    endloop
  endfacet
  facet normal 0 1 0
    outer loop
      vertex 18.4706 -26.7076 8.84
      vertex 18.5166 -26.7076 8.84426
      vertex 18.4976 -26.7076 8.75609
    endloop
  endfacet
  facet normal 0 1 0
    outer loop
      vertex 18.5166 -26.7076 8.84426
      vertex 18.5508 -26.7076 8.76473
      vertex 18.4976 -26.7076 8.75609
    endloop
  endfacet
  facet normal 0 1 0
    outer loop
      vertex 18.4976 -26.7076 8.75609
      vertex 18.4706 -26.7076 8.755
      vertex 18.4706 -26.7076 8.84
    endloop
  endfacet
  facet normal 0.040252 0 -0.99919
    outer loop
      vertex 18.4706 -26.7076 8.755
      vertex 18.4976 -26.7076 8.75609
      vertex 18.4976 -26.7526 8.75609
    endloop
  endfacet
  facet normal 0.160414 0 -0.98705
    outer loop
      vertex 18.4976 -26.7076 8.75609
      vertex 18.5508 -26.7076 8.76473
      vertex 18.4976 -26.7526 8.75609
    endloop
  endfacet
  facet normal 0.160414 0 -0.98705
    outer loop
      vertex 18.4976 -26.7526 8.75609
      vertex 18.5508 -26.7076 8.76473
      vertex 18.5508 -26.7526 8.76473
    endloop
  endfacet
  facet normal 0.316658 0 -0.94854
    outer loop
      vertex 18.5508 -26.7076 8.76473
      vertex 18.602 -26.7076 8.78181
      vertex 18.5508 -26.7526 8.76473
    endloop
  endfacet
  facet normal 0.316658 0 -0.94854
    outer loop
      vertex 18.5508 -26.7526 8.76473
      vertex 18.602 -26.7076 8.78181
      vertex 18.602 -26.7526 8.78181
    endloop
  endfacet
  facet normal 0.464734 0 -0.885451
    outer loop
      vertex 18.602 -26.7076 8.78181
      vertex 18.6497 -26.7076 8.80686
      vertex 18.602 -26.7526 8.78181
    endloop
  endfacet
  facet normal 0.464734 0 -0.885451
    outer loop
      vertex 18.602 -26.7526 8.78181
      vertex 18.6497 -26.7076 8.80686
      vertex 18.6497 -26.7526 8.80686
    endloop
  endfacet
  facet normal 0.600729 0 -0.799452
    outer loop
      vertex 18.6497 -26.7076 8.80686
      vertex 18.6928 -26.7076 8.83925
      vertex 18.6497 -26.7526 8.80686
    endloop
  endfacet
  facet normal 0.600729 0 -0.799452
    outer loop
      vertex 18.6497 -26.7526 8.80686
      vertex 18.6928 -26.7076 8.83925
      vertex 18.6928 -26.7526 8.83925
    endloop
  endfacet
  facet normal 0.721206 0 -0.69272
    outer loop
      vertex 18.6928 -26.7076 8.83925
      vertex 18.7301 -26.7076 8.87813
      vertex 18.6928 -26.7526 8.83925
    endloop
  endfacet
  facet normal 0.721206 0 -0.69272
    outer loop
      vertex 18.6928 -26.7526 8.83925
      vertex 18.7301 -26.7076 8.87813
      vertex 18.7301 -26.7526 8.87813
    endloop
  endfacet
  facet normal 0.822986 0 -0.568062
    outer loop
      vertex 18.7301 -26.7076 8.87813
      vertex 18.7608 -26.7076 8.9225
      vertex 18.7301 -26.7526 8.87813
    endloop
  endfacet
  facet normal 0.822986 0 -0.568062
    outer loop
      vertex 18.7301 -26.7526 8.87813
      vertex 18.7608 -26.7076 8.9225
      vertex 18.7608 -26.7526 8.9225
    endloop
  endfacet
  facet normal 0.903455 0 -0.428683
    outer loop
      vertex 18.7608 -26.7076 8.9225
      vertex 18.7839 -26.7076 8.97121
      vertex 18.7608 -26.7526 8.9225
    endloop
  endfacet
  facet normal 0.903455 0 -0.428683
    outer loop
      vertex 18.7608 -26.7526 8.9225
      vertex 18.7839 -26.7076 8.97121
      vertex 18.7839 -26.7526 8.97121
    endloop
  endfacet
  facet normal 0.960515 0 -0.278228
    outer loop
      vertex 18.7839 -26.7076 8.97121
      vertex 18.7989 -26.7076 9.02299
      vertex 18.7839 -26.7526 8.97121
    endloop
  endfacet
  facet normal 0.960515 0 -0.278228
    outer loop
      vertex 18.7839 -26.7526 8.97121
      vertex 18.7989 -26.7076 9.02299
      vertex 18.7989 -26.7526 9.02299
    endloop
  endfacet
  facet normal 0.992712 0 -0.120509
    outer loop
      vertex 18.7989 -26.7076 9.02299
      vertex 18.8054 -26.7076 9.07651
      vertex 18.7989 -26.7526 9.02299
    endloop
  endfacet
  facet normal 0.992712 0 -0.120509
    outer loop
      vertex 18.7989 -26.7526 9.02299
      vertex 18.8054 -26.7076 9.07651
      vertex 18.8054 -26.7526 9.07651
    endloop
  endfacet
  facet normal 0.999794 0 -0.0202941
    outer loop
      vertex 18.8054 -26.7076 9.07651
      vertex 18.8056 -26.7526 9.09
      vertex 18.8054 -26.7526 9.07651
    endloop
  endfacet
  facet normal -0.0402493 0 -0.99919
    outer loop
      vertex 18.4437 -26.7076 8.75609
      vertex 18.4706 -26.7076 8.755
      vertex 18.4437 -26.7526 8.75609
    endloop
  endfacet
  facet normal 0 -0.0241238 -0.999709
    outer loop
      vertex 18.4706 -26.7076 8.755
      vertex 18.4976 -26.7526 8.75609
      vertex 18.4437 -26.7526 8.75609
    endloop
  endfacet
  facet normal -0.16042 0 -0.987049
    outer loop
      vertex 18.3905 -26.7076 8.76473
      vertex 18.4437 -26.7076 8.75609
      vertex 18.3905 -26.7526 8.76473
    endloop
  endfacet
  facet normal -0.16042 0 -0.987049
    outer loop
      vertex 18.4437 -26.7076 8.75609
      vertex 18.4437 -26.7526 8.75609
      vertex 18.3905 -26.7526 8.76473
    endloop
  endfacet
  facet normal 0 1 0
    outer loop
      vertex 18.4437 -26.7076 8.75609
      vertex 18.3905 -26.7076 8.76473
      vertex 18.4247 -26.7076 8.84426
    endloop
  endfacet
  facet normal 0 1 0
    outer loop
      vertex 18.3905 -26.7076 8.76473
      vertex 18.3803 -26.7076 8.85688
      vertex 18.4247 -26.7076 8.84426
    endloop
  endfacet
  facet normal 0 -1 0
    outer loop
      vertex 18.4437 -26.7526 8.75609
      vertex 18.4976 -26.7526 8.75609
      vertex 18.4706 -26.7526 8.84
    endloop
  endfacet
  facet normal 0 -1 0
    outer loop
      vertex 18.4976 -26.7526 8.75609
      vertex 18.5166 -26.7526 8.84426
      vertex 18.4706 -26.7526 8.84
    endloop
  endfacet
  facet normal 0 -1 0
    outer loop
      vertex 18.3905 -26.7526 8.76473
      vertex 18.4437 -26.7526 8.75609
      vertex 18.4706 -26.7526 8.84
    endloop
  endfacet
  facet normal 0 -1 0
    outer loop
      vertex 18.4976 -26.7526 8.75609
      vertex 18.5508 -26.7526 8.76473
      vertex 18.5166 -26.7526 8.84426
    endloop
  endfacet
  facet normal 0 -1 0
    outer loop
      vertex 18.5508 -26.7526 8.76473
      vertex 18.561 -26.7526 8.85688
      vertex 18.5166 -26.7526 8.84426
    endloop
  endfacet
  facet normal 0.273684 0 0.96182
    outer loop
      vertex 18.4247 -26.7076 8.84426
      vertex 18.3803 -26.7076 8.85688
      vertex 18.3803 -26.7526 8.85688
    endloop
  endfacet
  facet normal 0.445727 0 0.895169
    outer loop
      vertex 18.3803 -26.7076 8.85688
      vertex 18.339 -26.7526 8.87745
      vertex 18.3803 -26.7526 8.85688
    endloop
  endfacet
  facet normal -0.273684 0 0.96182
    outer loop
      vertex 18.561 -26.7076 8.85688
      vertex 18.5166 -26.7076 8.84426
      vertex 18.5166 -26.7526 8.84426
    endloop
  endfacet
  facet normal -0.0922538 0 0.995736
    outer loop
      vertex 18.5166 -26.7076 8.84426
      vertex 18.4706 -26.7526 8.84
      vertex 18.5166 -26.7526 8.84426
    endloop
  endfacet
  facet normal 0 1 0
    outer loop
      vertex 18.5166 -26.7076 8.84426
      vertex 18.561 -26.7076 8.85688
      vertex 18.602 -26.7076 8.78181
    endloop
  endfacet
  facet normal 0 1 0
    outer loop
      vertex 18.561 -26.7076 8.85688
      vertex 18.6497 -26.7076 8.80686
      vertex 18.602 -26.7076 8.78181
    endloop
  endfacet
  facet normal 0 -1 0
    outer loop
      vertex 18.4247 -26.7526 8.84426
      vertex 18.3803 -26.7526 8.85688
      vertex 18.3393 -26.7526 8.78181
    endloop
  endfacet
  facet normal 0 -1 0
    outer loop
      vertex 18.3803 -26.7526 8.85688
      vertex 18.2916 -26.7526 8.80686
      vertex 18.3393 -26.7526 8.78181
    endloop
  endfacet
  facet normal 0 -1 0
    outer loop
      vertex 18.4706 -26.7526 8.84
      vertex 18.4247 -26.7526 8.84426
      vertex 18.3905 -26.7526 8.76473
    endloop
  endfacet
  facet normal 0 -1 0
    outer loop
      vertex 18.4247 -26.7526 8.84426
      vertex 18.3393 -26.7526 8.78181
      vertex 18.3905 -26.7526 8.76473
    endloop
  endfacet
  facet normal 0 1 0
    outer loop
      vertex 18.5166 -26.7076 9.33574
      vertex 18.4706 -26.7076 9.34
      vertex 18.4706 -26.7076 9.425
    endloop
  endfacet
  facet normal 0 1 0
    outer loop
      vertex 18.4706 -26.7076 9.34
      vertex 18.4169 -26.7076 9.42066
      vertex 18.4706 -26.7076 9.425
    endloop
  endfacet
  facet normal -0.0922738 0 -0.995734
    outer loop
      vertex 18.4706 -26.7076 9.34
      vertex 18.5166 -26.7076 9.33574
      vertex 18.5166 -26.7526 9.33574
    endloop
  endfacet
  facet normal -0.273665 0 -0.961825
    outer loop
      vertex 18.5166 -26.7076 9.33574
      vertex 18.561 -26.7526 9.32312
      vertex 18.5166 -26.7526 9.33574
    endloop
  endfacet
  facet normal 0.0922738 0 -0.995734
    outer loop
      vertex 18.4247 -26.7076 9.33574
      vertex 18.4706 -26.7076 9.34
      vertex 18.4706 -26.7526 9.34
    endloop
  endfacet
  facet normal -0.0922738 0 -0.995734
    outer loop
      vertex 18.4706 -26.7076 9.34
      vertex 18.5166 -26.7526 9.33574
      vertex 18.4706 -26.7526 9.34
    endloop
  endfacet
  facet normal 0 1 0
    outer loop
      vertex 18.4706 -26.7076 9.34
      vertex 18.4247 -26.7076 9.33574
      vertex 18.4169 -26.7076 9.42066
    endloop
  endfacet
  facet normal 0 1 0
    outer loop
      vertex 18.4247 -26.7076 9.33574
      vertex 18.3646 -26.7076 9.40776
      vertex 18.4169 -26.7076 9.42066
    endloop
  endfacet
  facet normal -0.239331 0 0.970938
    outer loop
      vertex 18.4169 -26.7076 9.42066
      vertex 18.3646 -26.7076 9.40776
      vertex 18.4169 -26.7526 9.42066
    endloop
  endfacet
  facet normal -0.239331 0 0.970938
    outer loop
      vertex 18.3646 -26.7076 9.40776
      vertex 18.3646 -26.7526 9.40776
      vertex 18.4169 -26.7526 9.42066
    endloop
  endfacet
  facet normal -0.0804634 0 0.996758
    outer loop
      vertex 18.4706 -26.7076 9.425
      vertex 18.4169 -26.7076 9.42066
      vertex 18.4706 -26.7526 9.425
    endloop
  endfacet
  facet normal -0.0804634 0 0.996758
    outer loop
      vertex 18.4169 -26.7076 9.42066
      vertex 18.4169 -26.7526 9.42066
      vertex 18.4706 -26.7526 9.425
    endloop
  endfacet
  facet normal 0.0804661 0 0.996757
    outer loop
      vertex 18.5244 -26.7076 9.42066
      vertex 18.4706 -26.7076 9.425
      vertex 18.5244 -26.7526 9.42066
    endloop
  endfacet
  facet normal 0.0804661 0 0.996757
    outer loop
      vertex 18.4706 -26.7076 9.425
      vertex 18.4706 -26.7526 9.425
      vertex 18.5244 -26.7526 9.42066
    endloop
  endfacet
  facet normal 0 1 0
    outer loop
      vertex 18.4706 -26.7076 9.425
      vertex 18.5244 -26.7076 9.42066
      vertex 18.5166 -26.7076 9.33574
    endloop
  endfacet
  facet normal 0 1 0
    outer loop
      vertex 18.5244 -26.7076 9.42066
      vertex 18.561 -26.7076 9.32312
      vertex 18.5166 -26.7076 9.33574
    endloop
  endfacet
  facet normal -0.273665 0 -0.961825
    outer loop
      vertex 18.5166 -26.7076 9.33574
      vertex 18.561 -26.7076 9.32312
      vertex 18.561 -26.7526 9.32312
    endloop
  endfacet
  facet normal -0.445743 0 -0.895161
    outer loop
      vertex 18.561 -26.7076 9.32312
      vertex 18.6023 -26.7526 9.30255
      vertex 18.561 -26.7526 9.32312
    endloop
  endfacet
  facet normal 0.273665 0 -0.961825
    outer loop
      vertex 18.3803 -26.7076 9.32312
      vertex 18.4247 -26.7076 9.33574
      vertex 18.4247 -26.7526 9.33574
    endloop
  endfacet
  facet normal 0.0922738 0 -0.995734
    outer loop
      vertex 18.4247 -26.7076 9.33574
      vertex 18.4706 -26.7526 9.34
      vertex 18.4247 -26.7526 9.33574
    endloop
  endfacet
  facet normal 0 1 0
    outer loop
      vertex 18.4247 -26.7076 9.33574
      vertex 18.3803 -26.7076 9.32312
      vertex 18.3646 -26.7076 9.40776
    endloop
  endfacet
  facet normal 0 1 0
    outer loop
      vertex 18.3803 -26.7076 9.32312
      vertex 18.315 -26.7076 9.38663
      vertex 18.3646 -26.7076 9.40776
    endloop
  endfacet
  facet normal 0 -1 0
    outer loop
      vertex 18.5166 -26.7526 9.33574
      vertex 18.561 -26.7526 9.32312
      vertex 18.5767 -26.7526 9.40776
    endloop
  endfacet
  facet normal 0 -1 0
    outer loop
      vertex 18.561 -26.7526 9.32312
      vertex 18.6263 -26.7526 9.38663
      vertex 18.5767 -26.7526 9.40776
    endloop
  endfacet
  facet normal 0 -1 0
    outer loop
      vertex 18.4706 -26.7526 9.34
      vertex 18.5166 -26.7526 9.33574
      vertex 18.5244 -26.7526 9.42066
    endloop
  endfacet
  facet normal 0 -1 0
    outer loop
      vertex 18.5166 -26.7526 9.33574
      vertex 18.5767 -26.7526 9.40776
      vertex 18.5244 -26.7526 9.42066
    endloop
  endfacet
  facet normal 0 -1 0
    outer loop
      vertex 18.4247 -26.7526 9.33574
      vertex 18.4706 -26.7526 9.34
      vertex 18.4706 -26.7526 9.425
    endloop
  endfacet
  facet normal 0 -1 0
    outer loop
      vertex 18.4706 -26.7526 9.34
      vertex 18.5244 -26.7526 9.42066
      vertex 18.4706 -26.7526 9.425
    endloop
  endfacet
  facet normal 0 -1 0
    outer loop
      vertex 18.4706 -26.7526 9.425
      vertex 18.4169 -26.7526 9.42066
      vertex 18.4247 -26.7526 9.33574
    endloop
  endfacet
  facet normal 0 -1 0
    outer loop
      vertex 18.4169 -26.7526 9.42066
      vertex 18.3803 -26.7526 9.32312
      vertex 18.4247 -26.7526 9.33574
    endloop
  endfacet
  facet normal 0.239323 0 0.97094
    outer loop
      vertex 18.5244 -26.7526 9.42066
      vertex 18.5767 -26.7526 9.40776
      vertex 18.5244 -26.7076 9.42066
    endloop
  endfacet
  facet normal 0.239323 0 0.97094
    outer loop
      vertex 18.5767 -26.7526 9.40776
      vertex 18.5767 -26.7076 9.40776
      vertex 18.5244 -26.7076 9.42066
    endloop
  endfacet
  facet normal 0 1 0
    outer loop
      vertex 18.5244 -26.7076 9.42066
      vertex 18.5767 -26.7076 9.40776
      vertex 18.561 -26.7076 9.32312
    endloop
  endfacet
  facet normal 0 1 0
    outer loop
      vertex 18.5767 -26.7076 9.40776
      vertex 18.6023 -26.7076 9.30255
      vertex 18.561 -26.7076 9.32312
    endloop
  endfacet
  facet normal 0 -1 0
    outer loop
      vertex 18.4169 -26.7526 9.42066
      vertex 18.3646 -26.7526 9.40776
      vertex 18.3803 -26.7526 9.32312
    endloop
  endfacet
  facet normal 0 -1 0
    outer loop
      vertex 18.3646 -26.7526 9.40776
      vertex 18.339 -26.7526 9.30255
      vertex 18.3803 -26.7526 9.32312
    endloop
  endfacet
  facet normal 0.273665 0 -0.961825
    outer loop
      vertex 18.4247 -26.7526 9.33574
      vertex 18.3803 -26.7526 9.32312
      vertex 18.3803 -26.7076 9.32312
    endloop
  endfacet
  facet normal 0.44576 0 -0.895153
    outer loop
      vertex 18.3803 -26.7526 9.32312
      vertex 18.339 -26.7076 9.30255
      vertex 18.3803 -26.7076 9.32312
    endloop
  endfacet
  facet normal 0 -1 0
    outer loop
      vertex 18.7196 -26.7526 9.11307
      vertex 18.7206 -26.7526 9.09
      vertex 18.8056 -26.7526 9.09
    endloop
  endfacet
  facet normal 0 -1 0
    outer loop
      vertex 18.7206 -26.7526 9.09
      vertex 18.8054 -26.7526 9.07651
      vertex 18.8056 -26.7526 9.09
    endloop
  endfacet
  facet normal -0.998935 0 -0.0461394
    outer loop
      vertex 18.7206 -26.7526 9.09
      vertex 18.7196 -26.7526 9.11307
      vertex 18.7196 -26.7076 9.11307
    endloop
  endfacet
  facet normal -0.982974 0 -0.183744
    outer loop
      vertex 18.7196 -26.7526 9.11307
      vertex 18.7111 -26.7076 9.15842
      vertex 18.7196 -26.7076 9.11307
    endloop
  endfacet
  facet normal -0.998935 0 0.0461394
    outer loop
      vertex 18.7196 -26.7526 9.06693
      vertex 18.7206 -26.7526 9.09
      vertex 18.7196 -26.7076 9.06693
    endloop
  endfacet
  facet normal -0.99972 -0.0236689 0
    outer loop
      vertex 18.7206 -26.7526 9.09
      vertex 18.7196 -26.7076 9.11307
      vertex 18.7196 -26.7076 9.06693
    endloop
  endfacet
  facet normal 0 -1 0
    outer loop
      vertex 18.7206 -26.7526 9.09
      vertex 18.7196 -26.7526 9.06693
      vertex 18.8054 -26.7526 9.07651
    endloop
  endfacet
  facet normal 0 -1 0
    outer loop
      vertex 18.7196 -26.7526 9.06693
      vertex 18.7989 -26.7526 9.02299
      vertex 18.8054 -26.7526 9.07651
    endloop
  endfacet
  facet normal 0.998174 0 0.0604089
    outer loop
      vertex 18.8032 -26.7526 9.13038
      vertex 18.8056 -26.7526 9.09
      vertex 18.8032 -26.7076 9.13038
    endloop
  endfacet
  facet normal 0.999025 0.0181414 0.0402429
    outer loop
      vertex 18.8056 -26.7526 9.09
      vertex 18.8054 -26.7076 9.07651
      vertex 18.8032 -26.7076 9.13038
    endloop
  endfacet
  facet normal 0 -1 0
    outer loop
      vertex 18.8056 -26.7526 9.09
      vertex 18.8032 -26.7526 9.13038
      vertex 18.7196 -26.7526 9.11307
    endloop
  endfacet
  facet normal 0 -1 0
    outer loop
      vertex 18.8032 -26.7526 9.13038
      vertex 18.7111 -26.7526 9.15842
      vertex 18.7196 -26.7526 9.11307
    endloop
  endfacet
  facet normal -0.982974 0 -0.183744
    outer loop
      vertex 18.7196 -26.7526 9.11307
      vertex 18.7111 -26.7526 9.15842
      vertex 18.7111 -26.7076 9.15842
    endloop
  endfacet
  facet normal -0.932462 0 -0.361268
    outer loop
      vertex 18.7111 -26.7526 9.15842
      vertex 18.6944 -26.7076 9.20143
      vertex 18.7111 -26.7076 9.15842
    endloop
  endfacet
  facet normal 0 1 0
    outer loop
      vertex 18.7196 -26.7076 9.11307
      vertex 18.7111 -26.7076 9.15842
      vertex 18.7924 -26.7076 9.1832
    endloop
  endfacet
  facet normal 0 1 0
    outer loop
      vertex 18.7111 -26.7076 9.15842
      vertex 18.7733 -26.7076 9.23361
      vertex 18.7924 -26.7076 9.1832
    endloop
  endfacet
  facet normal 0 1 0
    outer loop
      vertex 18.7196 -26.7076 9.06693
      vertex 18.7196 -26.7076 9.11307
      vertex 18.8032 -26.7076 9.13038
    endloop
  endfacet
  facet normal 0 1 0
    outer loop
      vertex 18.7196 -26.7076 9.11307
      vertex 18.7924 -26.7076 9.1832
      vertex 18.8032 -26.7076 9.13038
    endloop
  endfacet
  facet normal -0.982974 0 0.183747
    outer loop
      vertex 18.7111 -26.7526 9.02158
      vertex 18.7196 -26.7526 9.06693
      vertex 18.7196 -26.7076 9.06693
    endloop
  endfacet
  facet normal 0 -1 0
    outer loop
      vertex 18.7196 -26.7526 9.06693
      vertex 18.7111 -26.7526 9.02158
      vertex 18.7989 -26.7526 9.02299
    endloop
  endfacet
  facet normal 0 -1 0
    outer loop
      vertex 18.7111 -26.7526 9.02158
      vertex 18.7839 -26.7526 8.97121
      vertex 18.7989 -26.7526 9.02299
    endloop
  endfacet
  facet normal 0 1 0
    outer loop
      vertex 18.7111 -26.7076 9.02158
      vertex 18.7196 -26.7076 9.06693
      vertex 18.8054 -26.7076 9.07651
    endloop
  endfacet
  facet normal 0 1 0
    outer loop
      vertex 18.7196 -26.7076 9.06693
      vertex 18.8032 -26.7076 9.13038
      vertex 18.8054 -26.7076 9.07651
    endloop
  endfacet
  facet normal -0.982974 0 0.183747
    outer loop
      vertex 18.7196 -26.7076 9.06693
      vertex 18.7111 -26.7076 9.02158
      vertex 18.7111 -26.7526 9.02158
    endloop
  endfacet
  facet normal -0.932465 0 0.361261
    outer loop
      vertex 18.7111 -26.7076 9.02158
      vertex 18.6944 -26.7526 8.97857
      vertex 18.7111 -26.7526 9.02158
    endloop
  endfacet
  facet normal 0 1 0
    outer loop
      vertex 18.7608 -26.7076 8.9225
      vertex 18.7301 -26.7076 8.87813
      vertex 18.6702 -26.7076 8.93934
    endloop
  endfacet
  facet normal 0 1 0
    outer loop
      vertex 18.7301 -26.7076 8.87813
      vertex 18.6391 -26.7076 8.90525
      vertex 18.6702 -26.7076 8.93934
    endloop
  endfacet
  facet normal 0 1 0
    outer loop
      vertex 18.7839 -26.7076 8.97121
      vertex 18.7608 -26.7076 8.9225
      vertex 18.6944 -26.7076 8.97857
    endloop
  endfacet
  facet normal 0 1 0
    outer loop
      vertex 18.7608 -26.7076 8.9225
      vertex 18.6702 -26.7076 8.93934
      vertex 18.6944 -26.7076 8.97857
    endloop
  endfacet
  facet normal 0 -1 0
    outer loop
      vertex 18.7608 -26.7526 8.9225
      vertex 18.7839 -26.7526 8.97121
      vertex 18.6944 -26.7526 8.97857
    endloop
  endfacet
  facet normal 0 -1 0
    outer loop
      vertex 18.7839 -26.7526 8.97121
      vertex 18.7111 -26.7526 9.02158
      vertex 18.6944 -26.7526 8.97857
    endloop
  endfacet
  facet normal 0 -1 0
    outer loop
      vertex 18.7301 -26.7526 8.87813
      vertex 18.7608 -26.7526 8.9225
      vertex 18.6944 -26.7526 8.97857
    endloop
  endfacet
  facet normal 0 -1 0
    outer loop
      vertex 18.6928 -26.7526 8.83925
      vertex 18.7301 -26.7526 8.87813
      vertex 18.6702 -26.7526 8.93934
    endloop
  endfacet
  facet normal 0 -1 0
    outer loop
      vertex 18.7301 -26.7526 8.87813
      vertex 18.6944 -26.7526 8.97857
      vertex 18.6702 -26.7526 8.93934
    endloop
  endfacet
  facet normal 0 1 0
    outer loop
      vertex 18.7989 -26.7076 9.02299
      vertex 18.7839 -26.7076 8.97121
      vertex 18.7111 -26.7076 9.02158
    endloop
  endfacet
  facet normal 0 1 0
    outer loop
      vertex 18.7839 -26.7076 8.97121
      vertex 18.6944 -26.7076 8.97857
      vertex 18.7111 -26.7076 9.02158
    endloop
  endfacet
  facet normal 0 1 0
    outer loop
      vertex 18.7301 -26.7076 8.87813
      vertex 18.6928 -26.7076 8.83925
      vertex 18.6391 -26.7076 8.90525
    endloop
  endfacet
  facet normal 0 1 0
    outer loop
      vertex 18.6928 -26.7076 8.83925
      vertex 18.6023 -26.7076 8.87745
      vertex 18.6391 -26.7076 8.90525
    endloop
  endfacet
  facet normal -0.850227 0 0.526416
    outer loop
      vertex 18.6944 -26.7076 8.97857
      vertex 18.6702 -26.7076 8.93934
      vertex 18.6702 -26.7526 8.93934
    endloop
  endfacet
  facet normal -0.739015 0 0.673689
    outer loop
      vertex 18.6702 -26.7076 8.93934
      vertex 18.6391 -26.7526 8.90525
      vertex 18.6702 -26.7526 8.93934
    endloop
  endfacet
  facet normal -0.932465 0 0.361261
    outer loop
      vertex 18.7111 -26.7076 9.02158
      vertex 18.6944 -26.7076 8.97857
      vertex 18.6944 -26.7526 8.97857
    endloop
  endfacet
  facet normal -0.850227 0 0.526416
    outer loop
      vertex 18.6944 -26.7076 8.97857
      vertex 18.6702 -26.7526 8.93934
      vertex 18.6944 -26.7526 8.97857
    endloop
  endfacet
  facet normal -0.739015 0 0.673689
    outer loop
      vertex 18.6702 -26.7076 8.93934
      vertex 18.6391 -26.7076 8.90525
      vertex 18.6391 -26.7526 8.90525
    endloop
  endfacet
  facet normal -0.602652 0 0.798004
    outer loop
      vertex 18.6391 -26.7076 8.90525
      vertex 18.6023 -26.7526 8.87745
      vertex 18.6391 -26.7526 8.90525
    endloop
  endfacet
  facet normal 0.979787 0 0.200041
    outer loop
      vertex 18.7924 -26.7526 9.1832
      vertex 18.8032 -26.7526 9.13038
      vertex 18.7924 -26.7076 9.1832
    endloop
  endfacet
  facet normal 0.979787 0 0.200041
    outer loop
      vertex 18.8032 -26.7526 9.13038
      vertex 18.8032 -26.7076 9.13038
      vertex 18.7924 -26.7076 9.1832
    endloop
  endfacet
  facet normal 0 -1 0
    outer loop
      vertex 18.8032 -26.7526 9.13038
      vertex 18.7924 -26.7526 9.1832
      vertex 18.7111 -26.7526 9.15842
    endloop
  endfacet
  facet normal 0 -1 0
    outer loop
      vertex 18.7924 -26.7526 9.1832
      vertex 18.6944 -26.7526 9.20143
      vertex 18.7111 -26.7526 9.15842
    endloop
  endfacet
  facet normal 0 1 0
    outer loop
      vertex 18.8054 -26.7076 9.07651
      vertex 18.7989 -26.7076 9.02299
      vertex 18.7111 -26.7076 9.02158
    endloop
  endfacet
  facet normal 0 -1 0
    outer loop
      vertex 18.1359 -26.7526 9.07651
      vertex 18.1424 -26.7526 9.02299
      vertex 18.2302 -26.7526 9.02158
    endloop
  endfacet
  facet normal -0.992712 0 -0.120509
    outer loop
      vertex 18.1424 -26.7526 9.02299
      vertex 18.1359 -26.7526 9.07651
      vertex 18.1424 -26.7076 9.02299
    endloop
  endfacet
  facet normal -0.992712 0 -0.120509
    outer loop
      vertex 18.1359 -26.7526 9.07651
      vertex 18.1359 -26.7076 9.07651
      vertex 18.1424 -26.7076 9.02299
    endloop
  endfacet
  facet normal 0 -1 0
    outer loop
      vertex 18.2302 -26.7526 9.02158
      vertex 18.2217 -26.7526 9.06693
      vertex 18.1359 -26.7526 9.07651
    endloop
  endfacet
  facet normal 0 -1 0
    outer loop
      vertex 18.2217 -26.7526 9.06693
      vertex 18.1381 -26.7526 9.13038
      vertex 18.1359 -26.7526 9.07651
    endloop
  endfacet
  facet normal 0 1 0
    outer loop
      vertex 18.2711 -26.7076 8.93934
      vertex 18.3022 -26.7076 8.90525
      vertex 18.2485 -26.7076 8.83925
    endloop
  endfacet
  facet normal 0 1 0
    outer loop
      vertex 18.3022 -26.7076 8.90525
      vertex 18.2916 -26.7076 8.80686
      vertex 18.2485 -26.7076 8.83925
    endloop
  endfacet
  facet normal -0.600729 0 -0.799452
    outer loop
      vertex 18.2485 -26.7076 8.83925
      vertex 18.2916 -26.7076 8.80686
      vertex 18.2485 -26.7526 8.83925
    endloop
  endfacet
  facet normal -0.600729 0 -0.799452
    outer loop
      vertex 18.2916 -26.7076 8.80686
      vertex 18.2916 -26.7526 8.80686
      vertex 18.2485 -26.7526 8.83925
    endloop
  endfacet
  facet normal 0.982966 0 0.183786
    outer loop
      vertex 18.2302 -26.7076 9.02158
      vertex 18.2217 -26.7076 9.06693
      vertex 18.2217 -26.7526 9.06693
    endloop
  endfacet
  facet normal 1 0 0
    outer loop
      vertex 18.2217 -26.7076 9.06693
      vertex 18.2217 -26.7526 9.11307
      vertex 18.2217 -26.7526 9.06693
    endloop
  endfacet
  facet normal 0 1 0
    outer loop
      vertex 18.1424 -26.7076 9.02299
      vertex 18.1359 -26.7076 9.07651
      vertex 18.2217 -26.7076 9.06693
    endloop
  endfacet
  facet normal 0 1 0
    outer loop
      vertex 18.1359 -26.7076 9.07651
      vertex 18.2217 -26.7076 9.11307
      vertex 18.2217 -26.7076 9.06693
    endloop
  endfacet
  facet normal 0.602632 0 0.798019
    outer loop
      vertex 18.3022 -26.7526 8.90525
      vertex 18.339 -26.7526 8.87745
      vertex 18.339 -26.7076 8.87745
    endloop
  endfacet
  facet normal 0.445727 0 0.895169
    outer loop
      vertex 18.339 -26.7526 8.87745
      vertex 18.3803 -26.7076 8.85688
      vertex 18.339 -26.7076 8.87745
    endloop
  endfacet
  facet normal 0 -1 0
    outer loop
      vertex 18.2485 -26.7526 8.83925
      vertex 18.2916 -26.7526 8.80686
      vertex 18.339 -26.7526 8.87745
    endloop
  endfacet
  facet normal 0 -1 0
    outer loop
      vertex 18.2916 -26.7526 8.80686
      vertex 18.3803 -26.7526 8.85688
      vertex 18.339 -26.7526 8.87745
    endloop
  endfacet
  facet normal 0 1 0
    outer loop
      vertex 18.3022 -26.7076 8.90525
      vertex 18.339 -26.7076 8.87745
      vertex 18.2916 -26.7076 8.80686
    endloop
  endfacet
  facet normal 0 1 0
    outer loop
      vertex 18.339 -26.7076 8.87745
      vertex 18.3393 -26.7076 8.78181
      vertex 18.2916 -26.7076 8.80686
    endloop
  endfacet
  facet normal -0.316658 0 -0.94854
    outer loop
      vertex 18.3905 -26.7526 8.76473
      vertex 18.3393 -26.7526 8.78181
      vertex 18.3905 -26.7076 8.76473
    endloop
  endfacet
  facet normal -0.316658 0 -0.94854
    outer loop
      vertex 18.3393 -26.7526 8.78181
      vertex 18.3393 -26.7076 8.78181
      vertex 18.3905 -26.7076 8.76473
    endloop
  endfacet
  facet normal 0 1 0
    outer loop
      vertex 18.3905 -26.7076 8.76473
      vertex 18.3393 -26.7076 8.78181
      vertex 18.3803 -26.7076 8.85688
    endloop
  endfacet
  facet normal 0 1 0
    outer loop
      vertex 18.3393 -26.7076 8.78181
      vertex 18.339 -26.7076 8.87745
      vertex 18.3803 -26.7076 8.85688
    endloop
  endfacet
  facet normal 0 1 0
    outer loop
      vertex 18.602 -26.7076 8.78181
      vertex 18.5508 -26.7076 8.76473
      vertex 18.5166 -26.7076 8.84426
    endloop
  endfacet
  facet normal -0.273684 0 0.96182
    outer loop
      vertex 18.5166 -26.7526 8.84426
      vertex 18.561 -26.7526 8.85688
      vertex 18.561 -26.7076 8.85688
    endloop
  endfacet
  facet normal -0.445711 0 0.895177
    outer loop
      vertex 18.561 -26.7526 8.85688
      vertex 18.6023 -26.7076 8.87745
      vertex 18.561 -26.7076 8.85688
    endloop
  endfacet
  facet normal 0 -1 0
    outer loop
      vertex 18.5508 -26.7526 8.76473
      vertex 18.602 -26.7526 8.78181
      vertex 18.561 -26.7526 8.85688
    endloop
  endfacet
  facet normal 0 -1 0
    outer loop
      vertex 18.602 -26.7526 8.78181
      vertex 18.6023 -26.7526 8.87745
      vertex 18.561 -26.7526 8.85688
    endloop
  endfacet
  facet normal 0 1 0
    outer loop
      vertex 18.561 -26.7076 8.85688
      vertex 18.6023 -26.7076 8.87745
      vertex 18.6497 -26.7076 8.80686
    endloop
  endfacet
  facet normal 0 1 0
    outer loop
      vertex 18.6023 -26.7076 8.87745
      vertex 18.6928 -26.7076 8.83925
      vertex 18.6497 -26.7076 8.80686
    endloop
  endfacet
  facet normal -0.464734 0 -0.885451
    outer loop
      vertex 18.3393 -26.7526 8.78181
      vertex 18.2916 -26.7526 8.80686
      vertex 18.3393 -26.7076 8.78181
    endloop
  endfacet
  facet normal -0.464734 0 -0.885451
    outer loop
      vertex 18.2916 -26.7526 8.80686
      vertex 18.2916 -26.7076 8.80686
      vertex 18.3393 -26.7076 8.78181
    endloop
  endfacet
  facet normal -0.391977 0 0.919975
    outer loop
      vertex 18.3646 -26.7076 9.40776
      vertex 18.315 -26.7076 9.38663
      vertex 18.3646 -26.7526 9.40776
    endloop
  endfacet
  facet normal -0.391977 0 0.919975
    outer loop
      vertex 18.315 -26.7076 9.38663
      vertex 18.315 -26.7526 9.38663
      vertex 18.3646 -26.7526 9.40776
    endloop
  endfacet
  facet normal 0 -1 0
    outer loop
      vertex 18.561 -26.7526 9.32312
      vertex 18.6023 -26.7526 9.30255
      vertex 18.6263 -26.7526 9.38663
    endloop
  endfacet
  facet normal 0 -1 0
    outer loop
      vertex 18.6023 -26.7526 9.30255
      vertex 18.6719 -26.7526 9.35781
      vertex 18.6263 -26.7526 9.38663
    endloop
  endfacet
  facet normal -0.445743 0 -0.895161
    outer loop
      vertex 18.561 -26.7076 9.32312
      vertex 18.6023 -26.7076 9.30255
      vertex 18.6023 -26.7526 9.30255
    endloop
  endfacet
  facet normal -0.602639 0 -0.798014
    outer loop
      vertex 18.6023 -26.7076 9.30255
      vertex 18.6391 -26.7526 9.27475
      vertex 18.6023 -26.7526 9.30255
    endloop
  endfacet
  facet normal 0 1 0
    outer loop
      vertex 18.3803 -26.7076 9.32312
      vertex 18.339 -26.7076 9.30255
      vertex 18.315 -26.7076 9.38663
    endloop
  endfacet
  facet normal 0 1 0
    outer loop
      vertex 18.339 -26.7076 9.30255
      vertex 18.2694 -26.7076 9.35781
      vertex 18.315 -26.7076 9.38663
    endloop
  endfacet
  facet normal 0.391977 0 0.919975
    outer loop
      vertex 18.5767 -26.7526 9.40776
      vertex 18.6263 -26.7526 9.38663
      vertex 18.5767 -26.7076 9.40776
    endloop
  endfacet
  facet normal 0.391977 0 0.919975
    outer loop
      vertex 18.6263 -26.7526 9.38663
      vertex 18.6263 -26.7076 9.38663
      vertex 18.5767 -26.7076 9.40776
    endloop
  endfacet
  facet normal 0 1 0
    outer loop
      vertex 18.5767 -26.7076 9.40776
      vertex 18.6263 -26.7076 9.38663
      vertex 18.6023 -26.7076 9.30255
    endloop
  endfacet
  facet normal 0 1 0
    outer loop
      vertex 18.6263 -26.7076 9.38663
      vertex 18.6719 -26.7076 9.35781
      vertex 18.6023 -26.7076 9.30255
    endloop
  endfacet
  facet normal 0 1 0
    outer loop
      vertex 18.6023 -26.7076 9.30255
      vertex 18.6719 -26.7076 9.35781
      vertex 18.6391 -26.7076 9.27475
    endloop
  endfacet
  facet normal 0 1 0
    outer loop
      vertex 18.6719 -26.7076 9.35781
      vertex 18.7123 -26.7076 9.32206
      vertex 18.6391 -26.7076 9.27475
    endloop
  endfacet
  facet normal 0 1 0
    outer loop
      vertex 18.6391 -26.7076 9.27475
      vertex 18.7123 -26.7076 9.32206
      vertex 18.6702 -26.7076 9.24066
    endloop
  endfacet
  facet normal 0 1 0
    outer loop
      vertex 18.7123 -26.7076 9.32206
      vertex 18.7463 -26.7076 9.2803
      vertex 18.6702 -26.7076 9.24066
    endloop
  endfacet
  facet normal 0 1 0
    outer loop
      vertex 18.6702 -26.7076 9.24066
      vertex 18.7463 -26.7076 9.2803
      vertex 18.6944 -26.7076 9.20143
    endloop
  endfacet
  facet normal 0 1 0
    outer loop
      vertex 18.7463 -26.7076 9.2803
      vertex 18.7733 -26.7076 9.23361
      vertex 18.6944 -26.7076 9.20143
    endloop
  endfacet
  facet normal 0 1 0
    outer loop
      vertex 18.6944 -26.7076 9.20143
      vertex 18.7733 -26.7076 9.23361
      vertex 18.7111 -26.7076 9.15842
    endloop
  endfacet
  facet normal 0.44576 0 -0.895153
    outer loop
      vertex 18.3803 -26.7526 9.32312
      vertex 18.339 -26.7526 9.30255
      vertex 18.339 -26.7076 9.30255
    endloop
  endfacet
  facet normal 0.602619 0 -0.798029
    outer loop
      vertex 18.339 -26.7526 9.30255
      vertex 18.3022 -26.7076 9.27475
      vertex 18.339 -26.7076 9.30255
    endloop
  endfacet
  facet normal 0 -1 0
    outer loop
      vertex 18.3646 -26.7526 9.40776
      vertex 18.315 -26.7526 9.38663
      vertex 18.339 -26.7526 9.30255
    endloop
  endfacet
  facet normal 0 -1 0
    outer loop
      vertex 18.315 -26.7526 9.38663
      vertex 18.2694 -26.7526 9.35781
      vertex 18.339 -26.7526 9.30255
    endloop
  endfacet
  facet normal 0 -1 0
    outer loop
      vertex 18.339 -26.7526 9.30255
      vertex 18.2694 -26.7526 9.35781
      vertex 18.3022 -26.7526 9.27475
    endloop
  endfacet
  facet normal 0 -1 0
    outer loop
      vertex 18.2694 -26.7526 9.35781
      vertex 18.229 -26.7526 9.32206
      vertex 18.3022 -26.7526 9.27475
    endloop
  endfacet
  facet normal 0 -1 0
    outer loop
      vertex 18.3022 -26.7526 9.27475
      vertex 18.229 -26.7526 9.32206
      vertex 18.2711 -26.7526 9.24066
    endloop
  endfacet
  facet normal 0 -1 0
    outer loop
      vertex 18.229 -26.7526 9.32206
      vertex 18.1949 -26.7526 9.2803
      vertex 18.2711 -26.7526 9.24066
    endloop
  endfacet
  facet normal 0 -1 0
    outer loop
      vertex 18.2711 -26.7526 9.24066
      vertex 18.1949 -26.7526 9.2803
      vertex 18.2469 -26.7526 9.20143
    endloop
  endfacet
  facet normal 0 -1 0
    outer loop
      vertex 18.1949 -26.7526 9.2803
      vertex 18.168 -26.7526 9.23361
      vertex 18.2469 -26.7526 9.20143
    endloop
  endfacet
  facet normal 0 -1 0
    outer loop
      vertex 18.2469 -26.7526 9.20143
      vertex 18.168 -26.7526 9.23361
      vertex 18.2302 -26.7526 9.15842
    endloop
  endfacet
  facet normal 0 -1 0
    outer loop
      vertex 18.168 -26.7526 9.23361
      vertex 18.1489 -26.7526 9.1832
      vertex 18.2302 -26.7526 9.15842
    endloop
  endfacet
  facet normal 0 -1 0
    outer loop
      vertex 18.2302 -26.7526 9.15842
      vertex 18.1489 -26.7526 9.1832
      vertex 18.2217 -26.7526 9.11307
    endloop
  endfacet
  facet normal 0 -1 0
    outer loop
      vertex 18.1489 -26.7526 9.1832
      vertex 18.1381 -26.7526 9.13038
      vertex 18.2217 -26.7526 9.11307
    endloop
  endfacet
  facet normal 0 -1 0
    outer loop
      vertex 18.2217 -26.7526 9.11307
      vertex 18.1381 -26.7526 9.13038
      vertex 18.2217 -26.7526 9.06693
    endloop
  endfacet
  facet normal -0.932462 0 -0.361268
    outer loop
      vertex 18.7111 -26.7526 9.15842
      vertex 18.6944 -26.7526 9.20143
      vertex 18.6944 -26.7076 9.20143
    endloop
  endfacet
  facet normal -0.850233 0 -0.526407
    outer loop
      vertex 18.6944 -26.7526 9.20143
      vertex 18.6702 -26.7076 9.24066
      vertex 18.6944 -26.7076 9.20143
    endloop
  endfacet
  facet normal 0.935024 0 0.354585
    outer loop
      vertex 18.7924 -26.7076 9.1832
      vertex 18.7733 -26.7076 9.23361
      vertex 18.7924 -26.7526 9.1832
    endloop
  endfacet
  facet normal 0.935024 0 0.354585
    outer loop
      vertex 18.7733 -26.7076 9.23361
      vertex 18.7733 -26.7526 9.23361
      vertex 18.7924 -26.7526 9.1832
    endloop
  endfacet
  facet normal 0 -1 0
    outer loop
      vertex 18.6497 -26.7526 8.80686
      vertex 18.6928 -26.7526 8.83925
      vertex 18.6391 -26.7526 8.90525
    endloop
  endfacet
  facet normal 0 -1 0
    outer loop
      vertex 18.6928 -26.7526 8.83925
      vertex 18.6702 -26.7526 8.93934
      vertex 18.6391 -26.7526 8.90525
    endloop
  endfacet
  facet normal -0.602652 0 0.798004
    outer loop
      vertex 18.6391 -26.7076 8.90525
      vertex 18.6023 -26.7076 8.87745
      vertex 18.6023 -26.7526 8.87745
    endloop
  endfacet
  facet normal -0.445711 0 0.895177
    outer loop
      vertex 18.6023 -26.7076 8.87745
      vertex 18.561 -26.7526 8.85688
      vertex 18.6023 -26.7526 8.87745
    endloop
  endfacet
  facet normal 0 -1 0
    outer loop
      vertex 18.6391 -26.7526 8.90525
      vertex 18.6023 -26.7526 8.87745
      vertex 18.6497 -26.7526 8.80686
    endloop
  endfacet
  facet normal 0 -1 0
    outer loop
      vertex 18.6023 -26.7526 8.87745
      vertex 18.602 -26.7526 8.78181
      vertex 18.6497 -26.7526 8.80686
    endloop
  endfacet
  facet normal 0 -1 0
    outer loop
      vertex 18.7924 -26.7526 9.1832
      vertex 18.7733 -26.7526 9.23361
      vertex 18.6944 -26.7526 9.20143
    endloop
  endfacet
  facet normal 0 -1 0
    outer loop
      vertex 18.7733 -26.7526 9.23361
      vertex 18.6702 -26.7526 9.24066
      vertex 18.6944 -26.7526 9.20143
    endloop
  endfacet
  facet normal -0.99919 0 0.0402495
    outer loop
      vertex 18.1359 -26.7526 9.07651
      vertex 18.1381 -26.7526 9.13038
      vertex 18.1359 -26.7076 9.07651
    endloop
  endfacet
  facet normal -0.99919 0 0.0402495
    outer loop
      vertex 18.1381 -26.7526 9.13038
      vertex 18.1381 -26.7076 9.13038
      vertex 18.1359 -26.7076 9.07651
    endloop
  endfacet
  facet normal 1 0 0
    outer loop
      vertex 18.2217 -26.7076 9.06693
      vertex 18.2217 -26.7076 9.11307
      vertex 18.2217 -26.7526 9.11307
    endloop
  endfacet
  facet normal 0.982967 0 -0.183783
    outer loop
      vertex 18.2217 -26.7076 9.11307
      vertex 18.2302 -26.7526 9.15842
      vertex 18.2217 -26.7526 9.11307
    endloop
  endfacet
  facet normal 0 1 0
    outer loop
      vertex 18.1359 -26.7076 9.07651
      vertex 18.1381 -26.7076 9.13038
      vertex 18.2217 -26.7076 9.11307
    endloop
  endfacet
  facet normal 0 1 0
    outer loop
      vertex 18.1381 -26.7076 9.13038
      vertex 18.2302 -26.7076 9.15842
      vertex 18.2217 -26.7076 9.11307
    endloop
  endfacet
  facet normal -0.534451 0 0.845199
    outer loop
      vertex 18.315 -26.7076 9.38663
      vertex 18.2694 -26.7076 9.35781
      vertex 18.315 -26.7526 9.38663
    endloop
  endfacet
  facet normal -0.534451 0 0.845199
    outer loop
      vertex 18.2694 -26.7076 9.35781
      vertex 18.2694 -26.7526 9.35781
      vertex 18.315 -26.7526 9.38663
    endloop
  endfacet
  facet normal 0 -1 0
    outer loop
      vertex 18.6023 -26.7526 9.30255
      vertex 18.6391 -26.7526 9.27475
      vertex 18.6719 -26.7526 9.35781
    endloop
  endfacet
  facet normal 0 -1 0
    outer loop
      vertex 18.6391 -26.7526 9.27475
      vertex 18.7123 -26.7526 9.32206
      vertex 18.6719 -26.7526 9.35781
    endloop
  endfacet
  facet normal 0.534467 0 0.84519
    outer loop
      vertex 18.6263 -26.7526 9.38663
      vertex 18.6719 -26.7526 9.35781
      vertex 18.6263 -26.7076 9.38663
    endloop
  endfacet
  facet normal 0.534467 0 0.84519
    outer loop
      vertex 18.6719 -26.7526 9.35781
      vertex 18.6719 -26.7076 9.35781
      vertex 18.6263 -26.7076 9.38663
    endloop
  endfacet
  facet normal -0.602639 0 -0.798014
    outer loop
      vertex 18.6023 -26.7076 9.30255
      vertex 18.6391 -26.7076 9.27475
      vertex 18.6391 -26.7526 9.27475
    endloop
  endfacet
  facet normal -0.739006 0 -0.673699
    outer loop
      vertex 18.6391 -26.7076 9.27475
      vertex 18.6702 -26.7526 9.24066
      vertex 18.6391 -26.7526 9.27475
    endloop
  endfacet
  facet normal 0 1 0
    outer loop
      vertex 18.339 -26.7076 9.30255
      vertex 18.3022 -26.7076 9.27475
      vertex 18.2694 -26.7076 9.35781
    endloop
  endfacet
  facet normal 0 1 0
    outer loop
      vertex 18.3022 -26.7076 9.27475
      vertex 18.229 -26.7076 9.32206
      vertex 18.2694 -26.7076 9.35781
    endloop
  endfacet
  facet normal 0.602619 0 -0.798029
    outer loop
      vertex 18.339 -26.7526 9.30255
      vertex 18.3022 -26.7526 9.27475
      vertex 18.3022 -26.7076 9.27475
    endloop
  endfacet
  facet normal 0.739006 0 -0.673699
    outer loop
      vertex 18.3022 -26.7526 9.27475
      vertex 18.2711 -26.7076 9.24066
      vertex 18.3022 -26.7076 9.27475
    endloop
  endfacet
  facet normal 0.866028 0 0.499996
    outer loop
      vertex 18.7733 -26.7076 9.23361
      vertex 18.7463 -26.7076 9.2803
      vertex 18.7733 -26.7526 9.23361
    endloop
  endfacet
  facet normal 0.866028 0 0.499996
    outer loop
      vertex 18.7463 -26.7076 9.2803
      vertex 18.7463 -26.7526 9.2803
      vertex 18.7733 -26.7526 9.23361
    endloop
  endfacet
  facet normal -0.850233 0 -0.526407
    outer loop
      vertex 18.6944 -26.7526 9.20143
      vertex 18.6702 -26.7526 9.24066
      vertex 18.6702 -26.7076 9.24066
    endloop
  endfacet
  facet normal -0.739006 0 -0.673699
    outer loop
      vertex 18.6702 -26.7526 9.24066
      vertex 18.6391 -26.7076 9.27475
      vertex 18.6702 -26.7076 9.24066
    endloop
  endfacet
  facet normal 0 -1 0
    outer loop
      vertex 18.7733 -26.7526 9.23361
      vertex 18.7463 -26.7526 9.2803
      vertex 18.6702 -26.7526 9.24066
    endloop
  endfacet
  facet normal 0 -1 0
    outer loop
      vertex 18.7463 -26.7526 9.2803
      vertex 18.6391 -26.7526 9.27475
      vertex 18.6702 -26.7526 9.24066
    endloop
  endfacet
  facet normal -0.979787 0 0.200041
    outer loop
      vertex 18.1381 -26.7526 9.13038
      vertex 18.1489 -26.7526 9.1832
      vertex 18.1381 -26.7076 9.13038
    endloop
  endfacet
  facet normal -0.979787 0 0.200041
    outer loop
      vertex 18.1489 -26.7526 9.1832
      vertex 18.1489 -26.7076 9.1832
      vertex 18.1381 -26.7076 9.13038
    endloop
  endfacet
  facet normal 0 1 0
    outer loop
      vertex 18.1381 -26.7076 9.13038
      vertex 18.1489 -26.7076 9.1832
      vertex 18.2302 -26.7076 9.15842
    endloop
  endfacet
  facet normal 0 1 0
    outer loop
      vertex 18.1489 -26.7076 9.1832
      vertex 18.2469 -26.7076 9.20143
      vertex 18.2302 -26.7076 9.15842
    endloop
  endfacet
  facet normal 0.982967 0 -0.183783
    outer loop
      vertex 18.2217 -26.7076 9.11307
      vertex 18.2302 -26.7076 9.15842
      vertex 18.2302 -26.7526 9.15842
    endloop
  endfacet
  facet normal 0.932476 0 -0.361233
    outer loop
      vertex 18.2302 -26.7076 9.15842
      vertex 18.2469 -26.7526 9.20143
      vertex 18.2302 -26.7526 9.15842
    endloop
  endfacet
  facet normal -0.935024 0 0.354585
    outer loop
      vertex 18.1489 -26.7526 9.1832
      vertex 18.168 -26.7526 9.23361
      vertex 18.1489 -26.7076 9.1832
    endloop
  endfacet
  facet normal -0.935024 0 0.354585
    outer loop
      vertex 18.168 -26.7526 9.23361
      vertex 18.168 -26.7076 9.23361
      vertex 18.1489 -26.7076 9.1832
    endloop
  endfacet
  facet normal 0.932476 0 -0.361233
    outer loop
      vertex 18.2302 -26.7076 9.15842
      vertex 18.2469 -26.7076 9.20143
      vertex 18.2469 -26.7526 9.20143
    endloop
  endfacet
  facet normal 0.850215 0 -0.526436
    outer loop
      vertex 18.2469 -26.7076 9.20143
      vertex 18.2711 -26.7526 9.24066
      vertex 18.2469 -26.7526 9.20143
    endloop
  endfacet
  facet normal 0 1 0
    outer loop
      vertex 18.1489 -26.7076 9.1832
      vertex 18.168 -26.7076 9.23361
      vertex 18.2469 -26.7076 9.20143
    endloop
  endfacet
  facet normal 0 1 0
    outer loop
      vertex 18.168 -26.7076 9.23361
      vertex 18.2711 -26.7076 9.24066
      vertex 18.2469 -26.7076 9.20143
    endloop
  endfacet
  facet normal -0.866028 0 0.499996
    outer loop
      vertex 18.168 -26.7526 9.23361
      vertex 18.1949 -26.7526 9.2803
      vertex 18.168 -26.7076 9.23361
    endloop
  endfacet
  facet normal -0.866028 0 0.499996
    outer loop
      vertex 18.1949 -26.7526 9.2803
      vertex 18.1949 -26.7076 9.2803
      vertex 18.168 -26.7076 9.23361
    endloop
  endfacet
  facet normal 0.850215 0 -0.526436
    outer loop
      vertex 18.2469 -26.7076 9.20143
      vertex 18.2711 -26.7076 9.24066
      vertex 18.2711 -26.7526 9.24066
    endloop
  endfacet
  facet normal 0.739006 0 -0.673699
    outer loop
      vertex 18.2711 -26.7076 9.24066
      vertex 18.3022 -26.7526 9.27475
      vertex 18.2711 -26.7526 9.24066
    endloop
  endfacet
  facet normal 0 1 0
    outer loop
      vertex 18.168 -26.7076 9.23361
      vertex 18.1949 -26.7076 9.2803
      vertex 18.2711 -26.7076 9.24066
    endloop
  endfacet
  facet normal 0 1 0
    outer loop
      vertex 18.1949 -26.7076 9.2803
      vertex 18.3022 -26.7076 9.27475
      vertex 18.2711 -26.7076 9.24066
    endloop
  endfacet
  facet normal -0.774594 0 0.632459
    outer loop
      vertex 18.1949 -26.7526 9.2803
      vertex 18.229 -26.7526 9.32206
      vertex 18.1949 -26.7076 9.2803
    endloop
  endfacet
  facet normal -0.774594 0 0.632459
    outer loop
      vertex 18.229 -26.7526 9.32206
      vertex 18.229 -26.7076 9.32206
      vertex 18.1949 -26.7076 9.2803
    endloop
  endfacet
  facet normal 0 1 0
    outer loop
      vertex 18.1949 -26.7076 9.2803
      vertex 18.229 -26.7076 9.32206
      vertex 18.3022 -26.7076 9.27475
    endloop
  endfacet
  facet normal -0.663122 0 0.748511
    outer loop
      vertex 18.229 -26.7526 9.32206
      vertex 18.2694 -26.7526 9.35781
      vertex 18.229 -26.7076 9.32206
    endloop
  endfacet
  facet normal -0.663122 0 0.748511
    outer loop
      vertex 18.2694 -26.7526 9.35781
      vertex 18.2694 -26.7076 9.35781
      vertex 18.229 -26.7076 9.32206
    endloop
  endfacet
  facet normal 0.663105 0 0.748526
    outer loop
      vertex 18.6719 -26.7526 9.35781
      vertex 18.7123 -26.7526 9.32206
      vertex 18.6719 -26.7076 9.35781
    endloop
  endfacet
  facet normal 0.663105 0 0.748526
    outer loop
      vertex 18.7123 -26.7526 9.32206
      vertex 18.7123 -26.7076 9.32206
      vertex 18.6719 -26.7076 9.35781
    endloop
  endfacet
  facet normal 0 -1 0
    outer loop
      vertex 18.7463 -26.7526 9.2803
      vertex 18.7123 -26.7526 9.32206
      vertex 18.6391 -26.7526 9.27475
    endloop
  endfacet
  facet normal 0.774611 0 0.632438
    outer loop
      vertex 18.7123 -26.7526 9.32206
      vertex 18.7463 -26.7526 9.2803
      vertex 18.7123 -26.7076 9.32206
    endloop
  endfacet
  facet normal 0.774611 0 0.632438
    outer loop
      vertex 18.7463 -26.7526 9.2803
      vertex 18.7463 -26.7076 9.2803
      vertex 18.7123 -26.7076 9.32206
    endloop
  endfacet
endsolid Onshape
