solid Onshape
  facet normal -0.529936 0.848037 6.0887e-6
    outer loop
      vertex 17.6744 -32.3755 21.2786
      vertex 17.6678 -32.3797 21.2439
      vertex 17.6145 -32.413 21.2599
    endloop
  endfacet
  facet normal -0.529929 0.848042 4.12224e-5
    outer loop
      vertex 17.6678 -32.3797 21.2439
      vertex 17.6118 -32.4147 21.2183
      vertex 17.6145 -32.413 21.2599
    endloop
  endfacet
  facet normal 0.82709 0.516825 -0.220939
    outer loop
      vertex 17.6678 -32.3797 21.2439
      vertex 17.6744 -32.3755 21.2786
      vertex 17.7539 -32.5027 21.2786
    endloop
  endfacet
  facet normal 0.776967 0.485505 -0.40076
    outer loop
      vertex 17.6744 -32.3755 21.2786
      vertex 17.766 -32.4952 21.3111
      vertex 17.7539 -32.5027 21.2786
    endloop
  endfacet
  facet normal 0.84759 0.52962 -0.0330842
    outer loop
      vertex 17.6668 -32.3803 21.2084
      vertex 17.6678 -32.3797 21.2439
      vertex 17.7472 -32.5069 21.2439
    endloop
  endfacet
  facet normal 0.827087 0.516808 -0.220992
    outer loop
      vertex 17.6678 -32.3797 21.2439
      vertex 17.7539 -32.5027 21.2786
      vertex 17.7472 -32.5069 21.2439
    endloop
  endfacet
  facet normal -0.52992 0.848048 1.35982e-5
    outer loop
      vertex 17.6678 -32.3797 21.2439
      vertex 17.6668 -32.3803 21.2084
      vertex 17.6118 -32.4147 21.2183
    endloop
  endfacet
  facet normal -0.529924 0.848045 -2.06422e-5
    outer loop
      vertex 17.6668 -32.3803 21.2084
      vertex 17.6149 -32.4127 21.1768
      vertex 17.6118 -32.4147 21.2183
    endloop
  endfacet
  facet normal -0.844672 -0.527784 -0.089293
    outer loop
      vertex 17.6118 -32.4147 21.2183
      vertex 17.6149 -32.4127 21.1768
      vertex 17.6913 -32.5419 21.2183
    endloop
  endfacet
  facet normal -0.844653 -0.5278 -0.0893776
    outer loop
      vertex 17.6149 -32.4127 21.1768
      vertex 17.6944 -32.5399 21.1768
      vertex 17.6913 -32.5419 21.2183
    endloop
  endfacet
  facet normal -0.845595 -0.528389 0.0759908
    outer loop
      vertex 17.6145 -32.413 21.2599
      vertex 17.6118 -32.4147 21.2183
      vertex 17.6939 -32.5402 21.2599
    endloop
  endfacet
  facet normal -0.845602 -0.528365 0.0760756
    outer loop
      vertex 17.6118 -32.4147 21.2183
      vertex 17.6913 -32.5419 21.2183
      vertex 17.6939 -32.5402 21.2599
    endloop
  endfacet
  facet normal -0.823412 -0.514527 0.239279
    outer loop
      vertex 17.6229 -32.4077 21.3003
      vertex 17.6145 -32.413 21.2599
      vertex 17.7024 -32.5349 21.3003
    endloop
  endfacet
  facet normal -0.823412 -0.514527 0.239279
    outer loop
      vertex 17.6145 -32.413 21.2599
      vertex 17.6939 -32.5402 21.2599
      vertex 17.7024 -32.5349 21.3003
    endloop
  endfacet
  facet normal -0.529939 0.848036 1.66704e-5
    outer loop
      vertex 17.6145 -32.413 21.2599
      vertex 17.6229 -32.4077 21.3003
      vertex 17.6744 -32.3755 21.2786
    endloop
  endfacet
  facet normal -0.529926 0.848044 5.93531e-5
    outer loop
      vertex 17.6229 -32.4077 21.3003
      vertex 17.6865 -32.368 21.3111
      vertex 17.6744 -32.3755 21.2786
    endloop
  endfacet
  facet normal 0.837681 0.52344 0.155888
    outer loop
      vertex 17.6715 -32.3774 21.1734
      vertex 17.6668 -32.3803 21.2084
      vertex 17.7463 -32.5075 21.2084
    endloop
  endfacet
  facet normal 0.847586 0.529629 -0.0330398
    outer loop
      vertex 17.6668 -32.3803 21.2084
      vertex 17.7472 -32.5069 21.2439
      vertex 17.7463 -32.5075 21.2084
    endloop
  endfacet
  facet normal -0.529909 0.848055 -5.63427e-5
    outer loop
      vertex 17.6668 -32.3803 21.2084
      vertex 17.6715 -32.3774 21.1734
      vertex 17.6149 -32.4127 21.1768
    endloop
  endfacet
  facet normal -0.529908 0.848055 -5.0485e-5
    outer loop
      vertex 17.6715 -32.3774 21.1734
      vertex 17.6238 -32.4071 21.1365
      vertex 17.6149 -32.4127 21.1768
    endloop
  endfacet
  facet normal 0.776967 0.485505 -0.40076
    outer loop
      vertex 17.6744 -32.3755 21.2786
      vertex 17.6865 -32.368 21.3111
      vertex 17.766 -32.4952 21.3111
    endloop
  endfacet
  facet normal 0.698917 0.436734 -0.566373
    outer loop
      vertex 17.6865 -32.368 21.3111
      vertex 17.783 -32.4845 21.3403
      vertex 17.766 -32.4952 21.3111
    endloop
  endfacet
  facet normal 0.529967 -0.848018 7.69001e-5
    outer loop
      vertex 17.7472 -32.5069 21.2439
      vertex 17.7539 -32.5027 21.2786
      vertex 17.7024 -32.5349 21.3003
    endloop
  endfacet
  facet normal 0.52994 -0.848035 -1.14739e-5
    outer loop
      vertex 17.7539 -32.5027 21.2786
      vertex 17.7164 -32.5262 21.3386
      vertex 17.7024 -32.5349 21.3003
    endloop
  endfacet
  facet normal 0.529898 -0.848061 1.50503e-5
    outer loop
      vertex 17.7463 -32.5075 21.2084
      vertex 17.7472 -32.5069 21.2439
      vertex 17.6939 -32.5402 21.2599
    endloop
  endfacet
  facet normal 0.529894 -0.848064 -3.74203e-6
    outer loop
      vertex 17.7472 -32.5069 21.2439
      vertex 17.7024 -32.5349 21.3003
      vertex 17.6939 -32.5402 21.2599
    endloop
  endfacet
  facet normal 0.5299 -0.84806 -4.623e-5
    outer loop
      vertex 17.7539 -32.5027 21.2786
      vertex 17.766 -32.4952 21.3111
      vertex 17.7164 -32.5262 21.3386
    endloop
  endfacet
  facet normal 0.529905 -0.848057 -3.54306e-5
    outer loop
      vertex 17.766 -32.4952 21.3111
      vertex 17.7355 -32.5142 21.3736
      vertex 17.7164 -32.5262 21.3386
    endloop
  endfacet
  facet normal 0.529897 -0.848062 1.3882e-5
    outer loop
      vertex 17.6939 -32.5402 21.2599
      vertex 17.6913 -32.5419 21.2183
      vertex 17.7463 -32.5075 21.2084
    endloop
  endfacet
  facet normal 0.529891 -0.848066 -3.70021e-5
    outer loop
      vertex 17.6913 -32.5419 21.2183
      vertex 17.7509 -32.5046 21.1734
      vertex 17.7463 -32.5075 21.2084
    endloop
  endfacet
  facet normal -0.820641 -0.512796 -0.252168
    outer loop
      vertex 17.6149 -32.4127 21.1768
      vertex 17.6238 -32.4071 21.1365
      vertex 17.6944 -32.5399 21.1768
    endloop
  endfacet
  facet normal -0.820638 -0.512797 -0.252177
    outer loop
      vertex 17.6238 -32.4071 21.1365
      vertex 17.7033 -32.5343 21.1365
      vertex 17.6944 -32.5399 21.1768
    endloop
  endfacet
  facet normal 0.529892 -0.848065 -3.51162e-5
    outer loop
      vertex 17.6913 -32.5419 21.2183
      vertex 17.6944 -32.5399 21.1768
      vertex 17.7509 -32.5046 21.1734
    endloop
  endfacet
  facet normal 0.529891 -0.848066 -5.76834e-5
    outer loop
      vertex 17.6944 -32.5399 21.1768
      vertex 17.7033 -32.5343 21.1365
      vertex 17.7509 -32.5046 21.1734
    endloop
  endfacet
  facet normal 0.529912 -0.848052 -9.60041e-5
    outer loop
      vertex 17.7509 -32.5046 21.1734
      vertex 17.7033 -32.5343 21.1365
      vertex 17.7612 -32.4982 21.14
    endloop
  endfacet
  facet normal 0.529903 -0.848058 0.000115618
    outer loop
      vertex 17.7033 -32.5343 21.1365
      vertex 17.7177 -32.5253 21.0985
      vertex 17.7612 -32.4982 21.14
    endloop
  endfacet
  facet normal 0.529988 -0.848005 -7.73094e-6
    outer loop
      vertex 17.7612 -32.4982 21.14
      vertex 17.7177 -32.5253 21.0985
      vertex 17.7765 -32.4886 21.1094
    endloop
  endfacet
  facet normal 0.529987 -0.848006 1.74298e-6
    outer loop
      vertex 17.7177 -32.5253 21.0985
      vertex 17.7373 -32.5131 21.0638
      vertex 17.7765 -32.4886 21.1094
    endloop
  endfacet
  facet normal 0.529914 -0.848052 8.91006e-5
    outer loop
      vertex 17.7765 -32.4886 21.1094
      vertex 17.7373 -32.5131 21.0638
      vertex 17.7965 -32.4761 21.0829
    endloop
  endfacet
  facet normal 0.529944 -0.848033 -4.12992e-5
    outer loop
      vertex 17.7373 -32.5131 21.0638
      vertex 17.7614 -32.498 21.0333
      vertex 17.7965 -32.4761 21.0829
    endloop
  endfacet
  facet normal 0.529885 -0.84807 1.67274e-5
    outer loop
      vertex 17.7965 -32.4761 21.0829
      vertex 17.7614 -32.498 21.0333
      vertex 17.8204 -32.4612 21.0612
    endloop
  endfacet
  facet normal 0.529883 -0.848071 2.35636e-5
    outer loop
      vertex 17.7614 -32.498 21.0333
      vertex 17.7895 -32.4805 21.008
      vertex 17.8204 -32.4612 21.0612
    endloop
  endfacet
  facet normal 0.529929 -0.848042 -1.43347e-5
    outer loop
      vertex 17.8204 -32.4612 21.0612
      vertex 17.7895 -32.4805 21.008
      vertex 17.8473 -32.4444 21.0453
    endloop
  endfacet
  facet normal 0.529913 -0.848052 2.13066e-5
    outer loop
      vertex 17.7895 -32.4805 21.008
      vertex 17.8207 -32.461 20.9884
      vertex 17.8473 -32.4444 21.0453
    endloop
  endfacet
  facet normal 0.529928 -0.848043 1.14017e-5
    outer loop
      vertex 17.8473 -32.4444 21.0453
      vertex 17.8207 -32.461 20.9884
      vertex 17.8763 -32.4263 21.0356
    endloop
  endfacet
  facet normal 0.529953 -0.848027 -2.87561e-5
    outer loop
      vertex 17.8207 -32.461 20.9884
      vertex 17.8542 -32.4401 20.9752
      vertex 17.8763 -32.4263 21.0356
    endloop
  endfacet
  facet normal 0.529963 -0.848021 -3.41828e-5
    outer loop
      vertex 17.8763 -32.4263 21.0356
      vertex 17.8542 -32.4401 20.9752
      vertex 17.9063 -32.4075 21.0325
    endloop
  endfacet
  facet normal 0.529934 -0.848039 2.63142e-6
    outer loop
      vertex 17.8542 -32.4401 20.9752
      vertex 17.8891 -32.4183 20.9687
      vertex 17.9063 -32.4075 21.0325
    endloop
  endfacet
  facet normal 0.529902 -0.848059 1.45673e-5
    outer loop
      vertex 17.9063 -32.4075 21.0325
      vertex 17.8891 -32.4183 20.9687
      vertex 17.9244 -32.3962 20.969
    endloop
  endfacet
  facet normal -0.778714 -0.486596 0.396016
    outer loop
      vertex 17.6369 -32.399 21.3386
      vertex 17.6229 -32.4077 21.3003
      vertex 17.7164 -32.5262 21.3386
    endloop
  endfacet
  facet normal -0.778714 -0.486596 0.396016
    outer loop
      vertex 17.6229 -32.4077 21.3003
      vertex 17.7024 -32.5349 21.3003
      vertex 17.7164 -32.5262 21.3386
    endloop
  endfacet
  facet normal -0.529919 0.848049 4.22986e-7
    outer loop
      vertex 17.6229 -32.4077 21.3003
      vertex 17.6369 -32.399 21.3386
      vertex 17.6865 -32.368 21.3111
    endloop
  endfacet
  facet normal -0.52992 0.848048 -3.22137e-6
    outer loop
      vertex 17.6369 -32.399 21.3386
      vertex 17.7035 -32.3573 21.3403
      vertex 17.6865 -32.368 21.3111
    endloop
  endfacet
  facet normal 0.837667 0.523447 0.155943
    outer loop
      vertex 17.7463 -32.5075 21.2084
      vertex 17.7509 -32.5046 21.1734
      vertex 17.6715 -32.3774 21.1734
    endloop
  endfacet
  facet normal 0.797697 0.49847 0.339422
    outer loop
      vertex 17.7509 -32.5046 21.1734
      vertex 17.6817 -32.371 21.14
      vertex 17.6715 -32.3774 21.1734
    endloop
  endfacet
  facet normal -0.529906 0.848057 -5.49338e-5
    outer loop
      vertex 17.6715 -32.3774 21.1734
      vertex 17.6817 -32.371 21.14
      vertex 17.6238 -32.4071 21.1365
    endloop
  endfacet
  facet normal -0.529911 0.848053 7.22146e-5
    outer loop
      vertex 17.6817 -32.371 21.14
      vertex 17.6383 -32.3981 21.0985
      vertex 17.6238 -32.4071 21.1365
    endloop
  endfacet
  facet normal 0.529962 -0.848022 3.20269e-6
    outer loop
      vertex 17.766 -32.4952 21.3111
      vertex 17.783 -32.4845 21.3403
      vertex 17.7355 -32.5142 21.3736
    endloop
  endfacet
  facet normal 0.529972 -0.848015 2.29152e-5
    outer loop
      vertex 17.783 -32.4845 21.3403
      vertex 17.7593 -32.4993 21.4044
      vertex 17.7355 -32.5142 21.3736
    endloop
  endfacet
  facet normal 0.698904 0.436716 -0.566403
    outer loop
      vertex 17.6865 -32.368 21.3111
      vertex 17.7035 -32.3573 21.3403
      vertex 17.783 -32.4845 21.3403
    endloop
  endfacet
  facet normal 0.595852 0.372322 -0.711573
    outer loop
      vertex 17.7035 -32.3573 21.3403
      vertex 17.8045 -32.4711 21.3653
      vertex 17.783 -32.4845 21.3403
    endloop
  endfacet
  facet normal -0.712763 -0.445386 0.541849
    outer loop
      vertex 17.7164 -32.5262 21.3386
      vertex 17.7355 -32.5142 21.3736
      vertex 17.6369 -32.399 21.3386
    endloop
  endfacet
  facet normal -0.712761 -0.445382 0.541856
    outer loop
      vertex 17.7355 -32.5142 21.3736
      vertex 17.656 -32.387 21.3736
      vertex 17.6369 -32.399 21.3386
    endloop
  endfacet
  facet normal -0.774168 -0.483759 -0.408216
    outer loop
      vertex 17.6238 -32.4071 21.1365
      vertex 17.6383 -32.3981 21.0985
      vertex 17.7033 -32.5343 21.1365
    endloop
  endfacet
  facet normal -0.774194 -0.483758 -0.408169
    outer loop
      vertex 17.6383 -32.3981 21.0985
      vertex 17.7177 -32.5253 21.0985
      vertex 17.7033 -32.5343 21.1365
    endloop
  endfacet
  facet normal 0.79771 0.498469 0.339392
    outer loop
      vertex 17.7509 -32.5046 21.1734
      vertex 17.7612 -32.4982 21.14
      vertex 17.6817 -32.371 21.14
    endloop
  endfacet
  facet normal 0.729135 0.455619 0.51066
    outer loop
      vertex 17.7612 -32.4982 21.14
      vertex 17.6971 -32.3614 21.1094
      vertex 17.6817 -32.371 21.14
    endloop
  endfacet
  facet normal -0.529919 0.848048 -7.22644e-5
    outer loop
      vertex 17.6369 -32.399 21.3386
      vertex 17.656 -32.387 21.3736
      vertex 17.7035 -32.3573 21.3403
    endloop
  endfacet
  facet normal -0.529914 0.848052 -6.22599e-5
    outer loop
      vertex 17.656 -32.387 21.3736
      vertex 17.725 -32.3439 21.3653
      vertex 17.7035 -32.3573 21.3403
    endloop
  endfacet
  facet normal -0.529908 0.848055 6.38908e-5
    outer loop
      vertex 17.6817 -32.371 21.14
      vertex 17.6971 -32.3614 21.1094
      vertex 17.6578 -32.3859 21.0638
    endloop
  endfacet
  facet normal -0.529825 0.848107 -3.51931e-5
    outer loop
      vertex 17.6971 -32.3614 21.1094
      vertex 17.6819 -32.3708 21.0333
      vertex 17.6578 -32.3859 21.0638
    endloop
  endfacet
  facet normal 0.52988 -0.848073 -2.42094e-5
    outer loop
      vertex 17.783 -32.4845 21.3403
      vertex 17.8045 -32.4711 21.3653
      vertex 17.7593 -32.4993 21.4044
    endloop
  endfacet
  facet normal 0.529911 -0.848053 2.49264e-5
    outer loop
      vertex 17.8045 -32.4711 21.3653
      vertex 17.7871 -32.482 21.4302
      vertex 17.7593 -32.4993 21.4044
    endloop
  endfacet
  facet normal -0.627293 -0.391976 0.672947
    outer loop
      vertex 17.7355 -32.5142 21.3736
      vertex 17.7593 -32.4993 21.4044
      vertex 17.656 -32.387 21.3736
    endloop
  endfacet
  facet normal -0.627296 -0.39198 0.672942
    outer loop
      vertex 17.7593 -32.4993 21.4044
      vertex 17.6798 -32.3721 21.4044
      vertex 17.656 -32.387 21.3736
    endloop
  endfacet
  facet normal 0.595833 0.3723 -0.711601
    outer loop
      vertex 17.7035 -32.3573 21.3403
      vertex 17.725 -32.3439 21.3653
      vertex 17.8045 -32.4711 21.3653
    endloop
  endfacet
  facet normal 0.471341 0.294512 -0.831325
    outer loop
      vertex 17.725 -32.3439 21.3653
      vertex 17.8295 -32.4555 21.385
      vertex 17.8045 -32.4711 21.3653
    endloop
  endfacet
  facet normal 0.729135 0.455619 0.51066
    outer loop
      vertex 17.7612 -32.4982 21.14
      vertex 17.7765 -32.4886 21.1094
      vertex 17.6971 -32.3614 21.1094
    endloop
  endfacet
  facet normal 0.634435 0.396443 0.66357
    outer loop
      vertex 17.7765 -32.4886 21.1094
      vertex 17.717 -32.3489 21.0829
      vertex 17.6971 -32.3614 21.1094
    endloop
  endfacet
  facet normal -0.529905 0.848057 6.25078e-5
    outer loop
      vertex 17.6578 -32.3859 21.0638
      vertex 17.6383 -32.3981 21.0985
      vertex 17.6817 -32.371 21.14
    endloop
  endfacet
  facet normal -0.706576 -0.441506 -0.553013
    outer loop
      vertex 17.6383 -32.3981 21.0985
      vertex 17.6578 -32.3859 21.0638
      vertex 17.7177 -32.5253 21.0985
    endloop
  endfacet
  facet normal -0.706576 -0.441506 -0.553013
    outer loop
      vertex 17.6578 -32.3859 21.0638
      vertex 17.7373 -32.5131 21.0638
      vertex 17.7177 -32.5253 21.0985
    endloop
  endfacet
  facet normal -0.529905 0.848057 3.99857e-5
    outer loop
      vertex 17.656 -32.387 21.3736
      vertex 17.6798 -32.3721 21.4044
      vertex 17.725 -32.3439 21.3653
    endloop
  endfacet
  facet normal -0.529929 0.848042 1.87831e-6
    outer loop
      vertex 17.6798 -32.3721 21.4044
      vertex 17.7076 -32.3548 21.4302
      vertex 17.725 -32.3439 21.3653
    endloop
  endfacet
  facet normal -0.529913 0.848052 7.82357e-6
    outer loop
      vertex 17.725 -32.3439 21.3653
      vertex 17.7076 -32.3548 21.4302
      vertex 17.75 -32.3283 21.385
    endloop
  endfacet
  facet normal -0.529932 0.84804 -1.68631e-5
    outer loop
      vertex 17.7076 -32.3548 21.4302
      vertex 17.7386 -32.3354 21.4502
      vertex 17.75 -32.3283 21.385
    endloop
  endfacet
  facet normal -0.529908 0.848055 -1.11089e-5
    outer loop
      vertex 17.75 -32.3283 21.385
      vertex 17.7386 -32.3354 21.4502
      vertex 17.7777 -32.311 21.3989
    endloop
  endfacet
  facet normal -0.52991 0.848054 -1.31819e-5
    outer loop
      vertex 17.7386 -32.3354 21.4502
      vertex 17.7719 -32.3146 21.464
      vertex 17.7777 -32.311 21.3989
    endloop
  endfacet
  facet normal -0.529924 0.848045 -1.49266e-5
    outer loop
      vertex 17.7777 -32.311 21.3989
      vertex 17.7719 -32.3146 21.464
      vertex 17.8072 -32.2925 21.4063
    endloop
  endfacet
  facet normal -0.529862 0.848084 3.79213e-5
    outer loop
      vertex 17.7719 -32.3146 21.464
      vertex 17.8067 -32.2928 21.471
      vertex 17.8072 -32.2925 21.4063
    endloop
  endfacet
  facet normal -0.619659 -0.387196 -0.682716
    outer loop
      vertex 17.6578 -32.3859 21.0638
      vertex 17.6819 -32.3708 21.0333
      vertex 17.7373 -32.5131 21.0638
    endloop
  endfacet
  facet normal -0.619609 -0.387188 -0.682767
    outer loop
      vertex 17.6819 -32.3708 21.0333
      vertex 17.7614 -32.498 21.0333
      vertex 17.7373 -32.5131 21.0638
    endloop
  endfacet
  facet normal -0.529854 0.848089 -2.70566e-5
    outer loop
      vertex 17.6971 -32.3614 21.1094
      vertex 17.717 -32.3489 21.0829
      vertex 17.6819 -32.3708 21.0333
    endloop
  endfacet
  facet normal -0.529922 0.848046 4.00328e-5
    outer loop
      vertex 17.717 -32.3489 21.0829
      vertex 17.71 -32.3533 21.008
      vertex 17.6819 -32.3708 21.0333
    endloop
  endfacet
  facet normal 0.634435 0.396443 0.66357
    outer loop
      vertex 17.7765 -32.4886 21.1094
      vertex 17.7965 -32.4761 21.0829
      vertex 17.717 -32.3489 21.0829
    endloop
  endfacet
  facet normal 0.516963 0.323037 0.792714
    outer loop
      vertex 17.7965 -32.4761 21.0829
      vertex 17.7409 -32.334 21.0612
      vertex 17.717 -32.3489 21.0829
    endloop
  endfacet
  facet normal 0.529972 -0.848015 4.77298e-5
    outer loop
      vertex 17.8045 -32.4711 21.3653
      vertex 17.8295 -32.4555 21.385
      vertex 17.7871 -32.482 21.4302
    endloop
  endfacet
  facet normal 0.529938 -0.848036 3.26327e-6
    outer loop
      vertex 17.8295 -32.4555 21.385
      vertex 17.818 -32.4626 21.4502
      vertex 17.7871 -32.482 21.4302
    endloop
  endfacet
  facet normal -0.524698 -0.327869 0.785617
    outer loop
      vertex 17.7593 -32.4993 21.4044
      vertex 17.7871 -32.482 21.4302
      vertex 17.6798 -32.3721 21.4044
    endloop
  endfacet
  facet normal -0.524698 -0.327869 0.785617
    outer loop
      vertex 17.7871 -32.482 21.4302
      vertex 17.7076 -32.3548 21.4302
      vertex 17.6798 -32.3721 21.4044
    endloop
  endfacet
  facet normal 0.471358 0.294532 -0.831308
    outer loop
      vertex 17.725 -32.3439 21.3653
      vertex 17.75 -32.3283 21.385
      vertex 17.8295 -32.4555 21.385
    endloop
  endfacet
  facet normal 0.329989 0.206196 -0.92119
    outer loop
      vertex 17.75 -32.3283 21.385
      vertex 17.8572 -32.4382 21.3989
      vertex 17.8295 -32.4555 21.385
    endloop
  endfacet
  facet normal -0.515729 -0.322274 -0.793828
    outer loop
      vertex 17.6819 -32.3708 21.0333
      vertex 17.71 -32.3533 21.008
      vertex 17.7614 -32.498 21.0333
    endloop
  endfacet
  facet normal -0.515753 -0.322279 -0.793811
    outer loop
      vertex 17.71 -32.3533 21.008
      vertex 17.7895 -32.4805 21.008
      vertex 17.7614 -32.498 21.0333
    endloop
  endfacet
  facet normal -0.529969 0.848017 4.6147e-5
    outer loop
      vertex 17.717 -32.3489 21.0829
      vertex 17.7409 -32.334 21.0612
      vertex 17.71 -32.3533 21.008
    endloop
  endfacet
  facet normal -0.529906 0.848057 -4.96816e-6
    outer loop
      vertex 17.7409 -32.334 21.0612
      vertex 17.7412 -32.3338 20.9884
      vertex 17.71 -32.3533 21.008
    endloop
  endfacet
  facet normal 0.529913 -0.848052 -1.65321e-6
    outer loop
      vertex 17.8295 -32.4555 21.385
      vertex 17.8572 -32.4382 21.3989
      vertex 17.8514 -32.4418 21.464
    endloop
  endfacet
  facet normal 0.529942 -0.848034 1.96049e-6
    outer loop
      vertex 17.8572 -32.4382 21.3989
      vertex 17.8862 -32.42 21.471
      vertex 17.8514 -32.4418 21.464
    endloop
  endfacet
  facet normal -0.407715 -0.25477 0.876847
    outer loop
      vertex 17.7871 -32.482 21.4302
      vertex 17.818 -32.4626 21.4502
      vertex 17.7076 -32.3548 21.4302
    endloop
  endfacet
  facet normal -0.407715 -0.25477 0.876847
    outer loop
      vertex 17.818 -32.4626 21.4502
      vertex 17.7386 -32.3354 21.4502
      vertex 17.7076 -32.3548 21.4302
    endloop
  endfacet
  facet normal 0.329989 0.206196 -0.92119
    outer loop
      vertex 17.75 -32.3283 21.385
      vertex 17.7777 -32.311 21.3989
      vertex 17.8572 -32.4382 21.3989
    endloop
  endfacet
  facet normal 0.176809 0.11048 -0.978025
    outer loop
      vertex 17.7777 -32.311 21.3989
      vertex 17.8867 -32.4198 21.4063
      vertex 17.8572 -32.4382 21.3989
    endloop
  endfacet
  facet normal -0.397818 -0.248586 -0.883145
    outer loop
      vertex 17.71 -32.3533 21.008
      vertex 17.7412 -32.3338 20.9884
      vertex 17.7895 -32.4805 21.008
    endloop
  endfacet
  facet normal -0.397818 -0.248586 -0.883145
    outer loop
      vertex 17.7412 -32.3338 20.9884
      vertex 17.8207 -32.461 20.9884
      vertex 17.7895 -32.4805 21.008
    endloop
  endfacet
  facet normal 0.516968 0.323039 0.79271
    outer loop
      vertex 17.7965 -32.4761 21.0829
      vertex 17.8204 -32.4612 21.0612
      vertex 17.7409 -32.334 21.0612
    endloop
  endfacet
  facet normal 0.38091 0.23802 0.893451
    outer loop
      vertex 17.8204 -32.4612 21.0612
      vertex 17.7678 -32.3172 21.0453
      vertex 17.7409 -32.334 21.0612
    endloop
  endfacet
  facet normal -0.529911 0.848053 -4.9963e-6
    outer loop
      vertex 17.7409 -32.334 21.0612
      vertex 17.7678 -32.3172 21.0453
      vertex 17.7412 -32.3338 20.9884
    endloop
  endfacet
  facet normal -0.529954 0.848026 2.29957e-5
    outer loop
      vertex 17.7678 -32.3172 21.0453
      vertex 17.7747 -32.3129 20.9752
      vertex 17.7412 -32.3338 20.9884
    endloop
  endfacet
  facet normal 0.529957 -0.848025 -6.51191e-6
    outer loop
      vertex 17.8572 -32.4382 21.3989
      vertex 17.8867 -32.4198 21.4063
      vertex 17.8862 -32.42 21.471
    endloop
  endfacet
  facet normal 0.529915 -0.848051 -2.42807e-6
    outer loop
      vertex 17.8514 -32.4418 21.464
      vertex 17.818 -32.4626 21.4502
      vertex 17.8295 -32.4555 21.385
    endloop
  endfacet
  facet normal -0.279652 -0.174747 0.944065
    outer loop
      vertex 17.818 -32.4626 21.4502
      vertex 17.8514 -32.4418 21.464
      vertex 17.7386 -32.3354 21.4502
    endloop
  endfacet
  facet normal -0.279652 -0.174747 0.944065
    outer loop
      vertex 17.8514 -32.4418 21.464
      vertex 17.7719 -32.3146 21.464
      vertex 17.7386 -32.3354 21.4502
    endloop
  endfacet
  facet normal -0.143917 -0.0899296 0.985495
    outer loop
      vertex 17.8514 -32.4418 21.464
      vertex 17.8862 -32.42 21.471
      vertex 17.7719 -32.3146 21.464
    endloop
  endfacet
  facet normal -0.143918 -0.0899308 0.985495
    outer loop
      vertex 17.8862 -32.42 21.471
      vertex 17.8067 -32.2928 21.471
      vertex 17.7719 -32.3146 21.464
    endloop
  endfacet
  facet normal 0.17683 0.110502 -0.978019
    outer loop
      vertex 17.7777 -32.311 21.3989
      vertex 17.8072 -32.2925 21.4063
      vertex 17.8867 -32.4198 21.4063
    endloop
  endfacet
  facet normal 0.380928 0.238026 0.893442
    outer loop
      vertex 17.8204 -32.4612 21.0612
      vertex 17.8473 -32.4444 21.0453
      vertex 17.7678 -32.3172 21.0453
    endloop
  endfacet
  facet normal 0.231275 0.144514 0.962095
    outer loop
      vertex 17.8473 -32.4444 21.0453
      vertex 17.7968 -32.299 21.0356
      vertex 17.7678 -32.3172 21.0453
    endloop
  endfacet
  facet normal -0.268996 -0.168088 -0.94836
    outer loop
      vertex 17.7412 -32.3338 20.9884
      vertex 17.7747 -32.3129 20.9752
      vertex 17.8207 -32.461 20.9884
    endloop
  endfacet
  facet normal -0.268996 -0.168088 -0.94836
    outer loop
      vertex 17.7747 -32.3129 20.9752
      vertex 17.8542 -32.4401 20.9752
      vertex 17.8207 -32.461 20.9884
    endloop
  endfacet
  facet normal 0.848005 0.529923 0.00829704
    outer loop
      vertex 17.8867 -32.4198 21.4063
      vertex 17.8072 -32.2925 21.4063
      vertex 17.8067 -32.2928 21.471
    endloop
  endfacet
  facet normal 0.848016 0.529905 0.00834581
    outer loop
      vertex 17.8862 -32.42 21.471
      vertex 17.8867 -32.4198 21.4063
      vertex 17.8067 -32.2928 21.471
    endloop
  endfacet
  facet normal -0.529944 0.848033 2.43863e-5
    outer loop
      vertex 17.7678 -32.3172 21.0453
      vertex 17.7968 -32.299 21.0356
      vertex 17.7747 -32.3129 20.9752
    endloop
  endfacet
  facet normal -0.52987 0.848079 -1.30951e-5
    outer loop
      vertex 17.7968 -32.299 21.0356
      vertex 17.8096 -32.2911 20.9687
      vertex 17.7747 -32.3129 20.9752
    endloop
  endfacet
  facet normal 0.231264 0.14451 0.962099
    outer loop
      vertex 17.8473 -32.4444 21.0453
      vertex 17.8763 -32.4263 21.0356
      vertex 17.7968 -32.299 21.0356
    endloop
  endfacet
  facet normal 0.0732659 0.0457818 0.996261
    outer loop
      vertex 17.8763 -32.4263 21.0356
      vertex 17.8268 -32.2803 21.0325
      vertex 17.7968 -32.299 21.0356
    endloop
  endfacet
  facet normal -0.132735 -0.0829425 -0.987675
    outer loop
      vertex 17.7747 -32.3129 20.9752
      vertex 17.8096 -32.2911 20.9687
      vertex 17.8542 -32.4401 20.9752
    endloop
  endfacet
  facet normal -0.132728 -0.0829403 -0.987676
    outer loop
      vertex 17.8096 -32.2911 20.9687
      vertex 17.8891 -32.4183 20.9687
      vertex 17.8542 -32.4401 20.9752
    endloop
  endfacet
  facet normal -0.529891 0.848065 -1.86664e-5
    outer loop
      vertex 17.7968 -32.299 21.0356
      vertex 17.8268 -32.2803 21.0325
      vertex 17.8096 -32.2911 20.9687
    endloop
  endfacet
  facet normal -0.529947 0.848031 2.06479e-6
    outer loop
      vertex 17.8268 -32.2803 21.0325
      vertex 17.8449 -32.269 20.969
      vertex 17.8096 -32.2911 20.9687
    endloop
  endfacet
  facet normal 0.0732612 0.0457802 0.996261
    outer loop
      vertex 17.8763 -32.4263 21.0356
      vertex 17.9063 -32.4075 21.0325
      vertex 17.8268 -32.2803 21.0325
    endloop
  endfacet
  facet normal -0.0873157 -0.0545627 0.994685
    outer loop
      vertex 17.9063 -32.4075 21.0325
      vertex 17.8567 -32.2616 21.0362
      vertex 17.8268 -32.2803 21.0325
    endloop
  endfacet
  facet normal 0.0070515 0.00440641 -0.999965
    outer loop
      vertex 17.8096 -32.2911 20.9687
      vertex 17.8449 -32.269 20.969
      vertex 17.8891 -32.4183 20.9687
    endloop
  endfacet
  facet normal 0.00705221 0.00440662 -0.999965
    outer loop
      vertex 17.8449 -32.269 20.969
      vertex 17.9244 -32.3962 20.969
      vertex 17.8891 -32.4183 20.9687
    endloop
  endfacet
  facet normal -0.529952 0.848028 1.43576e-7
    outer loop
      vertex 17.8268 -32.2803 21.0325
      vertex 17.8567 -32.2616 21.0362
      vertex 17.8449 -32.269 20.969
    endloop
  endfacet
  facet normal -0.529903 0.848058 -1.16782e-5
    outer loop
      vertex 17.8567 -32.2616 21.0362
      vertex 17.8797 -32.2472 20.9763
      vertex 17.8449 -32.269 20.969
    endloop
  endfacet
  facet normal 0.529825 -0.848107 -1.61638e-5
    outer loop
      vertex 17.9362 -32.3888 21.0362
      vertex 17.9063 -32.4075 21.0325
      vertex 17.9244 -32.3962 20.969
    endloop
  endfacet
  facet normal -0.0873313 -0.054568 0.994684
    outer loop
      vertex 17.9063 -32.4075 21.0325
      vertex 17.9362 -32.3888 21.0362
      vertex 17.8567 -32.2616 21.0362
    endloop
  endfacet
  facet normal -0.244802 -0.152962 0.957431
    outer loop
      vertex 17.9362 -32.3888 21.0362
      vertex 17.8856 -32.2436 21.0464
      vertex 17.8567 -32.2616 21.0362
    endloop
  endfacet
  facet normal 0.146691 0.091661 -0.984926
    outer loop
      vertex 17.8449 -32.269 20.969
      vertex 17.8797 -32.2472 20.9763
      vertex 17.9244 -32.3962 20.969
    endloop
  endfacet
  facet normal 0.146677 0.0916568 -0.984929
    outer loop
      vertex 17.8797 -32.2472 20.9763
      vertex 17.9592 -32.3744 20.9763
      vertex 17.9244 -32.3962 20.969
    endloop
  endfacet
  facet normal -0.529911 0.848053 2.11854e-5
    outer loop
      vertex 17.8567 -32.2616 21.0362
      vertex 17.8856 -32.2436 21.0464
      vertex 17.913 -32.2264 20.9901
    endloop
  endfacet
  facet normal -0.529867 0.848081 5.10467e-5
    outer loop
      vertex 17.8856 -32.2436 21.0464
      vertex 17.9439 -32.2071 21.0103
      vertex 17.913 -32.2264 20.9901
    endloop
  endfacet
  facet normal 0.529957 -0.848024 -4.86014e-5
    outer loop
      vertex 17.9244 -32.3962 20.969
      vertex 17.9592 -32.3744 20.9763
      vertex 17.9362 -32.3888 21.0362
    endloop
  endfacet
  facet normal 0.52997 -0.848016 -4.16817e-5
    outer loop
      vertex 17.9592 -32.3744 20.9763
      vertex 17.9651 -32.3708 21.0464
      vertex 17.9362 -32.3888 21.0362
    endloop
  endfacet
  facet normal -0.244775 -0.152953 0.95744
    outer loop
      vertex 17.9362 -32.3888 21.0362
      vertex 17.9651 -32.3708 21.0464
      vertex 17.8856 -32.2436 21.0464
    endloop
  endfacet
  facet normal -0.393468 -0.245867 0.885851
    outer loop
      vertex 17.9651 -32.3708 21.0464
      vertex 17.9123 -32.2269 21.0629
      vertex 17.8856 -32.2436 21.0464
    endloop
  endfacet
  facet normal -0.529942 0.848034 -3.24558e-5
    outer loop
      vertex 17.913 -32.2264 20.9901
      vertex 17.8797 -32.2472 20.9763
      vertex 17.8567 -32.2616 21.0362
    endloop
  endfacet
  facet normal 0.282299 0.176406 -0.942968
    outer loop
      vertex 17.8797 -32.2472 20.9763
      vertex 17.913 -32.2264 20.9901
      vertex 17.9592 -32.3744 20.9763
    endloop
  endfacet
  facet normal 0.282314 0.17641 -0.942963
    outer loop
      vertex 17.913 -32.2264 20.9901
      vertex 17.9925 -32.3536 20.9901
      vertex 17.9592 -32.3744 20.9763
    endloop
  endfacet
  facet normal 0.410215 0.256332 -0.875225
    outer loop
      vertex 17.913 -32.2264 20.9901
      vertex 17.9439 -32.2071 21.0103
      vertex 17.9925 -32.3536 20.9901
    endloop
  endfacet
  facet normal 0.410194 0.256326 -0.875236
    outer loop
      vertex 17.9439 -32.2071 21.0103
      vertex 18.0234 -32.3343 21.0103
      vertex 17.9925 -32.3536 20.9901
    endloop
  endfacet
  facet normal -0.529931 0.848041 -9.31545e-5
    outer loop
      vertex 17.8856 -32.2436 21.0464
      vertex 17.9123 -32.2269 21.0629
      vertex 17.9439 -32.2071 21.0103
    endloop
  endfacet
  facet normal -0.529918 0.848049 -8.22862e-5
    outer loop
      vertex 17.9123 -32.2269 21.0629
      vertex 17.9716 -32.1898 21.0362
      vertex 17.9439 -32.2071 21.0103
    endloop
  endfacet
  facet normal 0.529894 -0.848064 -3.27803e-5
    outer loop
      vertex 17.9592 -32.3744 20.9763
      vertex 17.9925 -32.3536 20.9901
      vertex 17.9651 -32.3708 21.0464
    endloop
  endfacet
  facet normal 0.529945 -0.848032 1.91841e-6
    outer loop
      vertex 17.9925 -32.3536 20.9901
      vertex 17.9917 -32.3541 21.0629
      vertex 17.9651 -32.3708 21.0464
    endloop
  endfacet
  facet normal -0.393449 -0.245861 0.885861
    outer loop
      vertex 17.9651 -32.3708 21.0464
      vertex 17.9917 -32.3541 21.0629
      vertex 17.9123 -32.2269 21.0629
    endloop
  endfacet
  facet normal -0.528069 -0.329983 0.782467
    outer loop
      vertex 17.9917 -32.3541 21.0629
      vertex 17.9358 -32.2122 21.085
      vertex 17.9123 -32.2269 21.0629
    endloop
  endfacet
  facet normal 0.526864 0.329232 -0.783595
    outer loop
      vertex 17.9439 -32.2071 21.0103
      vertex 17.9716 -32.1898 21.0362
      vertex 18.0234 -32.3343 21.0103
    endloop
  endfacet
  facet normal 0.526907 0.329242 -0.783562
    outer loop
      vertex 17.9716 -32.1898 21.0362
      vertex 18.0511 -32.317 21.0362
      vertex 18.0234 -32.3343 21.0103
    endloop
  endfacet
  facet normal 0.529916 -0.84805 1.48818e-6
    outer loop
      vertex 17.9925 -32.3536 20.9901
      vertex 18.0234 -32.3343 21.0103
      vertex 17.9917 -32.3541 21.0629
    endloop
  endfacet
  facet normal 0.529899 -0.848061 -1.24933e-5
    outer loop
      vertex 18.0234 -32.3343 21.0103
      vertex 18.0153 -32.3394 21.085
      vertex 17.9917 -32.3541 21.0629
    endloop
  endfacet
  facet normal -0.529913 0.848052 -6.55173e-5
    outer loop
      vertex 17.9123 -32.2269 21.0629
      vertex 17.9358 -32.2122 21.085
      vertex 17.9716 -32.1898 21.0362
    endloop
  endfacet
  facet normal -0.529858 0.848086 -9.78282e-6
    outer loop
      vertex 17.9358 -32.2122 21.085
      vertex 17.9953 -32.175 21.0671
      vertex 17.9716 -32.1898 21.0362
    endloop
  endfacet
  facet normal -0.528118 -0.329996 0.782428
    outer loop
      vertex 17.9917 -32.3541 21.0629
      vertex 18.0153 -32.3394 21.085
      vertex 17.9358 -32.2122 21.085
    endloop
  endfacet
  facet normal -0.643705 -0.402221 0.651047
    outer loop
      vertex 18.0153 -32.3394 21.085
      vertex 17.9554 -32.1999 21.112
      vertex 17.9358 -32.2122 21.085
    endloop
  endfacet
  facet normal 0.529923 -0.848046 -8.87016e-6
    outer loop
      vertex 18.0234 -32.3343 21.0103
      vertex 18.0511 -32.317 21.0362
      vertex 18.0153 -32.3394 21.085
    endloop
  endfacet
  facet normal 0.529886 -0.848069 -4.66865e-5
    outer loop
      vertex 18.0511 -32.317 21.0362
      vertex 18.0349 -32.3271 21.112
      vertex 18.0153 -32.3394 21.085
    endloop
  endfacet
  facet normal 0.629207 0.393164 -0.670463
    outer loop
      vertex 17.9716 -32.1898 21.0362
      vertex 17.9953 -32.175 21.0671
      vertex 18.0511 -32.317 21.0362
    endloop
  endfacet
  facet normal 0.629161 0.393157 -0.67051
    outer loop
      vertex 17.9953 -32.175 21.0671
      vertex 18.0748 -32.3022 21.0671
      vertex 18.0511 -32.317 21.0362
    endloop
  endfacet
  facet normal -0.529853 0.84809 1.341e-5
    outer loop
      vertex 17.9358 -32.2122 21.085
      vertex 17.9554 -32.1999 21.112
      vertex 17.9953 -32.175 21.0671
    endloop
  endfacet
  facet normal -0.529887 0.848068 -2.84374e-5
    outer loop
      vertex 17.9554 -32.1999 21.112
      vertex 18.0144 -32.1631 21.1022
      vertex 17.9953 -32.175 21.0671
    endloop
  endfacet
  facet normal -0.529808 0.848118 2.32137e-5
    outer loop
      vertex 17.8707 -32.2529 21.3998
      vertex 17.8411 -32.2714 21.4066
      vertex 17.8407 -32.2716 21.4714
    endloop
  endfacet
  facet normal -0.16299 -0.101849 -0.981357
    outer loop
      vertex 17.8411 -32.2714 21.4066
      vertex 17.8707 -32.2529 21.3998
      vertex 17.9502 -32.3801 21.3998
    endloop
  endfacet
  facet normal -0.316947 -0.198052 -0.927534
    outer loop
      vertex 17.8707 -32.2529 21.3998
      vertex 17.9781 -32.3626 21.3865
      vertex 17.9502 -32.3801 21.3998
    endloop
  endfacet
  facet normal -0.162989 -0.101847 -0.981357
    outer loop
      vertex 17.9206 -32.3986 21.4066
      vertex 17.8411 -32.2714 21.4066
      vertex 17.9502 -32.3801 21.3998
    endloop
  endfacet
  facet normal -0.848018 -0.529902 -0.00832119
    outer loop
      vertex 17.8411 -32.2714 21.4066
      vertex 17.9206 -32.3986 21.4066
      vertex 17.9201 -32.3988 21.4714
    endloop
  endfacet
  facet normal -0.848018 -0.529902 -0.00832119
    outer loop
      vertex 17.8407 -32.2716 21.4714
      vertex 17.8411 -32.2714 21.4066
      vertex 17.9201 -32.3988 21.4714
    endloop
  endfacet
  facet normal 0.130008 0.0812384 0.988179
    outer loop
      vertex 17.8407 -32.2716 21.4714
      vertex 17.9201 -32.3988 21.4714
      vertex 17.9551 -32.377 21.465
    endloop
  endfacet
  facet normal 0.129999 0.0812285 0.988181
    outer loop
      vertex 17.8756 -32.2498 21.465
      vertex 17.8407 -32.2716 21.4714
      vertex 17.9551 -32.377 21.465
    endloop
  endfacet
  facet normal -0.529932 0.84804 -4.93685e-5
    outer loop
      vertex 17.8407 -32.2716 21.4714
      vertex 17.8756 -32.2498 21.465
      vertex 17.8707 -32.2529 21.3998
    endloop
  endfacet
  facet normal -0.529993 0.848002 -4.29789e-5
    outer loop
      vertex 17.8756 -32.2498 21.465
      vertex 17.8986 -32.2354 21.3865
      vertex 17.8707 -32.2529 21.3998
    endloop
  endfacet
  facet normal -0.316933 -0.198038 -0.927542
    outer loop
      vertex 17.8707 -32.2529 21.3998
      vertex 17.8986 -32.2354 21.3865
      vertex 17.9781 -32.3626 21.3865
    endloop
  endfacet
  facet normal -0.459582 -0.287173 -0.840426
    outer loop
      vertex 17.8986 -32.2354 21.3865
      vertex 18.0034 -32.3468 21.3673
      vertex 17.9781 -32.3626 21.3865
    endloop
  endfacet
  facet normal 0.529878 -0.848074 -2.25235e-5
    outer loop
      vertex 17.9201 -32.3988 21.4714
      vertex 17.9206 -32.3986 21.4066
      vertex 17.9551 -32.377 21.465
    endloop
  endfacet
  facet normal 0.529905 -0.848057 -4.46779e-5
    outer loop
      vertex 17.9206 -32.3986 21.4066
      vertex 17.9502 -32.3801 21.3998
      vertex 17.9551 -32.377 21.465
    endloop
  endfacet
  facet normal 0.52991 -0.848054 -4.52047e-5
    outer loop
      vertex 17.9551 -32.377 21.465
      vertex 17.9502 -32.3801 21.3998
      vertex 17.9886 -32.3561 21.4519
    endloop
  endfacet
  facet normal 0.529889 -0.848067 -2.37497e-5
    outer loop
      vertex 17.9502 -32.3801 21.3998
      vertex 17.9781 -32.3626 21.3865
      vertex 17.9886 -32.3561 21.4519
    endloop
  endfacet
  facet normal 0.529955 -0.848026 -3.8374e-5
    outer loop
      vertex 17.9886 -32.3561 21.4519
      vertex 17.9781 -32.3626 21.3865
      vertex 18.0199 -32.3365 21.4325
    endloop
  endfacet
  facet normal 0.529919 -0.848049 7.01624e-6
    outer loop
      vertex 17.9781 -32.3626 21.3865
      vertex 18.0034 -32.3468 21.3673
      vertex 18.0199 -32.3365 21.4325
    endloop
  endfacet
  facet normal 0.529955 -0.848026 -5.71028e-6
    outer loop
      vertex 18.0199 -32.3365 21.4325
      vertex 18.0034 -32.3468 21.3673
      vertex 18.048 -32.319 21.4072
    endloop
  endfacet
  facet normal 0.52991 -0.848054 6.39343e-5
    outer loop
      vertex 18.0034 -32.3468 21.3673
      vertex 18.0722 -32.3038 21.3769
      vertex 18.048 -32.319 21.4072
    endloop
  endfacet
  facet normal 0.26631 0.166405 0.949415
    outer loop
      vertex 17.9091 -32.2289 21.4519
      vertex 17.8756 -32.2498 21.465
      vertex 17.9886 -32.3561 21.4519
    endloop
  endfacet
  facet normal 0.266302 0.166396 0.949419
    outer loop
      vertex 17.8756 -32.2498 21.465
      vertex 17.9551 -32.377 21.465
      vertex 17.9886 -32.3561 21.4519
    endloop
  endfacet
  facet normal -0.529951 0.848028 -2.57849e-5
    outer loop
      vertex 17.8756 -32.2498 21.465
      vertex 17.9091 -32.2289 21.4519
      vertex 17.8986 -32.2354 21.3865
    endloop
  endfacet
  facet normal -0.529848 0.848093 -4.88252e-5
    outer loop
      vertex 17.9091 -32.2289 21.4519
      vertex 17.9404 -32.2093 21.4325
      vertex 17.8986 -32.2354 21.3865
    endloop
  endfacet
  facet normal -0.529956 0.848025 8.80012e-5
    outer loop
      vertex 17.8986 -32.2354 21.3865
      vertex 17.9404 -32.2093 21.4325
      vertex 17.9239 -32.2196 21.3673
    endloop
  endfacet
  facet normal -0.529912 0.848053 7.23514e-5
    outer loop
      vertex 17.9404 -32.2093 21.4325
      vertex 17.9685 -32.1918 21.4072
      vertex 17.9239 -32.2196 21.3673
    endloop
  endfacet
  facet normal -0.529844 0.848095 -3.35512e-5
    outer loop
      vertex 17.9239 -32.2196 21.3673
      vertex 17.9685 -32.1918 21.4072
      vertex 17.9457 -32.206 21.3427
    endloop
  endfacet
  facet normal -0.529936 0.848038 1.17059e-5
    outer loop
      vertex 17.9685 -32.1918 21.4072
      vertex 17.9927 -32.1766 21.3769
      vertex 17.9457 -32.206 21.3427
    endloop
  endfacet
  facet normal -0.529938 0.848036 1.6812e-5
    outer loop
      vertex 17.9457 -32.206 21.3427
      vertex 17.9927 -32.1766 21.3769
      vertex 17.9632 -32.1951 21.3138
    endloop
  endfacet
  facet normal -0.529916 0.84805 2.47846e-6
    outer loop
      vertex 17.9927 -32.1766 21.3769
      vertex 18.0123 -32.1644 21.3423
      vertex 17.9632 -32.1951 21.3138
    endloop
  endfacet
  facet normal -0.529912 0.848053 -8.06588e-6
    outer loop
      vertex 17.9632 -32.1951 21.3138
      vertex 18.0123 -32.1644 21.3423
      vertex 17.9757 -32.1873 21.2815
    endloop
  endfacet
  facet normal -0.529921 0.848047 -2.3795e-7
    outer loop
      vertex 18.0123 -32.1644 21.3423
      vertex 18.0269 -32.1553 21.3043
      vertex 17.9757 -32.1873 21.2815
    endloop
  endfacet
  facet normal -0.529924 0.848045 9.98953e-6
    outer loop
      vertex 17.9757 -32.1873 21.2815
      vertex 18.0269 -32.1553 21.3043
      vertex 17.9828 -32.1828 21.247
    endloop
  endfacet
  facet normal -0.529948 0.84803 3.54009e-5
    outer loop
      vertex 18.0269 -32.1553 21.3043
      vertex 18.0359 -32.1496 21.264
      vertex 17.9828 -32.1828 21.247
    endloop
  endfacet
  facet normal -0.529936 0.848038 -1.85629e-5
    outer loop
      vertex 17.9828 -32.1828 21.247
      vertex 18.0359 -32.1496 21.264
      vertex 17.9843 -32.1819 21.2115
    endloop
  endfacet
  facet normal -0.52995 0.848029 6.26293e-7
    outer loop
      vertex 18.0359 -32.1496 21.264
      vertex 18.0392 -32.1476 21.2225
      vertex 17.9843 -32.1819 21.2115
    endloop
  endfacet
  facet normal -0.529962 0.848022 8.36683e-5
    outer loop
      vertex 17.9843 -32.1819 21.2115
      vertex 18.0392 -32.1476 21.2225
      vertex 17.9801 -32.1845 21.1764
    endloop
  endfacet
  facet normal -0.529908 0.848055 -1.2594e-5
    outer loop
      vertex 18.0392 -32.1476 21.2225
      vertex 18.0366 -32.1492 21.181
      vertex 17.9801 -32.1845 21.1764
    endloop
  endfacet
  facet normal -0.529904 0.848058 -7.59697e-5
    outer loop
      vertex 17.9801 -32.1845 21.1764
      vertex 18.0366 -32.1492 21.181
      vertex 18.0283 -32.1544 21.1405
    endloop
  endfacet
  facet normal -0.459564 -0.287154 -0.840442
    outer loop
      vertex 17.8986 -32.2354 21.3865
      vertex 17.9239 -32.2196 21.3673
      vertex 18.0034 -32.3468 21.3673
    endloop
  endfacet
  facet normal -0.585721 -0.365981 -0.72318
    outer loop
      vertex 17.9239 -32.2196 21.3673
      vertex 18.0252 -32.3332 21.3427
      vertex 18.0034 -32.3468 21.3673
    endloop
  endfacet
  facet normal 0.395285 0.246995 0.884727
    outer loop
      vertex 17.9886 -32.3561 21.4519
      vertex 18.0199 -32.3365 21.4325
      vertex 17.9091 -32.2289 21.4519
    endloop
  endfacet
  facet normal 0.395312 0.247027 0.884707
    outer loop
      vertex 18.0199 -32.3365 21.4325
      vertex 17.9404 -32.2093 21.4325
      vertex 17.9091 -32.2289 21.4519
    endloop
  endfacet
  facet normal 0.529917 -0.84805 -4.73898e-6
    outer loop
      vertex 18.0034 -32.3468 21.3673
      vertex 18.0252 -32.3332 21.3427
      vertex 18.0722 -32.3038 21.3769
    endloop
  endfacet
  facet normal 0.529926 -0.848044 -2.29845e-5
    outer loop
      vertex 18.0252 -32.3332 21.3427
      vertex 18.0918 -32.2916 21.3423
      vertex 18.0722 -32.3038 21.3769
    endloop
  endfacet
  facet normal 0.513542 0.320907 0.795797
    outer loop
      vertex 18.0199 -32.3365 21.4325
      vertex 18.048 -32.319 21.4072
      vertex 17.9404 -32.2093 21.4325
    endloop
  endfacet
  facet normal 0.513542 0.320907 0.795797
    outer loop
      vertex 18.048 -32.319 21.4072
      vertex 17.9685 -32.1918 21.4072
      vertex 17.9404 -32.2093 21.4325
    endloop
  endfacet
  facet normal -0.58574 -0.366004 -0.723153
    outer loop
      vertex 17.9239 -32.2196 21.3673
      vertex 17.9457 -32.206 21.3427
      vertex 18.0252 -32.3332 21.3427
    endloop
  endfacet
  facet normal -0.690815 -0.431661 -0.580038
    outer loop
      vertex 17.9457 -32.206 21.3427
      vertex 18.0426 -32.3223 21.3138
      vertex 18.0252 -32.3332 21.3427
    endloop
  endfacet
  facet normal 0.529927 -0.848044 7.47194e-6
    outer loop
      vertex 18.0252 -32.3332 21.3427
      vertex 18.0426 -32.3223 21.3138
      vertex 18.0918 -32.2916 21.3423
    endloop
  endfacet
  facet normal 0.529919 -0.848048 2.51581e-5
    outer loop
      vertex 18.0426 -32.3223 21.3138
      vertex 18.1064 -32.2825 21.3043
      vertex 18.0918 -32.2916 21.3423
    endloop
  endfacet
  facet normal 0.617706 0.385998 0.68516
    outer loop
      vertex 18.048 -32.319 21.4072
      vertex 18.0722 -32.3038 21.3769
      vertex 17.9685 -32.1918 21.4072
    endloop
  endfacet
  facet normal 0.617691 0.385978 0.685185
    outer loop
      vertex 18.0722 -32.3038 21.3769
      vertex 17.9927 -32.1766 21.3769
      vertex 17.9685 -32.1918 21.4072
    endloop
  endfacet
  facet normal 0.705012 0.440542 0.55577
    outer loop
      vertex 18.0722 -32.3038 21.3769
      vertex 18.0918 -32.2916 21.3423
      vertex 17.9927 -32.1766 21.3769
    endloop
  endfacet
  facet normal 0.705002 0.440526 0.555796
    outer loop
      vertex 18.0918 -32.2916 21.3423
      vertex 18.0123 -32.1644 21.3423
      vertex 17.9927 -32.1766 21.3769
    endloop
  endfacet
  facet normal -0.690828 -0.431679 -0.580009
    outer loop
      vertex 17.9457 -32.206 21.3427
      vertex 17.9632 -32.1951 21.3138
      vertex 18.0426 -32.3223 21.3138
    endloop
  endfacet
  facet normal -0.77119 -0.481895 -0.415986
    outer loop
      vertex 17.9632 -32.1951 21.3138
      vertex 18.0552 -32.3145 21.2815
      vertex 18.0426 -32.3223 21.3138
    endloop
  endfacet
  facet normal 0.529957 -0.848025 -2.55129e-5
    outer loop
      vertex 18.0511 -32.317 21.0362
      vertex 18.0748 -32.3022 21.0671
      vertex 18.0349 -32.3271 21.112
    endloop
  endfacet
  facet normal 0.529975 -0.848013 -3.12035e-6
    outer loop
      vertex 18.0748 -32.3022 21.0671
      vertex 18.0499 -32.3178 21.1428
      vertex 18.0349 -32.3271 21.112
    endloop
  endfacet
  facet normal -0.643705 -0.402221 0.651047
    outer loop
      vertex 18.0153 -32.3394 21.085
      vertex 18.0349 -32.3271 21.112
      vertex 17.9554 -32.1999 21.112
    endloop
  endfacet
  facet normal -0.73626 -0.460055 0.496257
    outer loop
      vertex 18.0349 -32.3271 21.112
      vertex 17.9704 -32.1906 21.1428
      vertex 17.9554 -32.1999 21.112
    endloop
  endfacet
  facet normal 0.714268 0.446339 -0.539077
    outer loop
      vertex 17.9953 -32.175 21.0671
      vertex 18.0144 -32.1631 21.1022
      vertex 18.0748 -32.3022 21.0671
    endloop
  endfacet
  facet normal 0.714287 0.44634 -0.53905
    outer loop
      vertex 18.0144 -32.1631 21.1022
      vertex 18.0939 -32.2903 21.1022
      vertex 18.0748 -32.3022 21.0671
    endloop
  endfacet
  facet normal -0.529875 0.848076 7.0125e-5
    outer loop
      vertex 17.9554 -32.1999 21.112
      vertex 17.9704 -32.1906 21.1428
      vertex 18.0144 -32.1631 21.1022
    endloop
  endfacet
  facet normal -0.529926 0.848044 -6.07316e-6
    outer loop
      vertex 17.9704 -32.1906 21.1428
      vertex 18.0283 -32.1544 21.1405
      vertex 18.0144 -32.1631 21.1022
    endloop
  endfacet
  facet normal 0.773032 0.483034 0.411218
    outer loop
      vertex 18.0918 -32.2916 21.3423
      vertex 18.1064 -32.2825 21.3043
      vertex 18.0123 -32.1644 21.3423
    endloop
  endfacet
  facet normal 0.773039 0.48305 0.411186
    outer loop
      vertex 18.1064 -32.2825 21.3043
      vertex 18.0269 -32.1553 21.3043
      vertex 18.0123 -32.1644 21.3423
    endloop
  endfacet
  facet normal 0.529921 -0.848047 4.36507e-5
    outer loop
      vertex 18.0426 -32.3223 21.3138
      vertex 18.0552 -32.3145 21.2815
      vertex 18.1064 -32.2825 21.3043
    endloop
  endfacet
  facet normal 0.529947 -0.848031 -3.59e-5
    outer loop
      vertex 18.0552 -32.3145 21.2815
      vertex 18.1154 -32.2768 21.264
      vertex 18.1064 -32.2825 21.3043
    endloop
  endfacet
  facet normal -0.771199 -0.481912 -0.415949
    outer loop
      vertex 17.9632 -32.1951 21.3138
      vertex 17.9757 -32.1873 21.2815
      vertex 18.0552 -32.3145 21.2815
    endloop
  endfacet
  facet normal -0.823866 -0.514823 -0.237072
    outer loop
      vertex 17.9757 -32.1873 21.2815
      vertex 18.0623 -32.31 21.247
      vertex 18.0552 -32.3145 21.2815
    endloop
  endfacet
  facet normal 0.529969 -0.848017 -5.76292e-6
    outer loop
      vertex 18.0748 -32.3022 21.0671
      vertex 18.0939 -32.2903 21.1022
      vertex 18.0499 -32.3178 21.1428
    endloop
  endfacet
  facet normal 0.529964 -0.84802 -1.34223e-5
    outer loop
      vertex 18.0939 -32.2903 21.1022
      vertex 18.1077 -32.2816 21.1405
      vertex 18.0499 -32.3178 21.1428
    endloop
  endfacet
  facet normal 0.529964 -0.84802 -1.53522e-5
    outer loop
      vertex 18.0499 -32.3178 21.1428
      vertex 18.1077 -32.2816 21.1405
      vertex 18.0596 -32.3117 21.1764
    endloop
  endfacet
  facet normal 0.529926 -0.848044 -8.64135e-5
    outer loop
      vertex 18.1077 -32.2816 21.1405
      vertex 18.1161 -32.2764 21.181
      vertex 18.0596 -32.3117 21.1764
    endloop
  endfacet
  facet normal 0.529919 -0.848049 4.1423e-5
    outer loop
      vertex 18.0596 -32.3117 21.1764
      vertex 18.1161 -32.2764 21.181
      vertex 18.0638 -32.3091 21.2115
    endloop
  endfacet
  facet normal 0.529907 -0.848056 1.26971e-5
    outer loop
      vertex 18.1161 -32.2764 21.181
      vertex 18.1187 -32.2748 21.2225
      vertex 18.0638 -32.3091 21.2115
    endloop
  endfacet
  facet normal 0.529906 -0.848056 1.6808e-5
    outer loop
      vertex 18.0638 -32.3091 21.2115
      vertex 18.1187 -32.2748 21.2225
      vertex 18.0623 -32.31 21.247
    endloop
  endfacet
  facet normal 0.529916 -0.84805 4.79851e-5
    outer loop
      vertex 18.1187 -32.2748 21.2225
      vertex 18.1154 -32.2768 21.264
      vertex 18.0623 -32.31 21.247
    endloop
  endfacet
  facet normal 0.529941 -0.848034 -6.24377e-5
    outer loop
      vertex 18.0623 -32.31 21.247
      vertex 18.1154 -32.2768 21.264
      vertex 18.0552 -32.3145 21.2815
    endloop
  endfacet
  facet normal 0.779828 0.487295 -0.392953
    outer loop
      vertex 18.0144 -32.1631 21.1022
      vertex 18.0283 -32.1544 21.1405
      vertex 18.0939 -32.2903 21.1022
    endloop
  endfacet
  facet normal 0.779828 0.487295 -0.392953
    outer loop
      vertex 18.0283 -32.1544 21.1405
      vertex 18.1077 -32.2816 21.1405
      vertex 18.0939 -32.2903 21.1022
    endloop
  endfacet
  facet normal -0.736255 -0.460054 0.496265
    outer loop
      vertex 18.0349 -32.3271 21.112
      vertex 18.0499 -32.3178 21.1428
      vertex 17.9704 -32.1906 21.1428
    endloop
  endfacet
  facet normal -0.802397 -0.501384 0.323687
    outer loop
      vertex 18.0499 -32.3178 21.1428
      vertex 17.9801 -32.1845 21.1764
      vertex 17.9704 -32.1906 21.1428
    endloop
  endfacet
  facet normal -0.529929 0.848042 -0.000122295
    outer loop
      vertex 17.9704 -32.1906 21.1428
      vertex 17.9801 -32.1845 21.1764
      vertex 18.0283 -32.1544 21.1405
    endloop
  endfacet
  facet normal 0.819924 0.512347 0.255392
    outer loop
      vertex 18.1064 -32.2825 21.3043
      vertex 18.1154 -32.2768 21.264
      vertex 18.0269 -32.1553 21.3043
    endloop
  endfacet
  facet normal 0.819924 0.512347 0.255392
    outer loop
      vertex 18.1154 -32.2768 21.264
      vertex 18.0359 -32.1496 21.264
      vertex 18.0269 -32.1553 21.3043
    endloop
  endfacet
  facet normal -0.823859 -0.514794 -0.237156
    outer loop
      vertex 17.9757 -32.1873 21.2815
      vertex 17.9828 -32.1828 21.247
      vertex 18.0623 -32.31 21.247
    endloop
  endfacet
  facet normal -0.847004 -0.529256 -0.0497205
    outer loop
      vertex 17.9828 -32.1828 21.247
      vertex 18.0638 -32.3091 21.2115
      vertex 18.0623 -32.31 21.247
    endloop
  endfacet
  facet normal 0.824067 0.514939 -0.236117
    outer loop
      vertex 18.0283 -32.1544 21.1405
      vertex 18.0366 -32.1492 21.181
      vertex 18.1077 -32.2816 21.1405
    endloop
  endfacet
  facet normal 0.824099 0.514929 -0.236027
    outer loop
      vertex 18.0366 -32.1492 21.181
      vertex 18.1161 -32.2764 21.181
      vertex 18.1077 -32.2816 21.1405
    endloop
  endfacet
  facet normal -0.802401 -0.501383 0.323677
    outer loop
      vertex 18.0499 -32.3178 21.1428
      vertex 18.0596 -32.3117 21.1764
      vertex 17.9801 -32.1845 21.1764
    endloop
  endfacet
  facet normal -0.839763 -0.524729 0.139492
    outer loop
      vertex 18.0596 -32.3117 21.1764
      vertex 17.9843 -32.1819 21.2115
      vertex 17.9801 -32.1845 21.1764
    endloop
  endfacet
  facet normal 0.844408 0.527647 0.0925414
    outer loop
      vertex 18.1154 -32.2768 21.264
      vertex 18.1187 -32.2748 21.2225
      vertex 18.0359 -32.1496 21.264
    endloop
  endfacet
  facet normal 0.844414 0.527623 0.0926259
    outer loop
      vertex 18.1187 -32.2748 21.2225
      vertex 18.0392 -32.1476 21.2225
      vertex 18.0359 -32.1496 21.264
    endloop
  endfacet
  facet normal -0.847004 -0.529256 -0.0497205
    outer loop
      vertex 17.9828 -32.1828 21.247
      vertex 17.9843 -32.1819 21.2115
      vertex 18.0638 -32.3091 21.2115
    endloop
  endfacet
  facet normal -0.83976 -0.52473 0.139503
    outer loop
      vertex 17.9843 -32.1819 21.2115
      vertex 18.0596 -32.3117 21.1764
      vertex 18.0638 -32.3091 21.2115
    endloop
  endfacet
  facet normal 0.845815 0.528498 -0.0727036
    outer loop
      vertex 18.0366 -32.1492 21.181
      vertex 18.0392 -32.1476 21.2225
      vertex 18.1161 -32.2764 21.181
    endloop
  endfacet
  facet normal 0.845815 0.528498 -0.0727036
    outer loop
      vertex 18.0392 -32.1476 21.2225
      vertex 18.1187 -32.2748 21.2225
      vertex 18.1161 -32.2764 21.181
    endloop
  endfacet
endsolid Onshape
