solid Onshape
  facet normal -0.990058 0 -0.140656
    outer loop
      vertex 18.5958 -21.351 9.61467
      vertex 18.5936 -21.351 9.63053
      vertex 18.5958 -21.2034 9.61467
    endloop
  endfacet
  facet normal -0.996538 0.00630487 -0.0829017
    outer loop
      vertex 18.5936 -21.351 9.63053
      vertex 18.5932 -21.2034 9.64655
      vertex 18.5958 -21.2034 9.61467
    endloop
  endfacet
  facet normal -0.700784 -0.706392 -0.0995595
    outer loop
      vertex 18.5936 -21.351 9.63053
      vertex 18.5958 -21.351 9.61467
      vertex 18.6034 -21.3609 9.63135
    endloop
  endfacet
  facet normal -0.663406 -0.736154 -0.134048
    outer loop
      vertex 18.5958 -21.351 9.61467
      vertex 18.6093 -21.3609 9.60223
      vertex 18.6034 -21.3609 9.63135
    endloop
  endfacet
  facet normal -0.707605 -0.706388 -0.0176068
    outer loop
      vertex 18.5932 -21.351 9.64655
      vertex 18.5936 -21.351 9.63053
      vertex 18.6034 -21.3609 9.63135
    endloop
  endfacet
  facet normal -0.999691 0 -0.0248746
    outer loop
      vertex 18.5936 -21.351 9.63053
      vertex 18.5932 -21.351 9.64655
      vertex 18.5932 -21.2034 9.64655
    endloop
  endfacet
  facet normal -0.995807 0 0.0914789
    outer loop
      vertex 18.5932 -21.351 9.64655
      vertex 18.5947 -21.351 9.66251
      vertex 18.5932 -21.2034 9.64655
    endloop
  endfacet
  facet normal -0.988786 0.00630908 0.149206
    outer loop
      vertex 18.5932 -21.2034 9.64655
      vertex 18.5947 -21.351 9.66251
      vertex 18.598 -21.2034 9.67819
    endloop
  endfacet
  facet normal -0.978461 0 0.206432
    outer loop
      vertex 18.5947 -21.351 9.66251
      vertex 18.598 -21.351 9.67819
      vertex 18.598 -21.2034 9.67819
    endloop
  endfacet
  facet normal -0.947919 0 0.318511
    outer loop
      vertex 18.598 -21.2034 9.67819
      vertex 18.598 -21.351 9.67819
      vertex 18.6031 -21.351 9.69337
    endloop
  endfacet
  facet normal -0.645835 -0.761168 0.0593291
    outer loop
      vertex 18.5947 -21.351 9.66251
      vertex 18.5932 -21.351 9.64655
      vertex 18.6034 -21.3609 9.63135
    endloop
  endfacet
  facet normal 0 1 0
    outer loop
      vertex 18.5932 -21.2034 9.64655
      vertex 18.598 -21.2034 9.67819
      vertex 18.656 -21.2034 9.65958
    endloop
  endfacet
  facet normal 0 1 0
    outer loop
      vertex 18.598 -21.2034 9.67819
      vertex 18.6651 -21.2034 9.68185
      vertex 18.656 -21.2034 9.65958
    endloop
  endfacet
  facet normal 0 1 0
    outer loop
      vertex 18.5958 -21.2034 9.61467
      vertex 18.5932 -21.2034 9.64655
      vertex 18.6542 -21.2034 9.63557
    endloop
  endfacet
  facet normal 0 1 0
    outer loop
      vertex 18.5932 -21.2034 9.64655
      vertex 18.656 -21.2034 9.65958
      vertex 18.6542 -21.2034 9.63557
    endloop
  endfacet
  facet normal 0 -1 0
    outer loop
      vertex 18.6034 -21.3609 9.63135
      vertex 18.6093 -21.3609 9.60223
      vertex 18.6655 -21.3609 9.5966
    endloop
  endfacet
  facet normal 0 -1 0
    outer loop
      vertex 18.6093 -21.3609 9.60223
      vertex 18.6217 -21.3609 9.57525
      vertex 18.6655 -21.3609 9.5966
    endloop
  endfacet
  facet normal 0 -1 0
    outer loop
      vertex 18.6655 -21.3609 9.5966
      vertex 18.6217 -21.3609 9.57525
      vertex 18.64 -21.3609 9.55186
    endloop
  endfacet
  facet normal 0 -1 0
    outer loop
      vertex 18.6044 -21.3609 9.66104
      vertex 18.6034 -21.3609 9.63135
      vertex 18.659 -21.3609 9.67588
    endloop
  endfacet
  facet normal 0 -1 0
    outer loop
      vertex 18.6034 -21.3609 9.63135
      vertex 18.6655 -21.3609 9.5966
      vertex 18.659 -21.3609 9.67588
    endloop
  endfacet
  facet normal -0.709232 -0.704578 0.02367
    outer loop
      vertex 18.6034 -21.3609 9.63135
      vertex 18.6044 -21.3609 9.66104
      vertex 18.5947 -21.351 9.66251
    endloop
  endfacet
  facet normal -0.69258 -0.706387 0.146118
    outer loop
      vertex 18.6044 -21.3609 9.66104
      vertex 18.598 -21.351 9.67819
      vertex 18.5947 -21.351 9.66251
    endloop
  endfacet
  facet normal 0 1 0
    outer loop
      vertex 18.6058 -21.2034 9.58425
      vertex 18.5958 -21.2034 9.61467
      vertex 18.6542 -21.2034 9.63557
    endloop
  endfacet
  facet normal -0.950559 0.00632262 -0.310478
    outer loop
      vertex 18.5958 -21.2034 9.61467
      vertex 18.6058 -21.2034 9.58425
      vertex 18.5999 -21.351 9.59917
    endloop
  endfacet
  facet normal -0.930878 0 -0.36533
    outer loop
      vertex 18.6058 -21.2034 9.58425
      vertex 18.6058 -21.351 9.58425
      vertex 18.5999 -21.351 9.59917
    endloop
  endfacet
  facet normal -0.967052 0 -0.254579
    outer loop
      vertex 18.5999 -21.351 9.59917
      vertex 18.5958 -21.351 9.61467
      vertex 18.5958 -21.2034 9.61467
    endloop
  endfacet
  facet normal -0.684385 -0.706511 -0.180166
    outer loop
      vertex 18.5958 -21.351 9.61467
      vertex 18.5999 -21.351 9.59917
      vertex 18.6093 -21.3609 9.60223
    endloop
  endfacet
  facet normal -0.658787 -0.706508 -0.258546
    outer loop
      vertex 18.5999 -21.351 9.59917
      vertex 18.6058 -21.351 9.58425
      vertex 18.6093 -21.3609 9.60223
    endloop
  endfacet
  facet normal -0.614607 -0.736166 -0.283404
    outer loop
      vertex 18.6093 -21.3609 9.60223
      vertex 18.6058 -21.351 9.58425
      vertex 18.6217 -21.3609 9.57525
    endloop
  endfacet
  facet normal -0.624398 -0.706484 -0.333177
    outer loop
      vertex 18.6058 -21.351 9.58425
      vertex 18.6133 -21.351 9.57012
      vertex 18.6217 -21.3609 9.57525
    endloop
  endfacet
  facet normal -0.581477 -0.706481 -0.403447
    outer loop
      vertex 18.6217 -21.3609 9.57525
      vertex 18.6133 -21.351 9.57012
      vertex 18.6225 -21.351 9.55695
    endloop
  endfacet
  facet normal -0.997254 0 0.0740598
    outer loop
      vertex 18.6542 -21.2034 9.63557
      vertex 18.656 -21.2034 9.65958
      vertex 18.6542 -20.6522 9.63557
    endloop
  endfacet
  facet normal -0.997254 0 0.0740598
    outer loop
      vertex 18.656 -21.2034 9.65958
      vertex 18.656 -20.6522 9.65958
      vertex 18.6542 -20.6522 9.63557
    endloop
  endfacet
  facet normal -0.97131 0 -0.237817
    outer loop
      vertex 18.66 -21.2034 9.6122
      vertex 18.6542 -21.2034 9.63557
      vertex 18.66 -20.6522 9.6122
    endloop
  endfacet
  facet normal -0.97131 0 -0.237817
    outer loop
      vertex 18.6542 -21.2034 9.63557
      vertex 18.6542 -20.6522 9.63557
      vertex 18.66 -20.6522 9.6122
    endloop
  endfacet
  facet normal 0 1 0
    outer loop
      vertex 18.6542 -21.2034 9.63557
      vertex 18.66 -21.2034 9.6122
      vertex 18.6058 -21.2034 9.58425
    endloop
  endfacet
  facet normal 0 1 0
    outer loop
      vertex 18.66 -21.2034 9.6122
      vertex 18.6225 -21.2034 9.55695
      vertex 18.6058 -21.2034 9.58425
    endloop
  endfacet
  facet normal -0.927734 0.00632311 0.373189
    outer loop
      vertex 18.6099 -21.2034 9.70787
      vertex 18.598 -21.2034 9.67819
      vertex 18.6031 -21.351 9.69337
    endloop
  endfacet
  facet normal 0 1 0
    outer loop
      vertex 18.598 -21.2034 9.67819
      vertex 18.6099 -21.2034 9.70787
      vertex 18.6651 -21.2034 9.68185
    endloop
  endfacet
  facet normal 0 1 0
    outer loop
      vertex 18.6099 -21.2034 9.70787
      vertex 18.6284 -21.2034 9.734
      vertex 18.6651 -21.2034 9.68185
    endloop
  endfacet
  facet normal 0 1 0
    outer loop
      vertex 18.6651 -21.2034 9.68185
      vertex 18.6284 -21.2034 9.734
      vertex 18.6807 -21.2034 9.70023
    endloop
  endfacet
  facet normal 0 1 0
    outer loop
      vertex 18.6284 -21.2034 9.734
      vertex 18.6524 -21.2034 9.75516
      vertex 18.6807 -21.2034 9.70023
    endloop
  endfacet
  facet normal 0 1 0
    outer loop
      vertex 18.6807 -21.2034 9.70023
      vertex 18.6524 -21.2034 9.75516
      vertex 18.7012 -21.2034 9.71289
    endloop
  endfacet
  facet normal 0 1 0
    outer loop
      vertex 18.6524 -21.2034 9.75516
      vertex 18.6806 -21.2034 9.77023
      vertex 18.7012 -21.2034 9.71289
    endloop
  endfacet
  facet normal 0 1 0
    outer loop
      vertex 18.7012 -21.2034 9.71289
      vertex 18.6806 -21.2034 9.77023
      vertex 18.7245 -21.2034 9.71862
    endloop
  endfacet
  facet normal 0 1 0
    outer loop
      vertex 18.6806 -21.2034 9.77023
      vertex 18.7115 -21.2034 9.77838
      vertex 18.7245 -21.2034 9.71862
    endloop
  endfacet
  facet normal 0 1 0
    outer loop
      vertex 18.7245 -21.2034 9.71862
      vertex 18.7115 -21.2034 9.77838
      vertex 18.7435 -21.2034 9.77917
    endloop
  endfacet
  facet normal -0.925567 0 0.378585
    outer loop
      vertex 18.656 -21.2034 9.65958
      vertex 18.6651 -21.2034 9.68185
      vertex 18.656 -20.6522 9.65958
    endloop
  endfacet
  facet normal -0.925567 0 0.378585
    outer loop
      vertex 18.6651 -21.2034 9.68185
      vertex 18.6651 -20.6522 9.68185
      vertex 18.656 -20.6522 9.65958
    endloop
  endfacet
  facet normal 0 -1 0
    outer loop
      vertex 18.6122 -21.3609 9.6897
      vertex 18.6044 -21.3609 9.66104
      vertex 18.659 -21.3609 9.67588
    endloop
  endfacet
  facet normal -0.684529 -0.704697 0.186607
    outer loop
      vertex 18.6044 -21.3609 9.66104
      vertex 18.6122 -21.3609 9.6897
      vertex 18.6031 -21.351 9.69337
    endloop
  endfacet
  facet normal -0.64008 -0.7065 0.301921
    outer loop
      vertex 18.6122 -21.3609 9.6897
      vertex 18.6099 -21.351 9.70787
      vertex 18.6031 -21.351 9.69337
    endloop
  endfacet
  facet normal 0 -1 0
    outer loop
      vertex 18.7375 -21.3609 9.56267
      vertex 18.6655 -21.3609 9.5966
      vertex 18.6901 -21.3609 9.52067
    endloop
  endfacet
  facet normal 0 -1 0
    outer loop
      vertex 18.6655 -21.3609 9.5966
      vertex 18.6633 -21.3609 9.53334
      vertex 18.6901 -21.3609 9.52067
    endloop
  endfacet
  facet normal 0.301614 -0.70703 0.639638
    outer loop
      vertex 18.6655 -21.3609 9.5966
      vertex 18.7375 -21.3609 9.56267
      vertex 18.6749 -21.351 9.60308
    endloop
  endfacet
  facet normal 0.30159 -0.707066 0.63961
    outer loop
      vertex 18.7375 -21.3609 9.56267
      vertex 18.7366 -21.351 9.57399
      vertex 18.6749 -21.351 9.60308
    endloop
  endfacet
  facet normal 0.704742 -0.707039 0.0586061
    outer loop
      vertex 18.6655 -21.3609 9.5966
      vertex 18.6749 -21.351 9.60308
      vertex 18.6692 -21.351 9.67103
    endloop
  endfacet
  facet normal 0.70472 -0.707061 0.0586101
    outer loop
      vertex 18.659 -21.3609 9.67588
      vertex 18.6655 -21.3609 9.5966
      vertex 18.6692 -21.351 9.67103
    endloop
  endfacet
  facet normal 0.403124 -0.707069 -0.580986
    outer loop
      vertex 18.659 -21.3609 9.67588
      vertex 18.6692 -21.351 9.67103
      vertex 18.7253 -21.351 9.70991
    endloop
  endfacet
  facet normal 0.403143 -0.707016 -0.581037
    outer loop
      vertex 18.7243 -21.3609 9.72123
      vertex 18.659 -21.3609 9.67588
      vertex 18.7253 -21.351 9.70991
    endloop
  endfacet
  facet normal 0 -1 0
    outer loop
      vertex 18.659 -21.3609 9.67588
      vertex 18.7243 -21.3609 9.72123
      vertex 18.6707 -21.3609 9.75483
    endloop
  endfacet
  facet normal 0 -1 0
    outer loop
      vertex 18.7243 -21.3609 9.72123
      vertex 18.6983 -21.3609 9.76568
      vertex 18.6707 -21.3609 9.75483
    endloop
  endfacet
  facet normal -0.85336 0.00631374 -0.521284
    outer loop
      vertex 18.6058 -21.2034 9.58425
      vertex 18.6225 -21.2034 9.55695
      vertex 18.6133 -21.351 9.57012
    endloop
  endfacet
  facet normal -0.821606 0 -0.570056
    outer loop
      vertex 18.6225 -21.2034 9.55695
      vertex 18.6225 -21.351 9.55695
      vertex 18.6133 -21.351 9.57012
    endloop
  endfacet
  facet normal -0.614885 -0.761071 0.206608
    outer loop
      vertex 18.6031 -21.351 9.69337
      vertex 18.598 -21.351 9.67819
      vertex 18.6044 -21.3609 9.66104
    endloop
  endfacet
  facet normal 0 1 0
    outer loop
      vertex 18.6542 -20.6522 9.63557
      vertex 18.656 -20.6522 9.65958
      vertex 18.7309 -20.6522 9.64195
    endloop
  endfacet
  facet normal 0 1 0
    outer loop
      vertex 18.656 -20.6522 9.65958
      vertex 18.6651 -20.6522 9.68185
      vertex 18.7309 -20.6522 9.64195
    endloop
  endfacet
  facet normal 0 1 0
    outer loop
      vertex 18.7309 -20.6522 9.64195
      vertex 18.6651 -20.6522 9.68185
      vertex 18.6807 -20.6522 9.70023
    endloop
  endfacet
  facet normal 0 1 0
    outer loop
      vertex 18.66 -20.6522 9.6122
      vertex 18.6542 -20.6522 9.63557
      vertex 18.7309 -20.6522 9.64195
    endloop
  endfacet
  facet normal -0.850327 0 -0.526255
    outer loop
      vertex 18.6726 -21.2034 9.59173
      vertex 18.66 -21.2034 9.6122
      vertex 18.6726 -20.6522 9.59173
    endloop
  endfacet
  facet normal -0.850327 0 -0.526255
    outer loop
      vertex 18.66 -21.2034 9.6122
      vertex 18.66 -20.6522 9.6122
      vertex 18.6726 -20.6522 9.59173
    endloop
  endfacet
  facet normal 0 1 0
    outer loop
      vertex 18.66 -21.2034 9.6122
      vertex 18.6726 -21.2034 9.59173
      vertex 18.6225 -21.2034 9.55695
    endloop
  endfacet
  facet normal 0 1 0
    outer loop
      vertex 18.6726 -21.2034 9.59173
      vertex 18.645 -21.2034 9.53423
      vertex 18.6225 -21.2034 9.55695
    endloop
  endfacet
  facet normal 0 1 0
    outer loop
      vertex 18.6726 -20.6522 9.59173
      vertex 18.66 -20.6522 9.6122
      vertex 18.7309 -20.6522 9.64195
    endloop
  endfacet
  facet normal -0.763257 0 0.646095
    outer loop
      vertex 18.6651 -21.2034 9.68185
      vertex 18.6807 -21.2034 9.70023
      vertex 18.6651 -20.6522 9.68185
    endloop
  endfacet
  facet normal -0.763257 0 0.646095
    outer loop
      vertex 18.6807 -21.2034 9.70023
      vertex 18.6807 -20.6522 9.70023
      vertex 18.6651 -20.6522 9.68185
    endloop
  endfacet
  facet normal -0.904434 0 0.426614
    outer loop
      vertex 18.6031 -21.351 9.69337
      vertex 18.6099 -21.351 9.70787
      vertex 18.6099 -21.2034 9.70787
    endloop
  endfacet
  facet normal -0.848905 0 0.528546
    outer loop
      vertex 18.6099 -21.351 9.70787
      vertex 18.6184 -21.351 9.72147
      vertex 18.6099 -21.2034 9.70787
    endloop
  endfacet
  facet normal -0.81669 0.00631636 0.577042
    outer loop
      vertex 18.6099 -21.2034 9.70787
      vertex 18.6184 -21.351 9.72147
      vertex 18.6284 -21.2034 9.734
    endloop
  endfacet
  facet normal -0.781741 0 0.623603
    outer loop
      vertex 18.6184 -21.351 9.72147
      vertex 18.6284 -21.351 9.734
      vertex 18.6284 -21.2034 9.734
    endloop
  endfacet
  facet normal -0.704078 0 0.710123
    outer loop
      vertex 18.6284 -21.2034 9.734
      vertex 18.6284 -21.351 9.734
      vertex 18.6397 -21.351 9.74528
    endloop
  endfacet
  facet normal -0.532681 -0.736185 -0.417471
    outer loop
      vertex 18.64 -21.3609 9.55186
      vertex 18.6217 -21.3609 9.57525
      vertex 18.6225 -21.351 9.55695
    endloop
  endfacet
  facet normal -0.882256 0 -0.470769
    outer loop
      vertex 18.6133 -21.351 9.57012
      vertex 18.6058 -21.351 9.58425
      vertex 18.6058 -21.2034 9.58425
    endloop
  endfacet
  facet normal 0 -1 0
    outer loop
      vertex 18.6264 -21.3609 9.71579
      vertex 18.6122 -21.3609 9.6897
      vertex 18.659 -21.3609 9.67588
    endloop
  endfacet
  facet normal -0.623073 -0.704681 0.339417
    outer loop
      vertex 18.6122 -21.3609 9.6897
      vertex 18.6264 -21.3609 9.71579
      vertex 18.6184 -21.351 9.72147
    endloop
  endfacet
  facet normal -0.553263 -0.706482 0.441343
    outer loop
      vertex 18.6264 -21.3609 9.71579
      vertex 18.6284 -21.351 9.734
      vertex 18.6184 -21.351 9.72147
    endloop
  endfacet
  facet normal 0.99656 0 0.0828737
    outer loop
      vertex 18.6692 -21.351 9.67103
      vertex 18.6749 -21.351 9.60308
      vertex 18.6749 -21.2428 9.60308
    endloop
  endfacet
  facet normal 0.99656 0 0.0828737
    outer loop
      vertex 18.6692 -21.2428 9.67103
      vertex 18.6692 -21.351 9.67103
      vertex 18.6749 -21.2428 9.60308
    endloop
  endfacet
  facet normal 0.570073 0 -0.821594
    outer loop
      vertex 18.6692 -21.351 9.67103
      vertex 18.6692 -21.2428 9.67103
      vertex 18.7253 -21.351 9.70991
    endloop
  endfacet
  facet normal 0.570073 0 -0.821594
    outer loop
      vertex 18.6692 -21.2428 9.67103
      vertex 18.7253 -21.2428 9.70991
      vertex 18.7253 -21.351 9.70991
    endloop
  endfacet
  facet normal 0 -1 0
    outer loop
      vertex 18.6463 -21.3609 9.7379
      vertex 18.6264 -21.3609 9.71579
      vertex 18.659 -21.3609 9.67588
    endloop
  endfacet
  facet normal -0.528037 -0.704654 0.473963
    outer loop
      vertex 18.6264 -21.3609 9.71579
      vertex 18.6463 -21.3609 9.7379
      vertex 18.6397 -21.351 9.74528
    endloop
  endfacet
  facet normal -0.436601 -0.706459 0.557042
    outer loop
      vertex 18.6463 -21.3609 9.7379
      vertex 18.6524 -21.351 9.75516
      vertex 18.6397 -21.351 9.74528
    endloop
  endfacet
  facet normal -0.426511 0 -0.904483
    outer loop
      vertex 18.7253 -21.351 9.70991
      vertex 18.7253 -21.2428 9.70991
      vertex 18.7869 -21.351 9.68082
    endloop
  endfacet
  facet normal -0.426511 0 -0.904483
    outer loop
      vertex 18.7253 -21.2428 9.70991
      vertex 18.7869 -21.2428 9.68082
      vertex 18.7869 -21.351 9.68082
    endloop
  endfacet
  facet normal -0.301608 -0.707061 -0.639607
    outer loop
      vertex 18.7253 -21.351 9.70991
      vertex 18.7869 -21.351 9.68082
      vertex 18.7243 -21.3609 9.72123
    endloop
  endfacet
  facet normal -0.301589 -0.707089 -0.639585
    outer loop
      vertex 18.7869 -21.351 9.68082
      vertex 18.7963 -21.3609 9.6873
      vertex 18.7243 -21.3609 9.72123
    endloop
  endfacet
  facet normal 0 -1 0
    outer loop
      vertex 18.6707 -21.3609 9.75483
      vertex 18.6463 -21.3609 9.7379
      vertex 18.659 -21.3609 9.67588
    endloop
  endfacet
  facet normal -0.385802 -0.736187 0.556044
    outer loop
      vertex 18.6463 -21.3609 9.7379
      vertex 18.6707 -21.3609 9.75483
      vertex 18.6524 -21.351 9.75516
    endloop
  endfacet
  facet normal -0.368955 -0.706465 0.60397
    outer loop
      vertex 18.6707 -21.3609 9.75483
      vertex 18.666 -21.351 9.76352
      vertex 18.6524 -21.351 9.75516
    endloop
  endfacet
  facet normal -0.259131 -0.704666 0.660528
    outer loop
      vertex 18.6707 -21.3609 9.75483
      vertex 18.6983 -21.3609 9.76568
      vertex 18.6958 -21.351 9.7752
    endloop
  endfacet
  facet normal -0.14015 -0.70648 0.693718
    outer loop
      vertex 18.6983 -21.3609 9.76568
      vertex 18.7115 -21.351 9.77838
      vertex 18.6958 -21.351 9.7752
    endloop
  endfacet
  facet normal 0 -1 0
    outer loop
      vertex 18.7243 -21.3609 9.72123
      vertex 18.7963 -21.3609 9.6873
      vertex 18.7855 -21.3609 9.75768
    endloop
  endfacet
  facet normal 0 -1 0
    outer loop
      vertex 18.7963 -21.3609 9.6873
      vertex 18.8107 -21.3609 9.74198
      vertex 18.7855 -21.3609 9.75768
    endloop
  endfacet
  facet normal -0.422044 -0.736196 -0.529051
    outer loop
      vertex 18.6633 -21.3609 9.53334
      vertex 18.64 -21.3609 9.55186
      vertex 18.645 -21.351 9.53423
    endloop
  endfacet
  facet normal -0.472805 -0.706462 -0.526656
    outer loop
      vertex 18.64 -21.3609 9.55186
      vertex 18.6331 -21.351 9.54493
      vertex 18.645 -21.351 9.53423
    endloop
  endfacet
  facet normal 0 -1 0
    outer loop
      vertex 18.64 -21.3609 9.55186
      vertex 18.6633 -21.3609 9.53334
      vertex 18.6655 -21.3609 9.5966
    endloop
  endfacet
  facet normal 0.426489 0 0.904493
    outer loop
      vertex 18.6749 -21.351 9.60308
      vertex 18.7366 -21.351 9.57399
      vertex 18.7366 -21.2428 9.57399
    endloop
  endfacet
  facet normal 0.426489 0 0.904493
    outer loop
      vertex 18.6749 -21.2428 9.60308
      vertex 18.6749 -21.351 9.60308
      vertex 18.7366 -21.2428 9.57399
    endloop
  endfacet
  facet normal -0.302647 -0.704608 -0.64182
    outer loop
      vertex 18.6901 -21.3609 9.52067
      vertex 18.6633 -21.3609 9.53334
      vertex 18.6581 -21.351 9.52498
    endloop
  endfacet
  facet normal -0.40841 -0.706414 -0.578084
    outer loop
      vertex 18.6633 -21.3609 9.53334
      vertex 18.645 -21.351 9.53423
      vertex 18.6581 -21.351 9.52498
    endloop
  endfacet
  facet normal 0 -1 0
    outer loop
      vertex 18.8029 -21.3609 9.60802
      vertex 18.7375 -21.3609 9.56267
      vertex 18.8039 -21.3609 9.53682
    endloop
  endfacet
  facet normal 0 -1 0
    outer loop
      vertex 18.7375 -21.3609 9.56267
      vertex 18.7776 -21.3609 9.52284
      vertex 18.8039 -21.3609 9.53682
    endloop
  endfacet
  facet normal -0.403143 -0.707016 0.581037
    outer loop
      vertex 18.7375 -21.3609 9.56267
      vertex 18.8029 -21.3609 9.60802
      vertex 18.7366 -21.351 9.57399
    endloop
  endfacet
  facet normal -0.403139 -0.707027 0.581026
    outer loop
      vertex 18.8029 -21.3609 9.60802
      vertex 18.7926 -21.351 9.61287
      vertex 18.7366 -21.351 9.57399
    endloop
  endfacet
  facet normal -0.14646 -0.70462 -0.694305
    outer loop
      vertex 18.7192 -21.3609 9.51453
      vertex 18.6901 -21.3609 9.52067
      vertex 18.687 -21.351 9.51134
    endloop
  endfacet
  facet normal -0.264123 -0.70642 -0.656666
    outer loop
      vertex 18.6901 -21.3609 9.52067
      vertex 18.6721 -21.351 9.51732
      vertex 18.687 -21.351 9.51134
    endloop
  endfacet
  facet normal 0 -1 0
    outer loop
      vertex 18.6901 -21.3609 9.52067
      vertex 18.7192 -21.3609 9.51453
      vertex 18.7375 -21.3609 9.56267
    endloop
  endfacet
  facet normal 0 -1 0
    outer loop
      vertex 18.7192 -21.3609 9.51453
      vertex 18.7489 -21.3609 9.51527
      vertex 18.7375 -21.3609 9.56267
    endloop
  endfacet
  facet normal 0 -1 0
    outer loop
      vertex 18.7375 -21.3609 9.56267
      vertex 18.7489 -21.3609 9.51527
      vertex 18.7776 -21.3609 9.52284
    endloop
  endfacet
  facet normal -0.710143 0.00630713 -0.70403
    outer loop
      vertex 18.6225 -21.2034 9.55695
      vertex 18.645 -21.2034 9.53423
      vertex 18.6331 -21.351 9.54493
    endloop
  endfacet
  facet normal -0.668039 0 -0.744126
    outer loop
      vertex 18.645 -21.2034 9.53423
      vertex 18.645 -21.351 9.53423
      vertex 18.6331 -21.351 9.54493
    endloop
  endfacet
  facet normal -0.661585 0.00631041 0.749843
    outer loop
      vertex 18.6524 -21.2034 9.75516
      vertex 18.6284 -21.2034 9.734
      vertex 18.6397 -21.351 9.74528
    endloop
  endfacet
  facet normal -0.5263 0 0.850299
    outer loop
      vertex 18.6807 -21.2034 9.70023
      vertex 18.7012 -21.2034 9.71289
      vertex 18.6807 -20.6522 9.70023
    endloop
  endfacet
  facet normal -0.5263 0 0.850299
    outer loop
      vertex 18.7012 -21.2034 9.71289
      vertex 18.7012 -20.6522 9.71289
      vertex 18.6807 -20.6522 9.70023
    endloop
  endfacet
  facet normal -0.550616 -0.761113 0.342825
    outer loop
      vertex 18.6184 -21.351 9.72147
      vertex 18.6099 -21.351 9.70787
      vertex 18.6122 -21.3609 9.6897
    endloop
  endfacet
  facet normal 0 1 0
    outer loop
      vertex 18.691 -20.6522 9.57618
      vertex 18.6726 -20.6522 9.59173
      vertex 18.7309 -20.6522 9.64195
    endloop
  endfacet
  facet normal -0.646072 0 -0.763276
    outer loop
      vertex 18.6726 -20.6522 9.59173
      vertex 18.691 -20.6522 9.57618
      vertex 18.6726 -21.2034 9.59173
    endloop
  endfacet
  facet normal -0.646072 0 -0.763276
    outer loop
      vertex 18.691 -20.6522 9.57618
      vertex 18.691 -21.2034 9.57618
      vertex 18.6726 -21.2034 9.59173
    endloop
  endfacet
  facet normal 0 1 0
    outer loop
      vertex 18.6726 -21.2034 9.59173
      vertex 18.691 -21.2034 9.57618
      vertex 18.645 -21.2034 9.53423
    endloop
  endfacet
  facet normal 0 1 0
    outer loop
      vertex 18.691 -21.2034 9.57618
      vertex 18.6721 -21.2034 9.51732
      vertex 18.645 -21.2034 9.53423
    endloop
  endfacet
  facet normal -0.749867 0 -0.661589
    outer loop
      vertex 18.6331 -21.351 9.54493
      vertex 18.6225 -21.351 9.55695
      vertex 18.6225 -21.2034 9.55695
    endloop
  endfacet
  facet normal -0.530724 -0.706455 -0.468245
    outer loop
      vertex 18.6225 -21.351 9.55695
      vertex 18.6331 -21.351 9.54493
      vertex 18.64 -21.3609 9.55186
    endloop
  endfacet
  facet normal -0.528601 0.00630342 -0.848847
    outer loop
      vertex 18.645 -21.2034 9.53423
      vertex 18.6721 -21.2034 9.51732
      vertex 18.6581 -21.351 9.52498
    endloop
  endfacet
  facet normal -0.478416 0 -0.878133
    outer loop
      vertex 18.6721 -21.2034 9.51732
      vertex 18.6721 -21.351 9.51732
      vertex 18.6581 -21.351 9.52498
    endloop
  endfacet
  facet normal -0.470799 0.0063103 0.882218
    outer loop
      vertex 18.6806 -21.2034 9.77023
      vertex 18.6524 -21.2034 9.75516
      vertex 18.666 -21.351 9.76352
    endloop
  endfacet
  facet normal -0.521309 0 0.853368
    outer loop
      vertex 18.6524 -21.2034 9.75516
      vertex 18.6524 -21.351 9.75516
      vertex 18.666 -21.351 9.76352
    endloop
  endfacet
  facet normal -0.456625 -0.761178 0.460545
    outer loop
      vertex 18.6397 -21.351 9.74528
      vertex 18.6284 -21.351 9.734
      vertex 18.6264 -21.3609 9.71579
    endloop
  endfacet
  facet normal -0.616882 0 0.787056
    outer loop
      vertex 18.6397 -21.351 9.74528
      vertex 18.6524 -21.351 9.75516
      vertex 18.6524 -21.2034 9.75516
    endloop
  endfacet
  facet normal 0 1 0
    outer loop
      vertex 18.6807 -20.6522 9.70023
      vertex 18.7012 -20.6522 9.71289
      vertex 18.7309 -20.6522 9.64195
    endloop
  endfacet
  facet normal 0 1 0
    outer loop
      vertex 18.7012 -20.6522 9.71289
      vertex 18.7245 -20.6522 9.71862
      vertex 18.7309 -20.6522 9.64195
    endloop
  endfacet
  facet normal 0 1 0
    outer loop
      vertex 18.7309 -20.6522 9.64195
      vertex 18.7245 -20.6522 9.71862
      vertex 18.7485 -20.6522 9.71683
    endloop
  endfacet
  facet normal -0.23778 0 0.971319
    outer loop
      vertex 18.7012 -21.2034 9.71289
      vertex 18.7245 -21.2034 9.71862
      vertex 18.7012 -20.6522 9.71289
    endloop
  endfacet
  facet normal -0.23778 0 0.971319
    outer loop
      vertex 18.7245 -21.2034 9.71862
      vertex 18.7245 -20.6522 9.71862
      vertex 18.7012 -20.6522 9.71289
    endloop
  endfacet
  facet normal 0 1 0
    outer loop
      vertex 18.7133 -20.6522 9.56707
      vertex 18.691 -20.6522 9.57618
      vertex 18.7309 -20.6522 9.64195
    endloop
  endfacet
  facet normal -0.378585 0 -0.925567
    outer loop
      vertex 18.691 -20.6522 9.57618
      vertex 18.7133 -20.6522 9.56707
      vertex 18.691 -21.2034 9.57618
    endloop
  endfacet
  facet normal -0.378585 0 -0.925567
    outer loop
      vertex 18.7133 -20.6522 9.56707
      vertex 18.7133 -21.2034 9.56707
      vertex 18.691 -21.2034 9.57618
    endloop
  endfacet
  facet normal 0 1 0
    outer loop
      vertex 18.7373 -20.6522 9.56529
      vertex 18.7133 -20.6522 9.56707
      vertex 18.7309 -20.6522 9.64195
    endloop
  endfacet
  facet normal -0.0740185 0 -0.997257
    outer loop
      vertex 18.7133 -20.6522 9.56707
      vertex 18.7373 -20.6522 9.56529
      vertex 18.7133 -21.2034 9.56707
    endloop
  endfacet
  facet normal -0.0740185 0 -0.997257
    outer loop
      vertex 18.7373 -20.6522 9.56529
      vertex 18.7373 -21.2034 9.56529
      vertex 18.7133 -21.2034 9.56707
    endloop
  endfacet
  facet normal 0 1 0
    outer loop
      vertex 18.7607 -20.6522 9.57101
      vertex 18.7373 -20.6522 9.56529
      vertex 18.7309 -20.6522 9.64195
    endloop
  endfacet
  facet normal 0.237744 0 -0.971328
    outer loop
      vertex 18.7373 -20.6522 9.56529
      vertex 18.7607 -20.6522 9.57101
      vertex 18.7373 -21.2034 9.56529
    endloop
  endfacet
  facet normal 0.237744 0 -0.971328
    outer loop
      vertex 18.7607 -20.6522 9.57101
      vertex 18.7607 -21.2034 9.57101
      vertex 18.7373 -21.2034 9.56529
    endloop
  endfacet
  facet normal 0.0740627 0 0.997254
    outer loop
      vertex 18.7485 -20.6522 9.71683
      vertex 18.7245 -20.6522 9.71862
      vertex 18.7485 -21.2034 9.71683
    endloop
  endfacet
  facet normal 0.0740627 0 0.997254
    outer loop
      vertex 18.7245 -20.6522 9.71862
      vertex 18.7245 -21.2034 9.71862
      vertex 18.7485 -21.2034 9.71683
    endloop
  endfacet
  facet normal 0 1 0
    outer loop
      vertex 18.7811 -20.6522 9.58368
      vertex 18.7607 -20.6522 9.57101
      vertex 18.7309 -20.6522 9.64195
    endloop
  endfacet
  facet normal 0.5263 0 -0.850299
    outer loop
      vertex 18.7607 -20.6522 9.57101
      vertex 18.7811 -20.6522 9.58368
      vertex 18.7607 -21.2034 9.57101
    endloop
  endfacet
  facet normal 0.5263 0 -0.850299
    outer loop
      vertex 18.7811 -20.6522 9.58368
      vertex 18.7811 -21.2034 9.58368
      vertex 18.7607 -21.2034 9.57101
    endloop
  endfacet
  facet normal 0.378524 0 0.925591
    outer loop
      vertex 18.7708 -20.6522 9.70772
      vertex 18.7485 -20.6522 9.71683
      vertex 18.7708 -21.2034 9.70772
    endloop
  endfacet
  facet normal 0.378524 0 0.925591
    outer loop
      vertex 18.7485 -20.6522 9.71683
      vertex 18.7485 -21.2034 9.71683
      vertex 18.7708 -21.2034 9.70772
    endloop
  endfacet
  facet normal 0 1 0
    outer loop
      vertex 18.7485 -20.6522 9.71683
      vertex 18.7708 -20.6522 9.70772
      vertex 18.7309 -20.6522 9.64195
    endloop
  endfacet
  facet normal 0 1 0
    outer loop
      vertex 18.7708 -20.6522 9.70772
      vertex 18.7892 -20.6522 9.69217
      vertex 18.7309 -20.6522 9.64195
    endloop
  endfacet
  facet normal 0 1 0
    outer loop
      vertex 18.7309 -20.6522 9.64195
      vertex 18.7892 -20.6522 9.69217
      vertex 18.8019 -20.6522 9.6717
    endloop
  endfacet
  facet normal 0.646095 0 0.763257
    outer loop
      vertex 18.7892 -20.6522 9.69217
      vertex 18.7708 -20.6522 9.70772
      vertex 18.7892 -21.2034 9.69217
    endloop
  endfacet
  facet normal 0.646095 0 0.763257
    outer loop
      vertex 18.7708 -20.6522 9.70772
      vertex 18.7708 -21.2034 9.70772
      vertex 18.7892 -21.2034 9.69217
    endloop
  endfacet
  facet normal 0 1 0
    outer loop
      vertex 18.7967 -20.6522 9.60205
      vertex 18.7811 -20.6522 9.58368
      vertex 18.7309 -20.6522 9.64195
    endloop
  endfacet
  facet normal 0.763295 0 -0.64605
    outer loop
      vertex 18.7811 -20.6522 9.58368
      vertex 18.7967 -20.6522 9.60205
      vertex 18.7811 -21.2034 9.58368
    endloop
  endfacet
  facet normal 0.763295 0 -0.64605
    outer loop
      vertex 18.7967 -20.6522 9.60205
      vertex 18.7967 -21.2034 9.60205
      vertex 18.7811 -21.2034 9.58368
    endloop
  endfacet
  facet normal 0.850327 0 0.526255
    outer loop
      vertex 18.8019 -20.6522 9.6717
      vertex 18.7892 -20.6522 9.69217
      vertex 18.8019 -21.2034 9.6717
    endloop
  endfacet
  facet normal 0.850327 0 0.526255
    outer loop
      vertex 18.7892 -20.6522 9.69217
      vertex 18.7892 -21.2034 9.69217
      vertex 18.8019 -21.2034 9.6717
    endloop
  endfacet
  facet normal 0 1 0
    outer loop
      vertex 18.8058 -20.6522 9.62432
      vertex 18.7967 -20.6522 9.60205
      vertex 18.7309 -20.6522 9.64195
    endloop
  endfacet
  facet normal 0.92554 0 -0.378651
    outer loop
      vertex 18.7967 -20.6522 9.60205
      vertex 18.8058 -20.6522 9.62432
      vertex 18.7967 -21.2034 9.60205
    endloop
  endfacet
  facet normal 0.92554 0 -0.378651
    outer loop
      vertex 18.8058 -20.6522 9.62432
      vertex 18.8058 -21.2034 9.62432
      vertex 18.7967 -21.2034 9.60205
    endloop
  endfacet
  facet normal 0.971328 0 0.237744
    outer loop
      vertex 18.8076 -20.6522 9.64833
      vertex 18.8019 -20.6522 9.6717
      vertex 18.8076 -21.2034 9.64833
    endloop
  endfacet
  facet normal 0.971328 0 0.237744
    outer loop
      vertex 18.8019 -20.6522 9.6717
      vertex 18.8019 -21.2034 9.6717
      vertex 18.8076 -21.2034 9.64833
    endloop
  endfacet
  facet normal 0 1 0
    outer loop
      vertex 18.8019 -20.6522 9.6717
      vertex 18.8076 -20.6522 9.64833
      vertex 18.7309 -20.6522 9.64195
    endloop
  endfacet
  facet normal 0 1 0
    outer loop
      vertex 18.8076 -20.6522 9.64833
      vertex 18.8058 -20.6522 9.62432
      vertex 18.7309 -20.6522 9.64195
    endloop
  endfacet
  facet normal 0.99726 0 -0.0739829
    outer loop
      vertex 18.8058 -20.6522 9.62432
      vertex 18.8076 -20.6522 9.64833
      vertex 18.8058 -21.2034 9.62432
    endloop
  endfacet
  facet normal 0.99726 0 -0.0739829
    outer loop
      vertex 18.8076 -20.6522 9.64833
      vertex 18.8076 -21.2034 9.64833
      vertex 18.8058 -21.2034 9.62432
    endloop
  endfacet
  facet normal 0 1 0
    outer loop
      vertex 18.691 -21.2034 9.57618
      vertex 18.7133 -21.2034 9.56707
      vertex 18.7025 -21.2034 9.50712
    endloop
  endfacet
  facet normal 0 1 0
    outer loop
      vertex 18.7133 -21.2034 9.56707
      vertex 18.7343 -21.2034 9.5042
      vertex 18.7025 -21.2034 9.50712
    endloop
  endfacet
  facet normal 0 -1 0
    outer loop
      vertex 18.6692 -21.2428 9.67103
      vertex 18.6749 -21.2428 9.60308
      vertex 18.7869 -21.2428 9.68082
    endloop
  endfacet
  facet normal 0 -1 0
    outer loop
      vertex 18.6749 -21.2428 9.60308
      vertex 18.7926 -21.2428 9.61287
      vertex 18.7869 -21.2428 9.68082
    endloop
  endfacet
  facet normal 0 -1 0
    outer loop
      vertex 18.7253 -21.2428 9.70991
      vertex 18.6692 -21.2428 9.67103
      vertex 18.7869 -21.2428 9.68082
    endloop
  endfacet
  facet normal 0 -1 0
    outer loop
      vertex 18.6749 -21.2428 9.60308
      vertex 18.7366 -21.2428 9.57399
      vertex 18.7926 -21.2428 9.61287
    endloop
  endfacet
  facet normal -0.996555 0 -0.0829291
    outer loop
      vertex 18.7869 -21.351 9.68082
      vertex 18.7869 -21.2428 9.68082
      vertex 18.7926 -21.351 9.61287
    endloop
  endfacet
  facet normal -0.996555 0 -0.0829291
    outer loop
      vertex 18.7869 -21.2428 9.68082
      vertex 18.7926 -21.2428 9.61287
      vertex 18.7926 -21.351 9.61287
    endloop
  endfacet
  facet normal -0.704658 -0.70712 -0.0586386
    outer loop
      vertex 18.7869 -21.351 9.68082
      vertex 18.7926 -21.351 9.61287
      vertex 18.7963 -21.3609 9.6873
    endloop
  endfacet
  facet normal -0.704786 -0.706994 -0.0586156
    outer loop
      vertex 18.7926 -21.351 9.61287
      vertex 18.8029 -21.3609 9.60802
      vertex 18.7963 -21.3609 9.6873
    endloop
  endfacet
  facet normal 0 -1 0
    outer loop
      vertex 18.7277 -21.3609 9.76986
      vertex 18.6983 -21.3609 9.76568
      vertex 18.7243 -21.3609 9.72123
    endloop
  endfacet
  facet normal -0.099852 -0.704643 0.702501
    outer loop
      vertex 18.6983 -21.3609 9.76568
      vertex 18.7277 -21.3609 9.76986
      vertex 18.7275 -21.351 9.7797
    endloop
  endfacet
  facet normal 0.0236091 -0.70645 0.707369
    outer loop
      vertex 18.7277 -21.3609 9.76986
      vertex 18.7435 -21.351 9.77917
      vertex 18.7275 -21.351 9.7797
    endloop
  endfacet
  facet normal -0.29635 -0.706464 0.642716
    outer loop
      vertex 18.6806 -21.351 9.77023
      vertex 18.666 -21.351 9.76352
      vertex 18.6707 -21.3609 9.75483
    endloop
  endfacet
  facet normal -0.418723 0 0.908114
    outer loop
      vertex 18.666 -21.351 9.76352
      vertex 18.6806 -21.351 9.77023
      vertex 18.6806 -21.2034 9.77023
    endloop
  endfacet
  facet normal -0.310468 0 0.950584
    outer loop
      vertex 18.6806 -21.351 9.77023
      vertex 18.6958 -21.351 9.7752
      vertex 18.6806 -21.2034 9.77023
    endloop
  endfacet
  facet normal -0.254676 0.00630987 0.967006
    outer loop
      vertex 18.6806 -21.2034 9.77023
      vertex 18.6958 -21.351 9.7752
      vertex 18.7115 -21.2034 9.77838
    endloop
  endfacet
  facet normal -0.198027 0 0.980197
    outer loop
      vertex 18.6958 -21.351 9.7752
      vertex 18.7115 -21.351 9.77838
      vertex 18.7115 -21.2034 9.77838
    endloop
  endfacet
  facet normal -0.0828819 0 0.996559
    outer loop
      vertex 18.7115 -21.2034 9.77838
      vertex 18.7115 -21.351 9.77838
      vertex 18.7275 -21.351 9.7797
    endloop
  endfacet
  facet normal -0.201352 -0.761177 0.616495
    outer loop
      vertex 18.6958 -21.351 9.7752
      vertex 18.6806 -21.351 9.77023
      vertex 18.6707 -21.3609 9.75483
    endloop
  endfacet
  facet normal 0 -1 0
    outer loop
      vertex 18.7573 -21.3609 9.76715
      vertex 18.7277 -21.3609 9.76986
      vertex 18.7243 -21.3609 9.72123
    endloop
  endfacet
  facet normal 0.0648795 -0.704653 0.70658
    outer loop
      vertex 18.7277 -21.3609 9.76986
      vertex 18.7573 -21.3609 9.76715
      vertex 18.7594 -21.351 9.77678
    endloop
  endfacet
  facet normal 0.186079 -0.706449 0.682865
    outer loop
      vertex 18.7573 -21.3609 9.76715
      vertex 18.7748 -21.351 9.77257
      vertex 18.7594 -21.351 9.77678
    endloop
  endfacet
  facet normal 0 -1 0
    outer loop
      vertex 18.7963 -21.3609 9.6873
      vertex 18.8029 -21.3609 9.60802
      vertex 18.8588 -21.3609 9.63768
    endloop
  endfacet
  facet normal 0 -1 0
    outer loop
      vertex 18.8029 -21.3609 9.60802
      vertex 18.8544 -21.3609 9.60831
      vertex 18.8588 -21.3609 9.63768
    endloop
  endfacet
  facet normal 0 -1 0
    outer loop
      vertex 18.7855 -21.3609 9.75768
      vertex 18.7573 -21.3609 9.76715
      vertex 18.7243 -21.3609 9.72123
    endloop
  endfacet
  facet normal 0.226067 -0.704657 0.672572
    outer loop
      vertex 18.7573 -21.3609 9.76715
      vertex 18.7855 -21.3609 9.75768
      vertex 18.7897 -21.351 9.76659
    endloop
  endfacet
  facet normal 0.338564 -0.706464 0.621517
    outer loop
      vertex 18.7855 -21.3609 9.75768
      vertex 18.8038 -21.351 9.75892
      vertex 18.7897 -21.351 9.76659
    endloop
  endfacet
  facet normal 0.375073 -0.704684 0.602279
    outer loop
      vertex 18.7855 -21.3609 9.75768
      vertex 18.8107 -21.3609 9.74198
      vertex 18.8168 -21.351 9.74967
    endloop
  endfacet
  facet normal 0.472766 -0.706494 0.526648
    outer loop
      vertex 18.8107 -21.3609 9.74198
      vertex 18.8288 -21.351 9.73897
      vertex 18.8168 -21.351 9.74967
    endloop
  endfacet
  facet normal -0.577014 0 -0.816734
    outer loop
      vertex 18.6581 -21.351 9.52498
      vertex 18.645 -21.351 9.53423
      vertex 18.645 -21.2034 9.53423
    endloop
  endfacet
  facet normal -0.57006 0 0.821603
    outer loop
      vertex 18.7366 -21.351 9.57399
      vertex 18.7926 -21.351 9.61287
      vertex 18.7926 -21.2428 9.61287
    endloop
  endfacet
  facet normal -0.57006 0 0.821603
    outer loop
      vertex 18.7366 -21.2428 9.57399
      vertex 18.7366 -21.351 9.57399
      vertex 18.7926 -21.2428 9.61287
    endloop
  endfacet
  facet normal -0.310276 -0.761173 -0.569512
    outer loop
      vertex 18.6581 -21.351 9.52498
      vertex 18.6721 -21.351 9.51732
      vertex 18.6901 -21.3609 9.52067
    endloop
  endfacet
  facet normal 0.0167813 -0.736162 -0.676597
    outer loop
      vertex 18.7489 -21.3609 9.51527
      vertex 18.7192 -21.3609 9.51453
      vertex 18.7343 -21.351 9.5042
    endloop
  endfacet
  facet normal -0.0236147 -0.706447 -0.707372
    outer loop
      vertex 18.7192 -21.3609 9.51453
      vertex 18.7183 -21.351 9.50473
      vertex 18.7343 -21.351 9.5042
    endloop
  endfacet
  facet normal -0.373164 0 -0.927766
    outer loop
      vertex 18.687 -21.351 9.51134
      vertex 18.6721 -21.351 9.51732
      vertex 18.6721 -21.2034 9.51732
    endloop
  endfacet
  facet normal -0.26294 0 -0.964812
    outer loop
      vertex 18.7025 -21.351 9.50712
      vertex 18.687 -21.351 9.51134
      vertex 18.7025 -21.2034 9.50712
    endloop
  endfacet
  facet normal -0.318587 0.00631051 -0.947873
    outer loop
      vertex 18.687 -21.351 9.51134
      vertex 18.6721 -21.2034 9.51732
      vertex 18.7025 -21.2034 9.50712
    endloop
  endfacet
  facet normal -0.170541 -0.761137 -0.625768
    outer loop
      vertex 18.687 -21.351 9.51134
      vertex 18.7025 -21.351 9.50712
      vertex 18.7192 -21.3609 9.51453
    endloop
  endfacet
  facet normal -0.105591 -0.706438 -0.699854
    outer loop
      vertex 18.7025 -21.351 9.50712
      vertex 18.7183 -21.351 9.50473
      vertex 18.7192 -21.3609 9.51453
    endloop
  endfacet
  facet normal 0.172375 -0.736157 -0.654492
    outer loop
      vertex 18.7776 -21.3609 9.52284
      vertex 18.7489 -21.3609 9.51527
      vertex 18.766 -21.351 9.5087
    endloop
  endfacet
  facet normal 0.140192 -0.706471 -0.693719
    outer loop
      vertex 18.7489 -21.3609 9.51527
      vertex 18.7503 -21.351 9.50553
      vertex 18.766 -21.351 9.5087
    endloop
  endfacet
  facet normal 0.31864 -0.736203 -0.597055
    outer loop
      vertex 18.8039 -21.3609 9.53682
      vertex 18.7776 -21.3609 9.52284
      vertex 18.7958 -21.351 9.52038
    endloop
  endfacet
  facet normal 0.296365 -0.706504 -0.642666
    outer loop
      vertex 18.7776 -21.3609 9.52284
      vertex 18.7812 -21.351 9.51367
      vertex 18.7958 -21.351 9.52038
    endloop
  endfacet
  facet normal 0.447715 -0.736221 -0.507474
    outer loop
      vertex 18.8261 -21.3609 9.55648
      vertex 18.8039 -21.3609 9.53682
      vertex 18.8221 -21.351 9.53862
    endloop
  endfacet
  facet normal 0.436536 -0.706458 -0.557094
    outer loop
      vertex 18.8039 -21.3609 9.53682
      vertex 18.8095 -21.351 9.52874
      vertex 18.8221 -21.351 9.53862
    endloop
  endfacet
  facet normal 0 -1 0
    outer loop
      vertex 18.8039 -21.3609 9.53682
      vertex 18.8261 -21.3609 9.55648
      vertex 18.8029 -21.3609 9.60802
    endloop
  endfacet
  facet normal 0 -1 0
    outer loop
      vertex 18.8261 -21.3609 9.55648
      vertex 18.8433 -21.3609 9.58074
      vertex 18.8029 -21.3609 9.60802
    endloop
  endfacet
  facet normal 0 -1 0
    outer loop
      vertex 18.8029 -21.3609 9.60802
      vertex 18.8433 -21.3609 9.58074
      vertex 18.8544 -21.3609 9.60831
    endloop
  endfacet
  facet normal 0 1 0
    outer loop
      vertex 18.7025 -21.2034 9.50712
      vertex 18.6721 -21.2034 9.51732
      vertex 18.691 -21.2034 9.57618
    endloop
  endfacet
  facet normal 0 1 0
    outer loop
      vertex 18.7485 -21.2034 9.71683
      vertex 18.7245 -21.2034 9.71862
      vertex 18.7435 -21.2034 9.77917
    endloop
  endfacet
  facet normal -0.053751 -0.761194 0.646293
    outer loop
      vertex 18.7275 -21.351 9.7797
      vertex 18.7115 -21.351 9.77838
      vertex 18.6983 -21.3609 9.76568
    endloop
  endfacet
  facet normal 0.0333574 0 0.999443
    outer loop
      vertex 18.7275 -21.351 9.7797
      vertex 18.7435 -21.351 9.77917
      vertex 18.7435 -21.2034 9.77917
    endloop
  endfacet
  facet normal 0.149204 0 0.988806
    outer loop
      vertex 18.7435 -21.351 9.77917
      vertex 18.7594 -21.351 9.77678
      vertex 18.7435 -21.2034 9.77917
    endloop
  endfacet
  facet normal 0.206407 0.00630644 0.978446
    outer loop
      vertex 18.7435 -21.2034 9.77917
      vertex 18.7594 -21.351 9.77678
      vertex 18.7748 -21.2034 9.77257
    endloop
  endfacet
  facet normal 0.262911 0 0.96482
    outer loop
      vertex 18.7594 -21.351 9.77678
      vertex 18.7748 -21.351 9.77257
      vertex 18.7748 -21.2034 9.77257
    endloop
  endfacet
  facet normal 0.373204 0 0.927749
    outer loop
      vertex 18.7748 -21.2034 9.77257
      vertex 18.7748 -21.351 9.77257
      vertex 18.7897 -21.351 9.76659
    endloop
  endfacet
  facet normal -0.0247997 0.00631019 0.999673
    outer loop
      vertex 18.7435 -21.2034 9.77917
      vertex 18.7115 -21.2034 9.77838
      vertex 18.7275 -21.351 9.7797
    endloop
  endfacet
  facet normal 0.0967639 -0.761187 0.641273
    outer loop
      vertex 18.7594 -21.351 9.77678
      vertex 18.7435 -21.351 9.77917
      vertex 18.7277 -21.3609 9.76986
    endloop
  endfacet
  facet normal 0 -1 0
    outer loop
      vertex 18.8316 -21.3609 9.72088
      vertex 18.8107 -21.3609 9.74198
      vertex 18.7963 -21.3609 9.6873
    endloop
  endfacet
  facet normal 0.480594 -0.736192 0.476499
    outer loop
      vertex 18.8107 -21.3609 9.74198
      vertex 18.8316 -21.3609 9.72088
      vertex 18.8288 -21.351 9.73897
    endloop
  endfacet
  facet normal 0.530718 -0.706469 0.46823
    outer loop
      vertex 18.8316 -21.3609 9.72088
      vertex 18.8394 -21.351 9.72695
      vertex 18.8288 -21.351 9.73897
    endloop
  endfacet
  facet normal 0.66921 -0.736185 -0.100948
    outer loop
      vertex 18.8588 -21.3609 9.63768
      vertex 18.8544 -21.3609 9.60831
      vertex 18.8672 -21.351 9.62139
    endloop
  endfacet
  facet normal 0.692525 -0.706439 -0.146124
    outer loop
      vertex 18.8544 -21.3609 9.60831
      vertex 18.8639 -21.351 9.60572
      vertex 18.8672 -21.351 9.62139
    endloop
  endfacet
  facet normal 0.674522 -0.73612 0.0561005
    outer loop
      vertex 18.8563 -21.3609 9.66729
      vertex 18.8588 -21.3609 9.63768
      vertex 18.8682 -21.351 9.65337
    endloop
  endfacet
  facet normal 0.707558 -0.706436 0.0176067
    outer loop
      vertex 18.8588 -21.3609 9.63768
      vertex 18.8686 -21.351 9.63735
      vertex 18.8682 -21.351 9.65337
    endloop
  endfacet
  facet normal 0 -1 0
    outer loop
      vertex 18.8588 -21.3609 9.63768
      vertex 18.8563 -21.3609 9.66729
      vertex 18.7963 -21.3609 9.6873
    endloop
  endfacet
  facet normal 0 -1 0
    outer loop
      vertex 18.8563 -21.3609 9.66729
      vertex 18.8471 -21.3609 9.69553
      vertex 18.7963 -21.3609 9.6873
    endloop
  endfacet
  facet normal 0 -1 0
    outer loop
      vertex 18.7963 -21.3609 9.6873
      vertex 18.8471 -21.3609 9.69553
      vertex 18.8316 -21.3609 9.72088
    endloop
  endfacet
  facet normal 0.577566 -0.736175 0.352794
    outer loop
      vertex 18.8316 -21.3609 9.72088
      vertex 18.8471 -21.3609 9.69553
      vertex 18.8485 -21.351 9.71379
    endloop
  endfacet
  facet normal 0.624293 -0.706544 0.333247
    outer loop
      vertex 18.8471 -21.3609 9.69553
      vertex 18.856 -21.351 9.69965
      vertex 18.8485 -21.351 9.71379
    endloop
  endfacet
  facet normal 0.643284 -0.736222 0.21015
    outer loop
      vertex 18.8471 -21.3609 9.69553
      vertex 18.8563 -21.3609 9.66729
      vertex 18.8619 -21.351 9.68473
    endloop
  endfacet
  facet normal 0.684401 -0.706476 0.180242
    outer loop
      vertex 18.8563 -21.3609 9.66729
      vertex 18.866 -21.351 9.66924
      vertex 18.8619 -21.351 9.68473
    endloop
  endfacet
  facet normal 0.478367 0 0.87816
    outer loop
      vertex 18.7897 -21.351 9.76659
      vertex 18.8038 -21.351 9.75892
      vertex 18.8038 -21.2034 9.75892
    endloop
  endfacet
  facet normal 0.577069 0 0.816696
    outer loop
      vertex 18.8038 -21.351 9.75892
      vertex 18.8168 -21.351 9.74967
      vertex 18.8038 -21.2034 9.75892
    endloop
  endfacet
  facet normal 0.623585 0.00631337 0.78173
    outer loop
      vertex 18.8038 -21.2034 9.75892
      vertex 18.8168 -21.351 9.74967
      vertex 18.8288 -21.2034 9.73897
    endloop
  endfacet
  facet normal 0.668014 0 0.744149
    outer loop
      vertex 18.8168 -21.351 9.74967
      vertex 18.8288 -21.351 9.73897
      vertex 18.8288 -21.2034 9.73897
    endloop
  endfacet
  facet normal 0.749873 0 0.661581
    outer loop
      vertex 18.8288 -21.2034 9.73897
      vertex 18.8288 -21.351 9.73897
      vertex 18.8394 -21.351 9.72695
    endloop
  endfacet
  facet normal 0.242033 -0.761191 0.601671
    outer loop
      vertex 18.7897 -21.351 9.76659
      vertex 18.7748 -21.351 9.77257
      vertex 18.7573 -21.3609 9.76715
    endloop
  endfacet
  facet normal 0.374258 -0.761172 0.529668
    outer loop
      vertex 18.8168 -21.351 9.74967
      vertex 18.8038 -21.351 9.75892
      vertex 18.7855 -21.3609 9.75768
    endloop
  endfacet
  facet normal -0.149187 0 -0.988809
    outer loop
      vertex 18.7183 -21.351 9.50473
      vertex 18.7025 -21.351 9.50712
      vertex 18.7025 -21.2034 9.50712
    endloop
  endfacet
  facet normal -0.0333652 0 -0.999443
    outer loop
      vertex 18.7343 -21.351 9.5042
      vertex 18.7183 -21.351 9.50473
      vertex 18.7343 -21.2034 9.5042
    endloop
  endfacet
  facet normal -0.0914342 0.00631157 -0.995791
    outer loop
      vertex 18.7183 -21.351 9.50473
      vertex 18.7025 -21.2034 9.50712
      vertex 18.7343 -21.2034 9.5042
    endloop
  endfacet
  facet normal 0.0828146 0 -0.996565
    outer loop
      vertex 18.7503 -21.351 9.50553
      vertex 18.7343 -21.351 9.5042
      vertex 18.7343 -21.2034 9.5042
    endloop
  endfacet
  facet normal 0.0586111 -0.706474 -0.705308
    outer loop
      vertex 18.7343 -21.351 9.5042
      vertex 18.7503 -21.351 9.50553
      vertex 18.7489 -21.3609 9.51527
    endloop
  endfacet
  facet normal 0.198083 0 -0.980185
    outer loop
      vertex 18.766 -21.351 9.5087
      vertex 18.7503 -21.351 9.50553
      vertex 18.766 -21.2034 9.5087
    endloop
  endfacet
  facet normal 0.140681 0.00631826 -0.990035
    outer loop
      vertex 18.7503 -21.351 9.50553
      vertex 18.7343 -21.2034 9.5042
      vertex 18.766 -21.2034 9.5087
    endloop
  endfacet
  facet normal 0.310381 0 -0.950612
    outer loop
      vertex 18.7812 -21.351 9.51367
      vertex 18.766 -21.351 9.5087
      vertex 18.766 -21.2034 9.5087
    endloop
  endfacet
  facet normal 0.219662 -0.706496 -0.672764
    outer loop
      vertex 18.766 -21.351 9.5087
      vertex 18.7812 -21.351 9.51367
      vertex 18.7776 -21.3609 9.52284
    endloop
  endfacet
  facet normal 0.552714 -0.736189 -0.390555
    outer loop
      vertex 18.8433 -21.3609 9.58074
      vertex 18.8261 -21.3609 9.55648
      vertex 18.8434 -21.351 9.56243
    endloop
  endfacet
  facet normal 0.553275 -0.706497 -0.441304
    outer loop
      vertex 18.8261 -21.3609 9.55648
      vertex 18.8335 -21.351 9.5499
      vertex 18.8434 -21.351 9.56243
    endloop
  endfacet
  facet normal 0.627892 -0.736172 -0.252591
    outer loop
      vertex 18.8544 -21.3609 9.60831
      vertex 18.8433 -21.3609 9.58074
      vertex 18.8588 -21.351 9.59053
    endloop
  endfacet
  facet normal 0.640141 -0.706484 -0.301828
    outer loop
      vertex 18.8433 -21.3609 9.58074
      vertex 18.8519 -21.351 9.57603
      vertex 18.8588 -21.351 9.59053
    endloop
  endfacet
  facet normal 0.418767 0 -0.908094
    outer loop
      vertex 18.7958 -21.351 9.52038
      vertex 18.7812 -21.351 9.51367
      vertex 18.7958 -21.2034 9.52038
    endloop
  endfacet
  facet normal 0.365182 0.0063185 -0.930915
    outer loop
      vertex 18.7812 -21.351 9.51367
      vertex 18.766 -21.2034 9.5087
      vertex 18.7958 -21.2034 9.52038
    endloop
  endfacet
  facet normal 0.521394 0 -0.853316
    outer loop
      vertex 18.8095 -21.351 9.52874
      vertex 18.7958 -21.351 9.52038
      vertex 18.7958 -21.2034 9.52038
    endloop
  endfacet
  facet normal 0.369023 -0.706451 -0.603945
    outer loop
      vertex 18.7958 -21.351 9.52038
      vertex 18.8095 -21.351 9.52874
      vertex 18.8039 -21.3609 9.53682
    endloop
  endfacet
  facet normal 0.616789 0 -0.787128
    outer loop
      vertex 18.8221 -21.351 9.53862
      vertex 18.8095 -21.351 9.52874
      vertex 18.8221 -21.2034 9.53862
    endloop
  endfacet
  facet normal 0.570043 0.00630113 -0.821591
    outer loop
      vertex 18.8095 -21.351 9.52874
      vertex 18.7958 -21.2034 9.52038
      vertex 18.8221 -21.2034 9.53862
    endloop
  endfacet
  facet normal 0.704078 0 -0.710123
    outer loop
      vertex 18.8335 -21.351 9.5499
      vertex 18.8221 -21.351 9.53862
      vertex 18.8221 -21.2034 9.53862
    endloop
  endfacet
  facet normal 0.498288 -0.706495 -0.502566
    outer loop
      vertex 18.8221 -21.351 9.53862
      vertex 18.8335 -21.351 9.5499
      vertex 18.8261 -21.3609 9.55648
    endloop
  endfacet
  facet normal 0 1 0
    outer loop
      vertex 18.7133 -21.2034 9.56707
      vertex 18.7373 -21.2034 9.56529
      vertex 18.7343 -21.2034 9.5042
    endloop
  endfacet
  facet normal 0 1 0
    outer loop
      vertex 18.7373 -21.2034 9.56529
      vertex 18.766 -21.2034 9.5087
      vertex 18.7343 -21.2034 9.5042
    endloop
  endfacet
  facet normal 0 1 0
    outer loop
      vertex 18.7373 -21.2034 9.56529
      vertex 18.7607 -21.2034 9.57101
      vertex 18.766 -21.2034 9.5087
    endloop
  endfacet
  facet normal 0 1 0
    outer loop
      vertex 18.7607 -21.2034 9.57101
      vertex 18.7958 -21.2034 9.52038
      vertex 18.766 -21.2034 9.5087
    endloop
  endfacet
  facet normal 0 1 0
    outer loop
      vertex 18.7435 -21.2034 9.77917
      vertex 18.7748 -21.2034 9.77257
      vertex 18.7485 -21.2034 9.71683
    endloop
  endfacet
  facet normal 0 1 0
    outer loop
      vertex 18.7748 -21.2034 9.77257
      vertex 18.7708 -21.2034 9.70772
      vertex 18.7485 -21.2034 9.71683
    endloop
  endfacet
  facet normal 0 1 0
    outer loop
      vertex 18.7607 -21.2034 9.57101
      vertex 18.7811 -21.2034 9.58368
      vertex 18.8221 -21.2034 9.53862
    endloop
  endfacet
  facet normal 0 1 0
    outer loop
      vertex 18.7811 -21.2034 9.58368
      vertex 18.8434 -21.2034 9.56243
      vertex 18.8221 -21.2034 9.53862
    endloop
  endfacet
  facet normal 0.426501 0.00630965 0.904465
    outer loop
      vertex 18.8038 -21.2034 9.75892
      vertex 18.7748 -21.2034 9.77257
      vertex 18.7897 -21.351 9.76659
    endloop
  endfacet
  facet normal 0 1 0
    outer loop
      vertex 18.7748 -21.2034 9.77257
      vertex 18.8038 -21.2034 9.75892
      vertex 18.7708 -21.2034 9.70772
    endloop
  endfacet
  facet normal 0 1 0
    outer loop
      vertex 18.8038 -21.2034 9.75892
      vertex 18.7892 -21.2034 9.69217
      vertex 18.7708 -21.2034 9.70772
    endloop
  endfacet
  facet normal 0 1 0
    outer loop
      vertex 18.8019 -21.2034 9.6717
      vertex 18.7892 -21.2034 9.69217
      vertex 18.8485 -21.2034 9.71379
    endloop
  endfacet
  facet normal 0 1 0
    outer loop
      vertex 18.7892 -21.2034 9.69217
      vertex 18.8288 -21.2034 9.73897
      vertex 18.8485 -21.2034 9.71379
    endloop
  endfacet
  facet normal 0 1 0
    outer loop
      vertex 18.7811 -21.2034 9.58368
      vertex 18.7967 -21.2034 9.60205
      vertex 18.8434 -21.2034 9.56243
    endloop
  endfacet
  facet normal 0 1 0
    outer loop
      vertex 18.7967 -21.2034 9.60205
      vertex 18.8588 -21.2034 9.59053
      vertex 18.8434 -21.2034 9.56243
    endloop
  endfacet
  facet normal 0 1 0
    outer loop
      vertex 18.8076 -21.2034 9.64833
      vertex 18.8019 -21.2034 9.6717
      vertex 18.8619 -21.2034 9.68473
    endloop
  endfacet
  facet normal 0 1 0
    outer loop
      vertex 18.8019 -21.2034 9.6717
      vertex 18.8485 -21.2034 9.71379
      vertex 18.8619 -21.2034 9.68473
    endloop
  endfacet
  facet normal 0 1 0
    outer loop
      vertex 18.7967 -21.2034 9.60205
      vertex 18.8058 -21.2034 9.62432
      vertex 18.8588 -21.2034 9.59053
    endloop
  endfacet
  facet normal 0 1 0
    outer loop
      vertex 18.8058 -21.2034 9.62432
      vertex 18.8672 -21.2034 9.62139
      vertex 18.8588 -21.2034 9.59053
    endloop
  endfacet
  facet normal 0 1 0
    outer loop
      vertex 18.8058 -21.2034 9.62432
      vertex 18.8076 -21.2034 9.64833
      vertex 18.8682 -21.2034 9.65337
    endloop
  endfacet
  facet normal 0 1 0
    outer loop
      vertex 18.8076 -21.2034 9.64833
      vertex 18.8619 -21.2034 9.68473
      vertex 18.8682 -21.2034 9.65337
    endloop
  endfacet
  facet normal 0 1 0
    outer loop
      vertex 18.8038 -21.2034 9.75892
      vertex 18.8288 -21.2034 9.73897
      vertex 18.7892 -21.2034 9.69217
    endloop
  endfacet
  facet normal 0.74417 0.006312 -0.66796
    outer loop
      vertex 18.8221 -21.2034 9.53862
      vertex 18.8434 -21.2034 9.56243
      vertex 18.8335 -21.351 9.5499
    endloop
  endfacet
  facet normal 0.781775 0 -0.62356
    outer loop
      vertex 18.8434 -21.2034 9.56243
      vertex 18.8434 -21.351 9.56243
      vertex 18.8335 -21.351 9.5499
    endloop
  endfacet
  facet normal 0 1 0
    outer loop
      vertex 18.8221 -21.2034 9.53862
      vertex 18.7958 -21.2034 9.52038
      vertex 18.7607 -21.2034 9.57101
    endloop
  endfacet
  facet normal 0.787079 0.00631409 0.61682
    outer loop
      vertex 18.8485 -21.2034 9.71379
      vertex 18.8288 -21.2034 9.73897
      vertex 18.8394 -21.351 9.72695
    endloop
  endfacet
  facet normal 0.908076 0.00631652 0.418758
    outer loop
      vertex 18.8619 -21.2034 9.68473
      vertex 18.8485 -21.2034 9.71379
      vertex 18.856 -21.351 9.69965
    endloop
  endfacet
  facet normal 0.882182 0 0.470908
    outer loop
      vertex 18.8485 -21.2034 9.71379
      vertex 18.8485 -21.351 9.71379
      vertex 18.856 -21.351 9.69965
    endloop
  endfacet
  facet normal 0.878145 0.00631312 -0.478353
    outer loop
      vertex 18.8434 -21.2034 9.56243
      vertex 18.8588 -21.2034 9.59053
      vertex 18.8519 -21.351 9.57603
    endloop
  endfacet
  facet normal 0.9045 0 -0.426474
    outer loop
      vertex 18.8588 -21.2034 9.59053
      vertex 18.8588 -21.351 9.59053
      vertex 18.8519 -21.351 9.57603
    endloop
  endfacet
  facet normal 0.980193 0.00631856 0.197942
    outer loop
      vertex 18.8682 -21.2034 9.65337
      vertex 18.8619 -21.2034 9.68473
      vertex 18.866 -21.351 9.66924
    endloop
  endfacet
  facet normal 0.967027 0 0.254674
    outer loop
      vertex 18.8619 -21.2034 9.68473
      vertex 18.8619 -21.351 9.68473
      vertex 18.866 -21.351 9.66924
    endloop
  endfacet
  facet normal 0.964782 0.00630848 -0.262977
    outer loop
      vertex 18.8588 -21.2034 9.59053
      vertex 18.8672 -21.2034 9.62139
      vertex 18.8639 -21.351 9.60572
    endloop
  endfacet
  facet normal 0.978456 0 -0.206456
    outer loop
      vertex 18.8672 -21.2034 9.62139
      vertex 18.8672 -21.351 9.62139
      vertex 18.8639 -21.351 9.60572
    endloop
  endfacet
  facet normal 0.999425 0.0063114 -0.0332996
    outer loop
      vertex 18.8672 -21.2034 9.62139
      vertex 18.8682 -21.2034 9.65337
      vertex 18.8686 -21.351 9.63735
    endloop
  endfacet
  facet normal 0.999691 0 0.024876
    outer loop
      vertex 18.8682 -21.2034 9.65337
      vertex 18.8682 -21.351 9.65337
      vertex 18.8686 -21.351 9.63735
    endloop
  endfacet
  facet normal 0 1 0
    outer loop
      vertex 18.8682 -21.2034 9.65337
      vertex 18.8672 -21.2034 9.62139
      vertex 18.8058 -21.2034 9.62432
    endloop
  endfacet
  facet normal 0.990075 0 0.140542
    outer loop
      vertex 18.866 -21.351 9.66924
      vertex 18.8682 -21.351 9.65337
      vertex 18.8682 -21.2034 9.65337
    endloop
  endfacet
  facet normal 0.700712 -0.706477 0.099467
    outer loop
      vertex 18.8682 -21.351 9.65337
      vertex 18.866 -21.351 9.66924
      vertex 18.8563 -21.3609 9.66729
    endloop
  endfacet
  facet normal 0.995818 0 -0.0913584
    outer loop
      vertex 18.8686 -21.351 9.63735
      vertex 18.8672 -21.351 9.62139
      vertex 18.8672 -21.2034 9.62139
    endloop
  endfacet
  facet normal 0.704817 -0.706436 -0.0646613
    outer loop
      vertex 18.8672 -21.351 9.62139
      vertex 18.8686 -21.351 9.63735
      vertex 18.8588 -21.3609 9.63768
    endloop
  endfacet
  facet normal 0.821644 0 0.570001
    outer loop
      vertex 18.8394 -21.351 9.72695
      vertex 18.8485 -21.351 9.71379
      vertex 18.8485 -21.2034 9.71379
    endloop
  endfacet
  facet normal 0.581517 -0.706465 0.403417
    outer loop
      vertex 18.8485 -21.351 9.71379
      vertex 18.8394 -21.351 9.72695
      vertex 18.8316 -21.3609 9.72088
    endloop
  endfacet
  facet normal 0.930925 0 0.36521
    outer loop
      vertex 18.856 -21.351 9.69965
      vertex 18.8619 -21.351 9.68473
      vertex 18.8619 -21.2034 9.68473
    endloop
  endfacet
  facet normal 0.658784 -0.706548 0.258447
    outer loop
      vertex 18.8619 -21.351 9.68473
      vertex 18.856 -21.351 9.69965
      vertex 18.8471 -21.3609 9.69553
    endloop
  endfacet
  facet normal 0.848853 0 -0.52863
    outer loop
      vertex 18.8519 -21.351 9.57603
      vertex 18.8434 -21.351 9.56243
      vertex 18.8434 -21.2034 9.56243
    endloop
  endfacet
  facet normal 0.600761 -0.70648 -0.374129
    outer loop
      vertex 18.8434 -21.351 9.56243
      vertex 18.8519 -21.351 9.57603
      vertex 18.8433 -21.3609 9.58074
    endloop
  endfacet
  facet normal 0.947884 0 -0.318616
    outer loop
      vertex 18.8639 -21.351 9.60572
      vertex 18.8588 -21.351 9.59053
      vertex 18.8588 -21.2034 9.59053
    endloop
  endfacet
  facet normal 0.670888 -0.706439 -0.225508
    outer loop
      vertex 18.8588 -21.351 9.59053
      vertex 18.8639 -21.351 9.60572
      vertex 18.8544 -21.3609 9.60831
    endloop
  endfacet
endsolid Onshape
