solid Onshape
  facet normal -0.997642 0 -0.0686261
    outer loop
      vertex 23.4967 -28.731 12.0645
      vertex 23.4948 -28.731 12.092
      vertex 23.4967 -28.689 12.0645
    endloop
  endfacet
  facet normal -0.997642 0 -0.0686261
    outer loop
      vertex 23.4948 -28.731 12.092
      vertex 23.4948 -28.689 12.092
      vertex 23.4967 -28.689 12.0645
    endloop
  endfacet
  facet normal 0 -1 0
    outer loop
      vertex 23.4948 -28.731 12.092
      vertex 23.4967 -28.731 12.0645
      vertex 23.5575 -28.731 12.0736
    endloop
  endfacet
  facet normal 0 -1 0
    outer loop
      vertex 23.4973 -28.731 12.1195
      vertex 23.4948 -28.731 12.092
      vertex 23.5565 -28.731 12.0959
    endloop
  endfacet
  facet normal 0 -1 0
    outer loop
      vertex 23.4948 -28.731 12.092
      vertex 23.5575 -28.731 12.0736
      vertex 23.5565 -28.731 12.0959
    endloop
  endfacet
  facet normal -0.995768 0 0.0919015
    outer loop
      vertex 23.4948 -28.731 12.092
      vertex 23.4973 -28.731 12.1195
      vertex 23.4948 -28.689 12.092
    endloop
  endfacet
  facet normal -0.995768 0 0.0919015
    outer loop
      vertex 23.4973 -28.731 12.1195
      vertex 23.4973 -28.689 12.1195
      vertex 23.4948 -28.689 12.092
    endloop
  endfacet
  facet normal 0 1 0
    outer loop
      vertex 23.4948 -28.689 12.092
      vertex 23.4973 -28.689 12.1195
      vertex 23.5565 -28.689 12.0959
    endloop
  endfacet
  facet normal 0 1 0
    outer loop
      vertex 23.4973 -28.689 12.1195
      vertex 23.5599 -28.689 12.1179
      vertex 23.5565 -28.689 12.0959
    endloop
  endfacet
  facet normal 0 1 0
    outer loop
      vertex 23.4967 -28.689 12.0645
      vertex 23.4948 -28.689 12.092
      vertex 23.5565 -28.689 12.0959
    endloop
  endfacet
  facet normal 0 1 0
    outer loop
      vertex 23.5575 -28.689 12.0736
      vertex 23.4967 -28.689 12.0645
      vertex 23.5565 -28.689 12.0959
    endloop
  endfacet
  facet normal 0.148425 0 -0.988924
    outer loop
      vertex 23.4967 -28.689 12.0645
      vertex 23.5575 -28.689 12.0736
      vertex 23.5575 -28.731 12.0736
    endloop
  endfacet
  facet normal 0.148425 0 -0.988924
    outer loop
      vertex 23.4967 -28.731 12.0645
      vertex 23.4967 -28.689 12.0645
      vertex 23.5575 -28.731 12.0736
    endloop
  endfacet
  facet normal 0 -1 0
    outer loop
      vertex 23.5042 -28.731 12.1462
      vertex 23.4973 -28.731 12.1195
      vertex 23.5599 -28.731 12.1179
    endloop
  endfacet
  facet normal 0 -1 0
    outer loop
      vertex 23.4973 -28.731 12.1195
      vertex 23.5565 -28.731 12.0959
      vertex 23.5599 -28.731 12.1179
    endloop
  endfacet
  facet normal -0.968244 0 0.250007
    outer loop
      vertex 23.4973 -28.731 12.1195
      vertex 23.5042 -28.731 12.1462
      vertex 23.4973 -28.689 12.1195
    endloop
  endfacet
  facet normal -0.968244 0 0.250007
    outer loop
      vertex 23.5042 -28.731 12.1462
      vertex 23.5042 -28.689 12.1462
      vertex 23.4973 -28.689 12.1195
    endloop
  endfacet
  facet normal 0.998858 0 0.0477854
    outer loop
      vertex 23.5565 -28.731 12.0959
      vertex 23.5575 -28.731 12.0736
      vertex 23.5575 -28.689 12.0736
    endloop
  endfacet
  facet normal 0.988141 0 -0.153551
    outer loop
      vertex 23.5599 -28.731 12.1179
      vertex 23.5565 -28.731 12.0959
      vertex 23.5565 -28.689 12.0959
    endloop
  endfacet
  facet normal 0.998858 0 0.0477854
    outer loop
      vertex 23.5565 -28.731 12.0959
      vertex 23.5575 -28.689 12.0736
      vertex 23.5565 -28.689 12.0959
    endloop
  endfacet
  facet normal 0.988141 0 -0.153551
    outer loop
      vertex 23.5565 -28.689 12.0959
      vertex 23.5599 -28.689 12.1179
      vertex 23.5599 -28.731 12.1179
    endloop
  endfacet
  facet normal 0.937176 0 -0.348857
    outer loop
      vertex 23.5599 -28.689 12.1179
      vertex 23.5677 -28.731 12.1388
      vertex 23.5599 -28.731 12.1179
    endloop
  endfacet
  facet normal 0 1 0
    outer loop
      vertex 23.4973 -28.689 12.1195
      vertex 23.5042 -28.689 12.1462
      vertex 23.5599 -28.689 12.1179
    endloop
  endfacet
  facet normal 0 1 0
    outer loop
      vertex 23.5042 -28.689 12.1462
      vertex 23.5677 -28.689 12.1388
      vertex 23.5599 -28.689 12.1179
    endloop
  endfacet
  facet normal 0 -1 0
    outer loop
      vertex 23.5599 -28.731 12.1179
      vertex 23.5677 -28.731 12.1388
      vertex 23.5153 -28.731 12.1715
    endloop
  endfacet
  facet normal 0 -1 0
    outer loop
      vertex 23.5677 -28.731 12.1388
      vertex 23.5303 -28.731 12.1947
      vertex 23.5153 -28.731 12.1715
    endloop
  endfacet
  facet normal 0 -1 0
    outer loop
      vertex 23.5153 -28.731 12.1715
      vertex 23.5042 -28.731 12.1462
      vertex 23.5599 -28.731 12.1179
    endloop
  endfacet
  facet normal -0.915798 0 0.401638
    outer loop
      vertex 23.5042 -28.731 12.1462
      vertex 23.5153 -28.731 12.1715
      vertex 23.5042 -28.689 12.1462
    endloop
  endfacet
  facet normal -0.915798 0 0.401638
    outer loop
      vertex 23.5153 -28.731 12.1715
      vertex 23.5153 -28.689 12.1715
      vertex 23.5042 -28.689 12.1462
    endloop
  endfacet
  facet normal 0.937176 0 -0.348857
    outer loop
      vertex 23.5599 -28.689 12.1179
      vertex 23.5677 -28.689 12.1388
      vertex 23.5677 -28.731 12.1388
    endloop
  endfacet
  facet normal 0.848111 0 -0.529819
    outer loop
      vertex 23.5677 -28.689 12.1388
      vertex 23.5795 -28.731 12.1577
      vertex 23.5677 -28.731 12.1388
    endloop
  endfacet
  facet normal 0 1 0
    outer loop
      vertex 23.5042 -28.689 12.1462
      vertex 23.5153 -28.689 12.1715
      vertex 23.5677 -28.689 12.1388
    endloop
  endfacet
  facet normal 0 1 0
    outer loop
      vertex 23.5153 -28.689 12.1715
      vertex 23.5795 -28.689 12.1577
      vertex 23.5677 -28.689 12.1388
    endloop
  endfacet
  facet normal -0.839703 0 0.543046
    outer loop
      vertex 23.5153 -28.731 12.1715
      vertex 23.5303 -28.731 12.1947
      vertex 23.5153 -28.689 12.1715
    endloop
  endfacet
  facet normal -0.839703 0 0.543046
    outer loop
      vertex 23.5303 -28.731 12.1947
      vertex 23.5303 -28.689 12.1947
      vertex 23.5153 -28.689 12.1715
    endloop
  endfacet
  facet normal 0 -1 0
    outer loop
      vertex 23.5677 -28.731 12.1388
      vertex 23.5795 -28.731 12.1577
      vertex 23.5303 -28.731 12.1947
    endloop
  endfacet
  facet normal 0 -1 0
    outer loop
      vertex 23.5795 -28.731 12.1577
      vertex 23.5488 -28.731 12.2152
      vertex 23.5303 -28.731 12.1947
    endloop
  endfacet
  facet normal 0.848111 0 -0.529819
    outer loop
      vertex 23.5677 -28.689 12.1388
      vertex 23.5795 -28.689 12.1577
      vertex 23.5795 -28.731 12.1577
    endloop
  endfacet
  facet normal 0.724412 0 -0.689367
    outer loop
      vertex 23.5795 -28.689 12.1577
      vertex 23.5948 -28.731 12.1739
      vertex 23.5795 -28.731 12.1577
    endloop
  endfacet
  facet normal 0 1 0
    outer loop
      vertex 23.5153 -28.689 12.1715
      vertex 23.5303 -28.689 12.1947
      vertex 23.5795 -28.689 12.1577
    endloop
  endfacet
  facet normal 0 1 0
    outer loop
      vertex 23.5303 -28.689 12.1947
      vertex 23.5948 -28.689 12.1739
      vertex 23.5795 -28.689 12.1577
    endloop
  endfacet
  facet normal -0.742077 0 0.670315
    outer loop
      vertex 23.5303 -28.731 12.1947
      vertex 23.5488 -28.731 12.2152
      vertex 23.5303 -28.689 12.1947
    endloop
  endfacet
  facet normal -0.742077 0 0.670315
    outer loop
      vertex 23.5488 -28.731 12.2152
      vertex 23.5488 -28.689 12.2152
      vertex 23.5303 -28.689 12.1947
    endloop
  endfacet
  facet normal 0 -1 0
    outer loop
      vertex 23.5795 -28.731 12.1577
      vertex 23.5948 -28.731 12.1739
      vertex 23.5488 -28.731 12.2152
    endloop
  endfacet
  facet normal 0 -1 0
    outer loop
      vertex 23.5948 -28.731 12.1739
      vertex 23.5704 -28.731 12.2324
      vertex 23.5488 -28.731 12.2152
    endloop
  endfacet
  facet normal 0.724412 0 -0.689367
    outer loop
      vertex 23.5795 -28.689 12.1577
      vertex 23.5948 -28.689 12.1739
      vertex 23.5948 -28.731 12.1739
    endloop
  endfacet
  facet normal 0.571313 0 -0.820732
    outer loop
      vertex 23.5948 -28.689 12.1739
      vertex 23.6131 -28.731 12.1866
      vertex 23.5948 -28.731 12.1739
    endloop
  endfacet
  facet normal 0 1 0
    outer loop
      vertex 23.5303 -28.689 12.1947
      vertex 23.5488 -28.689 12.2152
      vertex 23.5948 -28.689 12.1739
    endloop
  endfacet
  facet normal 0 1 0
    outer loop
      vertex 23.5488 -28.689 12.2152
      vertex 23.5704 -28.689 12.2324
      vertex 23.5948 -28.689 12.1739
    endloop
  endfacet
  facet normal 0 1 0
    outer loop
      vertex 23.5948 -28.689 12.1739
      vertex 23.5704 -28.689 12.2324
      vertex 23.6131 -28.689 12.1866
    endloop
  endfacet
  facet normal 0 1 0
    outer loop
      vertex 23.5704 -28.689 12.2324
      vertex 23.5944 -28.689 12.246
      vertex 23.6131 -28.689 12.1866
    endloop
  endfacet
  facet normal 0 1 0
    outer loop
      vertex 23.6131 -28.689 12.1866
      vertex 23.5944 -28.689 12.246
      vertex 23.6336 -28.689 12.1954
    endloop
  endfacet
  facet normal 0 1 0
    outer loop
      vertex 23.5944 -28.689 12.246
      vertex 23.6203 -28.689 12.2556
      vertex 23.6336 -28.689 12.1954
    endloop
  endfacet
  facet normal 0 1 0
    outer loop
      vertex 23.6336 -28.689 12.1954
      vertex 23.6203 -28.689 12.2556
      vertex 23.6555 -28.689 12.1999
    endloop
  endfacet
  facet normal 0 1 0
    outer loop
      vertex 23.6203 -28.689 12.2556
      vertex 23.6474 -28.689 12.2609
      vertex 23.6555 -28.689 12.1999
    endloop
  endfacet
  facet normal 0 1 0
    outer loop
      vertex 23.6555 -28.689 12.1999
      vertex 23.6474 -28.689 12.2609
      vertex 23.6778 -28.689 12.2
    endloop
  endfacet
  facet normal 0 1 0
    outer loop
      vertex 23.6474 -28.689 12.2609
      vertex 23.675 -28.689 12.2618
      vertex 23.6778 -28.689 12.2
    endloop
  endfacet
  facet normal 0 1 0
    outer loop
      vertex 23.6778 -28.689 12.2
      vertex 23.675 -28.689 12.2618
      vertex 23.7023 -28.689 12.2583
    endloop
  endfacet
  facet normal -0.969708 0 -0.244266
    outer loop
      vertex 23.5039 -28.731 12.0347
      vertex 23.4972 -28.731 12.0615
      vertex 23.5039 -28.689 12.0347
    endloop
  endfacet
  facet normal -0.969708 0 -0.244266
    outer loop
      vertex 23.4972 -28.731 12.0615
      vertex 23.4972 -28.689 12.0615
      vertex 23.5039 -28.689 12.0347
    endloop
  endfacet
  facet normal 0 -1 0
    outer loop
      vertex 23.4972 -28.731 12.0615
      vertex 23.5039 -28.731 12.0347
      vertex 23.5637 -28.731 12.0502
    endloop
  endfacet
  facet normal 0 -1 0
    outer loop
      vertex 23.5039 -28.731 12.0347
      vertex 23.5149 -28.731 12.0094
      vertex 23.5637 -28.731 12.0502
    endloop
  endfacet
  facet normal 0 -1 0
    outer loop
      vertex 23.5637 -28.731 12.0502
      vertex 23.5149 -28.731 12.0094
      vertex 23.5738 -28.731 12.0303
    endloop
  endfacet
  facet normal 0 -1 0
    outer loop
      vertex 23.5149 -28.731 12.0094
      vertex 23.5297 -28.731 11.9861
      vertex 23.5738 -28.731 12.0303
    endloop
  endfacet
  facet normal 0 -1 0
    outer loop
      vertex 23.5738 -28.731 12.0303
      vertex 23.5297 -28.731 11.9861
      vertex 23.5877 -28.731 12.0129
    endloop
  endfacet
  facet normal 0 -1 0
    outer loop
      vertex 23.5297 -28.731 11.9861
      vertex 23.5481 -28.731 11.9655
      vertex 23.5877 -28.731 12.0129
    endloop
  endfacet
  facet normal 0 -1 0
    outer loop
      vertex 23.5877 -28.731 12.0129
      vertex 23.5481 -28.731 11.9655
      vertex 23.6048 -28.731 11.9985
    endloop
  endfacet
  facet normal 0 -1 0
    outer loop
      vertex 23.5481 -28.731 11.9655
      vertex 23.5695 -28.731 11.9481
      vertex 23.6048 -28.731 11.9985
    endloop
  endfacet
  facet normal 0 -1 0
    outer loop
      vertex 23.6048 -28.731 11.9985
      vertex 23.5695 -28.731 11.9481
      vertex 23.6244 -28.731 11.988
    endloop
  endfacet
  facet normal 0 -1 0
    outer loop
      vertex 23.5695 -28.731 11.9481
      vertex 23.5935 -28.731 11.9344
      vertex 23.6244 -28.731 11.988
    endloop
  endfacet
  facet normal 0 -1 0
    outer loop
      vertex 23.6244 -28.731 11.988
      vertex 23.5935 -28.731 11.9344
      vertex 23.6193 -28.731 11.9247
    endloop
  endfacet
  facet normal 0 -1 0
    outer loop
      vertex 23.5578 -28.731 12.0717
      vertex 23.4972 -28.731 12.0615
      vertex 23.5637 -28.731 12.0502
    endloop
  endfacet
  facet normal -0.165656 0 0.986184
    outer loop
      vertex 23.4972 -28.731 12.0615
      vertex 23.5578 -28.731 12.0717
      vertex 23.5578 -28.689 12.0717
    endloop
  endfacet
  facet normal -0.165656 0 0.986184
    outer loop
      vertex 23.4972 -28.689 12.0615
      vertex 23.4972 -28.731 12.0615
      vertex 23.5578 -28.689 12.0717
    endloop
  endfacet
  facet normal 0 1 0
    outer loop
      vertex 23.4972 -28.689 12.0615
      vertex 23.5578 -28.689 12.0717
      vertex 23.5039 -28.689 12.0347
    endloop
  endfacet
  facet normal 0 1 0
    outer loop
      vertex 23.5578 -28.689 12.0717
      vertex 23.5637 -28.689 12.0502
      vertex 23.5039 -28.689 12.0347
    endloop
  endfacet
  facet normal 0 1 0
    outer loop
      vertex 23.5039 -28.689 12.0347
      vertex 23.5637 -28.689 12.0502
      vertex 23.5149 -28.689 12.0094
    endloop
  endfacet
  facet normal 0 1 0
    outer loop
      vertex 23.5637 -28.689 12.0502
      vertex 23.5738 -28.689 12.0303
      vertex 23.5149 -28.689 12.0094
    endloop
  endfacet
  facet normal 0 1 0
    outer loop
      vertex 23.5149 -28.689 12.0094
      vertex 23.5738 -28.689 12.0303
      vertex 23.5297 -28.689 11.9861
    endloop
  endfacet
  facet normal 0 1 0
    outer loop
      vertex 23.5738 -28.689 12.0303
      vertex 23.5481 -28.689 11.9655
      vertex 23.5297 -28.689 11.9861
    endloop
  endfacet
  facet normal -0.918174 0 -0.396178
    outer loop
      vertex 23.5039 -28.689 12.0347
      vertex 23.5149 -28.689 12.0094
      vertex 23.5039 -28.731 12.0347
    endloop
  endfacet
  facet normal -0.918174 0 -0.396178
    outer loop
      vertex 23.5149 -28.689 12.0094
      vertex 23.5149 -28.731 12.0094
      vertex 23.5039 -28.731 12.0347
    endloop
  endfacet
  facet normal 0.964434 0 0.264322
    outer loop
      vertex 23.5578 -28.689 12.0717
      vertex 23.5578 -28.731 12.0717
      vertex 23.5637 -28.689 12.0502
    endloop
  endfacet
  facet normal 0.964434 0 0.264322
    outer loop
      vertex 23.5578 -28.731 12.0717
      vertex 23.5637 -28.731 12.0502
      vertex 23.5637 -28.689 12.0502
    endloop
  endfacet
  facet normal 0.891746 0 0.452535
    outer loop
      vertex 23.5637 -28.689 12.0502
      vertex 23.5637 -28.731 12.0502
      vertex 23.5738 -28.689 12.0303
    endloop
  endfacet
  facet normal 0.891746 0 0.452535
    outer loop
      vertex 23.5637 -28.731 12.0502
      vertex 23.5738 -28.731 12.0303
      vertex 23.5738 -28.689 12.0303
    endloop
  endfacet
  facet normal 0.78274 0 0.622349
    outer loop
      vertex 23.5738 -28.689 12.0303
      vertex 23.5738 -28.731 12.0303
      vertex 23.5877 -28.689 12.0129
    endloop
  endfacet
  facet normal 0.78274 0 0.622349
    outer loop
      vertex 23.5738 -28.731 12.0303
      vertex 23.5877 -28.731 12.0129
      vertex 23.5877 -28.689 12.0129
    endloop
  endfacet
  facet normal 0.641917 0 0.766774
    outer loop
      vertex 23.5877 -28.689 12.0129
      vertex 23.5877 -28.731 12.0129
      vertex 23.6048 -28.689 11.9985
    endloop
  endfacet
  facet normal 0.641917 0 0.766774
    outer loop
      vertex 23.5877 -28.731 12.0129
      vertex 23.6048 -28.731 11.9985
      vertex 23.6048 -28.689 11.9985
    endloop
  endfacet
  facet normal 0.474832 0 0.880076
    outer loop
      vertex 23.6048 -28.689 11.9985
      vertex 23.6048 -28.731 11.9985
      vertex 23.6244 -28.689 11.988
    endloop
  endfacet
  facet normal 0.474832 0 0.880076
    outer loop
      vertex 23.6048 -28.731 11.9985
      vertex 23.6244 -28.731 11.988
      vertex 23.6244 -28.689 11.988
    endloop
  endfacet
  facet normal 0.288574 0 0.957458
    outer loop
      vertex 23.6244 -28.689 11.988
      vertex 23.6244 -28.731 11.988
      vertex 23.6457 -28.689 11.9815
    endloop
  endfacet
  facet normal 0.288574 0 0.957458
    outer loop
      vertex 23.6244 -28.731 11.988
      vertex 23.6457 -28.731 11.9815
      vertex 23.6457 -28.689 11.9815
    endloop
  endfacet
  facet normal 0.0905094 0 0.995896
    outer loop
      vertex 23.6457 -28.689 11.9815
      vertex 23.6457 -28.731 11.9815
      vertex 23.668 -28.689 11.9795
    endloop
  endfacet
  facet normal 0.0905094 0 0.995896
    outer loop
      vertex 23.6457 -28.731 11.9815
      vertex 23.668 -28.731 11.9795
      vertex 23.668 -28.689 11.9795
    endloop
  endfacet
  facet normal -0.111316 0 0.993785
    outer loop
      vertex 23.668 -28.689 11.9795
      vertex 23.668 -28.731 11.9795
      vertex 23.6901 -28.689 11.982
    endloop
  endfacet
  facet normal -0.111316 0 0.993785
    outer loop
      vertex 23.668 -28.731 11.9795
      vertex 23.6901 -28.731 11.982
      vertex 23.6901 -28.689 11.982
    endloop
  endfacet
  facet normal -0.308585 0 0.951197
    outer loop
      vertex 23.6901 -28.689 11.982
      vertex 23.6901 -28.731 11.982
      vertex 23.7113 -28.689 11.9889
    endloop
  endfacet
  facet normal -0.308585 0 0.951197
    outer loop
      vertex 23.6901 -28.731 11.982
      vertex 23.7113 -28.731 11.9889
      vertex 23.7113 -28.689 11.9889
    endloop
  endfacet
  facet normal -0.493154 0 0.869942
    outer loop
      vertex 23.7113 -28.689 11.9889
      vertex 23.7113 -28.731 11.9889
      vertex 23.7307 -28.689 11.9999
    endloop
  endfacet
  facet normal -0.493154 0 0.869942
    outer loop
      vertex 23.7113 -28.731 11.9889
      vertex 23.7307 -28.731 11.9999
      vertex 23.7307 -28.689 11.9999
    endloop
  endfacet
  facet normal -0.657795 0 0.753197
    outer loop
      vertex 23.7307 -28.689 11.9999
      vertex 23.7307 -28.731 11.9999
      vertex 23.7475 -28.689 12.0145
    endloop
  endfacet
  facet normal -0.657795 0 0.753197
    outer loop
      vertex 23.7307 -28.731 11.9999
      vertex 23.7475 -28.731 12.0145
      vertex 23.7475 -28.689 12.0145
    endloop
  endfacet
  facet normal -0.795593 0 0.605832
    outer loop
      vertex 23.7475 -28.689 12.0145
      vertex 23.7475 -28.731 12.0145
      vertex 23.761 -28.689 12.0323
    endloop
  endfacet
  facet normal -0.795593 0 0.605832
    outer loop
      vertex 23.7475 -28.731 12.0145
      vertex 23.761 -28.731 12.0323
      vertex 23.761 -28.689 12.0323
    endloop
  endfacet
  facet normal -0.901075 0 0.433662
    outer loop
      vertex 23.761 -28.689 12.0323
      vertex 23.761 -28.731 12.0323
      vertex 23.7707 -28.689 12.0524
    endloop
  endfacet
  facet normal -0.901075 0 0.433662
    outer loop
      vertex 23.761 -28.731 12.0323
      vertex 23.7707 -28.731 12.0524
      vertex 23.7707 -28.689 12.0524
    endloop
  endfacet
  facet normal -0.969748 0 0.244108
    outer loop
      vertex 23.7707 -28.689 12.0524
      vertex 23.7707 -28.731 12.0524
      vertex 23.7761 -28.689 12.074
    endloop
  endfacet
  facet normal -0.969748 0 0.244108
    outer loop
      vertex 23.7707 -28.731 12.0524
      vertex 23.7761 -28.731 12.074
      vertex 23.7761 -28.689 12.074
    endloop
  endfacet
  facet normal -0.999012 0 0.0444451
    outer loop
      vertex 23.7761 -28.689 12.074
      vertex 23.7761 -28.731 12.074
      vertex 23.7771 -28.689 12.0963
    endloop
  endfacet
  facet normal -0.999012 0 0.0444451
    outer loop
      vertex 23.7761 -28.731 12.074
      vertex 23.7771 -28.731 12.0963
      vertex 23.7771 -28.689 12.0963
    endloop
  endfacet
  facet normal -0.98759 0 -0.157052
    outer loop
      vertex 23.7771 -28.689 12.0963
      vertex 23.7771 -28.731 12.0963
      vertex 23.7736 -28.689 12.1183
    endloop
  endfacet
  facet normal -0.98759 0 -0.157052
    outer loop
      vertex 23.7771 -28.731 12.0963
      vertex 23.7736 -28.731 12.1183
      vertex 23.7736 -28.689 12.1183
    endloop
  endfacet
  facet normal -0.935985 0 -0.352039
    outer loop
      vertex 23.7736 -28.689 12.1183
      vertex 23.7736 -28.731 12.1183
      vertex 23.7658 -28.689 12.1391
    endloop
  endfacet
  facet normal -0.935985 0 -0.352039
    outer loop
      vertex 23.7736 -28.731 12.1183
      vertex 23.7658 -28.731 12.1391
      vertex 23.7658 -28.689 12.1391
    endloop
  endfacet
  facet normal -0.846177 0 -0.532902
    outer loop
      vertex 23.7658 -28.689 12.1391
      vertex 23.7658 -28.731 12.1391
      vertex 23.7539 -28.689 12.158
    endloop
  endfacet
  facet normal -0.846177 0 -0.532902
    outer loop
      vertex 23.7658 -28.731 12.1391
      vertex 23.7539 -28.731 12.158
      vertex 23.7539 -28.689 12.158
    endloop
  endfacet
  facet normal -0.722066 0 -0.691824
    outer loop
      vertex 23.7539 -28.689 12.158
      vertex 23.7539 -28.731 12.158
      vertex 23.7385 -28.689 12.1741
    endloop
  endfacet
  facet normal -0.722066 0 -0.691824
    outer loop
      vertex 23.7539 -28.731 12.158
      vertex 23.7385 -28.731 12.1741
      vertex 23.7385 -28.689 12.1741
    endloop
  endfacet
  facet normal -0.568417 0 -0.822741
    outer loop
      vertex 23.7385 -28.689 12.1741
      vertex 23.7385 -28.731 12.1741
      vertex 23.7201 -28.689 12.1868
    endloop
  endfacet
  facet normal -0.568417 0 -0.822741
    outer loop
      vertex 23.7385 -28.731 12.1741
      vertex 23.7201 -28.731 12.1868
      vertex 23.7201 -28.689 12.1868
    endloop
  endfacet
  facet normal -0.39174 0 -0.920076
    outer loop
      vertex 23.7201 -28.689 12.1868
      vertex 23.7201 -28.731 12.1868
      vertex 23.6996 -28.689 12.1955
    endloop
  endfacet
  facet normal -0.39174 0 -0.920076
    outer loop
      vertex 23.7201 -28.731 12.1868
      vertex 23.6996 -28.731 12.1955
      vertex 23.6996 -28.689 12.1955
    endloop
  endfacet
  facet normal -0.199031 0 -0.979993
    outer loop
      vertex 23.6996 -28.689 12.1955
      vertex 23.6996 -28.731 12.1955
      vertex 23.6778 -28.689 12.2
    endloop
  endfacet
  facet normal -0.199031 0 -0.979993
    outer loop
      vertex 23.6996 -28.731 12.1955
      vertex 23.6778 -28.731 12.2
      vertex 23.6778 -28.689 12.2
    endloop
  endfacet
  facet normal 0.00171261 0 -0.999999
    outer loop
      vertex 23.6778 -28.689 12.2
      vertex 23.6778 -28.731 12.2
      vertex 23.6555 -28.689 12.1999
    endloop
  endfacet
  facet normal 0.00171261 0 -0.999999
    outer loop
      vertex 23.6778 -28.731 12.2
      vertex 23.6555 -28.731 12.1999
      vertex 23.6555 -28.689 12.1999
    endloop
  endfacet
  facet normal 0.202506 0 -0.979281
    outer loop
      vertex 23.6555 -28.689 12.1999
      vertex 23.6555 -28.731 12.1999
      vertex 23.6336 -28.689 12.1954
    endloop
  endfacet
  facet normal 0.202506 0 -0.979281
    outer loop
      vertex 23.6555 -28.731 12.1999
      vertex 23.6336 -28.731 12.1954
      vertex 23.6336 -28.689 12.1954
    endloop
  endfacet
  facet normal 0.394877 0 -0.918734
    outer loop
      vertex 23.6336 -28.689 12.1954
      vertex 23.6336 -28.731 12.1954
      vertex 23.6131 -28.689 12.1866
    endloop
  endfacet
  facet normal 0.394877 0 -0.918734
    outer loop
      vertex 23.6336 -28.731 12.1954
      vertex 23.6131 -28.731 12.1866
      vertex 23.6131 -28.689 12.1866
    endloop
  endfacet
  facet normal 0.571313 0 -0.820732
    outer loop
      vertex 23.6131 -28.689 12.1866
      vertex 23.6131 -28.731 12.1866
      vertex 23.5948 -28.689 12.1739
    endloop
  endfacet
  facet normal -0.84291 0 -0.538054
    outer loop
      vertex 23.5149 -28.689 12.0094
      vertex 23.5297 -28.689 11.9861
      vertex 23.5149 -28.731 12.0094
    endloop
  endfacet
  facet normal -0.84291 0 -0.538054
    outer loop
      vertex 23.5297 -28.689 11.9861
      vertex 23.5297 -28.731 11.9861
      vertex 23.5149 -28.731 12.0094
    endloop
  endfacet
  facet normal 0 1 0
    outer loop
      vertex 23.5738 -28.689 12.0303
      vertex 23.5877 -28.689 12.0129
      vertex 23.5481 -28.689 11.9655
    endloop
  endfacet
  facet normal 0 1 0
    outer loop
      vertex 23.5877 -28.689 12.0129
      vertex 23.5695 -28.689 11.9481
      vertex 23.5481 -28.689 11.9655
    endloop
  endfacet
  facet normal -0.746004 0 -0.665941
    outer loop
      vertex 23.5297 -28.689 11.9861
      vertex 23.5481 -28.689 11.9655
      vertex 23.5297 -28.731 11.9861
    endloop
  endfacet
  facet normal -0.746004 0 -0.665941
    outer loop
      vertex 23.5481 -28.689 11.9655
      vertex 23.5481 -28.731 11.9655
      vertex 23.5297 -28.731 11.9861
    endloop
  endfacet
  facet normal 0 1 0
    outer loop
      vertex 23.5877 -28.689 12.0129
      vertex 23.6048 -28.689 11.9985
      vertex 23.5695 -28.689 11.9481
    endloop
  endfacet
  facet normal 0 1 0
    outer loop
      vertex 23.6048 -28.689 11.9985
      vertex 23.5935 -28.689 11.9344
      vertex 23.5695 -28.689 11.9481
    endloop
  endfacet
  facet normal -0.629939 0 -0.776644
    outer loop
      vertex 23.5481 -28.689 11.9655
      vertex 23.5695 -28.689 11.9481
      vertex 23.5481 -28.731 11.9655
    endloop
  endfacet
  facet normal -0.629939 0 -0.776644
    outer loop
      vertex 23.5695 -28.689 11.9481
      vertex 23.5695 -28.731 11.9481
      vertex 23.5481 -28.731 11.9655
    endloop
  endfacet
  facet normal -0.497523 0 -0.867451
    outer loop
      vertex 23.5695 -28.689 11.9481
      vertex 23.5935 -28.689 11.9344
      vertex 23.5695 -28.731 11.9481
    endloop
  endfacet
  facet normal -0.497523 0 -0.867451
    outer loop
      vertex 23.5935 -28.689 11.9344
      vertex 23.5935 -28.731 11.9344
      vertex 23.5695 -28.731 11.9481
    endloop
  endfacet
  facet normal 0 1 0
    outer loop
      vertex 23.6048 -28.689 11.9985
      vertex 23.6244 -28.689 11.988
      vertex 23.5935 -28.689 11.9344
    endloop
  endfacet
  facet normal 0 1 0
    outer loop
      vertex 23.6244 -28.689 11.988
      vertex 23.6193 -28.689 11.9247
      vertex 23.5935 -28.689 11.9344
    endloop
  endfacet
  facet normal -0.625271 0 0.780408
    outer loop
      vertex 23.5488 -28.731 12.2152
      vertex 23.5704 -28.731 12.2324
      vertex 23.5488 -28.689 12.2152
    endloop
  endfacet
  facet normal -0.625271 0 0.780408
    outer loop
      vertex 23.5704 -28.731 12.2324
      vertex 23.5704 -28.689 12.2324
      vertex 23.5488 -28.689 12.2152
    endloop
  endfacet
  facet normal 0 -1 0
    outer loop
      vertex 23.5948 -28.731 12.1739
      vertex 23.6131 -28.731 12.1866
      vertex 23.5704 -28.731 12.2324
    endloop
  endfacet
  facet normal 0 -1 0
    outer loop
      vertex 23.6131 -28.731 12.1866
      vertex 23.5944 -28.731 12.246
      vertex 23.5704 -28.731 12.2324
    endloop
  endfacet
  facet normal -0.492352 0 0.870396
    outer loop
      vertex 23.5704 -28.731 12.2324
      vertex 23.5944 -28.731 12.246
      vertex 23.5704 -28.689 12.2324
    endloop
  endfacet
  facet normal -0.492352 0 0.870396
    outer loop
      vertex 23.5944 -28.731 12.246
      vertex 23.5944 -28.689 12.246
      vertex 23.5704 -28.689 12.2324
    endloop
  endfacet
  facet normal 0 -1 0
    outer loop
      vertex 23.6131 -28.731 12.1866
      vertex 23.6336 -28.731 12.1954
      vertex 23.6203 -28.731 12.2556
    endloop
  endfacet
  facet normal 0 -1 0
    outer loop
      vertex 23.6336 -28.731 12.1954
      vertex 23.6474 -28.731 12.2609
      vertex 23.6203 -28.731 12.2556
    endloop
  endfacet
  facet normal -0.352321 0 -0.935879
    outer loop
      vertex 23.5935 -28.689 11.9344
      vertex 23.6193 -28.689 11.9247
      vertex 23.5935 -28.731 11.9344
    endloop
  endfacet
  facet normal -0.352321 0 -0.935879
    outer loop
      vertex 23.6193 -28.689 11.9247
      vertex 23.6193 -28.731 11.9247
      vertex 23.5935 -28.731 11.9344
    endloop
  endfacet
  facet normal 0 1 0
    outer loop
      vertex 23.6244 -28.689 11.988
      vertex 23.6457 -28.689 11.9815
      vertex 23.6193 -28.689 11.9247
    endloop
  endfacet
  facet normal 0 1 0
    outer loop
      vertex 23.6457 -28.689 11.9815
      vertex 23.6464 -28.689 11.9192
      vertex 23.6193 -28.689 11.9247
    endloop
  endfacet
  facet normal 0 -1 0
    outer loop
      vertex 23.6457 -28.731 11.9815
      vertex 23.6244 -28.731 11.988
      vertex 23.6193 -28.731 11.9247
    endloop
  endfacet
  facet normal 0 -1 0
    outer loop
      vertex 23.6203 -28.731 12.2556
      vertex 23.5944 -28.731 12.246
      vertex 23.6131 -28.731 12.1866
    endloop
  endfacet
  facet normal -0.346801 0 0.937939
    outer loop
      vertex 23.5944 -28.731 12.246
      vertex 23.6203 -28.731 12.2556
      vertex 23.5944 -28.689 12.246
    endloop
  endfacet
  facet normal -0.346801 0 0.937939
    outer loop
      vertex 23.6203 -28.731 12.2556
      vertex 23.6203 -28.689 12.2556
      vertex 23.5944 -28.689 12.246
    endloop
  endfacet
  facet normal 0 -1 0
    outer loop
      vertex 23.6336 -28.731 12.1954
      vertex 23.6555 -28.731 12.1999
      vertex 23.6474 -28.731 12.2609
    endloop
  endfacet
  facet normal 0 -1 0
    outer loop
      vertex 23.6555 -28.731 12.1999
      vertex 23.675 -28.731 12.2618
      vertex 23.6474 -28.731 12.2609
    endloop
  endfacet
  facet normal -0.192313 0 0.981334
    outer loop
      vertex 23.6203 -28.731 12.2556
      vertex 23.6474 -28.731 12.2609
      vertex 23.6203 -28.689 12.2556
    endloop
  endfacet
  facet normal -0.192313 0 0.981334
    outer loop
      vertex 23.6474 -28.731 12.2609
      vertex 23.6474 -28.689 12.2609
      vertex 23.6203 -28.689 12.2556
    endloop
  endfacet
  facet normal -0.198127 0 -0.980176
    outer loop
      vertex 23.6193 -28.689 11.9247
      vertex 23.6464 -28.689 11.9192
      vertex 23.6193 -28.731 11.9247
    endloop
  endfacet
  facet normal -0.198127 0 -0.980176
    outer loop
      vertex 23.6464 -28.689 11.9192
      vertex 23.6464 -28.731 11.9192
      vertex 23.6193 -28.731 11.9247
    endloop
  endfacet
  facet normal 0 1 0
    outer loop
      vertex 23.6457 -28.689 11.9815
      vertex 23.668 -28.689 11.9795
      vertex 23.6739 -28.689 11.9181
    endloop
  endfacet
  facet normal 0 1 0
    outer loop
      vertex 23.668 -28.689 11.9795
      vertex 23.7013 -28.689 11.9215
      vertex 23.6739 -28.689 11.9181
    endloop
  endfacet
  facet normal 0 -1 0
    outer loop
      vertex 23.6193 -28.731 11.9247
      vertex 23.6464 -28.731 11.9192
      vertex 23.6457 -28.731 11.9815
    endloop
  endfacet
  facet normal 0 -1 0
    outer loop
      vertex 23.6464 -28.731 11.9192
      vertex 23.668 -28.731 11.9795
      vertex 23.6457 -28.731 11.9815
    endloop
  endfacet
  facet normal 0 -1 0
    outer loop
      vertex 23.6555 -28.731 12.1999
      vertex 23.6778 -28.731 12.2
      vertex 23.675 -28.731 12.2618
    endloop
  endfacet
  facet normal 0 -1 0
    outer loop
      vertex 23.6778 -28.731 12.2
      vertex 23.7023 -28.731 12.2583
      vertex 23.675 -28.731 12.2618
    endloop
  endfacet
  facet normal -0.0327936 0 0.999462
    outer loop
      vertex 23.6474 -28.731 12.2609
      vertex 23.675 -28.731 12.2618
      vertex 23.6474 -28.689 12.2609
    endloop
  endfacet
  facet normal -0.0327936 0 0.999462
    outer loop
      vertex 23.675 -28.731 12.2618
      vertex 23.675 -28.689 12.2618
      vertex 23.6474 -28.689 12.2609
    endloop
  endfacet
  facet normal 0 1 0
    outer loop
      vertex 23.6739 -28.689 11.9181
      vertex 23.6464 -28.689 11.9192
      vertex 23.6457 -28.689 11.9815
    endloop
  endfacet
  facet normal -0.0387648 0 -0.999248
    outer loop
      vertex 23.6464 -28.689 11.9192
      vertex 23.6739 -28.689 11.9181
      vertex 23.6464 -28.731 11.9192
    endloop
  endfacet
  facet normal -0.0387648 0 -0.999248
    outer loop
      vertex 23.6739 -28.689 11.9181
      vertex 23.6739 -28.731 11.9181
      vertex 23.6464 -28.731 11.9192
    endloop
  endfacet
  facet normal 0 -1 0
    outer loop
      vertex 23.6464 -28.731 11.9192
      vertex 23.6739 -28.731 11.9181
      vertex 23.668 -28.731 11.9795
    endloop
  endfacet
  facet normal 0 -1 0
    outer loop
      vertex 23.6739 -28.731 11.9181
      vertex 23.6901 -28.731 11.982
      vertex 23.668 -28.731 11.9795
    endloop
  endfacet
  facet normal 0 1 0
    outer loop
      vertex 23.668 -28.689 11.9795
      vertex 23.6901 -28.689 11.982
      vertex 23.7013 -28.689 11.9215
    endloop
  endfacet
  facet normal 0 1 0
    outer loop
      vertex 23.6901 -28.689 11.982
      vertex 23.7279 -28.689 11.9292
      vertex 23.7013 -28.689 11.9215
    endloop
  endfacet
  facet normal 0.121593 0 -0.99258
    outer loop
      vertex 23.6739 -28.689 11.9181
      vertex 23.7013 -28.689 11.9215
      vertex 23.6739 -28.731 11.9181
    endloop
  endfacet
  facet normal 0.121593 0 -0.99258
    outer loop
      vertex 23.7013 -28.689 11.9215
      vertex 23.7013 -28.731 11.9215
      vertex 23.6739 -28.731 11.9181
    endloop
  endfacet
  facet normal 0 -1 0
    outer loop
      vertex 23.6739 -28.731 11.9181
      vertex 23.7013 -28.731 11.9215
      vertex 23.6901 -28.731 11.982
    endloop
  endfacet
  facet normal 0 -1 0
    outer loop
      vertex 23.7013 -28.731 11.9215
      vertex 23.7113 -28.731 11.9889
      vertex 23.6901 -28.731 11.982
    endloop
  endfacet
  facet normal 0.278836 0 -0.960339
    outer loop
      vertex 23.7013 -28.689 11.9215
      vertex 23.7279 -28.689 11.9292
      vertex 23.7013 -28.731 11.9215
    endloop
  endfacet
  facet normal 0.278836 0 -0.960339
    outer loop
      vertex 23.7279 -28.689 11.9292
      vertex 23.7279 -28.731 11.9292
      vertex 23.7013 -28.731 11.9215
    endloop
  endfacet
  facet normal 0 1 0
    outer loop
      vertex 23.6901 -28.689 11.982
      vertex 23.7113 -28.689 11.9889
      vertex 23.7279 -28.689 11.9292
    endloop
  endfacet
  facet normal 0 1 0
    outer loop
      vertex 23.7113 -28.689 11.9889
      vertex 23.7528 -28.689 11.941
      vertex 23.7279 -28.689 11.9292
    endloop
  endfacet
  facet normal 0.127439 0 0.991846
    outer loop
      vertex 23.675 -28.731 12.2618
      vertex 23.7023 -28.731 12.2583
      vertex 23.675 -28.689 12.2618
    endloop
  endfacet
  facet normal 0.127439 0 0.991846
    outer loop
      vertex 23.7023 -28.731 12.2583
      vertex 23.7023 -28.689 12.2583
      vertex 23.675 -28.689 12.2618
    endloop
  endfacet
  facet normal 0 -1 0
    outer loop
      vertex 23.6778 -28.731 12.2
      vertex 23.6996 -28.731 12.1955
      vertex 23.7023 -28.731 12.2583
    endloop
  endfacet
  facet normal 0 -1 0
    outer loop
      vertex 23.6996 -28.731 12.1955
      vertex 23.7288 -28.731 12.2504
      vertex 23.7023 -28.731 12.2583
    endloop
  endfacet
  facet normal 0 1 0
    outer loop
      vertex 23.6996 -28.689 12.1955
      vertex 23.6778 -28.689 12.2
      vertex 23.7023 -28.689 12.2583
    endloop
  endfacet
  facet normal 0 -1 0
    outer loop
      vertex 23.7013 -28.731 11.9215
      vertex 23.7279 -28.731 11.9292
      vertex 23.7113 -28.731 11.9889
    endloop
  endfacet
  facet normal 0 -1 0
    outer loop
      vertex 23.7279 -28.731 11.9292
      vertex 23.7528 -28.731 11.941
      vertex 23.7113 -28.731 11.9889
    endloop
  endfacet
  facet normal 0 -1 0
    outer loop
      vertex 23.7113 -28.731 11.9889
      vertex 23.7528 -28.731 11.941
      vertex 23.7307 -28.731 11.9999
    endloop
  endfacet
  facet normal 0 -1 0
    outer loop
      vertex 23.7528 -28.731 11.941
      vertex 23.7755 -28.731 11.9567
      vertex 23.7307 -28.731 11.9999
    endloop
  endfacet
  facet normal 0 -1 0
    outer loop
      vertex 23.7307 -28.731 11.9999
      vertex 23.7755 -28.731 11.9567
      vertex 23.7475 -28.731 12.0145
    endloop
  endfacet
  facet normal 0 -1 0
    outer loop
      vertex 23.7755 -28.731 11.9567
      vertex 23.7954 -28.731 11.9758
      vertex 23.7475 -28.731 12.0145
    endloop
  endfacet
  facet normal 0 -1 0
    outer loop
      vertex 23.7475 -28.731 12.0145
      vertex 23.7954 -28.731 11.9758
      vertex 23.761 -28.731 12.0323
    endloop
  endfacet
  facet normal 0 -1 0
    outer loop
      vertex 23.7954 -28.731 11.9758
      vertex 23.812 -28.731 11.9979
      vertex 23.761 -28.731 12.0323
    endloop
  endfacet
  facet normal 0 -1 0
    outer loop
      vertex 23.761 -28.731 12.0323
      vertex 23.812 -28.731 11.9979
      vertex 23.7707 -28.731 12.0524
    endloop
  endfacet
  facet normal 0 -1 0
    outer loop
      vertex 23.812 -28.731 11.9979
      vertex 23.8249 -28.731 12.0223
      vertex 23.7707 -28.731 12.0524
    endloop
  endfacet
  facet normal 0 -1 0
    outer loop
      vertex 23.7707 -28.731 12.0524
      vertex 23.8249 -28.731 12.0223
      vertex 23.8337 -28.731 12.0485
    endloop
  endfacet
  facet normal 0.284524 0 0.958669
    outer loop
      vertex 23.7023 -28.731 12.2583
      vertex 23.7288 -28.731 12.2504
      vertex 23.7023 -28.689 12.2583
    endloop
  endfacet
  facet normal 0.284524 0 0.958669
    outer loop
      vertex 23.7288 -28.731 12.2504
      vertex 23.7288 -28.689 12.2504
      vertex 23.7023 -28.689 12.2583
    endloop
  endfacet
  facet normal 0 -1 0
    outer loop
      vertex 23.6996 -28.731 12.1955
      vertex 23.7201 -28.731 12.1868
      vertex 23.7537 -28.731 12.2384
    endloop
  endfacet
  facet normal 0 -1 0
    outer loop
      vertex 23.7201 -28.731 12.1868
      vertex 23.7763 -28.731 12.2226
      vertex 23.7537 -28.731 12.2384
    endloop
  endfacet
  facet normal 0 1 0
    outer loop
      vertex 23.7023 -28.689 12.2583
      vertex 23.7288 -28.689 12.2504
      vertex 23.6996 -28.689 12.1955
    endloop
  endfacet
  facet normal 0 1 0
    outer loop
      vertex 23.7288 -28.689 12.2504
      vertex 23.7201 -28.689 12.1868
      vertex 23.6996 -28.689 12.1955
    endloop
  endfacet
  facet normal 0.428848 0 -0.903377
    outer loop
      vertex 23.7279 -28.689 11.9292
      vertex 23.7528 -28.689 11.941
      vertex 23.7279 -28.731 11.9292
    endloop
  endfacet
  facet normal 0.428848 0 -0.903377
    outer loop
      vertex 23.7528 -28.689 11.941
      vertex 23.7528 -28.731 11.941
      vertex 23.7279 -28.731 11.9292
    endloop
  endfacet
  facet normal 0 1 0
    outer loop
      vertex 23.7113 -28.689 11.9889
      vertex 23.7307 -28.689 11.9999
      vertex 23.7528 -28.689 11.941
    endloop
  endfacet
  facet normal 0 1 0
    outer loop
      vertex 23.7307 -28.689 11.9999
      vertex 23.7755 -28.689 11.9567
      vertex 23.7528 -28.689 11.941
    endloop
  endfacet
  facet normal 0 -1 0
    outer loop
      vertex 23.7537 -28.731 12.2384
      vertex 23.7288 -28.731 12.2504
      vertex 23.6996 -28.731 12.1955
    endloop
  endfacet
  facet normal 0.434184 0 0.900824
    outer loop
      vertex 23.7288 -28.731 12.2504
      vertex 23.7537 -28.731 12.2384
      vertex 23.7288 -28.689 12.2504
    endloop
  endfacet
  facet normal 0.434184 0 0.900824
    outer loop
      vertex 23.7537 -28.731 12.2384
      vertex 23.7537 -28.689 12.2384
      vertex 23.7288 -28.689 12.2504
    endloop
  endfacet
  facet normal 0 -1 0
    outer loop
      vertex 23.7201 -28.731 12.1868
      vertex 23.7385 -28.731 12.1741
      vertex 23.7763 -28.731 12.2226
    endloop
  endfacet
  facet normal 0 -1 0
    outer loop
      vertex 23.7385 -28.731 12.1741
      vertex 23.7961 -28.731 12.2034
      vertex 23.7763 -28.731 12.2226
    endloop
  endfacet
  facet normal 0.572679 0 0.81978
    outer loop
      vertex 23.7537 -28.731 12.2384
      vertex 23.7763 -28.731 12.2226
      vertex 23.7537 -28.689 12.2384
    endloop
  endfacet
  facet normal 0.572679 0 0.81978
    outer loop
      vertex 23.7763 -28.731 12.2226
      vertex 23.7763 -28.689 12.2226
      vertex 23.7537 -28.689 12.2384
    endloop
  endfacet
  facet normal 0 1 0
    outer loop
      vertex 23.7288 -28.689 12.2504
      vertex 23.7537 -28.689 12.2384
      vertex 23.7201 -28.689 12.1868
    endloop
  endfacet
  facet normal 0 1 0
    outer loop
      vertex 23.7537 -28.689 12.2384
      vertex 23.7385 -28.689 12.1741
      vertex 23.7201 -28.689 12.1868
    endloop
  endfacet
  facet normal 0.56782 0 -0.823153
    outer loop
      vertex 23.7528 -28.689 11.941
      vertex 23.7755 -28.689 11.9567
      vertex 23.7528 -28.731 11.941
    endloop
  endfacet
  facet normal 0.56782 0 -0.823153
    outer loop
      vertex 23.7755 -28.689 11.9567
      vertex 23.7755 -28.731 11.9567
      vertex 23.7528 -28.731 11.941
    endloop
  endfacet
  facet normal 0 1 0
    outer loop
      vertex 23.7307 -28.689 11.9999
      vertex 23.7475 -28.689 12.0145
      vertex 23.7954 -28.689 11.9758
    endloop
  endfacet
  facet normal 0 1 0
    outer loop
      vertex 23.7475 -28.689 12.0145
      vertex 23.812 -28.689 11.9979
      vertex 23.7954 -28.689 11.9758
    endloop
  endfacet
  facet normal 0 1 0
    outer loop
      vertex 23.7537 -28.689 12.2384
      vertex 23.7763 -28.689 12.2226
      vertex 23.7385 -28.689 12.1741
    endloop
  endfacet
  facet normal 0 1 0
    outer loop
      vertex 23.7763 -28.689 12.2226
      vertex 23.7539 -28.689 12.158
      vertex 23.7385 -28.689 12.1741
    endloop
  endfacet
  facet normal 0.696485 0 0.717572
    outer loop
      vertex 23.7763 -28.731 12.2226
      vertex 23.7961 -28.731 12.2034
      vertex 23.7763 -28.689 12.2226
    endloop
  endfacet
  facet normal 0.696485 0 0.717572
    outer loop
      vertex 23.7961 -28.731 12.2034
      vertex 23.7961 -28.689 12.2034
      vertex 23.7763 -28.689 12.2226
    endloop
  endfacet
  facet normal 0 -1 0
    outer loop
      vertex 23.7385 -28.731 12.1741
      vertex 23.7539 -28.731 12.158
      vertex 23.7961 -28.731 12.2034
    endloop
  endfacet
  facet normal 0 -1 0
    outer loop
      vertex 23.7539 -28.731 12.158
      vertex 23.8126 -28.731 12.1813
      vertex 23.7961 -28.731 12.2034
    endloop
  endfacet
  facet normal 0 1 0
    outer loop
      vertex 23.7954 -28.689 11.9758
      vertex 23.7755 -28.689 11.9567
      vertex 23.7307 -28.689 11.9999
    endloop
  endfacet
  facet normal 0.692175 0 -0.72173
    outer loop
      vertex 23.7755 -28.689 11.9567
      vertex 23.7954 -28.689 11.9758
      vertex 23.7755 -28.731 11.9567
    endloop
  endfacet
  facet normal 0.692175 0 -0.72173
    outer loop
      vertex 23.7954 -28.689 11.9758
      vertex 23.7954 -28.731 11.9758
      vertex 23.7755 -28.731 11.9567
    endloop
  endfacet
  facet normal 0 1 0
    outer loop
      vertex 23.7475 -28.689 12.0145
      vertex 23.761 -28.689 12.0323
      vertex 23.812 -28.689 11.9979
    endloop
  endfacet
  facet normal 0 1 0
    outer loop
      vertex 23.761 -28.689 12.0323
      vertex 23.8249 -28.689 12.0223
      vertex 23.812 -28.689 11.9979
    endloop
  endfacet
  facet normal 0.798759 0 -0.601651
    outer loop
      vertex 23.7954 -28.689 11.9758
      vertex 23.812 -28.689 11.9979
      vertex 23.7954 -28.731 11.9758
    endloop
  endfacet
  facet normal 0.798759 0 -0.601651
    outer loop
      vertex 23.812 -28.689 11.9979
      vertex 23.812 -28.731 11.9979
      vertex 23.7954 -28.731 11.9758
    endloop
  endfacet
  facet normal 0 1 0
    outer loop
      vertex 23.7763 -28.689 12.2226
      vertex 23.7961 -28.689 12.2034
      vertex 23.7539 -28.689 12.158
    endloop
  endfacet
  facet normal 0 1 0
    outer loop
      vertex 23.7961 -28.689 12.2034
      vertex 23.8126 -28.689 12.1813
      vertex 23.7539 -28.689 12.158
    endloop
  endfacet
  facet normal 0 1 0
    outer loop
      vertex 23.7539 -28.689 12.158
      vertex 23.8126 -28.689 12.1813
      vertex 23.7658 -28.689 12.1391
    endloop
  endfacet
  facet normal 0 1 0
    outer loop
      vertex 23.8126 -28.689 12.1813
      vertex 23.8253 -28.689 12.1568
      vertex 23.7658 -28.689 12.1391
    endloop
  endfacet
  facet normal 0 1 0
    outer loop
      vertex 23.7658 -28.689 12.1391
      vertex 23.8253 -28.689 12.1568
      vertex 23.7736 -28.689 12.1183
    endloop
  endfacet
  facet normal 0 1 0
    outer loop
      vertex 23.8253 -28.689 12.1568
      vertex 23.8339 -28.689 12.1306
      vertex 23.7736 -28.689 12.1183
    endloop
  endfacet
  facet normal 0 1 0
    outer loop
      vertex 23.7736 -28.689 12.1183
      vertex 23.8339 -28.689 12.1306
      vertex 23.7771 -28.689 12.0963
    endloop
  endfacet
  facet normal 0 1 0
    outer loop
      vertex 23.8339 -28.689 12.1306
      vertex 23.8383 -28.689 12.1033
      vertex 23.7771 -28.689 12.0963
    endloop
  endfacet
  facet normal 0 1 0
    outer loop
      vertex 23.7771 -28.689 12.0963
      vertex 23.8383 -28.689 12.1033
      vertex 23.7761 -28.689 12.074
    endloop
  endfacet
  facet normal 0 1 0
    outer loop
      vertex 23.8383 -28.689 12.1033
      vertex 23.8382 -28.689 12.0757
      vertex 23.7761 -28.689 12.074
    endloop
  endfacet
  facet normal 0 1 0
    outer loop
      vertex 23.7761 -28.689 12.074
      vertex 23.8382 -28.689 12.0757
      vertex 23.8337 -28.689 12.0485
    endloop
  endfacet
  facet normal 0.802266 0 0.596967
    outer loop
      vertex 23.7961 -28.731 12.2034
      vertex 23.8126 -28.731 12.1813
      vertex 23.7961 -28.689 12.2034
    endloop
  endfacet
  facet normal 0.802266 0 0.596967
    outer loop
      vertex 23.8126 -28.731 12.1813
      vertex 23.8126 -28.689 12.1813
      vertex 23.7961 -28.689 12.2034
    endloop
  endfacet
  facet normal 0 -1 0
    outer loop
      vertex 23.7539 -28.731 12.158
      vertex 23.7658 -28.731 12.1391
      vertex 23.8126 -28.731 12.1813
    endloop
  endfacet
  facet normal 0 -1 0
    outer loop
      vertex 23.7658 -28.731 12.1391
      vertex 23.8253 -28.731 12.1568
      vertex 23.8126 -28.731 12.1813
    endloop
  endfacet
  facet normal 0.884682 0 -0.466194
    outer loop
      vertex 23.812 -28.689 11.9979
      vertex 23.8249 -28.689 12.0223
      vertex 23.812 -28.731 11.9979
    endloop
  endfacet
  facet normal 0.884682 0 -0.466194
    outer loop
      vertex 23.8249 -28.689 12.0223
      vertex 23.8249 -28.731 12.0223
      vertex 23.812 -28.731 11.9979
    endloop
  endfacet
  facet normal 0 1 0
    outer loop
      vertex 23.761 -28.689 12.0323
      vertex 23.7707 -28.689 12.0524
      vertex 23.8249 -28.689 12.0223
    endloop
  endfacet
  facet normal 0 1 0
    outer loop
      vertex 23.7707 -28.689 12.0524
      vertex 23.8337 -28.689 12.0485
      vertex 23.8249 -28.689 12.0223
    endloop
  endfacet
  facet normal 0.887439 0 0.460926
    outer loop
      vertex 23.8126 -28.731 12.1813
      vertex 23.8253 -28.731 12.1568
      vertex 23.8126 -28.689 12.1813
    endloop
  endfacet
  facet normal 0.887439 0 0.460926
    outer loop
      vertex 23.8253 -28.731 12.1568
      vertex 23.8253 -28.689 12.1568
      vertex 23.8126 -28.689 12.1813
    endloop
  endfacet
  facet normal 0 -1 0
    outer loop
      vertex 23.7658 -28.731 12.1391
      vertex 23.7736 -28.731 12.1183
      vertex 23.8339 -28.731 12.1306
    endloop
  endfacet
  facet normal 0 -1 0
    outer loop
      vertex 23.7736 -28.731 12.1183
      vertex 23.8383 -28.731 12.1033
      vertex 23.8339 -28.731 12.1306
    endloop
  endfacet
  facet normal 0.947898 0 -0.318575
    outer loop
      vertex 23.8249 -28.689 12.0223
      vertex 23.8337 -28.689 12.0485
      vertex 23.8249 -28.731 12.0223
    endloop
  endfacet
  facet normal 0.947898 0 -0.318575
    outer loop
      vertex 23.8337 -28.689 12.0485
      vertex 23.8337 -28.731 12.0485
      vertex 23.8249 -28.731 12.0223
    endloop
  endfacet
  facet normal 0 1 0
    outer loop
      vertex 23.7707 -28.689 12.0524
      vertex 23.7761 -28.689 12.074
      vertex 23.8337 -28.689 12.0485
    endloop
  endfacet
  facet normal 0 -1 0
    outer loop
      vertex 23.7761 -28.731 12.074
      vertex 23.7707 -28.731 12.0524
      vertex 23.8337 -28.731 12.0485
    endloop
  endfacet
  facet normal 0 -1 0
    outer loop
      vertex 23.8339 -28.731 12.1306
      vertex 23.8253 -28.731 12.1568
      vertex 23.7658 -28.731 12.1391
    endloop
  endfacet
  facet normal 0.949767 0 0.312957
    outer loop
      vertex 23.8253 -28.731 12.1568
      vertex 23.8339 -28.731 12.1306
      vertex 23.8253 -28.689 12.1568
    endloop
  endfacet
  facet normal 0.949767 0 0.312957
    outer loop
      vertex 23.8339 -28.731 12.1306
      vertex 23.8339 -28.689 12.1306
      vertex 23.8253 -28.689 12.1568
    endloop
  endfacet
  facet normal 0 -1 0
    outer loop
      vertex 23.7736 -28.731 12.1183
      vertex 23.7771 -28.731 12.0963
      vertex 23.8383 -28.731 12.1033
    endloop
  endfacet
  facet normal 0 -1 0
    outer loop
      vertex 23.7771 -28.731 12.0963
      vertex 23.8382 -28.731 12.0757
      vertex 23.8383 -28.731 12.1033
    endloop
  endfacet
  facet normal 0.987595 0 0.157025
    outer loop
      vertex 23.8339 -28.731 12.1306
      vertex 23.8383 -28.731 12.1033
      vertex 23.8339 -28.689 12.1306
    endloop
  endfacet
  facet normal 0.987595 0 0.157025
    outer loop
      vertex 23.8383 -28.731 12.1033
      vertex 23.8383 -28.689 12.1033
      vertex 23.8339 -28.689 12.1306
    endloop
  endfacet
  facet normal 0.986644 0 -0.162889
    outer loop
      vertex 23.8337 -28.689 12.0485
      vertex 23.8382 -28.689 12.0757
      vertex 23.8337 -28.731 12.0485
    endloop
  endfacet
  facet normal 0.986644 0 -0.162889
    outer loop
      vertex 23.8382 -28.689 12.0757
      vertex 23.8382 -28.731 12.0757
      vertex 23.8337 -28.731 12.0485
    endloop
  endfacet
  facet normal 0 -1 0
    outer loop
      vertex 23.8337 -28.731 12.0485
      vertex 23.8382 -28.731 12.0757
      vertex 23.7761 -28.731 12.074
    endloop
  endfacet
  facet normal 0 -1 0
    outer loop
      vertex 23.8382 -28.731 12.0757
      vertex 23.7771 -28.731 12.0963
      vertex 23.7761 -28.731 12.074
    endloop
  endfacet
  facet normal 0.999996 0 -0.00296905
    outer loop
      vertex 23.8383 -28.731 12.1033
      vertex 23.8382 -28.731 12.0757
      vertex 23.8383 -28.689 12.1033
    endloop
  endfacet
  facet normal 0.999996 0 -0.00296905
    outer loop
      vertex 23.8382 -28.731 12.0757
      vertex 23.8382 -28.689 12.0757
      vertex 23.8383 -28.689 12.1033
    endloop
  endfacet
endsolid Onshape
